<svg xmlns="http://www.w3.org/2000/svg" width="106.794" height="114.796" viewBox="0 0 28.256 30.373"><path d="M21.553 9.812l1.367 3.34c.304.96-.305 2.381-2.817 1.173-1.789-.853-3.083-1.457-2.017-2.878a13.68 13.68 0 0 1 1.756-1.918c.691-.603 1.118-.983 1.71.284zm-.596 9.621c1.315-1.294 3.143.154 1.866 1.89-2.572 3.516-7.063 4.919-11.087 3.506S4.999 19.553 5 15.134c-.01-2.648.868-4.857 2.546-6.847C9.162 6.479 11.566 5.031 13.938 5c3.334 0 4.823 2.916 3.649 4.543-1.312 1.808-2.838 1.661-3.972.886l-2.022-1.477c-.71-.553-1.49-.553-1.774.333-.496 1.587-.744 2.584-1.135 4.17-.182.798-.277 1.615-.283 2.436.008 1.51.673 2.935 1.809 3.876.784.737 1.626 1.403 2.518 1.993.718.49 1.554.759 2.412.775h.071c.858-.017 1.694-.286 2.412-.775a30.3 30.3 0 0 0 3.334-2.326zm-9.379-1.829c-.473-.173-1.544-1.108-1.229-1.801.126-.381 1.04-.485 1.324-.485 1.671-.034 1.734 2.945-.094 2.286zm2.939 3.174c-.213-.191-.605-.574-.961-.893-.099-.107-.118-.256-.048-.38a.4.4 0 0 1 .368-.194c.628-.032 1.258-.032 1.886 0a.38.38 0 0 1 .325.217c.053.122.023.261-.076.357-.355.319-.747.702-.925.893-.077.064-.179.098-.284.096s-.207-.032-.284-.096zm3.748-3.174c-1.828.659-1.765-2.32-.094-2.286.283 0 1.166.103 1.324.485.315.693-.756 1.628-1.229 1.801z" fill="#25b135" fill-rule="nonzero"/></svg>
