<svg xmlns="http://www.w3.org/2000/svg" width="96" height="96"><path fill="url(#A)" d="M48 2.4L8.5 25.2v45.6L48 93.6l39.5-22.8V25.2L48 2.4z"/><path fill="url(#B)" d="M48 2.4L8.5 25.2v45.6L48 93.6V2.4z"/><path fill="#fff" d="M63.4 22.1h-31l-3.6 15.8h38.4l-3.8-15.8zM37.9 59.6V49.1l-9.2-5.8L18.3 51l14.2 24.7h5.7l6.7-6.3v-3.1l-7-6.7zM58 40.3H38l3.3 8.8-1 9.9h15.4l-1-9.9 3.3-8.8zm9.2 2.9l-9.1 5.9v10.5l-6.9 6.7v3.1l6.7 6.2h5.6L77.6 51l-10.4-7.8z"/><defs><linearGradient y2="93.544" x2="47.965" x1="47.965" gradientUnits="userSpaceOnUse" id="A" y1="2.4"><stop stop-color="#25376c" offset="0"/><stop stop-color="#1f1f49" offset="1"/></linearGradient><linearGradient x2="28.235" y1="93.544" x1="28.235" gradientUnits="userSpaceOnUse" id="B" y2="2.4"><stop stop-color="#25376c" offset="0"/><stop stop-color="#1f1f49" offset="1"/></linearGradient></defs></svg>
