<svg xmlns="http://www.w3.org/2000/svg" fill="none" height="33" width="35"><path d="M32.958 1l-13.134 9.718 2.442-5.727z" fill="#e17726" stroke="#e17726" stroke-linejoin="round" stroke-width=".25"/><g fill="#e27625" stroke="#e27625" stroke-linejoin="round" stroke-width=".25"><path d="M2.663 1l13.017 9.809-2.325-5.818zM28.23 23.534l-3.495 5.339 7.483 2.06 2.144-7.282zm-26.957.116l2.131 7.282 7.47-2.06-3.482-5.339z"/><path d="M10.471 14.515l-2.079 3.136 7.405.337-.247-7.969zm14.68 0l-5.157-4.587-.169 8.06 7.405-.337zM10.873 28.872l4.482-2.164-3.858-3.006zm9.393-2.164l4.469 2.164-.611-5.17z"/></g><g stroke-linejoin="round" stroke-width=".25"><path d="M24.735 28.872l-4.469-2.164.364 2.903-.039 1.231zm-13.862 0l4.157 1.97-.026-1.231.351-2.902z" fill="#d5bfb2" stroke="#d5bfb2"/><path d="M15.108 21.784l-3.716-1.088 2.624-1.205zm5.405 0l1.091-2.294 2.637 1.205z" fill="#233447" stroke="#233447"/><path d="M10.873 28.872l.649-5.339-4.131.117zm13.225-5.338l.637 5.339 3.495-5.222zm3.131-5.883l-7.405.337.689 3.797 1.091-2.293 2.637 1.205zm-15.836 3.045l2.624-1.205 1.091 2.294.688-3.797-7.405-.337z" fill="#cc6228" stroke="#cc6228"/><path d="M8.392 17.651l3.105 6.051-.104-3.006zm15.849 3.045l-.117 3.006 3.105-6.051zm-8.444-2.708l-.689 3.797.87 4.483.195-5.909zm4.027 0l-.364 2.358.182 5.922.87-4.483z" fill="#e27525" stroke="#e27525"/><path d="M20.513 21.784l-.87 4.483.624.441 3.858-3.006.117-3.006zm-9.12-1.088l.104 3.006 3.858 3.006.624-.441-.87-4.483z" fill="#f5841f" stroke="#f5841f"/><path d="M20.591 30.842l.039-1.231-.338-.285h-4.963l-.325.285.026 1.231-4.157-1.97 1.455 1.192 2.949 2.034h5.054l2.962-2.034 1.442-1.192z" fill="#c0ac9d" stroke="#c0ac9d"/><path d="M20.266 26.708l-.624-.441h-3.663l-.624.441-.351 2.903.325-.285h4.963l.338.285z" fill="#161616" stroke="#161616"/><path d="M33.517 11.353l1.104-5.364L32.958 1l-12.692 9.394 4.885 4.121 6.898 2.009 1.52-1.775-.663-.479 1.052-.959-.805-.622 1.052-.803zM1 5.989l1.117 5.364-.715.531 1.065.803-.805.622 1.052.959-.663.479 1.52 1.775 6.898-2.008 4.885-4.12L2.663 1z" fill="#763e1a" stroke="#763e1a"/><path d="M32.049 16.523l-6.898-2.008 2.079 3.136-3.105 6.051 4.105-.052h6.132zm-21.578-2.008l-6.898 2.009-2.299 7.127h6.119l4.105.052-3.105-6.051zm9.353 3.473l.442-7.593 2.001-5.403h-8.912l2.001 5.403.442 7.593.169 2.384.013 5.896h3.664l.013-5.896z" fill="#f5841f" stroke="#f5841f"/></g></svg>
