<svg xmlns="http://www.w3.org/2000/svg" width="640" height="640" fill="none"><g fill="#4e5ba6"><path d="M326.733 589.094c-31.539 6.701-64.096 8.416-96.16 5.005-32.236-3.43-64.032-12.089-93.241-26.214-28.295-13.677-54.131-32.474-75.053-55.987s-36.09-49.76-46.189-78.612-14.477-59.104-12.045-89.299c2.458-30.528 12.052-60.909 29.524-86.221 18.496-26.796 45.881-45.785 78.483-50.201 34.291-4.64 69.446 5.414 99.033 22.502 30.676 17.709 56.512 42.375 81.229 67.456 24.416 24.775 48.192 50.407 75.808 71.719 28.397 21.907 60.679 37.792 96.243 43.724 17.376 2.9 35.949 4.282 53.364.967 15.238-2.906 28.64-10.759 39.34-21.888 22.49-23.392 33.191-56.986 38.304-88.327 5.856-35.872 4.026-72.614-1.817-108.358-5.293-32.39-13.415-65.075-29.197-94.086-14.944-27.47-37.165-49.543-65.171-63.565C471.77 23.974 441.14 17.875 410.759 15.5c-33.798-2.65-68.166-1.171-101.83 2.49-36.18 3.935-72.25 11.545-105.78 25.99-28.921 12.46-55.936 30.112-77.644 53.05-10.298 10.879-19.309 22.937-26.688 35.98-.608 1.075 1.05 2.048 1.657.967 15.795-27.924 39.111-50.855 65.92-68.244 29.159-18.905 62.08-31.027 95.93-38.387 35.757-7.776 72.653-10.726 109.197-11.136 31.404-.352 63.244 1.875 93.58 10.47 29.933 8.48 57.882 23.757 78.394 47.508 21.613 25.03 33.798 56.723 41.542 88.493 8.525 34.988 13.191 71.449 11.764 107.488-1.376 34.675-8.487 71.225-26.567 101.299-7.878 13.101-18.259 25.094-31.629 32.793-16.051 9.248-34.822 10.24-52.908 9.184-36.852-2.15-71.93-14.937-102.4-35.571-29.14-19.731-53.856-45.081-78.317-70.163s-48.807-49.997-77.645-69.677c-27.68-18.893-59.718-32.147-93.536-33.389-16.23-.595-32.646 1.709-47.802 7.655-13.894 5.446-26.438 13.862-37.107 24.269-21.561 21.036-35.405 49.312-42.233 78.425s-6.682 58.778-.935 87.655 17.491 57.504 33.799 82.553c16.422 25.223 37.593 46.989 62.291 64.179 25.894 18.023 55.187 30.97 85.696 38.861 30.752 7.955 62.809 10.867 94.502 8.903a309.673 309.673 0 0 0 45.248-6.196c1.21-.256.698-2.105-.512-1.849l-.013-.007z" fill-opacity=".3"/><path d="M163.492 395.259c20.556 19.904 46.603 32.471 73.158 42.282 26.872 9.921 54.597 18.144 82.819 23.211 28.498 5.116 57.569 6.845 86.355 3.018 23.671-3.146 46.927-10.583 67.914-22.085 20.894-11.442 39.557-27.152 53.371-46.685 7.503-10.615 14.575-22.867 16.54-35.882 1.055-6.967.482-13.846-2.343-20.322-2.409-5.532-6.674-10.625-12.003-13.518-5.904-3.213-12.712-3.569-19.094-1.6s-13.27 5.403-17.32 10.775c-8.076 10.694 3.325 24.389 15.142 23.558 12.881-.905 21.717-12.905 27.064-23.554 5.489-10.939 8.276-23.01 8.62-35.227.7-24.945-8.416-49.224-23.616-68.693-16.362-20.946-38.978-36.249-62.654-47.749-5.889-2.859-11.896-5.51-17.95-7.999-2.092-.861-4.6.877-5.175 2.887-.683 2.386.764 4.323 2.865 5.187 22.535 9.271 44.587 21.209 62.537 37.923 17.111 15.93 29.722 35.901 34.094 59.094 3.919 20.793.92 44.788-12.919 61.403-3.281 3.933-7.521 7.708-12.577 8.319-.39.044-.981.049-1.449.032-.21-.012-1.417-.183-.785-.06a12.97 12.97 0 0 1-1.655-.435 12.354 12.354 0 0 1-.806-.289c.623.256-.219-.111-.337-.174-.5-.278-.989-.564-1.469-.876-.684-.448-.219-.082-.813-.64a15.886 15.886 0 0 1-1.015-1.047c-.527-.588-.249-.276-.134-.107-.237-.32-.452-.682-.652-1.031-.295-.521-.584-1.234-.683-1.835.079.469-.02-.336-.018-.442a23.62 23.62 0 0 1 .016-.801c.028-.671-.161.565.017-.092.099-.38.182-.773.326-1.139.915-2.184 3.227-3.813 5.236-5.024 4.743-2.864 10.174-5.26 15.825-4.74 2.232.202 4.505 1.143 6.505 2.463 1.839 1.205 3.636 3 4.935 4.809 3.248 4.559 4.627 9.873 4.459 15.493-.351 12.137-6.984 23.7-13.513 33.584-12.012 18.166-28.712 33.059-47.41 44.159-19.218 11.397-40.433 18.962-62.394 22.888-25.842 4.62-52.511 3.987-78.424.377-26.798-3.727-53.066-10.894-78.689-19.438-24.976-8.34-49.938-18.044-71.401-33.628a132.285 132.285 0 0 1-14.437-12.137c-1.619-1.57-4.239-1.737-5.916-.13-1.587 1.526-1.768 4.356-.143 5.937l-.004-.02z"/><path d="M336.146 411.499a140.175 140.175 0 0 1-23.482-8.524l-1.163-.544-.607-.29a165.146 165.146 0 0 1-4.914-2.538 149.037 149.037 0 0 1-9.497-5.61 153.556 153.556 0 0 1-9.015-6.257 175.942 175.942 0 0 1-4.316-3.358c-.663-.534.269.226-.391-.316a130.402 130.402 0 0 1-3.189-2.715 146.894 146.894 0 0 1-15.121-15.314 142.18 142.18 0 0 1-3.371-4.111l-.751-.965a27.716 27.716 0 0 0-.493-.641c-.024-.027-.424-.56-.147-.201.193.255-.401-.533-.509-.693l-.839-1.145a134.187 134.187 0 0 1-5.785-8.701 125.29 125.29 0 0 1-4.997-9.007 125.541 125.541 0 0 1-2.181-4.6l-1.011-2.323c-.193-.44.014.024.042.099l-.222-.544-.504-1.259c-2.447-6.248-4.3-12.63-5.483-19.053a104.86 104.86 0 0 1-.764-4.831l-.097-.742.013.116a31.435 31.435 0 0 1-.115-1.12 97.254 97.254 0 0 1-.211-2.42c-.302-4.072-.332-8.14-.153-12.18.744-16.579 4.927-32.345 10.284-47.935 5.172-15.042 11.632-28.938 21.971-41.352 4.754-5.717 9.824-10.476 16.134-14.97a98.916 98.916 0 0 1 8.947-5.669l1.075-.595c.421-.232.031-.026-.041.023.176-.096.365-.196.551-.288.849-.452 1.712-.881 2.575-1.309a103.263 103.263 0 0 1 4.916-2.263 120.15 120.15 0 0 1 10.257-3.882 119.37 119.37 0 0 1 5.32-1.617l2.493-.677 1.466-.373c-.6.15.61-.146.8-.19 7.323-1.715 14.878-2.853 22.546-3.45 3.833-.293 7.698-.464 11.585-.478.524 0 .041.005-.055-.001.221-.005.448.001.666.004l1.341.011 3.134.072a164.68 164.68 0 0 1 6.424.32c9.342.632 18.693 1.974 27.952 3.916 8.66 1.813 17.965 4.423 26.793 7.394s17.946 6.566 26.653 10.461a342.942 342.942 0 0 1 12.042 5.677c2.155 1.073 4.972 1.237 6.299-.683 1.092-1.594.891-4.503-1.42-5.66-17.656-8.798-36.011-16.338-55.102-21.561-18.63-5.106-37.681-8.045-56.631-7.942-16.191.089-32.118 2.542-46.82 7.393-14.541 4.797-27.952 12.137-38.548 21.891-12.641 11.633-21.369 26.035-27.758 41.333-6.473 15.5-11.261 31.982-13.735 48.69-2.206 14.943-1.784 30.363 2.594 45.572 3.839 13.313 10.335 26.286 18.935 38.11 8.767 12.059 19.483 22.941 31.897 32.277s25.897 16.586 40.442 21.71a138.722 138.722 0 0 0 10.645 3.272c2.339.617 5.045.016 5.689-2.165.561-1.885-.539-4.603-3.046-5.27l.003-.009z"/></g><path d="M358.617 457.082c9.116.514 23.17.731 31.207-.001s12.595 7.295 0 8.273-32.656 0-32.656 0-7.667-8.787 1.449-8.272z" fill="#363f72"/><path d="M9.005 587.955c28.723-23.51 35.17-65.054 66.907-85.878 10.024-6.577 21.632-10.097 33.41-12.356s24.519-3.989 36.656-1.796c19.651 3.545 36.309 19.181 42.116 37.849 2.729 8.791 3.944 19.627-1.276 27.69-2.432 3.755-6.258 6.72-11.017 6.563-5.126-.171-9.007-3.345-11.21-7.769-4.277-8.555-2.208-19.411.684-27.978 3.205-9.486 8.579-18.245 15.862-25.218 17.511-16.753 43.141-20.15 66.438-23.292 13.12-1.767 26.325-2.989 39.564-3.779 12.568-.75 25.162-.865 37.738-1.486 11.757-.584 23.591-1.738 34.784-5.391 10.003-3.269 19.052-8.638 26.391-16.079 15.651-15.877 22.378-38.015 21.513-59.996-.235-5.881-.966-11.738-2.113-17.525-.391-1.966 1.615-3.801 3.461-3.911 2.217-.133 3.628 1.488 4.019 3.461 4.349 21.999 2.498 45.662-8.35 65.456-4.843 8.83-11.286 16.709-19.135 23.11-8.326 6.788-18.301 11.392-28.759 14.073-11.145 2.861-22.69 3.831-34.199 4.309l-36.419 1.456c-12.691.796-25.351 1.986-37.939 3.681-11.545 1.557-23.23 3.241-34.419 6.465-10.117 2.917-19.789 7.407-27.331 14.771-6.707 6.553-11.836 14.77-14.48 23.751-1.282 4.36-2.297 9.098-2.164 13.673.091 3.223.713 7.187 3.117 9.544 2.348 2.305 5.338 1.272 7.169-1.187 2.174-2.914 2.948-6.823 2.876-10.398-.351-17.848-12.417-34.612-28.961-41.801-10.185-4.426-21.478-4.118-32.232-2.752-11.255 1.427-22.563 3.682-32.922 8.285-16.59 7.377-27.575 21.835-36.677 36.797-9.23 15.181-17.215 31.406-29.243 44.701-2.954 3.272-6.168 6.294-9.589 9.089-1.546 1.266-4.153.532-5.221-1.01-1.25-1.798-.588-3.855.96-5.129l-.01.007zm150.057-239.079l17.235 33.203c3.239 6.24.807 13.92-5.433 17.158s-13.92.813-17.159-5.433L136.47 360.6a12.72 12.72 0 0 1 5.434-17.158 12.812 12.812 0 0 1 9.709-.858 12.807 12.807 0 0 1 7.449 6.285v.007z" fill="#4e5ba6"/><path d="M70.799 246.578a7.794 7.794 0 0 1 4.608 3.872l17.408 33.536-13.952 7.239-17.408-33.536a7.864 7.864 0 0 1 3.36-10.612 7.718 7.718 0 0 1 5.977-.505l.007.006zm47.276-18.272l17.408 33.536-13.952 7.238-17.408-33.536a7.862 7.862 0 0 1 3.36-10.611 7.763 7.763 0 0 1 5.977-.505 7.79 7.79 0 0 1 4.608 3.872l.007.006z" fill="#b3b8db"/><g fill="#363f72"><path d="M188.523 330.738a31.957 31.957 0 0 1 2.119 24.455 31.95 31.95 0 0 1-15.821 18.809l-26.88 13.952c-15.725 8.16-35.104 2.022-43.264-13.702a31.896 31.896 0 0 1-2.099-24.467 31.977 31.977 0 0 1 15.808-18.778l26.88-13.952c15.744-8.173 35.091-2.042 43.251 13.677l.006.006z"/><path d="m153.603 251.864 31.084 59.892-93.305 48.428-31.085-59.891a8.254 8.254 0 0 1 3.526-11.142l78.618-40.807c4.058-2.105 9.056-.537 11.162 3.52z"/></g><path d="M197.751 310.348a18.219 18.219 0 0 1 1.203 13.913 18.195 18.195 0 0 1-8.992 10.682l-82.675 42.912c-8.935 4.64-19.95 1.165-24.596-7.789a18.164 18.164 0 0 1-1.19-13.894 18.195 18.195 0 0 1 8.992-10.682l82.675-42.912c8.954-4.646 19.949-1.165 24.583 7.77z" fill="#4e5ba6"/><path d="m103.136 268.749-9.464 4.912 13.435 25.886 9.464-4.912-13.435-25.886z" fill="#fff"/><path d="M73.455 159.429h8.493v14.918h-8.493v17.728H54.121v-17.728H21.814l-1.146-11.82 33.453-53.824v-.173h19.334v50.899zm-34.368 0h15.034V133.72l-1.203 1.952-13.83 23.757zm109.364-1.491c0 11.283-2.534 19.987-7.603 26.105s-12.211 9.178-21.434 9.178-16.486-3.078-21.574-9.235-7.63-14.842-7.63-26.048v-15.264c0-11.283 2.535-19.987 7.604-26.106s12.231-9.177 21.491-9.177 16.429 3.078 21.517 9.235 7.629 14.861 7.629 26.105v15.207zm-19.334-17.728c0-6.003-.788-10.49-2.356-13.453s-4.057-4.448-7.462-4.448-5.747 1.376-7.258 4.134c-1.51 2.752-2.323 6.925-2.438 12.506v21.344c0 6.234.781 10.797 2.355 13.683 1.568 2.887 4.051 4.333 7.463 4.333s5.715-1.408 7.289-4.218c1.568-2.809 2.375-7.219 2.413-13.228v-20.66l-.006.007zm80.44 19.219h8.493v14.918h-8.493v17.728h-19.335v-17.728h-32.307l-1.145-11.82 33.452-53.824v-.173h19.335v50.899zm-34.368 0h15.033V133.72l-1.203 1.952-13.83 23.757z" fill="#667085"/><path d="M119.796 28.486s-1.594 7.181 6.656 27.636 19.763 28.921 19.763 28.921l57.766-12.768s-20.461-15.437-24.409-30.15-6.618-20.46-6.618-20.46l-18.419-6.99-34.746 13.811h.007zm276.157 137.242l6.637 24.966s14.106 8.973 31.693 8.256 23.328-4.665 23.328-4.665l-5.408-41.415s-14.176 23.796-56.25 12.864v-.006z" fill="#b3b8db"/><path d="M392.016 23.104l17.286-15.795s28.243 1.433 39.43 17.229l12.224 17.228-32.524 26.202s-16.73-42.355-36.416-44.87v.006z" fill="#d0d5dd"/><path d="M502.008 565.075s19.641-26.534 22.509-48.07 2.873-29.434 2.873-29.434l41.639 9.607s5.024 26.291-3.591 51.417l-8.614 25.127-54.816-8.647z" fill="#b3b8db"/><path d="m610.236 278.673-30.724-3.788-2.601 21.088 30.724 3.789 2.601-21.089z" fill="#667085"/><path d="M601.804 299.038l-19.068-2.351s-23.161 40.108-6.075 49.265c6.613 3.545 11.792 4.183 19.068 2.352 18.799-4.732 6.075-49.266 6.075-49.266zm-3.806-8.133c21.851 0 39.565-17.713 39.565-39.564s-17.714-39.565-39.565-39.565-39.564 17.714-39.564 39.565 17.713 39.564 39.564 39.564z" fill="#b3b8db"/><path d="M598.001 273.389c12.177 0 22.048-9.871 22.048-22.048s-9.871-22.048-22.048-22.048-22.048 9.871-22.048 22.048 9.871 22.048 22.048 22.048z" fill="#fff"/><g clip-path="url(#A)"><path d="M229.807 401.451c.87.835 37.665-4.8 37.665-4.8s.937-12.021 2.48-13.56c3.915.983 10.226.41 10.226.41s-4.644 1.917-6.802 2.223c0 0 3.805 2.651 7.414 2.093l-6.525 14.625s-38.644 5.017-40.223 6.085c4.075 4.338 1.583 12.113 1.583 12.113-6.808-9.109-21.599 4.057-15.875 9.502-13.383 1.726-10.436-7.554 7.345-18.812-2.7-1.218-17.44-2.376-14.241 7.291-19.148.741-5.891-18.899 11.637-13.495-4.092-5.807-17.087-10.843-19.456.432-8.469 1.496-7.935-5.847-3.253-9.758 8.91-6.935 20.636-1.755 28.025 5.651zm-35.052-97.676c5.004.332 7.176 3.96 7.188 9.128 4.723 8.508 8.907 13.028 20.971 40.8 0 0 2.104-1.013 5.025-2.515 1.031 2.34 2.243 4.572 3.51 6.894l-13.386 4.809c-3.855-7.058-11.39-30.764-17.363-40.743-1.729 5.964-8.94 17.796-16.57 15.34 13.3-9.07 12.803-19.369 11.774-23.558-6.236-.95-20.967 6.758-25.883 9.454-3.693-6.168 12.453-13.984 19.817-16.296-1.178-.528-2.048-.746-3.154-.947-4.533-.367-11.734 2.834-16.487 5.186-4.235-7.076 19.653-15.336 24.558-7.552z" fill="#2d1e1c"/><path d="M230.749 300.713c1.928 27.925 18 55.393 36.581 25.297-.565 1.94-1.183 3.788-1.783 5.256 7.461-7.915 10.919-20.458 12.163-30.937 0 0 .59 8.396.004 13.798 9.415-21.53-2.561-30.01 17.677-49.516-12.688 13.385-12.532 36.703-7.438 54.477.395 19.601 33.974 54.087 45.82 64.616-4.703-9.506-6.168-13.188-6.168-13.188 8.55 7.697 20.237 14.871 30.146 22.987-7.71 3.998-16.453 6.89-24.178 7.571 9.269-3.454 12.519-7.493 12.519-7.493s-19.481 7.594-33.913 6.744c12.606-3.848 15.619-7.254 15.619-7.254s-24.503 7.027-36.701 3.116c6.982-1.715 12.517-6.26 12.517-6.26s-5.096.955-18.707-4.082c7.362-1.08 1.801-5.637-7.173-6.426s-11.148-3.185-16.137-17.08c.259 12.167-12.057-.176-16.47-10.225-.246 9.264-11.863-12.615-16.181-26.417-1.098 9.282-12.206-14.011-11.928-19.106.074-1.523-1.392-3.972-3.565-6.368.074-1.523.202-2.955.331-4.387.625 8.867 15.61-16.12 16.965 4.877z" fill="#f2f2f2"/><path d="M222.951 335.445c3.622 20.873 21.763 45.008 43.25 61.349.798-.108 1.215-.234 1.215-.234s.937-12.02 2.48-13.56c3.916.984 10.226.41 10.226.41s-4.644 1.917-6.802 2.223c0 0 3.805 2.651 7.414 2.093l-6.525 14.625s-.091.054-.145-.036c9.222 5.939 18.755 10.337 27.782 12.45-4.207.793-8.216 1.714-10.174 2.147 6.707.913 30.508 6.505 55.138-.72-4.3 2.696-10.395 5.482-10.395 5.482 11.261-1.565 22.054-5.561 29.782-9.324-1.561 1.304-6.188 4.69-7.784 5.522 7.798-1.587 16.923-5.693 23.381-9.312l.272-.163 1.361-.815.272-.162.091-.055 3.992-2.389c-.854 1.25-1.925 2.754-3.196 4.131-.309.308-.526.561-.835.869l-.091.054c-.308.308-.617.616-.98.833 8.816-3.798 16.02-8.849 20.503-12.887-22.034-12.933-48.201-26.597-65.617-34.285-3.045-1.381 18.802 17.209 15.757 15.828-25.172-11.795-48.437-25.963-59.748-46.3-2.244-3.955-4.178-8.835-5.732-14.312.396 19.6 33.975 54.086 45.821 64.615-4.704-9.505-6.168-13.188-6.168-13.188 8.549 7.697 20.236 14.872 30.146 22.987-7.711 3.999-16.453 6.891-24.178 7.571 9.269-3.453 12.519-7.493 12.519-7.493s-19.482 7.595-33.913 6.745c12.605-3.849 15.619-7.254 15.619-7.254s-24.503 7.027-36.702 3.115c6.983-1.715 12.518-6.26 12.518-6.26s-5.096.956-18.708-4.081c7.363-1.08 1.802-5.637-7.173-6.427s-11.147-3.185-16.136-17.079c.259 12.167-12.058-.176-16.471-10.226-.246 9.265-11.862-12.614-16.181-26.417-1.098 9.282-12.205-14.01-11.928-19.105.074-1.523-1.392-3.972-3.565-6.368-.612 12.564 1.73 26.564 8.386 42.419.199.127-.25-3.917 1.222-7.016zm60.551 24.38c-4.62-3.396-5.609-10.813-2.046-19.476-.821 4.804-.649 13.326 2.046 19.476zm-14.515 8.687c-3.097-2.705-4.306-8.019-2.705-13.783-.13 3.282.607 9.248 2.705 13.783zm57.135 14.966c-4.338 4.075-11.901 5.644-19.786 3.587 4.66.168 13.165-.856 19.786-3.587z" fill="#b3b3b3"/><path d="M438.984 421.767c-12.475 1.183-30.961-6.235-47.198-15.245 4.718-2.824 8.764-5.739 11.505-8.365 15.529 9.065 28.937 17.674 35.693 23.61zm47.058-73.509c16.728 6.129 13.543 17.276 1.61 19.366 3.896 2.597 36.163 9.16 22.575 16.307-7.801 4.053-40.96.119-73.9-4.069-1.419-11.841-3.582-24.101-6.905-36.035 24.35.335 48.717 1.522 56.62 4.431z" fill="#2d1e1c"/><path d="M229.125 212.973c27.03-30.595 89.861-51.813 149.272 54.447 53.72 36.231 59.609 107.004 60.591 154.347-16.248-14.179-71.679-44.826-101.22-57.949-3.044-1.381 18.802 17.209 15.758 15.828-25.172-11.795-48.438-25.963-59.748-46.3-10.098-18.107-15.497-55.536 5.082-71.796-7.099-7.949-26.707-.772-27.524.95.564-1.94 13.175-11.336 12.64-19.641 0 0-5.955 7.137-8.385 7.606 8.605-9.709-5.291-36.631-29.01-16.767.473-1.885 6.972-8.732 6.972-8.732-17.567 14.704-29.876 11.844-35.544 5.256-1.428-3.827 6.892-17.924 14.114-23.356a26.709 26.709 0 0 0-2.998 6.107z" fill="#4e362f"/><path d="M429.842 375.612c.196-13.054-5.217-55.034-32.653-85.434 22.121 32.842 32.653 85.434 32.653 85.434zM378.393 267.42a84.61 84.61 0 0 1 7.99 5.938c-16.292-7.868-31.572-11.783-42.087-13.499 6.818-.138 17.953-2.12 29.356-.567l4.741 8.128z" fill="#2d1e1c"/><path d="M295.113 305.316c17.978 41.975 39.235 52.17 39.945 49.651-19.678-11.88-36.487-44.698-39.945-49.651zm64.859 48.662c-.62 2.465-21.968-7.675-39.945-49.651 3.458 4.954 20.212 37.681 39.945 49.651zm-58.842-79.371c-1.812-1.379 1.938-15.083 27.794-15.526-2.848 1.211-22.523 3.747-27.794 15.526zm-26.314-78.755c38.6 1.293 58.262 28.584 60.302 36.111-25.675-32.193-55.645-33.477-60.302-36.111z" fill="#6d4e43"/><path d="M214.683 235.785c.873-2.864-.046-8.105-.261-10.317.688.944 1.609 4.335 2.385 7.691.4-.979.709-1.904 1.2-2.936 5.722 6.678 17.976 9.447 35.543-5.256 0 0-6.444 6.937-6.972 8.731 23.811-19.918 37.616 7.058 29.011 16.767 2.43-.469 8.385-7.606 8.385-7.606.535 8.305-12.077 17.701-12.641 19.641.818-1.722 20.48-8.808 27.525-.949a33.17 33.17 0 0 0-3.322 3.096c-20.237 19.506-8.262 27.987-17.677 49.517.586-5.403-.003-13.799-.003-13.799-1.19 10.57-4.703 23.022-12.164 30.938.6-1.468 1.219-3.317 1.783-5.256-18.636 30.005-34.652 2.627-36.58-25.297-1.41-21.089-16.468 4.188-16.875-4.932-.657-13.037 5.119-22.532 8.262-27.986a627.968 627.968 0 0 0-4.813 7.193c1.007-9.228 7.941-16.582 5.899-22.259 4.551-.63 7.798-1.587 7.872-3.11.021-2.23-8.064-4.415-10.546-5.886.037-.762 1.271-1.377 1.271-1.377-2.103-.22-4.551-.603-6.435-1.693.817-1.105-.198-1.36-.252-1.451-1.648-2.341-2.807-3.249-4.928-4.321.798-.107 2.538.33 4.333.857z" fill="#e55426"/><path d="M262.321 229.327c10.368 2.913 12.552 12.325 10.261 18.379 6.444-7.554.529-19.908-10.261-18.379zm-36.762 42.334c-2.433 2.935-7.216 16.764-4.503 22.532-2.827-1.634-3.39-17.192 4.503-22.532zm37.742 23.739c-.874 3.48-1.534 10.405.636 15.267-1.631-.872-3.835-8.055-.636-15.267zm-5.995 27.861c-.837 2.103-1.476 6.181.697 9.194-1.65-.492-3.875-4.828-.697-9.194zm-9.965-23.853c-.836 2.102-1.475 6.181.697 9.193-1.649-.491-3.875-4.827-.697-9.193zm-12.829-24.111c-.836 2.102-1.475 6.181.697 9.193-1.649-.491-3.875-4.827-.697-9.193zm5.212 25.589c-2.252 3.443-2.545 22.716 3.379 27.672-4.423-.802-12.217-20.411-3.379-27.672z" fill="#be3b27"/><path d="M247.608 239.121c-.044 6.926 3.322 13.167 9.611 15.44-3.446.83-12.396-5.888-9.611-15.44z" fill="#ed6e24"/><path d="M432.471 375.887c33.446 5.856 73.625 6.698 77.888 4.146 0 0-32.382-.579-77.888-4.146zm8.723-18.158c2.83-1.448 28.412.121 49.367 4.459-28.844-3.313-49.367-4.459-49.367-4.459z" fill="#4e362f"/><path d="M215.386 240.663c1.794 1.145 4.241 1.528 6.435 1.694 0 0-1.234.615-1.271 1.376 2.483 1.471 10.567 3.656 10.546 5.886-.074 1.523-3.32 2.481-7.872 3.11-6.565.972-15.921 1.397-21.978 2.189-2.394.323-12.056-.793 13.888-15.705.145.036 1.16.291.252 1.45zm35.528 7.69a11.63 11.63 0 0 1 19.957-11.945c3.299 5.511 1.505 12.653-4.006 15.952a11.63 11.63 0 0 1-15.951-4.007z" fill="#030304"/><path d="M264.797 235.731c-1.378.578-1.78 2.79-.912 4.858.923 2.158 2.771 3.393 4.059 2.869 1.378-.579 1.78-2.79.912-4.858-.778-2.123-2.626-3.357-4.059-2.869zm-12.75 3.812c-.746 2.048-.494 4.115.211 5.911.29.072.453.345.67.707.163.273.144.653.108.798 1.357 2.268 3.295 4.065 4.673 4.72-2.357-.438-4.15-2.199-5.344-4.195-.291-.072-.598-.381-.816-.744-.126-.417-.198-.743.02-.997-.868-2.684-.829-5.295.478-6.2z" fill="#fff"/></g><path d="M417.421 85.383v8.748h-6.214V68.34h10.291c1.971 0 3.719.365 5.235 1.088 1.517.73 2.695 1.76 3.527 3.098s1.248 2.86 1.248 4.563c0 2.515-.903 4.525-2.701 6.029-1.805 1.504-4.275 2.26-7.411 2.26h-3.968l-.007.006zm0-4.8h4.077c1.203 0 2.125-.301 2.752-.903.634-.601.947-1.453.947-2.553 0-1.204-.326-2.17-.972-2.887-.647-.723-1.536-1.088-2.656-1.1h-4.148v7.443zm28.888 8.736h-8.518l-1.492 4.819h-6.643l9.459-25.792h5.844l9.529 25.792h-6.675l-1.504-4.82zm-7.034-4.8h5.543l-2.784-8.948-2.765 8.948h.006zm37.84 6.425c-.96 1.062-2.355 1.92-4.198 2.566s-3.859.973-6.061.973c-3.379 0-6.073-1.03-8.096-3.097s-3.097-4.941-3.245-8.628l-.019-2.233c0-2.541.448-4.755 1.344-6.65s2.182-3.353 3.853-4.377 3.603-1.53 5.798-1.53c3.213 0 5.709.736 7.488 2.208s2.816 3.667 3.111 6.58h-5.984c-.211-1.44-.672-2.471-1.383-3.086s-1.715-.921-3.014-.921c-1.562 0-2.765.659-3.616 1.984s-1.28 3.213-1.293 5.67v1.562c0 2.573.442 4.505 1.319 5.798s2.265 1.94 4.153 1.94c1.619 0 2.822-.359 3.616-1.082v-4.007h-4.32v-4.268h10.541v10.592l.006.006zm19.609-7.757h-9.779v6.164h11.552v4.78H480.73V68.34h17.805v4.8h-11.584v5.44h9.779v4.608h-.006zm-63.981 54.483h-6.182l-9.14-16.051v16.051h-6.214v-25.792h6.214l9.127 16.052v-16.052h6.201v25.792h-.006zm25.77-12.364c0 2.515-.467 4.742-1.401 6.675-.935 1.939-2.26 3.43-3.975 4.473s-3.673 1.568-5.869 1.568-4.147-.505-5.843-1.516c-1.702-1.012-3.027-2.452-3.974-4.333-.954-1.875-1.453-4.032-1.498-6.464v-1.453c0-2.528.461-4.755 1.389-6.688s2.253-3.424 3.987-4.474 3.699-1.574 5.907-1.574 4.135.518 5.844 1.562c1.715 1.036 3.046 2.521 3.993 4.435s1.434 4.121 1.447 6.598v1.184l-.007.007zm-6.323-1.082c0-2.56-.429-4.506-1.286-5.837s-2.08-1.99-3.674-1.99c-3.117 0-4.768 2.336-4.941 7.014l-.019 1.895c0 2.528.422 4.467 1.261 5.83s2.086 2.035 3.737 2.035 2.784-.665 3.629-2.003c.851-1.338 1.28-3.251 1.293-5.76v-1.184zm28.27-7.546h-7.744v20.992h-6.221v-20.992h-7.597v-4.8h21.562v4.8zm-53.018 55.757h-10.028v10.272h-6.215v-25.792h17.255v4.8H417.42v5.933h10.029v4.781l-.007.006zm25.438-2.093c0 2.515-.467 4.743-1.401 6.675-.935 1.94-2.259 3.431-3.975 4.474s-3.673 1.568-5.868 1.568-4.148-.506-5.844-1.517c-1.702-1.011-3.027-2.451-3.974-4.333-.954-1.875-1.453-4.032-1.498-6.464v-1.452c0-2.528.461-4.756 1.389-6.688s2.253-3.424 3.987-4.474 3.7-1.574 5.908-1.574 4.134.518 5.843 1.561c1.715 1.037 3.046 2.522 3.993 4.435s1.434 4.122 1.447 6.599v1.184l-.007.006zm-6.323-1.081c0-2.56-.429-4.506-1.286-5.837s-2.08-1.991-3.674-1.991c-3.117 0-4.768 2.336-4.941 7.015l-.019 1.894c0 2.528.423 4.467 1.261 5.831s2.086 2.035 3.738 2.035 2.784-.666 3.628-2.003c.852-1.338 1.28-3.252 1.293-5.76v-1.184zm29.763-12.346v16.883c0 1.914-.41 3.572-1.222 4.967-.813 1.401-1.984 2.464-3.508 3.2-1.523.729-3.328 1.101-5.401 1.101-3.143 0-5.613-.813-7.424-2.445-1.805-1.632-2.727-3.859-2.765-6.695v-17.004h6.253v17.132c.07 2.823 1.382 4.237 3.929 4.237 1.287 0 2.26-.352 2.925-1.062s.992-1.863.992-3.456v-16.845h6.215l.006-.013zm25.419 25.792h-6.182l-9.139-16.051v16.051h-6.215v-25.792h6.215l9.126 16.051v-16.051h6.202v25.792h-.007zm3.931 0v-25.792h8.308c2.278 0 4.326.519 6.144 1.549s3.238 2.49 4.262 4.378c1.024 1.881 1.536 3.993 1.549 6.336v1.184c0 2.361-.499 4.48-1.498 6.348-.998 1.876-2.4 3.335-4.217 4.391s-3.834 1.593-6.068 1.606h-8.486.006zm6.215-20.992v16.211h2.163c1.786 0 3.155-.633 4.109-1.907.96-1.267 1.433-3.155 1.433-5.657v-1.114c0-2.49-.48-4.371-1.433-5.632s-2.349-1.894-4.179-1.894h-2.093v-.007z" fill="#475467"/><defs><clipPath id="A"><path fill="#fff" transform="matrix(-.513571 -.858047 -.858047 .513571 522.256785 393.115436)" d="M0 0h324.572v303.427H0z"/></clipPath></defs></svg>
