<svg xmlns="http://www.w3.org/2000/svg" xmlns:xlink="http://www.w3.org/1999/xlink" viewBox="0 0 261.8 140"><g fill="#9fa6b2"><path d="M41.9 64.6c-.6 0-1.2-.3-1.5-.8-.5.4-.9.5-1.2.5-1 0-2-1-2.2-2.3-.4-2.8 1.9-4.8 4.5-5.5.2-.3.5-.9.8-1.5-.6-.5-1.4-1.1-1.7-1.6a.76.76 0 0 1-.2-.4c-.1-.3 0-.7.3-1a5.88 5.88 0 0 0 1-1.6c.2-.4.5-.6.9-.6h.3c.2.1.4.2.5.3h.1c.3 0 .6.2.8.4l2 2.8c.2.3.2.7.1 1l-1 2.1a5.68 5.68 0 0 1 1.8 1.2c.2.3.3.7.2 1s-.5.6-.8.6c-.2 0-.5 0-.6.6-.1.7.2 1.3.3 1.4h.3c.3 0 .5.1.7.3.3.3.3.7.1 1-.5 1.3-1.2 1.9-2.1 1.9-.6 0-1.1-.3-1.5-.9-.9 1-1.5 1.1-1.9 1.1h0zm-28.1-3.8a1.75 1.75 0 0 1-1.4-.7c-.2-.2-.3-.5-.4-.7-.1 0-.2.1-.4.1-.9 0-1.9-.6-1.9-2.4s1-4.4 2.7-4.8c.5-.5 1.1-.8 1.8-.8.5 0 1 .1 1.5.4h1.5c1.7 0 3.7 0 5.2.4.3-.4.8-.9 1.2-1.5.2-.3.5-.4.8-.4.1 0 .2 0 .3.1.1-.2.4-.4.6-.4h.2c.4 0 .7.2.9.5 0 0 .2.3.7.6.2.2.4.4.4.7s0 .5-.2.7L24.7 56c-.2.2-.5.4-.8.4-1.2 0-3-.2-4.7-.6.3.6.4 1.3.4 2 0 .8-.3 1.4-.8 1.9-.2.2-.4.3-.7.3-.1 0-.3 0-.4-.1-.4-.1-.6-.5-.6-.9-.1-2.1-1-3.1-1.7-3.5-.3.7-.4 2.1-.5 4.1v.4c-.1.3-.6.8-1.1.8z"/><path d="M33.8 54.3c-1.7 0-4-.5-6-1.3a1.08 1.08 0 0 1-.7.3h-.3c-.1 0-.3-.2-.6-.3-.1 0-.2.1-.4.1-.1 0-.3 0-.4-.1L17 48.9c-.1.1-.3.1-.4.1-.2 0-.3 0-.5-.1-1.2-.6-3.7-2.7-3.9-3.5-.1-.4.1-.7.4-.9.2-.1.4-.2.6-.2.1 0 .2 0 .4.1l4.8 1.6c0-.1.1-.2.1-.3.2-.3.5-.5.9-.5.1 0 .2 0 .3.1C22 45.9 28 48 31 48.5c-.3-.2-.7-.5-1.1-.9-.3-.2-.5-.6-.4-1s.4-.7.7-.8c.2-.1.5-.1.8-.1 1.5 0 5.3 1.2 5.3 2.9v.3h.7c1 0 1.9-.2 2.5-.6 3.6-2.1 4.1-2.1 4.4-2.1.4 0 .9.3 1 .7.1.3.1.6-.1.9.4-.2.8-.4 1.1-.6 2.2-1.4 2.8-1.6 3.2-1.6.3 0 .5.1.7.2.6-.7 1-1.4 1.5-2.5.2-.4.4-.8.6-1.3.2-.3.5-.5.8-.6.1-.5.3-1.1.4-1.7-3.3-1.4-6.4-1.7-8.8-2-2.6-.3-4.3-.5-4.8-1.9-.3-.9.1-1.9.9-2.9-3.1-1.4-8.3-4.2-9.5-7.5a3.83 3.83 0 0 1 .3-3.3c.2-.3.5-.5.9-.5.1 0 .3 0 .4.1.5.2.7.8.5 1.3-.1.2-.1.5 0 .7.9 2 6.6 4.1 9.4 5.1.8.3 1.5.5 2 .7.3.1.5.4.6.7s0 .6-.2.9c-1.2 1.3-1.1 1.8-1 1.8.2.7 3.2 1.3 5.6 1.8s5.1 1 8 2c.4.1.7.6.7 1-.1 1.3-.4 2.5-.7 3.2a.9.9 0 0 1-.6.6c-.2.4-.4.9-.7 1.2-.1.1-.2.2-.3.2-.2.7-.6 1.5-.9 2.1-.1.2-.3.3-.5.4-.1.6-.3 1.3-.8 1.9-.2.2-.5.4-.8.4h0-.2c-2.5 2.5-5.2 4.1-8.2 5.1h-.3c-.3 0-.6-.1-.8-.4-.3.3-.6.4-.7.4-.1.1-.2.1-.4.1-.2.2-.4.4-.7.5-1.2.2-2.6.3-3.9.3-1 0-2-.1-3.1-.2-.2.6-.4.8-.7.8z"/><path d="M42 51.1c-.9 0-1.1-.6-1.2-.8 0-.1-.1-.2-.1-.3-.1.1-.2.1-.3.2-1 .6-2.2.9-3.5.9 0 0-2.3 0-3.6-.7-.3.2-.6.3-1.2.3-2.3 0-8-1.9-11.2-3-.2.2-.5.4-1.1.4-.9 0-3-.6-4.6-1.2-.2.3-.5.4-.8.4-.8 0-3.7-2.7-4.1-3.2-.3-.4-.3-1 .1-1.3.1-.4.3-1.1 1.1-1.1a1.08 1.08 0 0 1 .7.3c.3.2 1.6.7 2.5.9-.2-.3-.4-.7-.6-1-.6-1.1-1.1-1.9-.7-2.6.2-.4.6-.6 1.1-.6.2 0 .4 0 .7.1.7.2 1.7.7 2.9 1.3 2.7 1.2 6.7 3.1 8.9 3.1h.4c.9-.1 1.5-.5 1.7-1.1.2-.7 0-1.5-.3-1.8-.5-.5-.5-1-.4-1.3a1.13 1.13 0 0 1 1-.7c.3 0 .5.1.9.2-.2-.4-.3-.8-.2-1.2s.4-.8 1.3-1c.2 0 .5-.1.6-.3 0-.1.2-1.1-2.3-3.7-.3-.3-.4-.8-.2-1.1s.5-.5.9-.6c-.3-.6-1.2-1.7-3.4-3.6-1.2-1.1-1.8-2-1.8-2.9a1.69 1.69 0 0 1 .3-1c-.8.2-1.3.2-1.5.3h-.1c-.4 0-.8-.2-.9-.6-.2-.4 0-.9.3-1.1.1 0 .1-.1.2-.1-.1-.5.2-.9.7-1.1 3.5-1.2 6.8-1.4 8.5-1.4 1.1 0 2.1.1 2.9.2.4.1.8.4.8.9s-.2.9-.6 1c-2.1 1-2.7 1.8-2.9 2.2-.3.6-.4 1.2-.2 1.8.9 2.5 5.5 5.2 9.6 6.9.3.1.5.4.6.7s0 .6-.2.9c-1.1 1.2-1.3 1.7-1.3 1.9.4.3 1.9.5 3.2.6 2.9.4 6.9.9 11 2.9.5.2.7.8.5 1.3-.1.4-.3.9-.6 1.4-.2 0-.5.2-.8.2-.5 1.6-1 2.7-1.7 3.4-.2.2-.4.3-.6.3-.8 1.4-1.7 2.4-4 3.9-.2.1-.4.2-.5.2-.3 0-.6-.1-.8-.3-.1-.1-.2-.2-.2-.4-1.1.7-3.7 2-4.9 2h0z"/><use xlink:href="#B"/><path d="M64.8 43c-.2 0-.4-.1-.6-.2-4.7-3.8-10.8-5-15.2-5.9-3.9-.8-6.5-1.3-7.1-3.1-.3-.9.1-1.9.6-2.7-.2-.1-.4-.1-.6-.2-5.4-2-10.7-4.2-10.8-7.3 0-1 .4-1.9 1.4-2.7-1.6 0-4.4.3-7.3 1.3-.1 0-.2.1-.3.1h-.1c-.5.4-1 .7-1.7.9-.1 0-.2.1-.3.1-.3 0-.6-.1-.8-.4-.3-.3-.3-.8-.1-1.2.3-.5.8-1.7.7-2.7 0-.3 0-.6.2-.8-.6-1.4-1.7-2.1-2.7-2.3-.3-.1-.6-.3-.7-.6h-.2c-1.7 0-2.7.7-3.3 1.3a1.08 1.08 0 0 1-.7.3c-.1 0-.2 0-.3-.1-1.4 1.3-3.4 3-7.6 3-.3 0-.6-.2-.8-.4-.6-.9-.8-2.5-.9-3.7 0-.3.1-.6.3-.8s.4-.3.7-.3c.6-2.9 2-5.1 2-5.3-.2-.3.1-.5.5-.5.1 0 .3 0 .4.1.1 0 .1 0 .1.1 3.6-3.9 9.1-6.3 14.8-6.3 5 0 14.4 1.9 22.1 14.7l.3.2c2.4 1.1 6 2.7 7.2 6.4 3.2 2 6.8 5.1 7.3 7.6.1.4.1.9 0 1.3 1.2 1.2 1.5 2.4 1.6 3 1 1.2 3.2 4.3 3.1 5.9 0 .4-.2.8-.5 1.1-.2 0-.5.1-.7.1z"/><path d="M59.1 36.2h-.2c-7.7-1.7-10.8-2.5-13.7-3.3-.7-.2-1.3-.4-2-.5-.3-.1-.6-.3-.7-.6s-.1-.7.1-.9.4-.5.6-.8a1.08 1.08 0 0 1 .7-.3h.2c.5.1 1.4.4 2.8.8 2.4.8 6.4 2.1 12.4 3.7.5.1.8.7.7 1.2 0 .4-.4.7-.9.7zm.9-2.1c-.2 0-.3 0-.4-.1-1.8-.9-7.5-2.7-11.9-3.8-.5-.1-.8-.6-.7-1.1s.5-.8 1-.8h.1c6.9.7 12.2 1.4 13 4.7.1.4 0 .8-.4 1-.2 0-.4.1-.7.1zm-6.8-8.5c-.2 0-.3 0-.4-.1-.9-.5-2-.6-3.6-.8-1.3-.2-2.9-.4-4.8-.9-.5-.1-.8-.6-.7-1.1s.5-.8 1-.8h.1c1.8.2 3.1.3 4.2.3 3.1.2 4.1.3 5.1 1.9.3.4.2.9-.1 1.2-.3.2-.5.3-.8.3zM38 20c-.4 0-.8-.3-.9-.7-.2-.5.1-1 .5-1.2 1.1-.5 4-1.8 6.2-1.8 1.6 0 2.4.7 2.8 1.3.2.3.2.8 0 1.1s-.5.4-.8.4h-.3c-.3-.1-.7-.1-1.1-.1-1.4 0-3.2.4-4.7.7l-1.5.3H38z"/><path d="M64.1 41.5c-.3 0-.5-.1-.7-.3-1.1-1-11.4-5.2-16.2-5.2h-.5-.1c-.5 0-.9-.4-1-.8-.1-.5.2-1 .7-1.1.7-.2 1.4-.2 2.3-.2 5.4 0 14.7 3.2 16.2 6.2.2.5.1 1-.3 1.3 0 0-.2.1-.4.1zm-10.9-7.8h-.3C35.2 28 32.7 25.3 32.5 23.3c-.1-.7.2-1.7 1.7-2.6.1-.1.3-.1.5-.1.3 0 .6.2.8.4a.95.95 0 0 1-.2 1.3c.2.4 1.5 2.3 12.3 7 0-.1 0-.1-.1-.2-.1-.5.2-1 .7-1.1 1.4-.3 2.7-.5 4.1-.5 3.9 0 7 1.4 8.1 3.6.2.5.1 1-.3 1.3-.2.1-.4.2-.6.2-.3 0-.6-.1-.8-.3-.5-.6-4.8-2.3-9-2.3H49c1.3.6 2.8 1.2 4.4 1.8.5.2.8.8.6 1.3 0 .3-.4.6-.8.6zm-.7-9.2c-.2 0-.4-.1-.6-.2-1-.6-3.3-.8-5.3-.9-1.4-.1-2.6-.2-3.7-.4-.4-.1-.7-.4-.8-.9-.1-.4.2-.8.6-1 1.6-.7 3.4-1.2 5-1.2 2.6 0 4.6 1.1 5.6 3.1.2.4.1.9-.2 1.2-.2.2-.4.3-.6.3zM7.3 17h-.2c-.5-.1-.8-.4-.8-.9-.1-1.5 1-4.5 1.2-4.9s.5-.6.9-.6h.2.1c1-1.2 2.1-2.2 2.9-2.6.2.1.3 0 .5 0 .3 0 .7.2.9.5.3.4.2 1-.3 1.3-1 .7-4.1 5.7-4.5 6.6-.2.4-.6.6-.9.6zm8.8-2.1c-.4 0-.7-.2-.9-.5-.2-.5-.1-1 .3-1.3 1.3-.8 2.5-1.3 3.8-1.3a5.44 5.44 0 0 1 2.7.7c.4.2.6.8.4 1.2-.1.4-.5.7-.9.7h-.2c-.6-.1-1.2-.2-1.7-.2-1 0-2.1.2-3.2.6 0 0-.2.1-.3.1zm-.7-3.8c-.3 0-.6-.2-.8-.4a.95.95 0 0 1 .2-1.3c3.7-3.2 7.6-3.9 10.2-3.9 1.9 0 3.2.3 3.9.5.5.1.8.6.7 1.1s-.5.8-1 .8h-.1c-.6 0-1.1-.1-1.7-.1-5.2 0-8.3 1.7-10.2 2.7-.3.1-.5.3-.7.4s-.4.2-.5.2zm-1.6-2.6c-.3 0-.7-.2-.8-.5a.95.95 0 0 1 .2-1.3c2.4-2 5.9-3.2 8.1-3.4h.1c.4 0 .8.3 1 .7.1.5-.1 1-.5 1.2l-2.3.9c-1.6.6-3.5 1.3-5.3 2.2-.2.1-.4.2-.5.2z"/><path d="M27.2 45.1c-2.6 0-6.7-1.9-9.7-3.3-.4-.2-.9-.4-1.3-.6.6 1 1 2 .5 2.8-.2.4-.7.8-1.6.8s-2.1-.4-3-.7c-.2.3-.4.5-.9.5h0c-.3 0-.6-.1-.8-.3-2.6-3-4.2-6-4.8-9.1h-.2c-.4-.2-.7-.7-.7-1.2.1-1.5.2-3 1.4-6.6.1-.4.2-.7.2-1 .2-1 .2-2.5 0-4.5-.3-.2-.5-.5-.5-.9 0-.8 0-.8-.4-1-.3-.2-.5-.6-.4-1s.5-.7.9-.7h.2l.1-.1c.2-.2.5-.3.8-.4 3.7 0 5.2-1.5 6.6-2.7.6-.5 1.1-1.1 1.8-1.4.1-.1.3-.1.5-.1s.4.1.5.2c.8-.3 1.7-.5 2.6-.5.8 0 1.6.1 2.5.4.5.1.8.6.8 1.1v.1c1.3.9 2.4 2.4 2.6 4.4.2-.1.4-.2.6-.2.1 0 .3 0 .4.1.4.2.6.5.6.9.7-.1 1.4-.2 1.9-.3h.1c.5 0 .9.3 1 .8.1.4-.1.8-.4 1 0 .2 0 .4-.1.6-.3.5-.6.9-.9 1.2s-.5.6-.6.8c0 .1 0 .5 1.1 1.4 4.3 3.8 4.5 5.3 4.1 6.1 0 .1-.1.3-.3.5 1.5 1.8 2.1 3.3 1.7 4.5-.2.7-.7 1.2-1.4 1.5.4.5.8.9.7 1.5 0 .3-.2.6-.5.9-.3.2-.6.3-1.1.3-.2 0-.4 0-.6-.1.1.7.1 1.4-.1 2-.3.8-1.1 2.1-3.3 2.4-.1-.1-.4-.1-.6-.1z"/><path d="M7.7 36.3c-.3 0-.6-.1-.8-.4-.1-.1-.1-.2-.2-.3-1.3-2.5-1.1-6.5.6-8.5.2-.2.5-.4.8-.4.2 0 .4.1.6.2.4.3.5.9.2 1.4-.5.8-.7 5.4-.4 6.4l.1.1c.3.5.1 1-.3 1.3-.3.2-.4.2-.6.2zM18 24h-.3c-.5 0-.9-.4-.9-.9s.3-.9.7-1l.5-.1s.1 0 .2-.1c.2-.1.7-.3 1.2-.8.4-.5.6-1.1.7-1.3 0-.2.1-.4.1-.5v-.2c0-.5.4-.8.8-.9h.2c.4 0 .8.3.9.6 0 0 0 .1.1.3.1.3.1.6.1.9s0 1.6-1 2.7c-.6.8-1.6 1.3-2.6 1.4h-.5c.1-.1-.2-.1-.2-.1z"/><path d="M27 43.8c-1.7-.2-3.5-.9-4.7-1.9-.4-.3-.5-.8-.3-1.2.2-.3.5-.5.9-.5h.3c1.7.5 3.6 1.3 4.4 1.8.4.2.6.7.5 1.2-.1.4-.5.7-1 .7 0-.1 0-.1-.1-.1zm-15.4-.6c-.2 0-.5-.1-.6-.2-1.6-1.3-2.7-3.4-2.7-5.2 0-.5.3-.9.8-1h.2c.3 0 .5.1.7.3-1-1.5-1.5-3.4-1.3-4.9.1-.5.5-.8.9-.9h.1c.4 0 .8.3 1 .7.3 1.2.5 1.7.8 2.6.2.5.4 1.2.7 2.2a.88.88 0 0 1-.5 1.2c-.2.1-.3.1-.5.1-.3 0-.6-.1-.8-.4-.1-.1-.2-.2-.3-.4l1.2 2.4 1.1 2c.2.4.1.9-.3 1.2 0 .2-.3.3-.5.3zm8-1.2h-.3c-2.5-.6-5.7-2-7-4.6-.2-.4-.1-.9.3-1.2.2-.1.4-.2.6-.2s.4.1.6.2c2.4 1.9 4.2 3.1 6.1 4 .5.2.7.8.5 1.2 0 .3-.4.6-.8.6zm11.5-1.9c-3.9-.4-7.2-2.4-9-5.3-.2-.4-.2-.9.2-1.3.2-.2.4-.2.7-.2.2 0 .4.1.6.2 2 1.6 4 2.6 6 3.6.7.4 1.4.7 2.1 1.1.4.2.6.7.5 1.2-.1.4-.5.7-1 .7h-.1zm-9.7-2c-.1 0-.3 0-.4-.1-1.4-.6-4.7-3-5.5-5.2-.2-.5 0-1 .4-1.2.2-.1.3-.1.5-.1.3 0 .6.1.8.4 1.2 1.4 2.8 2.8 3.9 3.7.5.4.8.7 1 .9.3.3.4.9.1 1.3-.2.1-.5.3-.8.3zm9.1-5.3h-.2c-.9-.2-3.8-1-6-4-.3-.4-.2-1 .1-1.3.2-.2.4-.3.7-.3.2 0 .5.1.7.2 1.6 1.4 3.2 2.3 4.3 2.9.4.3.8.4 1 .6.4.3.5.8.3 1.2s-.5.7-.9.7zm-15.2-10c-.2 0-.4-.1-.6-.2-1.5-1.2-2.1-2.9-1.5-4.6.6-1.8 2.5-3.2 4.4-3.2 1.2 0 2.3.5 3.2 1.4a.94.94 0 0 1 .1 1.3c-.2.2-.5.4-.8.4-.2 0-.4 0-.5-.1-.4-.3-.9-.4-1.3-.4-.9 0-1.7.5-2.2 1.3s-.4 1.8.1 2.6a.95.95 0 0 1-.2 1.3c-.2.1-.5.2-.7.2z"/><use xlink:href="#C"/><path d="M4.4 24.7c-.2 0-.5-.1-.7-.2a.95.95 0 0 1-.2-1.3c1.1-1.7 2.8-2.7 4-2.9h.2c.4 0 .7.2.9.6s.1.9-.2 1.2c-.2.2-.6.4-1.1.8L5 24.6c-.1 0-.3.1-.6.1z"/><use xlink:href="#D"/><use xlink:href="#E"/></g><g fill="#2d1d1c"><use xlink:href="#F"/><use xlink:href="#G"/></g><use xlink:href="#H" fill="#afbdc4"/><use xlink:href="#I" fill="#eeeae8"/><use xlink:href="#J" fill="#2d1d1c"/><use xlink:href="#K" fill="#4e342e"/><use xlink:href="#L" fill="#2d1d1c"/><use xlink:href="#M" fill="#63463d"/><use xlink:href="#N" fill="#e45325"/><use xlink:href="#O" fill="#f27021"/><use xlink:href="#P" fill="#bd3926"/><use xlink:href="#Q" fill="#231f20"/><use xlink:href="#R" fill="#fff"/><circle transform="matrix(.9885 -.1513 .1513 .9885 -2.7482 2.9333)" cx="17.9" cy="19.5" r="2.8" fill="#231f20"/><use xlink:href="#S" fill="#fff"/><g fill="#9fa6b2"><use xlink:href="#F"/><use xlink:href="#G"/><use xlink:href="#H"/><use xlink:href="#I"/><use xlink:href="#J"/><use xlink:href="#K"/><use xlink:href="#L"/><use xlink:href="#M"/><use xlink:href="#N"/><use xlink:href="#O"/><use xlink:href="#P"/><use xlink:href="#Q"/><use xlink:href="#R"/><circle transform="matrix(.9885 -.1513 .1513 .9885 -2.7482 2.9333)" cx="17.9" cy="19.5" r="2.8"/><use xlink:href="#S"/><path d="M235.8 138.6c-.6 0-1.2-.3-1.5-.8-.5.4-.9.5-1.2.5-1 0-2-1-2.2-2.3-.4-2.8 1.9-4.8 4.5-5.5.2-.3.5-.9.8-1.5-.6-.5-1.4-1.1-1.7-1.6a.76.76 0 0 1-.2-.4c-.1-.3 0-.7.3-1a5.88 5.88 0 0 0 1-1.6c.2-.4.5-.6.9-.6h.3c.2.1.4.2.5.3h.1c.3 0 .6.2.8.4l2 2.8c.2.3.2.7.1 1l-1 2.1c1 .4 1.7 1.1 1.8 1.2.2.3.3.7.2 1s-.5.6-.8.6c-.2 0-.5 0-.6.6-.1.7.2 1.3.3 1.4h.3c.3 0 .5.1.7.3.3.3.3.7.1 1-.5 1.3-1.2 1.9-2.1 1.9-.6 0-1.1-.3-1.5-.9-.9 1-1.5 1.1-1.9 1.1h0zm-28.1-3.8a1.75 1.75 0 0 1-1.4-.7c-.2-.2-.3-.5-.4-.7-.1 0-.2.1-.4.1-.9 0-1.9-.6-1.9-2.4s1-4.4 2.7-4.8c.5-.5 1.1-.8 1.8-.8.5 0 1 .1 1.5.4h1.5c1.7 0 3.7 0 5.2.4.3-.4.8-.9 1.2-1.5.2-.3.5-.4.8-.4.1 0 .2 0 .3.1.1-.2.4-.4.6-.4h.2c.4 0 .7.2.9.5 0 0 .2.3.7.6.2.2.4.4.4.7s0 .5-.2.7l-2.6 3.4c-.2.2-.5.4-.8.4-1.2 0-3-.2-4.7-.6.3.6.4 1.3.4 2 0 .8-.3 1.4-.8 1.9-.2.2-.4.3-.7.3-.1 0-.3 0-.4-.1-.4-.1-.6-.5-.6-.9-.1-2.1-1-3.1-1.7-3.5-.3.7-.4 2.1-.5 4.1v.4c-.1.3-.6.8-1.1.8z"/><path d="M227.7 128.3c-1.7 0-4-.5-6-1.3a1.08 1.08 0 0 1-.7.3h-.3c-.1 0-.3-.2-.6-.3-.1 0-.2.1-.4.1-.1 0-.3 0-.4-.1l-8.4-4.1c-.1.1-.3.1-.4.1-.2 0-.3 0-.5-.1-1.2-.6-3.7-2.7-3.9-3.5-.1-.4.1-.7.4-.9.2-.1.4-.2.6-.2.1 0 .2 0 .4.1l4.8 1.6c0-.1.1-.2.1-.3.2-.3.5-.5.9-.5.1 0 .2 0 .3.1 2.4.9 8.4 3 11.4 3.5-.3-.2-.7-.5-1.1-.9-.3-.2-.5-.6-.4-1s.4-.7.7-.8c.2-.1.5-.1.8-.1 1.5 0 5.3 1.2 5.3 2.9v.3h.7c1 0 1.9-.2 2.5-.6 3.6-2.1 4.1-2.1 4.4-2.1.4 0 .9.3 1 .7.1.3.1.6-.1.9.4-.2.8-.4 1.1-.6 2.2-1.4 2.8-1.6 3.2-1.6.3 0 .5.1.7.2.6-.7 1-1.4 1.5-2.5.2-.4.4-.8.6-1.3.2-.3.5-.5.8-.6.1-.5.3-1.1.4-1.7-3.3-1.4-6.4-1.7-8.8-2-2.6-.3-4.3-.5-4.8-1.9-.3-.9.1-1.9.9-2.9-3.1-1.4-8.3-4.2-9.5-7.5a3.83 3.83 0 0 1 .3-3.3c.2-.3.5-.5.9-.5.1 0 .3 0 .4.1.5.2.7.8.5 1.3-.1.2-.1.5 0 .7.9 2 6.6 4.1 9.4 5.1.8.3 1.5.5 2 .7.3.1.5.4.6.7s0 .6-.2.9c-1.2 1.3-1.1 1.8-1 1.8.2.7 3.2 1.3 5.6 1.8s5.1 1 8 2c.4.1.7.6.7 1-.1 1.3-.4 2.5-.7 3.2a.9.9 0 0 1-.6.6c-.2.4-.4.9-.7 1.2-.1.1-.2.2-.3.2-.2.7-.6 1.5-.9 2.1-.1.2-.3.3-.5.4-.1.6-.3 1.3-.8 1.9-.2.2-.5.4-.8.4h0-.2c-2.5 2.5-5.2 4.1-8.2 5.1h-.3c-.3 0-.6-.1-.8-.4-.3.3-.6.4-.7.4-.1.1-.2.1-.4.1-.2.2-.4.4-.7.5-1.2.2-2.6.3-3.9.3-1 0-2-.1-3.1-.2-.3.3-.5.5-.8.5z"/><path d="M235.9 125.1c-.9 0-1.1-.6-1.2-.8 0-.1-.1-.2-.1-.3-.1.1-.2.1-.3.2-1 .6-2.2.9-3.5.9 0 0-2.3 0-3.6-.7-.3.2-.6.3-1.2.3-2.3 0-8-1.9-11.2-3-.2.2-.5.4-1.1.4-.9 0-3-.6-4.6-1.2-.2.3-.5.4-.8.4-.8 0-3.7-2.7-4.1-3.2-.3-.4-.3-1 .1-1.3.1-.4.3-1.1 1.1-1.1a1.08 1.08 0 0 1 .7.3c.3.2 1.6.7 2.5.9-.2-.3-.4-.7-.6-1-.6-1.1-1.1-1.9-.7-2.6.2-.4.6-.6 1.1-.6.2 0 .4 0 .7.1.7.2 1.7.7 2.9 1.3 2.7 1.2 6.7 3.1 8.9 3.1h.4c.9-.1 1.5-.5 1.7-1.1.2-.7 0-1.5-.3-1.8-.5-.5-.5-1-.4-1.3a1.13 1.13 0 0 1 1-.7c.3 0 .5.1.9.2-.2-.4-.3-.8-.2-1.2s.4-.8 1.3-1c.2 0 .5-.1.6-.3 0-.1.2-1.1-2.3-3.7-.3-.3-.4-.8-.2-1.1s.5-.5.9-.6c-.3-.6-1.2-1.7-3.4-3.6-1.2-1.1-1.8-2-1.8-2.9a1.69 1.69 0 0 1 .3-1c-.8.2-1.3.2-1.5.3h-.1c-.4 0-.8-.2-.9-.6-.2-.4 0-.9.3-1.1.1 0 .1-.1.2-.1-.1-.5.2-.9.7-1.1 3.5-1.2 6.8-1.4 8.5-1.4 1.1 0 2.1.1 2.9.2.4.1.8.4.8.9s-.2.9-.6 1c-2.1 1-2.7 1.8-2.9 2.2-.3.6-.4 1.2-.2 1.8.9 2.5 5.5 5.2 9.6 6.9.3.1.5.4.6.7s0 .6-.2.9c-1.1 1.2-1.3 1.7-1.3 1.9.4.3 1.9.5 3.2.6 2.9.4 6.9.9 11 2.9.5.2.7.8.5 1.3-.1.4-.3.9-.6 1.4-.1.3-.4.5-.7.6-.5 1.6-1 2.7-1.7 3.4-.2.2-.4.3-.6.3-.8 1.4-1.7 2.4-4 3.9-.2.1-.4.2-.5.2-.3 0-.6-.1-.8-.3-.1-.1-.2-.2-.2-.4-1.2.3-3.8 1.6-5 1.6h0z"/><use xlink:href="#B" x="193.9" y="74"/><path d="M258.7 117c-.2 0-.4-.1-.6-.2-4.7-3.7-10.8-4.9-15.2-5.8-3.9-.8-6.5-1.3-7.1-3.1-.3-.9.1-1.9.6-2.7-.2-.1-.4-.1-.6-.2-5.4-2-10.7-4.2-10.8-7.3 0-1 .4-1.9 1.4-2.7-1.6 0-4.4.3-7.3 1.3-.1 0-.2.1-.3.1h-.1c-.5.4-1 .7-1.7.9-.1 0-.2.1-.3.1-.3 0-.6-.1-.8-.4-.3-.3-.3-.8-.1-1.2.3-.5.8-1.7.7-2.7 0-.3 0-.6.2-.8-.6-1.4-1.7-2.1-2.7-2.3-.3-.1-.6-.3-.7-.6h-.2c-1.7 0-2.7.7-3.3 1.3a1.08 1.08 0 0 1-.7.3c-.1 0-.2 0-.3-.1-1.4 1.3-3.4 3-7.6 3-.3 0-.6-.2-.8-.4-.6-.9-.8-2.5-.9-3.7 0-.3.1-.6.3-.8s.4-.3.7-.3c.6-2.9 2-5.1 2-5.3.2-.3.5-.5.9-.5.1 0 .3 0 .4.1.1 0 .1 0 .1.1 3.6-3.9 9.1-6.3 14.8-6.3 5 0 14.4 1.9 22.1 14.7l.3.2c2.4 1.1 6 2.7 7.2 6.4 3.2 2 6.8 5.1 7.3 7.6.1.4.1.9 0 1.3 1.2 1.2 1.5 2.4 1.6 3 1 1.2 3.2 4.3 3.1 5.9 0 .4-.2.8-.5 1.1-.6-.1-.9 0-1.1 0z"/><path d="M253 110.2h-.2c-7.7-1.7-10.8-2.5-13.7-3.3-.7-.2-1.3-.4-2-.5-.3-.1-.6-.3-.7-.6s-.1-.7.1-.9.4-.5.6-.8a1.08 1.08 0 0 1 .7-.3h.2c.5.1 1.4.4 2.8.8 2.4.8 6.4 2.1 12.4 3.7.5.1.8.7.7 1.2 0 .4-.4.7-.9.7zm.9-2.1c-.2 0-.3 0-.4-.1-1.8-.9-7.5-2.7-11.9-3.8-.5-.1-.8-.6-.7-1.1s.5-.8 1-.8h.1c6.9.7 12.2 1.4 13 4.7.1.4 0 .8-.4 1-.2 0-.4.1-.7.1zm-6.8-8.5c-.2 0-.3 0-.4-.1-.9-.5-2-.6-3.6-.8-1.3-.2-2.9-.4-4.8-.9-.5-.1-.8-.6-.7-1.1s.5-.8 1-.8h.1c1.8.2 3.1.3 4.2.3 3.1.2 4.1.3 5.1 1.9.3.4.2.9-.1 1.2-.3.2-.5.3-.8.3zM231.9 94c-.4 0-.8-.3-.9-.7-.2-.5.1-1 .5-1.2 1.1-.5 4-1.8 6.2-1.8 1.6 0 2.4.7 2.8 1.3.2.3.2.8 0 1.1s-.5.4-.8.4h-.3c-.3-.1-.7-.1-1.2-.1-1.4 0-3.2.4-4.7.7l-1.5.3h-.1z"/><path d="M258 115.5c-.3 0-.5-.1-.7-.3-1-.9-11.4-5.1-16.1-5.1h-.5-.1c-.5 0-.9-.4-1-.8-.1-.5.2-1 .7-1.1.7-.2 1.4-.2 2.3-.2 5.4 0 14.7 3.2 16.2 6.2.2.5.1 1-.3 1.3-.1-.1-.3 0-.5 0zm-10.9-7.8h-.3c-17.6-5.6-20.2-8.4-20.4-10.3-.1-.7.2-1.7 1.7-2.6.1-.1.3-.1.5-.1.3 0 .6.2.8.4a.95.95 0 0 1-.2 1.3c.2.4 1.5 2.3 12.3 7 0-.1 0-.1-.1-.2-.1-.5.2-1 .7-1.1 1.4-.3 2.7-.5 4.1-.5 3.9 0 7 1.4 8.1 3.6.2.5.1 1-.3 1.3-.2.1-.4.2-.6.2-.3 0-.6-.1-.8-.3-.5-.6-4.8-2.3-9-2.3h-.7c1.3.6 2.8 1.2 4.4 1.8.5.2.8.8.6 1.3 0 .2-.4.5-.8.5zm-.7-9.2c-.2 0-.4-.1-.6-.2-1-.6-3.3-.8-5.3-.9-1.4-.1-2.6-.2-3.7-.4-.4-.1-.7-.4-.8-.9-.1-.4.2-.8.6-1 1.6-.7 3.4-1.2 5-1.2 2.6 0 4.6 1.1 5.6 3.1.2.4.1.9-.2 1.2-.2.2-.4.3-.6.3zM201.2 91h-.2c-.5-.1-.8-.4-.8-.9-.1-1.5 1-4.5 1.2-4.9s.5-.6.9-.6h.2.1c1-1.2 2.1-2.2 2.9-2.6.1-.1.3-.1.4-.1.3 0 .7.2.9.5.3.4.2 1-.3 1.3-1 .7-4.1 5.7-4.5 6.6-.1.5-.5.7-.8.7zm8.8-2.1c-.4 0-.7-.2-.9-.5-.2-.5-.1-1 .3-1.3 1.3-.8 2.5-1.3 3.8-1.3a5.44 5.44 0 0 1 2.7.7c.4.2.6.8.4 1.2-.1.4-.5.7-.9.7h-.2c-.6-.1-1.2-.2-1.7-.2-1 0-2.1.2-3.2.6 0 0-.2.1-.3.1zm-.7-3.8c-.3 0-.6-.2-.8-.4a.95.95 0 0 1 .2-1.3c3.7-3.2 7.6-3.9 10.2-3.9 1.9 0 3.2.3 3.9.5.5.1.8.6.7 1.1s-.5.8-1 .8h-.1c-.6 0-1.1-.1-1.7-.1-5.2 0-8.3 1.7-10.2 2.7-.3.1-.5.3-.7.4s-.4.2-.5.2zm-1.6-2.6c-.3 0-.7-.2-.8-.5a.95.95 0 0 1 .2-1.3c2.4-2 5.9-3.2 8.1-3.4h.1c.4 0 .8.3 1 .7.1.5-.1 1-.5 1.2l-2.3.9c-1.6.6-3.5 1.3-5.3 2.2-.2.1-.4.2-.5.2z"/><path d="M221.1 119.1c-2.6 0-6.7-1.9-9.7-3.3-.4-.2-.9-.4-1.3-.6.6 1 1 2 .5 2.8-.2.4-.7.8-1.6.8s-2.1-.4-3-.7c-.2.3-.4.5-.9.5h0c-.3 0-.6-.1-.8-.3-2.6-3-4.2-6-4.8-9.1h-.2c-.5-.1-.8-.5-.8-1 .1-1.5.2-3 1.4-6.6.1-.4.2-.7.2-1 .2-1 .2-2.5 0-4.5-.3-.2-.5-.5-.5-.9 0-.8 0-.8-.4-1s-.5-.7-.4-1.1.5-.7.9-.7h.2l.1-.1c.2-.2.5-.3.8-.4 3.7 0 5.2-1.5 6.6-2.7.6-.5 1.1-1.1 1.8-1.4.1-.1.3-.1.5-.1s.4.1.5.2c.8-.3 1.7-.5 2.6-.5.8 0 1.6.1 2.5.4.5.1.8.6.8 1.1v.1c1.3.9 2.4 2.4 2.6 4.4.2-.1.4-.2.6-.2.1 0 .3 0 .4.1.4.2.6.5.6.9.7-.1 1.4-.2 1.9-.3h.1c.5 0 .9.3 1 .8.1.4-.1.8-.4 1 0 .2 0 .4-.1.6-.3.5-.6.9-.9 1.2s-.5.6-.6.8c0 .1 0 .5 1.1 1.4 4.3 3.8 4.5 5.3 4.1 6.1 0 .1-.1.3-.3.5 1.5 1.8 2.1 3.3 1.7 4.5-.2.7-.7 1.2-1.4 1.5.4.5.8.9.7 1.5 0 .3-.2.6-.5.9-.3.2-.6.3-1.1.3-.2 0-.4 0-.6-.1.1.7.1 1.4-.1 2-.3.8-1.1 2.1-3.3 2.4 0-.2-.3-.2-.5-.2z"/><path d="M201.6 110.3c-.3 0-.6-.1-.8-.4-.1-.1-.1-.2-.2-.3-1.3-2.5-1.1-6.5.6-8.5.2-.2.5-.4.8-.4.2 0 .4.1.6.2.4.3.5.9.2 1.4-.5.8-.7 5.4-.4 6.4l.1.1c.3.5.1 1-.3 1.3-.3.2-.4.2-.6.2zM211.9 98h-.3c-.5 0-.9-.4-.9-.9s.3-.9.7-1l.5-.1s.1 0 .2-.1c.2-.1.7-.3 1.2-.8.4-.5.6-1.1.7-1.3 0-.2.1-.4.1-.5v-.2c0-.5.4-.8.8-.9h.2c.4 0 .8.3.9.6 0 0 0 .1.1.3.1.3.1.6.1.9s0 1.6-1 2.7c-.6.8-1.6 1.3-2.6 1.4h-.5c.1-.1-.2-.1-.2-.1z"/><path d="M220.9 117.8c-1.7-.2-3.5-.9-4.7-1.9-.4-.3-.5-.8-.3-1.2.2-.3.5-.5.9-.5h.3c1.7.5 3.6 1.3 4.4 1.8.4.2.6.7.5 1.2-.1.4-.5.7-1 .7 0-.1 0-.1-.1-.1zm-15.4-.6c-.2 0-.5-.1-.6-.2-1.6-1.3-2.7-3.4-2.7-5.2 0-.5.3-.9.8-1h.2c.3 0 .5.1.7.3-1-1.5-1.5-3.4-1.3-4.9.1-.5.5-.8.9-.9h.1c.4 0 .8.3 1 .7.3 1.2.5 1.7.8 2.6.2.5.4 1.2.7 2.2a.88.88 0 0 1-.5 1.2.9.9 0 0 1-.5.1c-.3 0-.6-.1-.8-.4-.1-.1-.2-.2-.3-.4l1.2 2.4 1.1 2c.2.4.1.9-.3 1.2 0 .2-.3.3-.5.3zm8-1.2h-.3c-2.5-.6-5.7-2-7-4.6-.2-.4-.1-.9.3-1.2.2-.1.4-.2.6-.2s.4.1.6.2c2.4 1.9 4.2 3.1 6.1 4 .5.2.7.8.5 1.2 0 .3-.4.6-.8.6zm11.5-1.9c-3.9-.4-7.2-2.4-9-5.3-.2-.4-.2-.9.2-1.3.2-.2.4-.2.7-.2.2 0 .4.1.6.2 2 1.6 4 2.6 6 3.6.7.4 1.4.7 2.1 1.1.4.2.6.7.5 1.2-.1.4-.5.7-1 .7h-.1zm-9.7-2c-.1 0-.3 0-.4-.1-1.4-.6-4.7-3-5.5-5.2-.2-.5 0-1 .4-1.2.2-.1.3-.1.5-.1.3 0 .6.1.8.4 1.2 1.4 2.8 2.8 3.9 3.7.5.4.8.7 1 .9.3.3.4.9.1 1.3-.2.1-.5.3-.8.3zm9.1-5.3h-.2c-.9-.2-3.8-1-6-4-.3-.4-.2-1 .1-1.3.2-.2.4-.3.7-.3.2 0 .5.1.7.2 1.6 1.4 3.2 2.3 4.3 2.9.4.3.8.4 1 .6.4.3.5.8.3 1.2s-.5.7-.9.7zm-15.2-10c-.2 0-.4-.1-.6-.2-1.5-1.2-2.1-2.9-1.5-4.6.6-1.8 2.5-3.2 4.4-3.2 1.2 0 2.3.5 3.2 1.4a.94.94 0 0 1 .1 1.3c-.2.2-.5.4-.8.4-.2 0-.4 0-.5-.1-.4-.3-.9-.4-1.3-.4-.9 0-1.7.5-2.2 1.3s-.4 1.8.1 2.6a.95.95 0 0 1-.2 1.3c-.2.1-.5.2-.7.2z"/><use xlink:href="#C" x="193.9" y="74"/><path d="M198.3 98.7c-.2 0-.5-.1-.7-.2a.95.95 0 0 1-.2-1.3c1.1-1.7 2.8-2.7 4-2.9h.2c.4 0 .7.2.9.6s.1.9-.2 1.2c-.2.2-.6.4-1.1.8l-2.3 1.7c-.1 0-.3.1-.6.1z"/><use xlink:href="#D" x="193.9" y="74"/><use xlink:href="#E" x="193.9" y="74"/></g><g fill="#2d1d1c"><use xlink:href="#F" x="193.9" y="74"/><use xlink:href="#T"/></g><use xlink:href="#H" x="193.9" y="74" fill="#afbdc4"/><use xlink:href="#U" fill="#eeeae8"/><use xlink:href="#J" x="193.9" y="74" fill="#2d1d1c"/><use xlink:href="#V" fill="#4e342e"/><use xlink:href="#W" fill="#2d1d1c"/><use xlink:href="#X" fill="#63463d"/><use xlink:href="#Y" fill="#e45325"/><use xlink:href="#Z" fill="#f27021"/><use xlink:href="#a" fill="#bd3926"/><use xlink:href="#Q" x="193.9" y="74" fill="#231f20"/><use xlink:href="#R" x="193.9" y="74" fill="#fff"/><circle transform="matrix(.9885 -.1513 .1513 .9885 -11.7138 33.1294)" cx="211.8" cy="93.5" r="2.8" fill="#231f20"/><use xlink:href="#b" fill="#fff"/><g fill="#9fa6b2"><use xlink:href="#F" x="193.9" y="74"/><use xlink:href="#T"/><use xlink:href="#H" x="193.9" y="74"/><use xlink:href="#U"/><use xlink:href="#J" x="193.9" y="74"/><use xlink:href="#V"/><use xlink:href="#W"/><use xlink:href="#X"/><use xlink:href="#Y"/><use xlink:href="#Z"/><use xlink:href="#a"/><use xlink:href="#Q" x="193.9" y="74"/><use xlink:href="#R" x="193.9" y="74"/><circle transform="matrix(.9885 -.1513 .1513 .9885 -11.7138 33.1294)" cx="211.8" cy="93.5" r="2.8"/><use xlink:href="#b"/></g><defs ><path id="B" d="M64.2 52.5c-1.5 0-4.7-1.8-10.6-5.9-.4-.3-.6-.4-.7-.5-.4-.2-.5-.7-.4-1.1.2-.8.4-1.8.4-1.8.1-.5.5-.8.9-.8h.1c.2-.6.3-1.2.4-1.5.1-.4.4-.7.8-.8 0-.3.1-.5.1-.7 0-.4.3-.8.7-.9 0-.3.1-.5.1-.8s.2-.6.5-.7c.2-.1.4-.2.5-.2s.2 0 .3.1c3.2 1.1 5.9 2.5 8.1 4.2.3.2.4.7.3 1-.3 1-1.4 1-2 1-.5 0-1.2 0-1.8-.1 1.1 1 1.5 1.9 1.3 2.7 0 .2-.1.3-.2.5 2.6 3.4 2.9 4.7 2.5 5.5 0 .3-.4.8-1.3.8z"/><path id="C" d="M3.3 26.7c-.5 0-1-.4-1.1-.9-.3-1.2 1.4-4.7 4.5-6.3.2-.1.5-.2.8-.2 1.1 0 5 1.1 5.6 2.5.2.5.1 1-.3 1.4-.5.5-2.3 1.2-7.7 2.9-.8.2-1.3.4-1.5.5 0 .1-.2.1-.3.1z"/><path id="D" d="M17.9 23.3c-1.8 0-3.5-1.4-3.7-3.2-.2-1 .1-2 .7-2.8s1.5-1.4 2.5-1.5h.6c1.8 0 3.5 1.4 3.7 3.2.2 1-.1 2-.7 2.8s-1.5 1.4-2.5 1.5h-.6z"/><path id="E" d="M18 23c-.3 0-.6 0-.8-.1-.5-.1-.8-.6-.7-1.1s.5-.8 1-.8h.2.2c.8-.1 1.3-.8 1.2-1.6-.1-.5.3-1 .8-1.1h.2c.4 0 .8.3.9.7.1.2.1.4.1.5.1.8-.1 1.6-.6 2.3s-1.2 1.1-2.1 1.3c-.1-.2-.3-.1-.4-.1zm-1.5-2.8c-.2 0-.3 0-.5-.1-.3-.2-.6-.4-.7-.7a1.95 1.95 0 0 1 0-1.5 2.41 2.41 0 0 1 1-1c.3-.1.6-.2 1-.2a1.78 1.78 0 0 1 1.6 1c.1.1.1.3.1.5.1.5-.3 1.1-.8 1.1-.1 0-.3.1-.4.1-.3.1-.4.3-.5.4-.1.2-.5.4-.8.4z"/><path id="F" d="M42.5 50.9l-.3 1.5s.9-.4 1.2-1.1l.7 1 1.3 1.8-1.5 3.4c1.2-.3 2.4 1 2.4 1-2.4.2-1.6 4.4 0 3.9-1.2 2.6-2.5 1.1-2.6-3.4-.5.4-2.4 2.9-.2 3.4-2 3.6-4.1-1-1.2-3.6-1.5.1-3.8 1.9-2 3.6-.7 1.7-1.9.8-2.1-.5-.3-2.4 1.9-3.9 4.1-4.5.2-.1 1.4-2.8 1.4-2.8s-1.8-1.3-2.1-1.8l-.1-.1c.4-.6 1-1.8 1-1.8z"/><path id="G" d="M12.9 53.1c.6-.9 1.5-.9 2.5-.3 2.1.1 5.3-.2 7.3.5l1.7-2 1.5.6c-.2-.3-.4-.6-.3-1 .2.3.6.6 1 .9L24 55.2c-1.7-.1-4.5-.4-6.8-1.2.9 1 2.3 3.6 1 4.7-.2-3.4-2.2-4.5-3.1-4.7-1.1 1-1.1 4.6-1.1 5.8-1.5 0-1.2-3.8-.8-5.4-.2.1-.4.3-.6.5-.6.8-.9 2.4-.9 3.5-1.9 0-.8-5.3 1.2-5.3z"/><path id="H" d="M19.3 46s20.7 7.7 11.2.9c2-.5 7.7 2.3 3.2 2.5-.8 0 3.6 1.7 6.3 0 3.2-1.9 5.4-2.9 3-.8-3.6 3.1 1.7.9 3.6-.4 4.4-2.9 2.4-.6 1.4.6 3.5-2.2 3.5-3.1 4.9-6.1 0 0-.2 1.1-.5 2.1 1.2-1.2 1.9-4.9 1.9-4.9.1.2.2.7.3 1.2.3-.5.4-1 .6-1.4-9.3-4.7-18.5-1-13.1-7-2.9-1.2-12.3-5.6-10-10-1.6 3.7 9.1 6.8 11.9 7.9-4.7 5.2 4 4.2 13 7.2-.1 1.1-.4 2.3-.6 3 0-1-.2-1.3-.2-1.3 0 .3-.2 2-.9 2.8.2-.6 0-1.2 0-1.2s-.5 2.4-1.3 3.6c0-.3-.2-1.3-.2-1.3l-.4 1.9c-.1.5-.2 1.2-.7 1.7-.1.2 0-.6-.2-.4-2.4 2.6-5.1 4.5-8.5 5.6l-.7-1c-.3.7-1.2 1.1-1.2 1.1.2-.4.3-1.5.3-1.5s-.6 1.2-1.2 1.8c0 0 0 .1.1.1-2.4.4-5.1.4-8.1 0 0 .2.6.5.6.5-1.9 0-4.8-.7-6.9-1.9 0 0 0 .5.2.9-.1 0-1.3-.8-1.6-1.3a1.69 1.69 0 0 0 .3 1s-8.2-3.4-9.6-5c0 0 .1.6.4.9-1.6-.9-3.3-2.7-3.4-2.8 0 .1 10.2 3.9 6.1 1z"/><path id="I" d="M11.6 42.7c.2.3 3.7 1.7 4.3.8s-2.9-4.5-.8-3.8 9.4 4.8 12.6 4.4 2.9-3.6 1.9-4.6c-.9-.8 2.1.6 2.7.1s-2.2-2.1-.5-2.4 2.4-2-1.2-5.7c2.1.2 1.4-1.7-2.7-5.4-2.9-2.5-.7-3.1.1-4.6-.4 0-3.4.7-3.9.7 1-.8 4.3-1.6 4.3-1.6-1.3.1-3.8.6-3.8.6 4.1-1.4 8.5-1.6 10.9-1.2-2 .9-3 1.8-3.4 2.7-2.4 4.4 7.1 8.8 10 10-5.4 6 3.8 2.3 13.1 7-.2.3-.4.8-.6 1.3-.1-.5-.2-1-.3-1.2 0 0-.7 3.6-1.9 4.9.2-.9.5-2.1.5-2.1-1.5 3-1.4 3.9-4.9 6.1 1-1.2 3-3.5-1.4-.6-1.9 1.2-7.1 3.4-3.6.4 2.4-2 .2-1-3 .8-2.8 1.6-7.2 0-6.3 0 4.5-.1-1.2-3-3.2-2.5 9.5 6.8-11.2-.8-11.2-.8 4.1 3-6.1-.9-6.1-.9l.1.1.1.1.1.1.2.2.2.2.2.2c.1.1.2.2.3.2 0 0-2.4-1.7-3.3-2.8.4.4.3-.9.5-.7z"/><path id="J" d="M54 44.8c.8-1.2 1.3-3.6 1.3-3.6s.2.5 0 1.2c.8-.9.9-2.8.9-2.8s.2.3.2 1.3c0 0 .4-1.3.6-3 2.7.9 5.4 2.2 7.8 4.1-.2.6-5-.1-6.7-.4 5.2 3.1 4.8 4.7 3.2 4.1 10.5 13.2-6.9.4-8-.3.3-.9.4-1.9.4-1.9s.4.9.3 1.3z"/><path id="K" d="M25.4 19.9s-1.3 1.7-2.9 2.3c.2-.4 1-1.9.8-3.4 0-.2.6 1.9.6 1.6.2-3.4-2-5.2-3.8-5.6-.3-.1 1.5-.2 1.1-.3-3-.8-5.1 0-6.2 1.3.3-.8 1-1.4.8-1.3-1.9 1-3 4.2-8.8 4.2-.6-.8-.7-2.9-.7-3.2s.6 1.8.6 1.6c.1-3.8 2.2-7.3 2.2-7.3l-.3 1.9c6-9.3 24.8-14.3 37 6.5 2.3 1.1 6.4 2.5 7.4 6.4 4 2.3 8.4 6.5 6.9 8.5 1.9 1.5 1.9 3.2 1.9 3.2 1.2 1.2 3.7 5.1 2.9 5.7-10.5-8.3-27-4.6-20.9-11.3-3.5-1.5-18.9-5.8-8.5-10.6-2.4-.4-6.8-.3-10.9 1.2.4-.4.7-.8.8-1.4z"/><path id="L" d="M60 33.1c-2-1-7.9-2.9-12.1-3.9 6.9.6 11.6 1.4 12.1 3.9zM44.6 22.8c4.2 1 6.6.8 8.6 1.8-1.1-1.6-1.7-1.1-8.6-1.8zM38 19c2.4-.5 5.8-1.4 7.8-.9-1.1-1.6-4.9-.5-7.8.9zm6 11.7c-.2.2-.4.5-.6.7 3.9 1 6.2 1.8 15.7 3.8-9.3-2.6-13.8-4.3-15.1-4.5z"/><path id="M" d="M8.3 13c1.1-1.8 2.8-3.5 3.8-3.9-1.2.9-4.5 6.2-4.8 7-.1-1.1.9-3.8 1.1-4.4 0 0 0 .6-.1 1.3zm20.1-6.1c-2-.6-7.8-1.4-13.1 3.1 2-.9 5.9-3.6 13.1-3.1zm-6.8 6.5c-1.1-.6-2.9-1.2-5.5.5a9.75 9.75 0 0 1 5.5-.5zm-.3-9.1c-2 .2-5.3 1.2-7.6 3.1 3.1-1.4 6.6-2.5 7.6-3.1zm31.9 28.4c-20.5-8.1-19.3-10.4-18.5-11.1-3.4 1.9-.4 5.1 18.5 11.1zM48.6 29c4.7-.4 10.1 1.5 11 2.6-1.3-2.7-6.3-3.8-11-2.6zm-5.5-7c2.7.5 7.5.2 9.4 1.4-1.8-3.3-6.5-2.7-9.4-1.4zm3.6 13.1c4.7-.4 16.5 4.3 17.4 5.4-1.4-2.8-12.7-6.6-17.4-5.4z"/><path id="N" d="M5.7 34.1c.1-1.5.2-2.9 1.3-6.3l.3-1.1c.3-1.7.1-4.2-.1-6l-.4.5c0-1 0-1.3-.8-1.9.6 0 .9.2 1.1.5-.1-.6-.1-1-.1-1 5.7-.1 6.9-3.3 8.8-4.2.2-.1-.5.5-.8 1.3 1.2-1.2 3.2-2.1 6.2-1.3.4.1-1.5.2-1.1.3 1.8.4 4 2.2 3.8 5.6 0 .3-.6-1.9-.6-1.6.2 1.6-.6 3-.8 3.4 1.7-.6 2.9-2.3 2.9-2.3-.1.7-.5 1.1-.8 1.3l3.8-.6s-3.4.8-4.3 1.6c.5 0 3.5-.7 3.9-.7-.8 1.6-3 2.1-.1 4.6 4.1 3.7 4.9 5.6 2.7 5.4 3.6 3.6 2.9 5.3 1.2 5.7-1.7.3 1.1 1.9.5 2.4s-3.5-.9-2.7-.1c1 1 1.3 4.2-1.9 4.6s-10.5-3.7-12.6-4.4 1.4 2.9.8 3.8-4-.5-4.3-.8c-.2-.3-.2 1.1-.5.8C7.2 39 6.3 35.1 6.4 32c-.3.7-.6 1.7-.7 2.1z"/><path id="O" d="M18.1 22.9c.1 0 .2 0 .3-.1.1 0 .2-.1.3-.1.5-.2 1.1-.6 1.6-1.1.5-.6.8-1.2.9-1.7.1-.3.1-.5.1-.6v-.2s0 .1.1.2c0 .1.1.4.1.7 0 .6-.2 1.4-.7 2.1-.6.7-1.4 1-1.9 1.1h-.4c-.2-.2-.3-.2-.4-.3-.2.1-.3.1-.3.1s.1 0 .3-.1zM8 27.8c-1.4 1.7-1.6 5.4-.3 7.6-.7-.9-.4-6.6.3-7.6z"/><path id="P" d="M22.9 34.3c1.7 2.9 5.1 4.5 8.2 4.8-2.4-1.4-5.3-2.6-8.2-4.8zm-9.7 2.6c1.1 2.3 4 3.5 6.3 4.1-2-1-3.9-2.2-6.3-4.1zm-4 .8c0 1.4 1 3.3 2.4 4.5l-2.4-4.5zm.4-5.5c-.2 1.4.4 3.4 1.6 4.8l-1.6-4.8zM23 41.1c1.1.9 2.8 1.5 4.2 1.7-.8-.4-2.5-1.2-4.2-1.7zm-6.6-8.7c.7 1.9 3.6 4.1 5 4.7-.6-.6-3.3-2.7-5-4.7zm8.7-4.2c1.7 2.3 4 3.3 5.4 3.6-.7-.5-3.2-1.7-5.4-3.6zm-9.8-6.4c-3.8-3 1.3-8.4 4.8-4.9-3.3-2-6.7 1.9-4.8 4.9z"/><path id="Q" d="M12.1 22.5c-.7.7-8.1 2.9-8.8 3.2s.6-3.6 3.8-5.3c.8-.3 5.7 1.4 5 2.1z"/><path id="R" d="M4.4 23.7c1-1.5 2.4-2.3 3.3-2.5-.4.5-2 1.4-3.3 2.5z"/><path id="S" d="M16.2 18.9c-.2-.4.1-.9.6-1.2s1.1-.1 1.3.3c0 .1 0 .1.1.2-.2 0-.4.1-.7.2-.4.2-.8.5-.9.8-.3 0-.4-.1-.4-.3zm1.2 3c.3.1.6.1.9.1 1.2-.2 2-1.3 1.8-2.4 0-.1-.1-.2-.1-.4.2 1.3-.7 2.5-2.1 2.7h-.5z"/><path id="T" d="M206.8 127.1c.6-.9 1.5-.9 2.5-.3 2.1.1 5.3-.2 7.3.5l1.7-2 1.5.6c-.2-.3-.4-.6-.3-1 .2.3.6.6 1 .9l-2.6 3.4c-1.7-.1-4.5-.4-6.8-1.2.9 1 2.3 3.6 1 4.7-.2-3.4-2.2-4.5-3.1-4.7-1.1 1-1.1 4.6-1.1 5.8-1.5 0-1.2-3.8-.8-5.4-.2.1-.4.3-.6.5-.6.8-.9 2.4-.9 3.5-1.9 0-.8-5.3 1.2-5.3z"/><path id="U" d="M205.5 116.7c.2.3 3.7 1.7 4.3.8s-2.9-4.5-.8-3.8 9.4 4.8 12.6 4.4c3.3-.4 2.9-3.6 1.9-4.6-.9-.8 2.1.6 2.7.1s-2.2-2.1-.5-2.4 2.4-2-1.2-5.7c2.1.2 1.4-1.7-2.7-5.4-2.9-2.5-.7-3.1.1-4.6-.4 0-3.4.7-3.9.7 1-.8 4.3-1.6 4.3-1.6-1.3.1-3.8.6-3.8.6 4.1-1.4 8.5-1.6 10.9-1.2-2 .9-3 1.8-3.4 2.7-2.4 4.4 7.1 8.8 10 10-5.4 6 3.8 2.3 13.1 7-.1.4-.3.8-.6 1.4-.1-.5-.2-1-.3-1.2 0 0-.7 3.6-1.9 4.9.2-.9.5-2.1.5-2.1-1.5 3-1.4 3.9-4.9 6.1 1-1.2 3-3.5-1.4-.6-1.9 1.2-7.1 3.4-3.6.4 2.4-2 .2-1-3 .8-2.8 1.6-7.2 0-6.3 0 4.5-.1-1.2-3-3.2-2.5 9.6 6.8-11.2-.9-11.2-.9 4.1 3-6.1-.9-6.1-.9l.1.1.1.1.1.1.2.2.2.2.2.2c.1.1.2.2.3.2 0 0-2.4-1.7-3.3-2.8.4.4.3-.9.5-.7z"/><path id="V" d="M219.3 93.9s-1.3 1.7-2.9 2.3c.2-.4 1-1.9.8-3.4 0-.2.6 1.9.6 1.6.2-3.4-2-5.2-3.8-5.6-.3-.1 1.5-.2 1.1-.3-3-.8-5.1 0-6.2 1.3.3-.8 1-1.4.8-1.3-1.9 1-3 4.2-8.8 4.2-.6-.8-.7-2.9-.7-3.2s.6 1.8.6 1.6c.1-3.8 2.2-7.3 2.2-7.3l-.3 1.9c6-9.3 24.8-14.3 37 6.5 2.3 1.1 6.4 2.5 7.4 6.4 4 2.3 8.4 6.5 6.9 8.5 1.9 1.5 1.9 3.2 1.9 3.2 1.2 1.2 3.7 5.1 2.9 5.7-10.4-8.3-26.9-4.5-20.8-11.3-3.5-1.5-18.9-5.8-8.5-10.6-2.4-.4-6.8-.3-10.9 1.2.3-.4.6-.8.7-1.4z"/><path id="W" d="M253.9 107.1c-2-1-7.9-2.9-12.1-3.9 6.9.6 11.6 1.4 12.1 3.9zm-15.4-10.3c4.2 1 6.6.8 8.6 1.8-1.1-1.6-1.7-1.1-8.6-1.8zm-6.6-3.8c2.4-.5 5.8-1.4 7.8-.9-1.1-1.6-4.9-.5-7.8.9zm6 11.7c-.2.2-.4.5-.6.7 3.9 1 6.2 1.8 15.7 3.8-9.3-2.6-13.8-4.3-15.1-4.5z"/><path id="X" d="M202.2 87c1.1-1.8 2.8-3.5 3.8-3.9-1.2.9-4.5 6.2-4.8 7-.1-1.1.9-3.8 1.1-4.4 0 0 0 .6-.1 1.3zm20.1-6.1c-2-.6-7.8-1.4-13.1 3.1 2-.9 5.9-3.6 13.1-3.1zm-6.8 6.5c-1.1-.6-2.9-1.2-5.5.5a9.75 9.75 0 0 1 5.5-.5zm-.3-9.1c-2 .2-5.3 1.2-7.6 3.1 3.1-1.4 6.6-2.5 7.6-3.1zm31.9 28.4c-20.5-8.1-19.3-10.4-18.5-11.1-3.4 1.9-.4 5.1 18.5 11.1zm-4.6-3.7c4.7-.4 10.1 1.5 11 2.6-1.3-2.7-6.3-3.8-11-2.6zm-5.5-7c2.7.5 7.5.2 9.4 1.4-1.8-3.3-6.5-2.7-9.4-1.4zm3.6 13.1c4.7-.4 16.5 4.3 17.4 5.4-1.4-2.8-12.7-6.6-17.4-5.4z"/><path id="Y" d="M199.6 108.1c.1-1.5.2-2.9 1.3-6.3l.3-1.1c.3-1.7.1-4.2-.1-6l-.4.5c0-1 0-1.3-.8-1.9.6 0 .9.2 1.1.5-.1-.6-.1-1-.1-1 5.7-.1 6.9-3.3 8.8-4.2.2-.1-.5.5-.8 1.3 1.2-1.2 3.2-2.1 6.2-1.3.4.1-1.5.2-1.1.3 1.8.4 4 2.2 3.8 5.6 0 .3-.6-1.9-.6-1.6.2 1.6-.6 3-.8 3.4 1.7-.6 2.9-2.3 2.9-2.3-.1.7-.5 1.1-.8 1.3l3.8-.6s-3.4.8-4.3 1.6c.5 0 3.5-.7 3.9-.7-.8 1.6-3 2.1-.1 4.6 4.1 3.7 4.9 5.6 2.7 5.4 3.6 3.6 2.9 5.3 1.2 5.7-1.7.3 1.1 1.9.5 2.4s-3.5-.9-2.7-.1c1 1 1.3 4.2-1.9 4.6-3.3.4-10.5-3.7-12.6-4.4s1.4 2.9.8 3.8-4-.5-4.3-.8c-.2-.3-.2 1.1-.5.8-3.9-4.5-4.8-8.4-4.8-11.5-.2.6-.5 1.6-.6 2z"/><path id="Z" d="M212 96.9c.1 0 .2 0 .3-.1.1 0 .2-.1.3-.1.5-.2 1.1-.6 1.6-1.1.5-.6.8-1.2.9-1.7.1-.3.1-.5.1-.6v-.2s0 .1.1.2c0 .1.1.4.1.7 0 .6-.2 1.4-.7 2.1-.6.7-1.4 1-1.9 1.1h-.4c-.2-.2-.3-.2-.4-.3-.1.1-.2.1-.2.1l.2-.1zm-10.1 4.9c-1.4 1.7-1.6 5.4-.3 7.6-.7-.9-.4-6.6.3-7.6z"/><path id="a" d="M216.8 108.3c1.7 2.9 5.1 4.5 8.2 4.8-2.4-1.4-5.3-2.6-8.2-4.8zm-9.7 2.6c1.1 2.3 4 3.5 6.3 4.1-2-1-3.9-2.2-6.3-4.1zm-4 .8c0 1.4 1 3.3 2.4 4.5l-2.4-4.5zm.4-5.5c-.2 1.4.4 3.4 1.6 4.8l-1.6-4.8zm13.4 8.9c1.1.9 2.8 1.5 4.2 1.7-.8-.4-2.5-1.2-4.2-1.7zm-6.6-8.7c.7 1.9 3.6 4.1 5 4.7-.6-.6-3.3-2.7-5-4.7zm8.7-4.2c1.7 2.3 4 3.3 5.4 3.6-.7-.5-3.2-1.7-5.4-3.6zm-9.8-6.4c-3.8-3 1.3-8.4 4.8-4.9-3.3-2-6.7 1.9-4.8 4.9z"/><path id="b" d="M210.1 92.9c-.2-.4.1-.9.6-1.2.5-.2 1.1-.1 1.3.3 0 .1 0 .1.1.2-.2 0-.4.1-.7.2-.4.2-.8.5-.9.8-.3 0-.4-.1-.4-.3zm1.2 3c.3.1.6.1.9.1 1.2-.2 2-1.3 1.8-2.4 0-.1-.1-.2-.1-.4.2 1.3-.7 2.5-2.1 2.7h-.5z"/></defs></svg>
