<?xml version="1.0" encoding="UTF-8" standalone="no"?>
<svg
   xmlns:dc="http://purl.org/dc/elements/1.1/"
   xmlns:cc="http://creativecommons.org/ns#"
   xmlns:rdf="http://www.w3.org/1999/02/22-rdf-syntax-ns#"
   xmlns:svg="http://www.w3.org/2000/svg"
   xmlns="http://www.w3.org/2000/svg"
   xmlns:sodipodi="http://sodipodi.sourceforge.net/DTD/sodipodi-0.dtd"
   xmlns:inkscape="http://www.inkscape.org/namespaces/inkscape"
   id="logo"
   viewBox="0 0 56 56"
   fill="none"
   version="1.1"
   sodipodi:docname="1inch.svg"
   width="56"
   height="56"
   inkscape:version="1.0.1 (3bc2e813f5, 2020-09-07)">
  <metadata
     id="metadata1069">
    <rdf:RDF>
      <cc:Work
         rdf:about="">
        <dc:format>image/svg+xml</dc:format>
        <dc:type
           rdf:resource="http://purl.org/dc/dcmitype/StillImage" />
        <dc:title></dc:title>
      </cc:Work>
    </rdf:RDF>
  </metadata>
  <sodipodi:namedview
     pagecolor="#ffffff"
     bordercolor="#666666"
     borderopacity="1"
     objecttolerance="10"
     gridtolerance="10"
     guidetolerance="10"
     inkscape:pageopacity="0"
     inkscape:pageshadow="2"
     inkscape:window-width="2765"
     inkscape:window-height="1615"
     id="namedview1067"
     showgrid="false"
     inkscape:zoom="7.0866667"
     inkscape:cx="75"
     inkscape:cy="28"
     inkscape:window-x="0"
     inkscape:window-y="0"
     inkscape:window-maximized="0"
     inkscape:current-layer="logo" />
  <g
     clip-path="url(#clip0)"
     id="g1059">
    <path
       d="m 14.1453,33.6155 1.4,-10.5437 -12.16249,-8.4438 11.11249,3.7625 2.625,-4.025 9.5813,-5.94997 21.1312,11.63747 1.0938,17.7625 -9.4063,13.0813 -7.4375,1.1375 3.85,-7.0438 v -6.7812 l -2.8,-5.2938 -2.8437,-1.8812 -4.375,4.5062 v 4.7688 l -3.4125,3.1937 -4.3313,0.525 -1.925,1.0938 -3.15,-1.0063 -1.3125,-4.725 2.3625,-3.325 z"
       fill="#ffffff"
       id="path1001" />
    <path
       d="m 33.5702,14.5405 c -2.3188,-0.4812 -4.8563,-0.35 -4.8563,-0.35 0,0 -0.8312,3.85 -5.9937,4.8563 0.0437,0 6.825,2.3187 10.85,-4.5063 z"
       fill="#94a6c3"
       id="path1003" />
    <path
       d="m 35.6701,49.4531 c 2.8,-2.1875 4.9,-5.2063 5.8625,-8.6188 0.0438,-0.1312 0.4375,-0.35 0.7,-0.525 0.4375,-0.2625 0.875,-0.4812 0.9625,-0.8312 0.175,-1.0063 0.2625,-2.0563 0.2625,-3.1063 0,-0.3937 -0.3937,-0.7875 -0.7875,-1.1812 -0.3062,-0.2625 -0.6125,-0.5688 -0.6125,-0.7875 -0.4375,-3.9813 -2.275,-7.7 -5.2062,-10.4125 l -0.3063,0.3062 c 2.8438,2.6688 4.6813,6.3 5.075,10.15 0.0438,0.35 0.3938,0.7 0.7438,1.05 0.3062,0.2625 0.6562,0.6563 0.6562,0.8313 0,1.0062 -0.0875,2.0125 -0.2625,3.0187 -0.0437,0.175 -0.4375,0.35 -0.7437,0.525 -0.4375,0.2188 -0.8313,0.4375 -0.9188,0.7875 -1.05,3.7188 -3.4562,6.9563 -6.65,9.0563 0.5688,-1.225 2.3625,-5.2063 3.325,-7.2188 l -0.175,-6.475 -5.5562,-5.3812 -3.15,0.4375 -3.4563,5.6 c 0,0 1.6188,2.0562 -0.6562,4.4625 -2.2313,2.3625 -3.9813,2.8875 -3.9813,2.8875 l -1.6187,-0.875 c 0.4812,-0.6125 1.4437,-1.5313 2.1875,-2.1438 1.2687,-1.05 2.5375,-1.1375 2.5375,-2.275 0.0437,-2.3625 -2.4938,-1.7062 -2.4938,-1.7062 l -0.9187,0.875 -0.3938,3.2375 -1.925,2.4062 -0.2187,-0.0437 -3.15,-0.7 c 0,0 1.925,-1.0063 2.2312,-2.1438 0.3063,-1.0937 -0.6125,-4.725 -0.6562,-4.9437 0.0437,0.0437 0.9187,0.7875 1.3125,2.0125 0.7,-1.925 1.6187,-3.7625 1.8812,-3.9375 0.2625,-0.175 3.8063,-2.0563 3.8063,-2.0563 l -1.1813,3.1063 0.875,-0.4813 2.1,-5.1625 c 0,0 2.0563,-1.0062 3.5875,-1.0062 2.7563,-0.0438 6.825,-3.4125 4.9875,-9.45 0.525,0.2187 9.625,4.7687 11.2,13.6937 1.1813,6.8688 -2.7125,13.3 -9.275,17.0188 z"
       fill="#94a6c3"
       id="path1005" />
    <path
       d="m 25.2578,15.503 c 1.0062,-1.1813 0.6125,-2.9313 0.6125,-2.9313 L 22.939,16.903 c -0.0437,0 1.05,0.0437 2.3188,-1.4 z"
       fill="#1b314f"
       id="path1007" />
    <path
       d="m 15.414,39.1718 0.35,-1.75 c 0,0 -1.4437,2.5375 -1.575,2.8875 -0.1312,0.3938 0.0875,1.0938 0.6563,1.05 0.5687,-0.0437 1.2687,-0.875 1.2687,-1.4875 0,-0.7875 -0.7,-0.7 -0.7,-0.7 z"
       fill="#1b314f"
       id="path1009" />
    <path
       d="m 41.4015,11.3468 c 0,0 2.1875,0.0875 4.4625,0.35 -5.1187,-4.02502 -9.975,-5.20627 -13.9125,-5.20627 -5.425,0 -9.1,2.23125 -9.3187,2.3625 l 1.7062,-2.7125 c 0,0 -6.825,-0.65625 -9.2313,6.56247 -0.6125,-1.5312 -1.1812,-3.76247 -1.1812,-3.76247 0,0 -3.5438,3.10627 -1.8813,8.26877 C 7.9765,15.7218 2.15775,13.6655 1.939,13.6218 1.63275,13.578 1.54525,13.7093 1.54525,13.7093 c 0,0 -0.0875,0.1312 0.175,0.35 0.48125,0.3937 9.66875,7.175 11.68125,8.4875 -0.4375,1.575 -0.4375,2.3187 0,3.0625 0.6125,1.0062 0.6562,1.5312 0.5687,2.275 -0.0875,0.7437 -0.8749,7.175 -1.05,7.9625 -0.175,0.7875 -2.0124,3.5875 -1.925,4.4187 0.0876,0.8313 1.2251,4.375 2.2313,4.7688 0.7438,0.2625 2.5813,0.8313 3.8063,0.8313 0.4375,0 0.8312,-0.0876 1.0062,-0.2625 0.7438,-0.6563 0.9625,-0.7875 1.4875,-0.7875 0.0437,0 0.0875,0 0.1313,0 0.2187,0 0.4812,0.0437 0.7875,0.0437 0.7,0 1.6187,-0.1312 2.275,-0.7437 0.9625,-0.9626 2.6249,-2.2751 3.15,-2.8876 0.6562,-0.8312 1.0062,-1.9687 0.8312,-3.1062 -0.1312,-1.05 0.4375,-1.9688 1.0937,-2.8875 0.8313,-1.0938 2.3625,-3.0625 2.3625,-3.0625 3.0188,2.275 4.9,5.7312 4.9,9.5812 0,6.8251 -5.95,12.3376 -13.2999,12.3376 -1.1375,0 -2.2313,-0.1313 -3.325,-0.3938 3.3687,1.1813 6.2125,1.575 8.5312,1.575 4.9437,0 7.5687,-1.7937 7.5687,-1.7937 0,0 -0.9187,1.1812 -2.4062,2.5375 0.0437,0 0.0437,0 0.0437,0 8.1813,-1.1375 12.1625,-7.875 12.1625,-7.875 0,0 -0.3062,2.1875 -0.7,3.675 10.8938,-8.1813 9.0563,-18.4188 9.0125,-18.7688 0.0875,0.1312 1.1813,1.4437 1.75,2.1437 1.75,-18.025 -12.9937,-23.8437 -12.9937,-23.8437 z M 24.6453,40.1343 c -0.175,0.2187 -0.9188,0.875 -1.4438,1.3563 -0.525,0.4812 -1.0938,0.9624 -1.5313,1.3999 -0.1749,0.175 -0.5249,0.2625 -1.0499,0.2625 -0.1751,0 -0.35,0 -0.4813,0 -0.0875,0 -0.175,0 -0.2625,0 -0.0875,0 -0.1312,0 -0.175,0 -0.1312,0 -0.2625,0 -0.3937,0 0.6562,-0.875 2.5812,-2.8875 3.2374,-3.325 0.7876,-0.525 1.1813,-1.05 0.7001,-1.9687 -0.4813,-0.9188 -1.75,-0.7 -1.75,-0.7 0,0 0.7437,-0.3063 1.4,-0.3063 -0.8313,-0.2187 -1.8813,0 -2.3625,0.4813 -0.525,0.4812 -0.4375,2.1875 -0.6563,3.2812 -0.2187,1.1375 -0.9625,1.7063 -2.1,2.7563 -0.6125,0.5687 -1.05,0.7438 -1.4,0.7438 -0.7437,-0.1313 -1.6188,-0.3501 -2.2313,-0.5688 -0.4375,-0.5687 -1.0937,-2.45 -1.2687,-3.2375 0.1312,-0.4375 0.6563,-1.3563 0.9187,-1.8813 0.525,-1.0062 0.8313,-1.575 0.9188,-2.1 0.175,-0.7437 0.7438,-5.3375 0.9625,-7.2625 0.5688,0.7438 1.3563,1.9688 1.1813,2.7563 1.2687,-1.7938 0.35,-3.5438 -0.0875,-4.2438 -0.3938,-0.7 -0.9188,-2.1 -0.4813,-3.5875 0.4375,-1.4875 2.0125,-5.6 2.0125,-5.6 0,0 0.525,0.9188 1.2688,0.7438 0.7437,-0.175 6.7375,-9.18752 6.7375,-9.18752 0,0 1.6187,3.54372 -0.0875,6.12502 -1.75,2.5812 -3.4563,3.0625 -3.4563,3.0625 0,0 2.4062,0.4375 4.6375,-1.1813 0.9187,2.1438 1.7937,4.375 1.8375,4.6813 -0.1313,0.3062 -1.8813,4.5062 -2.0562,4.7687 -0.0876,0.0875 -0.7001,0.2625 -1.1376,0.35 -0.7437,0.2188 -1.1812,0.35 -1.3562,0.4813 -0.3062,0.2625 -1.7063,4.1125 -2.3625,5.9937 -0.7875,0.2188 -1.575,0.6563 -2.1437,1.5313 0.3062,-0.2188 1.2687,-0.35 1.9687,-0.4375 0.6125,-0.0438 2.4938,0.9625 2.975,2.8437 0,0.0438 0,0.0438 0,0.0875 0.0875,0.7 -0.1312,1.3563 -0.4812,1.8813 z m -4.1125,0.525 c 0.3937,-0.5688 0.3499,-1.5313 0.3937,-1.8375 0.0438,-0.3063 0.1313,-0.875 0.4813,-0.9625 0.35,-0.0875 1.1812,0.0437 1.1812,0.6562 0,0.5688 -0.6125,0.7 -1.05,1.0938 -0.3062,0.3062 -0.9187,0.9625 -1.0062,1.05 z M 37.989,32.303 c 0.4375,-2.2312 0.4812,-4.1562 0.35,-5.7312 1.7062,2.275 2.7562,5.0312 3.0625,7.875 0.0437,0.35 0.3937,0.7 0.7437,1.05 0.3063,0.2625 0.6563,0.6125 0.6563,0.8312 0,1.0063 -0.0875,2.0125 -0.2625,3.0188 -0.0438,0.1312 -0.4375,0.35 -0.7438,0.525 -0.4375,0.2187 -0.8312,0.4375 -0.9187,0.7875 -0.9625,3.3687 -3.0188,6.3437 -5.775,8.4438 4.0687,-4.2438 6.0375,-11.2438 2.8875,-16.8001 z m -2.7563,17.1938 c 2.8438,-2.1875 5.0313,-5.25 5.9938,-8.7063 0.0437,-0.1312 0.4375,-0.35 0.7,-0.525 0.4375,-0.2187 0.875,-0.4812 0.9625,-0.8312 0.175,-1.0063 0.2625,-2.0563 0.2625,-3.1063 0,-0.3937 -0.3937,-0.7875 -0.7875,-1.1812 -0.2188,-0.2625 -0.5688,-0.5688 -0.5688,-0.7875 -0.35,-3.1938 -1.6187,-6.2125 -3.5875,-8.7063 -0.875,-5.25 -4.375,-6.8687 -4.4625,-6.9125 0.0875,0.1313 2.3625,3.4125 0.7875,7.2625 -1.6187,3.8938 -5.7749,3.2813 -6.1249,3.325 -0.35,0 -1.7063,1.75 -3.4125,4.9875 -0.2188,-0.0875 -1.1376,-0.3062 -2.1875,-0.1312 0.7874,-2.1875 1.9687,-5.2938 2.1875,-5.5563 0.0875,-0.0875 0.7437,-0.2625 1.1812,-0.3937 0.8312,-0.2188 1.225,-0.35 1.3563,-0.525 0.0875,-0.1313 0.525,-1.1375 0.9625,-2.1875 0.3937,0 1.3999,-0.0875 1.4874,-0.1313 0.0875,-0.0875 0.9188,-2.2312 0.9188,-2.4937 0,-0.2188 -1.7062,-4.4625 -2.3625,-6.0813 0.3063,-0.35 0.6125,-0.7875 0.9188,-1.2687 8.9687,0.9625 15.9687,8.575 15.9687,17.8062 0,7.0875 -4.1563,13.2563 -10.1938,16.1438 z"
       fill="#1b314f"
       id="path1011" />
    <path
       d="m 23.5953,25.8718 c 0.8312,-0.9625 0.3937,-2.7563 -1.1375,-3.0625 0.3937,-0.9188 0.9625,-2.7563 0.9625,-2.7563 0,0 -4.4625,7 -4.8563,7.1313 -0.3937,0.1312 -0.7875,-1.4 -0.7875,-1.4 -0.8312,3.1937 1.4,3.6312 1.6625,2.625 1.225,-0.3063 3.325,-1.6188 4.1563,-2.5375 z"
       fill="#1b314f"
       id="path1013" />
    <path
       d="m 19.7891,27.5782 2.275,-3.8938 c 0,0 1.3125,0.6563 0.6562,1.7063 -0.8312,1.225 -2.9312,2.1875 -2.9312,2.1875 z"
       fill="#ffd923"
       id="path1015" />
    <path
       d="m 47.9201,45.6032 c -0.6563,0.875 -1.4,1.7938 -2.275,2.6688 5.6437,-10.85 0.2625,-20.7813 0.0437,-21.175 0.3938,0.3937 0.7875,0.8312 1.1375,1.225 4.3313,4.8125 4.8563,12.0312 1.0938,17.2812 z"
       fill="#d82122"
       id="path1017" />
    <path
       d="m 53.1701,31.6469 c -1.9688,-5.2937 -4.7688,-9.8 -10.9375,-13.8687 -5.95,-3.9375 -12.3375,-3.6313 -12.6875,-3.5875 -0.0438,0 -0.0875,0 -0.0875,0 0.2187,-0.0875 0.4375,-0.1312 0.6562,-0.175 1.3563,-0.4375 3.1063,-0.7875 4.8563,-1.0063 4.6375,-0.6562 9.3187,0.9188 12.5125,4.2875 0.0437,0.0438 0.0437,0.0438 0.0875,0.0875 3.6312,3.85 5.5125,8.6625 5.6,14.2625 z"
       fill="#d82122"
       id="path1019" />
    <path
       d="m 40.8326,9.99081 c -6.5188,-1.225 -10.7188,-0.6125 -13.7375,0.52499 -0.0875,-0.35 -0.3938,-1.04999 -0.6563,-1.61874 -0.9187,1.09375 -1.8812,2.40624 -2.4937,3.23754 -1.6625,1.1375 -2.3625,2.2312 -2.3625,2.2312 0.9625,-3.2812 3.7625,-5.73124 7.175,-6.34374 0.9625,-0.175 2.0125,-0.2625 3.15,-0.2625 3.0187,0.04375 6.0375,0.7875 8.925,2.23125 z"
       fill="#d82122"
       id="path1021" />
    <path
       d="m 16.7263,18.3908 c -5.1187,-0.175 -3.4125,-6.125 -3.325,-6.475 0,0.0438 0.35,4.6813 3.325,6.475 z"
       fill="#d82122"
       id="path1023" />
    <path
       d="m 21.7576,7.672 c -3.9375,2.3625 -3.15,8.0062 -3.15,8.0062 -3.7625,-5.7312 2.8437,-7.87495 3.15,-8.0062 z"
       fill="#d82122"
       id="path1025" />
    <path
       d="m 15.2827,19.9656 c 0.2625,0.2187 0.525,0.6125 0.2188,1.1812 -0.175,0.3063 -0.4375,0.2625 -0.8313,0.0875 -0.525,-0.2625 -3.675,-2.1 -6.51871,-3.9812 3.23751,1.1375 6.51871,2.3625 7.04371,2.625 0,0 0.0438,0.0437 0.0875,0.0875 z"
       fill="#ffffff"
       id="path1027" />
    <path
       d="m 9.66345,14.7719 c 0,0 1.66795,-10.0499 12.15875,-13.07804 10.4908,-3.02814 16.4605,1.09715 16.4605,1.09715 L 34.9028,5.9947 25.7727,5.86304 23.8414,6.56522 24.9387,4.94143 17.8278,8.67175 15.5453,11.4366 15.5892,8.67175 13.3506,10.9538 Z"
       fill="#d82122"
       id="path1029" />
    <path
       d="m 37.5364,3.22994 c 0,0 -6.1013,-0.48275 -9.3495,0.78995 1.3168,-1.05326 2.2825,-1.53601 2.2825,-1.53601 0,0 -8.4278,-0.17555 -13.4317,6.18794 1.3168,-0.35109 3.3798,-2.06265 3.3798,-2.06265 l 4.5651,-1.66767 -0.5268,1.5799 5.8819,-0.92161 3.6432,0.35109 z"
       fill="#af1c24"
       id="path1031" />
    <path
       d="m 38.7215,7.0917 -6.672,-1.49212 -7.3304,0.52663 0.2195,-1.18492 -6.1013,2.94036 -2.502,1.97488 0.0878,-1.66768 c 0,0 -6.45253,4.95915 -5.1796,10.04995 1.2291,5.0907 6.8914,2.3698 6.8914,2.3698 l 6.1453,-6.8901 18.8746,-3.6425 -5.399,-2.36989 z"
       fill="#ffffff"
       id="path1033" />
    <path
       d="M 47.0614,6.21391 46.1396,3.098 43.7254,0.991472 c 0,0 -3.4677,-0.263317 -4.2578,0.965498 l -0.8779,1.62378 1.9753,2.23819 3.9505,1.2727 -0.2634,-1.2727 z"
       fill="#ffffff"
       id="path1035" />
    <path
       d="m 29.5035,10.0321 c 0,0 0.3072,-0.78991 3.5115,-1.71151 -9.7884,-0.61441 -15.0558,9.83051 -15.7142,10.40101 -0.6584,0.5266 -2.7215,1.8432 -1.3168,-0.3511 -1.3169,0.7022 -3.336,0.2633 -1.3608,-1.3166 -4.126,-1.141 1.3608,-8.07502 1.3608,-8.07502 l -3.0288,1.71152 -3.51151,5.0469 -0.87789,4.9592 1.18515,3.1159 2.85315,1.141 4.2139,-1.141 2.6336,-2.5015 1.0096,-2.8087 2.502,-1.4044 5.4429,-3.1598 4.3895,-1.3605 6.9353,-0.4388 -0.3512,-1.0972 c 0,0 1.0974,-0.5705 2.0192,-1.1849 -6.9353,-1.49213 -11.8954,0.1755 -11.8954,0.1755 z"
       fill="#94a6c3"
       id="path1037" />
    <path
       d="M 46.9297,5.64349 C 46.1835,4.54634 43.1108,4.3708 41.794,3.66862 40.4772,3.01033 40.7405,2.17649 41.0917,1.16711 l -1.668,0.87773 -0.9218,1.14103 1.7558,2.32597 4.4333,1.66767 -0.6584,-1.71156 c 0.0878,0.04389 3.6433,1.2727 2.8971,0.17554 z"
       fill="#94a6c3"
       id="path1039" />
    <path
       d="m 42.9353,3.44919 c 0,0 -0.9218,-0.43886 -1.0535,-0.96549 0,0.74606 -0.4828,0.78995 1.0535,0.96549 z"
       fill="#94a6c3"
       id="path1041" />
    <path
       d="m 19.3199,13.9379 c 0.2195,-0.4827 1.8875,-2.7648 2.897,-3.1598 -2.4581,0.3072 -3.2921,1.1411 -3.2921,1.1411 0,0 -0.3072,1.8432 -1.668,3.3353 0,0 1.8436,-0.8338 2.0631,-1.3166 z"
       fill="#94a6c3"
       id="path1043" />
    <path
       d="m 29.5035,11.9193 3.7749,-0.9655 -2.2386,-0.2633 c 0,0 -1.1412,0.4388 -1.5363,1.2288 z"
       fill="#1b314f"
       id="path1045" />
    <path
       d="m 14.5795,20.5648 c -0.5707,-0.0877 -1.1852,-0.8777 -1.1852,-0.8777 0,0 -0.1317,1.4044 1.1852,0.8777 z"
       fill="#1b314f"
       id="path1047" />
    <path
       d="m 15.1062,22.8907 c 0,0 0.834,-0.3949 1.2729,-1.536 -0.6584,0.5267 -2.9848,0.8778 -2.9848,0.8778 0.5267,0.4388 1.7119,0.6582 1.7119,0.6582 z"
       fill="#1b314f"
       id="path1049" />
    <path
       d="M 48.9488,7.88169 48.2904,6.43345 C 47.9392,5.68739 47.632,5.11687 47.2369,4.63412 L 47.9392,4.67801 47.5003,3.66863 C 47.4564,3.58086 46.5346,1.5621 43.6376,0.596604 40.9161,-0.281117 39.292,1.07935 38.6336,2.26428 36.5706,0.947693 30.8204,-1.68547 21.7342,1.16712 12.7797,3.97583 9.70711,10.3832 8.65364,15.1229 8.43417,14.9035 8.1708,14.5963 8.03912,14.3329 c -0.21948,0.79 0.21947,1.8433 0.35115,2.1944 -0.13168,0.9216 -0.21947,1.7115 -0.21947,2.3698 -0.30726,0.0878 -1.27294,0.4827 -1.66799,1.4044 0.43894,-0.1756 1.53631,-0.0439 1.62409,0 -0.04389,0.0438 -0.65841,0.4827 -0.7462,1.0093 0.35115,-0.1316 0.7901,0.0878 0.7901,0.0878 0.04389,0.3072 0.08779,0.6144 0.17558,0.8777 0.61452,2.0188 2.19472,3.1159 4.47722,3.1159 0.0878,0 0.2195,0 0.3073,0 6.3208,-0.2633 7.7693,-5.3102 8.0766,-6.8462 0.6145,-0.2194 1.8435,-0.7022 3.5993,-1.6238 0.8779,-0.2194 1.7558,-0.4388 2.502,-0.7022 0.1317,-0.351 0.2634,-0.6582 0.3512,-1.0093 0.1316,-0.0878 0.2194,-0.1317 0.3511,-0.2195 4.17,-2.7648 12.6416,-2.1065 12.7294,-2.1065 l 2.107,0.1756 -2.2826,-1.8872 c 0.9657,0 2.107,0.0439 2.9849,0.1756 l 2.5459,0.395 -2.0631,-1.5799 C 42.6719,9.15439 41.0039,8.36444 39.6432,7.79392 L 41.5745,7.57449 39.0286,6.609 C 37.8874,6.17014 36.7461,5.81905 35.6488,5.59962 36.5705,5.11687 37.624,4.67801 38.3263,4.41469 c 0.0439,0.13166 0.1317,0.26332 0.2195,0.39498 1.2729,2.06264 5.7502,2.80871 6.2769,2.89648 L 46.359,7.96947 45.4811,6.74066 c 1.0535,0.26331 2.0192,0.6144 2.0192,0.6144 z M 35.956,7.00397 33.9808,7.44283 36.5705,8.14501 c 0.0439,0 2.2387,0.61441 4.3895,1.71156 -1.1852,0 -2.2386,0.04388 -2.2825,0.04388 l -1.7558,0.08777 1.8875,1.53598 C 36.0877,11.4804 31.2154,11.7437 27.9233,13.543 28.0111,10.9098 26.6065,8.97885 26.6065,8.97885 L 17.7398,20.3453 c 0,0 1.0096,-0.351 1.7997,-0.8338 -0.6584,1.7554 -2.2825,4.3447 -6.4086,4.5203 -0.2195,0 -0.439,0 -0.6145,0 -3.02877,-0.2633 -4.03834,-5.003 -1.0974,-4.5203 -0.5267,-0.6583 -0.7462,-1.3166 -0.7462,-1.3166 0,0 1.0096,-0.3072 1.4924,-0.7899 -1.8875,0.0877 -2.28252,-0.4389 -0.4828,-3.6865 0.9656,-1.4921 2.2386,-2.8964 3.731,-4.03748 -0.1317,0.65828 -0.1317,1.05328 -0.1317,1.05328 l -0.1756,2.5015 1.4047,-2.1065 c 0.0439,-0.0439 2.1947,-3.24761 7.1109,-4.95916 L 22.5682,7.5306 24.5873,6.9162 c 0,0.04389 5.1796,-1.44824 11.3687,0.08777 z M 33.6296,5.20464 C 30.3814,4.76578 27.5722,5.0291 25.9042,5.3363 L 26.7821,4.01972 25.158,4.41469 c -3.9505,0.92161 -6.6281,2.8526 -8.1205,4.25695 0,-0.08777 0.0439,-0.13166 0.0439,-0.21943 L 17.4764,6.9162 16.1157,7.70615 C 13.8332,9.06662 12.0335,10.9537 10.6728,12.9725 12.1213,9.02273 15.2817,4.59024 22.0415,2.43982 30.162,-0.149459 35.4732,2.04484 37.5362,3.22977 36.4389,3.66863 34.7709,4.41469 33.6296,5.20464 Z M 43.7693,5.0291 41.9696,4.85355 43.023,5.90682 C 41.5745,5.46796 40.0821,4.85355 39.5993,4.0636 39.5554,4.01972 39.5554,3.97583 39.5115,3.88806 L 40.2577,3.62474 39.5554,3.05422 c 0.3072,-0.6144 1.2729,-1.93098 3.5554,-1.18492 1.0535,0.35109 1.7997,0.87772 2.2825,1.31658 L 43.1547,2.96645 44.9983,4.32692 C 45.5689,4.76578 45.964,5.11687 46.2712,5.55573 45.4811,5.3363 44.5594,5.11687 43.7693,5.0291 Z"
       fill="#1b314f"
       id="path1051" />
    <path
       d="m 15.0184,14.333 c -0.5267,-0.395 -0.1756,-1.7555 -0.1756,-1.7555 0,0 -1.668,1.5799 0.1756,1.7555 z"
       fill="#1b314f"
       id="path1053" />
    <path
       d="m 22.9192,19.2921 c 0,0 1.7119,-0.4827 3.4677,-3.072 1.7558,-2.5893 0.0878,-6.1441 0.0878,-6.1441 0,0 -3.2921,4.9592 -5.3112,7.5485 0,0 0.0877,0.2633 0.0438,0.8777 -0.0877,0.6144 0.5707,1.141 0.5707,1.141 z m 3.0727,-6.4951 c 0,0 0.4389,1.7554 -0.5707,2.9404 -1.229,1.4482 -2.3264,1.4043 -2.3264,1.4043 z"
       fill="#ffffff"
       id="path1055" />
    <path
       d="M 9.92657,18.5021 C 9.79489,18.1071 9.66321,17.756 9.53152,17.361 8.34637,16.9222 6.5028,16.2639 4.70312,15.6056 6.85396,17.0099 9.18037,18.3704 10.0583,18.8532 10.0144,18.7215 9.97047,18.6337 9.92657,18.5021 Z"
       fill="#ffffff"
       id="path1057" />
  </g>
  <defs
     id="defs1064">
    <clipPath
       id="clip0">
      <rect
         width="56"
         height="56"
         fill="#ffffff"
         id="rect1061"
         x="0"
         y="0" />
    </clipPath>
  </defs>
</svg>
