<svg xmlns="http://www.w3.org/2000/svg" width="32" height="32" viewBox="0 0 32 32">
  <defs>
    <linearGradient id="cornichon-corn-a" x1="50%" x2="50%" y1="-29.386%" y2="100%">
      <stop offset="0%" stop-color="#08021E"/>
      <stop offset="100%" stop-color="#071E40"/>
    </linearGradient>
  </defs>
  <g fill="none" fill-rule="evenodd">
    <path fill="url(#cornichon-corn-a)" fill-rule="nonzero" d="M32,16 C32,13.90592 31.58336,11.81184 30.78208,9.87712 C29.98048,7.9424 28.79424,6.16704 27.3136,4.68608 C25.83296,3.20544 24.0576,2.0192 22.12288,1.21792 C20.18816,0.41632 18.09408,0 16,0 C13.90592,0 11.81152,0.41632 9.8768,1.21792 C7.9424,2.0192 6.16704,3.20544 4.68608,4.68608 C3.20544,6.16704 2.0192,7.9424 1.21792,9.87712 C0.41632,11.81184 0,13.90592 0,16 C0,18.09408 0.41632,20.18816 1.21792,22.12288 C2.0192,24.0576 3.20544,25.83296 4.68608,27.3136 C6.16704,28.79424 7.9424,29.98048 9.8768,30.78208 C11.81152,31.58336 13.90592,32 16,32 C18.09408,32 20.18816,31.58336 22.12288,30.78208 C24.0576,29.98048 25.83296,28.79424 27.3136,27.3136 C28.79424,25.83296 29.98048,24.0576 30.78208,22.12288 C31.58336,20.18816 32,18.09408 32,16 Z"/>
    <path fill="#010F1D" d="M23.679507,8.0469403 C23.6779228,7.92369277 23.6712694,7.80012842 23.6547941,7.67751455 C23.6383189,7.55521752 23.611705,7.43387099 23.5727347,7.31664327 C23.5340813,7.19941554 23.4830714,7.0859898 23.4200218,6.97985119 C23.3566555,6.87371257 23.2815664,6.77454426 23.1963387,6.68519772 C23.111111,6.59585119 23.0160615,6.51664327 22.9149921,6.44503931 C22.8139228,6.37375218 22.7068337,6.31038584 22.6133684,6.23086109 C22.519903,6.15133634 22.4400615,6.05597 22.3564179,5.96472247 C22.2448931,5.84305911 22.1267149,5.7289997 22.0085367,5.61462346 C21.8605763,5.47173238 21.7126159,5.32884129 21.5630714,5.18721752 C21.3834278,5.01739574 21.2018832,4.84979178 21.0155862,4.6869403 C20.829606,4.52440564 20.6388733,4.36630663 20.4361011,4.2249997 C20.2336456,4.08369277 20.0188337,3.95886109 19.7970516,3.84987099 C19.5752694,3.74056406 19.3462001,3.64678188 19.1114278,3.56979178 C18.8766555,3.49311851 18.6361803,3.43292049 18.3928535,3.39014822 C18.1495268,3.34705911 17.9033486,3.32076208 17.6562199,3.31220762 C17.409408,3.30365317 17.1619624,3.31220762 16.9161011,3.33787099 C16.6702397,3.36353436 16.4262793,3.4059898 16.1864377,3.46523733 C15.9465961,3.52448485 15.7108733,3.60020762 15.4811704,3.69145515 C15.2514674,3.78238584 15.0277842,3.88915812 14.8126555,4.01050465 C14.5975268,4.13185119 14.3909525,4.26808881 14.1938832,4.41763337 C13.9971308,4.56717792 13.8105169,4.72971257 13.6356258,4.90397 C13.4604179,5.07854426 13.2975664,5.26515812 13.1480218,5.46159376 C12.9984773,5.65834624 12.8622397,5.86523733 12.7405763,6.08036604 C12.6189129,6.29549475 12.5121407,6.51886109 12.4208931,6.74856406 C12.3299624,6.97826703 12.2548733,7.21430663 12.1965763,7.45414822 C12.1382793,7.69430663 12.0964575,7.93826703 12.0717446,8.18444525 C12.0467149,8.43030663 12.0387941,8.67775218 12.0502001,8.92456406 C12.061606,9.17137594 12.0920218,9.41755416 12.1335268,9.66088089 C12.1680615,9.86365317 12.2098832,10.0645245 12.2463189,10.2676136 C12.2751506,10.4298314 12.3004971,10.5933165 12.3046159,10.7577522 C12.3087347,10.9221878 12.291309,11.087574 12.2564575,11.2485245 C12.2219228,11.4094749 12.1699624,11.5659898 12.1319426,11.7263066 C12.0942397,11.8863066 12.0707941,12.0501086 12.0593882,12.2145443 C12.0508337,12.3377918 12.0492496,12.4613561 12.0565367,12.5849205 C12.0638238,12.708168 12.0799822,12.8307819 12.1043783,12.9521284 C12.1284575,13.0731581 12.1607743,13.1926037 12.1997446,13.3098314 C12.2390317,13.4270591 12.2846555,13.5417522 12.3362991,13.6545443 C12.3879426,13.7670195 12.4459228,13.8772769 12.5042199,13.9853165 C12.5530119,14.0746631 12.6021209,14.1627423 12.6550317,14.2527225 C12.6971704,14.3249601 12.7415268,14.398465 12.7573684,14.4779898 C12.77321,14.5571977 12.7602199,14.6421086 12.7446951,14.724168 C12.7250516,14.8268215 12.7009723,14.9247225 12.671507,15.0223066 C12.635705,15.1398512 12.5919822,15.2567621 12.539705,15.3686037 C12.3502397,15.4180294 12.1674278,15.4953363 11.9912694,15.6002076 C11.638002,15.8099502 11.3778832,16.1004849 11.2105961,16.4714948 C11.1269525,16.6574749 11.0629525,16.8466235 11.0185961,17.0383066 C10.8025169,17.2870195 10.5664773,17.5189403 10.3164971,17.7334353 C10.0665169,17.9479304 9.8025961,18.1449997 9.535507,18.3389007 C9.26873472,18.5328017 8.99911096,18.7235344 8.75388323,18.9430987 C8.50865551,19.1623462 8.28814066,19.4104254 8.09012086,19.6746631 C7.89241789,19.9389007 7.7175268,20.2192967 7.57020007,20.5139502 C7.4225565,20.8086037 7.30247729,21.1168809 7.21122977,21.4337126 C7.12029908,21.7505443 7.05820007,22.0756136 7.02620007,22.4035344 C6.99388323,22.731772 6.99134858,23.0625443 7.01922977,23.3910987 C7.04711096,23.7193363 7.10540799,24.0453561 7.19317036,24.3628215 C7.28093274,24.6806037 7.39816046,24.9901482 7.54263571,25.2863858 C7.68742779,25.5826235 7.85915056,25.8655542 8.05400205,26.1310591 C8.24917036,26.3968809 8.46715056,26.6452769 8.70414066,26.8746631 C8.94081393,27.1040492 9.19586343,27.3141086 9.46580403,27.5032571 C9.73574462,27.6924056 10.0202595,27.8609601 10.3168139,28.0044849 C10.6133684,28.1483264 10.9219624,28.2671383 11.239111,28.3574353 C11.5562595,28.4477324 11.8816456,28.5091977 12.2092496,28.5415146 C12.5371704,28.5738314 12.867309,28.5769997 13.1964971,28.5532373 C13.526002,28.5291581 13.8545565,28.4781482 14.1694872,28.3840492 C14.4844179,28.2896334 14.7860416,28.1521284 15.0810119,28.0038512 C15.4742001,27.8061482 15.8559822,27.5894353 16.2263585,27.3543462 C16.6895664,27.0600096 17.1356654,26.7362076 17.5659228,26.3943462 C18.0823585,25.9837324 18.5759822,25.5465047 19.0512298,25.0899502 C19.5264773,24.6330789 19.9833486,24.1568809 20.4170912,23.6607225 C20.8511506,23.1645641 21.2623981,22.6487621 21.6536852,22.118069 C22.0446555,21.5880096 22.4159822,21.0430591 22.7562595,20.4781482 C23.0968535,19.9135542 23.4063981,19.3293165 23.6608139,18.7216334 C23.8439426,18.6063066 24.0048931,18.4573957 24.1430317,18.2752175 C24.4199426,17.9099106 24.5599822,17.4983462 24.5631506,17.0411581 C24.5647347,16.8120888 24.5295664,16.5953759 24.4573288,16.3903858 C24.6623189,15.6863858 24.7830317,14.9573561 24.839111,14.2226235 C24.8844179,13.6349007 24.8882199,13.0436928 24.8128139,12.461673 C24.7564179,12.0250789 24.6553486,11.593871 24.5400218,11.1689997 C24.7003387,10.9114155 24.8204179,10.6215146 24.86921,10.3208413 C24.918002,10.0198512 24.8951902,9.70840564 24.8140813,9.41280168 C24.7332892,9.11719772 24.5938832,8.83806901 24.3987149,8.60361356 C24.2032298,8.36947495 23.9519822,8.18032644 23.679507,8.0469403 Z"/>
    <path fill="#1878E0" d="M14.058783,27.0903621 C15.769183,26.3370821 17.322783,25.0298821 18.496543,23.8529221 C19.675103,22.6718021 20.470623,21.6218821 21.062943,20.7598021 C21.655263,19.8977221 22.044383,19.2238021 22.276383,18.7479621 C22.508063,18.2724421 22.582303,17.9950021 22.696543,17.8356421 C22.810783,17.6762821 22.965023,17.6350021 23.081183,17.5466821 C23.197343,17.4583621 23.275423,17.3233221 23.314463,17.1719621 C23.353503,17.0209221 23.353503,16.8538821 23.307743,16.7246021 C23.261983,16.5953221 23.170143,16.5034821 23.174623,16.3706821 C23.179103,16.2375621 23.279903,16.0631621 23.401823,15.4996421 C23.523423,14.9364421 23.666463,13.9838021 23.656863,13.2058821 C23.647583,12.4279621 23.485983,11.8244421 23.382303,11.4375621 C23.278623,11.0506821 23.232863,10.8804421 23.313503,10.6919621 C23.393823,10.5038021 23.600543,10.2970821 23.659743,10.0295621 C23.718943,9.76204208 23.630943,9.43340208 23.447903,9.23212208 C23.264863,9.03052208 22.986783,8.95596208 22.805023,8.89388208 C22.623263,8.83212208 22.537823,8.78284208 22.494943,8.63820208 C22.452383,8.49356208 22.452383,8.25356208 22.452383,8.02092208 C22.452383,7.78828208 22.452383,7.56268208 22.344543,7.42092208 C22.236383,7.27948208 22.020703,7.22156208 21.835743,7.05452208 C21.652383,6.88876208 21.499743,6.61548208 20.120863,5.38188208 C19.491423,4.81868208 18.647903,4.46124208 17.789983,4.38828208 C16.931423,4.31532208 16.058463,4.52716208 15.320863,4.96492208 C14.582623,5.40300208 13.980063,6.06668208 13.626143,6.85228208 C13.272543,7.63756208 13.167903,8.54476208 13.342303,9.37196208 C13.620063,10.6900421 13.515423,11.0810821 13.416223,11.4516421 C13.317023,11.8222021 13.223263,12.1716421 13.279903,12.5262021 C13.336863,12.8807621 13.544223,13.2398021 13.711583,13.5294021 C13.878623,13.8190021 14.005663,14.0388421 14.005663,14.3847621 C14.005983,14.7306821 13.879583,15.2026821 13.737823,15.5748421 C13.596063,15.9470021 13.438943,16.2190021 13.234143,16.3550021 C13.029343,16.4910021 12.776863,16.4910021 12.592543,16.5914821 C12.408223,16.6919621 12.292383,16.8929221 12.234143,17.0692421 C12.176223,17.2455621 12.176223,17.3966021 12.075103,17.5735621 C11.973983,17.7502021 11.771743,17.9524421 11.499743,18.2244421 C11.228063,18.4964421 10.886303,18.8378821 9.89750304,19.5194821 C9.26518304,19.9758021 8.76374304,20.6129221 8.46934304,21.3348421 C8.17526304,22.0567621 8.08822304,22.8634821 8.22166304,23.6318021 C8.35510304,24.4001221 8.70934304,25.1300421 9.26678304,25.7476421 C9.82454304,26.3652421 10.585823,26.8708421 11.372063,27.1242821 C12.158623,27.3780421 12.970143,27.3793221 13.605023,27.2369221 C13.757663,27.2026821 13.900063,27.1601221 14.058783,27.0903621 Z"/>
    <path fill="#0957A8" d="M15.380703,4.93004208 C15.742943,4.72300208 16.137183,4.57164208 16.563743,4.47628208 C17.415903,4.28588208 18.245023,4.36268208 19.051103,4.70732208 C19.453663,4.87916208 19.810463,5.10412208 20.120863,5.38188208 C21.499743,6.61548208 21.652383,6.88876208 21.835743,7.05452208 C22.020703,7.22156208 22.236383,7.27948208 22.344543,7.42092208 C22.452383,7.56268208 22.452383,7.78828208 22.452383,8.02092208 C22.452383,8.25356208 22.452383,8.49356208 22.494943,8.63820208 C22.537823,8.78284208 22.623263,8.83212208 22.805023,8.89388208 C22.986783,8.95596208 23.264863,9.03052208 23.447903,9.23212208 C23.630943,9.43340208 23.718943,9.76204208 23.659743,10.0295621 C23.600543,10.2970821 23.393823,10.5038021 23.313503,10.6919621 C23.232863,10.8804421 23.278623,11.0506821 23.382303,11.4375621 C23.485983,11.8244421 23.647583,12.4279621 23.656863,13.2058821 C23.666463,13.9838021 23.523423,14.9364421 23.401823,15.4996421 C23.279903,16.0631621 23.179103,16.2375621 23.174623,16.3706821 C23.170143,16.5034821 23.261983,16.5953221 23.307743,16.7246021 C23.353503,16.8538821 23.353503,17.0209221 23.314463,17.1719621 C23.275423,17.3233221 23.197343,17.4583621 23.081183,17.5466821 C22.965023,17.6350021 22.810783,17.6762821 22.696543,17.8356421 C22.582303,17.9950021 22.508063,18.2724421 22.276383,18.7479621 C22.044383,19.2238021 21.655263,19.8977221 21.062943,20.7598021 C20.470623,21.6218821 19.675103,22.6718021 18.496543,23.8529221 C17.322783,25.0298821 15.769183,26.3370821 14.058783,27.0903621 C13.900063,27.1601221 13.757663,27.2026821 13.605023,27.2369221 C12.970143,27.3793221 12.158623,27.3780421 11.372063,27.1242821 C10.585823,26.8708421 9.82454304,26.3652421 9.26678304,25.7476421 C8.70934304,25.1300421 8.35510304,24.4001221 8.22166304,23.6318021 C8.19734304,23.4919621 8.18038304,23.3505221 8.17078304,23.2087621 C8.89110304,24.8631621 9.85110304,25.1063621 10.758943,25.1130821 C11.666783,25.1198021 12.522463,24.8906821 13.412383,24.3767621 C14.301983,23.8628421 15.225823,23.0647621 16.127903,22.2254021 C17.029663,21.3863621 17.909983,20.5060421 18.561183,19.7006021 C19.212383,18.8948421 19.634463,18.1636421 20.027423,17.7492421 C20.420383,17.3351621 20.784543,17.2375621 21.005343,17.0439621 C21.226143,16.8500421 21.303903,16.5604421 21.270623,16.2906821 C21.237343,16.0209221 21.093023,15.7710021 21.021023,15.4404421 C20.949023,15.1098821 20.949023,14.6983621 21.196703,14.2446021 C21.444703,13.7908421 21.940383,13.2951621 22.229663,12.6353221 C22.518943,11.9758021 22.601823,11.1524421 22.583583,10.5182021 C22.565343,9.88428208 22.446303,9.43980208 22.192863,9.02380208 C21.939743,8.60780208 21.552223,8.22060208 21.165663,8.02668208 C20.779103,7.83308208 20.393183,7.83308208 19.938463,7.76300208 C19.483743,7.69260208 18.959583,7.55244208 18.649503,7.30220208 C18.339423,7.05164208 18.242783,6.69164208 18.237343,6.34508208 C18.231903,5.99820208 18.317663,5.66508208 18.216863,5.41580208 C18.116063,5.16620208 17.829023,5.00044208 17.436063,4.83020208 C17.043103,4.65996208 16.543903,4.48524208 15.380703,4.93004208 Z"/>
    <path fill="#2CA7EE" d="M11.957343,18.9524333 C11.808223,18.9518021 11.659743,18.9860421 11.511583,19.0542021 C11.214943,19.1908421 11.022623,19.4164421 10.934623,19.7306821 C10.890463,19.8878021 10.880223,20.0401221 10.904223,20.1870021 C10.917023,20.2650821 10.963423,20.3412421 11.029023,20.3889221 C11.094943,20.4369221 11.180383,20.4564421 11.260063,20.4433221 C11.340063,20.4305221 11.414943,20.3847621 11.461983,20.3185221 C11.509343,20.2522821 11.529183,20.1655621 11.516383,20.0874821 C11.506463,20.0260421 11.510623,19.9626821 11.529183,19.8970821 C11.565983,19.7662021 11.645983,19.6721221 11.769823,19.6151621 C11.831583,19.5866821 11.893343,19.5726021 11.955423,19.5726021 C12.034783,19.5729221 12.117343,19.5396421 12.175263,19.4823621 C12.233183,19.4254021 12.266463,19.3444421 12.266783,19.2634821 C12.266783,19.1825221 12.234143,19.1012421 12.176543,19.0439621 C12.118943,18.9863621 12.036383,18.9527621 11.957343,18.9524333 Z"/>
    <path fill="#010F1D" d="M17.261983,11.4740421 C17.261983,11.0878021 17.101983,10.7012421 16.828703,10.4282821 C16.555423,10.1550021 16.169183,9.99500208 15.782943,9.99500208 C15.396703,9.99500208 15.010463,10.1550021 14.737183,10.4282821 C14.464223,10.7012421 14.304223,11.0878021 14.304223,11.4740421 C14.304223,11.8602821 14.464223,12.2465221 14.737183,12.5198021 C15.010463,12.7927621 15.396703,12.9527621 15.782943,12.9527621 C16.169183,12.9527621 16.555423,12.7927621 16.828703,12.5198021 C17.101983,12.2465221 17.261983,11.8602821 17.261983,11.4740421 Z"/>
    <path fill="#178CCF" d="M19.956063,20.2814021 C20.100063,20.2433221 20.234783,20.1719621 20.360543,20.0676421 C20.611423,19.8590021 20.738783,19.5911621 20.742623,19.2647621 C20.744543,19.1015621 20.715103,18.9521221 20.653663,18.8161221 C20.621343,18.7441221 20.556703,18.6826821 20.480863,18.6535621 C20.405023,18.6244421 20.317343,18.6273221 20.243423,18.6606021 C20.169823,18.6938821 20.109343,18.7575621 20.080863,18.8337221 C20.052383,18.9098821 20.055583,18.9988421 20.088223,19.0708421 C20.113503,19.1274821 20.125983,19.1898821 20.125343,19.2580421 C20.123743,19.3940421 20.070623,19.5057221 19.965983,19.5927621 C19.913503,19.6362821 19.857183,19.6657221 19.797343,19.6817221 C19.720863,19.7018821 19.649823,19.7556421 19.608543,19.8257221 C19.567263,19.8958021 19.556063,19.9825221 19.576863,20.0609221 C19.597663,20.1393221 19.650143,20.2090821 19.720863,20.2497221 C19.791263,20.2903621 19.879583,20.3015621 19.956063,20.2814021 Z"/>
    <path fill="#2CA7EE" d="M15.399263,19.9889133 C15.250463,19.9882821 15.101663,20.0225221 14.953503,20.0906821 C14.656863,20.2273221 14.464543,20.4529221 14.376543,20.7671621 C14.332383,20.9242821 14.322143,21.0766021 14.346143,21.2234821 C14.358943,21.3015621 14.405343,21.3777221 14.471263,21.4254021 C14.536863,21.4734021 14.622303,21.4929221 14.702303,21.4798021 C14.782303,21.4670021 14.856863,21.4212421 14.903903,21.3550021 C14.951263,21.2887621 14.971103,21.2020421 14.958623,21.1239621 C14.948383,21.0625221 14.952863,20.9991621 14.971103,20.9335621 C15.007903,20.8026821 15.087903,20.7086021 15.211743,20.6516421 C15.273503,20.6231621 15.335263,20.6090821 15.397663,20.6090821 C15.476703,20.6094021 15.559263,20.5761221 15.617183,20.5188421 C15.675103,20.4618821 15.708383,20.3809221 15.708703,20.2999621 C15.708703,20.2190021 15.676063,20.1377221 15.618463,20.0804421 C15.560863,20.0228421 15.478623,19.9892421 15.399263,19.9889133 Z"/>
    <path fill="#178CCF" d="M17.572063,22.5937221 C17.572063,22.5127621 17.538463,22.4318021 17.481183,22.3745221 C17.423903,22.3172421 17.342943,22.2836421 17.261983,22.2836421 C17.180703,22.2836421 17.099743,22.3172421 17.042463,22.3745221 C16.985183,22.4318021 16.951583,22.5127621 16.951583,22.5937221 C16.951583,22.6750021 16.985183,22.7559621 17.042463,22.8132421 C17.099743,22.8705221 17.180703,22.9041221 17.261983,22.9041221 C17.342943,22.9041221 17.423903,22.8705221 17.481183,22.8132421 C17.538463,22.7559621 17.572063,22.6750021 17.572063,22.5937221 Z"/>
    <path fill="#2CA7EE" d="M14.875423,8.23884208 C14.875423,8.15788208 14.841823,8.07660208 14.784543,8.01932208 C14.727263,7.96204208 14.646303,7.92876208 14.565343,7.92876208 C14.484383,7.92876208 14.403423,7.96204208 14.346143,8.01932208 C14.288863,8.07660208 14.255263,8.15788208 14.255263,8.23884208 C14.255263,8.31980208 14.288863,8.40076208 14.346143,8.45804208 C14.403423,8.51532208 14.484383,8.54892208 14.565343,8.54892208 C14.646303,8.54892208 14.727263,8.51532208 14.784543,8.45804208 C14.841823,8.40076208 14.875423,8.31980208 14.875423,8.23884208 Z"/>
    <path fill="#010F1D" d="M21.876383,10.2913221 C21.876383,9.82860208 21.684703,9.36588208 21.357343,9.03884208 C21.030303,8.71148208 20.567583,8.51980208 20.104863,8.51980208 C19.642143,8.51980208 19.179423,8.71148208 18.852063,9.03884208 C18.525023,9.36588208 18.333343,9.82860208 18.333343,10.2913221 C18.333343,10.7540421 18.525023,11.2167621 18.852063,11.5441221 C19.179423,11.8711621 19.642143,12.0628421 20.104863,12.0628421 C20.567583,12.0628421 21.030303,11.8711621 21.357343,11.5441221 C21.684703,11.2167621 21.876383,10.7540421 21.876383,10.2913221 Z"/>
    <path fill="#FFF" d="M21.255903 10.2913221C21.255903 9.99052208 21.131423 9.69004208 20.918943 9.47724208 20.706143 9.26476208 20.405343 9.14028208 20.104863 9.14028208 19.804063 9.14028208 19.503263 9.26476208 19.290783 9.47724208 19.078303 9.69004208 18.953503 9.99052208 18.953503 10.2913221 18.953503 10.5921221 19.078303 10.8926021 19.290783 11.1054021 19.503263 11.3178821 19.804063 11.4426821 20.104863 11.4426821 20.405343 11.4426821 20.706143 11.3178821 20.918943 11.1054021 21.131423 10.8926021 21.255903 10.5921221 21.255903 10.2913221zM16.741983 11.4740421C16.741983 11.2234821 16.638303 10.9729221 16.461023 10.7956421 16.284063 10.6186821 16.033503 10.5150021 15.782943 10.5150021 15.532383 10.5150021 15.282143 10.6186821 15.104863 10.7956421 14.927583 10.9729221 14.823903 11.2234821 14.823903 11.4740421 14.823903 11.7246021 14.927583 11.9748421 15.104863 12.1521221 15.282143 12.3290821 15.532383 12.4330821 15.782943 12.4330821 16.033503 12.4330821 16.284063 12.3290821 16.461023 12.1521221 16.638303 11.9748421 16.741983 11.7246021 16.741983 11.4740421z"/>
    <path fill="#000" d="M20.954879 10.0158021C20.954879 9.89473008 20.904463 9.77329008 20.818719 9.68754608 20.732975 9.60180208 20.611903 9.55138608 20.490463 9.55138608 20.369023 9.55138608 20.247951 9.60180208 20.162207 9.68754608 20.076463 9.77329008 20.026047 9.89473008 20.026047 10.0158021 20.026047 10.1372421 20.076463 10.2586821 20.162207 10.3444261 20.247951 10.4301701 20.369023 10.4802181 20.490463 10.4802181 20.611903 10.4802181 20.732975 10.4301701 20.818719 10.3444261 20.904463 10.2586821 20.954879 10.1372421 20.954879 10.0158021zM15.906495 11.3712981C15.906495 11.2568501 15.859023 11.1420341 15.777695 11.0607061 15.696735 10.9793781 15.581919 10.9319061 15.467103 10.9319061 15.352287 10.9319061 15.237471 10.9793781 15.156143 11.0607061 15.075183 11.1420341 15.027711 11.2568501 15.027711 11.3712981 15.027711 11.4861141 15.075183 11.6009301 15.156143 11.6822581 15.237471 11.7635861 15.352287 11.8110581 15.467103 11.8110581 15.581919 11.8110581 15.696735 11.7635861 15.777695 11.6822581 15.859023 11.6009301 15.906495 11.4861141 15.906495 11.3712981z"/>
    <path fill="#2CA7EE" d="M9.69142304,21.8522821 C9.61654304,21.9812421 9.57174304,22.1268421 9.55670304,22.2894021 C9.52694304,22.6145221 9.62582304,22.8938821 9.85398304,23.1271621 C9.96822304,23.2439621 10.094943,23.3287621 10.234143,23.3815621 C10.308063,23.4097221 10.397023,23.4074821 10.471583,23.3745221 C10.545823,23.3412421 10.605343,23.2772421 10.634143,23.2017221 C10.662943,23.1258821 10.660703,23.0382021 10.626783,22.9642821 C10.593183,22.8903621 10.527903,22.8295621 10.453983,22.8017221 C10.395743,22.7796421 10.342943,22.7441221 10.295583,22.6954821 C10.200543,22.5982021 10.158943,22.4817221 10.171423,22.3463621 C10.177823,22.2785221 10.196383,22.2177221 10.227743,22.1639621 C10.267423,22.0954821 10.279903,22.0074821 10.259423,21.9287621 C10.238943,21.8500421 10.185503,21.7806021 10.115423,21.7399621 C10.045343,21.6993221 9.95862304,21.6871621 9.88022304,21.7082821 C9.80150304,21.7294021 9.73110304,21.7838021 9.69142304,21.8522821 Z"/>
    <path fill="#178CCF" d="M12.346783 26.0590021C12.452063 26.1646021 12.581023 26.2458821 12.734303 26.3022021 13.040543 26.4151621 13.335903 26.3918021 13.620703 26.2318021 13.762783 26.1518021 13.877663 26.0513221 13.964703 25.9306821 14.010783 25.8663621 14.031903 25.7799621 14.019103 25.6993221 14.006303 25.6190021 13.959903 25.5450821 13.894303 25.4977221 13.828383 25.4503621 13.743263 25.4298821 13.663263 25.4430021 13.582943 25.4564421 13.507423 25.5038021 13.461343 25.5681221 13.424863 25.6183621 13.377183 25.6602821 13.317663 25.6935621 13.199263 25.7604421 13.076063 25.7700421 12.948383 25.7230021 12.884383 25.6993221 12.830623 25.6657221 12.786783 25.6215621 12.731103 25.5655621 12.649183 25.5306821 12.567903 25.5300421 12.486303 25.5294021 12.405663 25.5633221 12.348063 25.6202821 12.290783 25.6775621 12.256543 25.7578821 12.2568608 25.8394821 12.2568608 25.9207621 12.291103 26.0026821 12.346783 26.0590021zM20.441183 6.84588208C20.403103 6.70156208 20.332063 6.56684208 20.227423 6.44140208 20.018783 6.19020208 19.751263 6.06284208 19.424863 6.05900208 19.261663 6.05708208 19.111903 6.08684208 18.976223 6.14796208 18.903903 6.18060208 18.842463 6.24492208 18.813343 6.32108208 18.784223 6.39692208 18.787423 6.48428208 18.820703 6.55820208 18.853983 6.63212208 18.917343 6.69228208 18.993503 6.72076208 19.069663 6.74924208 19.158623 6.74604208 19.230943 6.71372208 19.287583 6.68812208 19.349983 6.67564208 19.417823 6.67660208 19.553823 6.67820208 19.665503 6.73132208 19.752543 6.83596208 19.796063 6.88812208 19.825823 6.94444208 19.841823 7.00460208 19.861983 7.08108208 19.915423 7.15212208 19.985503 7.19340208 20.055903 7.23436208 20.142623 7.24556208 20.221023 7.22508208 20.299103 7.20428208 20.369183 7.15148208 20.409503 7.08108208 20.450143 7.01036208 20.461663 6.92236208 20.441183 6.84588208zM22.307103 14.9518021C22.307103 14.8705221 22.273503 14.7895621 22.216223 14.7322821 22.158943 14.6750021 22.077983 14.6414021 21.997023 14.6414021 21.916063 14.6414021 21.835103 14.6750021 21.777823 14.7322821 21.720543 14.7895621 21.686943 14.8705221 21.686943 14.9518021 21.686943 15.0327621 21.720543 15.1137221 21.777823 15.1710021 21.835103 15.2282821 21.916063 15.2618821 21.997023 15.2618821 22.077983 15.2618821 22.158943 15.2282821 22.216223 15.1710021 22.273503 15.1137221 22.307103 15.0327621 22.307103 14.9518021z"/>
    <path fill="#2CA7EE" d="M16.943583,16.5761221 C16.838303,16.4702021 16.709343,16.3892421 16.556063,16.3326021 C16.249823,16.2196421 15.954463,16.2433221 15.669663,16.4030021 C15.527583,16.4830021 15.412703,16.5834821 15.325663,16.7044421 C15.279583,16.7687621 15.258463,16.8551621 15.271263,16.9354821 C15.284063,17.0158021 15.330463,17.0900421 15.396063,17.1374021 C15.461983,17.1847621 15.547103,17.2052421 15.627103,17.1918021 C15.707423,17.1783621 15.782943,17.1310021 15.829023,17.0670021 C15.865503,17.0164421 15.913183,16.9745221 15.972703,16.9412421 C16.091103,16.8746821 16.214303,16.8647621 16.341983,16.9118021 C16.405983,16.9354821 16.459743,16.9694021 16.503583,17.0132421 C16.559263,17.0695621 16.641183,17.1044421 16.722463,17.1047621 C16.804063,17.1054021 16.884703,17.0718021 16.942303,17.0145221 C16.999583,16.9575621 17.033823,16.8769221 17.033823,16.7956421 C17.033503,16.7143621 16.999263,16.6321221 16.943583,16.5761221 Z"/>
  </g>
</svg>
