<svg xmlns="http://www.w3.org/2000/svg" width="172" height="33" fill="none"><path d="M151.256 16.64c-.884-.583-1.858-.998-2.78-1.516-.598-.337-1.235-.635-1.754-1.063-.884-.726-.702-2.151.221-2.773 1.325-.881 3.52-.389 3.754 1.412 0 .039.039.065.078.065h2.001c.052 0 .091-.039.078-.091-.104-1.244-.585-2.281-1.468-2.941-.845-.635-1.806-.972-2.833-.972-5.287 0-5.768 5.585-2.923 7.347.325.207 3.118 1.607 4.106 2.216s1.299 1.723.87 2.604c-.39.803-1.403 1.361-2.416 1.296-1.105-.065-1.962-.661-2.261-1.594a2.82 2.82 0 0 1-.078-.635c0-.039-.039-.078-.078-.078h-2.169c-.039 0-.078.039-.078.078 0 1.568.39 2.436 1.455 3.227a5.22 5.22 0 0 0 3.222 1.063c2.962 0 4.495-1.672 4.806-3.408.273-1.697-.233-3.226-1.753-4.237zM57.057 9.047h-.961-1.052c-.039 0-.065.026-.078.052l-1.78 5.857c-.026.078-.13.078-.156 0l-1.78-5.857c-.013-.039-.039-.052-.078-.052H50.12h-.961-1.299c-.039 0-.078.039-.078.078v14.953c0 .039.039.078.078.078h2.169c.039 0 .078-.039.078-.078V12.714c0-.091.13-.104.156-.026l1.793 5.896.13.415c.013.039.039.052.078.052h1.663c.039 0 .065-.026.078-.052l.13-.415 1.793-5.896c.026-.091.156-.065.156.026v11.364c0 .039.039.078.078.078h2.17c.039 0 .078-.039.078-.078V9.125c0-.039-.039-.078-.078-.078h-1.273zm60.98 0c-.039 0-.065.026-.078.052l-1.779 5.857c-.026.078-.13.078-.156 0l-1.78-5.857c-.013-.039-.039-.052-.078-.052h-3.3c-.039 0-.078.039-.078.078v14.953c0 .039.039.078.078.078h2.17c.039 0 .078-.039.078-.078V12.714c0-.091.13-.104.156-.026l1.792 5.896.13.415c.013.039.039.052.078.052h1.663c.039 0 .065-.026.078-.052l.13-.415 1.793-5.896c.026-.091.156-.065.156.026v11.364c0 .039.039.078.078.078h2.169c.039 0 .078-.039.078-.078V9.125c0-.039-.039-.078-.078-.078h-3.3zm-27.983 0h-4.04-2.169-4.04c-.039 0-.078.039-.078.078v1.866c0 .039.039.078.078.078h3.962v13.01c0 .039.039.078.078.078h2.169c.039 0 .078-.039.078-.078v-13.01h3.962c.039 0 .078-.039.078-.078V9.125c0-.039-.026-.078-.078-.078zm12.797 15.108h1.974c.052 0 .091-.052.078-.104l-4.079-15.005c-.013-.039-.039-.052-.078-.052h-.753-1.325-.753c-.039 0-.065.026-.078.052l-4.079 15.005c-.013.052.026.104.078.104h1.975c.039 0 .065-.026.078-.052l1.182-4.367c.013-.039.039-.052.078-.052h4.365c.039 0 .065.026.078.052l1.182 4.367c.013.026.052.052.078.052zm-5.184-6.608l1.585-5.844c.026-.078.13-.078.156 0l1.585 5.844c.013.052-.026.104-.078.104h-3.17c-.052 0-.091-.052-.078-.104zm38.857 6.608h1.974c.052 0 .091-.052.078-.104l-4.079-15.005c-.013-.039-.039-.052-.078-.052h-.753-1.325-.754c-.039 0-.065.026-.078.052l-4.079 15.005c-.013.052.026.104.078.104h1.975c.039 0 .065-.026.078-.052l1.182-4.367c.013-.039.039-.052.078-.052h4.365c.039 0 .065.026.078.052l1.182 4.367c.013.026.039.052.078.052zm-5.184-6.608l1.585-5.844c.026-.078.13-.078.156 0l1.585 5.844c.013.052-.026.104-.078.104h-3.17c-.052 0-.091-.052-.078-.104zM67.216 21.94v-4.639c0-.039.039-.078.078-.078h5.781c.039 0 .078-.039.078-.078V15.28c0-.039-.039-.078-.078-.078h-5.781c-.039 0-.078-.039-.078-.078v-3.965c0-.039.039-.078.078-.078h6.574c.039 0 .078-.039.078-.078V9.138c0-.039-.039-.078-.078-.078h-6.652-2.247c-.039 0-.078.039-.078.078v1.944 4.134 2.021 4.794 2.047c0 .039.039.078.078.078h2.247 6.924c.039 0 .078-.039.078-.078v-1.969c0-.039-.039-.078-.078-.078h-6.859c-.039-.013-.065-.039-.065-.091zm103.864 2.086l-7.509-7.736c-.026-.026-.026-.078 0-.104l6.756-6.997c.052-.052.013-.13-.052-.13h-2.767c-.026 0-.039.013-.052.026l-5.729 5.935c-.052.052-.13.013-.13-.052v-5.83c0-.039-.039-.078-.078-.078h-2.17c-.039 0-.078.039-.078.078v14.953c0 .039.039.078.078.078h2.17c.039 0 .078-.039.078-.078v-6.583c0-.065.091-.104.13-.052l6.495 6.686c.013.013.039.026.052.026h2.767c.052-.013.091-.104.039-.143z" fill="#161616"/><g stroke-width=".25" stroke-linejoin="round"><path d="M32.958 1l-13.134 9.718 2.442-5.727L32.958 1z" fill="#e17726" stroke="#e17726"/><g fill="#e27625" stroke="#e27625"><path d="M2.663 1l13.017 9.809-2.325-5.818L2.663 1zm25.566 22.533l-3.495 5.339 7.483 2.06 2.144-7.282-6.132-.117z"/><path d="M1.273 23.65l2.131 7.282 7.47-2.06-3.482-5.339-6.119.117zm9.197-9.135l-2.079 3.136 7.405.337-.247-7.969-5.08 4.496z"/><path d="M25.15 14.515l-5.157-4.587-.169 8.06 7.405-.337-2.079-3.136zM10.873 28.872l4.482-2.164-3.858-3.006-.624 5.17zm9.393-2.164l4.469 2.164-.611-5.17-3.858 3.006z"/></g><path d="M24.735 28.872l-4.469-2.164.364 2.903-.039 1.231 4.144-1.97zm-13.862 0l4.157 1.97-.026-1.231.351-2.902-4.482 2.164z" fill="#d5bfb2" stroke="#d5bfb2"/><path d="M15.108 21.784l-3.716-1.088 2.624-1.205 1.091 2.293zm5.405 0l1.091-2.293 2.637 1.205-3.729 1.088z" fill="#233447" stroke="#233447"/><path d="M10.873 28.872l.65-5.339-4.131.117 3.482 5.222zm13.225-5.339l.637 5.339 3.495-5.222-4.131-.117zm3.131-5.882l-7.405.337.688 3.797 1.091-2.294 2.637 1.205 2.988-3.045zm-15.836 3.045l2.624-1.205 1.091 2.294.688-3.797-7.405-.337 3.001 3.045z" fill="#cc6228" stroke="#cc6228"/><path d="M8.392 17.651l3.105 6.051-.104-3.006-3.001-3.045zm15.849 3.045l-.117 3.006 3.105-6.051-2.988 3.045zm-8.444-2.708l-.689 3.797.87 4.483.195-5.909-.377-2.371zm4.027 0l-.364 2.358.182 5.922.87-4.483-.688-3.797z" fill="#e27525" stroke="#e27525"/><path d="M20.513 21.784l-.87 4.483.624.441 3.858-3.006.117-3.006-3.729 1.089zm-9.12-1.088l.104 3.006 3.858 3.006.624-.441-.87-4.483-3.716-1.089z" fill="#f5841f" stroke="#f5841f"/><path d="M20.591 30.842l.039-1.231-.338-.285h-4.963l-.325.285.026 1.231-4.157-1.97 1.455 1.192 2.949 2.034h5.054l2.962-2.034 1.442-1.192-4.144 1.97z" fill="#c0ac9d" stroke="#c0ac9d"/><path d="M20.266 26.708l-.624-.441h-3.663l-.623.441-.351 2.903.325-.285h4.963l.338.285-.364-2.903z" fill="#161616" stroke="#161616"/><path d="M33.517 11.353l1.104-5.364L32.958 1l-12.692 9.394 4.885 4.121 6.898 2.008 1.52-1.775-.663-.479 1.052-.959-.805-.622 1.052-.803-.689-.531zM1 5.989l1.117 5.364-.715.531 1.065.803-.805.622 1.052.959-.663.479 1.52 1.775 6.898-2.008 4.885-4.121L2.663 1 1 5.989z" fill="#763e1a" stroke="#763e1a"/><path d="M32.049 16.523l-6.898-2.008 2.079 3.136-3.105 6.051 4.105-.052h6.132l-2.312-7.127zM10.47 14.515l-6.898 2.008-2.299 7.127h6.119l4.105.052-3.105-6.051 2.079-3.136zm9.354 3.473l.442-7.593 2.001-5.403h-8.912l2.001 5.403.442 7.593.169 2.384.013 5.896h3.663l.013-5.896.169-2.384z" fill="#f5841f" stroke="#f5841f"/></g></svg>
