<svg xmlns="http://www.w3.org/2000/svg" width="152" height="124" fill="none"><circle cx="76" cy="58" r="52" fill="#333741"/><g fill="#1f242f"><circle cx="21" cy="25" r="5"/><circle cx="18" cy="109" r="7"/><circle cx="145" cy="41" r="7"/><circle cx="134" cy="14" r="4"/></g><path d="M76 36.063l4.536-1.9-4.535 1.932V90.19l41.795-17.514V18.557l.204-.085-.204-.09v-.091l-.104.045L76.33 0 34 18.031l.2.086-.2 53.899 42 18.141V36.063z" fill="#fafafa"/><path d="M76 36.063v54.095L34 72.017l.2-53.899L76 36.063z" fill="url(#B)"/><path d="M76.001 36.095V90.19l41.796-17.514V18.29L76.001 36.095z" fill="url(#C)"/><path d="M76 36.063l42-17.592L76.33 0 34 18.031l42 18.031z" fill="#1f242f"/><path d="M49.832 11.287l41.84 18.211.38 13.271 11.706-4.83-.354-13.355L60.327 6.817l-10.495 4.47z" fill="#333741"/><mask id="A" maskUnits="userSpaceOnUse" x="52" y="68" width="48" height="48" mask-type="alpha"><path transform="translate(52 68)" fill="url(#D)" d="M0 0h48v48H0z"/></mask><g mask="url(#A)"><circle cx="76" cy="92" r="23.5" fill="#161b26" stroke="#333741"/></g><rect x="60" y="76" width="32" height="32" rx="16" fill="#161b26"/><g clip-path="url(#E)"><path d="M76 88.667V92m0 3.333h.008M84.334 92c0 4.602-3.731 8.333-8.333 8.333s-8.333-3.73-8.333-8.333 3.731-8.333 8.333-8.333 8.333 3.731 8.333 8.333z" stroke="#fff" stroke-width="1.67" stroke-linecap="round" stroke-linejoin="round"/></g><defs><linearGradient id="B" x1="34" y1="72.289" x2="50.587" y2="27.367" gradientUnits="userSpaceOnUse"><stop stop-color="#3b4354"/><stop offset="1" stop-color="#1f242f"/></linearGradient><linearGradient id="C" x1="76" y1="37.154" x2="123.359" y2="46.583" gradientUnits="userSpaceOnUse"><stop stop-color="#3b4354"/><stop offset="1" stop-color="#1f242f"/></linearGradient><linearGradient id="D" x1="24" y1="0" x2="24" y2="48" gradientUnits="userSpaceOnUse"><stop/><stop offset="1" stop-opacity="0"/></linearGradient><clipPath id="E"><path fill="#fff" transform="translate(66 82)" d="M0 0h20v20H0z"/></clipPath></defs></svg>
