<svg xmlns="http://www.w3.org/2000/svg" width="152" height="124" fill="none"><circle cx="76" cy="58" r="52" fill="#eaeaeb"/><g fill="#f2f2f3"><circle cx="21" cy="25" r="5"/><circle cx="18" cy="109" r="7"/><circle cx="145" cy="41" r="7"/><circle cx="134" cy="14" r="4"/></g><g filter="url(#B)"><path d="M76 36.063l4.536-1.9-4.535 1.932V90.19l41.795-17.514V18.557l.204-.085-.204-.09v-.091l-.104.045L76.33 0 34 18.031l.2.086-.2 53.899 42 18.141V36.063z" fill="#fafafa"/><path d="M76 36.063v54.095L34 72.017l.2-53.899L76 36.063z" fill="url(#C)"/><path d="M76.001 36.095V90.19l41.796-17.514V18.29L76.001 36.095z" fill="url(#D)"/><path d="M76 36.063l42-17.592L76.33 0 34 18.031l42 18.031z" fill="#f2f2f3"/><path d="M49.832 11.287l41.84 18.211.38 13.271 11.706-4.83-.354-13.355L60.327 6.817l-10.495 4.47z" fill="#eaeaeb"/></g><mask id="A" maskUnits="userSpaceOnUse" x="52" y="68" width="48" height="48" mask-type="alpha"><path transform="translate(52 68)" fill="url(#E)" d="M0 0h48v48H0z"/></mask><g mask="url(#A)"><circle cx="76" cy="92" r="23.5" fill="#fafafa" stroke="#eaeaeb"/></g><rect x="60" y="76" width="32" height="32" rx="16" fill="#000" fill-opacity=".3"/><g clip-path="url(#F)"><path d="M76 88.667V92m0 3.333h.008M84.334 92c0 4.602-3.731 8.333-8.333 8.333s-8.333-3.73-8.333-8.333 3.731-8.333 8.333-8.333 8.333 3.731 8.333 8.333z" stroke="#fff" stroke-width="1.67" stroke-linecap="round" stroke-linejoin="round"/></g><defs><filter id="B" x="14" y="0" width="124" height="130.19" filterUnits="userSpaceOnUse" color-interpolation-filters="sRGB"><feFlood flood-opacity="0" result="A"/><feColorMatrix in="SourceAlpha" values="0 0 0 0 0 0 0 0 0 0 0 0 0 0 0 0 0 0 127 0" result="B"/><feMorphology radius="4" in="SourceAlpha" result="C"/><feOffset dy="8"/><feGaussianBlur stdDeviation="4"/><feComposite in2="B" operator="out"/><feColorMatrix values="0 0 0 0 0.0627451 0 0 0 0 0.0941176 0 0 0 0 0.156863 0 0 0 0.03 0"/><feBlend in2="A" result="C"/><feColorMatrix in="SourceAlpha" values="0 0 0 0 0 0 0 0 0 0 0 0 0 0 0 0 0 0 127 0" result="B"/><feMorphology radius="4" in="SourceAlpha"/><feOffset dy="20"/><feGaussianBlur stdDeviation="12"/><feComposite in2="B" operator="out"/><feColorMatrix values="0 0 0 0 0.0627451 0 0 0 0 0.0941176 0 0 0 0 0.156863 0 0 0 0.08 0"/><feBlend in2="C"/><feBlend in="SourceGraphic"/></filter><linearGradient id="C" x1="34" y1="72.289" x2="50.587" y2="27.367" gradientUnits="userSpaceOnUse"><stop stop-color="#dee1e8"/><stop offset="1" stop-color="#eff1f5"/></linearGradient><linearGradient id="D" x1="76" y1="37.154" x2="123.359" y2="46.583" gradientUnits="userSpaceOnUse"><stop stop-color="#e4e7ec"/><stop offset="1" stop-color="#f2f4f7"/></linearGradient><linearGradient id="E" x1="24" y1="0" x2="24" y2="48" gradientUnits="userSpaceOnUse"><stop/><stop offset="1" stop-opacity="0"/></linearGradient><clipPath id="F"><path fill="#fff" transform="translate(66 82)" d="M0 0h20v20H0z"/></clipPath></defs></svg>
