<svg xmlns="http://www.w3.org/2000/svg" viewBox="0 0 120 120" width="22" height="22"><path d="M-14.88-19.92h149.75v146.77H-14.88z" fill="#fff"/><path d="M59-12.9c-47.25 0-66.43-4.44-66.43 32.35L-8.17 120h30.73l13.85-26.14c1.36-1.42 20.81 9 22 10.23.25.26 5.4 15.91 5.4 15.91h64.48l-.15-90.77C128.17-15.07 99.59-12.9 59-12.9zM84.32 88c-16.59 13.26-43.13 6.9-51-15.71a36.18 36.18 0 0 1-1.21-19.85c.85-4 2.2-4.57 5.49-2.37l21.36 14.22c.73-1.33 1.7-2.6 2.35-4.05a4.31 4.31 0 0 0 .31-2.3c-.5-3.11 1-5.85 3.83-6.55a5.18 5.18 0 0 1 6.24 4 5.48 5.48 0 0 1-3.93 6.44 2.48 2.48 0 0 0-1.24.65c-.17.26-3.07 4.92-3.07 4.92l10.27 7.1 10.41 7.1c3.5 2.34 3.39 3.82.19 6.4zM66.2 39.23a16.16 16.16 0 0 1 16.27 9.91c.06.15.12.31.19.46.66 1.53.42 2-1.22 2.44l-.59.15c-1.08.28-1.25-.7-2.07-2.57a11.47 11.47 0 0 0-11.87-6.85c-1.65.18-2.79.48-3-.39-.66-2.73-.54-2.89 2.29-3.15zM89.32 50l-.92.24c-1.68.44-2-1.13-3.25-4.13A18 18 0 0 0 66.62 35c-2.55.26-4.32.72-4.66-.67-1.05-4.37-.87-4.62 3.53-5a25.51 25.51 0 0 1 25.4 16c.09.25.18.5.29.75 1.04 2.47.68 3.22-1.86 3.92zm11.77-3.08l-1.4.36-.77.2c-2.19.57-2.68.21-3.62-1.91a42.4 42.4 0 0 0-3.91-7.76c-7.3-10-17-14.34-29.28-12.41-1.47.24-2.36-.22-2.72-1.71-.22-1-.47-1.9-.68-2.86-.38-1.72.17-2.58 1.86-2.89 10.6-2 20.2.43 28.84 6.86 6.46 4.81 10.69 11.29 13.32 19 .61 1.69.12 2.59-1.64 3.09z" fill="#1d1d1b"/></svg>
