<svg xmlns="http://www.w3.org/2000/svg" width="276" height="270" fill="none"><path fill-rule="evenodd" d="M115.899 40c0-5.523-4.477-10-10-10H82.2c-5.523 0-10 4.477-10 10v23.698c0 5.523-4.477 10-10 10H40c-5.523 0-10 4.477-10 10v146.055c0 5.522 4.477 10 10 10h23.699c5.523 0 10-4.478 10-10V83.699c0-5.523 4.477-10 10-10h22.201c5.523 0 10-4.477 10-10V40zm87.397 0c0-5.523-4.478-10-10-10h-23.699a10 10 0 0 0-10 10v23.699c0 5.523 4.477 10 10 10h22.2a10 10 0 0 1 10 10v146.055c0 5.522 4.478 10 10 10h23.699c5.523 0 10-4.478 10-10V83.698c0-5.523-4.477-10-10-10h-22.2c-5.523 0-10-4.477-10-10V40zm-43.699 83.651c0-5.522-4.477-10-10-10h-23.698c-5.523 0-10 4.478-10 10v64.9a10 10 0 0 0 10 10h23.698a10 10 0 0 0 10-10v-64.9z" fill="#5353d3"/></svg>
