<svg xmlns="http://www.w3.org/2000/svg" viewBox="0 0 300 204.5"><path d="M120.3 10.8l4 14.6c-6.4 2.1-12.7 4-18.9 6.4C82.9 40.3 62.4 52 45 68.7c-11.9 11.5-21.6 24.5-26.1 40.7-6.4 22.7.2 41.5 17.9 56.4C50 177 65.8 182.7 82.5 186c27.1 5.4 54 3.3 80.6-3.3 1.1-.3 2.2-.5 3.6-.9l4.1 15.1-24.2 4.9c-13.4 2.3-27 3.1-40.6 2.5-26.5-1.2-51.7-6.9-73.8-22.4-15.8-11.1-26.6-25.8-30.1-45.1-3.1-17.5.7-33.9 9-49.3C21.7 68.1 37 53.2 54.9 40.7c19.5-13.6 40.9-23.2 63.8-29.5.5-.1.9-.2 1.6-.4z" fill="#274d77"/><path d="M133.8 21.7l-4-14.6 16.3-3.7c17.3-3.5 34.8-4.8 52.3-3.6 26.4 1.7 51.4 7.9 72.8 24.4 18.5 14.2 28.7 32.9 28.2 56.6-.4 18-7.5 33.9-18 48.2-14.8 20.2-34.1 34.9-56 46.5a215.9 215.9 0 0 1-42.2 16.8c-.9.2-1.8.4-2.9.7l-4-14.6c6.1-2 12-3.8 17.8-6 24.4-9 46.5-21.8 64.7-40.6 10-10.4 18.2-22 22.5-36 6.8-22 .6-43-17.2-57.7-13.1-10.9-28.5-16.8-45-20.1-27.6-5.6-55-3.5-82.1 3.2-.7.2-1.4.4-2.1.5-.2.2-.5.1-1.1 0zm-45.7 83.6l33.5-32.1 24 22.6 42-38.2-6.9-8.5 30.1-6.9-5.8 29.1-8.5-5.9-50.8 48.6-26.3-22.5-2.4 2.2-18.5 17.8c-2.2 2.1-3.8 1.7-5.5-.5-1.5-2-3.2-3.7-4.9-5.7z" fill="#66bf78"/><path d="M171.4 150.4v-5.6l.1-38.9c0-1.2.4-2.8 1.2-3.5L200 77.9c.2-.2.5-.3 1-.5v73h-29.6z" fill="#59585a"/><path d="M121.7 150.4H95.6c0-5.8.4-11.6-.1-17.4-.4-5.2 1.2-8.9 5.1-12.4 6.5-5.9 12.5-12.3 18.7-18.5.7-.7 1.4-1.3 2.5-2.3l-.1 50.6z" fill="#a8a9ac"/><path d="M160.9 150.5h-27.7v-34.3l8 5.7c4.5 3.2 4.5 3.2 8.6-.3l11.1-9.3v38.2z" fill="#d2d3d4"/></svg>
