<svg xmlns="http://www.w3.org/2000/svg" width="550" height="550" viewBox="0 0 145.521 145.521"><defs><linearGradient id="A" x1="50.104" y1="32.759" x2="17.552" y2="12.523" gradientUnits="userSpaceOnUse"><stop offset=".29" stop-color="#3a8bff"/><stop offset="1" stop-color="#81b5ff"/></linearGradient><linearGradient href="#C" id="B" x1="69.838" y1="-11.288" x2="17.819" y2="122.719"/><linearGradient id="C" gradientUnits="userSpaceOnUse"><stop offset=".29" stop-color="#0062ee"/><stop offset="1" stop-color="#00398a"/></linearGradient><linearGradient id="D" x1="96.188" y1="142.57" x2="113.809" y2="41.862" href="#C"/><linearGradient id="E" x1="75.185" y1="176.616" x2="75.185" y2="83.091" gradientUnits="userSpaceOnUse"><stop offset=".29" stop-color="#b3d2ff"/><stop offset="1" stop-color="#fff"/></linearGradient></defs><path d="M43.786 47.989a3.202 3.202 0 0 1-.267 2.519h0a3.202 3.202 0 0 1-2.049 1.484 3.116 3.116 0 0 1-2.487-.512l-7.908-5.71a2.135 2.135 0 0 1 2.135-3.671l8.89 3.992a3.127 3.127 0 0 1 1.686 1.9m0 52.04a3.127 3.127 0 0 1-1.697 1.889l-8.89 4.002a2.135 2.135 0 0 1-2.135-3.682l7.908-5.699a3.127 3.127 0 0 1 4.365.704c.065.085.117.181.171.267a3.202 3.202 0 0 1 .267 2.519M27.766 77.082l-3.394-1.163a2.593 2.593 0 0 1 0-4.909l3.394-1.163a3.821 3.821 0 1 1 2.455 7.236 3.864 3.864 0 0 1-2.455 0M67.138 3.163H47.521a34.537 34.537 0 0 1-34.515 34.526v87.463a93.076 93.076 0 0 0 38.518-8.282l1.526-45.21c-2.7-1.334-4.632-4.877-4.632-9.018 0-4.664 2.433-8.538 5.646-9.413a21.345 21.345 0 0 1 2.924-7.919 4.653 4.653 0 0 1-3.426-2.22c-2.903-4.269-6.82-8.645-9.819-15.721a3.757 3.757 0 0 1 .406-3.789 1.868 1.868 0 0 1 2.615-.352 2.231 2.231 0 0 1 .235.213c4.643 4.397 10.224 5.71 13.309 9.926a5.945 5.945 0 0 1 .886-1.451 6.468 6.468 0 0 1 7.642-2.006 6.606 6.606 0 0 1 12.669 0 6.083 6.083 0 0 1 4.44-.213A92.521 92.521 0 0 1 99.07 10.837a69.799 69.799 0 0 0-31.933-7.674" fill="url(#B)"/><path d="M125.955 75.908l-3.405 1.163c-4.764 1.628-7.203-5.562-2.455-7.236.796-.267 1.658-.267 2.455 0l3.405 1.163c2.342.798 2.342 4.111 0 4.909m-7.183 29.115c-.546.95-1.721 1.333-2.722.886l-8.89-4.002c-1.568-.696-2.275-2.53-1.58-4.098l.16-.309c.857-1.503 2.776-2.017 4.269-1.142l.267.171 7.908 5.699c.886.641 1.144 1.849.598 2.796m-13.319-57.035c.273-.841.89-1.528 1.697-1.889l8.89-3.992c2.341-1.058 4.212 2.16 2.135 3.671l-7.908 5.71a3.14 3.14 0 0 1-4.376-.736l-.149-.235h0c-.449-.765-.554-1.683-.288-2.529m-.352-33.662l-6.041-3.49c-5.142 5.716-9.552 12.051-13.127 18.859a6.67 6.67 0 0 1 3.202 2.22 6.96 6.96 0 0 1 .886 1.451c2.892-3.96 7.983-4.856 12.444-9.104.892-.928 2.328-1.069 3.383-.331a2.14 2.14 0 0 1 .587.576 2.57 2.57 0 0 1 .309 2.668l-.128.299c-2.988 6.937-6.884 11.356-9.765 15.614-.754 1.238-2.039 2.058-3.479 2.22a21.07 21.07 0 0 1 2.871 7.919c2.892.79 5.144 3.992 5.571 8.026a11.78 11.78 0 0 1 .074 1.387c0 3.895-1.708 7.268-4.173 8.752a2.85 2.85 0 0 1-.459.267v.672l2.135 63.246c23.247-12.063 37.837-36.074 37.835-62.264h0a70.11 70.11 0 0 0-32.125-58.988" fill="url(#D)"/><path d="M88.493 69.334a4.194 4.194 0 0 1-.235 4.451c-3.042 4.44-7.3 7.812-12.722 7.812h-1.153c-4.685-.406-9.605-3.469-12.647-7.151a4.269 4.269 0 0 1-.395-4.835 12.807 12.807 0 0 0 1.825-6.585 13.266 13.266 0 0 0-1.558-6.243 4.184 4.184 0 0 1 .235-4.408 4.995 4.995 0 0 0 .801.843 6.233 6.233 0 0 0 7.567.107c0 2.423 2.444 4.386 5.443 4.386a5.336 5.336 0 0 0 .822 0c2.625-.32 4.632-2.135 4.632-4.333a6.233 6.233 0 0 0 7.674-.16l.299-.267a4.269 4.269 0 0 1-.395 3.575 12.7 12.7 0 0 0-1.793 6.542 13.234 13.234 0 0 0 1.601 6.297m17.919-44.857a2.135 2.135 0 0 0-.587-.576 2.615 2.615 0 0 0-3.341.331c-4.461 4.269-9.605 5.144-12.444 9.104a6.959 6.959 0 0 0-.886-1.451 6.67 6.67 0 0 0-3.202-2.22 6.083 6.083 0 0 0-4.44.213 6.606 6.606 0 0 0-12.668 0 6.468 6.468 0 0 0-7.642 2.007 5.945 5.945 0 0 0-.886 1.451c-3.084-4.216-8.666-5.528-13.309-9.926a1.857 1.857 0 0 0-2.636-.139 1.58 1.58 0 0 0-.256.278 3.757 3.757 0 0 0-.406 3.789c2.999 7.076 6.916 11.43 9.819 15.721a4.653 4.653 0 0 0 3.469 2.22 21.345 21.345 0 0 0-2.924 7.919c-3.202.875-5.646 4.749-5.646 9.413 0 4.141 1.932 7.684 4.632 9.018l-1.526 45.209-.896 26.586h16.5a69.799 69.799 0 0 0 31.933-7.674l.373-.203-2.124-63.246v-.672a2.85 2.85 0 0 0 .459-.267c2.465-1.484 4.173-4.856 4.173-8.752a12.092 12.092 0 0 0-.074-1.387c-.427-4.034-2.679-7.236-5.571-8.026a20.908 20.908 0 0 0-2.924-7.919 4.685 4.685 0 0 0 3.479-2.22c2.882-4.269 6.777-8.677 9.766-15.614l.128-.299a2.572 2.572 0 0 0-.31-2.668" fill="url(#E)"/><path d="M47.521 3.163c-.006 19.062-15.454 34.514-34.515 34.526V15.81c.006-6.982 39.668 28.733 12.647-12.647z" fill="url(#A)"/><path d="M81.503 64.222l-3.554 3.266a2.231 2.231 0 0 0-.63 1.067l-1.067 4.536a1.067 1.067 0 0 1-1.067.811h0a1.067 1.067 0 0 1-1.067-.811l-1.131-4.536a2.135 2.135 0 0 0-.63-1.067l-3.554-3.266a1.067 1.067 0 0 1 0-1.505 1.067 1.067 0 0 1 .907-.331l5.336.726h.288l.416-.054 4.92-.672a1.067 1.067 0 0 1 1.067.598 1.067 1.067 0 0 1-.246 1.238m5.336-1.195a12.733 12.733 0 0 1 1.857-6.5 4.269 4.269 0 0 0 .342-3.533l-.246.224a6.233 6.233 0 0 1-7.62.065c0 2.177-1.985 4.013-4.632 4.312a5.336 5.336 0 0 1-.822 0c-2.999 0-5.443-1.964-5.443-4.386a6.233 6.233 0 0 1-7.62-.065 4.995 4.995 0 0 1-.8-.843 4.184 4.184 0 0 0-.235 4.408 13.223 13.223 0 0 1 1.558 6.318 12.733 12.733 0 0 1-1.772 6.521 4.269 4.269 0 0 0 .395 4.835c3.063 3.682 7.962 6.745 12.647 7.151h1.153c5.422 0 9.68-3.373 12.722-7.812a4.194 4.194 0 0 0 .182-4.386 13.234 13.234 0 0 1-1.601-6.297" fill="#b3d2ff" fill-rule="evenodd"/></svg>
