<svg xmlns="http://www.w3.org/2000/svg" viewBox="0 0 2500 2500"><path d="M520.6 1188.9c0-57.7 47.4-105.1 105-105.1h0 177.1c57.7 0 107.1 47.4 107.1 107.2h0v667.9c20.6-6.2 45.3-12.4 74.2-18.6 39.1-10.3 68-45.3 68-86.6V925c0-57.7 47.4-107.2 107.1-107.2h177.1c57.7 0 107.1 47.4 107.1 107.2v769l86.5-37.1c33-14.4 53.6-45.3 53.6-82.5V657.1c0-57.7 47.4-107.2 105.1-107.2h177.1c57.7 0 105.1 47.4 105.1 107.2v756.6c152.4-111.3 309-245.3 432.6-406.1 37.1-47.4 47.4-109.3 26.8-167-226.6-651.4-939.2-997.8-1590.1-771s-996.9 940-770.4 1591.5c24.7 74.2 57.7 144.3 96.8 212.3 30.9 53.6 88.6 84.5 150.4 78.3 33-2.1 74.2-6.2 125.6-12.4 45.3-4.1 78.3-43.3 78.3-88.7l-.1-661.7h0z" fill="#21325b"/><path d="M516.4 2260.9c558.2 406.1 1338.9 282.4 1744.6-276.2 154.5-214.4 238.9-472.1 238.9-735.9 0-28.9-2.1-57.7-4.1-86.6C2040.7 1844.5 1198.2 2164 516.4 2260.9h0z" fill="#979695"/></svg>
