<svg width="52" height="52" viewBox="0 0 52 52" fill="none" xmlns="http://www.w3.org/2000/svg">
<path d="M31.2285 14.3794C29.6136 13.6968 27.8777 13.3465 26.1245 13.3494C24.3135 13.3494 22.5895 13.7154 21.0215 14.3794L25.7085 6.23943C25.7504 6.16719 25.8106 6.10724 25.883 6.06556C25.9554 6.02389 26.0375 6.00195 26.121 6.00195C26.2045 6.00195 26.2866 6.02389 26.359 6.06556C26.4314 6.10724 26.4915 6.16719 26.5335 6.23943L31.2235 14.3794H31.2285Z" fill="url(#paint0_linear_1194_22)"/>
<path d="M19.7742 14.9903C18.2249 15.8508 16.8652 17.0154 15.7768 18.4141C14.6884 19.8129 13.8937 21.417 13.4402 23.1303L9.95522 14.2323C9.92446 14.1544 9.91474 14.0698 9.92706 13.9869C9.93938 13.9041 9.97329 13.8259 10.0254 13.7604C10.0775 13.6948 10.1459 13.6441 10.2238 13.6134C10.3018 13.5826 10.3864 13.5729 10.4692 13.5853L19.7742 14.9903Z" fill="url(#paint1_linear_1194_22)"/>
<path d="M15.7996 34.6128L6.33656 31.6848C6.25668 31.66 6.18471 31.6146 6.12781 31.5533C6.07092 31.4919 6.03108 31.4167 6.01227 31.3352C5.99345 31.2537 5.99632 31.1687 6.02059 31.0886C6.04485 31.0085 6.08966 30.9362 6.15056 30.8788L13.1806 24.3398C13.0635 25.0536 13.0046 25.7756 13.0046 26.4988C13.0046 29.5618 14.0496 32.3798 15.8006 34.6128H15.7996Z" fill="url(#paint2_linear_1194_22)"/>
<path d="M25.9294 39.6462L17.6324 45.3132C17.5635 45.361 17.483 45.3897 17.3994 45.3962C17.3157 45.4028 17.2318 45.387 17.1562 45.3504C17.0807 45.3139 17.0162 45.258 16.9693 45.1884C16.9224 45.1188 16.8949 45.038 16.8894 44.9543L16.1484 35.0312C17.3555 36.4531 18.8528 37.6002 20.5398 38.3955C22.2268 39.1908 24.0645 39.6159 25.9294 39.6423V39.6462Z" fill="url(#paint3_linear_1194_22)"/>
<path d="M36.0715 35.0723L35.3345 44.9443C35.3246 45.07 35.2654 45.1867 35.1699 45.269C35.0745 45.3514 34.9504 45.3928 34.8245 45.3843C34.7409 45.3786 34.6602 45.351 34.5905 45.3043L26.3105 39.6463C28.1691 39.6218 30.001 39.2012 31.6841 38.4124C33.3671 37.6236 34.8636 36.4849 36.0715 35.0723Z" fill="url(#paint4_linear_1194_22)"/>
<path d="M45.9064 31.6536L36.4844 34.5676C38.2788 32.2607 39.2507 29.4202 39.2454 26.4976C39.2454 25.7526 39.1814 25.0206 39.0634 24.3086L46.0894 30.8436C46.3594 31.0946 46.2554 31.5446 45.9064 31.6506V31.6536Z" fill="url(#paint5_linear_1194_22)"/>
<path d="M42.292 14.2489L38.812 23.1449C38.36 21.4336 37.568 19.8308 36.4832 18.4321C35.3985 17.0334 34.0431 15.8675 32.498 15.0039L41.778 13.6009C41.8609 13.5886 41.9455 13.5982 42.0234 13.629C42.1013 13.6597 42.1698 13.7104 42.2219 13.776C42.274 13.8416 42.3079 13.9197 42.3202 14.0026C42.3325 14.0854 42.3228 14.17 42.292 14.2479V14.2489Z" fill="url(#paint6_linear_1194_22)"/>
<path d="M26.1251 42.4863C25.6643 42.4869 25.2082 42.5781 24.7827 42.755C24.3572 42.9318 23.9708 43.1908 23.6454 43.517C23.32 43.8432 23.0621 44.2303 22.8863 44.6563C22.7106 45.0822 22.6204 45.5386 22.6211 45.9993H29.6331C29.6338 45.5386 29.5436 45.0822 29.3679 44.6563C29.1921 44.2303 28.9342 43.8432 28.6088 43.517C28.2834 43.1908 27.897 42.9318 27.4715 42.755C27.046 42.5781 26.5899 42.4869 26.1291 42.4863H26.1251Z" fill="url(#paint7_linear_1194_22)"/>
<path d="M38.9414 36.7278C38.3613 37.457 38.0939 38.3863 38.1977 39.3123C38.3016 40.2382 38.7682 41.0853 39.4954 41.6678L43.8654 36.1728C43.5056 35.8852 43.0926 35.6714 42.6501 35.5436C42.2076 35.4159 41.7442 35.3767 41.2865 35.4283C40.8288 35.48 40.3858 35.6214 39.9828 35.8446C39.5799 36.0678 39.225 36.3682 38.9384 36.7288H38.9414V36.7278Z" fill="url(#paint8_linear_1194_22)"/>
<path d="M41.8139 23.1407C41.9152 23.5902 42.1043 24.0153 42.3702 24.3916C42.6362 24.7679 42.9738 25.088 43.3637 25.3336C43.7536 25.5791 44.1882 25.7453 44.6424 25.8225C45.0967 25.8998 45.5618 25.8866 46.0109 25.7837L44.4499 18.9297C44.0005 19.0328 43.5757 19.2234 43.2 19.4907C42.8242 19.758 42.5048 20.0967 42.26 20.4875C42.0152 20.8783 41.8499 21.3135 41.7733 21.7682C41.6968 22.2229 41.7106 22.6883 41.8139 23.1377V23.1407Z" fill="url(#paint9_linear_1194_22)"/>
<path d="M33.2129 12.3922C33.6279 12.5926 34.0784 12.7091 34.5385 12.7349C34.9986 12.7608 35.4593 12.6955 35.8941 12.5428C36.329 12.3902 36.7294 12.1531 37.0724 11.8453C37.4154 11.5376 37.6942 11.165 37.8929 10.7492L31.5769 7.69922C31.1724 8.53898 31.1179 9.50494 31.4252 10.3849C31.7325 11.2649 32.3766 11.9868 33.2159 12.3922H33.2119H33.2129Z" fill="url(#paint10_linear_1194_22)"/>
<path d="M18.8783 12.3922C19.7168 11.9861 20.3601 11.2639 20.6668 10.384C20.9735 9.50422 20.9186 8.53865 20.5143 7.69922L14.1973 10.7492C14.3964 11.1647 14.6756 11.5369 15.0188 11.8443C15.362 12.1517 15.7625 12.3884 16.1974 12.5407C16.6322 12.6931 17.0929 12.7581 17.5529 12.7321C18.013 12.7061 18.4633 12.5896 18.8783 12.3892V12.3922Z" fill="url(#paint11_linear_1194_22)"/>
<path d="M10.5281 23.1406C10.7353 22.2327 10.5737 21.2796 10.0787 20.4908C9.58367 19.7019 8.79577 19.1419 7.88808 18.9336L6.33008 25.7866C6.77949 25.889 7.24469 25.9018 7.69905 25.8242C8.15341 25.7466 8.588 25.5802 8.97794 25.3344C9.36788 25.0886 9.70552 24.7683 9.97151 24.3919C10.2375 24.0154 10.4266 23.5902 10.5281 23.1406Z" fill="url(#paint12_linear_1194_22)"/>
<path d="M8.87109 36.1728L13.2441 41.6678C13.9715 41.0854 14.4383 40.2383 14.5421 39.3123C14.646 38.3863 14.3784 37.4569 13.7981 36.7278C13.5113 36.3674 13.1563 36.0671 12.7533 35.8441C12.3504 35.6211 11.9074 35.4798 11.4497 35.4283C10.9921 35.3767 10.5287 35.4159 10.0862 35.5437C9.64377 35.6715 9.23084 35.8852 8.87109 36.1728Z" fill="url(#paint13_linear_1194_22)"/>
<defs>
<linearGradient id="paint0_linear_1194_22" x1="20.1525" y1="10.1894" x2="31.2275" y2="10.1894" gradientUnits="userSpaceOnUse">
<stop stop-color="#E35930"/>
<stop offset="1" stop-color="#E84125"/>
</linearGradient>
<linearGradient id="paint1_linear_1194_22" x1="9.24922" y1="18.3543" x2="19.7742" y2="18.3543" gradientUnits="userSpaceOnUse">
<stop stop-color="#E35930"/>
<stop offset="1" stop-color="#E84125"/>
</linearGradient>
<linearGradient id="paint2_linear_1194_22" x1="5.68756" y1="29.4758" x2="15.7996" y2="29.4758" gradientUnits="userSpaceOnUse">
<stop stop-color="#E35930"/>
<stop offset="1" stop-color="#E84125"/>
</linearGradient>
<linearGradient id="paint3_linear_1194_22" x1="15.9624" y1="40.2152" x2="25.9294" y2="40.2152" gradientUnits="userSpaceOnUse">
<stop stop-color="#E35930"/>
<stop offset="1" stop-color="#E84125"/>
</linearGradient>
<linearGradient id="paint4_linear_1194_22" x1="25.9725" y1="40.2283" x2="36.0715" y2="40.2283" gradientUnits="userSpaceOnUse">
<stop stop-color="#E35930"/>
<stop offset="1" stop-color="#E84125"/>
</linearGradient>
<linearGradient id="paint5_linear_1194_22" x1="35.8654" y1="29.4376" x2="46.2414" y2="29.4376" gradientUnits="userSpaceOnUse">
<stop stop-color="#E35930"/>
<stop offset="1" stop-color="#E84125"/>
</linearGradient>
<linearGradient id="paint6_linear_1194_22" x1="31.667" y1="18.3679" x2="42.326" y2="18.3679" gradientUnits="userSpaceOnUse">
<stop stop-color="#E35930"/>
<stop offset="1" stop-color="#E84125"/>
</linearGradient>
<linearGradient id="paint7_linear_1194_22" x1="27.6711" y1="42.8413" x2="25.0321" y2="47.4003" gradientUnits="userSpaceOnUse">
<stop stop-color="#E35930"/>
<stop offset="1" stop-color="#E84125"/>
</linearGradient>
<linearGradient id="paint8_linear_1194_22" x1="40.1884" y1="35.6758" x2="42.1174" y2="40.5798" gradientUnits="userSpaceOnUse">
<stop stop-color="#E35930"/>
<stop offset="1" stop-color="#E84125"/>
</linearGradient>
<linearGradient id="paint9_linear_1194_22" x1="41.8059" y1="21.5357" x2="46.8339" y2="23.0827" gradientUnits="userSpaceOnUse">
<stop stop-color="#E35930"/>
<stop offset="1" stop-color="#E84125"/>
</linearGradient>
<linearGradient id="paint10_linear_1194_22" x1="31.9679" y1="11.4012" x2="36.3199" y2="8.44122" gradientUnits="userSpaceOnUse">
<stop stop-color="#E35930"/>
<stop offset="1" stop-color="#E84125"/>
</linearGradient>
<linearGradient id="paint11_linear_1194_22" x1="17.3993" y1="12.7702" x2="17.7943" y2="7.51422" gradientUnits="userSpaceOnUse">
<stop stop-color="#E35930"/>
<stop offset="1" stop-color="#E84125"/>
</linearGradient>
<linearGradient id="paint12_linear_1194_22" x1="9.94108" y1="24.5666" x2="6.07708" y2="20.9906" gradientUnits="userSpaceOnUse">
<stop stop-color="#E35930"/>
<stop offset="1" stop-color="#E84125"/>
</linearGradient>
<linearGradient id="paint13_linear_1194_22" x1="14.5821" y1="38.1038" x2="9.38109" y2="38.8868" gradientUnits="userSpaceOnUse">
<stop stop-color="#E35930"/>
<stop offset="1" stop-color="#E84125"/>
</linearGradient>
</defs>
</svg>
