<svg xmlns="http://www.w3.org/2000/svg" width="28" height="28" fill="none"><mask id="A" maskUnits="userSpaceOnUse" x="3" y="2" width="22" height="24"><path d="M24.473 2H3.527v24h20.945V2z" fill="#fff"/></mask><g mask="url(#A)"><path d="M14.001 2L3.529 7.999 14.001 14V2z" fill="#00ff7f"/><path d="M24.471 7.999L14 2v12l10.471-6.001z" fill="#fbec0d"/><path d="M3.529 8l-.001.001v12l.001.001L14 14.001 3.529 8z" fill="#4a9dff"/><path d="M14 14.001l10.471 6.001.001-.001v-12L24.471 8 14 14.001z" fill="#ffb100"/><path d="M14 26l10.471-5.999L14 14v12z" fill="#ff4500"/><path d="M3.529 20.001L14.001 26V14L3.529 20.001z" fill="#a46bff"/></g></svg>
