<?xml version="1.0" encoding="UTF-8" standalone="no"?>
<svg
   xmlns:dc="http://purl.org/dc/elements/1.1/"
   xmlns:cc="http://creativecommons.org/ns#"
   xmlns:rdf="http://www.w3.org/1999/02/22-rdf-syntax-ns#"
   xmlns:svg="http://www.w3.org/2000/svg"
   xmlns="http://www.w3.org/2000/svg"
   xmlns:xlink="http://www.w3.org/1999/xlink"
   xmlns:sodipodi="http://sodipodi.sourceforge.net/DTD/sodipodi-0.dtd"
   xmlns:inkscape="http://www.inkscape.org/namespaces/inkscape"
   width="172"
   height="172"
   viewBox="0 0 172 172"
   version="1.1"
   id="svg16"
   sodipodi:docname="loopring.svg"
   inkscape:version="1.0.2 (e86c870879, 2021-01-15)">
  <metadata
     id="metadata20">
    <rdf:RDF>
      <cc:Work
         rdf:about="">
        <dc:format>image/svg+xml</dc:format>
        <dc:type
           rdf:resource="http://purl.org/dc/dcmitype/StillImage" />
        <dc:title>logo-blue</dc:title>
      </cc:Work>
    </rdf:RDF>
  </metadata>
  <sodipodi:namedview
     pagecolor="#ffffff"
     bordercolor="#666666"
     borderopacity="1"
     objecttolerance="10"
     gridtolerance="10"
     guidetolerance="10"
     inkscape:pageopacity="0"
     inkscape:pageshadow="2"
     inkscape:window-width="2439"
     inkscape:window-height="1456"
     id="namedview18"
     showgrid="false"
     inkscape:zoom="3.4231678"
     inkscape:cx="159.35532"
     inkscape:cy="108.49665"
     inkscape:window-x="0"
     inkscape:window-y="0"
     inkscape:window-maximized="0"
     inkscape:current-layer="svg16" />
  <!-- Generator: Sketch 51.3 (57544) - http://www.bohemiancoding.com/sketch -->
  <title
     id="title2">logo-blue</title>
  <desc
     id="desc4">Created with Sketch.</desc>
  <defs
     id="defs7">
    <path
       d="m 168.0048,62.3703 v 64.376 h 24.556 v -8.828 h -14.164 v -55.548 z m 254.848,22.9916 v -10.667 c 0,-7.818 -5.242,-12.877 -14.715,-12.877 -9.472,0 -14.714,5.15 -14.714,12.877 v 39.728 c 0,7.725 5.242,12.877 14.714,12.877 9.473,0 14.715,-5.059 14.715,-12.877 v -19.772 h -14.531 v 8.828 h 4.415 v 10.944 c 0,2.484 -1.931,3.771 -4.599,3.771 -2.851,0 -4.229,-1.287 -4.229,-3.771 v -39.728 c -0.737,-5.059 9.103,-4.875 8.828,0 v 10.667 z M 377.053,81.3151 c 0,4.967 0.093,10.392 0.275,16.277 l -9.564,-35.222 h -11.311 v 64.377 h 9.472 v -18.945 c 0,-5.242 -0.092,-10.853 -0.275,-16.923 l 9.84,35.868 h 11.037 v -64.377 h -9.474 z m -38.534,45.4319 h 10.392 V 62.371 H 338.519 Z M 321.3489,89.4996 c 0,2.484 -1.287,3.771 -3.77,3.771 h -4.69 v -22.072 h 4.69 c 2.483,0 3.77,1.288 3.77,3.771 z m 10.394,0 v -14.53 c 0,-7.818 -4.874,-12.599 -14.164,-12.599 h -15.082 v 64.376 h 10.392 v -24.646 h 3.221 l 6.569,24.646 h 10.393 l -7.066,-26.504 c 3.782,-2.075 5.737,-5.8 5.737,-10.743 z m -44.8217,0 c 0,2.484 -1.287,3.771 -3.77,3.771 h -4.69 v -22.072 h 4.69 c 2.483,0 3.77,1.288 3.77,3.771 z m -3.77,-27.129 h -15.082 v 64.376 h 10.392 v -24.646 h 4.69 c 9.29,0 14.164,-4.784 14.164,-12.601 v -14.53 c 0,-7.818 -4.874,-12.599 -14.164,-12.599 z m -32.3736,52.0519 c 0.551,4.968 -9.198,4.968 -8.553,0 v -39.728 c -0.645,-4.967 9.104,-4.967 8.553,0 z m -4.324,-52.604 c -9.472,0 -14.714,5.149 -14.714,12.876 v 39.728 c 0,7.726 5.242,12.877 14.714,12.877 9.473,0 14.716,-5.059 14.716,-12.877 v -39.728 c 0,-7.818 -5.243,-12.876 -14.716,-12.876 z m -31.2687,52.604 c 0.551,4.968 -9.197,4.968 -8.552,0 v -39.728 c -0.645,-4.967 9.103,-4.967 8.552,0 z m -4.323,-52.604 c -9.472,0 -14.714,5.149 -14.714,12.876 v 39.728 c 0,7.726 5.242,12.877 14.714,12.877 9.472,0 14.716,-5.059 14.716,-12.877 v -39.728 c 0,-7.818 -5.244,-12.876 -14.716,-12.876 z"
       id="path-1" />
    <mask
       id="mask-2"
       fill="#ffffff">
      <use
         xlink:href="#path-1"
         id="use9"
         x="0"
         y="0"
         width="100%"
         height="100%" />
    </mask>
  </defs>
  <path
     d="m 98.48555,84.2364 h 66.754 v 0.403 l -104.261,63.598 51.742,-41.364 z M 59.55245,22.923 v 126.154 l -52.792,-42.204 z"
     id="Path"
     fill="#1c42ff"
     style="fill-rule:evenodd;stroke:none;stroke-width:1" />
</svg>
