<?xml version="1.0" encoding="UTF-8" standalone="no"?>
<!-- Created with Inkscape (http://www.inkscape.org/) -->

<svg
   width="210mm"
   height="297mm"
   viewBox="0 0 210 297"
   version="1.1"
   id="svg192"
   inkscape:version="1.1 (c4e8f9ed74, 2021-05-24)"
   sodipodi:docname="pickle.svg"
   xmlns:inkscape="http://www.inkscape.org/namespaces/inkscape"
   xmlns:sodipodi="http://sodipodi.sourceforge.net/DTD/sodipodi-0.dtd"
   xmlns="http://www.w3.org/2000/svg"
   xmlns:svg="http://www.w3.org/2000/svg">
  <sodipodi:namedview
     id="namedview194"
     pagecolor="#ffffff"
     bordercolor="#666666"
     borderopacity="1.0"
     inkscape:pageshadow="2"
     inkscape:pageopacity="0.0"
     inkscape:pagecheckerboard="0"
     inkscape:document-units="mm"
     showgrid="false"
     inkscape:zoom="0.69219276"
     inkscape:cx="396.56583"
     inkscape:cy="561.25984"
     inkscape:window-width="1920"
     inkscape:window-height="1015"
     inkscape:window-x="0"
     inkscape:window-y="0"
     inkscape:window-maximized="1"
     inkscape:current-layer="layer1" />
  <defs
     id="defs189" />
  <g
     inkscape:label="Layer 1"
     inkscape:groupmode="layer"
     id="layer1">
    <path
       d="m 74.963596,84.880653 c 0.07591,0 0.150078,0.01457 0.225983,0.01457 v -0.01457 c -0.01484,0 -0.02965,0.0021 -0.04449,0.0021 -18.794923,0 -34.862354,-13.643562 -41.522289,-32.968845 -2.113238,6.125845 -3.30161,12.810886 -3.30161,19.831067 v 13.137778 118.941137 13.17478 c 0,29.16526 20.067928,52.81017 44.823899,52.81017 24.755086,0 44.823901,-23.64491 44.823901,-52.81017 v -13.99825 -65.09368 c 0,-29.28552 -20.149939,-53.024047 -45.005385,-53.024047"
       style="fill:#0e560e;fill-opacity:1;fill-rule:nonzero;stroke:none;stroke-width:0.947072"
       id="path68" />
    <path
       d="m 118.66577,19.629179 c -2.96655,-0.401946 -5.97762,-0.630162 -9.03492,-0.630162 H 75.087839 c -18.76613,0 -34.810873,13.617852 -41.465572,32.912296 6.660805,19.326303 22.728236,32.969865 41.523159,32.969865 0.01484,0 0.02879,-0.0029 0.04449,-0.0029 v 0.01457 c 24.749872,0.144826 44.778534,23.816622 44.778534,53.010662 v 65.09368 c 38.42919,-5.96647 68.09747,-44.68077 68.09747,-91.58717 0,-47.435861 -30.34013,-86.500696 -69.40015,-91.781506"
       style="fill:#48c148;fill-opacity:1;fill-rule:nonzero;stroke:none;stroke-width:0.947072"
       id="path72" />
  </g>
</svg>
