<svg xmlns="http://www.w3.org/2000/svg" viewBox="0 0 281.52 285.67"><defs><style>.cls-1{fill:#4e352e;}.cls-2{fill:#e45325;}.cls-3{fill:#be3a26;}.cls-4{fill:#2d1e1c;}.cls-5{fill:#f2f2f2;}.cls-6{fill:#b3b3b3;}.cls-7{fill:#6d4d42;}.cls-8{fill:#ed6d23;}.cls-9{fill:#fff;}</style></defs><title>rotkiLogo</title><g id="Layer_2" data-name="Layer 2"><g id="rotkehlchen"><g id="g899"><rect id="bar" class="cls-1" x="0.02" y="245.37" width="281.5" height="17.5"/><g id="beads"><path id="path875" class="cls-2" d="M71.82,285.57c-21,0-21.1-62,0-62S92.92,285.57,71.82,285.57Zm148.5-56a7.51,7.51,0,0,0-2.5-2.2c1.7,7.1,3.4,24.1-3.4,24.1-.2-5.4-.1-21.1-4.9-25.6-3,.9-8.5,3.6-11.5,11.3a53.88,53.88,0,0,0-2,9.4v.3h0c-2.1,17.6,3,38.8,15.3,38.8,12.8,0,17.8-23.1,15-41a3.29,3.29,0,0,1-2.2.8C224.32,240.37,222.82,233.17,220.32,229.57Zm40.5-6c-21.1,0-21,62,0,62S281.82,223.57,260.82,223.57Zm-225.6,0c-21.1,0-21,62,0,62S56.32,223.57,35.22,223.57Z"/><path id="path877" class="cls-3" d="M42.92,271.77a10,10,0,0,0,6.4-2.3c-2.3,9.2-7,16.1-14,16.1-18.6,0-20.8-48.6-6.4-59.7C24.22,244.27,28.82,271.77,42.92,271.77Zm225.5,0c-14,0-18.7-27.6-14-45.9-14.4,11.1-12.2,59.7,6.4,59.7,7,0,11.7-6.9,14-16.1A10,10,0,0,1,268.42,271.77ZM198,237c-5.9,18.2-1.5,48.6,13.2,48.6,7,0,11.7-6.9,14-16.1a10.65,10.65,0,0,1-6.4,2.3c-13.4,0-18.2-25-14.6-43.2A20,20,0,0,0,198,237Zm-132.6-11.1c-14.4,11.1-12.2,59.7,6.4,59.7,7,0,11.7-6.9,14-16.1a10.65,10.65,0,0,1-6.4,2.3C65.42,271.77,60.72,244.27,65.42,225.87Z"/></g><path id="left_leg" data-name="left leg" class="cls-4" d="M122,240.87c-1.1-.3-14.4-32.9-14.4-32.9s9.3-6.6,9.8-8.6c-2.7-2.7-5.3-8.1-5.3-8.1a40.45,40.45,0,0,0,1.5,6.6s-4-1.8-5.3-5l-8.7,12.4s14.7,33.8,14.6,35.6c-5.5-1.2-10.6,4.6-10.6,4.6,10.7,1.1,7.2,19.5,0,17.5,5.1,11.7,11.2,4.8,11.7-15.1,2.3,1.6,10.4,13,1,15.1,8.7,15.9,18.2-4.4,5.3-16,6.7.5,17.1,8.6,9.1,16,2.9,7.6,8.6,3.6,9.5-2.1C141.52,250.27,131.62,243.27,122,240.87Z"/><path id="right_leg" data-name="right leg" class="cls-4" d="M218.32,221.87c-2.7-3.9-6.7-3.9-10.9-1.4-9.2.3-14.9-.9-43.3,2.8,0,0-.2-2.2-.4-5.3-2.4.3-4.8.4-7.3.5l2.6,13.2c7.6-.3,30.5-5.7,41.5-5.7-4,4.3-10.1,15.9-4.4,20.9.9-15.2,9.5-19.78,13.4-21,3.84,4.64,4.7,20.3,4.9,25.6,6.8,0,5.3-16.9,3.6-24a10.59,10.59,0,0,1,2.3,2.1c2.5,3.5,3.38,10.86,3.8,15.9C231.92,245.47,227,222.07,218.32,221.87Z"/><path id="belly" class="cls-5" d="M203.32,191.17c-23.6,12-53.7,12.3-38.3-17.4a52.27,52.27,0,0,0-3.4,4c2.8-9.9,11.3-18.8,19.2-24.9a93.52,93.52,0,0,0-11.2,6.7c12.9-18.1,25.6-12.5,31.6-38.4-4.7,16.8-23.7,28-40.6,32.5h0c-16.1,9.2-60.4-1.3-74.7-5.8,10-.8,13.7-1.4,13.7-1.4-10.4-3.2-21.9-9.2-33.3-13.3.5,8.2,2.4,16.7,5.6,23.3-1.7-9.2,0-13.8,0-13.8s3.3,19.5,11,30.8c-3-12.1-1.7-16.2-1.7-16.2s6.2,23.3,15.3,31.3a33.74,33.74,0,0,1-1-13.2s1.7,4.6,12.4,13.2c-2.7-6.5,3.7-4.2,8.7,2.7s8,7.5,21.7,4.8c-10,5.7,6,9.7,16.3,8.4-7.4,4.7,16,3.5,29.3.3-7,5.4,17.3,3.1,21.3.4,1.2-.8,3.9-.8,6.9-.2,1.2-.8,2.3-1.6,3.4-2.4C208,206.37,221,182.07,203.32,191.17Z"/><path id="belly_shadows" data-name="belly shadows" class="cls-6" d="M178.92,214.37c-18.7,7.2-47.1,4.2-70.8-5.3a8.17,8.17,0,0,1-.4-1.1s9.3-6.6,9.8-8.6c-2.7-2.7-5.3-8.1-5.3-8.1a40.45,40.45,0,0,0,1.5,6.6s-4-1.8-5.3-5l-8.7,12.4a.1.1,0,0,0,.1.1c-9.3-4.6-17.5-10.2-23.6-16.5,1.4,3.8,2.6,7.5,3.2,9.3-4-5-20.1-21.6-26.2-45.1a102.87,102.87,0,0,0,.6,11.1,97.54,97.54,0,0,1-6.9-28.7,70.92,70.92,0,0,0-.7,9c-2.5-7.1-3.6-16.5-3.8-23.5v-6.6a34,34,0,0,0-1.8,4.6c-.1.4-.2.7-.3,1.1v.1a5,5,0,0,0-.2,1.2,73.25,73.25,0,0,1,.5-22.9c21.2,11.6,45,26.2,59.7,36.6,2.6,1.8-23.1-6.9-20.5-5.1,21.8,14.7,44.6,26.7,66.6,26a62.1,62.1,0,0,0,14.4-2.3c-16.1,9.2-60.4-1.3-74.7-5.8,10-.8,13.7-1.4,13.7-1.4-10.4-3.2-21.9-9.2-33.3-13.3.5,8.2,2.4,16.7,5.6,23.3-1.7-9.2,0-13.8,0-13.8s3.3,19.5,11,30.8c-3-12.1-1.7-16.2-1.7-16.2s6.2,23.3,15.3,31.3a33.74,33.74,0,0,1-1-13.2s1.7,4.6,12.4,13.2c-2.7-6.5,3.7-4.2,8.7,2.7s8,7.5,21.7,4.8c-10,5.7,6,9.7,16.3,8.4-7.4,4.7,16,3.5,29.3.3-7,5.4,17.3,3.1,21.3.4,1.2-.8,3.9-.8,6.9-.2-9.9,6.6-22.4,11.5-38.5,13.8C173.62,218.67,177.12,217.07,178.92,214.37Zm-49.2-37.3c5,2.1,11.5-.7,16.8-7.8C143,172.27,136,176.27,129.72,177.07Zm0,16c3.7,1.2,8.6-.4,12.5-4.5A32.07,32.07,0,0,1,129.72,193.07ZM89.82,154c-1.2,5.5,1.2,12.4,6.7,17.8A51,51,0,0,1,89.82,154Z"/><path id="wing_dark_brown" data-name="wing dark brown" class="cls-4" d="M3.92,81c5.1,10.7,20.1,22.1,35.3,30.9a63.27,63.27,0,0,1,1.2-13.4C25.52,90.27,12,83.57,3.92,81Z"/><path id="tail" class="cls-4" d="M40.72,7.07c-13.1-10.6-20.6-2.6-16.5,8.1-4-1.9-25-24.9-24.2-10.4.5,8.3,19.8,33.3,39.2,58a229.46,229.46,0,0,1,32.6-11.9C59.72,31.27,46.92,12.07,40.72,7.07Z"/><path id="body_brown" data-name="body brown" class="cls-1" d="M275.32,149.87c11.7-36.8-1.6-98.1-116.7-94.7-55.5-26-115.8,3.6-154.7,25.8,19.4,6.3,71.2,36.4,96.2,54,2.6,1.8-23.1-6.9-20.5-5.1,21.8,14.7,44.6,26.7,66.6,26,19.6-.6,52.6-14.4,55.8-39,9.9,1.9,13.6,21.3,12.6,22.8,1.3-1.4,2.8-16.2,9.8-19.8,0,0-2.9,8.3-2.1,10.5,3.7-11.7,32.3-13.5,27.7,15.4,1.3-1.3,3.7-9.9,3.7-9.9-3.4,21.4,4.9,30,13,31.4,3.8-.7,11.2-14.3,12.1-22.8A25.24,25.24,0,0,1,275.32,149.87Z"/><path id="body_brown_shading" data-name="body brown shading" class="cls-4" d="M45.82,66c10.5-6.5,47.2-22.5,85.2-15C93.62,49,45.82,66,45.82,66Zm112.8-10.8a80,80,0,0,0-8.7-3.6,148.82,148.82,0,0,1,31.4,27.6c-3.2-5.6-7-15.6-13.8-24.1C164.62,55.07,161.62,55.07,158.62,55.17Z"/><path id="body_highlights" data-name="body highlights" class="cls-7" d="M168.32,141.17c-42.8,5.8-61.4-6.5-59.7-8.3C127.82,143.07,162.62,140.77,168.32,141.17Zm-71-29c-1.7,1.7,16.9,14.1,59.7,8.3C151.32,120.07,116.62,122.37,97.32,112.17Zm93,9.2c2,.8,11.3-8.9-.9-30.1C189.82,94.17,197.32,111.37,190.32,121.37Zm76.7-16.9c-19.8-30.7-51.5-33.4-58.6-31.4C247,78.27,262.62,102,267,104.47Z"/><path id="body_orange" data-name="body orange" class="cls-2" d="M263.82,172.67c1.9-2.1,6.6-3.9,8.5-4.8-1.1-.1-4.3.8-7.4,1.8.6-.8,1.2-1.5,1.8-2.4-8.2-1.4-16.4-10-13-31.4,0,0-2.5,8.6-3.7,9.9,4.6-29-24-27.1-27.7-15.4-.8-2.2,2.1-10.5,2.1-10.5-7,3.6-8.5,18.4-9.8,19.8,1-1.5-2.8-20.9-12.6-22.8a31.48,31.48,0,0,1-.9,4.2c-6,25.9-18.7,20.3-31.6,38.4a93.52,93.52,0,0,1,11.2-6.7c-8,6.1-16.4,15-19.2,24.9a52.27,52.27,0,0,1,3.4-4c-15.3,29.7,14.7,29.4,38.3,17.4,17.8-9.1,4.6,15.4,12.2,11.3,10.9-5.8,15.8-15.1,18.7-20.3-2,4.3-3.5,7.4-3.5,7.4,7-5.3,9.6-14.5,15.2-15.6-1.7-4-2.5-7.1-1.3-7.9,1.8-1.1,7.5,4.4,9.9,5.7.6-.4.5-1.7.5-1.7a15.72,15.72,0,0,0,4.5,4.4c.5-1.2,1.2-.5,1.3-.5h0a10.89,10.89,0,0,1,5.9,1.9A13.88,13.88,0,0,0,263.82,172.67Z"/><path id="orange_shading" data-name="orange shading" class="cls-3" d="M245.92,130.87c-7.4-7-16.1-4.2-19.9.6C229,122.57,241.92,121.37,245.92,130.87Zm-16.5,50.4c-1.2,3.4-10.1,14-16.1,14.6C216,197.37,228.92,190.27,229.42,181.27Zm-37.6-19.1c-2.4,2.4-7.7,6.3-12.7,6.9C180.62,170,187.52,168.27,191.82,162.17Zm-19.7,18.4c-1.3,1.7-4.3,4.2-7.8,3.9C165.52,185.57,170.12,185.27,172.12,180.57Zm24.2-3.5c-1.3,1.7-4.3,4.2-7.8,3.9C189.72,182.07,194.32,181.77,196.32,177.07Zm25.8-1.3c-1.3,1.7-4.3,4.2-7.8,3.9C215.52,180.77,220.12,180.47,222.12,175.77Zm-23.3,8.2c-1.7,3.5-17.2,13.1-24.1,10.7C177.52,197.87,197.22,194.67,198.82,184Z"/><path id="eye_orange_highlight" data-name="eye orange highlight" class="cls-8" d="M245.12,147.57c-5.6,3.4-12.3,3.7-17.2-.3C228.92,150.47,238.72,154.47,245.12,147.57Z"/><path id="tail_highlights" data-name="tail highlights" class="cls-1" d="M44.32,64c-21-24.3-41.2-56.5-41.2-61.2C3.12,2.77,19.32,28.77,44.32,64Zm10.5-15.9c-.2-3-13.9-23-27.6-37.9C43.92,32,54.82,48.07,54.82,48.07Z"/><path id="beak" d="M259.52,174.47a13.5,13.5,0,0,1-4.5-4.4s.1,1.3-.5,1.7c-2.4-1.3-8.1-6.8-9.9-5.7-1.2.8-.4,3.9,1.3,7.9,2.4,5.8,6.6,13.6,8.9,18.9.9,2.1,6.5,9.4,6-18.9h0C260.72,173.87,260,173.17,259.52,174.47Z"/><g id="eye"><circle id="circle894" cx="236.02" cy="138.37" r="11"/><path id="path896" class="cls-9" d="M239.52,132c.2,1.4-1.4,2.8-3.5,3.1s-4.1-.6-4.3-1.9,1.4-2.8,3.5-3.1S239.22,130.57,239.52,132Zm3.1,12.2a7.82,7.82,0,0,1-4.9,2.7c-.2-.2-.5-.2-.9-.2a1.14,1.14,0,0,0-.7.3,12.11,12.11,0,0,1-6.1-1.5,7.83,7.83,0,0,0,6,2.3,1.49,1.49,0,0,0,1,.3c.4-.1.7-.2.8-.5C240.42,147,242.52,145.67,242.62,144.17Z"/></g></g></g></g></svg>