<svg xmlns="http://www.w3.org/2000/svg" fill="none" viewBox="0 0 71 62">
  <linearGradient id="a" x1="0" x2="70.129" y1="31.002" y2="31.002" gradientUnits="userSpaceOnUse">
    <stop offset=".443" stop-color="#fff" class="stop1"/>
    <stop offset=".505" stop-color="#8d9aca" class="stop2"/>
    <stop offset="1" stop-color="#c8643b" class="stop3"/>
  </linearGradient>
  <path fill="url(#a)" d="M67.592 20.401 56.46 18.565l8.5-3.584 1.919-7.734-2.243-4.016L53.673 0l5.58 8.065h-.004l.033.046-4.351 1.097-10.747-7.442-9.12 1.092-9.12-1.092-10.748 7.442-4.35-1.096.033-.047h-.005L16.455.001 5.492 3.23 3.25 7.248l1.92 7.734 8.5 3.584L2.54 20.4 0 27.302l7.634 3.72 7.212-2.563 1.036 7.763 4.74 11.138 2.308 6.045 11.17 7.907.95.67v.013l.007.005.01-.007.01.007.006-.005v-.014l.95-.669 11.168-7.91 2.308-6.044 4.74-11.139 1.036-7.763 7.213 2.564 7.633-3.72zM6.248 4.188l7.46-2.2-4.048 5.85-4.937-.918zM4.605 8.046l4.346.814-3.056 4.377zm10.139 19.25L7.7 29.799 1.41 26.73l1.956-5.319 11.38-1.874zm0-9.503-8.24-3.473 3.644-5.22 4.593 1.156zm20.32 30.738-2.842-2.354-3.576-9.542h12.837l-3.576 9.544zm.44-13.03h-7.198l-2.883-9.956h19.282l-2.883 9.957zm0-11.088H25.073l-1.063-3.59L35.064 4.736l11.053 16.087-1.063 3.591zM15.867 16.49v-6.373l10.365-7.178 8.012.96.053.007-.023.023L23.009 20.23zm5.795 30.443-4.687-11.018-1.047-7.8 8.426-2.223 2.932 10.126-2.372 4.996-3.197 6.061zm.59 1.543 3.336-6.326 8.602 7.123-.288.24-10.167 2.843zm12.812 12.139-10.377-7.352 10.377-2.904 10.378 2.904zm11.328-8.26-10.166-2.844-.288-.24 8.602-7.123 3.336 6.327zm6.76-16.44-4.688 11.017-.056.144-3.196-6.062-2.372-4.996 2.931-10.126 8.427 2.223zm1.11-19.425-7.14 3.74L35.856 3.93l-.023-.023.053-.007 8.011-.96 10.365 7.178zm9.974-3.255-3.057-4.377 4.346-.81zM56.42 1.992l7.46 2.2 1.525 2.728-4.937.92zm-1.035 8.272 4.592-1.156 3.644 5.22-8.239 3.473zm7.043 19.538-7.043-2.501v-7.764l11.38 1.874 1.956 5.319z"/>
</svg>