<?xml version="1.0" standalone="no"?>
<!DOCTYPE svg PUBLIC "-//W3C//DTD SVG 20010904//EN"
 "http://www.w3.org/TR/2001/REC-SVG-20010904/DTD/svg10.dtd">
<svg version="1.0" xmlns="http://www.w3.org/2000/svg"
 width="400.000000pt" height="400.000000pt" viewBox="0 0 400.000000 400.000000"
 preserveAspectRatio="xMidYMid meet">

<g transform="translate(0.000000,400.000000) scale(0.100000,-0.100000)"
fill="#000000" stroke="none">
<path d="M900 2875 c0 -5 300 -538 375 -665 17 -30 44 -77 59 -103 l28 -49 65
114 c36 62 135 237 221 388 85 151 162 285 170 298 l14 22 -466 0 c-256 0
-466 -2 -466 -5z"/>
<path d="M2077 2863 c-2 -4 -110 -190 -239 -413 -130 -223 -302 -520 -383
-660 -82 -140 -204 -351 -271 -467 l-123 -213 1020 0 c560 0 1019 2 1019 5 0
3 -24 47 -53 98 -70 120 -242 417 -402 692 -128 221 -257 443 -440 760 -115
199 -121 209 -128 198z m131 -678 c280 -486 368 -637 423 -731 32 -55 59 -103
59 -107 0 -4 -272 -7 -605 -7 -333 0 -605 2 -605 5 0 12 46 94 193 347 85 145
204 351 266 458 144 247 141 244 151 234 4 -5 57 -94 118 -199z"/>
</g>
</svg>
