<?xml version="1.0" standalone="no"?>
<!DOCTYPE svg PUBLIC "-//W3C//DTD SVG 20010904//EN"
 "http://www.w3.org/TR/2001/REC-SVG-20010904/DTD/svg10.dtd">
<svg version="1.0" xmlns="http://www.w3.org/2000/svg"
 width="400.000000pt" height="400.000000pt" viewBox="0 0 400.000000 400.000000"
 preserveAspectRatio="xMidYMid meet">

<g transform="translate(0.000000,400.000000) scale(0.100000,-0.100000)"
fill="#000000" stroke="none">
<path d="M2174 3760 c-41 -13 -67 -42 -145 -168 l-68 -107 57 -12 c165 -34
412 -141 523 -225 114 -87 269 -243 344 -344 10 -15 17 -4 44 72 55 151 75
236 66 290 -6 40 -15 56 -60 99 l-53 52 -59 -19 c-108 -37 -234 -5 -320 82
-39 38 -74 112 -61 126 3 3 35 -17 70 -44 74 -56 168 -88 226 -77 l36 7 -129
84 c-240 158 -380 212 -471 184z"/>
<path d="M1654 3420 c-81 -11 -135 -26 -203 -56 -75 -33 -132 -74 -129 -92 2
-8 72 -49 156 -91 84 -43 157 -82 163 -88 8 -8 4 -15 -12 -27 -40 -28 -83 -30
-148 -7 -80 28 -116 26 -180 -5 -62 -31 -75 -50 -91 -129 -19 -99 -45 -142
-106 -176 -30 -17 -65 -45 -80 -62 -36 -43 -30 -105 16 -172 41 -60 49 -121
25 -185 -35 -93 -33 -102 33 -167 79 -77 112 -143 112 -223 0 -75 10 -95 55
-110 43 -14 91 -53 110 -89 7 -15 17 -55 21 -89 8 -75 25 -99 103 -146 59 -36
86 -74 76 -107 -6 -17 -17 -19 -106 -19 -94 0 -100 -1 -129 -27 -24 -22 -33
-41 -42 -92 -12 -72 -34 -101 -76 -101 -18 0 -38 -10 -53 -26 -23 -24 -24 -33
-24 -142 0 -117 0 -117 41 -202 23 -47 49 -94 58 -105 14 -19 15 -14 16 65 0
137 43 242 129 323 73 69 127 90 238 95 86 4 96 2 157 -26 160 -75 259 -272
217 -429 -37 -138 -175 -227 -299 -193 -59 15 -146 100 -161 155 -23 83 -7
155 43 197 27 23 99 23 133 1 34 -22 56 -75 44 -105 -20 -52 -81 -68 -112 -30
-22 27 -29 18 -18 -21 25 -90 135 -103 205 -25 49 53 56 165 15 232 -23 37
-91 88 -140 104 -131 45 -275 -39 -317 -185 -52 -180 48 -386 229 -472 280
-134 633 -37 759 206 47 90 59 148 59 268 -1 213 -70 373 -268 616 -513 632
-593 745 -644 913 -57 184 28 340 226 412 72 26 187 41 231 29 26 -6 19 -10
-66 -39 -109 -37 -167 -71 -204 -119 -92 -120 -73 -275 55 -450 114 -155 299
-400 424 -562 295 -380 344 -462 380 -636 16 -75 19 -233 6 -312 -4 -26 -5
-47 -2 -47 12 0 99 95 123 135 33 53 68 149 68 184 0 17 -12 41 -31 62 -43 48
-50 72 -43 145 10 95 -10 139 -99 215 -39 34 -103 100 -141 148 -86 105 -426
555 -422 558 1 2 18 -2 37 -7 78 -23 190 -10 310 36 l67 25 56 -25 c112 -50
204 -70 317 -71 100 0 108 1 153 30 45 28 97 97 84 111 -4 3 -35 -1 -70 -10
-36 -9 -85 -16 -110 -16 -75 0 -195 37 -314 97 l-114 57 -47 -23 c-142 -65
-347 -67 -470 -4 -111 57 -150 227 -66 292 49 39 96 46 176 27 40 -10 78 -20
86 -23 11 -5 13 2 8 34 -7 42 8 113 24 113 5 0 23 -6 38 -14 23 -12 27 -20 23
-44 -6 -46 13 -72 53 -72 25 0 39 6 50 24 14 21 19 23 45 13 19 -7 30 -19 30
-30 0 -24 -62 -87 -85 -87 -43 0 7 -29 214 -126 260 -121 298 -134 402 -134
85 0 122 10 157 42 41 39 30 54 -46 61 -67 5 -197 50 -305 104 -50 25 -50 25
-15 75 l19 28 57 -29 c103 -51 237 -100 294 -107 67 -8 117 7 164 48 51 45 45
54 -39 61 -138 10 -199 55 -417 303 -218 249 -346 358 -515 439 -209 101 -455
150 -631 125z m160 -500 c5 -5 -4 -12 -20 -15 -156 -34 -261 -84 -327 -154
-160 -171 -134 -410 78 -720 73 -108 337 -455 449 -591 233 -283 317 -463 286
-614 -12 -61 -51 -120 -103 -160 -44 -33 -48 -33 -36 7 18 60 12 196 -12 267
-41 126 -73 175 -319 491 -321 414 -346 448 -438 606 -125 214 -155 302 -156
448 -1 126 23 198 95 278 83 94 189 150 314 167 66 9 175 3 189 -10z"/>
</g>
</svg>
