<svg xmlns="http://www.w3.org/2000/svg" width="500.735" height="500.731" viewBox="0 0 132.486 132.485"><g transform="matrix(.119008 0 0 .119008 5.310784 5.31031)"><ellipse cx="512" cy="512" rx="512.004" ry="512" fill="#28d17e"/><path d="M586.673 326.281l-9.978 3.149V367a43.834 43.834 0 0 1-30.176 41.527l-102.594 32.299v55.681l134.835-42.519c31.987-9.955 51.078-37.57 51.078-73.825v-24.916c0-17.014-19.495-36.497-43.165-29.011M372.118 310.35l190.608-60.041c20.821-6.552 37.34-6.194 47.294-5.029l-23.901-17.453c-11.016-7.982-44.618-26.658-86.041-13.462l-181.103 57.099zm290.399 164.954s33.66-30.557 33.66-96.227v-27.788c0-43.246-49.798-113.495-129.518-88.314l-189.108 59.637v350.671l53.062-16.738v-86.191l170.721-53.812c31.814-9.932 58.288 15.065 58.288 42.75v34.179c0 34.79-30.73 84.138-78.912 99.272l-261.688 82.535 53.062 38.943 235.792-74.333c49.774-15.838 104.867-58.541 104.867-149.208v-34.906c0-54.827-50.259-80.47-50.259-80.47m-79.778-8.582l-152.046 47.952v-153.13l151.977-47.952c31.733-9.932 60.445 15.423 60.445 41.642v24.928c0 43.615-23.866 75.071-60.341 86.514m63.651 126.772V559.35c0-19.287-18.641-37.236-41.1-30.142l-12.008 3.784v47.294a52.901 52.901 0 0 1-37.143 50.651L364.32 691.405V321.124l-53.062-38.943v481.653l265.599-83.734c41.654-13.127 69.627-55.369 69.627-86.606"/></g></svg>
