<svg width="1256" height="290" viewBox="0 0 1256 290" fill="none" xmlns="http://www.w3.org/2000/svg">
<path d="M170.484 187.527H119.341V238.671H170.484V187.527Z" fill="#6CD0D9"/>
<path d="M205.805 119.336H119.341V170.48H205.805H221.628V119.336H205.805Z" fill="#0AB5CC"/>
<path d="M272.771 51.1436H119.341V102.287H272.771V51.1436Z" fill="#1297B2"/>
<path d="M102.287 119.336H51.1436V170.48H102.287V119.336Z" fill="#CC1423"/>
<path d="M323.845 238.669H363.495V161.199H439.775V128.508H363.495V83.8209H448.016V51.1297H323.845V238.669Z" fill="black"/>
<path d="M467.544 83.8209H524.96V238.669H564.152V83.8209H621.568V51.1297H467.544V83.8209Z" fill="black"/>
<path d="M684.112 51.1297H639.15L696.749 144.899L638.051 238.669H683.471L721.931 174.66H723.396L761.856 238.669H807.459L748.945 144.899L806.177 51.1297H761.398L723.396 115.047H721.931L684.112 51.1297Z" fill="black"/>
<path d="M1016.24 51.1297V174.111C1016.24 203.963 994.999 225.757 962.307 225.757C929.616 225.757 908.371 203.963 908.371 174.111V51.1297H891.247V175.301C891.156 213.578 920.093 241.874 962.307 241.874C1004.61 241.874 1033.37 213.578 1033.37 175.301V51.1297H1016.24Z" fill="black"/>
<path d="M1184.96 98.0146H1201.54C1200.26 69.5357 1175.62 48.4741 1140.74 48.4741C1106.12 48.4741 1079.47 69.261 1079.47 99.4797C1079.47 123.563 1096.51 138.673 1125.9 147.372L1148.34 153.965C1171.6 160.741 1187.53 169.441 1187.53 188.579C1187.53 211.106 1167.11 226.215 1139.09 226.215C1113.81 226.215 1094.03 214.036 1092.2 191.784H1074.62C1076.63 221.454 1100.81 241.874 1139.09 241.874C1179.74 241.874 1204.1 218.89 1204.1 188.854C1204.1 157.719 1177 145.266 1153.19 138.581L1133.41 132.903C1115.19 127.775 1096.05 118.527 1096.05 98.7471C1096.05 78.6013 1114.09 63.8582 1140.28 63.8582C1165.09 63.8582 1182.86 77.1361 1184.96 98.0146Z" fill="black"/>
</svg>
