<svg width="394" height="241" viewBox="0 0 394 241" fill="none" xmlns="http://www.w3.org/2000/svg">
<path fill-rule="evenodd" clip-rule="evenodd" d="M153.363 15.696C138.321 5.232 120.336 0 99.408 0C78.48 0 60.495 5.232 45.453 15.696C30.411 25.942 19.075 40.112 11.445 58.206C3.815 76.3 0 97.01 0 120.336C0 143.662 3.815 164.372 11.445 182.466C19.075 200.56 30.411 214.839 45.453 225.303C60.495 235.549 78.48 240.672 99.408 240.672C120.336 240.672 138.321 235.549 153.363 225.303C168.405 214.839 179.741 200.56 187.371 182.466C195.001 164.372 198.816 143.662 198.816 120.336C198.816 97.01 195.001 76.3 187.371 58.206C179.741 40.112 168.405 25.942 153.363 15.696ZM127.734 55.9953C120.426 48.3131 110.984 44.472 99.408 44.472C83.93 44.472 72.158 51.339 64.092 65.073C56.244 78.807 52.32 97.228 52.32 120.336C52.32 134.842 53.8664 147.502 56.9593 158.314L127.734 55.9953ZM70.8736 184.651C78.3074 192.35 87.8189 196.2 99.408 196.2C114.886 196.2 126.549 189.333 134.397 175.599C142.463 161.865 146.496 143.444 146.496 120.336C146.496 105.785 144.897 93.0931 141.699 82.2592L70.8736 184.651Z" fill="#26272B"/>
<path d="M260.905 145.188L199.429 235.44H258.289L287.065 184.428C289.245 180.94 290.553 176.362 290.989 170.694C291.207 168.514 291.643 166.879 292.297 165.789C292.951 164.481 294.259 163.827 296.221 163.827C299.273 163.827 301.017 165.789 301.453 169.713V170.694C301.889 176.362 303.197 180.94 305.377 184.428L334.153 235.44H393.013L331.537 145.188L387.781 62.784H328.921L305.377 105.621C302.761 110.199 301.453 114.777 301.453 119.355C301.453 121.317 301.017 122.952 300.145 124.26C299.491 125.568 298.183 126.222 296.221 126.222C294.259 126.222 292.842 125.568 291.97 124.26C291.316 122.952 290.989 121.317 290.989 119.355C290.989 114.777 289.681 110.199 287.065 105.621L263.521 62.784H204.661L260.905 145.188Z" fill="#26272B"/>
</svg>
