<svg xmlns="http://www.w3.org/2000/svg" fill="none" width="56" height="56"><g clip-path="url(#A)"><path d="M14.145 33.616l1.4-10.544-12.162-8.444 11.112 3.762 2.625-4.025 9.581-5.95 21.131 11.637 1.094 17.763-9.406 13.081-7.437 1.138 3.85-7.044v-6.781l-2.8-5.294-2.844-1.881-4.375 4.506v4.769l-3.413 3.194-4.331.525-1.925 1.094-3.15-1.006-1.312-4.725 2.362-3.325z" fill="#fff"/><g fill="#94a6c3"><path d="M33.57 14.541c-2.319-.481-4.856-.35-4.856-.35s-.831 3.85-5.994 4.856c.044 0 6.825 2.319 10.85-4.506zm2.1 34.912c2.8-2.187 4.9-5.206 5.862-8.619.044-.131.438-.35.7-.525.438-.263.875-.481.962-.831a18.22 18.22 0 0 0 .263-3.106c0-.394-.394-.788-.788-1.181-.306-.263-.612-.569-.612-.788-.437-3.981-2.275-7.7-5.206-10.413l-.306.306c2.844 2.669 4.681 6.3 5.075 10.15.044.35.394.7.744 1.05.306.263.656.656.656.831a17.49 17.49 0 0 1-.263 3.019c-.044.175-.437.35-.744.525-.437.219-.831.438-.919.788a16.17 16.17 0 0 1-6.65 9.056l3.325-7.219-.175-6.475-5.556-5.381-3.15.438-3.456 5.6s1.619 2.056-.656 4.462c-2.231 2.362-3.981 2.888-3.981 2.888l-1.619-.875c.481-.612 1.444-1.531 2.188-2.144 1.269-1.05 2.538-1.138 2.538-2.275.044-2.362-2.494-1.706-2.494-1.706l-.919.875-.394 3.237-1.925 2.406-.219-.044-3.15-.7s1.925-1.006 2.231-2.144c.306-1.094-.613-4.725-.656-4.944.044.044.919.788 1.313 2.013.7-1.925 1.619-3.763 1.881-3.937s3.806-2.056 3.806-2.056l-1.181 3.106.875-.481 2.1-5.163s2.056-1.006 3.587-1.006c2.756-.044 6.825-3.413 4.987-9.45.525.219 9.625 4.769 11.2 13.694 1.181 6.869-2.712 13.3-9.275 17.019z"/></g><g fill="#1b314f"><path d="M25.258 15.503c1.006-1.181.613-2.931.613-2.931l-2.931 4.331c-.044 0 1.05.044 2.319-1.4zm-9.844 23.669l.35-1.75-1.575 2.888c-.131.394.088 1.094.656 1.05s1.269-.875 1.269-1.487c0-.788-.7-.7-.7-.7zm25.988-27.825l4.462.35c-5.119-4.025-9.975-5.206-13.913-5.206-5.425 0-9.1 2.231-9.319 2.363l1.706-2.713s-6.825-.656-9.231 6.562c-.613-1.531-1.181-3.762-1.181-3.762s-3.544 3.106-1.881 8.269L1.939 13.622c-.306-.044-.394.088-.394.088s-.087.131.175.35c.481.394 9.669 7.175 11.681 8.488-.437 1.575-.437 2.319 0 3.063.613 1.006.656 1.531.569 2.275l-1.05 7.963c-.175.788-2.012 3.587-1.925 4.419s1.225 4.375 2.231 4.769c.744.263 2.581.831 3.806.831.438 0 .831-.088 1.006-.263.744-.656.962-.788 1.488-.788h.131c.219 0 .481.044.788.044.7 0 1.619-.131 2.275-.744.962-.963 2.625-2.275 3.15-2.888.656-.831 1.006-1.969.831-3.106-.131-1.05.438-1.969 1.094-2.888l2.363-3.062c3.019 2.275 4.9 5.731 4.9 9.581 0 6.825-5.95 12.338-13.3 12.338-1.137 0-2.231-.131-3.325-.394 3.369 1.181 6.213 1.575 8.531 1.575 4.944 0 7.569-1.794 7.569-1.794s-.919 1.181-2.406 2.538h.044c8.181-1.138 12.163-7.875 12.163-7.875s-.306 2.188-.7 3.675c10.894-8.181 9.056-18.419 9.013-18.769.087.131 1.181 1.444 1.75 2.144 1.75-18.025-12.994-23.844-12.994-23.844zM24.645 40.134c-.175.219-.919.875-1.444 1.356s-1.094.962-1.531 1.4c-.175.175-.525.263-1.05.263h-.481-.262-.175-.394c.656-.875 2.581-2.888 3.237-3.325.788-.525 1.181-1.05.7-1.969s-1.75-.7-1.75-.7.744-.306 1.4-.306c-.831-.219-1.881 0-2.363.481-.525.481-.437 2.188-.656 3.281-.219 1.138-.962 1.706-2.1 2.756-.613.569-1.05.744-1.4.744-.744-.131-1.619-.35-2.231-.569-.437-.569-1.094-2.45-1.269-3.237.131-.437.656-1.356.919-1.881.525-1.006.831-1.575.919-2.1.175-.744.744-5.337.963-7.262.569.744 1.356 1.969 1.181 2.756 1.269-1.794.35-3.544-.087-4.244-.394-.7-.919-2.1-.481-3.587s2.012-5.6 2.012-5.6.525.919 1.269.744 6.738-9.188 6.738-9.188 1.619 3.544-.087 6.125c-1.75 2.581-3.456 3.063-3.456 3.063s2.406.438 4.637-1.181c.919 2.144 1.794 4.375 1.837 4.681l-2.056 4.769c-.088.087-.7.262-1.138.35-.744.219-1.181.35-1.356.481-.306.262-1.706 4.112-2.363 5.994-.788.219-1.575.656-2.144 1.531.306-.219 1.269-.35 1.969-.437.613-.044 2.494.962 2.975 2.844v.087c.087.7-.131 1.356-.481 1.881zm-4.113.525c.394-.569.35-1.531.394-1.837s.131-.875.481-.962 1.181.044 1.181.656c0 .569-.613.7-1.05 1.094-.306.306-.919.962-1.006 1.05zm17.456-8.356c.438-2.231.481-4.156.35-5.731 1.706 2.275 2.756 5.031 3.063 7.875.044.35.394.7.744 1.05.306.263.656.612.656.831a17.59 17.59 0 0 1-.263 3.019c-.044.131-.437.35-.744.525-.437.219-.831.438-.919.788a16.29 16.29 0 0 1-5.775 8.444c4.069-4.244 6.038-11.244 2.888-16.8zm-2.756 17.194c2.844-2.187 5.031-5.25 5.994-8.706.044-.131.438-.35.7-.525.438-.219.875-.481.962-.831a18.22 18.22 0 0 0 .263-3.106c0-.394-.394-.788-.788-1.181-.219-.263-.569-.569-.569-.788-.35-3.194-1.619-6.212-3.587-8.706-.875-5.25-4.375-6.869-4.462-6.913.087.131 2.362 3.413.788 7.262-1.619 3.894-5.775 3.281-6.125 3.325-.35 0-1.706 1.75-3.413 4.987-.219-.087-1.138-.306-2.187-.131.787-2.187 1.969-5.294 2.188-5.556.087-.087.744-.262 1.181-.394.831-.219 1.225-.35 1.356-.525.087-.131.525-1.137.962-2.187.394 0 1.4-.087 1.487-.131.087-.087.919-2.231.919-2.494 0-.219-1.706-4.463-2.363-6.081.306-.35.613-.788.919-1.269 8.969.962 15.969 8.575 15.969 17.806 0 7.087-4.156 13.256-10.194 16.144zM23.595 25.872c.831-.962.394-2.756-1.137-3.062.394-.919.962-2.756.962-2.756l-4.856 7.131c-.394.131-.788-1.4-.788-1.4-.831 3.194 1.4 3.631 1.663 2.625 1.225-.306 3.325-1.619 4.156-2.538z"/></g><path d="M19.789 27.578l2.275-3.894s1.313.656.656 1.706c-.831 1.225-2.931 2.188-2.931 2.188z" fill="#ffd923"/><g fill="#d82122"><path d="M47.92 45.603c-.656.875-1.4 1.794-2.275 2.669 5.644-10.85.263-20.781.044-21.175a28.91 28.91 0 0 1 1.138 1.225c4.331 4.813 4.856 12.031 1.094 17.281zm5.25-13.956c-1.969-5.294-4.769-9.8-10.937-13.869-5.95-3.937-12.337-3.631-12.687-3.588h-.087c.219-.088.438-.131.656-.175 1.356-.437 3.106-.787 4.856-1.006 4.638-.656 9.319.919 12.512 4.288l.087.087c3.631 3.85 5.513 8.662 5.6 14.263zM40.833 9.991c-6.519-1.225-10.719-.613-13.737.525-.087-.35-.394-1.05-.656-1.619-.919 1.094-1.881 2.406-2.494 3.238-1.663 1.137-2.363 2.231-2.363 2.231.962-3.281 3.762-5.731 7.175-6.344.962-.175 2.012-.263 3.15-.263 3.019.044 6.038.788 8.925 2.231zm-24.107 8.4c-5.119-.175-3.412-6.125-3.325-6.475 0 .044.35 4.681 3.325 6.475zm5.032-10.719c-3.937 2.363-3.15 8.006-3.15 8.006-3.762-5.731 2.844-7.875 3.15-8.006z"/></g><path d="M15.283 19.966c.262.219.525.613.219 1.181-.175.306-.437.262-.831.087-.525-.262-3.675-2.1-6.519-3.981l7.044 2.625.088.087z" fill="#fff"/><path d="M9.663 14.772s1.668-10.05 12.159-13.078 16.461 1.097 16.461 1.097l-3.38 3.204-9.13-.132-1.931.702 1.097-1.624-7.111 3.73-2.283 2.765.044-2.765-2.239 2.282z" fill="#d82122"/><path d="M37.536 3.23s-6.101-.483-9.349.79c1.317-1.053 2.282-1.536 2.282-1.536s-8.428-.176-13.432 6.188c1.317-.351 3.38-2.063 3.38-2.063l4.565-1.668-.527 1.58 5.882-.922 3.643.351z" fill="#af1c24"/><g fill="#fff"><path d="M38.722 7.092L32.05 5.6l-7.33.527.22-1.185-6.101 2.94-2.502 1.975.088-1.668s-6.453 4.959-5.18 10.05c1.229 5.091 6.891 2.37 6.891 2.37l6.145-6.89 18.875-3.642-5.399-2.37zm8.339-.878l-.922-3.116L43.725.991s-3.468-.263-4.258.965l-.878 1.624 1.975 2.238 3.95 1.273-.263-1.273z"/></g><g fill="#94a6c3"><path d="M29.504 10.032s.307-.79 3.512-1.712c-9.788-.614-15.056 9.831-15.714 10.401-.658.527-2.721 1.843-1.317-.351-1.317.702-3.336.263-1.361-1.317-4.126-1.141 1.361-8.075 1.361-8.075l-3.029 1.712-3.512 5.047-.878 4.959 1.185 3.116 2.853 1.141 4.214-1.141 2.634-2.501 1.01-2.809 2.502-1.404 5.443-3.16 4.389-1.36 6.935-.439-.351-1.097s1.097-.57 2.019-1.185c-6.935-1.492-11.895.175-11.895.175zM46.93 5.643c-.746-1.097-3.819-1.273-5.136-1.975-1.317-.658-1.053-1.492-.702-2.502l-1.668.878-.922 1.141 1.756 2.326 4.433 1.668-.658-1.712c.088.044 3.643 1.273 2.897.176zm-3.995-2.194s-.922-.439-1.053-.965c0 .746-.483.79 1.053.965zM19.32 13.938c.22-.483 1.887-2.765 2.897-3.16-2.458.307-3.292 1.141-3.292 1.141s-.307 1.843-1.668 3.335c0 0 1.844-.834 2.063-1.317z"/></g><g fill="#1b314f"><path d="M29.504 11.919l3.775-.966-2.239-.263s-1.141.439-1.536 1.229zM14.58 20.565c-.571-.088-1.185-.878-1.185-.878s-.132 1.404 1.185.878zm.526 2.326s.834-.395 1.273-1.536c-.658.527-2.985.878-2.985.878.527.439 1.712.658 1.712.658zM48.949 7.882l-.658-1.448c-.351-.746-.658-1.317-1.053-1.799l.702.044-.439-1.009c-.044-.088-.966-2.107-3.863-3.072-2.721-.878-4.346.483-5.004 1.668-2.063-1.317-7.813-3.95-16.899-1.097C12.78 3.976 9.707 10.383 8.654 15.123c-.219-.219-.483-.527-.615-.79-.219.79.219 1.843.351 2.194-.132.922-.219 1.712-.219 2.37-.307.088-1.273.483-1.668 1.404.439-.176 1.536-.044 1.624 0-.044.044-.658.483-.746 1.009.351-.132.79.088.79.088.044.307.088.614.176.878.615 2.019 2.195 3.116 4.477 3.116h.307c6.321-.263 7.769-5.31 8.077-6.846.614-.219 1.843-.702 3.599-1.624.878-.219 1.756-.439 2.502-.702.132-.351.263-.658.351-1.009.132-.088.219-.132.351-.22 4.17-2.765 12.642-2.107 12.729-2.107l2.107.176-2.283-1.887c.966 0 2.107.044 2.985.176l2.546.395-2.063-1.58c-1.361-1.009-3.029-1.799-4.389-2.37l1.931-.219-2.546-.965c-1.141-.439-2.282-.79-3.38-1.009.922-.483 1.975-.922 2.678-1.185.044.132.132.263.219.395 1.273 2.063 5.75 2.809 6.277 2.896l1.536.263-.878-1.229a23.1 23.1 0 0 1 2.019.614zm-12.993-.878l-1.975.439 2.59.702c.044 0 2.239.614 4.389 1.712-1.185 0-2.239.044-2.282.044l-1.756.088 1.888 1.536c-2.722-.044-7.594.22-10.886 2.019.088-2.633-1.317-4.564-1.317-4.564L17.74 20.345s1.01-.351 1.8-.834c-.658 1.755-2.282 4.345-6.409 4.52h-.614c-3.029-.263-4.038-5.003-1.097-4.52-.527-.658-.746-1.317-.746-1.317s1.01-.307 1.492-.79c-1.887.088-2.283-.439-.483-3.687a16.23 16.23 0 0 1 3.731-4.037c-.132.658-.132 1.053-.132 1.053l-.176 2.502 1.405-2.107c.044-.044 2.195-3.248 7.111-4.959l-1.054 1.36 2.019-.614c0 .044 5.18-1.448 11.369.088zM33.63 5.205c-3.248-.439-6.057-.176-7.725.132l.878-1.317-1.624.395c-3.95.922-6.628 2.853-8.12 4.257 0-.088.044-.132.044-.219l.395-1.536-1.361.79c-2.283 1.36-4.082 3.248-5.443 5.266 1.448-3.95 4.609-8.382 11.369-10.533 8.121-2.589 13.432-.395 15.495.79-1.097.439-2.765 1.185-3.907 1.975zm10.14-.176l-1.8-.176 1.053 1.053c-1.449-.439-2.941-1.053-3.424-1.843-.044-.044-.044-.088-.088-.176l.746-.263-.702-.571c.307-.614 1.273-1.931 3.555-1.185 1.053.351 1.8.878 2.282 1.317l-2.239-.219 1.844 1.36c.571.439.966.79 1.273 1.229-.79-.219-1.712-.439-2.502-.527zm-28.752 9.304c-.527-.395-.176-1.755-.176-1.755s-1.668 1.58.176 1.755z"/></g><g fill="#fff"><path d="M22.919 19.292s1.712-.483 3.468-3.072.088-6.144.088-6.144l-5.311 7.548s.088.263.044.878c-.088.614.571 1.141.571 1.141zm3.073-6.495s.439 1.755-.571 2.94c-1.229 1.448-2.326 1.404-2.326 1.404zM9.927 18.502l-.395-1.141-4.828-1.755 5.355 3.248-.132-.351z"/></g></g><defs><clipPath id="A"><path fill="#fff" d="M0 0h56v56H0z"/></clipPath></defs></svg>
