<svg xmlns="http://www.w3.org/2000/svg" viewBox="0 0 706.8 665.2"><path d="M168.2 366.5L186.9 226 24.7 113.4l148.2 50.2 35-53.7 127.8-79.3 281.7 155.2L632 422.6 506.5 597l-99.2 15.2 51.3-93.9v-90.4l-37.3-70.6-37.9-25.1-58.3 60.1v63.6l-45.5 42.6-57.8 7-25.6 14.5-42-13.4-17.5-63 31.5-44.3v-32.8z" fill="#fff"/><path d="M427.2 112.2c-30.9-6.4-64.7-4.7-64.7-4.7s-11.1 51.3-79.9 64.8c.5 0 90.9 30.9 144.6-60.1zm28 465.5c37.3-29.2 65.3-69.4 78.2-114.9.6-1.7 5.8-4.7 9.3-7 5.8-3.5 11.7-6.4 12.8-11.1 2.3-13.4 3.5-27.4 3.5-41.4 0-5.2-5.3-10.5-10.5-15.7-4.1-3.5-8.2-7.6-8.2-10.5-5.8-53.1-30.3-102.7-69.4-138.8l-4.1 4.1c37.9 35.6 62.4 84 67.7 135.3.6 4.7 5.2 9.3 9.9 14 4.1 3.5 8.8 8.8 8.8 11.1 0 13.4-1.2 26.8-3.5 40.2-.6 2.3-5.8 4.7-9.9 7-5.8 2.9-11.1 5.8-12.2 10.5-14 49.6-46.1 92.8-88.7 120.8l44.3-96.3-2.3-86.3-74.1-71.7-42 5.8-46.1 74.7s21.6 27.4-8.8 59.5c-29.7 31.5-53.1 38.5-53.1 38.5l-21.6-11.7c6.4-8.2 19.3-20.4 29.2-28.6 16.9-14 33.8-15.2 33.8-30.3.7-31.6-33.2-22.9-33.2-22.9l-12.3 11.7-5.2 43.2-25.6 32.1-2.9-.6-42-9.3s25.7-13.4 29.8-28.6c4.1-14.6-8.2-63-8.8-65.9.6.6 12.3 10.5 17.5 26.8 9.3-25.7 21.6-50.2 25.1-52.5s50.7-27.4 50.7-27.4l-15.7 41.4 11.7-6.4 28-68.8s27.4-13.4 47.8-13.4c36.7-.6 91-45.5 66.5-126 7 2.9 128.3 63.6 149.3 182.6 15.7 91.5-36.2 177.2-123.7 226.8z" fill="#94a6c3"/><path d="M316.4 125c13.4-15.8 8.2-39.1 8.2-39.1l-39.1 57.8c-.6 0 13.9.6 30.9-18.7zM185.1 440.6l4.7-23.3s-19.3 33.8-21 38.5c-1.8 5.3 1.2 14.6 8.7 14 7.6-.6 16.9-11.7 16.9-19.8 0-10.5-9.3-9.4-9.3-9.4zm346.5-371s29.2 1.2 59.5 4.7c-68.3-53.7-133-69.4-185.5-69.4-72.3 0-121.3 29.8-124.3 31.5L304.1.2s-91-8.8-123.1 87.5c-8.2-20.4-15.7-50.2-15.7-50.2S118 79 140.2 147.8L5.4 100c-4.1-.6-5.3 1.2-5.3 1.2s-1.2 1.7 2.3 4.7c6.5 5.1 129 95.6 155.9 113.1-5.8 21-5.8 30.9 0 40.8 8.2 13.4 8.7 20.4 7.6 30.3l-14 106.2c-2.3 10.5-26.8 47.8-25.7 58.9 1.2 11.1 16.3 58.3 29.8 63.6 9.9 3.5 34.4 11.1 50.7 11.1 5.8 0 11.1-1.2 13.4-3.5 9.9-8.7 12.8-10.5 19.8-10.5h1.7c2.9 0 6.4.6 10.5.6 9.3 0 21.6-1.8 30.3-9.9 12.8-12.8 35-30.3 42-38.5 8.8-11.1 13.4-26.2 11.1-41.4-1.8-14 5.8-26.3 14.6-38.5l31.5-40.8C421.9 377.6 447 423.7 447 475c0 91-79.3 164.5-177.3 164.5-15.2 0-29.7-1.7-44.3-5.2 44.9 15.7 82.8 21 113.8 21 65.9 0 100.9-23.9 100.9-23.9s-12.2 15.8-32.1 33.8h.6c109.1-15.2 162.2-105 162.2-105s-4.1 29.2-9.3 49c145.1-109.1 120.6-245.6 120-250.2 1.2 1.7 15.8 19.2 23.3 28.6 23.4-240.4-173.2-318-173.2-318zM308.2 453.5c-2.3 2.9-12.2 11.7-19.2 18.1s-14.6 12.8-20.4 18.7c-2.3 2.3-7 3.5-14 3.5h-6.4-3.5-2.3-5.3c8.8-11.7 34.4-38.5 43.2-44.3 10.5-7 15.8-14 9.3-26.2-6.4-12.3-23.3-9.3-23.3-9.3s9.9-4.1 18.7-4.1c-11.1-2.9-25.1 0-31.5 6.4-7 6.4-5.8 29.2-8.7 43.7-2.9 15.2-12.8 22.8-28 36.8-8.2 7.6-14 9.9-18.7 9.9-9.9-1.7-21.6-4.7-29.8-7.6-5.8-7.6-14.6-32.7-16.9-43.2 1.7-5.8 8.7-18.1 12.2-25.1 7-13.4 11.1-21 12.3-28 2.3-9.9 9.9-71.2 12.8-96.8 7.6 9.9 18.1 26.3 15.7 36.8 16.9-23.9 4.7-47.3-1.2-56.6-5.2-9.3-12.2-28-6.4-47.8s26.8-74.7 26.8-74.7 7 12.3 16.9 9.9c9.9-2.3 89.8-122.5 89.8-122.5s21.6 47.2-1.2 81.7c-23.3 34.4-46.1 40.8-46.1 40.8s32.1 5.8 61.8-15.8c12.2 28.6 23.9 58.3 24.5 62.4l-27.4 63.6c-1.2 1.2-9.3 3.5-15.2 4.7-9.9 2.9-15.7 4.7-18.1 6.4-4.1 3.5-22.8 54.8-31.5 79.9-10.5 2.9-21 8.8-28.6 20.4 4.1-2.9 16.9-4.7 26.3-5.8 8.2-.6 33.2 12.8 39.7 37.9v1.2c1.3 9.2-1.6 18-6.3 25zm-54.8 7c5.3-7.6 4.7-20.4 5.3-24.5s1.7-11.7 6.4-12.8c4.7-1.2 15.8.6 15.8 8.7 0 7.6-8.2 9.3-14 14.6-4.2 4-12.4 12.8-13.5 14zM486.1 349c5.8-29.7 6.4-55.4 4.7-76.4 22.7 30.3 36.7 67.1 40.8 105 .6 4.7 5.2 9.3 9.9 14 4.1 3.5 8.8 8.2 8.8 11.1 0 13.4-1.2 26.8-3.5 40.3-.6 1.7-5.8 4.7-9.9 7-5.8 2.9-11.1 5.8-12.2 10.5-12.8 44.9-40.3 84.6-77 112.6 54.2-56.6 80.4-150 38.4-224.1zm-36.7 229.3c37.9-29.2 67.1-70 79.9-116.1.6-1.7 5.8-4.7 9.3-7 5.8-2.9 11.7-6.4 12.8-11.1 2.3-13.4 3.5-27.4 3.5-41.4 0-5.2-5.3-10.5-10.5-15.7-2.9-3.5-7.6-7.6-7.6-10.5-4.7-42.6-21.6-82.8-47.8-116.1-11.7-70-58.3-91.6-59.5-92.2 1.2 1.8 31.5 45.5 10.5 96.8-21.6 51.9-77 43.8-81.7 44.3-4.7 0-22.7 23.3-45.5 66.5-2.9-1.2-15.2-4.1-29.2-1.7 10.5-29.2 26.3-70.6 29.2-74.1 1.2-1.2 9.9-3.5 15.8-5.2 11.1-2.9 16.3-4.7 18.1-7 1.2-1.8 7-15.2 12.8-29.2 5.3 0 18.7-1.2 19.8-1.8 1.2-1.2 12.3-29.7 12.3-33.2 0-2.9-22.8-59.5-31.5-81.1 4.1-4.7 8.2-10.5 12.2-16.9 119.6 12.9 213 114.4 213 237.4 0 94.5-55.4 176.8-135.9 215.3zm-155.2-315c11.1-12.8 5.3-36.7-15.2-40.8 5.3-12.2 12.8-36.7 12.8-36.7s-59.5 93.3-64.7 95.1c-5.3 1.8-10.5-18.7-10.5-18.7-11.1 42.6 18.7 48.4 22.2 35 16.3-4.2 44.3-21.7 55.4-33.9z" fill="#1b314f"/><path d="M243.4 286l30.3-51.9s17.5 8.8 8.7 22.8c-11 16.3-39 29.1-39 29.1z" fill="#ffd923"/><path d="M618.5 526.4c-8.8 11.7-18.7 23.9-30.3 35.6 75.2-144.7 3.5-277.1.6-282.3 5.3 5.3 10.5 11.1 15.2 16.3 57.7 64.1 64.7 160.4 14.5 230.4zm70-186.1c-26.3-70.6-63.6-130.7-145.8-184.9-79.3-52.5-164.5-48.4-169.2-47.8h-1.2c2.9-1.2 5.8-1.8 8.7-2.3 18.1-5.8 41.4-10.5 64.8-13.4C507.7 83 570.1 104 612.7 149l1.2 1.2c48.4 51.3 73.5 115.4 74.6 190.1zM524 51.5c-86.9-16.3-142.9-8.2-183.2 7-1.2-4.7-5.3-14-8.8-21.6-12.1 14.6-25 32.1-33.1 43.2-22.2 15.2-31.5 29.8-31.5 29.8 12.8-43.8 50.2-76.4 95.7-84.6 12.8-2.3 26.8-3.5 42-3.5 40.2.6 80.4 10.5 118.9 29.7zm-321.4 112c-68.2-2.3-45.5-81.7-44.3-86.3 0 .6 4.6 62.4 44.3 86.3zm67.1-142.9c-52.5 31.5-42 106.7-42 106.7-50.2-76.3 37.9-104.9 42-106.7z" fill="#d82122"/><path d="M183.4 184.5c3.5 2.9 7 8.2 2.9 15.8-2.3 4.1-5.8 3.5-11.1 1.2-7-3.5-49-28-86.9-53.1 43.2 15.2 86.9 31.5 93.9 35a20.88 20.88 0 0 0 1.2 1.1z" fill="#fff"/></svg>
