<svg xmlns="http://www.w3.org/2000/svg" width="282" height="282" fill="none"><path d="M282 141c0 77.872-63.128 141-141 141S0 218.872 0 141 63.128 0 141 0s141 63.128 141 141z" fill="#fff"/><g opacity=".6"><path d="M141.509 73.184l-.97 3.315v96.184l.97.974 44.41-26.391-44.41-74.082z" fill="#343434"/><path d="M141.476 73.184l-44.444 74.082 44.444 26.391v-46.685-53.788z" fill="#8c8c8c"/><path d="M141.487 182.023l-.547.672v34.278l.547 1.607 44.432-62.947-44.432 26.39z" fill="#3c3c3b"/><path d="M141.476 218.58v-36.557l-44.444-26.39 44.444 62.947z" fill="#8c8c8c"/><path d="M141.476 173.657l44.443-26.384-44.443-20.289v46.673z" fill="#141414"/><path d="M97.032 147.273l44.444 26.384v-46.673l-44.444 20.289z" fill="#393939"/></g><mask id="A" maskUnits="userSpaceOnUse" x="70" y="30" width="144" height="232" fill="#000"><path fill="#fff" d="M70 30h144v232H70z"/><path d="M87.68 128l33.408-82.944H85.76V58.88H74.24V34.56h58.24v11.264L100.096 128H87.68zm76.75 0l33.408-82.944H162.51V58.88h-11.52V34.56h58.24v11.264L176.846 128H164.43zM102.4 257.28c-5.717 0-10.709-1.109-14.976-3.328-4.181-2.304-7.424-5.504-9.728-9.6-2.304-4.181-3.456-9.045-3.456-14.592V188.8c0-5.632 1.152-10.496 3.456-14.592s5.547-7.253 9.728-9.472c4.267-2.304 9.259-3.456 14.976-3.456 5.803 0 10.795 1.152 14.976 3.456 4.181 2.219 7.424 5.376 9.728 9.472s3.456 8.96 3.456 14.592v40.96c0 5.547-1.152 10.411-3.456 14.592-2.304 4.096-5.589 7.296-9.856 9.6-4.181 2.219-9.131 3.328-14.848 3.328zm0-9.856c5.12 0 9.216-1.621 12.288-4.864 3.157-3.328 4.736-7.595 4.736-12.8V188.8c0-5.205-1.579-9.429-4.736-12.672-3.072-3.328-7.168-4.992-12.288-4.992s-9.259 1.664-12.416 4.992c-3.072 3.243-4.608 7.467-4.608 12.672v40.96c0 5.205 1.536 9.472 4.608 12.8 3.157 3.243 7.296 4.864 12.416 4.864zm0-30.592c-2.304 0-4.181-.725-5.632-2.176-1.365-1.451-2.048-3.371-2.048-5.76 0-2.304.683-4.139 2.048-5.504 1.451-1.451 3.328-2.176 5.632-2.176s4.139.725 5.504 2.176c1.451 1.365 2.176 3.2 2.176 5.504 0 2.389-.725 4.309-2.176 5.76-1.365 1.451-3.2 2.176-5.504 2.176zM152.526 256v-11.776l28.544-30.336c4.864-5.205 8.405-9.813 10.624-13.824 2.219-4.096 3.328-8.021 3.328-11.776 0-5.205-1.451-9.301-4.352-12.288-2.816-2.987-6.699-4.48-11.648-4.48-5.461 0-9.771 1.536-12.928 4.608-3.072 3.072-4.608 7.296-4.608 12.672h-11.52c.171-5.632 1.451-10.496 3.84-14.592 2.475-4.181 5.845-7.381 10.112-9.6 4.352-2.219 9.387-3.328 15.104-3.328 5.632 0 10.496 1.109 14.592 3.328 4.181 2.133 7.381 5.205 9.6 9.216s3.328 8.789 3.328 14.336c0 5.291-1.408 10.539-4.224 15.744s-7.424 11.136-13.824 17.792l-23.04 23.808h42.624V256h-55.552z"/></mask><path d="M87.68 128l33.408-82.944H85.76V58.88H74.24V34.56h58.24v11.264L100.096 128H87.68zm76.75 0l33.408-82.944H162.51V58.88h-11.52V34.56h58.24v11.264L176.846 128H164.43zM102.4 257.28c-5.717 0-10.709-1.109-14.976-3.328-4.181-2.304-7.424-5.504-9.728-9.6-2.304-4.181-3.456-9.045-3.456-14.592V188.8c0-5.632 1.152-10.496 3.456-14.592s5.547-7.253 9.728-9.472c4.267-2.304 9.259-3.456 14.976-3.456 5.803 0 10.795 1.152 14.976 3.456 4.181 2.219 7.424 5.376 9.728 9.472s3.456 8.96 3.456 14.592v40.96c0 5.547-1.152 10.411-3.456 14.592-2.304 4.096-5.589 7.296-9.856 9.6-4.181 2.219-9.131 3.328-14.848 3.328zm0-9.856c5.12 0 9.216-1.621 12.288-4.864 3.157-3.328 4.736-7.595 4.736-12.8V188.8c0-5.205-1.579-9.429-4.736-12.672-3.072-3.328-7.168-4.992-12.288-4.992s-9.259 1.664-12.416 4.992c-3.072 3.243-4.608 7.467-4.608 12.672v40.96c0 5.205 1.536 9.472 4.608 12.8 3.157 3.243 7.296 4.864 12.416 4.864zm0-30.592c-2.304 0-4.181-.725-5.632-2.176-1.365-1.451-2.048-3.371-2.048-5.76 0-2.304.683-4.139 2.048-5.504 1.451-1.451 3.328-2.176 5.632-2.176s4.139.725 5.504 2.176c1.451 1.365 2.176 3.2 2.176 5.504 0 2.389-.725 4.309-2.176 5.76-1.365 1.451-3.2 2.176-5.504 2.176zM152.526 256v-11.776l28.544-30.336c4.864-5.205 8.405-9.813 10.624-13.824 2.219-4.096 3.328-8.021 3.328-11.776 0-5.205-1.451-9.301-4.352-12.288-2.816-2.987-6.699-4.48-11.648-4.48-5.461 0-9.771 1.536-12.928 4.608-3.072 3.072-4.608 7.296-4.608 12.672h-11.52c.171-5.632 1.451-10.496 3.84-14.592 2.475-4.181 5.845-7.381 10.112-9.6 4.352-2.219 9.387-3.328 15.104-3.328 5.632 0 10.496 1.109 14.592 3.328 4.181 2.133 7.381 5.205 9.6 9.216s3.328 8.789 3.328 14.336c0 5.291-1.408 10.539-4.224 15.744s-7.424 11.136-13.824 17.792l-23.04 23.808h42.624V256h-55.552z" fill="#000"/><path d="M87.68 128l-3.71-1.494L81.757 132h5.923v-4zm33.408-82.944l3.71 1.494 2.213-5.494h-5.923v4zm-35.328 0v-4h-4v4h4zm0 13.824v4h4v-4h-4zm-11.52 0h-4v4h4v-4zm0-24.32v-4h-4v4h4zm58.24 0h4v-4h-4v4zm0 11.264l3.721 1.467.279-.707v-.76h-4zM100.096 128v4h2.723l.998-2.533-3.721-1.467zm-12.416 0l3.71 1.494 33.408-82.944-3.71-1.494-3.71-1.494-33.408 82.944L87.68 128zm33.408-82.944v-4H85.76v4 4h35.328v-4zm-35.328 0h-4V58.88h4 4V45.056h-4zm0 13.824v-4H74.24v4 4h11.52v-4zm-11.52 0h4V34.56h-4-4v24.32h4zm0-24.32v4h58.24v-4-4H74.24v4zm58.24 0h-4v11.264h4 4V34.56h-4zm0 11.264l-3.721-1.467-32.384 82.176 3.722 1.467 3.721 1.467 32.384-82.176-3.721-1.467zM100.096 128v-4H87.68v4 4h12.416v-4zm64.334 0l-3.71-1.494-2.213 5.494h5.923v-4zm33.408-82.944l3.71 1.494 2.213-5.494h-5.923v4zm-35.328 0v-4h-4v4h4zm0 13.824v4h4v-4h-4zm-11.52 0h-4v4h4v-4zm0-24.32v-4h-4v4h4zm58.24 0h4v-4h-4v4zm0 11.264l3.721 1.467.279-.707v-.76h-4zM176.846 128v4h2.723l.998-2.533-3.721-1.467zm-12.416 0l3.71 1.494 33.408-82.944-3.71-1.494-3.71-1.494-33.408 82.944 3.71 1.494zm33.408-82.944v-4H162.51v4 4h35.328v-4zm-35.328 0h-4V58.88h4 4V45.056h-4zm0 13.824v-4h-11.52v4 4h11.52v-4zm-11.52 0h4V34.56h-4-4v24.32h4zm0-24.32v4h58.24v-4-4h-58.24v4zm58.24 0h-4v11.264h4 4V34.56h-4zm0 11.264l-3.721-1.467-32.384 82.176 3.721 1.467 3.721 1.467 32.384-82.176-3.721-1.467zM176.846 128v-4H164.43v4 4h12.416v-4zM87.424 253.952l-1.93 3.503.042.024.043.022 1.845-3.549zm-9.728-9.6l-3.503 1.93.008.016.009.015 3.486-1.961zm0-70.144l-3.486-1.961h0l3.486 1.961zm9.728-9.472l1.875 3.533.013-.006.013-.007-1.901-3.52zm29.952 0l-1.93 3.503.027.016.028.014 1.875-3.533zm9.728 9.472l3.486-1.961h0l-3.486 1.961zm0 70.144l3.486 1.961.009-.015.008-.016-3.503-1.93zm-9.856 9.6l1.875 3.533.013-.006.013-.007-1.901-3.52zm-2.56-11.392l-2.902-2.753-.002.002 2.904 2.751zm0-66.432l-2.939 2.713.036.039.037.038 2.866-2.79zm-24.704 0l-2.902-2.753-.002.002 2.904 2.751zm0 66.432l-2.939 2.713.036.039.037.038 2.866-2.79zm6.784-27.904l-2.913 2.741.041.045.043.042 2.828-2.828zm0-11.264l2.828 2.828h0l-2.828-2.828zm11.136 0l-2.913 2.741.083.089.089.083 2.741-2.913zm0 11.264l-2.828-2.828-.043.042-.042.045 2.913 2.741zM102.4 257.28v-4c-5.196 0-9.532-1.006-13.131-2.877l-1.845 3.549-1.845 3.549c4.935 2.566 10.582 3.779 16.821 3.779v-4zm-14.976-3.328l1.93-3.503c-3.54-1.951-6.239-4.622-8.172-8.058l-3.486 1.961-3.486 1.961c2.675 4.756 6.461 8.485 11.284 11.142l1.93-3.503zm-9.728-9.6l3.503-1.93c-1.929-3.501-2.959-7.68-2.959-12.662h-4-4c0 6.112 1.274 11.66 3.953 16.522l3.503-1.93zM74.24 229.76h4V188.8h-4-4v40.96h4zm0-40.96h4c0-5.081 1.036-9.242 2.942-12.631l-3.486-1.961-3.486-1.961c-2.702 4.803-3.97 10.37-3.97 16.553h4zm3.456-14.592l3.486 1.961a19.65 19.65 0 0 1 8.117-7.9l-1.875-3.533-1.875-3.533c-4.853 2.575-8.657 6.275-11.339 11.044l3.486 1.961zm9.728-9.472l1.901 3.52c3.586-1.937 7.903-2.976 13.075-2.976v-4-4c-6.262 0-11.93 1.265-16.877 3.936l1.901 3.52zm14.976-3.456v4c5.272 0 9.57 1.044 13.046 2.959l1.93-3.503 1.93-3.503c-4.887-2.693-10.573-3.953-16.906-3.953v4zm14.976 3.456l-1.875 3.533c3.51 1.863 6.191 4.477 8.117 7.9l3.486-1.961 3.486-1.961c-2.682-4.769-6.486-8.469-11.339-11.044l-1.875 3.533zm9.728 9.472l-3.486 1.961c1.906 3.389 2.942 7.55 2.942 12.631h4 4c0-6.183-1.268-11.75-3.97-16.553l-3.486 1.961zm3.456 14.592h-4v40.96h4 4V188.8h-4zm0 40.96h-4c0 4.982-1.03 9.161-2.959 12.662l3.503 1.93 3.503 1.93c2.679-4.862 3.953-10.41 3.953-16.522h-4zm-3.456 14.592l-3.486-1.961c-1.921 3.415-4.647 6.085-8.271 8.041l1.901 3.52 1.901 3.52c4.909-2.652 8.754-6.382 11.441-11.159l-3.486-1.961zm-9.856 9.6l-1.875-3.533c-3.495 1.854-7.775 2.861-12.973 2.861v4 4c6.236 0 11.856-1.212 16.723-3.795l-1.875-3.533zm-14.848-6.528v4c6.042 0 11.251-1.954 15.192-6.113l-2.904-2.751-2.904-2.751c-2.203 2.326-5.186 3.615-9.384 3.615v4zm12.288-4.864l2.902 2.753c3.959-4.173 5.834-9.472 5.834-15.553h-4-4c0 4.33-1.282 7.564-3.638 10.047l2.902 2.753zm4.736-12.8h4V188.8h-4-4v40.96h4zm0-40.96h4c0-6.079-1.876-11.36-5.87-15.462l-2.866 2.79-2.866 2.79c2.32 2.383 3.602 5.55 3.602 9.882h4zm-4.736-12.672l2.939-2.713c-3.932-4.26-9.151-6.279-15.227-6.279v4 4c4.164 0 7.137 1.309 9.349 3.705l2.939-2.713zm-12.288-4.992v-4c-6.077 0-11.314 2.018-15.318 6.239l2.902 2.753 2.902 2.753c2.31-2.435 5.351-3.745 9.514-3.745v-4zm-12.416 4.992l-2.904-2.751c-3.891 4.108-5.704 9.375-5.704 15.423h4 4c0-4.363 1.259-7.543 3.512-9.921l-2.904-2.751zM85.376 188.8h-4v40.96h4 4V188.8h-4zm0 40.96h-4c0 6.05 1.813 11.336 5.669 15.513l2.939-2.713 2.939-2.713c-2.288-2.479-3.547-5.726-3.547-10.087h-4zm4.608 12.8l-2.866 2.79c4.012 4.121 9.238 6.074 15.282 6.074v-4-4c-4.196 0-7.248-1.29-9.55-3.654l-2.866 2.79zm12.416-25.728v-4c-1.386 0-2.198-.399-2.804-1.004l-2.828 2.828-2.828 2.828c2.296 2.296 5.238 3.348 8.46 3.348v-4zm-5.632-2.176l2.913-2.741c-.532-.566-.961-1.433-.961-3.019h-4-4c0 3.193.937 6.165 3.135 8.501l2.913-2.741zm-2.048-5.76h4c0-1.463.404-2.203.876-2.676l-2.828-2.828-2.828-2.828c-2.258 2.257-3.22 5.187-3.22 8.332h4zm2.048-5.504l2.828 2.828c.606-.605 1.418-1.004 2.804-1.004v-4-4c-3.222 0-6.165 1.052-8.46 3.348l2.828 2.828zm5.632-2.176v4c1.39 0 2.102.398 2.591.917l2.913-2.741 2.913-2.741c-2.242-2.382-5.199-3.435-8.417-3.435v4zm5.504 2.176l-2.741 2.913c.519.489.917 1.201.917 2.591h4 4c0-3.218-1.053-6.175-3.435-8.417l-2.741 2.913zm2.176 5.504h-4c0 1.517-.428 2.355-1.004 2.932l2.828 2.828 2.828 2.828c2.325-2.324 3.348-5.327 3.348-8.588h-4zm-2.176 5.76l-2.913-2.741c-.489.519-1.201.917-2.591.917v4 4c3.218 0 6.175-1.053 8.417-3.435l-2.913-2.741zM152.526 256h-4v4h4v-4zm0-11.776l-2.913-2.741-1.087 1.155v1.586h4zm28.544-30.336l2.913 2.741.01-.01-2.923-2.731zm10.624-13.824l3.5 1.936.009-.015.008-.016-3.517-1.905zM190.67 176l-2.91 2.744.02.022.021.021L190.67 176zm-24.576.128l-2.789-2.867-.02.019-.019.02 2.828 2.828zm-4.608 12.672v4h4v-4h-4zm-11.52 0l-3.998-.121-.125 4.121h4.123v-4zm3.84-14.592l-3.442-2.037-.007.011-.006.011 3.455 2.015zm10.112-9.6l-1.817-3.564-.014.008-.014.007 1.845 3.549zm29.696 0l-1.905 3.517.043.024.044.022 1.818-3.563zm9.6 9.216l3.5-1.936h0l-3.5 1.936zm-.896 30.08l3.518 1.903h0l-3.518-1.903zm-13.824 17.792l2.874 2.782.009-.01-2.883-2.772zm-23.04 23.808l-2.874-2.782-6.563 6.782h9.437v-4zm42.624 0h4v-4h-4v4zm0 10.496v4h4v-4h-4zm-55.552 0h4v-11.776h-4-4V256h4zm0-11.776l2.913 2.741 28.544-30.336-2.913-2.741-2.913-2.741-28.544 30.336 2.913 2.741zm28.544-30.336l2.923 2.731c4.979-5.329 8.761-10.208 11.201-14.619l-3.5-1.936-3.5-1.936c-1.997 3.61-5.298 7.947-10.047 13.029l2.923 2.731zm10.624-13.824l3.517 1.905c2.461-4.542 3.811-9.119 3.811-13.681h-4-4c0 2.948-.868 6.221-2.845 9.871l3.517 1.905zm3.328-11.776h4c0-5.972-1.686-11.166-5.483-15.075L190.67 176l-2.869 2.787c2.005 2.065 3.221 5.063 3.221 9.501h4zM190.67 176l2.91-2.744c-3.724-3.95-8.751-5.736-14.558-5.736v4 4c4.092 0 6.83 1.201 8.738 3.224l2.91-2.744zm-11.648-4.48v-4c-6.24 0-11.644 1.777-15.717 5.741l2.789 2.867 2.789 2.867c2.241-2.18 5.456-3.475 10.139-3.475v-4zm-12.928 4.608l-2.828-2.828c-3.992 3.991-5.78 9.33-5.78 15.5h4 4c0-4.582 1.284-7.691 3.436-9.844l-2.828-2.828zm-4.608 12.672v-4h-11.52v4 4h11.52v-4zm-11.52 0l3.998.121c.154-5.09 1.302-9.277 3.297-12.698l-3.455-2.015-3.455-2.015c-2.784 4.771-4.196 10.312-4.383 16.486l3.998.121zm3.84-14.592l3.442 2.037c2.098-3.545 4.919-6.218 8.515-8.088l-1.845-3.549-1.845-3.549c-4.937 2.567-8.858 6.294-11.709 11.112l3.442 2.037zm10.112-9.6l1.817 3.564c3.701-1.887 8.094-2.892 13.287-2.892v-4-4c-6.241 0-11.918 1.214-16.921 3.764l1.817 3.564zm15.104-3.328v4c5.105 0 9.286 1.003 12.687 2.845l1.905-3.517 1.905-3.517c-4.791-2.596-10.338-3.811-16.497-3.811v4zm14.592 3.328l-1.818 3.563c3.489 1.78 6.095 4.294 7.918 7.589l3.5-1.936 3.5-1.936c-2.614-4.726-6.409-8.357-11.282-10.843l-1.818 3.563zm9.6 9.216l-3.5 1.936c1.828 3.306 2.828 7.389 2.828 12.4h4 4c0-6.082-1.219-11.556-3.828-16.272l-3.5 1.936zm3.328 14.336h-4c0 4.55-1.204 9.149-3.742 13.841l3.518 1.903 3.518 1.903c3.094-5.719 4.706-11.616 4.706-17.647h-4zm-4.224 15.744l-3.518-1.903c-2.577 4.763-6.916 10.399-13.189 16.923l2.883 2.772 2.883 2.772c6.527-6.788 11.404-13.013 14.459-18.661l-3.518-1.903zm-13.824 17.792l-2.874-2.782-23.04 23.808 2.874 2.782 2.874 2.782 23.04-23.808-2.874-2.782zm-23.04 23.808v4h42.624v-4-4h-42.624v4zm42.624 0h-4V256h4 4v-10.496h-4zm0 10.496v-4h-55.552v4 4h55.552v-4z" fill="#000" mask="url(#A)"/></svg>