<svg width="64" height="64" viewBox="0 0 64 64" fill="none" xmlns="http://www.w3.org/2000/svg">
<rect width="64" height="64" rx="32" fill="#6CF9D8"/>
<path fill-rule="evenodd" clip-rule="evenodd" d="M46.3743 14L50 17.6257L37.8834 29.7423C37.2447 28.079 35.921 26.7553 34.2577 26.1166L46.3743 14ZM29.7423 26.1166L17.6257 14L14 17.6257L26.1166 29.7423C26.7553 28.079 28.079 26.7553 29.7423 26.1166ZM26.1166 34.2577L14 46.3743L17.6257 50L29.7423 37.8834C28.079 37.2447 26.7553 35.921 26.1166 34.2577ZM34.2577 37.8834L46.3743 50L50 46.3743L37.8834 34.2577C37.2447 35.921 35.921 37.2447 34.2577 37.8834Z" fill="#2D2E33"/>
</svg>
