<?xml version="1.0" encoding="UTF-8" standalone="no"?>
<svg
   xmlns:dc="http://purl.org/dc/elements/1.1/"
   xmlns:cc="http://creativecommons.org/ns#"
   xmlns:rdf="http://www.w3.org/1999/02/22-rdf-syntax-ns#"
   xmlns:svg="http://www.w3.org/2000/svg"
   xmlns="http://www.w3.org/2000/svg"
   xmlns:xlink="http://www.w3.org/1999/xlink"
   xmlns:sodipodi="http://sodipodi.sourceforge.net/DTD/sodipodi-0.dtd"
   xmlns:inkscape="http://www.inkscape.org/namespaces/inkscape"
   focusable="false"
   viewBox="0 0 40 40"
   aria-hidden="true"
   version="1.1"
   id="svg925"
   sodipodi:docname="acropolis.svg"
   width="40"
   height="40"
   inkscape:version="1.0.1 (3bc2e813f5, 2020-09-07)">
  <metadata
     id="metadata929">
    <rdf:RDF>
      <cc:Work
         rdf:about="">
        <dc:format>image/svg+xml</dc:format>
        <dc:type
           rdf:resource="http://purl.org/dc/dcmitype/StillImage" />
        <dc:title></dc:title>
      </cc:Work>
    </rdf:RDF>
  </metadata>
  <sodipodi:namedview
     pagecolor="#ffffff"
     bordercolor="#666666"
     borderopacity="1"
     objecttolerance="10"
     gridtolerance="10"
     guidetolerance="10"
     inkscape:pageopacity="0"
     inkscape:pageshadow="2"
     inkscape:window-width="2830"
     inkscape:window-height="1290"
     id="namedview927"
     showgrid="false"
     inkscape:zoom="5.8087432"
     inkscape:cx="91.5"
     inkscape:cy="20"
     inkscape:window-x="0"
     inkscape:window-y="0"
     inkscape:window-maximized="0"
     inkscape:current-layer="svg925" />
  <defs
     id="defs917">
    <linearGradient
       id="svg-main-gradient"
       x1="0"
       x2="1"
       y1="0.5"
       y2="0.5">
      <stop
         offset="0%"
         stop-color="#D93CEF"
         id="stop912" />
      <stop
         offset="100%"
         stop-color="#544CF2"
         id="stop914" />
    </linearGradient>
    <linearGradient
       inkscape:collect="always"
       xlink:href="#svg-main-gradient"
       id="linearGradient931"
       x1="-2.4852866e-06"
       y1="18.986509"
       x2="37.973015"
       y2="18.986509"
       gradientTransform="matrix(0.95673201,0,0,1.0452248,1.8350012,0.15483023)"
       gradientUnits="userSpaceOnUse" />
  </defs>
  <path
     fill="url(#svg-main-gradient)"
     d="m 20.005001,0.15483023 c 0.95,0 1.85,0.28 2.7,0.72 l 12.76,7.29999997 a 5.26,5.26 0 0 1 2.7,4.5799998 v 14.54 c 0,1.9 -1.03,3.65 -2.7,4.59 l -12.76,7.24 a 5.2,5.2 0 0 1 -2.7,0.72 5.2,5.2 0 0 1 -2.7,-0.72 l -12.7699998,-7.24 a 5.26,5.26 0 0 1 -2.7,-4.6 v -14.53 c 0,-1.9 1.03,-3.6499998 2.7,-4.5899998 L 17.305001,0.87483023 c 0.83,-0.5 1.73,-0.72 2.7,-0.72 z m 0,1.70999997 c -0.64,0 -1.26,0.18 -1.8,0.5 l -12.8299998,7.24 a 3.73,3.73 0 0 0 -1.84,3.1499998 v 14.48 c 0,1.33 0.73,2.49 1.85,3.15 l 12.7699998,7.24 a 3.73,3.73 0 0 0 3.71,0 l 12.77,-7.17 a 3.73,3.73 0 0 0 1.86,-3.15 v -14.55 c 0,-1.32 -0.73,-2.49 -1.86,-3.1499998 l -12.78,-7.24 a 3.73,3.73 0 0 0 -1.85,-0.5 z m 0,4.81 c 0.5,0 1,0.11 1.46,0.44 l 9.17,5.1999998 c 0.9,0.5 1.46,1.44 1.46,2.49 v 10.39 c 0,1 -0.56,1.99 -1.46,2.49 l -9.17,5.2 c -0.45,0.27 -0.96,0.38 -1.46,0.38 -0.51,0 -1.02,-0.11 -1.47,-0.39 l -9.1599998,-5.2 a 2.82,2.82 0 0 1 -1.47,-2.48 v -10.45 c 0,-1 0.57,-1.99 1.47,-2.49 L 18.535001,7.0548302 c 0.45,-0.27 0.96,-0.38 1.47,-0.38 z m 0,1.44 c -0.23,0 -0.51,0.05 -0.73,0.22 l -9.12,5.1999998 c -0.4499998,0.27 -0.7299998,0.77 -0.7299998,1.27 v 10.44 c 0,0.56 0.28,1 0.7299998,1.28 l 9.17,5.19 c 0.23,0.17 0.45,0.22 0.73,0.22 0.28,0 0.5,-0.1 0.73,-0.22 l 9.17,-5.2 c 0.45,-0.27 0.72,-0.75 0.73,-1.27 v -10.45 c 0,-0.55 -0.28,-0.99 -0.73,-1.27 l -9.22,-5.1899998 a 1.14,1.14 0 0 0 -0.73,-0.22 z m 0,5.0799998 c 0.28,0 0.5,0.06 0.73,0.23 l 4.72,2.65 c 0.45,0.27 0.72,0.75 0.73,1.27 v 5.36 c 0,0.55 -0.28,1 -0.73,1.27 l -4.72,2.66 c -0.23,0.16 -0.45,0.22 -0.73,0.22 -0.23,0 -0.51,-0.11 -0.74,-0.22 l -4.72,-2.66 a 1.53,1.53 0 0 1 -0.73,-1.27 v -5.35 c 0,-0.55 0.28,-1 0.73,-1.27 l 4.72,-2.65 c 0.23,-0.17 0.45,-0.22 0.74,-0.22 z m 0.05,1.33 h -0.11 l -4.72,2.65 -0.06,5.48 4.78,2.76 4.84,-2.65 0.05,-5.48 z"
     id="path919"
     style="fill:url(#linearGradient931);fill-rule:evenodd" />
</svg>
