<?xml version="1.0" encoding="utf-8"?>
<!-- Generator: Adobe Illustrator 24.0.0, SVG Export Plug-In . SVG Version: 6.00 Build 0)  -->
<svg version="1.1" id="Layer_1" xmlns="http://www.w3.org/2000/svg" xmlns:xlink="http://www.w3.org/1999/xlink" x="0px" y="0px"
	 viewBox="0 0 422.8 431.8" style="enable-background:new 0 0 422.8 431.8;" xml:space="preserve">
<title>logo_black</title>
<path d="M0.3,431.8c-0.3-6-0.4-12-0.1-18c2-0.6,4-1,6.1-1.3c6-1,12-2.5,17.8-4.2c1.6-0.5,3.2-1.1,4.8-1.7c7.7-3,14.5-8,19.7-14.4
	c3.6-4.5,6.7-9.4,9.4-14.5c3.8-7,7.1-14.3,10.1-21.7c6-15,12-29.9,17.9-44.9c20.4-51.6,40.8-103.2,61.2-154.8
	c19.3-49.1,38.3-98.2,56.9-147.6c0.4-1,0.8-2,1.2-3c6.9-1.9,13.6-3.9,20.6-5.8c0.4,1,0.8,1.9,1.1,2.8c7.9,22,15.8,44,23.6,66.1
	c26.9,75.1,53.8,150.1,81.4,224.9c7.6,20.4,15.2,40.9,22.9,61.3c3,8.3,6.6,16.5,10.7,24.3c1.8,3.4,3.7,6.6,5.8,9.8
	c6.4,10,16.3,17.1,27.8,20.1c6.2,1.6,12.4,2.9,18.8,3.7l4.5,0.7c0.6,2,0.3,3.9,0.3,5.8s0,4.1,0,6.1c0.1,2,0,3.9-0.1,5.9
	c-0.6,0.1-1.1,0.2-1.7,0.3c-0.7,0-1.4,0-2.1,0H262.8c-0.2-0.3-0.3-0.7-0.4-1.1c0-5.4,0-10.8,0-16.2c0-0.2,0.1-0.5,0.2-0.7
	c1.3-0.4,2.6-0.6,4-0.8c6.5-0.9,12.9-2.1,19.3-3.8c2.5-0.7,5.1-1.6,7.5-2.6c1.2-0.5,2.4-1.1,3.6-1.8c6.3-3.5,8.8-9,8.2-16
	c-0.3-3.2-0.8-6.3-1.7-9.4c-1.3-4.8-3-9.5-4.6-14.1c-32.8-91.5-65.2-183.1-97.3-274.9c-0.3-1-0.5-2.1-1.5-3c-0.3,0.2-0.8,0.4-1,0.6
	c-0.3,0.5-0.5,1-0.6,1.5c-15.7,45.1-32.4,89.9-49,134.6c-12.3,33.1-24.6,66.3-36,99.7c-4.6,13.4-9,26.9-13.3,40.4
	c-1.7,5.2-2.9,10.5-3.7,15.8c-0.6,3.6-0.7,7.2-0.3,10.9c0.5,4.7,3,9,6.9,11.8c2.5,1.8,5.3,3.2,8.3,4.2c4.7,1.7,9.5,2.9,14.4,3.7
	c5.4,1,10.8,1.8,16.3,2.6c0.4,0.1,0.7,0.1,1.2,0.2c0.1,0.4,0.2,0.8,0.3,1.2c0,5.2,0,10.5,0,15.7c0,0.3-0.1,0.6-0.2,0.9
	c-0.5,0.1-1,0.2-1.5,0.2c-0.7,0-1.4,0-2.1,0L0.3,431.8L0.3,431.8z"/>
</svg>
