<svg xmlns="http://www.w3.org/2000/svg" xmlns:xlink="http://www.w3.org/1999/xlink" viewBox="0 0 64 64"><defs><style>.cls-1{fill-opacity:0.05;fill:url(#linear-gradient);}.cls-2{fill:url(#linear-gradient-2);}.cls-3,.cls-4{fill-rule:evenodd;}.cls-3{fill:url(#linear-gradient-3);}.cls-4{fill:url(#linear-gradient-4);}</style><linearGradient id="linear-gradient" x1="32" y1="43.61" x2="32" y2="1.16" gradientTransform="matrix(1, 0, 0, -1, 0, 66)" gradientUnits="userSpaceOnUse"><stop offset="0" stop-color="#01e8f8"/><stop offset="1" stop-color="#01e8f8" stop-opacity="0"/></linearGradient><linearGradient id="linear-gradient-2" x1="51.9" y1="41.83" x2="53.32" y2="24.86" gradientTransform="matrix(1, 0, 0, -1, 0, 66)" gradientUnits="userSpaceOnUse"><stop offset="0" stop-color="#01e8f7"/><stop offset="1" stop-color="#00c2ff"/></linearGradient><linearGradient id="linear-gradient-3" x1="23.95" y1="50.95" x2="40.43" y2="24.79" gradientTransform="matrix(1, 0, 0, -1, 0, 66)" gradientUnits="userSpaceOnUse"><stop offset="0" stop-color="#01e8f7"/><stop offset="1" stop-color="#00b3ec"/></linearGradient><linearGradient id="linear-gradient-4" x1="30.63" y1="38.76" x2="32.1" y2="-3.46" xlink:href="#linear-gradient-2"/></defs><title>aragon-arg-logo</title><g id="Layer_2" data-name="Layer 2"><g id="Layer_1-2" data-name="Layer 1"><circle class="cls-1" cx="32" cy="32" r="32"/><path class="cls-2" d="M57,29.88c.22-4.61-3-7.67-6.64-9.77L48,34a3.42,3.42,0,0,1,2.73.82,2.38,2.38,0,0,1,.18,3.2C53.19,37.64,56.74,35.45,57,29.88Z"/><path class="cls-3" d="M26,13.73,23.2,10.9c4.24-.52,15.43.14,26.26,6.93a5.67,5.67,0,0,1,0,1.83l.91.46a10.58,10.58,0,0,1,1.18,8.12C50.61,32,49,33.66,48.28,34c-1.45,0-3.92.84-4.72,4.56s-2.34,4.53-3,4.47l-16,.19L14,37,12.48,24.13l3-4,5.36-4.38,3.82-1.56ZM44.91,19a6.05,6.05,0,0,1-1.56,1.19c-4.11-.88-5.6-3-5.6-3a19.23,19.23,0,0,1,10,2.46A18.44,18.44,0,0,0,44.91,19Z"/><path class="cls-4" d="M43.42,38.56a22.17,22.17,0,0,1-9.76,2.19c-10.09,0-18.26-6.34-18.26-14.15,0-5.78,4.46-10.74,10.85-12.94-12.16.7-21.94,10.47-21.94,22.53C4.31,50.11,16.72,61.61,32,61.61A29.88,29.88,0,0,0,57.94,46.12C51.09,47.66,43,44.73,43.42,38.56Z"/></g></g></svg>