<svg xmlns="http://www.w3.org/2000/svg" width="512" height="512"><defs><clipPath id="A"><path fill="#fff" d="M0 0h110v75H0z"/></clipPath></defs><g clip-path="url(#A)" transform="matrix(4.379254 0 0 4.379254 15.496291 96.556851)"><path d="M38.161 0H28.087c-.696 0-1.317.436-1.555 1.091L.051 73.885A.83.83 0 0 0 .829 75h10.074c.696 0 1.317-.436 1.555-1.091l26.48-72.794A.83.83 0 0 0 38.161 0zm12.253 30.501a.83.83 0 0 0-1.555 0l-5.223 14.359c-.134.367-.134.77 0 1.138l10.153 27.91c.238.655.86 1.091 1.555 1.091h10.074a.83.83 0 0 0 .778-1.115zm25.682 14.055a.83.83 0 0 0 1.555 0L93.454 1.115A.83.83 0 0 0 92.676 0H82.602c-.696 0-1.317.436-1.555 1.091L70.873 29.058c-.134.367-.134.77 0 1.137zM56.233 1.084C55.997.433 55.38 0 54.69 0H44.581c-.695 0-1.316.436-1.555 1.091l-26.48 72.794A.83.83 0 0 0 17.324 75h10.075c.696 0 1.317-.436 1.555-1.091l20.274-55.735c.133-.366.648-.366.781 0l20.275 55.735c.238.655.86 1.091 1.555 1.091h10.075a.83.83 0 0 0 .778-1.114zM109.172 0H99.097c-.695 0-1.317.436-1.555 1.091l-18.421 50.64a1.66 1.66 0 0 0 0 1.137l5.224 14.361a.83.83 0 0 0 1.555 0L104.134 17.1l5.816-15.986A.83.83 0 0 0 109.172 0z" fill="#ef8220"/></g></svg>
