<svg enable-background="new 0 0 470.287 514.251" version="1.1" viewBox="0 0 470.29 514.25" xml:space="preserve" xmlns="http://www.w3.org/2000/svg"><g id="Logos_and_symbols"><g id="SYMBOL_VER_1-1_1_"><g id="Symbol_-_Original_14_"><path d="m291.13 237.47 35.654-60.5 96.103 149.68 0.046 28.727-0.313-197.67c-0.228-4.832-2.794-9.252-6.887-11.859l-173.02-99.525c-4.045-1.99-9.18-1.967-13.22 0.063-0.546 0.272-1.06 0.57-1.548 0.895l-0.604 0.379-167.94 97.322-0.651 0.296c-0.838 0.385-1.686 0.875-2.48 1.444-3.185 2.283-5.299 5.66-5.983 9.448-0.103 0.574-0.179 1.158-0.214 1.749l0.264 161.08 89.515-138.74c11.271-18.397 35.825-24.323 58.62-24.001l26.753 0.706-157.64 252.8 18.582 10.697 159.52-263.24 70.51-0.256-159.11 269.88 66.306 38.138 7.922 4.556c3.351 1.362 7.302 1.431 10.681 0.21l175.45-101.68-33.544 19.438-92.775-150.04zm13.602 195.93-66.969-105.11 40.881-69.371 87.952 138.63-61.864 35.851z" fill="#2D374B"/><polygon points="237.77 328.29 304.74 433.4 366.6 397.54 278.65 258.92" fill="#28A0F0"/><path d="m422.94 355.38-0.046-28.727-96.103-149.68-35.654 60.5 92.774 150.04 33.544-19.438c3.29-2.673 5.281-6.594 5.49-10.825l-5e-3 -1.869z" fill="#28A0F0"/><path d="m20.219 382.47 47.369 27.296 157.63-252.8-26.753-0.706c-22.795-0.322-47.35 5.604-58.62 24.001l-89.515 138.74-30.115 46.271v17.194z" fill="#fff"/><polygon points="316.2 156.96 245.69 157.22 86.17 420.46 141.93 452.56 157.09 426.85" fill="#fff"/><path d="m452.65 156.6c-0.59-14.746-8.574-28.245-21.08-36.104l-175.29-100.8c-12.371-6.229-27.825-6.237-40.218-4e-3 -1.465 0.739-170.46 98.752-170.46 98.752-2.339 1.122-4.592 2.458-6.711 3.975-11.164 8.001-17.969 20.435-18.668 34.095v208.76l30.115-46.271-0.263-161.08c0.035-0.589 0.109-1.169 0.214-1.741 0.681-3.79 2.797-7.171 5.983-9.456 0.795-0.569 172.68-100.06 173.23-100.34 4.04-2.029 9.175-2.053 13.22-0.063l173.02 99.523c4.093 2.607 6.659 7.027 6.887 11.859v199.54c-0.209 4.231-1.882 8.152-5.172 10.825l-33.544 19.438-17.308 10.031-61.864 35.852-62.737 36.357c-3.379 1.221-7.33 1.152-10.681-0.21l-74.228-42.693-15.163 25.717 66.706 38.406c2.206 1.255 4.171 2.367 5.784 3.272 2.497 1.4 4.199 2.337 4.8 2.629 4.741 2.303 11.563 3.643 17.71 3.643 5.636 0 11.132-1.035 16.332-3.072l182.22-105.53c10.459-8.104 16.612-20.325 17.166-33.564v-201.75z" fill="#96BEDC"/></g></g></g></svg>