<svg xmlns="http://www.w3.org/2000/svg" width="1600" height="1600" fill="none"><mask id="A" maskUnits="userSpaceOnUse" x="350" y="350" width="900" height="900"><path d="M350.5 350.5h899v899h-899v-899z" fill="#fff"/></mask><g mask="url(#A)"><path d="M350.499 421.521c0-24.329 0-36.487 4.587-45.849a44.93 44.93 0 0 1 20.592-20.593c9.355-4.579 21.513-4.579 45.842-4.579h756.96c24.32 0 36.49 0 45.85 4.586a45.02 45.02 0 0 1 20.59 20.593c4.58 9.355 4.58 21.52 4.58 45.849v756.962c0 24.32 0 36.49-4.58 45.85a45.13 45.13 0 0 1-20.59 20.59c-9.36 4.58-21.53 4.58-45.85 4.58H421.52c-24.329 0-36.487 0-45.849-4.58a45.02 45.02 0 0 1-20.593-20.59c-4.586-9.36-4.586-21.53-4.586-45.85V421.521h.007z" fill="#00f"/></g></svg>
