<svg xmlns="http://www.w3.org/2000/svg" width="1400" height="1400" fill="none"><mask id="A" maskUnits="userSpaceOnUse" x="250" y="250" width="900" height="900"><path d="M250 250h900v900H250V250z" fill="#fff"/></mask><g mask="url(#A)"><path d="M249.999 321.1c0-24.356 0-36.527 4.592-45.9a44.98 44.98 0 0 1 20.615-20.616C284.572 250 296.743 250 321.099 250H1078.9c24.35 0 36.53 0 45.9 4.591 8.97 4.397 16.22 11.649 20.61 20.616 4.59 9.366 4.59 21.544 4.59 45.9v757.803c0 24.35 0 36.53-4.59 45.9a45.12 45.12 0 0 1-20.61 20.61c-9.37 4.59-21.55 4.59-45.9 4.59H321.099c-24.356 0-36.527 0-45.9-4.59-8.967-4.39-16.219-11.65-20.615-20.61-4.592-9.37-4.592-21.55-4.592-45.9V321.1h.007z" fill="#00f"/></g></svg>
