<svg xmlns="http://www.w3.org/2000/svg" width="1600" height="1600" fill="none" xmlns:v="https://vecta.io/nano"><g clip-path="url(#A)"><path d="M160 261.12c0-34.64 0-51.95 6.53-65.28 6.25-12.76 16.56-23.07 29.32-29.32 13.32-6.52 30.63-6.52 65.27-6.52h1077.76c34.63 0 51.96 0 65.28 6.53a64.07 64.07 0 0 1 29.32 29.32c6.52 13.32 6.52 30.64 6.52 65.28v1077.76c0 34.63 0 51.96-6.52 65.28-6.26 12.75-16.57 23.06-29.32 29.32-13.32 6.52-30.65 6.52-65.28 6.52H261.12c-34.64 0-51.95 0-65.28-6.52a64.07 64.07 0 0 1-29.32-29.32c-6.53-13.32-6.53-30.65-6.53-65.28V261.12h.01z" fill="#00f"/></g><defs><clipPath id="A"><path fill="#fff" transform="translate(160 160)" d="M0 0h1280v1280H0z"/></clipPath></defs></svg>