<svg xmlns="http://www.w3.org/2000/svg" fill="none" viewBox="0 0 699 699"><g clip-path="url(#a)"><mask id="b" width="699" height="699" x="0" y="0" maskUnits="userSpaceOnUse" style="mask-type:luminance"><path fill="#fff" d="M699 0H0v699h699V0Z"/></mask><g fill="#fff" mask="url(#b)"><path d="M349.5 37.2983c42.164 0 83.048 8.2513 121.516 24.5216 18.493 7.8203 36.331 17.5054 53.021 28.7778 16.54 11.1733 32.095 24.0073 46.233 38.1433 14.137 14.137 26.97 29.694 38.145 46.23 11.274 16.689 20.958 34.526 28.776 53.017 16.268 38.467 24.518 79.346 24.518 121.51s-8.25 83.043-24.518 121.51c-7.822 18.491-17.502 36.328-28.776 53.017-11.175 16.54-24.008 32.093-38.145 46.229-14.138 14.136-29.693 26.971-46.233 38.144-16.69 11.277-34.528 20.958-53.021 28.778-38.468 16.27-79.352 24.522-121.516 24.522s-83.048-8.252-121.516-24.522c-18.493-7.82-36.331-17.505-53.021-28.778-16.54-11.173-32.095-24.008-46.233-38.144-14.137-14.136-26.97-29.693-38.1448-46.229-11.2745-16.689-20.9578-34.526-28.7766-53.017-16.2674-38.467-24.5171-79.346-24.5171-121.51s8.2497-83.043 24.5171-121.51c7.8229-18.491 17.5021-36.328 28.7766-53.017 11.1748-16.54 24.0078-32.093 38.1448-46.23 14.138-14.136 29.693-26.97 46.233-38.1433 16.69-11.2766 34.528-20.9575 53.021-28.7778 38.468-16.2703 79.352-24.5216 121.516-24.5216ZM349.5 0C156.475 0 0 156.475 0 349.502c0 193.027 156.475 349.502 349.5 349.502S699 542.529 699 349.502C699 156.475 542.525 0 349.5 0Z"/><path d="M243.446 215.58v-25.769c0-20.845 13.64-37.787 34.184-41.413 15.526-2.739 29.875.162 41.298 12.043 7.487 7.783 11.349 17.186 11.498 27.995.129 8.964.029 17.932.029 27.02H377.6c.033-.559.091-1.152.091-1.749v-24.451c.062-23.154 18.356-41.442 41.502-41.654 7.98-.083 15.745.709 22.851 4.559 14.581 7.911 22.209 20.224 22.619 36.809.216 8.757.038 17.526.038 26.581h61.274c11.456 0 19.027 7.626 20.067 19.031.89 9.76-1.62 18.649-4.848 27.58-3.323 9.242-8.117 17.882-14.196 25.595-4.802 6.104-10.209 11.786-15.745 17.232-7.193 7.045-14.755 13.721-22.242 20.46-4.094 3.68-7.778 7.65-10.127 12.669-.676 1.442-1.243 3.1-1.243 4.662-.071 37.551.083 75.107-.104 112.658-.219 45.127-33.599 85.372-77.898 93.938-6.845 1.289-13.789 1.968-20.754 2.035-19.475.265-38.949.095-58.424.091-47.53 0-87.357-32.412-96.659-78.953-1.227-6.436-1.832-12.975-1.807-19.527-.17-36.586-.074-73.171-.112-109.757-.025-1.144-.273-2.267-.729-3.315-2.971-6.905-8.212-11.969-13.674-16.901-7.371-6.664-14.663-13.41-21.877-20.24-8.416-7.953-15.965-16.697-21.435-26.938-6.161-11.517-11.39-23.469-11.386-36.921-.021-3.034.315-6.059.995-9.014 2.071-8.529 9.629-14.314 18.488-14.327 22.926-.029 45.856-.029 68.782 0l2.399-.029Zm67.73 41.418h-74.952c-4.819 0-8.958 3.237-9.58 7.957-.402 2.731-.364 5.512.116 8.231 1.658 8.388 5.3 15.984 11.142 22.217 5.842 6.233 12.198 11.778 18.132 17.82 4.483 4.559 7.33 9.984 7.322 16.669-.042 40.999-.042 81.998 0 122.997-.034 2.901.149 5.798.538 8.67 4.144 28.148 27.762 48.488 56.207 48.488 19.541 0 39.081-.009 58.622-.021 2.9.029 5.797-.137 8.676-.497 27.89-3.834 48.678-27.655 48.716-55.811 0-6.834-.058-13.676.045-20.502 0-1.587-.447-2.238-1.964-2.706-14.407-4.414-28.18-10.671-40.987-18.612-29.419-18.276-51.956-42.76-66.566-74.31-7.006-15.135-11.813-30.954-13.499-47.548-1.106-10.874-1.334-21.852-1.968-33.042Zm122.088 109.914c.124-10.261-8.092-18.678-18.352-18.798-10.259-.124-18.674 8.094-18.795 18.355-.124 10.261 8.093 18.678 18.352 18.798h.046c10.217.137 18.612-8.036 18.749-18.251v-.104Z"/><path d="M318.479 366.763c-.037 10.261-8.386 18.554-18.645 18.517-10.26-.038-18.551-8.388-18.514-18.65.038-10.261 8.387-18.553 18.646-18.516h.066c10.218.033 18.48 8.342 18.447 18.566v.083Z"/></g></g><defs><clipPath id="a"><path fill="#fff" d="M0 0h699v699H0z"/></clipPath></defs></svg>
