<svg width="2496" height="2496" viewBox="0 0 2496 2496" fill="none" xmlns="http://www.w3.org/2000/svg">
	<path fill-rule="evenodd" clip-rule="evenodd" d="M1248 153C1852.79 153 2343 643.206 2343 1248C2343 1852.79 1852.79 2343 1248 2343C643.206 2343 153 1852.79 153 1248C153 643.206 643.206 153 1248 153Z" fill="#F0B90B"/>
	<path d="M754.81 1248L755.6 1537.54L1001.62 1682.32V1851.83L611.618 1623.09V1163.33L754.81 1248ZM754.81 958.458V1127.18L611.53 1042.43V873.701L754.81 788.943L898.792 873.701L754.81 958.458ZM1104.37 873.701L1247.65 788.943L1391.63 873.701L1247.65 958.458L1104.37 873.701Z" fill="white"/>
	<path d="M858.346 1477.53V1308.02L1001.63 1392.77V1561.5L858.346 1477.53ZM1104.37 1743.03L1247.65 1827.79L1391.63 1743.03V1911.76L1247.65 1996.51L1104.37 1911.76V1743.03ZM1597.12 873.701L1740.4 788.943L1884.38 873.701V1042.43L1740.4 1127.18V958.458L1597.12 873.701ZM1740.4 1537.54L1741.19 1248L1884.47 1163.24V1623L1494.46 1851.74V1682.23L1740.4 1537.54Z" fill="white"/>
	<path d="M1637.65 1477.53L1494.38 1561.5V1392.77L1637.65 1308.01V1477.53Z" fill="white"/>
	<path d="M1637.66 1018.47L1638.45 1187.99L1391.72 1332.76V1623L1248.44 1706.97L1105.16 1623V1332.76L858.433 1187.99V1018.47L1002.33 933.715L1247.56 1079.19L1494.29 933.715L1638.27 1018.47H1637.66ZM858.346 729.017L1247.65 499.488L1637.66 729.017L1494.38 813.774L1247.65 668.301L1001.63 813.774L858.346 729.017Z" fill="white"/>
</svg>
