<svg xmlns="http://www.w3.org/2000/svg" viewBox="0 0 788 788"><circle cx="394" cy="394" r="394" fill="#0ac18e"/><path d="M516.9 261.7c-19.8-44.9-65.3-54.5-121-45.2L378 147.1 335.8 158l17.6 69.2c-11.1 2.8-22.5 5.2-33.8 8.4L302 166.8l-42.2 10.9 17.9 69.4c-9.1 2.6-85.2 22.1-85.2 22.1l11.6 45.2s31-8.7 30.7-8c17.2-4.5 25.3 4.1 29.1 12.2l49.2 190.2c.6 5.5-.4 14.9-12.2 18.1.7.4-30.7 7.9-30.7 7.9l4.6 52.7 85.3-21.8 18.1 70.2 42.2-10.9-18.1-70.7 33.9-8.4 18 70.3 42.2-10.9-18.1-70.1c65-15.8 110.9-56.8 101.5-119.5-6-37.8-47.3-68.8-81.6-72.3 21.1-18.7 31.8-46 18.7-81.7h0zm-20.3 165.5c8.4 62.1-77.9 69.7-106.4 77.2l-24.8-92.9c28.6-7.5 117-39 131.2 15.7zm-52-126.5c8.9 55.2-64.9 61.6-88.7 67.7l-22.6-84.3c23.9-5.9 93.2-34.5 111.3 16.6z" fill="#fff"/></svg>
