<svg xmlns="http://www.w3.org/2000/svg" width="56.693" height="56.693" viewBox="0 0 15 15" fill="#0c0c0c"
     fill-rule="evenodd"><path d="M9.14 3.423h0l-.219.069v.825a.96.96 0 0 1-.662.912l-2.252.71v1.222l2.96-.933c.702-.219 1.121-.825 1.121-1.621V4.06c0-.373-.428-.801-.948-.637m-4.71-.349l4.184-1.319c.457-.144.82-.136 1.038-.11l-.525-.383A2.16 2.16 0 0 0 7.24.966L3.264 2.22z"/><path d="M10.805 6.695s.739-.671.739-2.112v-.61c0-.949-1.093-2.491-2.843-1.939L4.549 3.343v7.698l1.166-.368V8.781L9.462 7.6c.698-.218 1.281.33 1.281.939v.75c0 .764-.675 1.847-1.732 2.179L3.264 13.28l1.166.855 5.176-1.632c1.093-.348 2.302-1.285 2.302-3.275v-.766c0-1.204-1.103-1.766-1.103-1.766m-1.751-.188L5.715 7.559V4.197l3.336-1.052c.697-.218 1.327.339 1.327.914v.547c0 .957-.524 1.648-1.325 1.899m1.398 2.784V8.54c0-.423-.409-.818-.902-.662l-.264.083v1.038a1.16 1.16 0 0 1-.815 1.112l-4.212 1.328V3.31l-1.166-.855v10.574l5.831-1.838c.914-.288 1.529-1.216 1.529-1.901"/></svg>
