<svg xmlns="http://www.w3.org/2000/svg" width="151.181" height="151.181" viewBox="0 0 40 40"><path d="M9.49 6.993V3.996l13.174.014c2.229.029 4.184.782 5.689 2.533 1.824 2.114 1.969 6.616-1.535 8.512-.014.014-.203.13-.29.188.666.434 1.361.767 1.911 1.274 3.547 3.156 2.36 8.773-2.229 10.438-1.028.376-2.157.594-3.243.608H9.519v-2.997c2.287-.55 3.416-1.708 3.46-3.547.072-2.374-.724-3.344-3.489-4.227v-2.635c2.258-.507 3.46-1.723 3.489-3.518.043-1.839-1.086-3.026-3.489-3.648zm6.891 17.126l6.384-.029c1.896-.101 3.141-1.65 3.127-3.59-.014-1.81-1.317-3.286-3.17-3.388-2.041-.116-6.254-.072-6.326-.072l-.014 7.079zm0-10.177c1.94 0 3.822.072 5.689-.029 1.766-.087 2.982-1.419 3.098-3.127.101-1.636-1.013-3.141-2.78-3.315-1.969-.174-3.981-.043-6.008-.043v6.514z" fill="#282828"/><path d="M30.366 32.863v3.141H9.621v-3.141h20.745z" fill="#14a049"/></svg>
