<svg xmlns="http://www.w3.org/2000/svg" width="200" height="200" fill="none"><path fill="#fff" d="M0 0h200v200H0z"/><path d="M102.99 126.658H30V20h72.99c25.061 0 45.353 20.316 45.353 45.353v15.928c0 25.062-20.292 45.377-45.353 45.377z" fill="#acd905"/><path d="M121.804 180H30v-53.341c0-29.449 23.869-53.317 53.317-53.317h38.487c29.448 0 53.317 23.868 53.317 53.317S151.252 180 121.804 180z" fill="#aeafaa"/><path d="M148.343 80.424v.882c0 25.061-20.293 45.353-45.378 45.353H30c0-14.712 5.985-28.042 15.618-37.699 9.657-9.657 22.987-15.618 37.723-15.618h38.463c9.681 0 18.742 2.575 26.539 7.082z" fill="#5d6e3c"/></svg>
