<svg width="72" height="72" viewBox="0 0 72 72" fill="none" xmlns="http://www.w3.org/2000/svg"><rect width="72" height="72" rx="36" fill="#020226"/><path d="M46.843 40.422v-12.58h2.634v12.58h-2.634z" fill="#F7A600"/><path d="M16.147 44.16H10.5V31.58h5.42c2.633 0 4.168 1.377 4.168 3.533 0 1.395-.985 2.297-1.666 2.597.814.354 1.857 1.148 1.857 2.827 0 2.35-1.725 3.622-4.132 3.622zm-.436-10.39h-2.577v2.898h2.577c1.117 0 1.744-.582 1.744-1.448 0-.867-.625-1.45-1.744-1.45zm.17 5.107h-2.747v3.091h2.747c1.195 0 1.762-.707 1.762-1.554.002-.849-.567-1.537-1.762-1.537zM28.312 39v5.16h-2.615V39l-4.055-7.42h2.86l2.52 5.07 2.483-5.07h2.86L28.313 39zM39.833 44.16h-5.646V31.58h5.42c2.633 0 4.168 1.377 4.168 3.533 0 1.395-.985 2.297-1.667 2.597.815.354 1.857 1.148 1.857 2.827-.001 2.35-1.726 3.622-4.132 3.622zm-.435-10.39H36.82v2.898h2.578c1.117 0 1.743-.582 1.743-1.448-.001-.867-.626-1.45-1.743-1.45zm.17 5.107H36.82v3.091h2.748c1.194 0 1.762-.707 1.762-1.554 0-.849-.57-1.537-1.762-1.537zM57.967 33.77v10.39h-2.634V33.77h-3.524v-2.19h9.683v2.19h-3.525z" fill="#fff"/></svg>