<svg width="255" height="220" viewBox="0 0 255 220" fill="none" xmlns="http://www.w3.org/2000/svg">
<rect width="255" height="220" rx="14.0157" fill="#F8F8FA"/>
<path d="M190.06 74.4339L186.927 68.9601C186.682 68.5317 186.341 68.1654 185.932 67.8899C185.522 67.6144 185.055 67.4371 184.566 67.3716C184.077 67.3062 183.579 67.3544 183.111 67.5125C182.644 67.6707 182.219 67.9345 181.87 68.2835L174.712 75.4412C174.185 75.9686 173.857 76.6623 173.784 77.4042C173.711 78.1462 173.897 78.8907 174.311 79.511C176.926 83.5046 179.02 87.8162 180.542 92.3408C183.386 100.795 184.178 109.805 182.852 118.625C181.526 127.446 178.122 135.825 172.919 143.07C167.716 150.315 160.864 156.218 152.929 160.293C144.994 164.367 136.204 166.495 127.285 166.502C118.096 166.528 109.043 164.28 100.933 159.96L113.066 147.832C119.143 150.132 125.687 150.923 132.137 150.137C138.587 149.351 144.75 147.011 150.097 143.318C155.443 139.625 159.813 134.69 162.832 128.936C165.851 123.182 167.428 116.781 167.428 110.283C167.425 108.895 167.348 107.508 167.199 106.127C166.723 101.493 165.442 96.9773 163.414 92.7834C163.187 92.3279 162.856 91.9325 162.447 91.6298C162.038 91.327 161.563 91.1254 161.062 91.0415C160.56 90.9576 160.045 90.9938 159.56 91.1472C159.075 91.3005 158.633 91.5666 158.271 91.9237L151.006 99.1882C150.619 99.574 150.337 100.052 150.187 100.577C150.036 101.103 150.022 101.658 150.146 102.19L150.757 104.799C151.83 109.365 151.547 114.144 149.943 118.551C148.339 122.957 145.483 126.8 141.725 129.606C137.968 132.413 133.473 134.061 128.792 134.349C124.111 134.637 119.448 133.552 115.375 131.227L112.181 129.396C111.569 129.043 110.859 128.902 110.159 128.994C109.459 129.086 108.809 129.406 108.309 129.905L78.6714 159.507C78.3481 159.83 78.0975 160.218 77.9364 160.646C77.7754 161.074 77.7075 161.531 77.7373 161.987C77.7672 162.443 77.8941 162.888 78.1096 163.291C78.3251 163.694 78.6241 164.046 78.9868 164.325L83.3516 167.672C95.938 177.373 111.394 182.611 127.285 182.562C167.138 182.562 199.563 150.136 199.563 110.283C199.567 97.7106 196.291 85.3542 190.06 74.4339Z" fill="url(#paint0_linear_33_4937)"/>
<path d="M171.212 52.8905C158.627 43.1906 143.173 37.9522 127.284 38.0003C87.4257 38.0003 55 70.4261 55 110.284C54.9978 122.857 58.2731 135.213 64.5029 146.134L67.6366 151.607C67.881 152.041 68.223 152.412 68.6353 152.69C69.0477 152.969 69.5192 153.148 70.0125 153.213C70.5059 153.278 71.0077 153.228 71.4783 153.066C71.9488 152.903 72.3752 152.634 72.7238 152.279L79.8764 145.126C80.4034 144.599 80.7315 143.905 80.8048 143.163C80.878 142.421 80.692 141.677 80.2782 141.057C77.6649 137.062 75.5708 132.75 74.0464 128.227C71.2024 119.774 70.4097 110.766 71.7337 101.946C73.0578 93.1261 76.4607 84.7477 81.6614 77.5025C86.8621 70.2573 93.7115 64.3529 101.644 60.2769C109.577 56.2009 118.365 54.0702 127.284 54.0606C136.471 54.0353 145.522 56.2827 153.63 60.6027L141.482 72.7357C135.406 70.4338 128.861 69.6416 122.411 70.4273C115.96 71.2129 109.797 73.5529 104.451 77.2461C99.1043 80.9393 94.7344 85.8753 91.7167 91.6301C88.6989 97.3848 87.1234 103.786 87.1256 110.284C87.1256 110.951 87.3036 113.993 87.3596 114.517C87.8506 119.122 89.1309 123.608 91.1445 127.779C91.3678 128.242 91.6985 128.644 92.109 128.953C92.5196 129.261 92.998 129.467 93.5043 129.553C94.0107 129.64 94.5303 129.603 95.0198 129.448C95.5093 129.292 95.9544 129.022 96.3181 128.659L103.583 121.4C103.971 121.011 104.254 120.529 104.403 120C104.553 119.471 104.565 118.913 104.437 118.378L103.837 115.789C103.415 113.984 103.2 112.137 103.196 110.284C103.196 106.068 104.303 101.926 106.407 98.2719C108.511 94.6182 111.538 91.581 115.184 89.4644C118.83 87.3479 122.969 86.2261 127.185 86.2115C131.401 86.1968 135.547 87.2898 139.208 89.3809L142.408 91.2123C143.019 91.5637 143.729 91.7043 144.427 91.6123C145.126 91.5204 145.775 91.2011 146.274 90.7036L175.892 61.086C176.215 60.7624 176.466 60.3736 176.627 59.9455C176.788 59.5173 176.856 59.0597 176.826 58.6032C176.796 58.1468 176.669 57.7019 176.454 57.2984C176.238 56.8949 175.939 56.542 175.577 56.2633L171.212 52.8905Z" fill="url(#paint1_linear_33_4937)"/>
<defs>
<linearGradient id="paint0_linear_33_4937" x1="101.793" y1="187.166" x2="203.547" y2="85.4121" gradientUnits="userSpaceOnUse">
<stop stop-color="#B090F5"/>
<stop offset="1" stop-color="#5FBFFF"/>
</linearGradient>
<linearGradient id="paint1_linear_33_4937" x1="55" y1="95.6127" x2="176.833" y2="95.6127" gradientUnits="userSpaceOnUse">
<stop stop-color="#68D7FA"/>
<stop offset="1" stop-color="#7EF1B3"/>
</linearGradient>
</defs>
</svg>
