<?xml version="1.0" encoding="UTF-8" standalone="no"?>
<!-- Created with Inkscape (http://www.inkscape.org/) -->

<svg
   width="512"
   height="512"
   viewBox="0 0 135.46666 135.46667"
   version="1.1"
   id="svg168"
   inkscape:version="1.2.1 (9c6d41e410, 2022-07-14, custom)"
   sodipodi:docname="celo.svg"
   xmlns:inkscape="http://www.inkscape.org/namespaces/inkscape"
   xmlns:sodipodi="http://sodipodi.sourceforge.net/DTD/sodipodi-0.dtd"
   xmlns="http://www.w3.org/2000/svg"
   xmlns:svg="http://www.w3.org/2000/svg">
  <sodipodi:namedview
     id="namedview170"
     pagecolor="#ffffff"
     bordercolor="#000000"
     borderopacity="0.25"
     inkscape:showpageshadow="2"
     inkscape:pageopacity="0.0"
     inkscape:pagecheckerboard="0"
     inkscape:deskcolor="#d1d1d1"
     inkscape:document-units="mm"
     showgrid="false"
     inkscape:zoom="0.68328423"
     inkscape:cx="398.07739"
     inkscape:cy="211.47861"
     inkscape:window-width="1920"
     inkscape:window-height="1011"
     inkscape:window-x="0"
     inkscape:window-y="0"
     inkscape:window-maximized="1"
     inkscape:current-layer="layer1" />
  <defs
     id="defs165" />
  <g
     inkscape:label="Layer 1"
     inkscape:groupmode="layer"
     id="layer1">
    <path
       id="Bottom_Ring"
       data-name="Bottom Ring"
       class="cls-2"
       d="m 54.052668,118.31257 c 20.55371,0 37.215357,-16.66165 37.215357,-37.215357 0,-20.553703 -16.661647,-37.215356 -37.215357,-37.215356 -20.553701,0 -37.215354,16.661653 -37.215354,37.215356 0,20.553707 16.661653,37.215357 37.215354,37.215357 z m 0,13.53286 c -28.026545,0 -50.7482105,-22.72167 -50.7482105,-50.748217 0,-28.026545 22.7216655,-50.748212 50.7482105,-50.748212 28.026544,0 50.748212,22.721667 50.748212,50.748212 0,28.026547 -22.721668,50.748217 -50.748212,50.748217 z"
       style="fill:#fbcc5c;stroke-width:0.135328" />
    <path
       id="Top_Ring"
       data-name="Top Ring"
       class="cls-3"
       d="m 81.118384,91.246859 c 20.553706,0 37.215366,-16.661656 37.215366,-37.215358 0,-20.553703 -16.66166,-37.215356 -37.215366,-37.215356 -20.553709,0 -37.215356,16.661653 -37.215356,37.215356 0,20.553702 16.661647,37.215358 37.215356,37.215358 z m 0,13.532861 c -28.026544,0 -50.748213,-22.721673 -50.748213,-50.748219 0,-28.026547 22.721669,-50.7482129 50.748213,-50.7482129 28.026556,0 50.748226,22.7216659 50.748226,50.7482129 0,28.026546 -22.72167,50.748219 -50.748226,50.748219 z"
       style="fill:#35d07f;stroke-width:0.135328" />
    <path
       id="Rings_Overlap"
       data-name="Rings Overlap"
       class="cls-4"
       d="m 82.782925,104.75264 a 37.09762,37.09762 0 0 0 7.378112,-14.61548 37.104387,37.104387 0 0 0 14.615493,-7.376759 50.522214,50.522214 0 0 1 -3.94348,18.046069 50.522214,50.522214 0 0 1 -18.048773,3.94617 z M 45.011369,44.988845 a 37.104387,37.104387 0 0 0 -14.615485,7.376759 50.522214,50.522214 0 0 1 3.943473,-18.046063 50.522214,50.522214 0 0 1 18.04877,-3.943476 37.104387,37.104387 0 0 0 -7.376758,14.61278 z"
       style="fill:#5ea33b;stroke-width:0.135328" />
  </g>
</svg>
