<svg width="64" height="64" viewBox="0 0 64 64" fill="none" xmlns="http://www.w3.org/2000/svg">
<circle cx="32" cy="32" r="32" fill="white"/>
<circle cx="32" cy="32" r="31.5" stroke="#AAB8C1" stroke-opacity="0.4"/>
<path fill-rule="evenodd" clip-rule="evenodd" d="M18.5381 43.3951C17.5837 42.8011 17 41.7432 17 40.6073V34.2642C17 34.0214 17.0639 33.7872 17.1832 33.5791C17.5539 32.9288 18.3762 32.7076 19.0153 33.0892L33.0844 41.4354C33.9067 41.9253 34.4137 42.8185 34.4137 43.7897V50.3626C34.4137 50.6617 34.3328 50.9609 34.1794 51.2167C33.715 51.9885 32.7265 52.2312 31.968 51.7587L18.5381 43.3951ZM39.5096 31.3506C40.3319 31.8405 40.8389 32.7337 40.8389 33.7049V47.0414C40.8389 47.436 40.6302 47.8002 40.2936 47.9909L37.213 49.7556C37.1747 49.7772 37.1321 49.7946 37.0895 49.8076V42.4022C37.0895 41.4441 36.5952 40.5552 35.7857 40.061L23.4295 32.5386V24.1793C23.4295 23.9365 23.4934 23.7024 23.6127 23.4943C23.9834 22.844 24.8057 22.6228 25.4448 23.0044L39.5096 31.3506ZM45.6664 21.4999C46.493 21.9855 47 22.8873 47 23.8585V43.3388C47 43.7376 46.7827 44.1062 46.4376 44.2969L43.519 45.9011V32.3391C43.519 31.3809 43.0247 30.4964 42.2194 30.0022L29.5905 22.2933V14.3633C29.5905 14.1205 29.6545 13.8864 29.7695 13.6783C30.1402 13.028 30.9625 12.8068 31.6016 13.184L45.6664 21.4999Z" fill="#00D395"/>
</svg>
