<svg xmlns="http://www.w3.org/2000/svg" width="32" height="32"><defs><linearGradient id="A" x1="50%" x2="50%" y1="-29.386%" y2="100%"><stop offset="0%" stop-color="#08021e"/><stop offset="100%" stop-color="#071e40"/></linearGradient></defs><g fill-rule="evenodd"><path fill="url(#A)" fill-rule="nonzero" d="M32 16c0-2.094-.417-4.188-1.218-6.123a16.06 16.06 0 0 0-3.468-5.191 16.05 16.05 0 0 0-5.191-3.468A16.05 16.05 0 0 0 16 0a16.05 16.05 0 0 0-6.123 1.218 16.06 16.06 0 0 0-5.191 3.468C3.205 6.167 2.019 7.942 1.218 9.877A16.05 16.05 0 0 0 0 16a16.05 16.05 0 0 0 1.218 6.123 16.05 16.05 0 0 0 3.468 5.191c1.481 1.481 3.256 2.667 5.191 3.468S13.906 32 16 32s4.188-.417 6.123-1.218 3.71-1.988 5.191-3.468 2.667-3.256 3.468-5.191S32 18.094 32 16z"/><path fill="#010f1d" d="M23.68 8.047a3.07 3.07 0 0 0-.025-.369c-.016-.122-.043-.244-.082-.361s-.09-.231-.153-.337a1.66 1.66 0 0 0-.224-.295c-.085-.089-.18-.169-.281-.24l-.302-.214c-.093-.08-.173-.175-.257-.266l-.348-.35-.445-.427-.547-.5-.579-.462a4.87 4.87 0 0 0-.639-.375c-.222-.109-.451-.203-.686-.28s-.475-.137-.719-.18a5.27 5.27 0 0 0-.737-.078c-.247-.009-.494 0-.74.026s-.49.068-.73.127-.476.135-.705.226a5.43 5.43 0 0 0-.669.319 5.47 5.47 0 0 0-.619.407c-.197.15-.383.312-.558.486a5.43 5.43 0 0 0-.488.558c-.15.197-.286.404-.407.619a5.43 5.43 0 0 0-.32.668c-.091.23-.166.466-.224.706a5.37 5.37 0 0 0-.125.73 5.02 5.02 0 0 0-.022.74c.011.247.042.493.083.736l.113.607a3.28 3.28 0 0 1 .058.49 2.08 2.08 0 0 1-.048.491l-.125.478a3.05 3.05 0 0 0-.073.488 2.89 2.89 0 0 0-.003.37 2.66 2.66 0 0 0 .048.367c.024.121.056.24.095.358s.085.232.137.345l.168.331.151.267c.042.072.086.146.102.225s.003.164-.013.246c-.02.103-.044.201-.073.298a2.63 2.63 0 0 1-.132.346 2.11 2.11 0 0 0-.548.232 1.9 1.9 0 0 0-.781.871c-.084.186-.148.375-.192.567-.216.249-.452.481-.702.695a12.17 12.17 0 0 1-.781.605l-.782.604a5 5 0 0 0-.664.732c-.198.264-.373.545-.52.839s-.268.603-.359.92a5.43 5.43 0 0 0-.185.97 5.41 5.41 0 0 0-.007.988 5.35 5.35 0 0 0 .174.972 5.37 5.37 0 0 0 .349.924c.145.296.317.579.511.845s.413.514.65.744.492.439.762.629.554.358.851.501.605.263.922.353a5.53 5.53 0 0 0 .97.184c.328.032.658.035.987.012a4.56 4.56 0 0 0 .973-.169c.315-.094.617-.232.912-.38l1.145-.65c.463-.294.909-.618 1.34-.96l1.485-1.304 1.366-1.429 1.237-1.543 1.103-1.64c.341-.565.65-1.149.905-1.757.183-.115.344-.264.482-.446.277-.365.417-.777.42-1.234.002-.229-.034-.446-.106-.651.205-.704.326-1.433.382-2.168.045-.588.049-1.179-.026-1.761-.056-.437-.157-.868-.273-1.293a2.33 2.33 0 0 0 .329-.848c.049-.301.026-.612-.055-.908a2.15 2.15 0 0 0-.415-.809 2.2 2.2 0 0 0-.719-.557z"/><path fill="#1878e0" d="M14.059 27.09c1.71-.753 3.264-2.06 4.438-3.237s1.974-2.231 2.566-3.093.981-1.536 1.213-2.012l.42-.912c.114-.159.268-.201.385-.289s.194-.223.233-.375a.8.8 0 0 0-.007-.447c-.046-.129-.138-.221-.133-.354s.105-.308.227-.871.265-1.516.255-2.294-.171-1.381-.275-1.768-.149-.557-.069-.746.287-.395.346-.662a.95.95 0 0 0-.212-.797c-.183-.202-.461-.276-.643-.338s-.267-.111-.31-.256-.043-.385-.043-.617 0-.458-.108-.6-.324-.199-.509-.366-.336-.439-1.715-1.673a4.06 4.06 0 0 0-2.331-.994c-.859-.073-1.732.139-2.469.577s-1.341 1.102-1.695 1.887-.458 1.692-.284 2.52c.278 1.318.173 1.709.074 2.08s-.193.72-.136 1.075.264.714.432 1.003.294.509.294.855-.126.818-.268 1.19-.299.644-.504.78-.457.136-.642.236-.3.301-.358.478-.058.327-.159.504-.303.379-.575.651-.613.613-1.602 1.295a4.22 4.22 0 0 0-1.676 4.112c.133.768.488 1.498 1.045 2.116s1.319 1.123 2.105 1.377 1.598.255 2.233.113a2.38 2.38 0 0 0 .454-.147z"/><path fill="#0957a8" d="M15.381 4.93c.362-.207.756-.358 1.183-.454.852-.19 1.681-.114 2.487.231.403.172.759.397 1.07.675l1.715 1.673c.185.167.401.225.509.366s.108.367.108.6 0 .473.043.617.128.194.31.256.46.137.643.338a.95.95 0 0 1 .212.797c-.059.268-.266.474-.346.662s-.035.359.069.746.265.99.275 1.768-.133 1.731-.255 2.294l-.227.871c-.004.133.087.225.133.354a.8.8 0 0 1 .007.447c-.039.151-.117.286-.233.375s-.27.13-.385.289-.188.437-.42.912-.621 1.15-1.213 2.012-1.388 1.912-2.566 3.093-2.727 2.484-4.438 3.237a2.38 2.38 0 0 1-.454.147c-.635.142-1.446.141-2.233-.113s-1.548-.759-2.105-1.377-.912-1.348-1.045-2.116a4.08 4.08 0 0 1-.051-.423c.72 1.654 1.68 1.898 2.588 1.904s1.764-.222 2.653-.736 1.813-1.312 2.716-2.151 1.782-1.719 2.433-2.525l1.466-1.951c.393-.414.757-.512.978-.705s.299-.484.265-.753-.178-.52-.25-.85a1.67 1.67 0 0 1 .176-1.196c.248-.454.744-.949 1.033-1.609s.372-1.483.354-2.117-.137-1.078-.391-1.494-.641-.803-1.027-.997-.772-.194-1.227-.264-.979-.211-1.289-.461-.407-.611-.412-.957.08-.68-.02-.929-.388-.415-.781-.586-.892-.345-2.055.1z"/><path fill="#2ca7ee" d="M11.957 18.952c-.149-.001-.298.034-.446.102a1.01 1.01 0 0 0-.577.676c-.044.157-.054.309-.03.456a.32.32 0 0 0 .125.202c.066.048.151.068.231.054a.31.31 0 0 0 .202-.125c.047-.066.067-.153.054-.231-.01-.061-.006-.125.013-.19a.42.42 0 0 1 .241-.282.44.44 0 0 1 .186-.043c.079 0 .162-.033.22-.09s.091-.138.092-.219-.033-.162-.09-.22a.32.32 0 0 0-.219-.092z"/><path fill="#010f1d" d="M17.262 11.474a1.5 1.5 0 0 0-.433-1.046 1.5 1.5 0 0 0-1.046-.433 1.5 1.5 0 0 0-1.046.433 1.5 1.5 0 0 0-.433 1.046 1.5 1.5 0 0 0 .433 1.046 1.5 1.5 0 0 0 1.046.433 1.5 1.5 0 0 0 1.046-.433 1.5 1.5 0 0 0 .433-1.046z"/><path fill="#178ccf" d="M19.956 20.281a1.05 1.05 0 0 0 .404-.214c.251-.209.378-.476.382-.803.002-.163-.028-.313-.089-.449a.32.32 0 0 0-.173-.163c-.076-.029-.164-.026-.237.007s-.134.097-.163.173-.025.165.007.237c.025.057.038.119.037.187-.002.136-.055.248-.159.335a.44.44 0 0 1-.169.089.32.32 0 0 0-.189.144c-.041.07-.052.157-.032.235s.073.148.144.189a.32.32 0 0 0 .235.032z"/><path fill="#2ca7ee" d="M15.399 19.989a1.05 1.05 0 0 0-.446.102 1.01 1.01 0 0 0-.577.676c-.044.157-.054.309-.03.456a.32.32 0 0 0 .125.202.31.31 0 0 0 .433-.07.32.32 0 0 0 .055-.231c-.01-.061-.006-.125.012-.19a.42.42 0 0 1 .241-.282.44.44 0 0 1 .186-.043c.079 0 .162-.033.22-.09s.091-.138.092-.219-.033-.162-.09-.22a.32.32 0 0 0-.219-.092z"/><path fill="#178ccf" d="M17.572 22.594c0-.081-.034-.162-.091-.219s-.138-.091-.219-.091-.162.034-.22.091-.091.138-.091.219.034.162.091.22.138.091.22.091.162-.034.219-.091.091-.138.091-.22z"/><path fill="#2ca7ee" d="M14.875 8.239c0-.081-.034-.162-.091-.22s-.138-.091-.219-.091-.162.033-.219.091-.091.139-.091.22.034.162.091.219.138.091.219.091.162-.034.219-.091.091-.138.091-.219z"/><path fill="#010f1d" d="M21.876 10.291c0-.463-.192-.925-.519-1.252s-.79-.519-1.252-.519-.925.192-1.253.519-.519.79-.519 1.252a1.8 1.8 0 0 0 .519 1.253 1.8 1.8 0 0 0 1.253.519c.463 0 .925-.192 1.252-.519s.519-.79.519-1.253z"/><path fill="#fff" d="M21.256 10.291a1.17 1.17 0 0 0-.337-.814 1.17 1.17 0 0 0-.814-.337 1.17 1.17 0 0 0-1.151 1.151 1.17 1.17 0 0 0 1.151 1.151 1.17 1.17 0 0 0 .814-.337 1.17 1.17 0 0 0 .337-.814zm-4.514 1.183c0-.251-.104-.501-.281-.678s-.428-.281-.678-.281-.501.104-.678.281-.281.428-.281.678a.97.97 0 0 0 .281.678c.177.177.428.281.678.281s.501-.104.678-.281a.97.97 0 0 0 .281-.678z"/><path fill="#000" d="M20.955 10.016a.47.47 0 0 0-.464-.464.47.47 0 0 0-.464.464.47.47 0 0 0 .464.464.47.47 0 0 0 .464-.464zm-5.048 1.355c0-.114-.047-.229-.129-.311s-.196-.129-.311-.129-.23.047-.311.129-.128.196-.128.311.047.23.128.311.196.129.311.129.23-.047.311-.129.129-.196.129-.311z"/><path fill="#2ca7ee" d="M9.691 21.852a1.05 1.05 0 0 0-.135.437c-.03.325.069.604.297.838a1.05 1.05 0 0 0 .38.254.32.32 0 0 0 .237-.007c.074-.033.134-.097.163-.173s.027-.164-.007-.237-.099-.135-.173-.163c-.058-.022-.111-.058-.158-.106-.095-.097-.137-.214-.124-.349a.44.44 0 0 1 .056-.182.32.32 0 0 0 .032-.235c-.02-.079-.074-.148-.144-.189s-.157-.053-.235-.032-.149.076-.189.144z"/><path fill="#178ccf" d="M12.347 26.059a1.05 1.05 0 0 0 .388.243c.306.113.602.09.886-.07.142-.08.257-.18.344-.301a.32.32 0 0 0 .054-.231c-.013-.08-.059-.154-.125-.202s-.151-.068-.231-.055a.32.32 0 0 0-.202.125.44.44 0 0 1-.144.125.42.42 0 0 1-.369.029c-.064-.024-.118-.057-.162-.101a.32.32 0 0 0-.219-.092c-.082-.001-.162.033-.22.09s-.092.138-.091.219a.32.32 0 0 0 .09.22zm8.094-19.213c-.038-.144-.109-.279-.214-.404a1.01 1.01 0 0 0-.803-.382 1.05 1.05 0 0 0-.449.089.32.32 0 0 0-.163.173c-.029.076-.026.163.007.237s.097.134.173.163a.32.32 0 0 0 .237-.007c.057-.026.119-.038.187-.037.136.002.248.055.335.159.044.052.073.108.089.169a.32.32 0 0 0 .144.189c.07.041.157.052.236.032s.148-.074.188-.144.052-.159.032-.235zm1.866 8.106c0-.081-.034-.162-.091-.22s-.138-.091-.219-.091-.162.034-.219.091-.091.138-.091.22.034.162.091.219.138.091.219.091.162-.034.219-.091.091-.138.091-.219z"/><path fill="#2ca7ee" d="M16.944 16.576a1.05 1.05 0 0 0-.388-.244c-.306-.113-.602-.089-.886.07a1.05 1.05 0 0 0-.344.301.32.32 0 0 0-.054.231c.013.08.059.155.125.202s.151.068.231.054a.32.32 0 0 0 .202-.125c.036-.051.084-.092.144-.126.118-.067.242-.076.369-.029a.44.44 0 0 1 .162.101c.056.056.138.091.219.092s.162-.033.22-.09.092-.138.092-.219a.32.32 0 0 0-.09-.22z"/></g></svg>
