<?xml version="1.0" encoding="UTF-8" standalone="no"?>
<!-- Created with Inkscape (http://www.inkscape.org/) -->

<svg
   width="600.0px"
   height="600.0px"
   viewBox="0 0 600.0 600.0"
   version="1.1"
   id="SVGRoot"
   sodipodi:docname="cozy.svg"
   inkscape:version="1.1 (c68e22c387, 2021-05-23)"
   xmlns:inkscape="http://www.inkscape.org/namespaces/inkscape"
   xmlns:sodipodi="http://sodipodi.sourceforge.net/DTD/sodipodi-0.dtd"
   xmlns="http://www.w3.org/2000/svg"
   xmlns:svg="http://www.w3.org/2000/svg">
  <sodipodi:namedview
     id="namedview131"
     pagecolor="#ffffff"
     bordercolor="#666666"
     borderopacity="1.0"
     inkscape:pageshadow="2"
     inkscape:pageopacity="0.0"
     inkscape:pagecheckerboard="0"
     inkscape:document-units="px"
     showgrid="true"
     inkscape:zoom="0.63250561"
     inkscape:cx="423.71166"
     inkscape:cy="587.34657"
     inkscape:window-width="1920"
     inkscape:window-height="1080"
     inkscape:window-x="0"
     inkscape:window-y="0"
     inkscape:window-maximized="1"
     inkscape:current-layer="layer1">
    <inkscape:grid
       type="xygrid"
       id="grid137" />
  </sodipodi:namedview>
  <defs
     id="defs126" />
  <g
     inkscape:label="Layer 1"
     inkscape:groupmode="layer"
     id="layer1">
    <path
       class="st0"
       d="m 36.552238,323.29215 c -4.923599,0 -10.518599,0.67964 -14.658898,1.35928 l -0.6714,-0.67964 c 0,-67.85138 43.305295,-144.08506 95.56259,-179.42668 -4.9236,-4.98408 -11.18999,-9.17523 -16.0017,-12.00709 v -0.67964 c 43.9767,-40.212427 138.19649,-60.035449 201.64378,-49.500929 22.38,-11.327442 49.5717,-17.67081 76.09199,-16.991163 l 0.6714,0.679646 c -2.1261,4.191154 -5.59499,12.686736 -6.93779,20.502671 27.19169,-0.679647 92.09368,16.198245 113.01898,30.357545 v 1.35929 c -5.595,3.51151 -11.19,7.81594 -16.0017,12.68674 58.63559,34.66197 94.21979,77.70625 111.67619,138.42134 l -0.6714,0.67965 c -5.595,0.67964 -10.5186,2.15221 -14.6589,3.51151 1.3428,9.17522 2.7975,28.99825 2.7975,38.17348 0,130.71867 -120.06868,238.10282 -265.87437,238.10282 C 160.76122,550.06753 43.601938,449.02675 36.552238,323.29215 Z M 487.39729,426.48514 c 0,-14.83895 -12.5328,-24.69382 -31.44389,-24.69382 -8.39251,0 -21.5967,1.35929 -27.19171,1.35929 -26.52029,0 -47.44559,-19.82302 -47.44559,-45.19649 0,-25.37348 20.9253,-45.1965 47.44559,-45.1965 43.3053,0 82.35839,35.34162 86.4987,72.72218 3.46889,-12.00709 5.595,-25.37347 5.595,-37.49383 0,-71.36289 -37.0389,-120.07089 -112.34759,-140.57355 l -0.6714,-0.67965 c 2.1261,-4.98408 4.9236,-8.49558 8.3925,-12.68674 l -0.7833,-0.67965 c -17.4564,-0.67964 -37.7103,2.15222 -52.3692,7.81594 l -0.6714,-0.67965 c 0.6714,-6.34337 2.7975,-13.36638 6.2664,-19.82302 L 368,180 c -23.72279,2.83186 -48.11699,10.64779 -65.57339,20.50267 C 284.97021,190.64779 260.57602,182.83186 236.85321,180 l -0.67139,0.67965 c 3.4689,6.34337 5.59499,13.36638 6.2664,19.82302 l -0.67141,0.67965 c -14.65889,-5.66372 -34.91279,-8.49558 -52.36918,-7.81594 l -0.67141,0.67965 c 3.4689,4.19116 6.2664,7.81593 8.3925,12.68674 l -0.6714,0.67965 c -72.62309,20.50266 -112.347585,69.21066 -112.347585,140.57355 0,12.00709 2.126093,25.48674 5.594996,37.49383 4.140297,-37.49383 43.305299,-72.72218 86.498689,-72.72218 26.5203,0 47.4456,19.82302 47.4456,45.1965 0,25.48674 -20.9253,45.19649 -47.4456,45.19649 -5.595,0 -18.79919,-1.35929 -27.1917,-1.35929 -18.79919,0 -31.44389,9.85487 -31.44389,24.69382 0,52.21951 95.56259,102.40008 184.97068,102.40008 89.40809,0 184.85878,-50.18057 184.85878,-102.40008 z M 192.87652,350.13818 c 0,-8.49558 -6.2664,-14.83895 -14.6589,-14.83895 -7.7211,0 -13.9875,6.34337 -13.9875,14.83895 0,7.81594 6.2664,14.1593 13.9875,14.1593 8.3925,0 14.6589,-6.34336 14.6589,-14.1593 z m 72.6231,52.33278 c 0,-6.34337 4.9236,-11.32744 11.86139,-11.32744 7.7211,0 13.2042,5.66372 25.1775,5.66372 11.9733,0 17.4564,-5.66372 25.1775,-5.66372 6.93779,0 11.86139,4.98407 11.86139,11.32744 0,11.32744 -16.00169,20.50267 -37.03889,20.50267 -21.0372,0 -37.03889,-9.17523 -37.03889,-20.50267 z m 6.93779,-56.52393 c 0,-13.36639 11.19,-21.18232 29.9892,-21.18232 18.7992,0 29.9892,7.81593 29.9892,21.18232 0,12.68673 -13.9875,24.01417 -29.9892,24.01417 -16.0017,0 -29.9892,-10.64779 -29.9892,-24.01417 z m 168.18569,4.19115 c 0,-8.49558 -6.2664,-14.83895 -13.9875,-14.83895 -8.39251,0 -14.65891,6.34337 -14.65891,14.83895 0,7.81594 6.2664,14.1593 14.65891,14.1593 7.7211,0 13.9875,-6.34336 13.9875,-14.1593 z"
       id="path10"
       style="fill:#e076ff;stroke-width:1.12585" />
  </g>
</svg>
