<svg xmlns="http://www.w3.org/2000/svg" width="512" height="512"><defs><clipPath id="A"><path fill="#fff" d="M0 0h214.71v59.66H0z"/></clipPath><linearGradient id="B" x1="38.75" y1="59.66" x2="38.75" y2="29.83" gradientUnits="userSpaceOnUse"><stop stop-color="#002d74"/><stop offset="1" stop-color="#002d74" stop-opacity="0"/></linearGradient><linearGradient id="C" x1="12.91" y1="0" x2="12.91" y2="29.83" gradientUnits="userSpaceOnUse"><stop stop-color="#002d74"/><stop offset="1" stop-color="#002d74" stop-opacity="0"/></linearGradient></defs><g clip-path="url(#A)" transform="matrix(7.456199 0 0 7.456199 54.719171 30.044116)"><path d="M25.84 0L0 14.92v29.83l25.84 14.91 25.82-14.91V14.92zm18.17 40.33L25.84 50.82 7.66 40.33v-21L25.84 8.84l18.17 10.49z" fill="#002d74"/><path style="mix-blend-mode:multiply" d="M25.84 59.66l25.82-14.91V14.92L25.84 0v8.85l18.17 10.49v21L25.84 50.82z" fill="url(#B)"/><path style="mix-blend-mode:multiply" d="M25.82 0L0 14.91v29.83l25.82 14.92v-8.85L7.65 40.32v-21L25.82 8.84z" fill="url(#C)"/><path d="M37.89 36.8l-12.06 6.96-12.07-6.96V22.87l12.07-6.97 12.06 6.97-5.02 2.9-7.04-4.07-7.04 4.07v8.12l7.04 4.07 7.04-4.07z" fill="#002d74"/><path d="M83.67 21.188l-.152.008-.083.059.235-.067zM72.914 25.1l-.65 1.039.07.197.352-.093.22-1.092.009-.05zm13.471 14.82c-.485.073-.971.101-1.455.079l.6 2.248.293.828a15.75 15.75 0 0 0 .366-1.638 4.37 4.37 0 0 1 .131-.893l.065-.624zm-8.327.225l-.258.397-.326.479-.018.067c-.118.422.064 1.297-.373 1.26l-.064.172c.582.326 1.193.604 1.828.83l-.641-2.495-.148-.71zm31.876-20.124c-1.248-.004-2.353.242-3.33.684l.224-.031c.941.051 1.484.004 1.909.743a2.33 2.33 0 0 1 .326-.042c.368-.017.675.068.906.215l.342-.054v-1.505l-.377-.01zm-10.892 22.17l-.22.448a6.42 6.42 0 0 1-.68.813h4.028v-.266a4.78 4.78 0 0 1-.887 0c-.988-.099-1.684-.478-2.241-.995zm26.009-22.138c-2.115.008-4.171.565-5.982 1.587.275.434.335.987.365 1.557.833-.649 1.75-1.293 2.755-1.275a2.41 2.41 0 0 1 1.129.313c2.158 1.182.916 3.241-1.279 2.131-.038-.019-.072-.065-.113-.057-.022.004.132.095.084.133-.079.061-.183.077-.27.127-.46.267-.525.359-.969.732-.984.93-1.758 2.024-2.395 3.2l.454.003c1.072-2.312 3.267-3.905 6.199-3.905a7.11 7.11 0 0 1 2.773.586 7.1 7.1 0 0 1 2.324 1.623c.505.531.923 1.137 1.243 1.794l5.421.042a12.25 12.25 0 0 0-3.182-5.154 12.26 12.26 0 0 0-8.559-3.438zm-8.774 7.125l-.807.486-1.354.791 1.5.02.661-1.297zm-3.329 3.507a12.26 12.26 0 0 0-.107 1.325v.08c-.005 1.589.31 3.165.924 4.631s1.518 2.793 2.654 3.904a11.87 11.87 0 0 0 3.963 2.564 11.88 11.88 0 0 0 4.648.82c1.603.043 3.197-.237 4.691-.82a12 12 0 0 0 4.002-2.578 12.01 12.01 0 0 0 2.684-3.934c.623-1.477.944-3.065.943-4.668v-.09l-.079-1.027-5.238-.041c.047.383.063.77.047 1.157v.08c0 3.96-2.7 7.27-6.98 7.27a7.08 7.08 0 0 1-2.748-.586c-.867-.377-1.651-.924-2.303-1.609a7.09 7.09 0 0 1-1.949-5.154v-.09a8.61 8.61 0 0 1 .087-1.175l-.717-.006c-.059.374-.078.754-.091 1.141-.079 2.459-2.617 2.346-2.482-.111.019-.356.049-.708.088-1.058l-2.038-.027zM155.141 20a8.33 8.33 0 0 0-7.191 4v-3.529h-5.289l-.007 8.219 2.613.02-.071-3.025c-.115-1.302.509-2.026 1.16-2.053h0c.574-.023 1.168.498 1.291 1.645s.129 2.298.105 3.45h.388c.571-2.496 2.408-3.946 4.991-3.946 2.618 0 4.286 1.422 4.77 3.962l5.419.009c-.015-5.288-3.012-8.752-8.179-8.752zm-12.489 10.935l-.011 12.545h5.309V30.973l-.261-.001-.047 1.417c-.083 2.459-2.567 2.375-2.484-.084l.045-1.35-2.55-.02zm15.4.054v12.472h5.269V30.997c-1.756 0-3.513-.005-5.269-.008zm22.598-10.936c-3.191.012-6.251 1.267-8.531 3.5-1.479 1.448-2.551 3.233-3.145 5.179l5.38-.045c1.04-2.409 3.269-4.087 6.277-4.087a7.1 7.1 0 0 1 5.096 2.209 7.11 7.11 0 0 1 1.061 1.443l1.155-.083-.957-4.34c-.176-.858.02-1.478.365-1.813a12.26 12.26 0 0 0-6.701-1.963zm8.873 3.754l.925 4.181 1.383-.1.287-.019a12.26 12.26 0 0 0-2.595-4.063zm3.224 6.272l-.777.051-1.087.078.434 2.601c.387 2.43-2.068 2.82-2.455.391l-.471-2.811-.821.059c.093.514.131 1.038.109 1.563v.08c0 3.96-2.73 7.27-6.98 7.27a7.08 7.08 0 0 1-2.748-.586c-.867-.377-1.651-.924-2.303-1.609a7.09 7.09 0 0 1-1.949-5.154v-.09c0-.332.025-.657.062-.978l-5.25.037a12.27 12.27 0 0 0-.072 1.031v.08c-.005 1.589.31 3.165.924 4.631s1.518 2.793 2.654 3.904a11.87 11.87 0 0 0 3.963 2.564 11.89 11.89 0 0 0 4.651.82c1.603.043 3.195-.237 4.689-.82a12 12 0 0 0 4.002-2.578 12.02 12.02 0 0 0 2.685-3.934c.623-1.477.942-3.065.941-4.668v-.09a12.25 12.25 0 0 0-.202-1.842zm13.003-9.999c-4.57 0-8.189 2.651-8.189 7.051v.09c0 .073.004.142.006.213.395-.043.791-.064 1.185-.118.117-.016.206.001.311-.002a3.31 3.31 0 0 1 .127-.316c.566-1.183 1.177-2.348 1.988-3.385.727-.905 1.497-1.84 2.564-2.353.416-.2.781-.293 1.084-.303 1.313-.042 1.487 1.477-.16 2.609-.499.343-.903.802-1.283 1.271.549-.358 1.306-.578 2.236-.578a13.31 13.31 0 0 1 6.481 2.17l2.09-3.74a15.91 15.91 0 0 0-8.439-2.61zm-3.313 6.084c-.373.613-.695 1.256-1.004 1.904-.429.901-1.052 1.253-1.572 1.214a2.35 2.35 0 0 1-.804.259c-.335.046-.673.063-1.01.101 1.129 2.494 4.035 3.494 6.702 4.278 2.7.83 5.131 1.441 5.131 3.221v.09c0 1.48-1.3 2.48-3.57 2.48a13 13 0 0 1-7.531-2.83l-2.35 3.57a15.86 15.86 0 0 0 9.75 3.44c4.79 0 8.541-2.391 8.541-7.231v-.08c0-4.14-3.791-5.659-7.141-6.709-2.7-.87-5.18-1.562-5.18-3.262v-.09a1.89 1.89 0 0 1 .037-.355z"/></g></svg>
