<?xml version="1.0" encoding="UTF-8" standalone="no"?>
<!-- Created with Inkscape (http://www.inkscape.org/) -->

<svg
   width="512"
   height="512"
   viewBox="0 0 512 512"
   version="1.1"
   id="svg1"
   inkscape:version="1.3.1 (91b66b0, 2023-11-16)"
   sodipodi:docname="cronos.svg"
   xmlns:inkscape="http://www.inkscape.org/namespaces/inkscape"
   xmlns:sodipodi="http://sodipodi.sourceforge.net/DTD/sodipodi-0.dtd"
   xmlns="http://www.w3.org/2000/svg"
   xmlns:svg="http://www.w3.org/2000/svg">
  <sodipodi:namedview
     id="namedview1"
     pagecolor="#ffffff"
     bordercolor="#000000"
     borderopacity="0.25"
     inkscape:showpageshadow="2"
     inkscape:pageopacity="0.0"
     inkscape:pagecheckerboard="0"
     inkscape:deskcolor="#d1d1d1"
     inkscape:document-units="px"
     inkscape:zoom="0.59731188"
     inkscape:cx="685.5715"
     inkscape:cy="15.067505"
     inkscape:window-width="1392"
     inkscape:window-height="1027"
     inkscape:window-x="515"
     inkscape:window-y="25"
     inkscape:window-maximized="0"
     inkscape:current-layer="layer1"
     showguides="true">
    <sodipodi:guide
       position="249.45092,1044.3852"
       orientation="1,0"
       id="guide1"
       inkscape:locked="false" />
    <sodipodi:guide
       position="349.90096,351.27994"
       orientation="0.70710678,-0.70710678"
       id="guide2"
       inkscape:locked="false" />
    <sodipodi:guide
       position="691.43108,866.92346"
       orientation="1,0"
       id="guide3"
       inkscape:locked="false" />
    <sodipodi:guide
       position="368.3168,260.87491"
       orientation="0,-1"
       id="guide4"
       inkscape:locked="false" />
  </sodipodi:namedview>
  <defs
     id="defs1">
    <clipPath
       id="clip0_1818_40">
      <rect
         width="110"
         height="75"
         fill="#ffffff"
         id="rect13"
         x="0"
         y="0" />
    </clipPath>
    <clipPath
       id="clip0">
      <rect
         width="214.71001"
         height="59.66"
         fill="#ffffff"
         id="rect13-8"
         x="0"
         y="0" />
    </clipPath>
    <linearGradient
       id="paint0_linear"
       x1="38.75"
       y1="59.66"
       x2="38.75"
       y2="29.83"
       gradientUnits="userSpaceOnUse">
      <stop
         stop-color="#002D74"
         id="stop10" />
      <stop
         offset="1"
         stop-color="#002D74"
         stop-opacity="0"
         id="stop11" />
    </linearGradient>
    <linearGradient
       id="paint1_linear"
       x1="12.91"
       y1="0"
       x2="12.91"
       y2="29.83"
       gradientUnits="userSpaceOnUse">
      <stop
         stop-color="#002D74"
         id="stop12" />
      <stop
         offset="1"
         stop-color="#002D74"
         stop-opacity="0"
         id="stop13" />
    </linearGradient>
  </defs>
  <g
     inkscape:label="Layer 1"
     inkscape:groupmode="layer"
     id="layer1">
    <g
       clip-path="url(#clip0)"
       id="g10"
       transform="matrix(7.4561988,0,0,7.4561988,54.719171,30.044116)">
      <path
         d="M 25.84,1.90735e-6 -1.52588e-5,14.92 V 44.75 L 25.84,59.66 51.66,44.75 V 14.92 Z M 44.01,40.33 25.84,50.82 7.65999,40.33 v -21 L 25.84,8.84 44.01,19.33 Z"
         fill="#002d74"
         id="path1" />
      <path
         style="mix-blend-mode:multiply;fill:url(#paint0_linear)"
         d="M 25.84,59.66 51.66,44.75 V 14.92 L 25.84,1.90735e-6 V 8.84999 L 44.01,19.34 v 21 L 25.84,50.82 Z"
         fill="url(#paint0_linear)"
         id="path2" />
      <path
         style="mix-blend-mode:multiply;fill:url(#paint1_linear)"
         d="M 25.82,0 0,14.91 V 44.74 L 25.82,59.66 V 50.81 L 7.64999,40.32 v -21 L 25.82,8.84 Z"
         fill="url(#paint1_linear)"
         id="path3" />
      <path
         d="M 37.89,36.8 25.83,43.76 13.76,36.8 V 22.87 l 12.07,-6.97 12.06,6.97 -5.02,2.9 -7.04,-4.07 -7.04,4.07 v 8.12 l 7.04,4.07 7.04,-4.07 z"
         fill="#002d74"
         id="path4" />
      <path
         id="path5"
         d="m 83.670158,21.187803 c -0.05094,0.0027 -0.101501,0.0049 -0.152453,0.0076 -0.0299,0.01972 -0.05454,0.03949 -0.08304,0.0592 0.07846,-0.02247 0.156266,-0.04727 0.23549,-0.0668 z m -10.756047,3.912694 c -0.233276,0.335479 -0.452346,0.680682 -0.650151,1.038618 0.02344,0.06651 0.04434,0.125011 0.06968,0.196722 0.117178,-0.0314 0.233637,-0.06493 0.351794,-0.09325 0.07322,-0.364028 0.146563,-0.728024 0.219773,-1.092055 0.0028,-0.01592 0.0061,-0.0342 0.0089,-0.05003 z m 13.471122,14.819884 c -0.484967,0.07253 -0.971183,0.101094 -1.455113,0.07911 0.188345,0.752181 0.401442,1.498206 0.600381,2.247763 0.101913,0.281957 0.197871,0.551651 0.292857,0.828274 0.152631,-0.538021 0.271198,-1.085538 0.365677,-1.638475 0.01206,-0.300877 0.05672,-0.598428 0.130711,-0.892713 0.02449,-0.207648 0.04803,-0.415477 0.06549,-0.623957 z m -8.326755,0.22475 c -0.08659,0.13178 -0.170637,0.265142 -0.257755,0.396587 -0.06321,0.09012 -0.213617,0.31253 -0.326124,0.4791 -0.0072,0.02591 -0.01049,0.04053 -0.01781,0.0668 -0.117552,0.421892 0.0636,1.297475 -0.37275,1.259963 -0.0018,-1.56e-4 -0.0029,-3.68e-4 -0.0047,-5.24e-4 -0.02013,0.07062 -0.03988,0.110912 -0.05946,0.172361 0.58245,0.325579 1.193315,0.604188 1.827863,0.830108 0.0012,4.37e-4 0.0024,8.74e-4 0.0037,0.0013 -0.224619,-0.829576 -0.456717,-1.657373 -0.64465,-2.495826 -0.05265,-0.234894 -0.09786,-0.47365 -0.148262,-0.709875 z" />
      <path
         id="path6"
         d="m 109.9337,20.021355 c -1.24765,-0.0044 -2.35329,0.241992 -3.32987,0.684204 0.0747,-0.0099 0.14859,-0.02256 0.22371,-0.03117 0.94097,0.05109 1.48404,0.004 1.9088,0.742618 0.11263,-0.0214 0.22252,-0.03726 0.32612,-0.04191 0.36844,-0.01654 0.67512,0.06753 0.90581,0.215058 0.11417,-0.01763 0.22815,-0.0364 0.34237,-0.0537 v -1.505144 c -0.12657,-0.0053 -0.2531,-0.0095 -0.37694,-0.01 z M 99.041701,42.190933 c -0.08855,0.201537 -0.168207,0.371924 -0.219773,0.447667 -0.199143,0.292497 -0.435095,0.556067 -0.680275,0.812558 h 4.028217 v -0.265614 c -0.29626,0.02508 -0.59272,0.02971 -0.88669,2.62e-4 -0.98815,-0.09898 -1.683995,-0.478129 -2.241479,-0.994873 z" />
      <path
         id="path7"
         d="m 125.05089,20.052789 c -2.11478,0.0078 -4.17066,0.564661 -5.98155,1.587395 0.27492,0.433978 0.33515,0.986822 0.36463,1.556748 0.83284,-0.648739 1.74971,-1.293043 2.75542,-1.275155 0.36515,0.0065 0.74151,0.100346 1.12899,0.312502 2.15822,1.181689 0.9164,3.241377 -1.27935,2.130934 -0.0376,-0.01898 -0.072,-0.06478 -0.11316,-0.05658 -0.022,0.0044 0.13203,0.09541 0.0838,0.132807 -0.0787,0.06104 -0.18344,0.07697 -0.26954,0.127044 -0.45976,0.267439 -0.52453,0.359403 -0.96868,0.732402 -0.9843,0.929855 -1.75779,2.023975 -2.39524,3.200462 0.15123,0.0016 0.30247,0.0018 0.45369,0.0034 1.07181,-2.312405 3.26677,-3.905098 6.19949,-3.905098 0.954,0.0072 1.89824,0.206474 2.77323,0.585974 0.876,0.379497 1.66725,0.931522 2.32425,1.62302 0.50527,0.530997 0.92347,1.136621 1.24293,1.793548 1.8071,0.01382 3.61415,0.03003 5.42125,0.04217 -0.60854,-1.940541 -1.69262,-3.717519 -3.1816,-5.154059 -2.296,-2.216093 -5.36658,-3.449223 -8.55858,-3.437523 z m -8.77442,7.125206 c -0.28255,0.169384 -0.6303,0.381442 -0.80653,0.48591 -0.44966,0.26654 -0.90112,0.530222 -1.35427,0.790817 0.49988,0.0069 0.99975,0.01428 1.49965,0.01991 0.20781,-0.443086 0.4282,-0.874865 0.66115,-1.296635 z m -3.32934,3.506939 c -0.0586,0.437556 -0.0964,0.87951 -0.1074,1.324925 v 0.07989 c -0.005,1.589494 0.30989,3.164956 0.92389,4.630952 0.615,1.465895 1.5183,2.793015 2.6543,3.904312 1.137,1.111297 2.48299,1.983059 3.96299,2.564456 1.479,0.581398 3.0595,0.860516 4.6485,0.820416 1.603,0.0428 3.1972,-0.236518 4.6912,-0.820416 1.493,-0.583897 2.85302,-1.45948 4.00202,-2.578077 1.148,-1.118597 2.06064,-2.456555 2.68364,-3.93365 0.623,-1.477196 0.94427,-3.064691 0.94327,-4.667887 v -0.08985 c -0.011,-0.344558 -0.0393,-0.686694 -0.0788,-1.026569 -1.74597,-0.01161 -3.49191,-0.02746 -5.23788,-0.0406 0.0465,0.382902 0.0634,0.769709 0.0471,1.157017 v 0.07989 c 0,3.959988 -2.70035,7.269539 -6.98035,7.269539 -0.946,-0.01 -1.88108,-0.208576 -2.74808,-0.585975 -0.868,-0.377298 -1.65077,-0.923939 -2.30277,-1.609137 -0.653,-0.685197 -1.16098,-1.495996 -1.49598,-2.381093 -0.334,-0.885097 -0.48916,-1.827631 -0.45316,-2.773228 v -0.08985 c 0,-0.400322 0.034,-0.791053 0.0867,-1.17483 -0.23889,-0.0025 -0.47781,-0.0029 -0.71668,-0.0055 -0.0589,0.373695 -0.0782,0.753906 -0.0906,1.141301 -0.0789,2.459293 -2.61665,2.34557 -2.48247,-0.111328 0.0194,-0.355618 0.0487,-0.707871 0.0883,-1.057739 -0.67924,-0.0078 -1.35845,-0.01882 -2.03768,-0.02698 z" />
      <path
         id="path8"
         d="m 155.14068,19.999875 c -1.44199,-0.0127 -2.86304,0.349731 -4.12304,1.05093 -1.26099,0.701099 -2.31844,1.717157 -3.06844,2.949255 v -3.529467 h -5.28896 l -0.007,8.219095 c 0.87107,0.0051 1.74211,0.01556 2.61318,0.02043 0.0208,-1.009411 0.0178,-2.0191 -0.0712,-3.024696 -0.11516,-1.302091 0.50942,-2.02638 1.16016,-2.052613 h 2.6e-4 c 0.57418,-0.02314 1.16821,0.497653 1.29087,1.6445 0.12253,1.145693 0.12879,2.297716 0.10504,3.449573 0.12939,8.2e-5 0.25882,4.16e-4 0.38821,5.24e-4 0.57121,-2.495754 2.40811,-3.946224 4.99139,-3.946224 2.61793,0 4.28573,1.421839 4.76952,3.962203 1.80636,0.004 3.61251,0.0089 5.41889,0.0086 -0.0149,-5.28779 -3.01159,-8.752156 -8.17876,-8.752156 z m -12.48934,10.93548 -0.0107,12.545141 h 5.3086 V 30.972551 c -0.0871,-6.9e-5 -0.17429,-4.66e-4 -0.26142,-5.24e-4 -4e-5,0.0015 -2.2e-4,0.003 -2.6e-4,0.0045 l -0.0469,1.412153 c -0.0832,2.459158 -2.5675,2.375325 -2.4843,-0.08382 l 0.0451,-1.34981 c -0.85001,-0.0048 -1.70002,-0.01463 -2.55004,-0.01965 z m 15.39957,0.0537 V 43.46085 h 5.26931 V 30.997436 c -1.75649,3.35e-4 -3.51282,-0.0046 -5.26931,-0.0084 z" />
      <path
         id="path9"
         d="m 180.65034,20.052789 c -3.191,0.0117 -6.25108,1.267072 -8.53107,3.499866 -1.47889,1.447695 -2.55064,3.233276 -3.14519,5.178682 1.79344,-0.009 3.58684,-0.02337 5.38011,-0.04479 1.04042,-2.409015 3.26887,-4.086888 6.27677,-4.086888 0.95399,0.0072 1.89639,0.206474 2.77139,0.585974 0.876,0.379498 1.66725,0.931521 2.32425,1.62302 0.41425,0.435339 0.77016,0.920633 1.06115,1.443325 0.3851,-0.02847 0.77037,-0.05426 1.15544,-0.0833 -0.31817,-1.447125 -0.65959,-2.888465 -0.95689,-4.340453 -0.17573,-0.858271 0.0198,-1.477519 0.36515,-1.812669 -1.98167,-1.281204 -4.30711,-1.97154 -6.70111,-1.962765 z m 8.87317,3.753955 c 0.29596,1.396819 0.62308,2.786028 0.9252,4.181451 0.46102,-0.03233 0.92156,-0.07108 1.38281,-0.0998 0.0957,-0.0068 0.19142,-0.01229 0.2871,-0.01886 -0.58425,-1.501283 -1.46034,-2.885296 -2.59511,-4.062789 z m 3.22404,6.271522 c -0.25892,0.0169 -0.51784,0.03326 -0.77667,0.05134 -0.36241,0.02254 -0.72429,0.05344 -1.08655,0.07832 0.15242,0.865631 0.29571,1.732935 0.43404,2.600604 0.3874,2.429871 -2.06773,2.820461 -2.45496,0.390562 -0.14957,-0.93855 -0.3036,-1.876081 -0.4715,-2.811471 -0.27376,0.02064 -0.54771,0.03864 -0.82147,0.0592 0.0929,0.514265 0.13125,1.038232 0.10923,1.563034 v 0.07989 c 0,3.959992 -2.73036,7.269539 -6.98035,7.269539 -0.946,-0.01 -1.88108,-0.208576 -2.74808,-0.585975 -0.868,-0.377299 -1.65077,-0.923938 -2.30277,-1.609137 -0.653,-0.685198 -1.16098,-1.495995 -1.49597,-2.381093 -0.334,-0.885098 -0.48917,-1.82763 -0.45317,-2.773228 v -0.08985 c 0,-0.332203 0.0251,-0.657256 0.0616,-0.97837 -1.74983,0.01931 -3.4997,0.02897 -5.24967,0.03693 -0.0374,0.341503 -0.0632,0.685273 -0.0718,1.031283 v 0.07989 c -0.005,1.589496 0.30989,3.164955 0.92389,4.630952 0.615,1.465897 1.5183,2.793014 2.6543,3.904312 1.137,1.111298 2.48273,1.983058 3.96273,2.564456 1.479,0.581399 3.0616,0.860516 4.6506,0.820416 1.60299,0.0428 3.19536,-0.236517 4.68936,-0.820416 1.493,-0.583898 2.85302,-1.459479 4.00202,-2.578077 1.14799,-1.118598 2.06248,-2.456553 2.68547,-3.93365 0.623,-1.477197 0.94244,-3.06469 0.94144,-4.667887 v -0.08985 c -0.0199,-0.622018 -0.0896,-1.237147 -0.2017,-1.841746 z" />
      <path
         id="path10"
         d="m 205.75005,20.080031 c -4.56999,0 -8.18949,2.650823 -8.18949,7.050813 v 0.08985 c 0,0.07269 0.004,0.142455 0.006,0.213486 0.39453,-0.04256 0.79107,-0.06353 1.18452,-0.117876 0.11654,-0.0161 0.20562,7.54e-4 0.31146,-0.0018 0.0368,-0.103372 0.0748,-0.20725 0.12704,-0.316432 0.56588,-1.18284 1.17711,-2.347631 1.98843,-3.384872 0.72671,-0.904685 1.49729,-1.840002 2.56446,-2.353327 0.41576,-0.199987 0.78095,-0.293115 1.08394,-0.30281 1.31297,-0.04201 1.48737,1.476662 -0.16005,2.609249 -0.49905,0.343087 -0.90328,0.801661 -1.28328,1.271488 0.54851,-0.358351 1.3058,-0.578116 2.23624,-0.578116 2.312,0.147099 4.54656,0.895067 6.48055,2.169965 l 2.08981,-3.740072 c -2.51098,-1.649291 -5.43639,-2.553711 -8.43939,-2.609511 z M 202.43748,26.164 c -0.37281,0.612743 -0.69469,1.255817 -1.00378,1.904351 -0.42923,0.90062 -1.0522,1.252751 -1.57247,1.213598 -0.2191,0.116386 -0.47445,0.213173 -0.80365,0.258541 -0.33536,0.04622 -0.67343,0.06317 -1.00954,0.101111 1.12934,2.493861 4.03494,3.493972 6.7019,4.278372 2.7,0.829998 5.13101,1.440636 5.13101,3.220632 v 0.08985 c 0,1.479996 -1.30035,2.480371 -3.57033,2.480371 -2.746,-0.1235 -5.38324,-1.114373 -7.53123,-2.83007 l -2.34966,3.570331 c 2.77399,2.203595 6.20692,3.414219 9.74991,3.439619 4.78999,0 8.54103,-2.390519 8.54103,-7.230509 v -0.08016 c 0,-4.139992 -3.79067,-5.658976 -7.14066,-6.708974 -2.7,-0.869998 -5.17973,-1.561761 -5.17973,-3.261757 v -0.08985 c 0,-0.121525 0.0149,-0.239436 0.0372,-0.355461 z" />
    </g>
  </g>
</svg>
