<svg width="36" height="36" viewBox="0 0 36 36" fill="none" xmlns="http://www.w3.org/2000/svg">
<path d="M16.6817 22.5374C14.2376 20.7024 11.2413 19.543 8.16038 19.6608C6.10797 19.6994 4.14668 20.3136 2.1725 20.8134C1.61596 20.9228 0.976176 21.0787 0.462384 20.7507C0.194843 20.5478 0.0622518 20.2103 0.0233608 19.8851C-0.343631 17.8735 3.71411 17.0634 5.11762 16.4574C7.04423 15.7916 8.95584 15.0853 10.8001 14.2267C11.7131 13.7972 12.636 13.3773 13.4185 12.7263C15.7821 10.7728 17.3634 8.10526 19.2613 5.71282C20.4147 4.24947 22.4719 1.79254 24.4435 3.41251C26.1411 4.80328 26.5233 7.0935 26.2912 9.16304C25.6121 14.6264 24.2412 19.1233 28.9746 23.2809C30.5067 24.6079 32.2938 25.6877 33.6436 27.2389C34.076 27.7601 34.8803 28.7162 34.1545 29.3148C32.5212 30.1367 29.1327 28.8419 27.4378 28.2976C23.609 26.892 19.9627 24.9656 16.6817 22.5374ZM16.6817 22.5374C19.9715 24.9499 23.6244 26.8594 27.4559 28.2468C28.4165 28.5862 29.3921 28.8846 30.3827 29.1174C31.5771 29.3354 32.9445 29.7653 34.0818 29.2129C34.7141 28.6686 33.9138 27.8186 33.5304 27.3386C32.1641 25.8068 30.3899 24.7677 28.8294 23.446C23.9381 19.2067 25.276 14.7041 25.9501 9.13446C26.1668 7.17013 25.802 5.00144 24.2145 3.70118C23.8463 3.3925 23.393 3.20523 22.9319 3.24226C21.443 3.4477 20.4652 4.84082 19.5282 5.92563C17.6246 8.29992 16.0078 11.015 13.5957 12.951C12.7946 13.6036 11.8384 14.0307 10.9046 14.4562C8.11949 15.7488 5.15448 16.5586 2.2999 17.6537C1.45006 18.0391 0.273672 18.4644 0.119972 19.5017C0.0656527 20.9324 1.00691 20.9945 2.15552 20.734C7.71831 19.1437 11.8145 18.9279 16.6817 22.5374Z" fill="#0000FF"/>
<path d="M25.454 4.62625C28.1307 7.84776 25.5346 12.3408 25.5265 16.0274C25.3259 18.9722 26.5084 21.9104 28.7164 23.8619C29.434 24.5132 30.2412 25.0831 30.9719 25.7427C31.7288 26.4714 33.9544 28.285 33.1941 29.4108C31.8927 30.6351 27.547 28.9411 26.014 28.3783C22.3618 26.9319 18.9053 24.952 15.8148 22.5364C14.2592 21.3865 12.4762 20.5275 10.5752 20.1772C8.67383 19.8057 6.7084 19.9985 4.81707 20.4392L3.38659 20.7735C2.42063 21.0087 0.989105 21.2374 0.840217 19.8471C0.40436 17.3034 4.55338 16.3659 6.32195 15.5477C8.15104 14.8468 9.96642 14.1181 11.7597 13.3327C13.591 12.6248 15.0886 11.2957 16.4559 9.90942C17.8335 8.51735 19.0464 6.96881 20.4428 5.58868C21.7974 4.23992 23.869 2.68045 25.454 4.62625ZM25.4346 4.64278C23.8534 2.72141 21.8183 4.27598 20.474 5.62073C19.084 7.00116 17.8765 8.55315 16.5133 9.96519C15.1587 11.3663 13.6591 12.7242 11.8152 13.4586C10.0279 14.2623 8.21602 15.0134 6.39497 15.7333C4.7832 16.5016 0.664193 17.5263 1.11345 19.7998C1.23309 20.9725 2.49373 20.6629 3.32027 20.4774L4.74801 20.1357C8.6812 19.0854 12.765 19.7487 16.0324 22.2359C19.8709 25.2499 24.2095 27.6555 28.8807 29.0666C29.8154 29.3258 30.7712 29.5581 31.7301 29.5875C32.1632 29.5905 32.7051 29.5791 33.0086 29.257C33.597 28.3123 31.4825 26.532 30.8323 25.9008C30.1127 25.2406 29.318 24.6713 28.5888 23.9997C26.3641 22.0066 25.1796 18.9928 25.4086 16.0217C25.445 12.334 28.0717 7.86301 25.4346 4.64278Z" fill="#004CFF"/>
<path d="M26.1906 5.33703C28.5992 8.51589 25.8026 12.7851 25.6211 16.3014C25.3118 19.0982 26.1383 22.0291 28.105 24.0699C28.7454 24.7566 29.5017 25.3325 30.1685 25.997C30.9716 26.8422 31.9551 27.7112 32.2289 28.9109C32.3621 30.848 28.7994 29.782 27.7641 29.4992C23.2536 28.0834 19.0708 25.6307 15.4351 22.6409C7.71738 16.7122 1.56128 23.9212 1.6901 19.0309C1.82536 16.5998 5.19429 15.6441 7.0412 14.75C8.78047 14.0191 10.5335 13.3265 12.2839 12.6262C14.0275 11.9266 15.5642 10.7932 16.9933 9.57533C19.126 8.00315 23.6149 2.02481 26.1906 5.33703ZM26.1491 5.36911C23.638 2.10715 19.1186 8.08363 17.0526 9.64429C15.6298 10.8772 14.0964 12.031 12.3355 12.7554C10.5921 13.4703 8.84776 14.1851 7.11916 14.9328C5.39363 15.791 2.05514 16.8023 1.96496 19.0441C1.76677 23.3591 7.81389 16.4309 15.6588 22.3416C19.2728 25.3503 23.372 27.7877 27.8454 29.2279C28.7142 29.4826 32.1033 30.4802 31.9799 28.9438C31.7159 27.8225 30.7841 26.9869 30.0088 26.1604C29.344 25.4882 28.5955 24.9101 27.9538 24.2107C25.9685 22.1225 25.1436 19.1161 25.4814 16.2872C25.6885 12.7777 28.5095 8.52684 26.1491 5.36911Z" fill="#008CFF"/>
<path d="M26.9281 6.04829C28.0533 7.60107 27.765 9.63134 27.2071 11.3432C26.6749 13.0874 25.9903 14.7887 25.7251 16.587C25.3063 19.2494 25.8267 22.1382 27.52 24.2742C28.6631 25.6741 30.2164 26.7963 30.9748 28.5192C31.0619 28.7401 31.1302 28.9778 31.1278 29.2349C30.8822 31.5713 25.3768 29.2211 24.1371 28.6709C21.6372 27.5398 19.2805 26.1015 17.1113 24.4214C16.3839 23.8665 15.7038 23.241 14.9995 22.6938C8.32791 17.4335 2.98157 23.0394 2.59215 19.5063C2.20163 17.3231 3.52213 16.0296 5.30297 15.0891C7.71154 13.7859 10.31 12.8813 12.8634 11.9277C14.5498 11.2603 16.113 10.3096 17.5981 9.26526C19.8449 7.89051 24.5935 2.78319 26.9281 6.04829ZM26.8613 6.09441C24.596 2.9027 19.8344 7.99246 17.6572 9.34896C16.1755 10.4064 14.6123 11.3729 12.9151 12.0584C10.3694 13.0329 7.8005 13.9656 5.41433 15.2875C3.73702 16.202 2.47338 17.4123 2.87735 19.4689C2.97211 20.632 3.85317 20.5445 4.76169 20.3937C6.54601 20.0528 8.41461 19.7781 10.2331 20.1174C12.0624 20.4268 13.7722 21.2718 15.2279 22.3956C15.9573 22.97 16.6151 23.5842 17.3325 24.138C19.4694 25.8134 21.7983 27.2534 24.2652 28.387C25.332 28.9262 31.7852 31.5264 30.7307 28.6165C30 26.9426 28.4708 25.8218 27.3418 24.4134C25.6298 22.2233 25.1154 19.2634 25.5633 16.5615C25.8462 14.7424 26.5477 13.0391 27.0901 11.3072C27.6519 9.61636 27.9586 7.63629 26.8613 6.09441Z" fill="#00D4FF"/>
<path d="M27.6669 6.76072C28.6793 8.33357 28.2319 10.2888 27.5782 11.906C26.9466 13.5565 26.1899 15.1629 25.8363 16.8864C25.3064 19.4313 25.5737 22.2485 26.9654 24.4781C27.9514 25.9586 29.4226 27.0844 29.9622 28.8553C30.0205 29.0798 30.0571 29.3233 30.0059 29.5739C29.3693 31.6859 24.4471 29.4143 23.1456 28.7989C20.7573 27.6265 18.526 26.142 16.5002 24.4179C14.5907 22.642 12.493 20.9124 9.837 20.5429C8.07798 20.1775 6.34784 20.6853 4.58097 20.6842C4.07781 20.6596 3.62926 20.2493 3.54226 19.7536C3.37921 18.8478 3.24932 17.9704 3.41875 17.0588C3.9765 14.6181 7.68713 13.4332 9.74588 12.537C10.3728 12.3224 11.6242 11.8821 12.2508 11.6691C14.3556 11.0248 16.3516 10.0765 18.2656 8.99123C20.5941 7.84365 25.6091 3.53976 27.6669 6.76072ZM27.5718 6.81884C25.6028 3.70124 20.5794 7.99864 18.3313 9.1073C16.4156 10.2027 14.4051 11.1519 12.2955 11.8138C11.6792 12.0378 10.4286 12.4801 9.8124 12.7054C7.85253 13.5853 4.18675 14.8077 3.68181 17.1147C3.53006 17.9451 3.6757 18.8612 3.82705 19.6791C3.88617 19.8697 3.95618 20.0634 4.09733 20.1783C4.59915 20.5551 5.29137 20.3491 5.8939 20.2949C10.4954 19.4853 13.5064 20.982 16.736 24.1419C19.3978 26.4109 22.4079 28.3383 25.7007 29.5393C26.6411 29.8421 29.3271 30.7876 29.7289 29.5164C29.7689 29.3321 29.7433 29.1248 29.6914 28.9247C29.189 27.2416 27.6938 26.0539 26.7574 24.6102C25.3488 22.3194 25.0919 19.4392 25.6521 16.8467C26.0244 15.0997 26.7987 13.4893 27.4383 11.8521C28.0905 10.2607 28.5519 8.37154 27.5718 6.81884Z" fill="#16FFE1"/>
<path d="M28.4079 7.47439C29.3086 9.07249 28.6951 10.9486 27.9489 12.4726C27.2201 14.0309 26.3935 15.5473 25.9536 17.2004C25.0926 20.4677 25.5036 24.2353 27.8658 26.8106C28.1054 27.1725 28.3315 27.5454 28.5247 27.9395C28.9079 28.6848 29.3061 29.9524 28.3544 30.4513C26.5754 31.1585 23.7367 29.7142 22.1227 28.9114C20.5956 28.0995 19.1623 27.1237 17.8091 26.051C16.4442 25.0152 15.2863 23.6914 13.974 22.6168C8.6415 18.3118 4.65618 22.5857 4.33439 19.1471C4.1693 18.0846 3.82517 16.9736 4.13467 15.8991C4.62671 14.3842 6.19202 13.6163 7.50181 12.9361C8.86901 12.3077 10.2752 11.7398 11.7206 11.3212C14.2145 10.6756 16.6421 9.82616 18.9992 8.78718C21.3551 7.89942 26.6896 4.30683 28.4079 7.47439ZM28.2813 7.54183C26.6595 4.50287 21.3192 8.07324 19.057 8.91979C16.7013 9.96443 14.2504 10.8008 11.7675 11.4793C10.3378 11.9106 8.94517 12.4908 7.59564 13.1296C6.34174 13.805 4.84877 14.535 4.38856 15.9742C4.11116 16.9921 4.46119 18.0777 4.62515 19.0968C4.74066 20.5798 5.70551 20.3385 6.85349 20.2452C9.45873 19.9133 12.1763 20.6385 14.2076 22.32C15.548 23.4261 16.657 24.7199 18.0305 25.7738C19.3631 26.84 20.7766 27.8115 22.279 28.6186C23.7668 29.3983 25.3632 30.134 27.0372 30.326C27.4455 30.3592 27.8766 30.353 28.2149 30.1823C29.3016 29.5164 28.0985 27.7482 27.6282 26.9684C27.1605 26.248 26.5714 25.5896 26.2103 24.7999C25.111 22.4314 25.0768 19.6377 25.7471 17.1433C26.207 15.4639 27.0523 13.9411 27.7871 12.3966C28.5248 10.9034 29.146 9.10932 28.2813 7.54183Z" fill="#3CFFBA"/>
<path d="M29.1507 8.18995C29.94 9.81988 29.1517 11.6094 28.3188 13.0425C27.4949 14.5102 26.5994 15.9417 26.0751 17.5291C25.3255 19.8809 25.1982 22.5342 25.9675 24.8925C26.5334 26.4806 27.9195 27.7822 27.8874 29.5688C27.5228 32.4092 22.4459 29.8342 21.0762 29.009C18.8896 27.7135 16.9275 26.0649 15.1997 24.2059C13.5747 22.342 11.44 20.7984 8.91712 20.6019C8.06978 20.4981 7.25793 20.6198 6.3947 20.5383C6.17378 20.5053 5.93493 20.438 5.73921 20.2814C5.19465 19.8242 5.28247 19.0632 5.07689 18.4447C4.60968 16.7726 3.947 14.9634 5.56641 13.6456C8.22047 11.4958 11.7123 10.8289 14.9372 10.0356C16.5631 9.61822 18.1813 9.1687 19.7802 8.65998C22.1793 7.96971 24.5294 6.69006 27.094 6.8037C27.6355 6.84102 28.1637 7.04492 28.5817 7.39608L28.8013 7.64016C28.9391 7.7684 29.0484 8.03204 29.1507 8.18995ZM28.9897 8.26341C27.6246 5.28996 22.1187 8.23993 19.8274 8.80906C18.2234 9.31581 16.6021 9.76258 14.9732 10.1771C11.766 10.9792 8.34574 11.686 5.73297 13.8268C4.23022 15.0528 4.91099 16.7841 5.36334 18.3714C5.58736 19.0598 5.49057 20.1603 6.43757 20.2241C7.24745 20.2911 8.12211 20.1694 8.94865 20.2653C10.6596 20.4011 12.3088 21.1138 13.6388 22.1842C14.9703 23.2433 15.9641 24.6165 17.2466 25.7209C19.1 27.3943 21.167 28.8727 23.475 29.8394C24.5351 30.254 27.3764 31.3421 27.5737 29.5471C27.5892 27.8412 26.2164 26.5393 25.695 24.9895C24.9189 22.5606 25.0632 19.8576 25.8467 17.4514C26.3928 15.8345 27.3087 14.3943 28.1366 12.9398C28.9538 11.5413 29.7388 9.84861 28.9897 8.26341Z" fill="#60FF97"/>
<path d="M29.8937 8.90717C30.5691 10.5743 29.6028 12.2677 28.6859 13.6144C27.7697 14.9939 26.8038 16.3451 26.1981 17.8727C25.3251 20.1452 25.0669 22.7226 25.5163 25.1149C25.8682 26.7351 27.1541 28.1718 26.809 29.9198C26.1936 31.9009 23.5334 30.8583 22.2057 30.3044C19.9166 29.2732 17.9303 27.662 16.1976 25.8665C13.8752 23.286 12.1942 20.7499 8.36363 20.5634C7.75896 20.5031 6.9663 20.5999 6.49481 20.0744C6.33125 19.8897 6.25356 19.6651 6.20036 19.4521C6.05691 18.6254 5.7898 17.8744 5.47843 17.1003C5.18808 16.3353 4.82618 15.5325 4.89835 14.6422C5.14074 12.8553 7.06377 12.0406 8.50756 11.3756C10.6975 10.3561 13.3544 9.96735 15.7194 9.53863C17.3461 9.24019 18.9757 8.95764 20.5936 8.62454C23.0158 8.3048 28.66 5.78356 29.8937 8.90717ZM29.6954 8.98274C28.6045 6.05481 22.8958 8.4797 20.6246 8.77531C19.0022 9.10618 17.372 9.38561 15.7451 9.68086C12.5306 10.2469 9.17617 10.8563 6.44766 12.7576C4.76559 13.9238 4.98943 15.3075 5.74824 16.9926C6.06406 17.748 6.35544 18.5744 6.50336 19.3758C6.67219 20.2999 7.64406 20.1773 8.38329 20.2287C10.0703 20.2883 11.7349 20.9197 13.0508 21.9791C14.3774 23.0074 15.3003 24.4266 16.4608 25.6138C17.5944 26.8032 18.8418 27.8879 20.2055 28.7967C21.7447 29.877 27.1776 32.6296 26.4617 28.6807C26.2306 27.4584 25.458 26.4086 25.212 25.1834C24.8606 23.5293 25.0008 21.837 25.2526 20.1827C25.6362 17.6749 27.0765 15.5055 28.4857 13.4808C29.3776 12.173 30.3282 10.5886 29.6954 8.98274Z" fill="#8DFF6A"/>
<path d="M30.6388 9.62684C31.1949 11.3297 30.0535 12.9238 29.0535 14.1871C28.0469 15.4806 27.0099 16.7559 26.323 18.2286C25.3249 20.4281 24.9488 22.9482 25.0979 25.3494C25.1884 26.5868 25.8502 27.7 25.8927 28.953C25.9849 29.8051 25.6495 30.8691 24.7409 31.1488C22.7761 31.6534 20.4897 30.2613 18.944 29.1618C17.6159 28.1655 16.456 26.9687 15.4189 25.6852C14.3956 24.4113 13.5509 22.9992 12.2448 22.0037C11.3071 21.2483 10.1896 20.7387 8.99722 20.5673C8.41797 20.4735 7.57158 20.4354 7.24948 19.798C6.97784 19.2192 6.9767 18.5978 6.7005 18.018C6.18759 16.5185 4.75367 15.0256 5.29107 13.3361C5.98862 11.7528 7.80444 11.1341 9.28158 10.5133C13.1531 9.09586 17.3748 9.1539 21.4134 8.66815C23.8081 8.59912 29.6728 6.52454 30.6388 9.62684ZM30.4008 9.70001C29.5672 6.8309 23.6625 8.78785 21.4305 8.83549C17.385 9.28234 13.1945 9.24862 9.35695 10.7094C7.75067 11.4073 5.03467 12.3673 5.487 14.5638C5.90238 16.1442 7.06287 17.4614 7.35645 19.1061C7.475 20.0802 8.23543 20.1256 9.04923 20.2278C10.2975 20.3948 11.4943 20.9251 12.4776 21.7075C13.807 22.7209 14.6865 24.1752 15.7062 25.4529C16.7264 26.7194 17.8657 27.8969 19.1609 28.8711C20.4399 29.8209 21.9126 30.6341 23.4907 30.8868C23.8757 30.9217 24.2776 30.9462 24.6247 30.8144C26.6319 29.9088 24.8098 26.95 24.7642 25.3831C24.6226 22.9121 25.0178 20.3536 26.0536 18.0998C26.7674 16.5907 27.8294 15.3017 28.8377 14.0185C29.8023 12.7937 30.9128 11.3331 30.4008 9.70001Z" fill="#94FF63"/>
<path d="M31.3856 10.3489C31.8326 12.1824 30.3858 13.6891 29.2647 14.926C28.1122 16.1839 26.976 17.4675 26.2304 18.9898C25.4639 20.5057 25.136 22.2051 24.8455 23.8632C24.7191 24.7006 24.6425 25.5484 24.7089 26.3841C24.9001 27.9781 25.5872 30.3137 23.7975 31.2538C21.5042 32.1325 18.3984 29.8716 16.8962 28.2655C15.702 27.0149 14.7379 25.5543 13.8546 24.1058C12.9354 22.6536 11.6199 21.612 10.1547 20.734C7.55566 20.481 8.36284 19.4455 7.33833 17.4815C6.68385 16.0888 5.38904 14.8563 5.36536 13.2274C5.51866 11.5186 7.39776 10.7635 8.75833 10.1667C10.202 9.56004 11.7469 9.19677 13.3022 9.04633C16.4004 8.70831 19.5334 8.59576 22.6402 8.81694C24.1892 8.86958 25.7364 8.67798 27.2981 8.61235C28.7664 8.5487 30.9724 8.55052 31.3856 10.3489ZM31.1057 10.4146C30.7144 8.75678 28.6774 8.83018 27.306 8.84629C25.7574 8.89355 24.2002 9.06544 22.6332 9.00319C19.5289 8.76297 16.4081 8.82512 13.3226 9.21655C11.7762 9.38076 10.2654 9.75068 8.84099 10.3684C7.56862 10.9417 5.76692 11.6732 5.62927 13.2383C5.60866 13.9753 6.00707 14.675 6.39715 15.3298C7.00286 16.3223 7.71325 17.306 8.09041 18.4321C8.30394 19.104 8.34055 19.9848 9.16371 20.1855C9.5453 20.3196 9.97758 20.3275 10.3485 20.4326C11.8329 21.2855 13.2373 22.4266 14.1606 23.9026C15.0537 25.3735 15.9852 26.7881 17.1541 28.02C18.5673 29.5408 21.517 31.7158 23.6538 30.9466C25.266 30.0434 24.5174 27.8927 24.3826 26.4092C24.3155 25.5357 24.3973 24.6664 24.5277 23.8137C24.8292 22.1136 25.1665 20.3985 25.953 18.8505C26.7238 17.2863 27.8906 15.9777 29.044 14.7242C30.1153 13.5252 31.5093 12.1602 31.1057 10.4146Z" fill="#CAFF2C"/>
<path d="M32.1322 11.0737C32.4382 12.9003 30.8947 14.2634 29.7175 15.3941C28.5084 16.5403 27.3116 17.7081 26.4631 19.1259C25.5807 20.5383 25.1612 22.1645 24.733 23.7588C24.4306 24.9598 24.1818 26.1845 24.229 27.4227C24.2854 28.6817 24.2358 30.1636 23.25 31.083C21.2175 32.7547 17.8703 30.4958 16.4695 28.8733C15.3451 27.5961 14.5192 26.1008 13.7858 24.6006C13.0666 23.0819 11.9516 21.885 10.7003 20.7769L10.7742 20.8195C10.3919 20.699 9.98522 20.5975 9.6076 20.3541C9.2201 20.1126 8.98212 19.6809 8.87902 19.2723C8.7334 18.4715 8.4105 17.7704 7.98902 17.0879C6.88347 15.2141 3.92958 12.6215 6.63009 10.7424C11.4982 7.45775 17.6784 8.61723 23.1717 8.9917C24.7749 9.07213 26.383 8.96776 28.0023 9.00415C29.5235 9.04303 31.816 9.19062 32.1322 11.0737ZM31.8089 11.1266C31.5087 9.40721 29.3998 9.35086 27.9939 9.26504C26.3926 9.2066 24.7762 9.28958 23.1607 9.18012C18.4259 8.77317 13.3969 7.93104 8.87022 9.80473C7.80558 10.2677 6.62526 10.7675 5.99519 11.7802C5.0661 13.4969 7.48182 15.4698 8.25698 16.9208C8.69317 17.6007 9.05903 18.3905 9.20812 19.1824C9.30941 19.5487 9.49388 19.868 9.80125 20.0574C10.1152 20.2588 10.525 20.3613 10.9188 20.4794C12.1923 21.5813 13.3855 22.888 14.114 24.4351C15.6099 27.5904 18.1185 31.365 21.9884 31.294C23.7687 31.027 23.9834 28.9113 23.8803 27.4371C23.8323 26.1625 24.089 24.8961 24.3992 23.6728C24.8363 22.048 25.2713 20.3891 26.1734 18.9495C27.0509 17.4878 28.2788 16.2961 29.4879 15.1521C30.6038 14.0594 32.0734 12.8475 31.8089 11.1266Z" fill="#FFE200"/>
<path d="M32.8789 11.8013C33.0462 13.6269 31.4062 14.8525 30.1714 15.8871C28.904 16.9308 27.6475 17.9947 26.7042 19.3185C25.7181 20.636 25.1988 22.194 24.6686 23.7398C24.2742 24.9024 23.9139 26.0763 23.7212 27.2872C23.5492 28.9027 23.2537 30.9253 21.5693 31.6637C19.5488 32.4171 17.2299 30.9673 15.9361 29.478C14.2534 27.55 13.8363 25.0048 12.6208 22.8437C12.2202 22.1367 11.7323 21.4849 11.2495 20.8106L11.3182 20.8694C10.9463 20.6848 10.5391 20.4804 10.2315 20.1258C9.92087 19.7756 9.78602 19.3166 9.69828 18.9102C9.51696 18.1259 9.10164 17.4021 8.62751 16.7293C6.16279 13.4795 3.25735 11.2391 8.77115 9.05939C13.5376 7.14437 18.7943 8.44457 23.6566 9.20323C25.3074 9.41846 26.9784 9.40735 28.6541 9.51232C30.2154 9.62966 32.6672 9.80738 32.8789 11.8013ZM32.511 11.8356C32.2941 10.0389 30.0529 9.99485 28.631 9.81625C26.9739 9.67526 25.2924 9.64987 23.6291 9.39934C18.7932 8.53772 13.5738 7.32611 8.85098 9.26046C7.76713 9.73878 6.48139 10.2515 5.9745 11.3852C5.367 13.1005 8.02168 15.1513 8.88727 16.5428C9.38033 17.2277 9.82823 17.9784 10.0361 18.8307C10.1283 19.2351 10.2493 19.6069 10.5033 19.8881C10.7582 20.1801 11.1428 20.3688 11.5235 20.5581C12.5234 21.8835 13.4451 23.3439 13.9758 24.9349C14.5388 26.4695 15.1784 28.001 16.2179 29.2385C18.4972 31.8256 22.5092 32.9439 23.1982 28.4543C23.4257 25.9602 24.2761 23.6072 25.1722 21.2856C26.122 18.9413 28.0125 17.1361 29.9362 15.6018C31.0975 14.6043 32.6408 13.5371 32.511 11.8356Z" fill="#FFA300"/>
<path d="M33.6271 12.5321C33.6588 14.3645 31.9189 15.4612 30.6233 16.4121C29.2935 17.3633 27.9774 18.3375 26.9477 19.5812C26.4307 20.1985 25.9825 20.8723 25.6148 21.5883C24.602 23.7951 23.6483 26.0961 23.0203 28.4473C22.6847 29.6536 22.0975 30.9153 21.0047 31.6298C19.0755 32.8223 16.6104 31.5937 15.2745 30.051C14.184 28.7476 13.7503 27.067 13.3763 25.4569C13.0485 23.8449 12.5004 22.3288 11.8065 20.8401L11.8569 20.9066C11.5195 20.6282 11.1743 20.2988 10.9519 19.8832C10.729 19.4903 10.6466 19.0405 10.5263 18.6128C10.2785 17.8121 9.80135 17.0847 9.26915 16.4121C8.73729 15.7347 8.13671 15.106 7.55198 14.4585C6.73906 13.4911 5.55489 12.4098 5.72452 11.0042C6.04805 9.62209 7.56058 9.03676 8.71604 8.53944C13.7032 6.55793 19.1618 8.22282 24.1239 9.41402C25.8207 9.76164 27.5573 9.84686 29.2935 10.0239C30.8963 10.2215 33.5275 10.4211 33.6271 12.5321ZM33.2144 12.5419C33.109 10.6747 30.677 10.6202 29.2546 10.3579C27.5368 10.1379 25.7882 10.0085 24.0801 9.6158C19.1568 8.32502 13.7263 6.69468 8.79065 8.72771C7.69144 9.21854 6.27277 9.77639 5.96996 11.0468C5.84797 12.3483 6.97898 13.3344 7.76787 14.26C8.35707 14.898 8.96862 15.5233 9.52093 16.2102C10.0721 16.8926 10.5823 17.6416 10.8622 18.5081C10.9829 18.905 11.063 19.3476 11.2727 19.7063C11.4709 20.074 11.7848 20.3692 12.1266 20.6474L12.1447 20.6874C12.8458 22.1726 13.4234 23.7572 13.7554 25.3691C14.1255 26.9486 14.559 28.5658 15.5861 29.7882C16.7904 31.1696 19.0511 32.3351 20.7725 31.2674C21.7658 30.6051 22.2747 29.46 22.5961 28.3298C23.2446 25.9247 24.1928 23.6489 25.2329 21.3905C25.6161 20.6469 26.0834 19.9466 26.6208 19.3068C27.7811 18.0151 29.0474 17.0207 30.3788 16.0704C31.5904 15.1583 33.2096 14.2297 33.2144 12.5419Z" fill="#FF6C00"/>
<path d="M34.3739 13.2655C34.2518 15.2069 32.2644 16.1614 30.8452 17.0887C29.3788 17.9983 27.9464 18.9684 26.8272 20.2559C25.6551 21.5346 25.0057 23.1394 24.2869 24.6991L23.1974 27.0592C22.3603 28.8153 21.6774 30.9048 19.8563 31.9175C17.5666 33.12 14.58 31.4875 13.6981 29.2112C12.7362 26.7371 13.2605 23.9942 12.5886 21.4815C12.363 20.6405 11.7905 19.9471 11.5648 19.0915C11.2052 17.3787 9.9409 16.1109 8.76274 14.893C7.44935 13.4532 4.31858 11.1415 6.53325 9.18396C10.4414 6.30305 15.6805 6.99361 20.0721 8.22401C21.7478 8.65637 23.3732 9.31038 25.0419 9.74152C26.7178 10.1523 28.4405 10.3179 30.1623 10.5653C31.7497 10.8267 34.4184 11.1314 34.3739 13.2655ZM33.9165 13.2451C33.9478 11.4028 31.4708 11.2533 30.1028 10.9364C28.4028 10.642 26.6687 10.4254 24.9847 9.96267C19.2265 8.0458 12.1552 5.37995 6.68167 9.35389C5.37522 10.4657 6.21162 11.8109 7.15486 12.8328C8.3162 14.12 9.67772 15.2278 10.7438 16.6171C11.1432 17.1476 11.5036 17.7235 11.7293 18.3564C11.9097 18.9966 12.075 19.5686 12.4166 20.1466C13.9303 22.8652 12.9434 26.2269 14.0819 29.0542C14.8856 31.1008 17.5897 32.5989 19.6414 31.5213C21.3436 30.5449 21.951 28.5628 22.772 26.8714L23.8663 24.503C25.4534 20.6454 27.0344 18.8354 30.6022 16.6976C31.9221 15.8084 33.7619 15.0158 33.9165 13.2451Z" fill="#FF3000"/>
<path d="M35.1216 14.0018C34.842 15.9953 32.6987 16.8061 31.1807 17.6811C29.6121 18.5229 28.0849 19.447 26.8701 20.7196C25.6044 21.9843 24.8663 23.6178 24.0127 25.1707C22.325 27.9796 20.6511 32.8003 16.685 32.5457C9.60276 31.0892 14.2816 24.2705 12.6499 19.7221C12.5546 19.3498 12.399 18.7901 12.2915 18.437C11.6803 16.7808 10.2768 15.5407 9.02182 14.3381C7.75213 13.02 4.48816 10.7694 6.36492 8.804C11.2064 4.97229 17.9147 7.06975 23.1004 9.07611C23.9368 9.4035 24.7557 9.76358 25.6086 10.01C27.3148 10.5222 29.0836 10.773 30.8511 11.0865C32.4668 11.4184 35.3028 11.7735 35.1216 14.0018ZM34.6202 13.9455C34.7937 12.0941 32.1068 11.8572 30.7718 11.4916C28.1443 10.9949 25.4708 10.3981 23.0349 9.23994C17.9473 7.16289 11.2708 5.14349 6.52256 8.95501C4.80411 10.7364 8.07232 12.9353 9.22243 14.1196C10.6834 15.4875 12.3582 16.9232 12.8213 18.9772L13.0025 19.6217C14.0875 22.6645 12.6469 25.8953 13.1312 28.9795C13.4059 30.7188 15.0847 31.8773 16.7313 32.0886C20.3374 32.3199 22.0139 27.5106 23.5775 24.9349C24.441 23.3542 25.2171 21.6653 26.5115 20.3733C27.7811 19.0418 29.3659 18.0867 30.9423 17.2392C32.3466 16.4006 34.3172 15.7428 34.6202 13.9455Z" fill="#DF0000"/>
<path d="M13.3086 31.9478C11.4071 30.7684 11.6069 28.44 12.1661 26.5922C12.8968 23.9465 13.956 21.2472 13.1566 18.5441C12.1546 15.9483 9.59535 14.4326 7.64856 12.5291C6.95626 11.8628 6.25169 11.1941 5.85211 10.283C4.96977 8.06005 7.87574 7.01595 9.49323 6.4997C14.1429 5.15641 18.7954 7.21581 23.0749 8.86944C24.7783 9.53823 26.4674 10.3916 28.2542 10.8121C30.0552 11.3066 31.895 11.5696 33.6844 12.1598C35.3174 12.6574 36.5153 13.828 35.5338 15.5906C34.753 16.8639 33.2605 17.4042 32.0148 18.0202C31.1709 18.4112 30.335 18.802 29.5368 19.2548C27.9386 20.1482 26.501 21.3313 25.4702 22.8359C24.9656 23.5832 24.5049 24.4127 24.0214 25.2034C21.8627 28.7258 18.1599 35.2073 13.3086 31.9478ZM13.6186 31.4891C18.8238 34.983 22.6936 25.9387 25.045 22.5396C26.1262 20.9623 27.6406 19.7225 29.2841 18.8066C30.1049 18.3418 30.9563 17.9451 31.7997 17.555C32.9956 16.9606 34.3662 16.483 35.0937 15.3356C35.9065 13.8819 34.8569 13.0632 33.5189 12.6377C31.7731 12.061 29.9103 11.7878 28.1257 11.2959C26.3032 10.8585 24.5624 10.0677 22.953 9.13737C18.9486 7.10074 14.0588 5.60886 9.62344 6.92004C8.29046 7.40578 5.54461 8.23767 6.29571 10.0983C6.65482 10.9027 7.34536 11.5551 7.98813 12.1626C10.7922 14.7711 14.4216 16.8123 13.9485 21.2469C13.8221 23.1644 13.1698 24.9578 12.6894 26.733C12.203 28.3912 11.9438 30.4659 13.6186 31.4891Z" fill="#AD0000"/>
</svg>
