<?xml version="1.0" encoding="utf-8"?>
<svg viewBox="0 0 230 230" xmlns="http://www.w3.org/2000/svg">
  <defs>
    <linearGradient id="paint0_linear_2364_2314" x1="115" y1="0" x2="115" y2="230" gradientUnits="userSpaceOnUse">
      <stop stop-color="#1766FF"/>
      <stop offset="1" stop-color="#16ABFF"/>
    </linearGradient>
    <linearGradient id="paint1_linear_2364_2314" x1="115" y1="0" x2="115" y2="230" gradientUnits="userSpaceOnUse">
      <stop stop-color="#1766FF"/>
      <stop offset="1" stop-color="#16ABFF"/>
    </linearGradient>
    <linearGradient id="paint2_linear_2364_2314" x1="115" y1="0" x2="115" y2="230" gradientUnits="userSpaceOnUse">
      <stop stop-color="#1766FF"/>
      <stop offset="1" stop-color="#16ABFF"/>
    </linearGradient>
    <linearGradient id="paint3_linear_2364_2314" x1="115" y1="0" x2="115" y2="230" gradientUnits="userSpaceOnUse">
      <stop stop-color="#1766FF"/>
      <stop offset="1" stop-color="#16ABFF"/>
    </linearGradient>
    <linearGradient id="paint4_linear_2364_2314" x1="115" y1="0" x2="115" y2="230" gradientUnits="userSpaceOnUse">
      <stop stop-color="#1766FF"/>
      <stop offset="1" stop-color="#16ABFF"/>
    </linearGradient>
  </defs>
  <path d="M46 146.032C46 141.999 42.8316 138.73 38.9231 138.73H7.07692C3.16845 138.73 0 141.999 0 146.032V178.889C0 182.921 3.16845 186.19 7.07692 186.19H35.3846C39.2931 186.19 42.4615 189.46 42.4615 193.492V222.698C42.4615 226.731 45.63 230 49.5385 230H81.3846C85.2931 230 88.4615 226.731 88.4615 222.698V189.841C88.4615 185.809 85.2931 182.54 81.3846 182.54H53.0769C49.1684 182.54 46 179.271 46 175.238V146.032Z" fill="url(#paint0_linear_2364_2314)"/>
  <path d="M88.4615 7.30159C88.4615 3.26903 85.2931 0 81.3846 0H49.5385C45.63 0 42.4615 3.26903 42.4615 7.30159V36.5079C42.4615 40.5405 39.2931 43.8095 35.3846 43.8095H7.07692C3.16845 43.8095 0 47.0786 0 51.1111V83.9682C0 88.0008 3.16845 91.2698 7.07692 91.2698H38.9231C42.8316 91.2698 46 88.0008 46 83.9682V54.7619C46 50.7293 49.1684 47.4603 53.0769 47.4603H81.3846C85.2931 47.4603 88.4615 44.1913 88.4615 40.1587V7.30159Z" fill="url(#paint1_linear_2364_2314)"/>
  <path d="M141.538 7.30159C141.538 3.26903 144.707 0 148.615 0H180.462C184.37 0 187.538 3.26903 187.538 7.30159V36.5079C187.538 40.5405 190.707 43.8095 194.615 43.8095H222.923C226.832 43.8095 230 47.0786 230 51.1111V83.9682C230 88.0008 226.832 91.2698 222.923 91.2698H191.077C187.168 91.2698 184 88.0008 184 83.9682V54.7619C184 50.7293 180.832 47.4603 176.923 47.4603H148.615C144.707 47.4603 141.538 44.1913 141.538 40.1587V7.30159Z" fill="url(#paint2_linear_2364_2314)"/>
  <path d="M184 146.032C184 141.999 187.168 138.73 191.077 138.73H222.923C226.832 138.73 230 141.999 230 146.032V178.889C230 182.921 226.832 186.19 222.923 186.19H194.615C190.707 186.19 187.538 189.46 187.538 193.492V222.698C187.538 226.731 184.37 230 180.462 230H148.615C144.707 230 141.538 226.731 141.538 222.698V189.841C141.538 185.809 144.707 182.54 148.615 182.54H176.923C180.832 182.54 184 179.271 184 175.238V146.032Z" fill="url(#paint3_linear_2364_2314)"/>
  <path d="M80.5349 119.095C78.9111 116.622 78.9111 113.378 80.5349 110.905L109.141 65.3809C111.948 61.1056 118.052 61.1055 120.859 65.3809L149.465 110.905C151.089 113.378 151.089 116.622 149.465 119.095L120.859 164.619C118.052 168.894 111.948 168.894 109.141 164.619L80.5349 119.095Z" fill="url(#paint4_linear_2364_2314)"/>
</svg>