<?xml version="1.0" encoding="UTF-8" standalone="no"?>
<svg
   xmlns:dc="http://purl.org/dc/elements/1.1/"
   xmlns:cc="http://creativecommons.org/ns#"
   xmlns:rdf="http://www.w3.org/1999/02/22-rdf-syntax-ns#"
   xmlns:svg="http://www.w3.org/2000/svg"
   xmlns="http://www.w3.org/2000/svg"
   xmlns:sodipodi="http://sodipodi.sourceforge.net/DTD/sodipodi-0.dtd"
   xmlns:inkscape="http://www.inkscape.org/namespaces/inkscape"
   width="41"
   height="41"
   viewBox="0 0 34 53.615385"
   fill="none"
   version="1.1"
   id="svg6661"
   sodipodi:docname="dodo.svg"
   inkscape:version="1.0.1 (3bc2e813f5, 2020-09-07)">
  <metadata
     id="metadata6667">
    <rdf:RDF>
      <cc:Work
         rdf:about="">
        <dc:format>image/svg+xml</dc:format>
        <dc:type
           rdf:resource="http://purl.org/dc/dcmitype/StillImage" />
        <dc:title></dc:title>
      </cc:Work>
    </rdf:RDF>
  </metadata>
  <defs
     id="defs6665">
    <mask
       id="mask1-5"
       mask-type="alpha"
       maskUnits="userSpaceOnUse"
       x="0"
       y="0"
       width="34"
       height="26">
      <path
         fill-rule="evenodd"
         clip-rule="evenodd"
         d="M 0.0258942,0.0581055 H 33.5358 V 25.5966 H 0.0258942 Z"
         fill="#ffffff"
         id="path6650-3" />
    </mask>
  </defs>
  <sodipodi:namedview
     pagecolor="#ffffff"
     bordercolor="#666666"
     borderopacity="1"
     objecttolerance="10"
     gridtolerance="10"
     guidetolerance="10"
     inkscape:pageopacity="0"
     inkscape:pageshadow="2"
     inkscape:window-width="1838"
     inkscape:window-height="1689"
     id="namedview6663"
     showgrid="false"
     inkscape:zoom="12.486471"
     inkscape:cx="17.957557"
     inkscape:cy="21.754942"
     inkscape:window-x="0"
     inkscape:window-y="0"
     inkscape:window-maximized="0"
     inkscape:current-layer="svg6661"
     inkscape:document-rotation="0"
     inkscape:pagecheckerboard="true" />
  <mask
     id="mask1"
     mask-type="alpha"
     maskUnits="userSpaceOnUse"
     x="0"
     y="0"
     width="34"
     height="26">
    <path
       fill-rule="evenodd"
       clip-rule="evenodd"
       d="M 0.0258942,0.0581055 H 33.5358 V 25.5966 H 0.0258942 Z"
       fill="#ffffff"
       id="path6650" />
  </mask>
  <circle
     style="fill:#161616;fill-opacity:1;stroke-width:1.26101"
     id="path74402"
     cx="17"
     cy="26.807692"
     r="22.884615" />
  <g
     id="g74993"
     transform="matrix(0.99999223,0,0,1,0.21916794,-2.888692)">
    <g
       mask="url(#mask1-5)"
       id="g6655"
       transform="translate(0,13.207125)">
      <path
         fill-rule="evenodd"
         clip-rule="evenodd"
         d="M 20.7496,6.79342 C 20.8947,6.56544 21.0262,6.31245 21.1369,6.03884 21.3277,5.56699 21.4331,5.09599 21.4586,4.66707 21.5625,3.76191 21.344,3.02676 20.8303,2.80773 c -0.5051,-0.2153 -1.1671,0.12202 -1.7344,0.80241 0.001,-0.04512 0.0019,-0.09024 0.0019,-0.13587 0,-1.88655 -0.8565,-3.4161645 -1.9131,-3.4161645 -1.0566,0 -1.9131,1.5296145 -1.9131,3.4161645 0,0.13385 0.0047,0.26567 0.0131,0.39546 C 14.642,2.98772 13.7971,2.53581 13.1936,2.827 12.4388,3.19136 12.3475,4.57885 12.9898,5.92629 13.0974,6.15241 13.3389,6.54094 13.47,6.73309 5.27707,8.0398 0.613063,14.6871 0.0258942,25.5967 H 4.60871 C 5.09195,16.6155 9.26598,11.5425 16.8067,11.6981 c 6.9246,0.143 12.2167,4.6898 12.1456,13.8986 h 4.5825 C 33.6185,14.7324 28.2789,8.4819 20.7496,6.79342 Z"
         fill="#f0f0f0"
         id="path6653" />
    </g>
    <path
       fill-rule="evenodd"
       clip-rule="evenodd"
       d="m 13.0001,30.207118 c -0.5524,0 -1.0001,0.5025 -1.0001,1.122 v 2.756 c 0,0.6197 0.4477,1.122 1.0001,1.122 0.5522,0 0.9999,-0.5023 0.9999,-1.122 v -2.756 c 0,-0.6195 -0.4477,-1.122 -0.9999,-1.122 z"
       fill="#f0f0f0"
       id="path6657" />
    <path
       fill-rule="evenodd"
       clip-rule="evenodd"
       d="m 20.9999,30.207118 c -0.5522,0 -0.9999,0.5025 -0.9999,1.122 v 2.756 c 0,0.6197 0.4477,1.122 0.9999,1.122 0.5524,0 1.0001,-0.5023 1.0001,-1.122 v -2.756 c 0,-0.6195 -0.4477,-1.122 -1.0001,-1.122 z"
       fill="#f0f0f0"
       id="path6659" />
  </g>
</svg>
