<svg width="256" height="256" viewBox="0 0 256 256" fill="none" xmlns="http://www.w3.org/2000/svg">
<g opacity="0.9">
<rect width="256" height="256" fill="white"/>
<circle cx="128" cy="128" r="128" fill="url(#paint0_radial)"/>
<g filter="url(#filter0_d)">
<path d="M62.8329 62.833C90.3885 35.2774 131.052 28.8192 164.752 43.4584L147.166 61.0445C123.645 54.3346 97.2846 60.2406 78.7626 78.7627C54.2814 103.244 51.8401 141.419 71.4387 168.631L97.5886 142.482L113.518 158.411L71.2796 200.65C68.3511 198.358 65.5292 195.863 62.8329 193.167C26.8422 157.176 26.8422 98.8237 62.8329 62.833Z" fill="white"/>
<path d="M91.2475 212.541C124.947 227.181 165.611 220.723 193.167 193.167C229.158 157.176 229.158 98.8237 193.167 62.833C190.47 60.1367 187.649 57.6423 184.72 55.35L142.481 97.5887L158.411 113.518L184.561 87.3684C204.16 114.581 201.718 152.756 177.237 177.237C158.715 195.759 132.355 201.665 108.834 194.955L91.2475 212.541Z" fill="white"/>
<path d="M143.93 128L128 112.07L112.07 128L128 143.93L143.93 128Z" fill="white"/>
<path d="M97.5887 81.659L113.518 97.5887L97.5887 113.518L81.659 97.5887L97.5887 81.659Z" fill="white"/>
<path d="M174.341 158.411L158.411 142.482L142.481 158.411L158.411 174.341L174.341 158.411Z" fill="white"/>
</g>
</g>
<defs>
<filter id="filter0_d" x="33.8399" y="33.84" width="188.32" height="188.32" filterUnits="userSpaceOnUse" color-interpolation-filters="sRGB">
<feFlood flood-opacity="0" result="BackgroundImageFix"/>
<feColorMatrix in="SourceAlpha" type="matrix" values="0 0 0 0 0 0 0 0 0 0 0 0 0 0 0 0 0 0 127 0"/>
<feOffset/>
<feGaussianBlur stdDeviation="1"/>
<feColorMatrix type="matrix" values="0 0 0 0 0 0 0 0 0 0 0 0 0 0 0 0 0 0 0.25 0"/>
<feBlend mode="normal" in2="BackgroundImageFix" result="effect1_dropShadow"/>
<feBlend mode="normal" in="SourceGraphic" in2="effect1_dropShadow" result="shape"/>
</filter>
<radialGradient id="paint0_radial" cx="0" cy="0" r="1" gradientUnits="userSpaceOnUse" gradientTransform="translate(128 128) rotate(90) scale(128)">
<stop stop-color="#304FFE"/>
<stop offset="1" stop-color="#3D5AFE"/>
</radialGradient>
</defs>
</svg>
