<?xml version="1.0" encoding="UTF-8" standalone="no"?>
<svg
   xmlns:dc="http://purl.org/dc/elements/1.1/"
   xmlns:cc="http://creativecommons.org/ns#"
   xmlns:rdf="http://www.w3.org/1999/02/22-rdf-syntax-ns#"
   xmlns:svg="http://www.w3.org/2000/svg"
   xmlns="http://www.w3.org/2000/svg"
   xmlns:sodipodi="http://sodipodi.sourceforge.net/DTD/sodipodi-0.dtd"
   xmlns:inkscape="http://www.inkscape.org/namespaces/inkscape"
   width="80"
   height="80"
   viewBox="0 0 80 80"
   version="1.1"
   id="svg66678"
   sodipodi:docname="dydx.svg"
   inkscape:version="1.0.1 (3bc2e813f5, 2020-09-07)">
  <metadata
     id="metadata66684">
    <rdf:RDF>
      <cc:Work
         rdf:about="">
        <dc:format>image/svg+xml</dc:format>
        <dc:type
           rdf:resource="http://purl.org/dc/dcmitype/StillImage" />
        <dc:title></dc:title>
      </cc:Work>
    </rdf:RDF>
  </metadata>
  <defs
     id="defs66682" />
  <sodipodi:namedview
     pagecolor="#ffffff"
     bordercolor="#666666"
     borderopacity="1"
     objecttolerance="10"
     gridtolerance="10"
     guidetolerance="10"
     inkscape:pageopacity="0"
     inkscape:pageshadow="2"
     inkscape:window-width="3840"
     inkscape:window-height="2130"
     id="namedview66680"
     showgrid="false"
     inkscape:zoom="7.7567471"
     inkscape:cx="-12.179291"
     inkscape:cy="54.553335"
     inkscape:window-x="0"
     inkscape:window-y="0"
     inkscape:window-maximized="1"
     inkscape:current-layer="svg66678" />
  <circle
     style="fill:#000000;stroke-width:2.30463"
     id="path66694"
     cx="40"
     cy="40"
     r="37.5" />
  <path
     fill="#000000"
     fill-rule="evenodd"
     d="M 47.908652,24 32.5314,56 H 31.392523 L 46.769775,24 Z m 1.986147,10.59314 c 0,-0.89607 0.34181,-1.624755 1.02413,-2.185048 0.701923,-0.560044 1.602746,-0.840185 2.702976,-0.840185 0.721273,0 1.413664,0.07468 2.077152,0.224018 0.683102,0.149341 1.47944,0.438639 2.390059,0.868631 l -0.511806,0.952193 c -0.83452,-0.410951 -1.545997,-0.700238 -2.133903,-0.868382 -0.588423,-0.149341 -1.185871,-0.224017 -1.79261,-0.224017 -0.815687,0 -1.451582,0.186934 -1.906638,0.560293 -0.473889,0.373359 -0.711213,0.868382 -0.711213,1.484549 0,0.597625 0.189347,1.11119 0.569074,1.540683 0.398306,0.410952 1.280286,1.008328 2.646226,1.792638 1.233079,0.709895 2.12436,1.316666 2.674601,1.820825 0.569074,0.52296 0.986212,1.083253 1.251911,1.680878 0.246097,0.597626 0.369668,1.316666 0.369668,2.157111 0,1.662087 -0.464599,2.978504 -1.393798,3.949748 -0.929715,0.952454 -2.229604,1.428426 -3.898137,1.428426 -1.612289,0 -2.902647,-0.457431 -3.870016,-1.372031 -0.948547,-0.896828 -1.422689,-2.100976 -1.422689,-3.614481 0,-1.419279 0.407849,-2.576688 1.2238,-3.473007 0.796349,-0.91511 2.076635,-1.596818 3.84087,-2.045102 -1.175812,-0.653511 -1.99151,-1.269938 -2.446555,-1.849022 -0.455838,-0.597387 -0.683102,-1.260293 -0.683102,-1.988718 z m 12.692115,-1.867393 4.383121,6.833671 4.440153,-6.833671 h 1.224163 l -5.037778,7.645756 5.435685,8.345854 h -1.280666 l -4.809929,-7.449465 -4.895597,7.449465 h -1.251765 l 5.464333,-8.345854 -4.952375,-7.645756 z m -11.080496,7.104316 c -0.569717,0.279872 -1.025805,0.615813 -1.367483,1.007323 -0.342196,0.373247 -0.598641,0.821333 -0.769348,1.343264 -0.189825,0.522439 -0.284864,1.110083 -0.284864,1.762683 0,1.213352 0.379903,2.18312 1.139433,2.91108 0.759277,0.726941 1.775782,1.091051 3.047961,1.091051 1.31014,0 2.326645,-0.372738 3.047708,-1.119469 0.722087,-0.765266 1.082619,-1.865455 1.082619,-3.301833 0,-0.970276 -0.266011,-1.809624 -0.797756,-2.518562 -0.512384,-0.708928 -1.395372,-1.371433 -2.648697,-1.987247 -1.082608,0.261361 -1.89871,0.531848 -2.449573,0.81171 z M 14.70721,31.791925 c 0.682854,0.149341 1.479222,0.438639 2.390116,0.868631 l -0.512336,0.952193 c -0.834804,-0.410951 -1.546034,-0.700238 -2.133954,-0.868382 -0.58792,-0.149341 -1.185647,-0.224017 -1.792653,-0.224017 -0.815453,0 -1.451099,0.186934 -1.906166,0.560293 -0.474671,0.373359 -0.71123,0.868382 -0.71123,1.484549 0,0.597625 0.189351,1.11119 0.569087,1.540683 0.398052,0.410952 1.280317,1.008328 2.646025,1.792638 1.232856,0.709895 2.124411,1.316666 2.674148,1.820825 0.569351,0.52296 0.986742,1.083253 1.252206,1.680878 0.246619,0.597626 0.369929,1.316666 0.369929,2.157111 0,1.662087 -0.464863,2.978504 -1.394084,3.949748 -0.929474,0.952454 -2.229141,1.428426 -3.898231,1.428426 -1.612327,0 -2.9021982,-0.457431 -3.8696015,-1.372031 -0.9485705,-0.896828 -1.4227236,-2.100976 -1.4227236,-3.614481 0,-1.419279 0.4078588,-2.576688 1.2235657,-3.473007 C 8.9879285,39.560872 10.268245,38.879164 12.032523,38.43088 10.856419,37.777369 10.040965,37.160942 9.5853914,36.581858 9.130071,35.984482 8.9025373,35.321576 8.9025373,34.59314 c 0,-0.89607 0.3415536,-1.624755 1.0244077,-2.185048 0.70194,-0.560044 1.602785,-0.840185 2.703041,-0.840185 0.720805,0 1.413202,0.07466 2.077224,0.224018 z m -4.176309,8.038138 C 9.9611843,40.109935 9.5056138,40.445876 9.163418,40.837386 8.8217402,41.210633 8.5652945,41.658719 8.3945878,42.18065 8.2045096,42.703089 8.109724,43.290733 8.109724,43.943333 c 0,1.213352 0.3796384,2.18312 1.1394331,2.91108 0.7592769,0.726941 1.7755279,1.091051 3.0479609,1.091051 1.31014,0 2.326138,-0.372738 3.047707,-1.119469 0.72157,-0.765266 1.082619,-1.865455 1.082619,-3.301833 0,-0.970276 -0.26601,-1.809624 -0.797755,-2.518562 -0.512638,-0.708928 -1.39589,-1.371433 -2.648951,-1.987247 -1.082366,0.261361 -1.899228,0.531848 -2.449837,0.81171 z m 21.390002,-7.104316 -5.410006,9.802685 v 6.188925 h -1.167969 v -6.10538 l -5.438404,-9.88623 h 1.309704 l 4.727142,8.738186 4.755022,-8.738186 z"
     id="path66676"
     style="fill:#ffffff" />
</svg>
