<svg width="512" height="512" viewBox="0 0 512 512" fill="none" xmlns="http://www.w3.org/2000/svg">
<rect width="512" height="512" rx="75" fill="url(#paint0_linear_564_124)"/>
<rect width="512" height="512" rx="75" fill="white" fill-opacity="0.5"/>
<path d="M167.68 258.56L255.36 112.64L342.4 258.56L255.36 311.68L167.68 258.56Z" fill="url(#paint1_linear_564_124)"/>
<path d="M167.68 258.56L255.36 112.64L342.4 258.56L255.36 311.68L167.68 258.56Z" fill="#333333"/>
<path d="M255.36 327.68L167.68 274.56L255.36 398.08L342.4 274.56L255.36 327.68Z" fill="url(#paint2_linear_564_124)"/>
<path d="M255.36 327.68L167.68 274.56L255.36 398.08L342.4 274.56L255.36 327.68Z" fill="#333333"/>
<path d="M367.36 341.76H342.4V378.88H307.84V401.92H342.4V440.32H367.36V401.92H401.28V378.88H367.36V341.76Z" fill="url(#paint3_linear_564_124)"/>
<path d="M367.36 341.76H342.4V378.88H307.84V401.92H342.4V440.32H367.36V401.92H401.28V378.88H367.36V341.76Z" fill="#333333"/>
<defs>
<linearGradient id="paint0_linear_564_124" x1="256" y1="0" x2="256" y2="512" gradientUnits="userSpaceOnUse">
<stop stop-color="#FFF500"/>
<stop offset="1" stop-color="#FF79C9"/>
</linearGradient>
<linearGradient id="paint1_linear_564_124" x1="284.48" y1="112.64" x2="284.48" y2="440.32" gradientUnits="userSpaceOnUse">
<stop stop-color="#FFF500"/>
<stop offset="1" stop-color="#FF79C9"/>
</linearGradient>
<linearGradient id="paint2_linear_564_124" x1="284.48" y1="112.64" x2="284.48" y2="440.32" gradientUnits="userSpaceOnUse">
<stop stop-color="#FFF500"/>
<stop offset="1" stop-color="#FF79C9"/>
</linearGradient>
<linearGradient id="paint3_linear_564_124" x1="284.48" y1="112.64" x2="284.48" y2="440.32" gradientUnits="userSpaceOnUse">
<stop stop-color="#FFF500"/>
<stop offset="1" stop-color="#FF79C9"/>
</linearGradient>
</defs>
</svg>
