<svg xmlns="http://www.w3.org/2000/svg" width="73" height="81" fill="none"><path d="M13.063 33.32c.692 1.479 2.404 4.401 2.404 4.401L35.261 5 15.943 18.49a8.43 8.43 0 0 0-2.75 3.027 14 14 0 0 0-.13 11.804z" fill="url(#A)"/><path d="M5.22 44.094c.218 3.13 1.102 6.177 2.594 8.938s3.555 5.17 6.053 7.069l21.367 14.899S21.867 55.733 10.59 36.562a19.36 19.36 0 0 1-2.266-6.537c-.158-1.04-.158-2.099 0-3.139l-.865 1.66a25.38 25.38 0 0 0-2.309 7.393 45.21 45.21 0 0 0 .069 8.154z" fill="#a0a8d4"/><path d="M59.734 46.68c-.692-1.479-2.404-4.401-2.404-4.401L37.536 75l19.318-13.481a8.43 8.43 0 0 0 2.75-3.027 14 14 0 0 0 .13-11.812z" fill="url(#B)"/><path d="M67.576 35.905c-.218-3.13-1.102-6.177-2.594-8.938s-3.555-5.17-6.053-7.068L37.562 5s13.36 19.266 24.645 38.437c1.139 2.026 1.903 4.24 2.257 6.537.158 1.04.158 2.099 0 3.139l.865-1.66a25.38 25.38 0 0 0 2.309-7.394 45.2 45.2 0 0 0-.061-8.154z" fill="#a0a8d4"/><path style="mix-blend-mode:color" d="M13.193 21.516a8.43 8.43 0 0 1 2.75-3.027L35.261 5 15.468 37.73l-2.404-4.401a14 14 0 0 1 .13-11.812zM5.22 44.094c.218 3.13 1.102 6.177 2.594 8.938s3.555 5.17 6.053 7.069L35.235 75S21.867 55.734 10.59 36.563a19.36 19.36 0 0 1-2.266-6.537 10.46 10.46 0 0 1 0-3.139l-.865 1.66a25.38 25.38 0 0 0-2.309 7.393c-.223 2.715-.199 5.444.069 8.154zm54.478 2.594c-.692-1.479-2.404-4.401-2.404-4.401L37.535 75l19.318-13.481a8.43 8.43 0 0 0 2.75-3.027 14 14 0 0 0 .13-11.812l-.035.009zm7.843-10.774c-.218-3.13-1.102-6.177-2.594-8.938s-3.555-5.17-6.053-7.068L37.561 5s13.36 19.266 24.645 38.437a19.36 19.36 0 0 1 2.257 6.537 10.46 10.46 0 0 1 0 3.139l.865-1.66a25.38 25.38 0 0 0 2.309-7.394c.225-2.714.205-5.444-.061-8.154l-.035.009z" fill="url(#C)"/><defs><linearGradient id="A" x1="36.125" y1="5.804" x2="10.72" y2="33.346" gradientUnits="userSpaceOnUse"><stop offset=".58" stop-color="#a0a8d4"/><stop offset=".73" stop-color="#8791c7"/><stop offset=".91" stop-color="#6470b4"/></linearGradient><linearGradient id="B" x1="36.663" y1="74.195" x2="62.077" y2="46.654" gradientUnits="userSpaceOnUse"><stop offset=".58" stop-color="#a0a8d4"/><stop offset=".73" stop-color="#8791c7"/><stop offset=".91" stop-color="#6470b4"/></linearGradient><linearGradient id="C" x1="36.394" y1="4.654" x2="36.394" y2="75.216" gradientUnits="userSpaceOnUse"><stop stop-color="#513eff"/><stop offset=".18" stop-color="#5157ff"/><stop offset=".57" stop-color="#5298ff"/><stop offset="1" stop-color="#52e5ff"/></linearGradient></defs></svg>
