<svg xmlns="http://www.w3.org/2000/svg" fill="none" height="156" width="156"><circle cx="77.571" cy="77.571" fill="#ed4e33" r="77.571"/><path d="M63.587 41.543c-21.162 8.137-23.1 28.975-29.168 38.707-6.14 9.847-20.206 15.281-18.282 20.3s16.006-.372 27.148 2.83c11.009 3.164 26.371 17.352 47.532 9.215 10.78-4.145 18.586-12.677 22.176-22.782.386-1.085-.336-2.245-1.481-2.352-.712-.067-1.395.306-1.716.946a30 30 0 0 1-16.107 14.615c-12.034 4.627-25.201.994-33.287-8.117a30.01 30.01 0 0 1-4.648-7.027c-.341-.716-.665-1.445-.953-2.198s-.535-1.511-.76-2.273c6.36-2.969 13.7-6.115 22.021-9.314 8.159-3.137 15.583-5.681 22.194-7.717 4.472-1.376 8.571-2.521 12.272-3.457l.794-.199a1.14 1.14 0 0 1 1.342.7l.004.01c.122.32.227.641.34.963a38.47 38.47 0 0 1 1.643 6.27c.159.919 1.162 1.419 1.984.978 3.038-1.634 5.817-3.227 8.3-4.761 9.254-5.708 14.384-10.549 13.331-13.292s-8.097-2.903-18.787-.944c-3.397.623-7.164 1.46-11.223 2.496l-2.131.556c-3.416.907-7.019 1.947-10.77 3.11-6.977 2.164-14.462 4.757-22.189 7.728-7.229 2.78-14.081 5.663-20.365 8.535-.077-12.191 7.281-23.716 19.315-28.342 7.288-2.802 14.992-2.573 21.733.067.665.261 1.422.08 1.909-.447.779-.845.54-2.191-.471-2.74-9.419-5.1-20.919-6.208-31.7-2.064z" fill="#fff"/></svg>
