<svg xmlns="http://www.w3.org/2000/svg" xmlns:xlink="http://www.w3.org/1999/xlink" viewBox="0 0 255.82 187.67"><defs><style>.cls-1{opacity:0.75;fill:url(#未命名的渐变_54);}.cls-2{fill:#0c008a;opacity:0.25;}.cls-3{stroke-miterlimit:10;stroke-width:5px;fill:url(#未命名的渐变_616);stroke:url(#未命名的渐变_616-2);}.cls-4{fill:#0a5aff;}</style><linearGradient id="未命名的渐变_54" x1="130.82" y1="124.87" x2="255.82" y2="124.87" gradientUnits="userSpaceOnUse"><stop offset="0" stop-color="#208fff"/><stop offset="1" stop-color="#1265ff"/></linearGradient><linearGradient id="未命名的渐变_616" x1="2.5" y1="93.83" x2="113.43" y2="93.83" gradientUnits="userSpaceOnUse"><stop offset="0" stop-color="#208fff"/><stop offset="1" stop-color="#2d65ff"/></linearGradient><linearGradient id="未命名的渐变_616-2" x1="0" y1="93.83" x2="115.94" y2="93.83" xlink:href="#未命名的渐变_616"/></defs><g id="图层_2" data-name="图层 2"><g id="图层_2-2" data-name="图层 2"><path class="cls-1" d="M194.48,142l-28.82,45.41H131.1L179,124.83,130.82,62.37h33.33l30.32,41.29h.77L224,62.37h31.83l-46,62.46,46,62.54H223.48L195.25,142Z"/><polygon class="cls-2" points="215.84 116.65 209.84 124.85 195.15 103.66 195.25 103.66 201.04 95.33 215.84 116.65"/><path class="cls-3" d="M113.36,159.28l-47.3.08c-10.3,0-18.75-2.63-25.13-7.83a25.09,25.09,0,0,1-9.52-20.38c0-9.23,3.35-15.92,10.24-20.44s17.93-6.85,32.69-6.85H102.4V78.63H74.34c-12,0-21.89-2.46-29.36-7.31s-11-11.44-11-20.21c0-7.46,2.54-13.19,7.54-17s12.59-5.89,22.28-5.89l49.64-.05V2.52l-53.09,0C43.44,2.5,29.88,6.6,20,14.69S5,34,5,47.89C5,57.69,7.36,66.42,12,73.83A41.72,41.72,0,0,0,29.88,89.66a40.13,40.13,0,0,0-19.73,14.93c-5.08,7.35-7.65,16.52-7.65,27.25,0,16.19,6,29.26,17.85,38.84s27.39,14.37,46.4,14.37l46.68.11Z"/><path class="cls-4" d="M64.39,106.7c-.27.44-16.94-4.15-24.49-8a155.06,155.06,0,0,1-15.64-9.28A37.11,37.11,0,0,0,16,94.65a57.74,57.74,0,0,0,20.76,10.69C49.86,108.94,64.39,106.7,64.39,106.7Z"/></g></g></svg>