<svg xmlns="http://www.w3.org/2000/svg" width="256" height="188" fill="none"><path opacity=".75" d="M178.501 129.889l-22.314 35.15H129.43l37.086-48.44-37.303-48.347h25.805l23.475 31.96h.596l22.267-31.96H226l-35.615 48.347L226 165.008h-25.046l-21.857-35.119h-.596z" fill="url(#A)"/><path opacity=".25" d="M195.165 110.031l-4.719 6.186-11.555-15.986h.079l4.554-6.284 11.641 16.084z" fill="#0c008a"/><path d="M115.446 143.3L78.5628 143.362C70.531 143.362 63.9419 141.327 58.9669 137.303C56.5782 135.429 54.6632 133.028 53.3745 130.29C52.0857 127.552 51.4587 124.554 51.5434 121.533C51.5434 114.391 54.1557 109.215 59.5284 105.717C64.901 102.219 73.5098 100.416 85.0193 100.416H106.9V80.8936H85.0193C75.662 80.8936 67.95 78.9901 62.125 75.2372C56.3001 71.4843 53.5474 66.385 53.5474 59.5988C53.5474 53.8263 55.5281 49.3924 59.427 46.4443C63.3259 43.4961 69.2444 41.8866 76.8005 41.8866L115.509 41.8479V22.0001H74.1102C60.9242 21.9846 50.3504 25.1571 42.6461 31.4171C34.9419 37.6772 30.9494 46.3591 30.9494 57.1072C30.9494 64.6904 32.7897 71.4456 36.4079 77.1794C39.7533 82.5234 44.5994 86.7809 50.3504 89.4286C44.1238 91.5754 38.7395 95.6186 34.9653 100.981C31.004 106.669 29 113.764 29 122.067C29 134.595 33.6787 144.709 42.9191 152.122C52.1594 159.534 64.2772 163.241 79.1008 163.241L115.501 163.326L115.446 143.3Z" fill="url(#B)" stroke="url(#C)" stroke-width="5" stroke-miterlimit="10"/><path d="M77.822 102.811c-.21.357-13.193-3.363-19.073-6.482-4.198-2.256-8.265-4.767-12.181-7.52a28.77 28.77 0 0 0-6.433 4.238c4.766 4.003 10.268 6.951 16.168 8.662 10.203 2.918 21.519 1.102 21.519 1.102z" fill="#0a5aff"/><defs><linearGradient id="A" x1="129.213" y1="116.63" x2="225.992" y2="116.63" gradientUnits="userSpaceOnUse"><stop stop-color="#208fff"/><stop offset="1" stop-color="#1265ff"/></linearGradient><linearGradient id="B" x1="29" y1="92.655" x2="115.501" y2="92.655" gradientUnits="userSpaceOnUse"><stop stop-color="#208fff"/><stop offset="1" stop-color="#2d65ff"/></linearGradient><linearGradient id="C" x1="27.051" y1="20.05" x2="117.458" y2="20.05" gradientUnits="userSpaceOnUse"><stop stop-color="#208fff"/><stop offset="1" stop-color="#2d65ff"/></linearGradient></defs></svg>
