<svg version="1.1" viewBox="0 0 128 128" xmlns="http://www.w3.org/2000/svg"><circle cx="64" cy="64" r="63" fill="#1969ff" stroke-width="1.6084"/><path d="m60.691 26.532c1.8569-0.97579 4.6822-0.97579 6.5391 0l18.948 9.957c1.1183 0.58768 1.7325 1.4634 1.8425 2.3674h0.01803v50.049c-0.02459 0.98602-0.64456 1.9655-1.8606 2.6047l-18.948 9.9569c-1.8569 0.97588-4.6822 0.97588-6.5391 0l-18.947-9.9569c-1.2109-0.63626-1.792-1.6229-1.8208-2.6047-0.0029-0.0967-0.0032-0.17728-4.78e-4 -0.24412l-1.2e-4 -49.484c-0.0019-0.05419-0.0021-0.10833-5.37e-4 -0.16223l0.0011-0.15924 0.0085-6e-5c0.08415-0.91392 0.67046-1.7673 1.8123-2.3674zm24.364 40.247-17.825 9.3673c-1.8569 0.97582-4.6822 0.97582-6.5391 0l-17.786-9.3465v22.007l17.786 9.2974c1.0043 0.53419 2.0468 1.0547 3.066 1.1209l0.20353 7e-3c1.0621 3e-3 2.0933-0.533 3.1389-1.0409l17.956-9.464zm-48.214 21.039c0 1.9171 0.224 3.1777 0.66874 4.0659 0.36862 0.73594 0.92172 1.2982 1.9316 1.9828l0.05765 0.0388c0.22164 0.14862 0.46579 0.3044 0.76298 0.48704l0.35048 0.21368 1.0762 0.64641-1.5436 2.5391-1.2046-0.72399-0.20247-0.12356c-0.34829-0.21428-0.63696-0.39751-0.90622-0.57837-2.8783-1.9308-3.9517-4.0354-3.9729-8.4146l-3.21e-4 -0.1331zm25.628-34.454c-0.13794 0.04715-0.26722 0.10165-0.3851 0.1636l-18.947 9.9571c-0.01988 0.01045-0.03886 0.02077-0.05688 0.03098l-0.01605 0.0093 0.02973 0.01689 0.04321 0.02334 18.947 9.9571c0.11788 0.06195 0.24716 0.11645 0.3851 0.1636zm2.9833 0v20.322c0.13794-0.04715 0.26722-0.10165 0.38504-0.1636l18.948-9.9571c0.01988-0.01045 0.03886-0.02077 0.05688-0.03098l0.01606-0.0093-0.02979-0.01695-0.04315-0.02333-18.948-9.9571c-0.11782-0.06195-0.2471-0.11645-0.38504-0.1636zm19.603-10.957-16.997 8.9321 16.997 8.9321zm-42.151 0.02089v17.822l16.958-8.9112zm22.933-13.272c-0.98531-0.5178-2.768-0.5178-3.7534 0l-18.947 9.9571c-0.01988 0.01044-0.03886 0.02077-0.05688 0.03098l-0.01605 0.0093 0.02973 0.01695 0.04321 0.02333 18.947 9.957c0.98537 0.51778 2.7681 0.51778 3.7534 0l18.948-9.957c0.01988-0.01044 0.03886-0.02077 0.05688-0.03104l0.01606-0.0093-0.02979-0.01695-0.04315-0.02327zm22.018 1.0919 1.2046 0.72382 0.20246 0.12368c0.34827 0.2139 0.63692 0.39766 0.90622 0.57828 2.8783 1.9307 3.9517 4.0356 3.9726 8.4145l5.97e-4 0.1334h-2.9824c0-1.9176-0.224-3.178-0.66873-4.0659-0.36862-0.73594-0.92174-1.2984-1.9316-1.9827l-0.05766-0.03886c-0.22161-0.14868-0.46579-0.3044-0.76297-0.48746l-0.35048-0.21356-1.0762-0.64617z" fill="#fff" stroke-width=".59687"/></svg>