<?xml version="1.0" encoding="UTF-8" standalone="no"?>
<svg
   xmlns:dc="http://purl.org/dc/elements/1.1/"
   xmlns:cc="http://creativecommons.org/ns#"
   xmlns:rdf="http://www.w3.org/1999/02/22-rdf-syntax-ns#"
   xmlns:svg="http://www.w3.org/2000/svg"
   xmlns="http://www.w3.org/2000/svg"
   xmlns:sodipodi="http://sodipodi.sourceforge.net/DTD/sodipodi-0.dtd"
   xmlns:inkscape="http://www.inkscape.org/namespaces/inkscape"
   version="1.1"
   id="Layer_1"
   x="0px"
   y="0px"
   viewBox="0 0 200 200"
   xml:space="preserve"
   sodipodi:docname="finnexus.svg"
   width="200"
   height="200"
   inkscape:version="1.0.1 (3bc2e813f5, 2020-09-07)"><metadata
   id="metadata129311"><rdf:RDF><cc:Work
       rdf:about=""><dc:format>image/svg+xml</dc:format><dc:type
         rdf:resource="http://purl.org/dc/dcmitype/StillImage" /><dc:title></dc:title></cc:Work></rdf:RDF></metadata><defs
   id="defs129309" /><sodipodi:namedview
   pagecolor="#ffffff"
   bordercolor="#666666"
   borderopacity="1"
   objecttolerance="10"
   gridtolerance="10"
   guidetolerance="10"
   inkscape:pageopacity="0"
   inkscape:pageshadow="2"
   inkscape:window-width="2922"
   inkscape:window-height="1451"
   id="namedview129307"
   showgrid="false"
   inkscape:pagecheckerboard="true"
   inkscape:zoom="2.4133333"
   inkscape:cx="-284.38862"
   inkscape:cy="41.776252"
   inkscape:window-x="0"
   inkscape:window-y="0"
   inkscape:window-maximized="0"
   inkscape:current-layer="Layer_1" />
<style
   type="text/css"
   id="style129268">
	.st0{fill:#F2F2F2;}
</style>

<circle
   style="fill:#224099;fill-opacity:1;stroke-width:1.12464"
   id="path129313"
   cx="100"
   cy="100"
   r="95" /><g
   id="g129280"
   transform="matrix(1.9930244,0,0,1.9930244,40.000001,55.176881)"><ellipse
     class="st0"
     cx="4.8200002"
     cy="22.5"
     rx="4.8200002"
     ry="4.79"
     id="ellipse129270" /><path
     class="st0"
     d="m 21.24,16.59 c 0.1,-0.13 0.2,-0.27 0.29,-0.42 0.5,-0.81 0.77,-1.78 0.71,-2.82 -0.15,-2.38 -2.08,-4.31 -4.47,-4.48 -2.81,-0.19 -5.16,2.02 -5.16,4.78 0,0.9 0.25,1.74 0.68,2.46 0.1,0.17 0.22,0.34 0.34,0.5 0.08,0.1 0.17,0.21 0.24,0.32 1.06,1.64 1.66,3.48 1.66,5.43 0,0.05 0,0.09 0,0.14 0,0.05 0,0.09 0,0.14 0,1.95 -0.6,3.79 -1.66,5.43 -0.07,0.11 -0.16,0.22 -0.24,0.32 -0.12,0.16 -0.24,0.32 -0.34,0.5 -0.43,0.72 -0.68,1.56 -0.68,2.46 0,2.76 2.34,4.97 5.16,4.78 2.39,-0.16 4.32,-2.1 4.47,-4.48 0.06,-1.04 -0.2,-2.01 -0.71,-2.82 -0.09,-0.14 -0.19,-0.28 -0.29,-0.42 -0.07,-0.09 -0.14,-0.18 -0.2,-0.27 -1.09,-1.66 -1.71,-3.53 -1.71,-5.51 0,-0.04 0,-0.09 0,-0.13 0,-0.04 0,-0.09 0,-0.13 0,-1.98 0.62,-3.85 1.71,-5.51 0.06,-0.1 0.13,-0.18 0.2,-0.27 z"
     id="path129272" /><ellipse
     class="st0"
     cx="55.389999"
     cy="22.5"
     rx="4.8200002"
     ry="4.79"
     id="ellipse129274" /><path
     class="st0"
     d="m 46.7,16.45 c 0.08,-0.11 0.15,-0.22 0.22,-0.33 0.43,-0.72 0.68,-1.56 0.68,-2.46 0,-2.76 -2.34,-4.97 -5.16,-4.78 -2.39,0.16 -4.32,2.1 -4.47,4.48 -0.06,1.04 0.2,2.01 0.71,2.82 0.06,0.1 0.13,0.2 0.2,0.3 0.23,0.32 0.46,0.65 0.66,0.99 0.86,1.51 1.34,3.17 1.34,4.91 0,0.04 0,0.09 0,0.13 0,0.04 0,0.09 0,0.13 0,1.74 -0.48,3.41 -1.34,4.91 -0.2,0.34 -0.43,0.67 -0.66,0.99 -0.07,0.1 -0.14,0.19 -0.2,0.3 -0.5,0.81 -0.77,1.78 -0.71,2.82 0.15,2.38 2.08,4.31 4.47,4.48 2.81,0.19 5.16,-2.02 5.16,-4.78 0,-0.9 -0.25,-1.74 -0.68,-2.46 -0.07,-0.11 -0.14,-0.23 -0.22,-0.33 -0.31,-0.42 -0.61,-0.86 -0.85,-1.32 -0.75,-1.42 -1.17,-2.97 -1.17,-4.6 0,-0.05 0,-0.09 0,-0.14 0,-0.05 0,-0.09 0,-0.14 0,-1.62 0.42,-3.17 1.17,-4.6 0.24,-0.47 0.54,-0.9 0.85,-1.32 z"
     id="path129276" /><path
     class="st0"
     d="M 34.01,7.6 C 34.08,7.5 34.15,7.41 34.21,7.3 34.71,6.49 34.98,5.52 34.92,4.48 34.77,2.1 32.84,0.17 30.45,0 c -2.81,-0.19 -5.16,2.02 -5.16,4.78 0,0.9 0.25,1.74 0.68,2.46 0.07,0.11 0.14,0.23 0.22,0.33 0.31,0.42 0.61,0.86 0.85,1.32 0.75,1.42 1.17,2.97 1.17,4.6 0,0.05 0,0.09 0,0.14 0,0.05 0,0.09 0,0.14 0,1.62 -0.42,3.17 -1.17,4.6 -0.25,0.46 -0.54,0.89 -0.85,1.32 -0.08,0.11 -0.15,0.22 -0.22,0.33 -0.39,0.65 -0.63,1.41 -0.67,2.21 0,0.04 0,0.09 0,0.13 0,0.04 0,0.07 0,0.11 0,0.01 0,0.01 0,0.02 0,0.01 0,0.01 0,0.02 0,0.04 0,0.07 0,0.11 0,0.04 0,0.09 0,0.13 0.04,0.81 0.28,1.56 0.67,2.21 0.07,0.11 0.14,0.23 0.22,0.33 0.31,0.42 0.61,0.86 0.85,1.32 0.75,1.42 1.17,2.97 1.17,4.6 0,0.05 0,0.09 0,0.14 0,0.05 0,0.09 0,0.14 0,1.62 -0.42,3.17 -1.17,4.6 -0.25,0.46 -0.54,0.89 -0.85,1.32 -0.08,0.11 -0.15,0.22 -0.22,0.33 -0.43,0.72 -0.68,1.56 -0.68,2.46 0,2.76 2.34,4.97 5.16,4.78 2.39,-0.16 4.32,-2.1 4.47,-4.48 0.06,-1.04 -0.2,-2.01 -0.71,-2.82 -0.06,-0.1 -0.13,-0.2 -0.2,-0.3 C 33.78,37.06 33.55,36.73 33.35,36.39 32.48,34.9 32,33.24 32,31.49 c 0,-0.04 0,-0.09 0,-0.13 0,-0.04 0,-0.09 0,-0.13 0,-1.74 0.48,-3.41 1.34,-4.91 0.2,-0.34 0.43,-0.67 0.66,-0.99 0.07,-0.1 0.14,-0.19 0.2,-0.3 0.46,-0.74 0.72,-1.6 0.71,-2.53 0,-0.93 -0.26,-1.79 -0.71,-2.53 -0.06,-0.1 -0.13,-0.2 -0.2,-0.3 C 33.77,19.35 33.54,19.02 33.34,18.68 32.48,17.18 32,15.51 32,13.77 c 0,-0.04 0,-0.09 0,-0.13 0,-0.04 0,-0.09 0,-0.13 0,-1.74 0.48,-3.41 1.34,-4.91 0.21,-0.35 0.43,-0.68 0.67,-1 z"
     id="path129278" /></g></svg>
