<?xml version="1.0" encoding="utf-8"?>
<svg width="144" height="144" viewBox="0 0 144 144" fill="none" xmlns="http://www.w3.org/2000/svg">
  <path fill-rule="evenodd" clip-rule="evenodd" d="M44.8 34.5905C44.84 34.6435 45.12 35.0414 45.4 35.4658C45.6933 35.9035 46.32 36.6065 46.8 37.0309C47.32 37.5084 48.0933 38.0256 48.7333 38.344C49.32 38.6225 50.16 38.9408 50.6 39.0469C51.04 39.153 51.68 39.2724 52.6667 39.3917L49.76 42.2699C48.1733 43.8614 46.2 45.957 45.4 46.9252C44.5867 47.8934 43.4267 49.3922 42.8133 50.241C42.2 51.0898 41.2533 52.5355 40.7067 53.4507C40.16 54.3658 39.3333 55.8911 38.8667 56.8328C38.4 57.7745 37.7333 59.2732 37.4 60.1486C37.0533 61.024 36.5867 62.4298 36.3333 63.2654C36.0933 64.101 35.7733 65.3875 35.6267 66.117C35.4667 66.8465 35.24 68.133 35.1067 68.9686C34.92 70.1623 34.8667 71.3162 34.8667 74.2075C34.8667 77.1387 34.92 78.2395 35.1067 79.4465C35.24 80.2821 35.4933 81.6614 35.68 82.497C35.8667 83.3326 36.3067 84.8844 36.6667 85.9454C37.0267 87.0065 37.64 88.5848 38.0267 89.4602C38.4267 90.3355 39.0667 91.6221 39.4667 92.3117C39.8533 93.0014 40.5733 94.1686 41.0667 94.8981C41.56 95.6275 42.4667 96.8477 43.0667 97.617C43.68 98.3863 44.88 99.6993 45.72 100.535C46.5733 101.384 47.8667 102.551 48.6 103.134C49.3333 103.718 50.6267 104.646 51.4667 105.204C52.3067 105.761 53.6933 106.57 54.5333 107.007C55.3733 107.458 56.5733 108.029 57.2 108.294C57.8267 108.559 58.7467 108.93 59.2667 109.116C59.7867 109.302 60.7733 109.62 61.4667 109.832C62.16 110.045 63.4533 110.363 64.3333 110.549C65.2133 110.721 66.72 110.96 67.6667 111.079C68.6533 111.185 70.52 111.278 72 111.278C73.48 111.278 75.3467 111.185 76.3333 111.079C77.28 110.96 78.6667 110.748 79.4 110.602C80.1333 110.456 81.48 110.124 82.4 109.872C83.32 109.607 84.76 109.129 85.6 108.798C86.44 108.466 87.88 107.816 88.8 107.352C89.72 106.901 91.0667 106.145 91.8 105.681C92.5333 105.217 93.7333 104.381 94.4667 103.837C95.2 103.28 96.4267 102.259 97.2 101.569C97.9733 100.88 99.1333 99.6993 99.8 98.9566C100.467 98.2006 101.48 96.9406 102.067 96.1581C102.653 95.3623 103.573 93.9829 104.093 93.081C104.627 92.1791 105.413 90.6671 105.853 89.7254C106.293 88.7837 106.947 87.0993 107.307 86.0117C107.68 84.9109 108.133 83.3326 108.32 82.497C108.507 81.6614 108.747 80.3484 108.867 79.5791C108.987 78.8099 109.12 76.9265 109.16 75.4012C109.213 73.677 109.173 71.9395 109.08 70.8254C108.987 69.844 108.8 68.3452 108.653 67.5096C108.507 66.6741 108.213 65.3345 108 64.5254C107.787 63.7164 107.4 62.4166 107.133 61.6075C106.853 60.7985 106.253 59.2865 105.787 58.2254C105.32 57.1644 104.507 55.5595 103.987 54.6444C103.467 53.7292 102.547 52.2437 101.933 51.3286C101.32 50.4134 100.253 48.981 99.5733 48.1322C98.8933 47.2833 97.7333 45.9172 97 45.0949C96.2667 44.2726 94.68 42.6545 91.2667 39.405L91.9333 39.3254C92.3067 39.2856 92.9867 39.153 93.4667 39.0336C93.9467 38.9143 94.7867 38.596 95.3333 38.3174C95.9467 38.0124 96.7067 37.4818 97.32 36.9115C97.8533 36.4208 98.5067 35.6648 99.2 34.4844L100.04 35.0414C100.493 35.3465 101.467 36.0494 102.2 36.5932C102.933 37.1503 104.133 38.1052 104.867 38.7418C105.6 39.3652 106.987 40.6915 107.933 41.673C108.88 42.6412 110.12 44.0073 110.693 44.697C111.253 45.3867 112.187 46.6334 112.787 47.4425C113.387 48.2648 113.867 48.981 113.867 49.0341C113.867 49.1004 113.493 49.3789 113.053 49.6707C112.613 49.9625 111.933 50.5328 111.56 50.9307C111.173 51.3286 110.64 52.0183 110.373 52.456C110.107 52.8936 109.72 53.7292 109.507 54.3128C109.173 55.2677 109.133 55.5463 109.133 57.1644C109.133 58.7825 109.173 59.061 109.507 60.016C109.72 60.5995 110.147 61.4882 110.453 62.0054C110.787 62.5227 111.467 63.3317 112.013 63.8357C112.667 64.4458 113.36 64.9233 114.067 65.2682C114.653 65.5467 115.52 65.8783 116 66.0109C116.507 66.1303 117.4 66.2231 118.133 66.2231C118.827 66.2231 119.733 66.1568 120.133 66.064C120.533 65.9711 120.88 65.9181 120.893 65.9446C120.92 65.9711 121.053 66.6343 121.2 67.4433C121.347 68.2391 121.587 69.897 121.733 71.1172C121.92 72.6823 122 74.181 122 76.1572C122 78.0936 121.92 79.6985 121.733 81.237C121.587 82.4837 121.347 84.1549 121.2 84.9507C121.053 85.7465 120.92 86.4229 120.893 86.4494C120.88 86.476 120.533 86.4229 120.133 86.3301C119.733 86.2372 118.827 86.1709 118.133 86.1709C117.4 86.1709 116.493 86.277 116 86.3964C115.52 86.529 114.653 86.8606 114.067 87.1391C113.4 87.4574 112.653 87.9747 112.08 88.492C111.573 88.9562 110.893 89.7387 110.56 90.256C110.213 90.7732 109.76 91.6884 109.547 92.3117C109.253 93.1606 109.147 93.7707 109.093 94.7654C109.04 95.7469 109.093 96.3703 109.267 97.1528C109.4 97.7629 109.76 98.7179 110.12 99.4075C110.493 100.137 111.013 100.906 111.48 101.397C111.893 101.835 112.587 102.432 113.013 102.723C113.44 103.015 113.827 103.267 113.867 103.28C113.907 103.307 113.573 103.851 113.133 104.487C112.693 105.124 111.733 106.384 111.013 107.299C110.28 108.214 108.813 109.846 107.747 110.933C106.667 112.021 105.08 113.506 104.187 114.249C103.307 114.978 101.893 116.066 101.053 116.663C100.213 117.246 99.4533 117.777 99.3733 117.817C99.2667 117.883 99.08 117.711 98.88 117.339C98.7067 117.034 98.24 116.437 97.8533 116C97.4533 115.575 96.72 114.939 96.2 114.607C95.68 114.262 94.9067 113.838 94.4667 113.679C94.0267 113.506 93.1867 113.281 92.6 113.175C91.88 113.042 91.1867 113.016 90.4667 113.069C89.88 113.122 89.0133 113.281 88.5333 113.427C88.0533 113.573 87.2533 113.904 86.7467 114.169C86.24 114.448 85.44 115.018 84.96 115.456C84.4933 115.894 83.8267 116.663 83.4933 117.18C83.1467 117.697 82.6933 118.613 82.4933 119.236C82.2 120.085 82.08 120.695 82.04 121.69C82 122.512 82.04 123.361 82.16 123.931C82.2667 124.515 82.28 124.846 82.2 124.886C82.12 124.913 81.3733 125.058 80.5333 125.204C79.6933 125.35 77.8533 125.589 76.4667 125.735C75.08 125.881 73.0933 126 72.0667 126C71.04 126 69.3067 125.907 68.2 125.801C67.1067 125.695 65.72 125.536 65.1333 125.456C64.5467 125.377 63.5867 125.231 63 125.125C62.4133 125.019 61.88 124.913 61.8 124.886C61.7067 124.846 61.72 124.541 61.8267 123.997C61.92 123.533 62 122.698 62 122.154C62 121.61 61.9067 120.748 61.8 120.231C61.6933 119.713 61.32 118.732 60.9867 118.042C60.4667 117.021 60.1467 116.583 59.28 115.708C58.4267 114.872 57.96 114.514 57.0667 114.09C56.44 113.785 55.5467 113.427 55.0667 113.307C54.5333 113.175 53.6933 113.082 52.8667 113.082C52.0533 113.082 51.2 113.175 50.6667 113.307C50.1867 113.427 49.2933 113.785 48.68 114.09C48 114.435 47.2133 114.978 46.6933 115.456C46.2267 115.894 45.6 116.61 45.3067 117.048C45.0133 117.485 44.7067 117.817 44.6133 117.804C44.5333 117.777 43.7867 117.26 42.9467 116.676C42.1067 116.079 40.6933 114.978 39.8133 114.249C38.92 113.506 37.3333 112.021 36.2667 110.933C35.2 109.846 33.84 108.36 33.2533 107.631C32.6667 106.901 31.8933 105.893 31.52 105.376C31.1467 104.859 30.6667 104.196 30.4533 103.877C30.24 103.572 30.0933 103.294 30.1333 103.28C30.1733 103.254 30.4667 103.068 30.8 102.856C31.1333 102.644 31.72 102.18 32.12 101.808C32.52 101.437 33.12 100.721 33.4533 100.203C33.8 99.6861 34.24 98.7709 34.4533 98.1475C34.7333 97.312 34.8533 96.6753 34.9067 95.6939C34.9467 94.6991 34.9067 94.1023 34.7333 93.3065C34.6 92.7096 34.2267 91.7282 33.8933 91.0517C33.4267 90.1366 33.0533 89.6326 32.28 88.8633C31.72 88.3195 30.9067 87.6564 30.4667 87.4044C30.0267 87.1524 29.2933 86.8075 28.84 86.6484C28.3733 86.476 27.5067 86.277 26.9067 86.2107C26.2 86.1311 25.4533 86.1179 24.8667 86.1974C24.36 86.2637 23.7333 86.3566 23.5067 86.3964C23.0667 86.476 23.0667 86.476 22.9333 85.773C22.8667 85.4016 22.7467 84.7252 22.6667 84.2875C22.5867 83.8499 22.4133 82.497 22.2667 81.2635C22.08 79.7117 22 78.213 22 76.2235C22 74.3004 22.08 72.6955 22.2667 71.157C22.4133 69.9103 22.6533 68.2391 22.8 67.4433C22.9467 66.6343 23.08 65.9711 23.1067 65.9446C23.12 65.9181 23.4667 65.9711 23.8667 66.064C24.2667 66.1568 25.1733 66.2231 25.8667 66.2231C26.6 66.2231 27.4933 66.1303 28 66.0109C28.48 65.8783 29.3733 65.5334 30 65.2284C30.9067 64.7907 31.36 64.4591 32.2667 63.544C33.1067 62.6951 33.5333 62.1513 33.9067 61.4086C34.1733 60.8648 34.52 59.9364 34.6667 59.3528C34.8267 58.7029 34.9333 57.8541 34.9333 57.1644C34.9333 56.4614 34.84 55.6391 34.6667 54.976C34.5067 54.3924 34.1467 53.464 33.8667 52.9202C33.5867 52.3764 32.9867 51.5408 32.5467 51.0633C32.12 50.5858 31.4 49.9625 30.9467 49.6707C30.5067 49.3789 30.1333 49.1136 30.1333 49.0738C30.1333 49.0341 30.6133 48.3178 31.2133 47.4823C31.8133 46.6467 32.8133 45.3336 33.44 44.5644C34.0667 43.7951 35.5733 42.1903 36.7867 40.9833C38 39.7764 39.72 38.2113 40.6 37.5084C41.48 36.8054 42.7733 35.8505 43.4667 35.373C44.16 34.8955 44.76 34.5507 44.8 34.5905ZM37.7067 94.1023C38.12 94.8317 38.7733 95.9326 39.1733 96.556C39.5733 97.1793 40.2667 98.1608 40.7067 98.7444C41.1467 99.328 42 100.376 42.6133 101.065C43.2133 101.755 44.1733 102.776 44.7467 103.32C45.3333 103.877 46.3467 104.766 47 105.31C47.6667 105.867 48.8 106.729 49.5333 107.233C50.2667 107.737 51.5867 108.572 52.4667 109.09C53.3467 109.607 54.8533 110.376 55.8 110.801C56.7467 111.225 58.4933 111.888 59.6667 112.286C60.84 112.671 62.4933 113.135 63.3333 113.321C64.1733 113.506 65.4667 113.745 66.2 113.851C66.9333 113.97 68.52 114.116 69.7333 114.196C71.3333 114.302 72.5467 114.302 74.2 114.196C75.4533 114.116 77.0533 113.97 77.7733 113.864C78.48 113.758 79.6533 113.546 80.3733 113.387C81.08 113.228 82.36 112.909 83.2 112.671C84.04 112.419 85.5733 111.888 86.6 111.477C87.6267 111.066 89.1333 110.389 89.9333 109.965C90.7333 109.541 91.9733 108.851 92.6667 108.413C93.36 107.989 94.5333 107.193 95.2667 106.649C96 106.105 97.2 105.15 97.92 104.527C98.64 103.904 99.7467 102.856 100.373 102.193C100.987 101.53 101.933 100.469 102.467 99.8054C103 99.1423 103.88 97.9486 104.427 97.1528C104.973 96.357 105.76 95.097 106.16 94.3675C106.573 93.6381 107.013 92.8157 107.12 92.5505C107.24 92.272 107.307 92.0465 107.267 92.0465C107.227 92.0465 106.947 92.4842 106.653 93.0147C106.347 93.532 105.64 94.6328 105.093 95.4286C104.547 96.2244 103.707 97.365 103.227 97.9486C102.747 98.5322 101.867 99.5402 101.28 100.19C100.68 100.827 99.5733 101.901 98.8267 102.577C98.0667 103.241 96.8667 104.222 96.16 104.766C95.44 105.296 94.2933 106.105 93.6 106.57C92.9067 107.021 91.6667 107.75 90.8667 108.201C90.0667 108.639 88.7067 109.315 87.8667 109.686C87.0267 110.058 85.5467 110.628 84.6 110.96C83.6533 111.291 82.1733 111.729 81.3333 111.941C80.4933 112.153 79.1067 112.445 78.2667 112.591C77.4267 112.737 75.9467 112.923 75 113.016C73.92 113.108 72.36 113.148 70.8667 113.095C69.5467 113.055 67.6533 112.896 66.6667 112.75C65.68 112.591 64.1467 112.299 63.2667 112.087C62.3867 111.875 60.9467 111.464 60.0667 111.172C59.1867 110.88 57.8133 110.363 57 110.018C56.2 109.673 55.08 109.169 54.5333 108.891C53.9867 108.612 53 108.082 52.3333 107.697C51.68 107.312 50.5333 106.583 49.8 106.092C49.0667 105.601 47.84 104.686 47.0667 104.076C46.2933 103.466 45.0667 102.392 44.3467 101.715C43.6133 101.026 42.4533 99.8054 41.76 99.0096C41.0667 98.2139 40.0667 96.9539 39.5333 96.2244C39 95.4949 38.0667 94.089 37.4667 93.1075C36.88 92.1261 36.36 91.2905 36.32 91.2507C36.28 91.2109 36.4133 91.5425 36.6133 91.9802C36.8133 92.4179 37.3067 93.3728 37.7067 94.1023Z" fill="white"/>
  <path d="M57.7866 24.8418C57.8666 24.8683 57.9333 24.9479 57.9333 25.0142C57.9333 25.0806 57.8399 25.6774 57.7466 26.3273C57.6266 27.1231 57.5866 28.1443 57.6399 29.3778C57.6666 30.3991 57.8133 31.7121 57.9333 32.2957C58.0533 32.8793 58.3066 33.8608 58.4933 34.4841C58.6666 35.1075 59.0266 36.142 59.2933 36.8052C59.5466 37.4551 60.1199 38.7151 60.5466 39.5905C60.9733 40.4658 61.7466 41.9248 62.2799 42.8399C62.7999 43.7551 64.5066 46.5271 66.0666 49.0073C67.6266 51.4875 69.2933 54.2065 69.7599 55.042C70.2399 55.8776 70.9599 57.2172 71.3599 58.0262C71.7733 58.822 72.3866 60.2014 72.7333 61.0768C73.0799 61.9521 73.5333 63.358 73.7466 64.1936C73.9733 65.0292 74.2133 66.4351 74.2933 67.3105C74.4133 68.5174 74.4133 69.2734 74.2933 70.4273C74.1999 71.2629 73.9866 72.5229 73.7999 73.2126C73.5866 73.9951 73.1199 75.1755 72.5333 76.3294C71.9333 77.5496 71.2266 78.6902 70.5066 79.6452C69.8933 80.441 68.6799 81.8203 67.7999 82.709C66.9199 83.5843 65.1466 85.2422 63.8666 86.3696C62.5866 87.497 60.9599 89.0222 60.2533 89.7384C59.5599 90.4547 58.6666 91.5024 58.2799 92.0462C57.8933 92.59 57.3466 93.5052 57.0533 94.0622C56.7733 94.6326 56.3866 95.5875 56.2133 96.1843C56.0399 96.7944 55.8266 97.882 55.7466 98.6115C55.6533 99.5001 55.6533 100.429 55.7333 101.397C55.7999 102.193 55.8133 102.895 55.7599 102.949C55.7066 103.015 55.1333 102.723 54.4666 102.312C53.8133 101.901 52.6933 101.145 51.9999 100.614C51.3066 100.097 50.0533 99.0094 49.2133 98.2136C48.3866 97.4178 47.2133 96.1843 46.6399 95.4947C46.0533 94.805 45.0933 93.5184 44.5066 92.6431C43.9199 91.7677 42.9999 90.1496 42.4666 89.062C41.9199 87.9612 41.2666 86.4757 40.9999 85.7462C40.7199 85.0168 40.3066 83.6374 40.0666 82.6957C39.8266 81.754 39.5066 80.2818 39.3733 79.4462C39.1733 78.1995 39.1333 77.1915 39.1466 74.0083C39.1466 70.6793 39.1866 69.8172 39.4399 68.2389C39.5999 67.2176 39.9066 65.6658 40.1199 64.7905C40.3333 63.9151 40.7066 62.6551 40.9333 62.0052C41.1733 61.3553 41.6266 60.2147 41.9599 59.4852C42.2799 58.7557 42.8799 57.562 43.2799 56.8326C43.6933 56.1031 44.6266 54.538 45.3733 53.3443C46.1199 52.1639 46.7999 51.209 46.8666 51.2488C46.9466 51.2753 46.9866 51.3416 46.9733 51.4079C46.9599 51.4742 46.6666 52.3098 46.3333 53.2515C45.9999 54.1932 45.5866 55.6256 45.3866 56.4347C45.1466 57.4692 45.0266 58.4374 44.9733 59.7505C44.9333 60.8115 44.9599 61.9256 45.0399 62.3368C45.1199 62.7347 45.3199 63.4243 45.4799 63.862C45.6533 64.2997 46.0133 64.9363 46.2933 65.2812C46.6533 65.7321 47.0666 66.0505 47.6933 66.3422C48.4933 66.7269 48.7066 66.7799 49.6666 66.7667C50.3866 66.7534 50.9866 66.6473 51.5333 66.4616C51.9733 66.3025 52.6933 65.9443 53.1333 65.6791C53.5733 65.4138 54.3333 64.8037 54.8133 64.3262C55.3066 63.8488 56.0533 62.9203 56.4799 62.2705C56.9066 61.6206 57.4666 60.5728 57.7066 59.9494C57.9599 59.326 58.3066 58.2782 58.4666 57.6283C58.6399 56.9785 58.8533 55.7185 58.9333 54.8431C59.0266 53.9279 59.0533 52.6945 58.9999 51.9252C58.9599 51.1957 58.8266 50.002 58.7199 49.2726C58.6133 48.5431 58.3333 47.2035 58.0799 46.2883C57.8399 45.3732 57.2933 43.5296 56.8799 42.1768C56.4666 40.8239 55.9733 39.0334 55.7866 38.1978C55.5333 37.0174 55.4399 36.1553 55.3733 34.3515C55.3199 32.5742 55.3466 31.7519 55.5066 30.8368C55.6266 30.1869 55.9066 29.0728 56.1333 28.3831C56.3599 27.6934 56.7999 26.5926 57.0933 25.9559C57.3999 25.3193 57.7066 24.8153 57.7866 24.8418Z" fill="#F17300"/>
  <path d="M84.4932 9.08516C84.5199 9.12495 84.4132 9.31063 84.2799 9.52284C84.1332 9.72179 83.7466 10.4513 83.4266 11.1409C83.0932 11.8306 82.6932 12.8784 82.5599 13.462C82.4132 14.0456 82.2532 14.9475 82.1999 15.4515C82.1599 15.9555 82.1732 16.8839 82.2532 17.5073C82.3332 18.1306 82.5732 19.2049 82.7999 19.8946C83.0266 20.5843 83.5466 21.8443 83.9732 22.6799C84.3999 23.5155 85.3866 25.2795 86.1732 26.5925C86.9466 27.9056 87.8799 29.6033 88.2532 30.3725C88.6132 31.1418 89.0399 32.1233 89.1732 32.5609C89.3199 32.9986 89.5332 33.8209 89.6532 34.3913C89.7732 34.9483 89.8666 35.9828 89.8666 36.6725C89.8666 37.3622 89.8266 37.9325 89.7732 37.9325C89.7066 37.9325 87.6799 35.9828 85.2532 33.5955C82.4532 30.85 80.4799 28.7809 79.8666 27.9852C79.3332 27.2955 78.6666 26.3405 78.3866 25.8631C78.1066 25.3856 77.7199 24.55 77.5199 24.0062C77.2799 23.3165 77.1466 22.6268 77.1066 21.7515C77.0399 20.7302 77.0932 20.2793 77.3199 19.3641C77.4799 18.7407 77.8399 17.7593 78.1199 17.1757C78.4132 16.5921 78.9332 15.6637 79.2932 15.1199C79.6532 14.5761 80.4266 13.5283 81.0132 12.7988C81.5999 12.0694 82.6132 10.9155 83.2666 10.2391C83.9066 9.56263 84.4666 9.04537 84.4932 9.08516Z" style="fill: rgb(241, 115, 0);"/>
  <path d="M73.4135 0C73.5202 0 73.6002 0.0663158 73.6002 0.132632C73.6002 0.198947 73.3469 0.756 73.0535 1.36611C72.7469 1.96295 72.1869 3.22295 71.8002 4.17789C71.4135 5.13284 70.9202 6.56526 70.6935 7.36105C70.4669 8.15684 70.1735 9.35053 70.0402 10.0137C69.8669 10.9023 69.8135 11.8705 69.8002 13.7937C69.8002 15.7832 69.8535 16.6585 70.0535 17.5737C70.1869 18.2236 70.5069 19.4173 70.7735 20.2263C71.0269 21.0354 71.6402 22.4545 72.1202 23.4095C72.6135 24.3644 73.4669 25.8234 74.0269 26.6589C74.5869 27.4945 75.5602 28.8076 76.1735 29.5768C76.8002 30.3461 77.8535 31.5928 78.5335 32.3621C79.2135 33.1314 80.1602 34.1659 80.6535 34.6699C81.1335 35.1739 83.1469 37.1236 85.1202 38.9804C87.0935 40.8505 89.5469 43.2777 90.5735 44.3653C91.6002 45.4661 92.9202 46.9251 93.4935 47.6147C94.0802 48.3044 95.0802 49.5644 95.7202 50.4C96.3602 51.2356 97.3069 52.5486 97.8269 53.3179C98.3335 54.0872 99.0669 55.2543 99.4669 55.9042C99.8535 56.5541 100.52 57.8008 100.947 58.6629C101.387 59.5118 101.96 60.7718 102.254 61.435C102.534 62.1114 102.987 63.3581 103.254 64.1937C103.534 65.0293 103.894 66.3158 104.08 67.0453C104.254 67.7747 104.507 69.0347 104.627 69.8305C104.8 70.9314 104.867 72.0985 104.867 74.6053C104.867 77.1651 104.814 78.2659 104.614 79.4463C104.48 80.2819 104.174 81.7541 103.934 82.6958C103.694 83.6375 103.267 85.0434 102.987 85.8126C102.707 86.5819 102.04 88.0674 101.52 89.1284C100.987 90.1895 100.094 91.7413 99.5335 92.5768C98.9735 93.4124 98.0135 94.699 97.4002 95.4284C96.8002 96.1579 95.7335 97.2985 95.0535 97.9617C94.3602 98.6116 93.3469 99.5135 92.8002 99.9512C92.2535 100.389 91.3202 101.092 90.7335 101.49C90.1469 101.901 89.0002 102.604 88.2002 103.068C87.3869 103.519 86.1602 104.156 85.4669 104.461C84.7735 104.766 83.5735 105.23 82.8002 105.495C82.0269 105.774 80.8269 106.132 80.1335 106.304C79.4402 106.477 78.1469 106.755 77.2669 106.914C76.0935 107.113 74.8935 107.219 72.8002 107.259C70.6002 107.312 69.5202 107.272 68.1335 107.113C67.1469 106.994 65.6669 106.742 64.8669 106.556C64.0535 106.384 63.0402 106.119 61.8002 105.734L61.5469 104.898C61.3469 104.235 61.2935 103.612 61.2802 101.994C61.2669 100.216 61.3069 99.792 61.5735 98.8768C61.7469 98.2933 62.0935 97.3648 62.3469 96.8211C62.6002 96.2773 63.2002 95.256 63.6669 94.5663C64.1335 93.8766 64.9069 92.8288 65.4002 92.2453C65.8802 91.6617 67.4669 89.9242 68.9202 88.399C70.3735 86.8737 71.9335 85.2025 72.3869 84.6853C72.8535 84.168 73.6535 83.1865 74.1869 82.4968C74.7202 81.8072 75.4802 80.6665 75.8935 79.9768C76.3069 79.2872 76.8535 78.2128 77.1069 77.5895C77.3735 76.9661 77.7335 75.9316 77.9335 75.2684C78.1202 74.6053 78.4002 73.3983 78.5469 72.576C78.7202 71.568 78.8002 70.4804 78.8002 69.1674C78.8002 68.0931 78.7069 66.5811 78.5869 65.7455C78.4669 64.9364 78.1602 63.5173 77.9069 62.6021C77.6669 61.687 77.1869 60.2545 76.8535 59.419C76.5202 58.5834 75.7735 56.9653 75.2135 55.8379C74.6402 54.7105 73.6269 52.8537 72.9335 51.7263C72.2535 50.5989 70.8669 48.4503 69.8535 46.9516C68.8535 45.4528 67.2935 43.1848 66.4002 41.9116C65.5069 40.6383 64.4535 38.9672 64.0669 38.1979C63.6802 37.4286 63.1869 36.2615 62.9602 35.6116C62.7335 34.9617 62.4269 33.8476 62.2802 33.1579C62.1335 32.4682 61.9469 31.3541 61.8669 30.7042C61.8002 30.0543 61.7335 28.7413 61.7335 27.7863C61.7335 26.8314 61.8269 25.3194 61.9335 24.4042C62.0402 23.4891 62.2802 22.0036 62.4802 21.0884C62.6669 20.1733 63.0269 18.7408 63.2802 17.9053C63.5202 17.0697 63.9869 15.6903 64.3069 14.8547C64.6269 14.0192 65.0935 12.8785 65.3335 12.3347C65.5735 11.7909 66.0669 10.7432 66.4269 10.0137C66.8002 9.28421 67.6402 7.77221 68.3069 6.64484C68.9869 5.53074 70.0402 3.93916 70.6535 3.13011C71.2669 2.32105 72.0935 1.28653 72.4935 0.822316C72.9069 0.371368 73.3202 0 73.4135 0Z" fill="#E03597"/>
</svg>