<?xml version="1.0" encoding="UTF-8"?>
<svg id="Layer_1" data-name="Layer 1" xmlns="http://www.w3.org/2000/svg" viewBox="0 0 800 815.3">
  <defs>
    <style>
      .cls-1 {
        fill: #28d358;
        stroke-width: 0px;
      }
    </style>
  </defs>
  <path class="cls-1" d="M209.37,344.75c0,46.61,37.78,84.39,84.39,84.39s84.39-37.78,84.39-84.39-37.78-84.39-84.39-84.39-84.39,37.78-84.39,84.39Z"/>
  <path class="cls-1" d="M422.06,344.75c0,46.61,37.78,84.39,84.39,84.39s84.39-37.78,84.39-84.39-37.78-84.39-84.39-84.39-84.39,37.78-84.39,84.39Z"/>
  <path class="cls-1" d="M400,705.35c-165.54,0-297.82-129-297.82-297.7S234.46,107.52,400,107.52c144.29,0,263.28,99.88,291.46,237.24h108.54C770.36,149.51,599.93,0,400,0,179.07,0-.06,182.55,0,407.65c-.06,225.1,179.07,407.65,400,407.65,139,0,235.99-64.41,295.46-165.75,1.38.42,2.89.77,4.2,1.13v140.2h100.34v-336.29h-108.54c-21.94,145.11-141.65,250.75-291.46,250.75Z"/>
</svg>