<svg xmlns="http://www.w3.org/2000/svg" width="302.362" height="290.589" viewBox="0 0 80 76.885" fill-rule="evenodd"><path d="M58.395 31.201c2.184 3.061 3.37 6.779 3.339 10.527 0 3.686-1.186 7.372-3.339 10.371l4.555 3.467a23.62 23.62 0 0 0 4.493-13.807 23.67 23.67 0 0 0-4.836-14.463l-2.612 2.355z" fill="#02e2ac"/><path d="M67.006 58.638L51.687 46.986c1.092-1.437 1.716-3.186 1.809-4.998.062-1.812-.405-3.592-1.373-5.123l7.332-6.622 7.675-7.185c.499-.469.53-1.281.031-1.781l-1.061-1.062a30.28 30.28 0 0 0-20.561-8.997l.031-4.217c.031-.281 0-.562-.062-.843-.094-.281-.219-.531-.406-.75a1.86 1.86 0 0 0-.686-.5 1.82 1.82 0 0 0-.811-.187 1.82 1.82 0 0 0-.811.187c-.25.125-.499.281-.686.5s-.343.469-.406.718c-.094.281-.125.562-.062.843l-.031 4.342c-1.841.187-3.682.531-5.46 1.062l.031-5.404c.031-.281 0-.562-.062-.843-.094-.281-.219-.531-.406-.75a1.86 1.86 0 0 0-.686-.5 1.82 1.82 0 0 0-.811-.187c-.281 0-.562.062-.811.187s-.499.281-.687.5-.343.469-.405.718c-.094.281-.125.562-.062.843l-.094 6.904c-6.302 2.811-11.482 7.716-14.633 13.87s-4.15 13.214-2.777 19.992a30.52 30.52 0 0 0 10.327 17.337c5.304 4.436 11.981 6.935 18.876 7.06l22.308.094c.687 0 1.248-.562 1.248-1.25V59.669a1.32 1.32 0 0 0-.499-1.031zm-22.62 8.028a25.1 25.1 0 0 1-15.163-5.217 25.14 25.14 0 0 1-8.861-13.401c-1.404-5.31-.998-10.965 1.092-16.025 2.122-5.061 5.834-9.309 10.608-12.058l-.031 8.216c-.031.281 0 .562.062.843a2.18 2.18 0 0 0 .406.75 1.86 1.86 0 0 0 .686.5 1.82 1.82 0 0 0 .811.187 1.82 1.82 0 0 0 .811-.187c.25-.125.499-.281.686-.5s.343-.468.406-.718c.094-.281.125-.562.062-.843l.031-10.09c2.746-1 5.647-1.468 8.58-1.468 5.398 0 10.639 1.781 14.913 5.029a.64.64 0 0 1 .062.968L47.88 33.366c-1.061-.437-2.215-.687-3.37-.687-1.279 0-2.558.25-3.744.781s-2.215 1.312-3.058 2.28-1.466 2.124-1.841 3.343c-.375 1.249-.468 2.53-.281 3.811s.624 2.499 1.311 3.593 1.622 1.999 2.683 2.718c1.092.687 2.309 1.156 3.588 1.343s2.59.094 3.806-.281l14.914 11.34c.156.125.25.312.25.5l-.031 3.999c0 .344-.281.625-.624.625zm3.65-24.991c0 .687-.219 1.375-.593 1.968a3.62 3.62 0 0 1-1.591 1.312c-.655.281-1.373.343-2.028.187s-1.311-.469-1.81-.968-.842-1.125-.967-1.812-.062-1.406.219-2.031c.281-.656.717-1.187 1.31-1.593.593-.375 1.279-.593 1.966-.593.936 0 1.841.375 2.496 1.062a3.47 3.47 0 0 1 .998 2.468z" fill="#0e0333"/></svg>
