<svg fill="none" version="1.1" viewBox="0 0 108 108" xmlns="http://www.w3.org/2000/svg"><path d="m17.86 47.447c0-3.263 1.0746-6.2393 2.9266-8.5986l19.638 19.676c-2.392 1.8615-5.3618 2.933-8.58 2.933-7.7592 0.0054-14.028-6.2772-13.985-14.01zm58.418 13.972c7.7161 0.0433 13.985-6.2393 13.985-14.01 0-3.2252-1.0745-6.2015-2.9265-8.5987l-19.638 19.676c2.3488 1.8561 5.3186 2.933 8.5799 2.933zm15.184-26.656c2.8888 3.4741 4.622 7.8519 4.622 12.728 0 10.953-8.8715 19.838-19.806 19.838-4.8272 0-9.2387-1.7371-12.705-4.6267l-9.5304 9.5456-9.5303-9.5456c-3.4665 2.8951-7.8402 4.6267-12.705 4.6267-10.934 0-19.806-8.8855-19.806-19.838 0-4.8377 1.7333-9.2588 4.6221-12.728l-8.7042-8.7231c-4.9568 8.182-7.8024 17.733-7.8024 27.982 0 29.844 24.136 53.978 53.883 53.978 29.746 0 53.882-24.178 53.882-53.978 0.081-10.292-2.764-19.838-7.716-27.982zm1.5658-18.025c-9.7787-10.287-23.64-16.737-38.991-16.737-15.346 0-29.169 6.4504-38.985 16.737-1.3175 1.407-2.5972 2.8951-3.7959 4.4211l42.743 42.82 42.743-42.858c-1.0745-1.4882-2.3542-3.0196-3.715-4.3833zm-38.991 37.241-33.127-33.188c8.8284-8.8855 20.502-13.767 33.127-13.767s24.342 4.8756 33.127 13.761z" fill="#04795b"/></svg>