<?xml version="1.0" encoding="utf-8"?>
<!-- Generator: Adobe Illustrator 26.0.1, SVG Export Plug-In . SVG Version: 6.00 Build 0)  -->
<svg version="1.1" id="Layer_1" xmlns="http://www.w3.org/2000/svg" xmlns:xlink="http://www.w3.org/1999/xlink" x="0px" y="0px"
	 viewBox="0 0 1417.3 1417.3" style="enable-background:new 0 0 1417.3 1417.3;" xml:space="preserve">
<style type="text/css">
	.st0{fill:#181EA9;}
</style>
<path class="st0" d="M708.7,0C317.9,0,0,317.9,0,708.7s317.9,708.7,708.7,708.7s708.7-317.9,708.7-708.7S1099.4,0,708.7,0z
	 M708.7,1377.2c-368.6,0-668.5-299.9-668.5-668.5S340,40.2,708.7,40.2s668.5,299.9,668.5,668.5S1077.3,1377.2,708.7,1377.2z
	 M843.7,409.7l-62.2,62.2c-21.1-15.1-46.9-23.9-74.8-23.9c-71.2,0-129.1,57.9-129.1,129.1c0,63.9,46.6,117,107.6,127.3v46.7
	c-61,10.3-107.6,63.4-107.6,127.3c0,71.2,57.9,129.1,129.1,129.1c71.2,0,129.1-57.9,129.1-129.1c0-63.9-46.6-117-107.6-127.3v-46.7
	c61-10.3,107.6-63.4,107.6-127.3c0-27.8-8.9-53.6-23.9-74.8l62.2-62.2L843.7,409.7z M792.8,878.5c0,47.5-38.6,86.1-86.1,86.1
	s-86.1-38.6-86.1-86.1c0-47.5,38.6-86.1,86.1-86.1S792.8,831,792.8,878.5z M706.7,663.2c-47.5,0-86.1-38.6-86.1-86.1
	c0-47.5,38.6-86.1,86.1-86.1s86.1,38.6,86.1,86.1C792.8,624.6,754.2,663.2,706.7,663.2z"/>
</svg>
