<svg xmlns="http://www.w3.org/2000/svg" width="60" height="60" fill="none" xmlns:v="https://vecta.io/nano"><style><![CDATA[.B{fill:#414141}.C{fill:#edae50}.D{fill:#fcd38c}.E{fill:#45423d}.F{fill:#dcf9fb}.G{fill:#a19d98}]]></style><g clip-path="url(#B)"><path d="M42.316 0H17.155C7.681 0 0 7.681 0 17.155v25.161c0 9.474 7.681 17.155 17.155 17.155h25.161c9.474 0 17.155-7.681 17.155-17.155V17.155C59.471 7.681 51.79 0 42.316 0z" fill="#f1f1f1"/><mask id="A" maskUnits="userSpaceOnUse" x="11" y="13" width="38" height="33"><path d="M48.034 13.724H11.437v32.023h36.597V13.724z" fill="#fff"/></mask><g mask="url(#A)"><path d="M45.081 34.509l.318.278c.072.06.072.06.143-.005l.146-.138c.202-.182.474-.173.663.025.075.079.146.163.212.251a.53.53 0 0 1-.037.694l-.162.157c-.047.042-.048.082-.015.135l.198.328a5.46 5.46 0 0 1 .221.433c.065.14.065.139.2.094a1.7 1.7 0 0 1 .199-.06.46.46 0 0 1 .522.286 2.06 2.06 0 0 1 .127.419c.04.206-.078.434-.267.535-.073.039-.154.056-.23.085-.093.035-.101.042-.085.139.049.303.083.608.085.916.001.067.025.106.091.111l.169.022a.48.48 0 0 1 .445.379c.006.02.02.444.001.558-.043.254-.229.434-.473.445a.68.68 0 0 1-.157-.011c-.096-.018-.16.025-.183.123-.057.243-.134.479-.217.713-.024.068-.01.127.043.175.028.025.134.147.151.188.04.093-.132-.052-.171-.076l-1.612-.94c.03-.232.136-.529.179-.758.219-1.166-.008-2.23-.641-3.2a3.7 3.7 0 0 0-2.135-1.58c-.78-.226-1.553-.18-2.312.115-.628.244-1.315.643-1.691 1.272-.043.051-.064.045-.132.013-.236-.125-1.16-.765-1.536-.998-.167-.178-.277-.469-.152-.684a1.56 1.56 0 0 1 .338-.389c.181-.157.443-.152.635-.005.238.183.238.182.47-.014.121-.103.25-.194.377-.287.118-.087.127-.122.071-.259-.151-.373-.054-.656.286-.84a1.7 1.7 0 0 1 .281-.127c.26-.084.499.015.641.261.147.257.147.256.424.189l.443-.09c.148-.029.17-.053.179-.209.003-.078.014-.155.033-.23.039-.15.11-.282.257-.342.279-.113.562-.135.836.014.162.088.237.239.239.434.003.293.005.296.274.342.177.031.351.076.525.12.132.033.166.02.218-.115.13-.343.454-.517.836-.318.108.057.222.098.316.189.191.184.204.456.126.654l-.035.083c-.052.138-.058.218-.058.218l.386.283z" fill="#5f5f5f"/><path d="M45.342 40.655c.111.113 1.594.976 1.722 1.057.038.005.068.032.102.047l-.002-.001.076.08-.001-.002c.118.175.117.361.049.554-.043.103-.095.201-.155.293-.14.224-.397.294-.624.172-.069-.037-.136-.078-.201-.122-.048-.032-.08-.023-.114.024-.181.255-.383.494-.603.712-.044.044-.05.082-.012.133l.121.179c.157.247.114.532-.107.715l-.238.182c-.22.152-.478.109-.645-.106a2.28 2.28 0 0 1-.13-.188c-.036-.057-.072-.07-.131-.034-.251.152-.517.272-.788.378-.099.039-.098.04-.078.15l.019.115c.063.321-.009.495-.273.66-.068.04-.147.034-.22.055-.128.033-.257.03-.387.023l-.127-.071c-.125-.111-.181-.257-.213-.424-.044-.227-.017-.19-.213-.18-.26.013-.52.012-.78-.004-.101-.006-.101-.007-.124.093l-.03.139c-.042.297-.267.52-.625.447-.088-.018-.175-.042-.26-.069-.245-.076-.387-.328-.338-.595l.04-.203c.017-.092.016-.097-.071-.132l-.496-.218-.283-.151c-.098-.053-.097-.054-.165.043l-.109.156c-.167.223-.431.27-.653.114l-.247-.19c-.203-.171-.247-.453-.107-.686.042-.069.088-.135.134-.201.032-.045.034-.082-.007-.123-.223-.222-.427-.463-.611-.723-.035-.049-.069-.049-.114-.019l-.169.104a.46.46 0 0 1-.675-.192c-.054-.096-.12-.183-.157-.291-.092-.266-.014-.512.215-.66l.147-.092c.085-.055.087-.057.05-.153a5.89 5.89 0 0 1-.2-.612l-.068-.276c-.015-.068-.048-.094-.113-.079a1.49 1.49 0 0 1-.157.022c-.31.035-.54-.163-.573-.492l-.024-.271c-.008-.131.031-.26.11-.361s.191-.166.314-.182l.206-.026c.089-.016.092-.017.093-.116.004-.216.02-.432.047-.646.011-.094.041-.186.034-.282-.007-.066-.033-.107-.083-.128l-.093-.029a.53.53 0 0 1-.264-.15" class="B"/><path d="M36.404 38.188c.011-.066-.015-.166-.079-.185l-.197-.069c-.217-.07-.352-.251-.376-.495-.027-.104.059-.44.098-.549a.49.49 0 0 1 .543-.341c.052.008.103.022.153.042.091.038.161.008.202-.084.099-.227.248-.452.344-.681.093-.221.027-.203.059-.195.079.072 1.234.67 1.598.982-.237.273-.764 1.508-.786 1.922" class="B"/><path d="M38.762 36.596c.737-.848 1.265-1.212 1.993-1.432a3.62 3.62 0 0 1 1.364-.145 3.71 3.71 0 0 1 2.085.861c.542.448.936 1.014 1.206 1.683.165.409.252.837.293 1.28.058.634-.07 1.343-.274 1.935-.041.039-.795-.51-.876-.617-.019-.058.004-.111.018-.164.074-.289.122-.583.113-.883-.041-1.443-.965-2.633-2.243-2.924-.944-.215-1.944.002-2.86.992-.023.014-.03-.016-.186-.13l-.568-.39c-.102-.064-.097-.029-.066-.066z" class="B"/><path d="M45.444 40.736a1.25 1.25 0 0 0-.066.129c-.225.576-.585 1.05-1.024 1.45-.574.525-1.24.852-1.996.957-.185.026-.371.054-.558.048-.541-.018-1.064-.124-1.564-.356a3.8 3.8 0 0 1-.882-.573 4.03 4.03 0 0 1-1.007-1.303c-.229-.472-.361-.97-.417-1.496-.049-.452-.011-.896.078-1.339a4.27 4.27 0 0 1 .557-1.402c.038-.061.148-.201.183-.236a7.89 7.89 0 0 1 .803.556c.053.074-.045.171-.075.219-.162.251-.295.517-.381.808-.298 1.016-.162 1.962.44 2.812a2.73 2.73 0 0 0 2.019 1.187c1.189.127 2.409-.591 2.911-1.858.028-.07.021-.18.134-.186.072.089.76.532.845.582z" fill="#5f5f5f"/><path d="M44.6 40.152c-.095.258-.201.51-.349.739-.47.727-1.111 1.179-1.928 1.334-.827.157-1.585-.039-2.258-.568-.592-.466-.97-1.092-1.116-1.86-.172-.907.009-1.742.514-2.496l.056-.085c.019-.024.27-.319.392-.428.541-.482 1.161-.729 1.868-.744 1.326-.027 2.522.928 2.867 2.315a3.26 3.26 0 0 1-.016 1.666l-.03.126z" class="C"/><path d="M42.6 39.162a.81.81 0 0 1-.776.837c-.444-.006-.808-.376-.804-.845.004-.459.341-.839.809-.84.39-.001.792.37.771.848z" class="B"/><path d="M42.644 37.584c.09-.01.165.024.228.095l.169.187c.125.149.049.422-.113.475-.071.024-.136.025-.198-.018-.133-.093-.247-.211-.348-.341-.107-.137-.053-.313.107-.373a.37.37 0 0 1 .157-.025z" class="D"/><path d="M21.358 45.684a.75.75 0 0 1-.39-.577c-.013-.089-.037-.177-.054-.266-.012-.062-.042-.083-.103-.078a7.5 7.5 0 0 1-1.17.013l-.158-.013c-.05-.006-.076.016-.086.067l-.058.278c-.045.289-.194.488-.447.6-.162.047-.324.03-.487-.002-.15-.03-.304-.044-.441-.127-.052-.041-.108-.076-.154-.127-.162-.182-.229-.394-.187-.642l.054-.279c.03-.159.03-.16-.11-.213-.318-.12-.628-.263-.928-.426l-.215-.122c-.053-.035-.088-.027-.122.026l-.163.242c-.223.352-.66.455-1.003.173l-.275-.214c-.319-.259-.377-.672-.145-1.022l.187-.273c.03-.042.03-.077-.009-.112-.019-.017-.035-.036-.053-.054a8.17 8.17 0 0 1-.822-.973c-.071-.098-.072-.098-.175-.034l-.211.13c-.37.225-.739.126-.968-.26l-.076-.127-.126-.248c-.156-.368-.047-.745.28-.953l.232-.144c.103-.065.104-.066.06-.179-.143-.363-.26-.737-.352-1.118l-.044-.189c-.012-.063-.047-.084-.105-.076l-.327.038a.65.65 0 0 1-.644-.358c-.061-.106-.084-.224-.094-.346l-.03-.27c-.024-.369.175-.831.611-.865l.279-.033c.107-.013.111-.014.114-.123.007-.32.031-.639.073-.956l.058-.384c.02-.122.021-.124-.094-.164l-.255-.088c-.366-.131-.554-.502-.452-.896l.134-.431c.128-.365.479-.549.831-.439l.313.108c.066.026.095.004.122-.057l.204-.428.069-.133c.073-.143.151-.284.244-.414.084-.078 14.203 8.754 14.163 8.856-.027.052-.049.102-.075.152-.05.094-.097.19-.15.282a.64.64 0 0 1-.91.265c-.09-.05-.176-.107-.265-.161s-.093-.056-.155.03c-.139.192-.285.377-.437.557a8.72 8.72 0 0 1-.427.463c-.068.069-.067.071-.016.149l.178.263a.74.74 0 0 1-.148 1.012 8.65 8.65 0 0 1-.305.237.64.64 0 0 1-.951-.161c-.061-.086-.119-.175-.18-.262-.055-.078-.057-.079-.138-.032-.332.193-.676.361-1.03.501l-.149.058c-.089.036-.091.038-.073.143.016.093.029.188.054.279.094.34-.103.75-.54.894-.189.062-.598.108-.779.031z" class="B"/><path d="M27.825 41.009l-3.121-2.021c-.1-.054-.068-.06-.007-.182a5.67 5.67 0 0 0 .431-1.549c.05-.391.048-.783.017-1.177a5.52 5.52 0 0 0-.196-1.093c-.129-.454-.316-.878-.547-1.284-.258-.453-.586-.839-.949-1.195-.279-.274-.594-.496-.927-.69a4.71 4.71 0 0 0-1.609-.583c-.354-.059-.712-.087-1.069-.062-.761.053-1.481.266-2.151.658-.529.317-1.002.729-1.398 1.217-.101.125-.245.373-.344.498-.057.072-1.004-.581-2.292-1.392.048-.089.093-.162.144-.239.032-.049.029-.085-.012-.124l-.235-.226a.73.73 0 0 1-.15-.883c.035-.073.099-.243.196-.367.047-.06.099-.115.15-.171.249-.274.732-.278.992-.026.314.305.273.234.537.018l.694-.529c.129-.089.137-.132.072-.28-.072-.166-.138-.332-.124-.522.017-.234.107-.434.286-.564.257-.185.529-.338.856-.328.27.008.46.151.597.385.049.084.087.176.126.266.037.084.096.112.179.089.351-.098.706-.171 1.063-.233.13-.022.156-.063.161-.2v-.143c-.028-.436.29-.802.665-.827.207-.014.414-.031.62.013.302.065.599.359.569.763-.004.056-.001.112 0 .169.003.166.032.207.186.23.334.05.665.122.991.215.172.05.199.032.271-.14.056-.134.113-.269.212-.377.201-.217.451-.252.712-.191a1.72 1.72 0 0 1 .578.271c.29.201.395.562.277.913a2.6 2.6 0 0 1-.085.215c-.061.139-.051.189.071.271a7.83 7.83 0 0 1 .735.556c.258.221.212.254.495-.019.249-.239.633-.268.86-.104s.43.375.563.636c.118.233.102.662-.133.877-.071.065-.133.14-.199.21a.15.15 0 0 0-.019.2 8.63 8.63 0 0 1 .563 1.032c.041.088.11.11.195.081a2.25 2.25 0 0 1 .307-.082c.278-.052.585.078.728.338.139.252.224.528.233.823.009.325-.143.55-.403.699a1.31 1.31 0 0 1-.272.115c-.099.03-.142.095-.122.203.07.387.093.779.117 1.172.006.104.053.161.152.164.073.002.146.017.218.027.373.052.629.361.63.763a2.21 2.21 0 0 1-.01.233c-.012.122-.053.297-.085.411-.094.333-.409.515-.735.493l-.316-.036c-.097-.01-.102-.009-.126.093l-.255.907-.152.41c-.024.06-.014.097.038.128l.305.191c.264.182.373.513.277.828-.008.02-.017.039-.028.057z" fill="#666059"/><path d="M17.062 34.181l.372-.464c.631-.69 1.393-1.094 2.293-1.202.796-.095 1.551.052 2.249.469 1.074.643 1.714 1.622 1.916 2.914.117.75.029 1.482-.252 2.185-.016.04-.027.081-.04.122.03.068.001.126-.026.184-.136.299-.315.567-.521.812-.595.706-1.323 1.173-2.206 1.335-1.173.215-2.231-.074-3.15-.88-.746-.654-1.195-1.501-1.34-2.517-.113-.79-.019-1.561.289-2.296.075-.178.165-.347.256-.516.037-.07.086-.123.159-.147z" class="C"/><path d="M17.741 36.51c-.02-1.457 1.151-2.567 2.394-2.573 1.219-.007 2.435 1.026 2.437 2.586.002 1.449-1.104 2.55-2.394 2.564-1.406.015-2.463-1.218-2.437-2.577z" class="E"/><path d="M22.529 34.134c.02.215-.233.383-.409.259-.119-.084-.232-.17-.327-.282-.136-.161-.105-.329.075-.434.134-.078.258-.084.382.028.087.078.171.158.233.26.032.05.047.108.045.168z" class="D"/><path d="M18.229 36.527c-.03-1.052.772-2.079 1.936-2.074 1.087.005 1.936.932 1.925 2.092-.011 1.143-.902 2.04-1.961 2.026-1.098-.014-1.929-.998-1.899-2.043z" class="C"/><path d="M20.151 37.352c-.433 0-.794-.383-.791-.845.003-.455.334-.835.796-.84.421-.004.789.366.787.848-.002.469-.349.838-.792.837z" class="B"/><path d="M21.067 35.118c.045 0 .09.005.128.032a.56.56 0 0 1 .252.5c-.003.111-.153.228-.256.204a.62.62 0 0 1-.411-.297c-.083-.142-.067-.261.058-.361a.37.37 0 0 1 .228-.078z" class="D"/><path d="M17.062 34.181c-.126.212-.248.426-.345.656a4.32 4.32 0 0 0-.315 1.221 4.24 4.24 0 0 0 .122 1.586c.14.515.377.994.695 1.41a3.74 3.74 0 0 0 1.823 1.309c.423.141.859.205 1.3.174 1.155-.081 2.096-.604 2.816-1.572.151-.204.282-.425.389-.658.016-.035.036-.067.054-.101.1.05.881.587 1.015.686.053.039.029.091.004.139-.137.261-.282.516-.457.751-.381.514-.826.951-1.353 1.294a5.02 5.02 0 0 1-1.659.7c-.454.102-.914.117-1.372.087-.61-.04-1.194-.204-1.75-.479-.381-.186-.738-.423-1.063-.705-.638-.559-1.133-1.235-1.453-2.051a5.84 5.84 0 0 1-.379-1.643c-.073-.843.052-1.654.331-2.443.102-.289.237-.56.381-.826a.9.9 0 0 1 .046-.076c.088-.133.104-.137.234-.058l.853.549c.029.015.056.032.083.05z" fill="#666059"/><path d="M23.848 37.367a4.24 4.24 0 0 0 .03-1.591 4.14 4.14 0 0 0-.556-1.477c-.463-.635-1.044-1.169-1.689-1.499a3.34 3.34 0 0 0-1.272-.303c-1.157-.044-2.148.364-2.956 1.25a5.03 5.03 0 0 0-.357.448l-1.093-.648c-.049-.045.332-.505.529-.719a5.17 5.17 0 0 1 1.469-1.142c.521-.286 1.116-.449 1.717-.517a4.87 4.87 0 0 1 1.383.039c.603.106 1.159.355 1.686.689a4.97 4.97 0 0 1 .99.816c.581.625 1.009 1.351 1.251 2.198.154.543.228 1.109.221 1.676a5.53 5.53 0 0 1-.498 2.25c-.058.124-.005.121-.172 0-.205-.156-.716-.482-.932-.629-.013-.011.163-.422.25-.838z" class="E"/><path d="M18.48 15.309l-.232-.913c-.02-.08.002-.102.083-.123 4.454-1.152 9.87-.272 12.652.625.441.168.87.364 1.267.631.172.116.336.244.464.416a1.16 1.16 0 0 1 .096.149c.067.127.082.256.019.395-.146.323-.306.64-.478.948l-.338.601a2.36 2.36 0 0 1-.179.278c-.057.057-.122.03-.184.015-.273-.065-.548-.116-.819-.187-.02-.005-.04.004-.06.005-.284-.098-.583-.109-.871-.182-.038-.01-.071.015-.107.008-.473-.098-.953-.147-1.429-.217-.168-.025-.34-.012-.503-.075-.062-.07-.073-.161-.094-.249-.12-.519-.276-1.022-.562-1.47-.044-.068-.091-.133-.14-.196-.149-.19-.326-.303-.567-.336-.629-.088-1.258-.164-1.89-.221-1.05-.095-2.102-.112-3.154-.096-.519.008-1.038.044-1.557.092-.429.039-.857.085-1.284.145-.053.005-.099.002-.133-.045z" class="C"/><path d="M33.25 24.368l-.888-.004c-.094.001-.115-.057-.136-.129-.08-.026-.078-.104-.09-.169l-.29-1.5-.893-3.64-.184-.619c-.018-.063-.052-.132.006-.195.021-.026.05-.026.078-.021l.982.224.556 1.933.595 2.674.264 1.446zm-14.77-9.059a14.04 14.04 0 0 1 1.174-.149l.851-.065a25.87 25.87 0 0 1 2.366-.043l1.718.091 1.141.115.954.139c.103.014.181.068.255.14.254.247.433.549.574.878a5.66 5.66 0 0 1 .359 1.223c-.018.059-.063.06-.109.057l-.608-.048-.535-.037-.852-.033c-.11.007-.218-.023-.328-.025-.148-.002-.195.032-.246.178a28.46 28.46 0 0 0-.773 2.636l-.816 4.176-.158 1.129c-.011.077-.018.155-.064.221-.036.038-.081.041-.125.029l-.611-.176a.1.1 0 0 1-.043-.023c-.012-.011-.022-.026-.028-.042-.033-.094-.012-.189.001-.282l.796-4.521.851-3.124c.052-.155.023-.2-.13-.201a28.9 28.9 0 0 0-1.814.046l-.911.056-.061.001c-.316.002-.324.01-.424.323-.581 1.821-.987 3.688-1.301 5.58l-.259 1.701c-.008.052-.013.103-.044.147-.029.05-.078.057-.126.065l-.757.114c-.056.011-.126.024-.137-.073l.127-.897.372-2.325.646-3.008.402-1.401c.054-.161.053-.161-.063-.273l-.841-.809c-.052-.048-.088-.113-.104-.184l-.294-1.178c-.017-.04-.025-.084-.023-.128z" class="E"/><path d="M18.479 15.307c.015.041.032.082.023.128-.024-.039-.055-.077-.023-.128z" fill="#a9a9a9"/><path d="M24.947 26.601c-.468-.267-.959-.478-1.461-.661-.046-.017-.094-.029-.128-.069l.156-1.142.456-2.626c.265-1.32.582-2.625.999-3.901l.205-.611c.035-.103.037-.103.14-.1l1.731.079.826.069 1.361.174.576.094c.11.047.178.136.244.239.252.391.453.813.62 1.247.175.455.335.919.443 1.399l.147.562.417 1.864.2.961c.021.085.055.18-.047.241-.011.013-.02.029-.034.037-.181.102-.304.268-.423.437l-.593.85c-.056.026-.102.004-.147-.03l-.721-.535c-.123-.089-.133-.134-.05-.266l.365-.552.134-.217c.069-.139.043-.278-.062-.361s-.236-.066-.337.054c-.127.152-.228.326-.337.494L28.59 25.92c-.033.05-.066.099-.088.156-.051.128-.015.261.087.332s.229.059.319-.05c.126-.153.226-.328.335-.494l.212-.317c.05-.073.106-.084.178-.034l.772.569c.043.032.085.07.084.135l-.241.418-.124.208c-.167.291-.172.591-.028.889l1.247 2.361.174.281c.16.266.4.373.682.382.272.009.543-.023.814-.049-.006 1.203-.33 2.303-.935 3.316-.085.142-.177.202-.342.197l-1.316-.001c-.089-.013-.086-.096-.098-.159l-.193-.763c-.277-.973-.68-1.901-1.196-2.756l-.527-.808a9.16 9.16 0 0 0-.518-.648c-.322-.371-.656-.729-1.021-1.052-.529-.465-1.095-.88-1.692-1.239-.083-.053-.182-.086-.225-.191z" fill="#b9e1e1"/><path d="M31.804 24.449c.034-.078.031-.186.013-.259-.154-.64-1.244-5.101-1.86-6.082-.075-.119-.092-.151-.151-.203.289.024.573.089.86.131.022.003.043.011.061.024s.034.03.045.051l.99 3.777.48 2.396.002.005c.028.055.035.039-.126.061-.1.014-.234.061-.314.098z" class="F"/><path d="M22.602 25.667l-.752-.154a8.18 8.18 0 0 0-.905-.112l-.859-.027-.488.004c-.067-.054-.055-.128-.045-.202l.507-3.157.515-2.189c.194-.689.42-1.365.77-1.985.053-.093.061-.17.005-.258.039-.017.08-.016.12-.018l2.766-.084c.04 0 .081-.01.12.011.015.046-.01.085-.024.123-.407 1.182-.714 2.396-.979 3.622l-.572 3.142-.18 1.282z" fill="#b9e1e1"/><path d="M21.433 17.571c.165-.02.149-.011.05.169-.267.485-.492.984-.664 1.511l-.271.928-.253 1.028-.212 1.052-.202 1.081-.248 1.69c-.016.115-.037.23-.033.348-.041.02-.323.051-.345 0 .019-.276.067-.549.107-.822l.335-2.017c.289-1.549.646-3.079 1.124-4.575l.093-.281c.016-.056.047-.076.097-.078l.422-.034z" class="F"/><path d="M36.67 36.62c-.284-.023-.601-.261-.827.353-.225.609.106.844.056.823-.025-.003-.049-.004-.074-.002-.186.002-.379-.03-.564-.031-.066-.032-.05-.089-.039-.145a6.88 6.88 0 0 1 .428-1.39c.252-.584.561-1.13.947-1.627a6.99 6.99 0 0 1 1.899-1.704 6.44 6.44 0 0 1 2.447-.872 5.83 5.83 0 0 1 1.264-.051.38.38 0 0 0 .372-.199c.035-.057.074-.101.134-.124.07-.001.133.031.2.046.147.035.162.029.226-.112.104-.228.212-.454.346-.664a.26.26 0 0 0 .08-.089 2.5 2.5 0 0 1 .657-.709c.007-.004.016-.005.024-.004.095 0 .119.077.142.152.1.329.213.653.352.967a5.7 5.7 0 0 0 .88 1.424c.055.063.123.12.091.223l-.571 1.066-.088.154c-.053.089-.113.174-.178.253-.017-.013-.035-.025-.054-.035-.011-.006-.032-.025-.042-.032-.199-.115-.171-.123-.072-.338.062-.136.095-.273.055-.426-.016-.063-.043-.122-.081-.173s-.086-.093-.14-.124c-.127-.074-.26-.143-.405-.175-.204-.045-.417.056-.516.252-.033.065-.055.135-.085.201-.043.097-.068.11-.162.081-.251-.076-.504-.138-.763-.169-.024-.003-.047-.013-.072-.015-.069-.009-.098-.052-.098-.123v-.208c.016-.262-.141-.439-.368-.487a1.13 1.13 0 0 0-.497.007c-.209.05-.332.185-.361.416-.012.085-.018.171-.02.258-.001.112-.008.122-.115.144l-.396.075a4.16 4.16 0 0 0-.403.103c-.086.027-.107.016-.143-.07l-.107-.233c-.113-.195-.317-.285-.525-.228a1.4 1.4 0 0 0-.422.198c-.189.13-.258.375-.178.607.024.069.059.133.087.2.035.085.032.105-.038.15a7.51 7.51 0 0 0-.702.537c-.066.056-.084.056-.147-.005-.055-.057-.114-.111-.175-.16-.175-.134-.413-.136-.577.011-.114.103-.223.215-.304.352a.5.5 0 0 0 .073.624c.068.068.075.073.186.154-.17.181-.502.669-.599.861" class="B"/><path d="M34.396 37.74l-2.05-.002h-3.259c-.25 0-.255-.008-.22-.27.024-.19.029-.38-.072-.554-.108-.187-.261-.307-.467-.34a2.36 2.36 0 0 0-.303-.033c-.122-.004-.144-.036-.149-.167-.015-.424-.047-.845-.124-1.262-.03-.165-.022-.179.133-.225.126-.037.249-.083.361-.155.279-.179.361-.484.294-.798-.03-.143-.077-.283-.122-.421-.117-.361-.427-.548-.779-.478-.121.024-.236.065-.352.104-.096.032-.107.029-.152-.069a8.12 8.12 0 0 0-.652-1.186c-.047-.07-.044-.092.027-.149.098-.079.177-.179.268-.265.218-.208.214-.646.084-.854-.123-.197-.279-.364-.448-.511a.63.63 0 0 0-.824.035c-.081.078-.174.143-.246.232-.043.053-.083.055-.134.009l-.368-.32c-.196-.161-.403-.307-.613-.448-.182-.123-.173-.095-.081-.299.039-.081.072-.164.102-.25.106-.333.01-.697-.327-.879-.145-.078-.291-.158-.448-.204-.22-.064-.434-.052-.628.101-.078.063-.141.145-.183.239l-.148.342c-.038.086-.046.091-.131.063-.327-.109-.661-.184-.998-.241l-.241-.038c-.116-.018-.125-.028-.127-.158v-.325c.003-.3-.146-.494-.388-.619a.53.53 0 0 0-.223-.063c-.183-.007-.365-.019-.548.013-.348.062-.563.32-.574.694l-.001.286c-.002.146-.007.15-.139.173-.406.068-.81.143-1.205.27-.094.03-.105.024-.148-.075l-.122-.283c-.163-.374-.539-.495-.886-.361-.13.05-.257.109-.38.176a.72.72 0 0 0-.378.527.75.75 0 0 0 .033.383c.038.11.088.214.135.319.04.089.036.11-.041.159-.324.209-.627.45-.922.702l-.11.102a.08.08 0 0 1-.147-.002l-.21-.198c-.25-.264-.717-.262-.959.018l-.213.249c-.089.097-.095.094-.186.005l-.272-.256c-.121-.144-.116-.145.006-.292 1.044-1.253 2.367-2.207 3.848-2.774a8.62 8.62 0 0 1 2.304-.544c.482-.043.966-.047 1.449-.015.654.042 1.302.156 1.933.341a8.42 8.42 0 0 1 1.506.601c.33.166.651.353.959.561.432.291.842.619 1.224.982a11.45 11.45 0 0 1 1.027 1.122c.043.057.084.117.121.178.298.358.537.76.761 1.172.449.824.785 1.712.998 2.637l.179.98c.048.286.245.384.487.245.303-.173.496-.586.452-.951-.01-.079-.061-.169.019-.243.063-.038.133-.035.202-.035l1.098.002c.151.003.252-.057.333-.19.303-.499.533-1.043.684-1.614.119-.446.204-.899.233-1.363.004-.048.003-.096-.002-.143-.006-.056.007-.103.056-.132l.261-.013c.304-.019.304-.019.305.306l.001.74c.002.226.058.295.266.351a4.73 4.73 0 0 0 1.511.149c.236-.013.468-.058.702-.078.049-.006.096-.019.141-.039.143-.058.184-.117.187-.282l.003-.921c.001-.067-.012-.141.044-.195.092-.075.18-.018.263.019.204.091.357.253.498.427.26.324.454.693.637 1.069.016.03.023.065.019.1-.006.084-.064.126-.122.166-.48.33-.911.721-1.307 1.158-.454.501-.831 1.061-1.151 1.666-.371.703-.623 1.452-.772 2.242-.013.066 0 .16-.1.171z" class="E"/><path d="M34.396 37.739l.093-.442a8.07 8.07 0 0 1 1.513-3.232 7.57 7.57 0 0 1 1.719-1.636c.037-.026.079-.047.102-.091.029-.052 2.246-1.569 4.725-1.082.148.114.165.333.085.532s-.224.255-.458.249l-.646-.005a6.71 6.71 0 0 0-1.075.145 6.44 6.44 0 0 0-2.648 1.269 7.08 7.08 0 0 0-2.106 2.795c-.195.458-.341.937-.437 1.428l-.11.715c-.022.195-.11.331-.287.395-.26.094-.537-.107-.543-.399-.003-.147.027-.292.047-.437l.026-.204z" class="G"/><path d="M32.281 36.727c-.443 0-.887.002-1.33-.001-.208-.001-.358-.109-.444-.307a.54.54 0 0 1 .065-.561c.099-.136.24-.188.397-.193l.318-.001 2.245.002c.142 0 .274.026.386.128a.56.56 0 0 1 .154.576.52.52 0 0 1-.176.258c-.083.064-.182.099-.285.1l-1.33.001v-.002z" fill="#fcbe4f"/><path d="M18.257 25.509c.028.023.059.024.092.017a8.81 8.81 0 0 1 .838-.122c.024-.003.012-.002.081-.009.986-.078 2.3-.02 3.333.27l.685.183c.023.001 1.14.436 1.573.684l.085.068c.018.213-.044.373-.161.518-.163.202-.377.347-.618.439l-.936-.407a9.06 9.06 0 0 0-1.739-.45 9.05 9.05 0 0 0-1.556-.1c-.614.011-1.225.089-1.825.233-1.859.444-3.545 1.486-4.829 2.984l-.124.143c-.085.1-.123.165-.186.244l-.309.401c-.238.314-.657.331-.918.002-.176-.223-.147-.559-.003-.77a8.17 8.17 0 0 1 .502-.652l.557-.635.86-.806c1.036-.846 2.171-1.491 3.422-1.899a9.26 9.26 0 0 1 1.006-.267c.06-.012.123-.017.168-.068zm10.181 4.184c.303.381.55.804.788 1.232a10.7 10.7 0 0 1 .71 1.577 10.56 10.56 0 0 1 .441 1.536l.041.176c.027.161.058.321.025.488-.068.341-.228.608-.533.757-.256.125-.478-.006-.519-.302-.11-.78-.29-1.541-.563-2.275-.324-.869-.748-1.676-1.288-2.415l-.071-.105c.058-.206.179-.373.296-.544.065-.096.166-.081.251-.109.136-.046.279-.083.422-.017z" class="C"/><path d="M28.366 29.676c-.668-.057-.878.644-.9.688-.289-.374-.593-.732-.925-1.064a9.38 9.38 0 0 0-2.268-1.682l-.108-.059c.031-.039.306-.096.535-.429.194-.281.24-.472.244-.528.219.087.41.229.608.356.343.216.673.455.987.716l.822.751.519.565c.198.222.397.445.554.705" class="D"/><path d="M45.7 32.884c-.072-.127-.181-.221-.269-.335-.472-.613-.811-1.302-1.049-2.05l-.08-.259c-.011-.036-.02-.078-.069-.077-.602-.548-1.328-.854-2.04-1.189-1.075-.505-2.197-.852-3.332-1.158-.891-.24-1.793-.418-2.697-.583-.082-.015-.17-.022-.227-.104-.015-.059-.015-.12-.015-.18l.001-2.148c0-.078-.023-.168.057-.225.178.047.363.047.543.073l1.028.143 1.324.227.91.188 1.058.256 1.734.53.68.251c.233.076.416.229.59.401l1.122 1.136.723.79.318.34.536.603a.88.88 0 0 1 .248.577c.016.316.006.629-.069.94-.139.572-.395 1.076-.742 1.532-.087.113-.177.225-.283.32z" class="C"/><path d="M30.487 26.213l-.841-.621c-.014-.009-.027-.019-.04-.03-.051-.052-.082-.028-.114.026l-.152.235-.366.551c-.093.134-.21.176-.34.133-.195-.065-.282-.288-.186-.481.03-.061.07-.116.108-.173l1.284-1.956c.027-.043.056-.084.089-.123.112-.128.281-.148.409-.052a.33.33 0 0 1 .124.194c.017.079.007.162-.03.232-.038.076-.087.146-.133.217l-.401.604c-.053.08-.054.082.022.138l.861.636-.294.47z" fill="#45423e"/><path d="M33.955 24.418c.039.03.037.074.037.117v2.276c.001.026-.003.052-.012.076-.05.065-.122.062-.19.063-.252.001-.503-.013-.754-.018l-2.108-.005c-.049 0-.098.003-.143.026-.027.013-.051.032-.047.067s.032.047.06.055a.21.21 0 0 0 .06.007l1.035-.016a7.73 7.73 0 0 1 .998.006l.863.037c.073.003.147-.003.212.044.032.174.084.346.049.527-.001.017-.005.033-.013.047-.054.068-.137.07-.207.1-.132.059-.198.154-.194.309l-.025 2.124.011.246c.018.177-.028.235-.196.253a1.66 1.66 0 0 1-.134.007 2.37 2.37 0 0 1-.234-.005c-.228.038-.46.041-.69.057-.427.03-.74-.154-.962-.546l-.902-1.644-.378-.754c-.214-.398-.217-.787.034-1.167.109-.166.189-.353.319-.503.072-.181.19-.332.295-.491l.771-1.101c.084-.108.201-.174.308-.251.142-.041.659-.052.791-.056h.447c.071.001.761.04.897.113zm8.762 7.293c-.046-.027-.075-.065-.072-.125.009-.182-.101-.271-.237-.338-.18-.07-1.554-.207-2.919.297-.48.165-.943.372-1.379.645-.08.05-.169.085-.244.145-.011.008-.031.003-.047.004-.107-.163-.178-.347-.274-.517-.149-.262-.308-.516-.509-.737-.159-.173-.338-.306-.566-.355-.062.005-.072-.043-.08-.091a1.05 1.05 0 0 1-.007-.168l.002-1.179-.028-1.113a.29.29 0 0 0-.183-.292 1.23 1.23 0 0 1-.142-.075c-.035-.022-.073-.044-.057-.1l.005-.281c.041-.06.095-.051.154-.042l2.014.401 2.379.68 1.843.755c.284.139.574.267.834.456a1.26 1.26 0 0 1 .251.264c.177.234.132.505.116.771-.005.083-.042.16-.049.244-.153.248-.284.51-.39.783-.022.057-.051.078-.112.056-.098-.036-.201-.06-.302-.089z" class="C"/><path d="M43.524 30.961c-.034-.07-.029-.145-.016-.216.027-.15.017-.302.017-.453s-.077-.263-.161-.368c-.106-.132-.236-.239-.381-.317-.682-.369-1.388-.675-2.111-.942l-1.584-.515-2.043-.494-1.188-.218c-.024-.005-.049-.005-.073-.008v-.285c.243.025.482.076.721.122l.933.19.975.231.745.197 1.795.579c.48.177.944.396 1.411.608.444.203.875.437 1.29.701.122.077.233.172.348.261.041.032.077.07.033.128l-.452.452-.259.345zm-9.57-4.075l.001.285c-.813-.071-2.329-.071-3.095-.025a1.53 1.53 0 0 1-.173-.019c-.043-.01-.109-.069-.108-.105.002-.067.038-.1.085-.125.059-.031.138-.037.204-.037l2.196.007.889.02z" class="D"/><path d="M46.507 30.342c.004.279-.049.537-.124.789-.133.447-.349.846-.624 1.21-.056.074-.059.074-.117.001-.268-.335-.482-.706-.665-1.099a7.92 7.92 0 0 1-.352-.911c-.031-.096-.028-.114.063-.163.317-.173.649-.296 1.004-.35.161-.025.324-.024.486-.045.016-.002.033-.002.049-.001.154.003.178.024.235.173.051.133.05.27.047.396z" fill="#fefefe"/><path d="M35.966 24.642l.028 3.145c-.045.061-.104.039-.157.023-.573-.178-1.149-.151-1.727-.039-.049.009-.096.022-.137-.02l-.003.004c-.027-.039 0-4.075-.003-4.333-.002-.111.016-.212.068-.309l.179-.367c.008-.009.019-.014.031-.015.667.303 1.217.654 1.719 1.2l.004.711z" class="B"/><path d="M34.245 22.682h-.01l-.01-.002c.048-.122.051-.25.05-.38v-1.166c-.001-.142.039-.257.122-.367a14.69 14.69 0 0 1 1.335-1.543 6.63 6.63 0 0 1 .981-.829c.067.017.038.064.023.1-.217.51-.187 1.044-.118 1.575.03.234.091.475.274.647.013.011.022.027.025.044s-.001.035-.01.05c-.413.204-.737.521-1.011.902-.041.056-.07.116-.06.19l.001 1.688-.003.024c-.061.044-.101-.006-.139-.04l-.497-.432a4.03 4.03 0 0 0-.602-.386c-.112-.056-.226-.094-.352-.073z" class="G"/><path d="M36.98 18.338c.082.044.124.117.145.211.053.239.088.482.105.727.029.419-.028.824-.127 1.226-.02.084-.044.166-.096.235-.052.009-.068-.031-.089-.069-.243-.443-.287-.927-.257-1.425l.019-.206c.014-.265.121-.514.3-.698zm-.749 9.5c.126.059.189.146.194.307l.02 2.436.005.329-.003 1.011c.002.119-.045.186-.141.229-.804.234-1.849.222-2.581-.026-.165-.053-.209-.119-.21-.3v-.713-.298l.024-1.687-.001-1.089c-.001-.114.038-.183.139-.23 1.163-.391 1.774-.277 2.554.032z" class="G"/><path d="M33.756 29.975v-1.751-.091c.002-.12.012-.136.121-.179.409-.167 1.605-.325 2.243.123.101.056.117.114.121.25.016.307-.012 2.585-.011 3.463v.052c-.003.125-.011.131-.13.157-.744.165-1.485.143-2.222-.052-.109-.029-.115-.032-.115-.157v-1.207-.61l-.007.001z" class="E"/><path d="M34.218 22.707c.014-.111.078-.123.201-.092.148.047.289.114.42.2.292.185.572.39.818.643.055.057.118.104.178.155a.19.19 0 0 0 .054.096c.078.074.088.16.072.268-.129-.019-.201-.101-.283-.197a3.91 3.91 0 0 0-.756-.662 3.81 3.81 0 0 0-.617-.327c-.065-.027-.096-.026-.088-.085zm2.763-4.369c.043.025.071.037-.041.142-.141.135-.235.475-.225 1.032.009.37.014.699.293 1.224-.023.039-.054.068-.1.073-.473-.495-.428-2.018-.194-2.415.097-.107.154-.119.267-.057z" class="F"/></g></g><defs><clipPath id="B"><path fill="#fff" d="M0 0h59.471v59.471H0z"/></clipPath></defs></svg>