<svg xmlns="http://www.w3.org/2000/svg" width="151.181" height="151.181" viewBox="0 0 40 40"><style><![CDATA[.G{fill:#0b3d5c}.H{fill:#005db4}.I{fill:#4a9fdc}]]></style><path d="M19.69 22.308c-.198 0-2.225-2.79-2.938-3.178s-1.811-.459-2.733-1.144l-1.25-.805-2.391-1.504-.117-.071L6 13.085l-1.836-1.176c-.553-.354-1.076-.752-1.564-1.19a6.63 6.63 0 0 0 1.193 3.863c.803 1.154 1.869 2.101 3.111 2.761 1.465.837 4.237 1.271 5.809 2.85l-5.092-1.388-1.66-.505c-.493-.149-.976-.332-1.444-.547.162.847.847 1.635 1.589 2.278.646.565 2.03 1.003 2.917 1.257 1.306.374 3.824.558 5.014 1.412l-3.69-.233-1.328-.127c-.391-.038-.78-.104-1.162-.198a2.97 2.97 0 0 0 1.412 1.515c.743.394 1.571.599 2.412.597 1.059.049 3.061-.643 4.513.353l-3.309 1.201-.964.318c-.28.093-.567.166-.858.219.292.386.741.623 1.225.646.586.081 1.186-.106 1.829-.226 1.306-.24 3.531-1.624 4.661-1.328a.11.11 0 0 0 0 .028c-.967.706-1.667 1.624-2.493 2.401l-.544.484a3.58 3.58 0 0 1-.533.392 2.95 2.95 0 0 0 1.515-.014 2.8 2.8 0 0 0 1.328-.706 3.69 3.69 0 0 0 .674-1.098c.131.851.461 1.659.964 2.359zm1.582 4.011v-.025a1.53 1.53 0 0 1 .671 0V25.27h-1.476v1.462h1.296l-.494-.41z" class="G"/><path d="M20.467 23.113h1.465v1.465h-1.465z" class="H"/><path d="M21.932 20.959h-.3a10.65 10.65 0 0 1-1.162 1.321v.141h1.462z" class="G"/><path d="M24.189 26.149v-1.462h-1.462v1.038c.454.1.897.242 1.324.424z" class="H"/><path d="M23.553 27.463v1.299h1.271z" class="G"/><path d="M22.727 20.959h1.465v1.465h-1.465z" class="H"/><path d="M24.951 26.149h1.462v-.6l-1.462-.53z" class="G"/><path d="M24.951 23.113v1.465h.727c.239-.068.486-.108.734-.12v-1.342zm0-4.371h1.465v1.465h-1.465z" class="H"/><path d="M24.951 20.959h1.465v1.465h-1.465zm2.585 2.306a2.7 2.7 0 0 1 .247-.152h-.572v1.342a8.83 8.83 0 0 1 1.465.088V23.19z" class="I"/><path d="M28.673 17.94v-1.465h-.194l-.918.6c-.113.082-.23.156-.353.222v.643z" class="G"/><path d="M27.211 18.745h1.465v1.465h-1.465z" class="I"/><path d="M27.246 27.032a1.68 1.68 0 0 0 .328 0 1.41 1.41 0 0 0 1.059-.558 5.51 5.51 0 0 1-.738-.187l-.378-.124h-.272z" class="G"/><path d="M29.436 16.474h1.465v1.465h-1.465zm1.465 4.001h-1.465v1.13c.459-.141.971-.247 1.465-.353z" class="H"/><path d="M31.674 20.358h1.465v-1.465h-.858l-.607.166z" class="I"/><path d="M33.849 14.85v1.462h.565c.312-.181.614-.379.904-.593v-.869z" class="G"/><path d="M35.085 18.893a2.7 2.7 0 0 0 .519-1.059 8.64 8.64 0 0 1-.985.388v.685z" class="I"/><path d="M37.31 11.842a4.48 4.48 0 0 0 .085-1.123 9.33 9.33 0 0 1-1.102.865v.258z" class="G"/></svg>
