<?xml version="1.0" encoding="UTF-8" standalone="no"?>
<!-- Created with Inkscape (http://www.inkscape.org/) -->

<svg
   width="120"
   height="120"
   viewBox="0 0 120 120"
   version="1.1"
   id="svg1"
   inkscape:version="1.3.1 (91b66b0, 2023-11-16)"
   sodipodi:docname="juicebox.svg"
   xmlns:inkscape="http://www.inkscape.org/namespaces/inkscape"
   xmlns:sodipodi="http://sodipodi.sourceforge.net/DTD/sodipodi-0.dtd"
   xmlns="http://www.w3.org/2000/svg"
   xmlns:svg="http://www.w3.org/2000/svg">
  <sodipodi:namedview
     id="namedview1"
     pagecolor="#ffffff"
     bordercolor="#000000"
     borderopacity="0.25"
     inkscape:showpageshadow="2"
     inkscape:pageopacity="0.0"
     inkscape:pagecheckerboard="0"
     inkscape:deskcolor="#d1d1d1"
     inkscape:document-units="px"
     inkscape:zoom="2.3794143"
     inkscape:cx="-19.962896"
     inkscape:cy="-49.592036"
     inkscape:window-width="1392"
     inkscape:window-height="1027"
     inkscape:window-x="0"
     inkscape:window-y="25"
     inkscape:window-maximized="0"
     inkscape:current-layer="layer1" />
  <defs
     id="defs1">
    <clipPath
       id="a">
      <path
         d="M 0,0 H 460 V 104 H 0 Z"
         id="path1" />
    </clipPath>
  </defs>
  <g
     inkscape:label="Layer 1"
     inkscape:groupmode="layer"
     id="layer1">
    <g
       clip-path="url(#a)"
       fill="#1a1a1a"
       id="g11"
       transform="matrix(1.185737,0,0,1.185737,19.945778,4.1073288)">
      <path
         d="m 74.2999,11.81 c -0.0801,-0.67 -0.4001,-1.25 -0.93,-1.72 -0.49,-0.44 -1.1201,-0.72 -1.6201,-0.95 l -0.44,-0.21 c -1.03,-0.49 -2.06,-0.97 -3.12,-1.45 l -0.61,-0.27 c -1.14,-0.5 -2.29,-1 -3.44,-1.49 0,0 -3.8599,-1.65 -4.67,-2 -1.13,-0.49 -2.27,-0.95 -3.41,-1.4 l -1.8,-0.73 C 52.3498,0.81 50.3798,0 48.2898,0 c -1.39,0 -2.62,0.36 -3.77,1.09 -1.33,0.83 -2.17,2.08 -2.49,3.71 -0.42,2 -1.5,6.36 -2.48,10.26 -0.22,0.86 -1.07,1.4 -1.94,1.24 -1.72,-0.32 -3.45,-0.62 -5.18,-0.91 -2.37,-0.39 -4.72,-1.04 -7.14,-1.22 -2.41,-0.16 -4.77,0.51 -7.1,1.08 -5.09,1.22 -10.07995,2.94 -14.81995,5.2 -1.24,0.61 -1.54,1.22 -1.56,2.54 -0.1,4.85 -0.850004,9.78 -1.140004,14.63 -0.32,5.28 -0.51,10.56 -0.6099998,15.87 -0.1800002,10.76 10e-8,21.66 1.6600038,32.33 0.06,0.36 0.2,0.77 0.18,1.14 0,0.28 0.06,0.57 0.22,0.83 0.26,0.47 1.03,1.89 15.20995,5.12 4.16,0.95 14.29,3.09 20.8,3.09 0.26,0 0.53,0 0.79,-0.02 15.27,-0.45 20.46,-6.66 20.68,-6.92 0.4,-0.51 0.65,-0.81 1.05,-11.25 0.2401,-5.89 0.45,-13.82 0.59,-21.78 0.16,-8.4 0.24,-16.12 0.2,-21.78 -0.02,-2.37 -0.02,-4.71 -0.12,-7.06 -0.04,-1.02 -0.1,-2.05 -0.24,-3.06 -0.22,-1.56 -1.56,-2.09 -2.86,-2.64 -0.53,-0.22 -1.11,-0.43 -1.66,-0.63 -1.2799,-0.47 -2.5999,-0.87 -3.93,-1.24 -0.2599,-0.08 -2.96,-0.83 -3.06,-0.83 l -0.73,-0.16 c -0.63,-0.14 -1.6,-0.93 -1.33,-2.29 l 1.79,-7.63 c 0.24,-0.15 0.59,-0.39 0.89,-0.69 l 2.29,0.99 c 0.46,0.19 15.6801,6.71 15.85,6.78 0.27,0.11 0.53,0.22 0.81,0.36 l 0.2,0.09 c 0.13,0.06 0.26,0.12 0.43,0.17 0.25,0.09 0.59,0.22 1,0.25 0.29,0 0.53,-0.06 0.76,-0.12 0.47,-0.15 0.91,-0.43 1.33,-0.85 0.4,-0.4 0.72,-0.85 0.97,-1.38 0.43,-0.9 0.58,-1.75 0.48,-2.52 z M 11.0898,83.62 c -0.12,0.22 -0.41,0.31 -0.64,0.2 -0.23,-0.11 -0.34,-0.39 -0.26,-0.64 l 8.54,-26.4 -13.70995,-1.32 c -0.19,-0.02 -0.35,-0.15 -0.42,-0.33 -0.05,-0.18 -0.02,-0.39 0.11,-0.53 L 21.5298,35.2 c 0.16,-0.18 0.44,-0.22 0.64,-0.07 0.21,0.13 0.28,0.4 0.2,0.64 l -5.13,12.04 c -0.08,0.19 0.06,0.4 0.26,0.4 h 13.76 c 0.18,0 0.34,0.09 0.42,0.26 0.09,0.17 0.09,0.37 0,0.51 l -20.57,34.65 z m 26.29,6.39 c -0.02,0.47 -0.44,0.83 -0.99,0.83 -3.57,0.11 -9.12,-0.11 -14.23,-1.3 -0.35,-0.08 -0.29,-0.59 0.07,-0.61 15.67,-0.9 11.11,-33.47 14.42,-51.85 3.2201,-17.99 1.01,45.06 0.72,52.93 z m 13,-65.36 c 1.42,-0.29 2.87,-0.45 4.32,-0.53 2.14,-0.12 2.26,-0.18 1.87,0.2 -0.29,0.29 -0.92,0.43 -1.29,0.58 -0.57,0.22 -1.1599,0.43 -1.74,0.63 -2.6,0.9 -5.23,1.71 -7.87,2.5 -1.94,0.58 -3.87,1.18 -5.83,1.65 -0.29,0.07 -0.59,0.13 -0.89,0.17 -1.4199,0.19 -2.82,-0.01 -4.21,-0.28 -1.9599,-0.38 -3.9,-0.8 -5.84,-1.27 -5.35,-1.3 -10.67,-2.72 -15.98,-4.19 -5.37995,-1.54 -6.27995,-2.46 0.41,-1.5 0.24,0.03 0.44,0.05 0.66,0.07 3.6,0.55 7.23,1.03 10.81,1.59 5.33,0.84 10.8,1.99 16.21,1.7 3.15,-0.17 6.28,-0.7 9.37,-1.32 z"
         id="path2" />
    </g>
  </g>
</svg>
