<svg xmlns="http://www.w3.org/2000/svg" viewBox="0 0 800 800"><circle cx="400" cy="400" r="400" fill="#141726"/><linearGradient id="A" gradientUnits="userSpaceOnUse" x1="574.926" y1="134.127" x2="248.526" y2="657.687"><stop offset=".16" stop-color="#c6f462"/><stop offset=".89" stop-color="#33d9ff"/></linearGradient><path d="M536 568.9c-66.8-108.5-166.4-170-289.4-195.6-43.5-9-87.2-8.9-129.4 7.7-28.9 11.4-33.3 23.4-19.7 53.7 92.4-21.9 178.4-1.5 258.9 45 81.1 46.9 141.6 112.2 169.1 205 38.6-11.8 43.6-18.3 34.3-54.2-5.5-21.1-12.4-43.1-23.8-61.6h0z" fill="url(#A)"/><linearGradient id="B" gradientUnits="userSpaceOnUse" x1="572.59" y1="132.67" x2="246.2" y2="656.23"><stop offset=".16" stop-color="#c6f462"/><stop offset=".89" stop-color="#33d9ff"/></linearGradient><path d="M609.1 480.6c-85.8-125-207.3-194.9-355.8-218.3-39.3-6.2-79.4-4.5-116.2 14.3-17.6 9-33.2 20.5-37.4 44.9 115.8-31.9 219.7-3.7 317.5 53 98.3 57 175.1 133.5 205 251.1 20.8-18.4 24.5-41 19.1-62-7.4-28.8-15.8-59.1-32.2-83h0z" fill="url(#B)"/><linearGradient id="C" gradientUnits="userSpaceOnUse" x1="577.015" y1="135.433" x2="250.625" y2="658.993"><stop offset=".16" stop-color="#c6f462"/><stop offset=".89" stop-color="#33d9ff"/></linearGradient><path d="M105 488.6c7.3 16.2 12.1 34.5 23 47.6 5.5 6.7 22.2 4.1 33.8 5.7 1.8.2 3.6.5 5.4.7 102.9 15.3 184.1 65.1 242.1 152 3.4 5.1 8.9 12.7 13.4 12.7 17.4-.1 34.9-2.8 52.5-4.5C449 557.5 232.8 438.3 105 488.6h0z" fill="url(#C)"/><linearGradient id="D" gradientUnits="userSpaceOnUse" x1="569.027" y1="130.448" x2="242.627" y2="654.008"><stop offset=".16" stop-color="#c6f462"/><stop offset=".89" stop-color="#33d9ff"/></linearGradient><path d="M656.6 366.7C599.9 287.4 521.7 234.6 432.9 197c-61.5-26.1-125.2-41.8-192.8-33.7-23.4 2.8-45.3 9.5-63.4 24.7 230.9 5.8 404.6 105.8 524 303.3.2-13.1 2.2-27.7-2.6-39.5-12-29.3-23.4-59.8-41.5-85.1z" fill="url(#D)"/><linearGradient id="E" gradientUnits="userSpaceOnUse" x1="571.697" y1="132.108" x2="245.297" y2="655.668"><stop offset=".16" stop-color="#c6f462"/><stop offset=".89" stop-color="#33d9ff"/></linearGradient><path d="M709.8 325.3c-47-178.9-238-265-379.2-221.4 152.1 30 276.9 102.5 379.2 221.4z" fill="url(#E)"/><linearGradient id="F" gradientUnits="userSpaceOnUse" x1="579.038" y1="136.689" x2="252.648" y2="660.249"><stop offset=".16" stop-color="#c6f462"/><stop offset=".89" stop-color="#33d9ff"/></linearGradient><path d="M155.4 583.9c54.6 69.3 124 109.7 213 122.8-34-63.5-153.8-132.2-213-122.8h0z" fill="url(#F)"/></svg>
