<?xml version="1.0" encoding="utf-8"?>
<!-- Generator: Adobe Illustrator 24.0.0, SVG Export Plug-In . SVG Version: 6.00 Build 0)  -->
<svg version="1.1" id="katman_1" xmlns="http://www.w3.org/2000/svg" xmlns:xlink="http://www.w3.org/1999/xlink" x="0px" y="0px"
	 viewBox="0 0 800 800" style="enable-background:new 0 0 800 800;" xml:space="preserve">
<style type="text/css">
	.st0{fill:#141726;}
	.st1{fill:url(#SVGID_1_);}
	.st2{fill:url(#SVGID_2_);}
	.st3{fill:url(#SVGID_3_);}
	.st4{fill:url(#SVGID_4_);}
	.st5{fill:url(#SVGID_5_);}
	.st6{fill:url(#SVGID_6_);}
</style>
<circle class="st0" cx="400" cy="400" r="400"/>
<linearGradient id="SVGID_1_" gradientUnits="userSpaceOnUse" x1="574.9257" y1="665.8727" x2="248.5257" y2="142.3127" gradientTransform="matrix(1 0 0 -1 0 800)">
	<stop  offset="0.16" style="stop-color:#C6F462"/>
	<stop  offset="0.89" style="stop-color:#33D9FF"/>
</linearGradient>
<path class="st1" d="M536,568.9c-66.8-108.5-166.4-170-289.4-195.6c-43.5-9-87.2-8.9-129.4,7.7c-28.9,11.4-33.3,23.4-19.7,53.7
	c92.4-21.9,178.4-1.5,258.9,45c81.1,46.9,141.6,112.2,169.1,205c38.6-11.8,43.6-18.3,34.3-54.2C554.3,609.4,547.4,587.4,536,568.9
	L536,568.9z"/>
<linearGradient id="SVGID_2_" gradientUnits="userSpaceOnUse" x1="572.5896" y1="667.3303" x2="246.1996" y2="143.7703" gradientTransform="matrix(1 0 0 -1 0 800)">
	<stop  offset="0.16" style="stop-color:#C6F462"/>
	<stop  offset="0.89" style="stop-color:#33D9FF"/>
</linearGradient>
<path class="st2" d="M609.1,480.6c-85.8-125-207.3-194.9-355.8-218.3c-39.3-6.2-79.4-4.5-116.2,14.3c-17.6,9-33.2,20.5-37.4,44.9
	c115.8-31.9,219.7-3.7,317.5,53c98.3,57,175.1,133.5,205,251.1c20.8-18.4,24.5-41,19.1-62C633.9,534.8,625.5,504.5,609.1,480.6
	L609.1,480.6z"/>
<linearGradient id="SVGID_3_" gradientUnits="userSpaceOnUse" x1="577.0148" y1="664.5671" x2="250.6247" y2="141.0071" gradientTransform="matrix(1 0 0 -1 0 800)">
	<stop  offset="0.16" style="stop-color:#C6F462"/>
	<stop  offset="0.89" style="stop-color:#33D9FF"/>
</linearGradient>
<path class="st3" d="M105,488.6c7.3,16.2,12.1,34.5,23,47.6c5.5,6.7,22.2,4.1,33.8,5.7c1.8,0.2,3.6,0.5,5.4,0.7
	c102.9,15.3,184.1,65.1,242.1,152c3.4,5.1,8.9,12.7,13.4,12.7c17.4-0.1,34.9-2.8,52.5-4.5C449,557.5,232.8,438.3,105,488.6
	L105,488.6z"/>
<linearGradient id="SVGID_4_" gradientUnits="userSpaceOnUse" x1="569.0272" y1="669.5518" x2="242.6272" y2="145.9917" gradientTransform="matrix(1 0 0 -1 0 800)">
	<stop  offset="0.16" style="stop-color:#C6F462"/>
	<stop  offset="0.89" style="stop-color:#33D9FF"/>
</linearGradient>
<path class="st4" d="M656.6,366.7C599.9,287.4,521.7,234.6,432.9,197c-61.5-26.1-125.2-41.8-192.8-33.7
	c-23.4,2.8-45.3,9.5-63.4,24.7c230.9,5.8,404.6,105.8,524,303.3c0.2-13.1,2.2-27.7-2.6-39.5C686.1,422.5,674.7,392,656.6,366.7z"/>
<linearGradient id="SVGID_5_" gradientUnits="userSpaceOnUse" x1="571.6973" y1="667.8917" x2="245.2973" y2="144.3317" gradientTransform="matrix(1 0 0 -1 0 800)">
	<stop  offset="0.16" style="stop-color:#C6F462"/>
	<stop  offset="0.89" style="stop-color:#33D9FF"/>
</linearGradient>
<path class="st5" d="M709.8,325.3c-47-178.9-238-265-379.2-221.4C482.7,133.9,607.5,206.4,709.8,325.3z"/>
<linearGradient id="SVGID_6_" gradientUnits="userSpaceOnUse" x1="579.0382" y1="663.3111" x2="252.6482" y2="139.7511" gradientTransform="matrix(1 0 0 -1 0 800)">
	<stop  offset="0.16" style="stop-color:#C6F462"/>
	<stop  offset="0.89" style="stop-color:#33D9FF"/>
</linearGradient>
<path class="st6" d="M155.4,583.9c54.6,69.3,124,109.7,213,122.8C334.4,643.2,214.6,574.5,155.4,583.9L155.4,583.9z"/>
</svg>
