<svg xmlns="http://www.w3.org/2000/svg" width="151.181" height="151.181" viewBox="0 0 40 40"><path d="M19.996 6.907c-9.2 0-16.658 7.461-16.658 16.665v7.142a2.38 2.38 0 0 0 2.378 2.378c1.314 0 2.386-1.064 2.386-2.378v-7.142c0-1.318 1.06-2.382 2.378-2.382a2.38 2.38 0 0 1 2.378 2.382v7.142a2.38 2.38 0 0 0 4.76 0v-7.142a2.38 2.38 0 0 1 2.378-2.382c1.318 0 2.386 1.064 2.386 2.382v7.142a2.38 2.38 0 0 0 2.378 2.378 2.38 2.38 0 0 0 2.378-2.378v-7.142a2.38 2.38 0 1 1 4.764 0v7.142a2.38 2.38 0 0 0 4.76 0v-7.142A16.67 16.67 0 0 0 19.996 6.907z" fill="#5841d8"/></svg>
