<svg xmlns="http://www.w3.org/2000/svg" width="151.181" height="151.181" viewBox="0 0 40 40"><path d="M14.647 20l9.567 9.567 5.994-5.994c1.037-.922 2.766-.922 3.804.115s1.037 2.651.115 3.804l-8.068 7.838c-1.037 1.037-2.766 1.037-3.804 0L10.728 23.804v6.916c0 1.498-1.268 2.766-2.766 2.766s-2.766-1.268-2.766-2.766V9.396c0-1.498 1.268-2.766 2.766-2.766s2.766 1.268 2.766 2.766v6.801L22.254 4.67c1.037-1.037 2.766-1.037 3.804 0l7.953 7.953c.922 1.037.922 2.766-.115 3.804s-2.651 1.037-3.804.115l-5.994-5.994zm9.567-2.651h0c-1.153 0-2.075.692-2.536 1.729s-.231 2.19.576 2.997 1.959 1.037 2.997.576 1.729-1.383 1.729-2.536a2.7 2.7 0 0 0-.807-1.959 2.7 2.7 0 0 0-1.959-.807z" fill-rule="evenodd" fill="#23af91"/></svg>
