<svg id="Layer_1" data-name="Layer 1" xmlns="http://www.w3.org/2000/svg" viewBox="0 0 47 67.05"><title>kyber-network-knc-logo</title><path d="M20,33.52L45,47.84a1.32,1.32,0,0,0,2-1.14V20.32a1.31,1.31,0,0,0-2-1.13Z" style="fill:#31cb9e"/><path d="M44.47,12.85L27.38,0.28A1.36,1.36,0,0,0,25.24,1L19,29,44.32,15a1.26,1.26,0,0,0,.15-2.15" style="fill:#31cb9e"/><path d="M27.36,66.75L44.47,54.18A1.28,1.28,0,0,0,44.33,52L19,38l6.24,28a1.35,1.35,0,0,0,2.12.77" style="fill:#31cb9e"/><path d="M13.5,33L20,2.6a1.29,1.29,0,0,0-2-1.31L1.35,14.06A3.45,3.45,0,0,0,0,16.81v32.4A3.45,3.45,0,0,0,1.35,52L17.92,64.73a1.29,1.29,0,0,0,2-1.31Z" style="fill:#31cb9e"/></svg>