<svg width="814" height="684" viewBox="0 0 814 684" fill="none" xmlns="http://www.w3.org/2000/svg">
<ellipse cx="396.903" cy="511.5" rx="250.629" ry="142.078" fill="url(#paint0_radial_2517_5772)"/>
<g filter="url(#filter0_f_2517_5772)">
<ellipse cx="406.797" cy="341.666" rx="150.597" ry="85.4666" fill="url(#paint1_radial_2517_5772)"/>
</g>
<path d="M634.11 348.252L645.423 341.713L645.895 508.898L634.582 515.437L620.256 523.713L608.943 530.252L608.735 457.184L578.071 548.097L568.381 553.698L567.562 552.238L566.757 554.636L557.068 560.237L525.994 505.006L526.202 578.075L514.882 584.613L500.563 592.89L489.25 599.429L488.778 432.244L500.091 425.705L513.404 418.012L524.717 411.473L567.375 484.896L609.477 362.476L620.791 355.937L634.103 348.245L634.11 348.252ZM573.073 494.701L619.09 360.899L611.629 365.214L569.318 488.238L573.073 494.701ZM564.592 551.919L565.64 548.812L525.925 478.232L525.973 495.945L559.22 555.025L564.592 551.919ZM500.563 588.936L500.112 429.68L492.248 434.224L492.7 593.48L500.563 588.936ZM620.249 519.752L619.979 423.87L612.163 447.038L612.386 524.297L620.249 519.752Z" fill="url(#paint2_radial_2517_5772)"/>
<path d="M634.11 348.252L645.423 341.713L645.895 508.898L634.582 515.437L620.256 523.713L608.943 530.252L608.735 457.184L578.071 548.097L568.381 553.698L567.562 552.238L566.757 554.636L557.068 560.237L525.994 505.006L526.202 578.075L514.882 584.613L500.563 592.89L489.25 599.429L488.778 432.244L500.091 425.705L513.404 418.012L524.717 411.473L567.375 484.896L609.477 362.476L620.791 355.937L634.103 348.245L634.11 348.252ZM573.073 494.701L619.09 360.899L611.629 365.214L569.318 488.238L573.073 494.701ZM564.592 551.919L565.64 548.812L525.925 478.232L525.973 495.945L559.22 555.025L564.592 551.919ZM500.563 588.936L500.112 429.68L492.248 434.224L492.7 593.48L500.563 588.936ZM620.249 519.752L619.979 423.87L612.163 447.038L612.386 524.297L620.249 519.752Z" fill="url(#paint3_radial_2517_5772)"/>
<path d="M440.618 570.973L488.566 598.693V432.372L440.618 404.277V570.973Z" fill="url(#paint4_linear_2517_5772)"/>
<path d="M560.86 334.227L530.143 422.257L567.228 484.066L609.558 362.321L560.86 334.227Z" fill="url(#paint5_linear_2517_5772)"/>
<path d="M476.203 382.926L439.493 403.903L488.565 431.998L524.901 411.395L476.203 382.926Z" fill="url(#paint6_linear_2517_5772)"/>
<path d="M597.198 313.25L560.487 334.227L609.559 362.322L645.895 341.719L597.198 313.25Z" fill="url(#paint7_linear_2517_5772)"/>
<path d="M392.671 569.586C395.593 577.213 397.047 585.574 397.024 594.669C396.994 604.349 395.211 611.781 391.667 616.965C388.124 622.149 383.366 625.378 377.403 626.66C371.432 627.941 364.689 627.574 357.167 625.566C349.638 623.558 341.883 620.254 333.897 615.646C331.814 614.44 329.761 613.174 327.754 611.87C325.746 610.859 323.723 609.773 321.685 608.596C310.065 601.884 299.591 593.478 290.279 583.379C287.297 580.142 284.48 576.801 281.843 573.339C271.991 572.777 260.723 568.829 248.017 561.495C244.863 559.674 241.806 557.734 238.824 555.703C237.041 555.089 235.236 554.108 233.393 553.044C217.704 543.986 204.189 532.261 192.846 517.854C181.503 503.447 172.783 487.422 166.692 469.771C160.593 452.135 157.574 433.967 157.626 415.267C157.679 396.582 160.796 381.95 166.969 371.386C173.15 360.83 181.923 354.904 193.311 353.623C204.698 352.342 218.236 356.23 233.924 365.28C235.767 366.344 237.581 367.461 239.356 368.592C242.338 370.307 245.395 371.911 248.549 373.731C264.304 382.827 277.842 394.574 289.155 408.973C289.987 409.026 290.833 409.108 291.695 409.228C300.386 410.397 309.975 414.016 320.456 420.069L321.123 420.451C322.891 421.5 324.63 422.594 326.338 423.71C328.443 424.766 330.586 425.913 332.773 427.171C344.161 433.914 353.811 441.623 362.292 450.614C370.78 459.612 377.882 469.658 383.591 480.776C388.708 490.733 392.544 501.334 395.084 512.587L383.531 508.609C383.591 508.901 383.651 509.201 383.719 509.5L351.668 497.266C350.522 490.756 348.394 484.597 345.285 478.783C342.176 472.97 338.452 467.778 334.144 463.2C331.335 460.218 328.443 457.596 325.454 455.334C323.476 454.562 321.535 453.985 319.662 453.648C315.557 452.906 312.208 453.333 309.623 454.937C307.038 456.54 305.742 459.469 305.727 463.717C305.72 467.643 306.761 471.434 308.859 475.112C310.964 478.791 313.609 482.305 316.8 485.654C319.992 489.002 323.258 492.142 326.592 495.063L353.803 519.3C357.864 522.896 362.359 527.144 367.296 532.036C372.226 536.928 376.961 542.502 381.486 548.758C386.011 555.007 389.735 561.944 392.664 569.563L392.671 569.586ZM329.859 580.981C332.586 582.127 335.276 582.974 337.905 583.483C342.483 584.367 346.251 583.955 349.203 582.232C352.155 580.509 353.638 577.145 353.653 572.141C353.653 570.305 353.421 568.395 352.957 566.409C352.485 564.424 351.72 562.371 350.634 560.243C349.548 558.108 348.004 555.801 346.019 553.313C344.026 550.826 341.501 548.159 338.46 545.304L297.756 508.017C294.707 505.253 291.17 501.791 287.147 497.626C283.124 493.468 279.221 488.583 275.46 482.986C271.691 477.382 268.567 471.044 266.072 463.964C263.585 456.884 262.356 449.048 262.379 440.447C262.401 431.846 263.81 424.834 266.597 419.814C261.352 414.413 255.306 409.73 248.474 405.789C238.524 400.043 230.223 397.803 223.563 399.047C216.903 400.305 211.891 404.598 208.527 411.933C205.155 419.267 203.455 429.194 203.425 441.713C203.395 454.232 205.028 466.077 208.347 477.27C211.658 488.456 216.633 498.517 223.263 507.455C229.894 516.378 238.18 523.713 248.129 529.459C252.947 532.239 257.367 534.194 261.405 535.34C258.798 527.646 257.022 519.794 256.071 511.785L287.027 524.394C287.17 525.151 287.32 525.908 287.484 526.657L299.239 531.444C301.389 543.042 305.87 553.621 312.68 563.15C317.864 570.402 323.596 576.351 329.874 580.996M194.779 515.299C201.761 524.17 209.733 532.044 218.581 538.846C214.678 534.921 210.977 530.74 207.485 526.305C196.135 511.905 187.422 495.88 181.323 478.237C175.225 460.593 172.206 442.425 172.258 423.733C172.311 405.033 175.42 390.408 181.601 379.852C187.782 369.296 196.555 363.362 207.95 362.089C211.456 361.692 215.165 361.789 219.075 362.374C210.227 358.957 202.241 357.624 195.221 358.41C184.508 359.616 176.117 365.28 170.295 375.237C164.407 385.299 161.402 399.496 161.35 417.432C161.297 434.723 164.497 453.805 170.026 469.801C175.772 486.44 184.103 501.754 194.779 515.314M273.355 419.17C272.051 420.376 270.927 421.837 269.976 423.545C267.413 428.13 266.11 434.506 266.087 442.59C266.065 450.674 267.174 457.641 269.384 463.919C271.624 470.28 274.441 476.011 277.76 480.949C281.229 486.103 284.847 490.643 288.518 494.442C292.407 498.465 295.853 501.844 298.775 504.496L302.603 508.002C301.554 506.946 300.475 505.844 299.344 504.676C295.321 500.518 291.425 495.633 287.657 490.036C283.896 484.432 280.764 478.087 278.269 471.014C275.782 463.934 274.553 456.098 274.576 447.505C274.613 435.405 277.288 426.879 282.615 421.927C287.597 417.297 294.13 415.357 302.214 416.106C299.03 415.102 295.958 414.398 293.028 414.008C284.787 412.922 278.209 414.667 273.362 419.185M291.785 580.329C295.508 584.36 299.464 588.136 303.622 591.635C303.247 591.238 302.865 590.833 302.491 590.428C293.171 580.322 285.536 569.151 279.565 556.88C273.961 545.357 270.298 533.467 268.582 521.195L260.394 517.861C261.397 524.042 262.941 530.156 265.009 536.142C266.499 540.465 268.268 544.72 270.298 548.893C274.531 557.599 279.738 565.802 285.821 573.384C287.724 575.759 289.71 578.074 291.792 580.329M361.407 589.275C364.359 587.552 365.843 584.188 365.85 579.176C365.85 577.34 365.625 575.43 365.161 573.444C364.689 571.459 363.917 569.406 362.838 567.271C361.752 565.143 360.209 562.828 358.223 560.341C356.231 557.853 353.713 555.186 350.664 552.339L343.996 546.226C345.442 547.747 346.746 549.238 347.892 550.669C350.289 553.658 352.125 556.43 353.503 559.135C354.882 561.854 355.901 564.551 356.515 567.143C357.092 569.601 357.384 571.998 357.377 574.261C357.362 580.412 355.496 584.615 351.848 586.742C349.57 588.061 346.851 588.705 343.749 588.675C345.899 589.485 348.027 590.099 350.125 590.503C354.702 591.387 358.471 590.975 361.422 589.252M346.364 470.258C343.547 467.268 340.647 464.646 337.658 462.376C341.614 466.924 345.105 472.003 348.072 477.54C350.866 482.762 352.979 488.268 354.365 493.962L362.097 496.914C360.936 493.101 359.407 489.407 357.497 485.848C354.388 480.035 350.672 474.843 346.356 470.265" fill="url(#paint8_radial_2517_5772)"/>
<path d="M392.671 569.586C395.593 577.213 397.047 585.574 397.024 594.669C396.994 604.349 395.211 611.781 391.667 616.965C388.124 622.149 383.366 625.378 377.403 626.66C371.432 627.941 364.689 627.574 357.167 625.566C349.638 623.558 341.883 620.254 333.897 615.646C331.814 614.44 329.761 613.174 327.754 611.87C325.746 610.859 323.723 609.773 321.685 608.596C310.065 601.884 299.591 593.478 290.279 583.379C287.297 580.142 284.48 576.801 281.843 573.339C271.991 572.777 260.723 568.829 248.017 561.495C244.863 559.674 241.806 557.734 238.824 555.703C237.041 555.089 235.236 554.108 233.393 553.044C217.704 543.986 204.189 532.261 192.846 517.854C181.503 503.447 172.783 487.422 166.692 469.771C160.593 452.135 157.574 433.967 157.626 415.267C157.679 396.582 160.796 381.95 166.969 371.386C173.15 360.83 181.923 354.904 193.311 353.623C204.698 352.342 218.236 356.23 233.924 365.28C235.767 366.344 237.581 367.461 239.356 368.592C242.338 370.307 245.395 371.911 248.549 373.731C264.304 382.827 277.842 394.574 289.155 408.973C289.987 409.026 290.833 409.108 291.695 409.228C300.386 410.397 309.975 414.016 320.456 420.069L321.123 420.451C322.891 421.5 324.63 422.594 326.338 423.71C328.443 424.766 330.586 425.913 332.773 427.171C344.161 433.914 353.811 441.623 362.292 450.614C370.78 459.612 377.882 469.658 383.591 480.776C388.708 490.733 392.544 501.334 395.084 512.587L383.531 508.609C383.591 508.901 383.651 509.201 383.719 509.5L351.668 497.266C350.522 490.756 348.394 484.597 345.285 478.783C342.176 472.97 338.452 467.778 334.144 463.2C331.335 460.218 328.443 457.596 325.454 455.334C323.476 454.562 321.535 453.985 319.662 453.648C315.557 452.906 312.208 453.333 309.623 454.937C307.038 456.54 305.742 459.469 305.727 463.717C305.72 467.643 306.761 471.434 308.859 475.112C310.964 478.791 313.609 482.305 316.8 485.654C319.992 489.002 323.258 492.142 326.592 495.063L353.803 519.3C357.864 522.896 362.359 527.144 367.296 532.036C372.226 536.928 376.961 542.502 381.486 548.758C386.011 555.007 389.735 561.944 392.664 569.563L392.671 569.586ZM329.859 580.981C332.586 582.127 335.276 582.974 337.905 583.483C342.483 584.367 346.251 583.955 349.203 582.232C352.155 580.509 353.638 577.145 353.653 572.141C353.653 570.305 353.421 568.395 352.957 566.409C352.485 564.424 351.72 562.371 350.634 560.243C349.548 558.108 348.004 555.801 346.019 553.313C344.026 550.826 341.501 548.159 338.46 545.304L297.756 508.017C294.707 505.253 291.17 501.791 287.147 497.626C283.124 493.468 279.221 488.583 275.46 482.986C271.691 477.382 268.567 471.044 266.072 463.964C263.585 456.884 262.356 449.048 262.379 440.447C262.401 431.846 263.81 424.834 266.597 419.814C261.352 414.413 255.306 409.73 248.474 405.789C238.524 400.043 230.223 397.803 223.563 399.047C216.903 400.305 211.891 404.598 208.527 411.933C205.155 419.267 203.455 429.194 203.425 441.713C203.395 454.232 205.028 466.077 208.347 477.27C211.658 488.456 216.633 498.517 223.263 507.455C229.894 516.378 238.18 523.713 248.129 529.459C252.947 532.239 257.367 534.194 261.405 535.34C258.798 527.646 257.022 519.794 256.071 511.785L287.027 524.394C287.17 525.151 287.32 525.908 287.484 526.657L299.239 531.444C301.389 543.042 305.87 553.621 312.68 563.15C317.864 570.402 323.596 576.351 329.874 580.996M194.779 515.299C201.761 524.17 209.733 532.044 218.581 538.846C214.678 534.921 210.977 530.74 207.485 526.305C196.135 511.905 187.422 495.88 181.323 478.237C175.225 460.593 172.206 442.425 172.258 423.733C172.311 405.033 175.42 390.408 181.601 379.852C187.782 369.296 196.555 363.362 207.95 362.089C211.456 361.692 215.165 361.789 219.075 362.374C210.227 358.957 202.241 357.624 195.221 358.41C184.508 359.616 176.117 365.28 170.295 375.237C164.407 385.299 161.402 399.496 161.35 417.432C161.297 434.723 164.497 453.805 170.026 469.801C175.772 486.44 184.103 501.754 194.779 515.314M273.355 419.17C272.051 420.376 270.927 421.837 269.976 423.545C267.413 428.13 266.11 434.506 266.087 442.59C266.065 450.674 267.174 457.641 269.384 463.919C271.624 470.28 274.441 476.011 277.76 480.949C281.229 486.103 284.847 490.643 288.518 494.442C292.407 498.465 295.853 501.844 298.775 504.496L302.603 508.002C301.554 506.946 300.475 505.844 299.344 504.676C295.321 500.518 291.425 495.633 287.657 490.036C283.896 484.432 280.764 478.087 278.269 471.014C275.782 463.934 274.553 456.098 274.576 447.505C274.613 435.405 277.288 426.879 282.615 421.927C287.597 417.297 294.13 415.357 302.214 416.106C299.03 415.102 295.958 414.398 293.028 414.008C284.787 412.922 278.209 414.667 273.362 419.185M291.785 580.329C295.508 584.36 299.464 588.136 303.622 591.635C303.247 591.238 302.865 590.833 302.491 590.428C293.171 580.322 285.536 569.151 279.565 556.88C273.961 545.357 270.298 533.467 268.582 521.195L260.394 517.861C261.397 524.042 262.941 530.156 265.009 536.142C266.499 540.465 268.268 544.72 270.298 548.893C274.531 557.599 279.738 565.802 285.821 573.384C287.724 575.759 289.71 578.074 291.792 580.329M361.407 589.275C364.359 587.552 365.843 584.188 365.85 579.176C365.85 577.34 365.625 575.43 365.161 573.444C364.689 571.459 363.917 569.406 362.838 567.271C361.752 565.143 360.209 562.828 358.223 560.341C356.231 557.853 353.713 555.186 350.664 552.339L343.996 546.226C345.442 547.747 346.746 549.238 347.892 550.669C350.289 553.658 352.125 556.43 353.503 559.135C354.882 561.854 355.901 564.551 356.515 567.143C357.092 569.601 357.384 571.998 357.377 574.261C357.362 580.412 355.496 584.615 351.848 586.742C349.57 588.061 346.851 588.705 343.749 588.675C345.899 589.485 348.027 590.099 350.125 590.503C354.702 591.387 358.471 590.975 361.422 589.252M346.364 470.258C343.547 467.268 340.647 464.646 337.658 462.376C341.614 466.924 345.105 472.003 348.072 477.54C350.866 482.762 352.979 488.268 354.365 493.962L362.097 496.914C360.936 493.101 359.407 489.407 357.497 485.848C354.388 480.035 350.672 474.843 346.356 470.265" fill="url(#paint9_radial_2517_5772)"/>
<path d="M238.538 324.203L177.104 359.415C185.595 356.294 200.329 348.939 235.167 366.158C261.239 379.044 281.742 400.246 288.734 409.236L341.178 378.519L341.139 378.477C335.237 372.073 318.835 354.275 296.226 339.562C272.626 324.203 259.515 318.456 238.538 324.203Z" fill="url(#paint10_linear_2517_5772)"/>
<path d="M340.804 378.144L281.243 412.982C289.734 409.86 316.83 417.303 338.931 431.465C363.418 447.156 394.371 492.397 394.371 511.501L442.694 484.402C442.694 476.91 441.571 434.709 394.371 401.369C372.29 385.772 350.918 376.646 340.804 378.144Z" fill="url(#paint11_linear_2517_5772)"/>
<path d="M438.949 592.416L385.756 623.508C390.126 618.888 401.864 609.647 395.121 577.432C388.381 545.231 342.678 508.881 320.202 490.151C302.221 475.167 303.969 461.931 307.091 457.186L353.915 430.59C355.039 433.836 359.684 443.701 369.274 457.186C381.261 474.043 435.952 505.884 446.441 543.344C454.832 573.312 444.943 588.545 438.949 592.416Z" fill="url(#paint12_linear_2517_5772)"/>
<path d="M228.427 398.619C238.317 398.619 253.026 408.109 259.144 412.854C257.271 416.6 255.473 430.235 263.265 454.809C271.056 479.382 295.48 502.008 306.718 510.249L261.766 535.347C245.659 531.601 224.681 513.246 214.567 493.392C204.453 473.539 201.831 458.555 203.704 431.584C205.577 404.613 216.066 398.619 228.427 398.619Z" fill="url(#paint13_linear_2517_5772)"/>
<g clip-path="url(#clip0_2517_5772)">
<path d="M413.388 373.664C474.754 373.664 524.5 324.21 524.5 263.204C524.5 239.793 517.174 218.084 504.678 200.217L413.324 255.584L320.611 202.399C309.022 219.839 302.276 240.738 302.276 263.204C302.276 324.21 352.023 373.664 413.388 373.664Z" fill="url(#paint14_radial_2517_5772)"/>
<path d="M412.995 255.584L504.677 200.248C413.141 371.275 413.87 373.606 413.87 373.606C413.87 336.357 412.995 294.702 412.995 255.584Z" fill="url(#paint15_radial_2517_5772)"/>
<path opacity="0.3" d="M412.998 255.583L320.387 202.377L413.733 373.52C413.733 336.272 412.998 294.7 412.998 255.583Z" fill="url(#paint16_radial_2517_5772)"/>
<path opacity="0.2" d="M413.375 138.352V228.002L334.527 183.206L413.375 138.352Z" fill="#00A3FF"/>
<path opacity="0.8" d="M413.399 138.352L492.304 183.205L413.399 228.002V138.352Z" fill="url(#paint17_radial_2517_5772)"/>
<path d="M413.399 62.957L492.304 183.235L413.399 138.255V62.957Z" fill="url(#paint18_radial_2517_5772)"/>
<path opacity="0.5" d="M413.375 138.242L334.467 183.222L413.375 62.8848V138.242Z" fill="url(#paint19_radial_2517_5772)"/>
<g opacity="0.6" filter="url(#filter2_f_2517_5772)">
<path d="M380.81 373.664C442.175 373.664 491.922 324.21 491.922 263.204C491.922 239.793 484.596 218.084 472.099 200.217L380.745 255.584L288.032 202.399C276.444 219.839 269.698 240.738 269.698 263.204C269.698 324.21 319.444 373.664 380.81 373.664Z" fill="url(#paint20_radial_2517_5772)"/>
<path d="M380.417 255.584L472.099 200.248C380.563 371.275 381.292 373.606 381.292 373.606C381.292 336.357 380.417 294.702 380.417 255.584Z" fill="url(#paint21_radial_2517_5772)"/>
<path opacity="0.3" d="M380.418 255.585L287.808 202.379L381.153 373.522C381.153 336.274 380.418 294.702 380.418 255.585Z" fill="url(#paint22_radial_2517_5772)"/>
<path opacity="0.2" d="M380.794 138.352V228.002L301.946 183.206L380.794 138.352Z" fill="#00A3FF"/>
<path opacity="0.8" d="M380.82 138.352L459.725 183.205L380.82 228.002V138.352Z" fill="url(#paint23_radial_2517_5772)"/>
<path d="M380.82 62.957L459.725 183.235L380.82 138.255V62.957Z" fill="url(#paint24_radial_2517_5772)"/>
<path opacity="0.5" d="M380.794 138.242L301.886 183.222L380.794 62.8848V138.242Z" fill="url(#paint25_radial_2517_5772)"/>
</g>
</g>
<path d="M656.941 139.924C672.9 149.048 672.987 163.838 657.13 172.956L442.167 296.624C426.31 305.748 400.514 305.748 384.555 296.624L168.192 172.961C152.234 163.838 152.147 149.048 168.004 139.929L382.967 16.261C398.823 7.13697 424.62 7.13697 440.578 16.261L656.947 139.924H656.941Z" fill="url(#paint26_radial_2517_5772)"/>
<path d="M656.942 180.291C672.9 189.432 672.987 204.249 657.13 213.385L442.167 337.284C426.31 346.425 400.514 346.425 384.555 337.284L168.192 213.39C152.234 204.249 152.147 189.432 168.004 180.296L382.967 56.3968C398.823 47.2558 424.62 47.2558 440.578 56.3968L656.947 180.291H656.942Z" fill="url(#paint27_radial_2517_5772)"/>
<defs>
<filter id="filter0_f_2517_5772" x="-6.10352e-05" y="-0.000793457" width="813.594" height="683.334" filterUnits="userSpaceOnUse" color-interpolation-filters="sRGB">
<feFlood flood-opacity="0" result="BackgroundImageFix"/>
<feBlend mode="normal" in="SourceGraphic" in2="BackgroundImageFix" result="shape"/>
<feGaussianBlur stdDeviation="128.1" result="effect1_foregroundBlur_2517_5772"/>
</filter>
<filter id="filter2_f_2517_5772" x="83.0375" y="-123.775" width="595.544" height="684.099" filterUnits="userSpaceOnUse" color-interpolation-filters="sRGB">
<feFlood flood-opacity="0" result="BackgroundImageFix"/>
<feBlend mode="normal" in="SourceGraphic" in2="BackgroundImageFix" result="shape"/>
<feGaussianBlur stdDeviation="93.33" result="effect1_foregroundBlur_2517_5772"/>
</filter>
<radialGradient id="paint0_radial_2517_5772" cx="0" cy="0" r="1" gradientTransform="matrix(0 -398.025 -333.693 3.92938 389.272 781.679)" gradientUnits="userSpaceOnUse">
<stop offset="0.00493164" stop-color="#C8DFFF"/>
<stop offset="1" stop-color="#C4D9FD" stop-opacity="0"/>
</radialGradient>
<radialGradient id="paint1_radial_2517_5772" cx="0" cy="0" r="1" gradientUnits="userSpaceOnUse" gradientTransform="translate(418.889 341.941) scale(112.123 68.1584)">
<stop offset="0.0404544" stop-color="#00A3FF"/>
<stop offset="0.929325" stop-color="#00A3FF" stop-opacity="0"/>
</radialGradient>
<radialGradient id="paint2_radial_2517_5772" cx="0" cy="0" r="1" gradientTransform="matrix(146.495 317.278 -162.647 85.339 461.593 458.594)" gradientUnits="userSpaceOnUse">
<stop stop-color="#00A3FF" stop-opacity="0.87"/>
<stop offset="0.723967" stop-color="#6BAFFF" stop-opacity="0"/>
</radialGradient>
<radialGradient id="paint3_radial_2517_5772" cx="0" cy="0" r="1" gradientTransform="matrix(-489.12 -318.257 117.713 -119.376 942.846 612.403)" gradientUnits="userSpaceOnUse">
<stop stop-color="#2238FF"/>
<stop offset="1" stop-color="#0047FF" stop-opacity="0"/>
</radialGradient>
<linearGradient id="paint4_linear_2517_5772" x1="418.065" y1="372.445" x2="540.233" y2="469.173" gradientUnits="userSpaceOnUse">
<stop stop-color="#00A3FF"/>
<stop offset="1" stop-color="#00A3FF" stop-opacity="0"/>
</linearGradient>
<linearGradient id="paint5_linear_2517_5772" x1="536.72" y1="433.709" x2="609.649" y2="445.98" gradientUnits="userSpaceOnUse">
<stop stop-color="#357CE6" stop-opacity="0.42"/>
<stop offset="1" stop-color="#00A3FF" stop-opacity="0"/>
<stop offset="1" stop-color="#00A3FF" stop-opacity="0"/>
</linearGradient>
<linearGradient id="paint6_linear_2517_5772" x1="568.398" y1="332.549" x2="390.231" y2="351.711" gradientUnits="userSpaceOnUse">
<stop stop-color="#5F82FF"/>
<stop offset="0.780546" stop-color="#00A3FF" stop-opacity="0"/>
</linearGradient>
<linearGradient id="paint7_linear_2517_5772" x1="689.392" y1="262.873" x2="511.225" y2="282.036" gradientUnits="userSpaceOnUse">
<stop stop-color="#5F82FF"/>
<stop offset="0.780546" stop-color="#00A3FF" stop-opacity="0"/>
</linearGradient>
<radialGradient id="paint8_radial_2517_5772" cx="0" cy="0" r="1" gradientTransform="matrix(211.365 -445.605 250.915 201.438 230.978 754.226)" gradientUnits="userSpaceOnUse">
<stop stop-color="#00A3FF" stop-opacity="0.87"/>
<stop offset="0.723967" stop-color="#6BAFFF" stop-opacity="0"/>
</radialGradient>
<radialGradient id="paint9_radial_2517_5772" cx="0" cy="0" r="1" gradientTransform="matrix(613.965 -475.8 27.1505 206.745 -102.082 720.371)" gradientUnits="userSpaceOnUse">
<stop stop-color="#2238FF"/>
<stop offset="1" stop-color="#0047FF" stop-opacity="0"/>
</radialGradient>
<linearGradient id="paint10_linear_2517_5772" x1="146.796" y1="322.346" x2="322.977" y2="417.586" gradientUnits="userSpaceOnUse">
<stop stop-color="#2238FF"/>
<stop offset="1" stop-color="#77C7FF" stop-opacity="0.1"/>
</linearGradient>
<linearGradient id="paint11_linear_2517_5772" x1="297.143" y1="432.797" x2="393.636" y2="511.184" gradientUnits="userSpaceOnUse">
<stop stop-color="#5F82FF"/>
<stop offset="0.780546" stop-color="#00A3FF" stop-opacity="0.3"/>
</linearGradient>
<linearGradient id="paint12_linear_2517_5772" x1="409.356" y1="672.205" x2="346.423" y2="474.418" gradientUnits="userSpaceOnUse">
<stop stop-color="#00A3FF"/>
<stop offset="0.424638" stop-color="#00A3FF" stop-opacity="0.575362"/>
<stop offset="1" stop-color="#00A3FF" stop-opacity="0"/>
</linearGradient>
<linearGradient id="paint13_linear_2517_5772" x1="151.375" y1="273.85" x2="370.698" y2="378.75" gradientUnits="userSpaceOnUse">
<stop stop-color="#2238FF"/>
<stop offset="1" stop-color="#77C7FF" stop-opacity="0.1"/>
</linearGradient>
<radialGradient id="paint14_radial_2517_5772" cx="0" cy="0" r="1" gradientTransform="matrix(360.33 -26.4647 35.719 480.057 254.821 302.917)" gradientUnits="userSpaceOnUse">
<stop offset="0.104397" stop-color="#E3F5FF" stop-opacity="0"/>
<stop offset="0.668358" stop-color="#00A3FF" stop-opacity="0.45726"/>
<stop offset="0.927101" stop-color="#00A3FF"/>
</radialGradient>
<radialGradient id="paint15_radial_2517_5772" cx="0" cy="0" r="1" gradientTransform="matrix(45.7174 114.783 144.674 -56.9489 413.119 258.823)" gradientUnits="userSpaceOnUse">
<stop stop-color="#00A3FF"/>
<stop offset="1" stop-color="#00A3FF" stop-opacity="0"/>
</radialGradient>
<radialGradient id="paint16_radial_2517_5772" cx="0" cy="0" r="1" gradientTransform="matrix(-175.426 110.98 -59.3979 -92.7921 418.593 262.654)" gradientUnits="userSpaceOnUse">
<stop stop-color="#00A3FF"/>
<stop offset="1" stop-color="#00A3FF" stop-opacity="0"/>
</radialGradient>
<radialGradient id="paint17_radial_2517_5772" cx="0" cy="0" r="1" gradientTransform="matrix(125.987 -65.0023 -57.2116 -109.59 407.068 219.848)" gradientUnits="userSpaceOnUse">
<stop stop-color="#00A3FF"/>
<stop offset="1" stop-color="#00A3FF" stop-opacity="0"/>
</radialGradient>
<radialGradient id="paint18_radial_2517_5772" cx="0" cy="0" r="1" gradientTransform="matrix(-119.144 114.193 74.9133 77.247 452.852 123.096)" gradientUnits="userSpaceOnUse">
<stop stop-color="#00A3FF"/>
<stop offset="1" stop-color="#00A3FF" stop-opacity="0"/>
</radialGradient>
<radialGradient id="paint19_radial_2517_5772" cx="0" cy="0" r="1" gradientTransform="matrix(-71.765 -72.9294 -92.8645 90.3128 413.447 145.334)" gradientUnits="userSpaceOnUse">
<stop stop-color="#00A3FF"/>
<stop offset="0.490775" stop-color="#00A3FF" stop-opacity="0.509225"/>
<stop offset="1" stop-color="#00A3FF" stop-opacity="0"/>
</radialGradient>
<radialGradient id="paint20_radial_2517_5772" cx="0" cy="0" r="1" gradientTransform="matrix(304.113 -24.6967 33.2919 405.157 278.461 301.149)" gradientUnits="userSpaceOnUse">
<stop offset="0.104397" stop-color="#00A3FF" stop-opacity="0"/>
<stop offset="0.668358" stop-color="#00A3FF" stop-opacity="0.45726"/>
<stop offset="0.927101" stop-color="#00A3FF"/>
</radialGradient>
<radialGradient id="paint21_radial_2517_5772" cx="0" cy="0" r="1" gradientTransform="matrix(45.7174 114.783 144.674 -56.9489 380.541 258.823)" gradientUnits="userSpaceOnUse">
<stop stop-color="#00A3FF"/>
<stop offset="1" stop-color="#00A3FF" stop-opacity="0"/>
</radialGradient>
<radialGradient id="paint22_radial_2517_5772" cx="0" cy="0" r="1" gradientTransform="matrix(-175.426 110.98 -59.3979 -92.7921 386.014 262.656)" gradientUnits="userSpaceOnUse">
<stop stop-color="#00A3FF"/>
<stop offset="1" stop-color="#00A3FF" stop-opacity="0"/>
</radialGradient>
<radialGradient id="paint23_radial_2517_5772" cx="0" cy="0" r="1" gradientTransform="matrix(125.987 -65.0023 -57.2116 -109.59 374.489 219.848)" gradientUnits="userSpaceOnUse">
<stop stop-color="#00A3FF"/>
<stop offset="1" stop-color="#00A3FF" stop-opacity="0"/>
</radialGradient>
<radialGradient id="paint24_radial_2517_5772" cx="0" cy="0" r="1" gradientTransform="matrix(-119.144 114.193 74.9134 77.247 420.273 123.096)" gradientUnits="userSpaceOnUse">
<stop stop-color="#00A3FF"/>
<stop offset="1" stop-color="#00A3FF" stop-opacity="0"/>
</radialGradient>
<radialGradient id="paint25_radial_2517_5772" cx="0" cy="0" r="1" gradientTransform="matrix(-71.765 -72.9294 -92.8645 90.3128 380.866 145.334)" gradientUnits="userSpaceOnUse">
<stop stop-color="#00A3FF"/>
<stop offset="0.490775" stop-color="#00A3FF" stop-opacity="0.509225"/>
<stop offset="1" stop-color="#00A3FF" stop-opacity="0"/>
</radialGradient>
<radialGradient id="paint26_radial_2517_5772" cx="0" cy="0" r="1" gradientUnits="userSpaceOnUse" gradientTransform="translate(404.366 206.453) rotate(-90) scale(306.347 441.409)">
<stop offset="0.347213" stop-color="#6822FF" stop-opacity="0"/>
<stop offset="1" stop-color="#6822FF"/>
</radialGradient>
<radialGradient id="paint27_radial_2517_5772" cx="0" cy="0" r="1" gradientUnits="userSpaceOnUse" gradientTransform="translate(404.366 246.944) rotate(-90) scale(306.919 441.409)">
<stop offset="0.347213" stop-color="#6822FF" stop-opacity="0"/>
<stop offset="1" stop-color="#6822FF"/>
</radialGradient>
<clipPath id="clip0_2517_5772">
<rect x="204.532" y="9.41797" width="417.715" height="417.715" rx="36.6" fill="white"/>
</clipPath>
</defs>
</svg>
