<svg xmlns="http://www.w3.org/2000/svg" viewBox="0 0 93.98 73.22"><path d="M36.46 30.4l10.53 22.96 15.64-8.89h.03V26.68l-26.2 3.72z" fill="#2bbdf7"/><path d="M82.86 13.34L73.1 9.73l-10.44-.84v17.79h0v37.64h0l15.66 8.9 12.49-25.06-7.92-24.11-.03-10.71z" fill="#2891f9"/><path d="M81.95 8.89l-3.63 8.9h0v55.29l15.66-8.9V8.89H81.95z" fill="#2bbdf7"/><path d="M78.32 0L62.66 8.89l15.66 8.9 15.66-8.9L78.32 0z" fill="#2b6def"/><path d="M46.99 35.57h0L31.33 18.29 0 8.89v55.29h0l15.66 8.9 4.49-30.6 11.18 1.99h0l15.66 8.89V35.57h0z" fill="#2891f9"/><path d="M15.66 0L0 8.89l46.99 26.68 7.1-4.02 8.57-4.87L15.66 0z" fill="#2b6def"/><path d="M15.66 35.57h0v37.51l15.67-8.9h0V44.47h0l-15.67-8.9z" fill="#2bbdf7"/></svg>
