<?xml version="1.0" encoding="UTF-8" standalone="no"?>
<svg
   xmlns:dc="http://purl.org/dc/elements/1.1/"
   xmlns:cc="http://creativecommons.org/ns#"
   xmlns:rdf="http://www.w3.org/1999/02/22-rdf-syntax-ns#"
   xmlns:svg="http://www.w3.org/2000/svg"
   xmlns="http://www.w3.org/2000/svg"
   xmlns:sodipodi="http://sodipodi.sourceforge.net/DTD/sodipodi-0.dtd"
   xmlns:inkscape="http://www.inkscape.org/namespaces/inkscape"
   width="80"
   height="80"
   viewBox="0 0 80 80"
   version="1.1"
   id="svg32854"
   sodipodi:docname="melon.svg"
   inkscape:version="1.0.1 (3bc2e813f5, 2020-09-07)">
  <metadata
     id="metadata32858">
    <rdf:RDF>
      <cc:Work
         rdf:about="">
        <dc:format>image/svg+xml</dc:format>
        <dc:type
           rdf:resource="http://purl.org/dc/dcmitype/StillImage" />
        <dc:title>Artboard</dc:title>
      </cc:Work>
    </rdf:RDF>
  </metadata>
  <sodipodi:namedview
     pagecolor="#ffffff"
     bordercolor="#666666"
     borderopacity="1"
     objecttolerance="10"
     gridtolerance="10"
     guidetolerance="10"
     inkscape:pageopacity="0"
     inkscape:pageshadow="2"
     inkscape:window-width="3840"
     inkscape:window-height="2130"
     id="namedview32856"
     showgrid="false"
     inkscape:zoom="10.088496"
     inkscape:cx="47.806579"
     inkscape:cy="56.5"
     inkscape:window-x="0"
     inkscape:window-y="0"
     inkscape:window-maximized="1"
     inkscape:current-layer="svg32854" />
  <!-- Generator: Sketch 51.3 (57544) - http://www.bohemiancoding.com/sketch -->
  <title
     id="title32832">Artboard</title>
  <desc
     id="desc32834">Created with Sketch.</desc>
  <defs
     id="defs32836" />
  <g
     id="g32871"
     transform="translate(-26,3)">
    <path
       d="M 99,36.999006 C 99,55.223688 84.226002,70 66.001491,70 47.774992,70 33,55.223688 33,36.999006 33,18.775318 47.774992,4 66.001491,4 84.226002,4 99,18.775318 99,36.999006"
       class="m-theme-fill"
       fill="#0b0b09"
       id="path32848"
       style="stroke:none;stroke-width:1" />
    <path
       d="M 76.890476,48.252181 V 28.418193 c 0,-1.615871 0.122561,-2.712607 0.365689,-3.287184 -0.542057,0.04032 -0.928672,0.195558 -1.157851,0.462686 -0.231171,0.266119 -0.372664,0.636066 -0.427468,1.108832 -0.05381,0.472766 -0.08071,1.229796 -0.08071,2.27109 v 19.81282 c 0,0.986861 -0.09865,1.661232 -0.293946,2.024123 -0.197293,0.362891 -0.600847,0.715701 -1.209666,1.058431 h 0.710454 c 0.935648,0 1.516566,-0.270152 1.747738,-0.812472 0.229178,-0.540304 0.345761,-1.474747 0.34576,-2.804338 z M 51.921946,25.131009 h -0.752304 c 0.83999,0.32761 1.499626,0.784247 1.980902,1.36588 0.480279,0.582641 0.971519,1.490876 1.472723,2.723696 l 9.406294,22.648406 c 0.298929,-0.54736 0.448393,-1.027182 0.448393,-1.438458 0,-0.383051 -0.149464,-0.931419 -0.448393,-1.644096 L 55.944532,28.932288 c -0.501204,-1.301366 -1.032301,-2.260002 -1.594287,-2.876916 -0.562983,-0.616914 -1.372083,-0.924363 -2.428299,-0.924363 z m -1.584323,26.737982 h 4.285644 c -0.487254,-0.260072 -0.882837,-0.619938 -1.187744,-1.0796 -0.303911,-0.458653 -0.532094,-0.995933 -0.680562,-1.612847 -0.190318,0.562481 -0.485261,1.059439 -0.883833,1.489868 -0.399568,0.431436 -0.910736,0.832632 -1.533505,1.202579 z M 66.346259,45.97101 75.224446,24 H 84 v 1.131009 c -1.367101,0.0131 -2.328656,0.191526 -2.883667,0.534256 -0.556007,0.341722 -0.880844,0.835656 -0.976501,1.479787 -0.09466,0.644131 -0.141493,1.828565 -0.141493,3.55532 v 17.757447 c 0,0.903195 0.118575,1.589663 0.355726,2.054364 0.236153,0.46571 0.618782,0.792311 1.147886,0.976781 0.528108,0.184469 1.361123,0.311481 2.498049,0.380027 V 53 H 70.896953 v -1.131009 c 1.30034,-0.01311 2.241966,-0.177413 2.823881,-0.492927 0.582911,-0.315513 0.928672,-0.736869 1.036286,-1.264068 0.107615,-0.5272 0.162418,-1.401161 0.162418,-2.620877 V 27.658139 L 64.822719,53 H 63.643943 L 53.669684,28.459522 v 16.833085 c 0,1.891063 0.354728,3.367826 1.066179,4.429281 0.710454,1.061455 1.89222,1.777156 3.5443,2.147103 V 53 H 48 v -1.131009 c 1.449805,-0.150196 2.567799,-0.722757 3.352985,-1.716674 0.786183,-0.991901 1.17778,-2.386006 1.17778,-4.181307 V 26.898085 C 51.975754,26.281171 51.312131,25.822517 50.539899,25.521117 49.768662,25.219716 48.921697,25.08968 48,25.131009 V 24 h 9.285726 z"
       id="Fill-10"
       fill="#fffef4"
       style="stroke:none;stroke-width:1" />
    <path
       d="m 66.000997,1.5066429 c -19.571402,0 -35.49236,15.9219551 -35.49236,35.4933571 0,19.571402 15.920958,35.491363 35.49236,35.491363 19.570405,0 35.490363,-15.919961 35.490363,-35.491363 0,-19.571402 -15.919958,-35.4933571 -35.490363,-35.4933571 z M 66.000997,74 C 45.598,74 29,57.400005 29,37 29,16.598 45.598,0 66.000997,0 86.402,0 103,16.598 103,37 103,57.400005 86.402,74 66.000997,74 Z"
       class="m-theme-fill"
       fill="#0b0b09"
       id="path32851"
       style="stroke:none;stroke-width:1" />
  </g>
</svg>
