<?xml version="1.0" encoding="UTF-8"?>
<svg width="1020px" height="1020px" viewBox="0 0 1020 1020" version="1.1" xmlns="http://www.w3.org/2000/svg" xmlns:xlink="http://www.w3.org/1999/xlink">
    <title>mc-icon-light</title>
    <g id="logo" stroke="none" stroke-width="1" fill="none" fill-rule="evenodd">
        <g id="mc-icon-light" transform="translate(-30.000000, -30.000000)">
            <g transform="translate(30.000000, 30.000000)">
                <rect id="Rectangle" stroke="#15E6B7" stroke-width="24" fill="#0B0C1B" x="12" y="12" width="996" height="996" rx="498"></rect>
                <path d="M736.934432,224.4 C769.334531,224.4 795.6,250.665469 795.6,283.065568 L795.6,740.863736 C795.6,771.09374 771.09374,795.6 740.863736,795.6 C710.633733,795.6 686.127473,771.09374 686.127473,740.863736 L686.127473,575.034575 C686.127473,553.774672 668.892916,536.540116 647.633014,536.540116 C633.317279,536.540116 620.184023,544.484345 613.538095,557.163931 L555.21226,668.442215 C546.44299,685.172869 529.113721,695.655242 510.224176,695.655242 C491.330835,695.655242 473.9942,685.183015 465.202528,668.459833 L406.692308,557.163931 C396.766677,538.283777 373.414975,531.024701 354.534821,540.950331 C341.836684,547.625966 333.884982,560.789906 333.884982,575.135874 L333.884982,740.857509 C333.884982,771.090952 309.375934,795.6 279.142491,795.6 C248.909048,795.6 224.4,771.090952 224.4,740.857509 L224.4,283.47033 C224.4,250.846687 250.846687,224.4 283.47033,224.4 C319.769722,224.4 353.053162,244.599081 369.811254,276.79865 L426.27033,385.28104 C450.395193,431.635375 507.529872,449.655921 553.884206,425.531058 C571.057571,416.593273 585.075942,402.602598 594.047672,385.446943 L651.08227,276.38594 C667.794142,244.429662 700.87212,224.4 736.934432,224.4 Z M425.2125,715.275 C447.393636,715.275 465.375,733.256364 465.375,755.4375 C465.375,777.618636 447.393636,795.6 425.2125,795.6 C403.031364,795.6 385.05,777.618636 385.05,755.4375 C385.05,733.256364 403.031364,715.275 425.2125,715.275 Z M594.7875,715.275 C616.968636,715.275 634.95,733.256364 634.95,755.4375 C634.95,777.618636 616.968636,795.6 594.7875,795.6 C572.606364,795.6 554.625,777.618636 554.625,755.4375 C554.625,733.256364 572.606364,715.275 594.7875,715.275 Z" id="Combined-Shape" fill="#15E6B7" fill-rule="nonzero"></path>
            </g>
        </g>
    </g>
</svg>