<?xml version="1.0" encoding="UTF-8"?>
<svg width="1020px" height="1020px" viewBox="0 0 1020 1020" version="1.1" xmlns="http://www.w3.org/2000/svg" xmlns:xlink="http://www.w3.org/1999/xlink">
    <title>mc-icon-dark</title>
    <g id="logo" stroke="none" stroke-width="1" fill="none" fill-rule="evenodd">
        <g id="mc-icon-dark" transform="translate(-30.000000, -30.000000)">
            <g transform="translate(30.000000, 30.000000)">
                <rect id="Rectangle" fill="#0B0C1B" x="0" y="0" width="1020" height="1020" rx="510"></rect>
                <path d="M758.106158,197.755102 C793.529006,197.755102 822.244898,226.470994 822.244898,261.893842 L822.244898,762.402044 C822.244898,795.45234 795.45234,822.244898 762.402044,822.244898 C729.351748,822.244898 702.55919,795.45234 702.55919,762.402044 L702.55919,581.10194 C702.55919,557.858606 683.716745,539.016161 660.473411,539.016161 C644.822098,539.016161 630.463582,547.701543 623.197626,561.564064 L559.430314,683.223995 C549.842919,701.515527 530.896925,712.975847 510.24509,712.975847 C489.589106,712.975847 470.635058,701.52662 461.023172,683.243258 L397.054272,561.564064 C386.202636,540.922496 360.672349,532.986189 340.030781,543.837825 C326.147978,551.13626 317.454426,565.528323 317.454426,581.21269 L317.454426,762.395236 C317.454426,795.449292 290.65882,822.244898 257.604764,822.244898 C224.550708,822.244898 197.755102,795.449292 197.755102,762.395236 L197.755102,262.336366 C197.755102,226.669119 226.669119,197.755102 262.336366,197.755102 C302.022291,197.755102 338.410892,219.838645 356.732421,255.042256 L418.458815,373.645452 C444.834395,424.324389 507.299422,444.026153 557.978359,417.650574 C576.753904,407.878943 592.080111,392.583015 601.888854,373.826832 L664.244465,254.591042 C682.515461,219.653421 718.679432,197.755102 758.106158,197.755102 Z M417.302296,734.42602 C441.552809,734.42602 461.211735,754.084946 461.211735,778.335459 C461.211735,802.585973 441.552809,822.244898 417.302296,822.244898 C393.051783,822.244898 373.392857,802.585973 373.392857,778.335459 C373.392857,754.084946 393.051783,734.42602 417.302296,734.42602 Z M602.697704,734.42602 C626.948217,734.42602 646.607143,754.084946 646.607143,778.335459 C646.607143,802.585973 626.948217,822.244898 602.697704,822.244898 C578.447191,822.244898 558.788265,802.585973 558.788265,778.335459 C558.788265,754.084946 578.447191,734.42602 602.697704,734.42602 Z" id="Combined-Shape" fill="#15E6B7" fill-rule="nonzero"></path>
            </g>
        </g>
    </g>
</svg>