<svg xmlns="http://www.w3.org/2000/svg" width="56.693" height="56.693" viewBox="0 0 15 15"><path d="M1.405 4.091v6.686a.23.23 0 0 0 .032.114c.021.035.05.064.086.084l2.933 1.639V5.791z" fill="#60beff"/><path d="M10.544 2.386l2.933 1.638c.035.02.065.049.085.084s.031.074.032.114v6.686l-3.05-1.704V2.386z" fill="#1a4199"/><path d="M4.45 12.614L7.5 10.91 4.45 9.205v3.409zm.118-10.161l5.977 3.343v3.409l-9.14-5.113 2.933-1.639a.23.23 0 0 1 .23 0z" fill="#3ca9e5"/><path d="M10.545 2.386L7.5 4.091l3.045 1.705zm3.049 8.523l-2.932 1.638c-.074.038-.161.038-.235 0L4.45 9.205V5.791l9.144 5.118z" fill="#2853c3"/></svg>
