<svg width="500" height="500" viewBox="0 0 500 500" fill="none" xmlns="http://www.w3.org/2000/svg">
<path d="M250 0C434.751 0 500 65.5557 500 250C500 433.747 433.664 500 250 500C66.8772 500 0 432.897 0 250C0 66.4024 65.7864 0 250 0Z" fill="#171717"/>
<path fill-rule="evenodd" clip-rule="evenodd" d="M231.518 279.293C220.065 306.57 193.102 325.726 161.665 325.726C119.842 325.726 85.9375 291.822 85.9375 249.998C85.9375 208.175 119.842 174.271 161.665 174.271C193.102 174.271 220.065 193.427 231.518 220.704C243.475 175.783 282.27 141.807 329.685 136.993C337.377 136.212 341.296 136.886 341.296 145.873V214.501C341.296 219.612 340.335 222.158 329.685 222.158C313.848 222.158 303.654 236.241 303.654 249.998C303.654 265.682 312.81 278.396 329.685 278.396C341.296 278.396 341.296 271.903 341.296 263.901V231.066C341.296 224.756 343.515 221.601 349.431 221.601H385.594C391.392 221.601 391.662 221.709 394.992 226.329C394.992 226.329 409.518 246.375 412.051 249.998C414.583 253.622 414.879 254.731 412.051 258.953C409.223 263.174 394.992 283.048 394.992 283.048C391.673 287.736 391.437 287.862 385.594 287.862H358.439C344.283 287.862 341.296 297.658 341.296 306.498V351.757C341.296 362.305 339.429 363.993 329.685 363.004C282.27 358.19 243.475 324.213 231.518 279.293ZM186.908 249.998C186.908 263.939 175.606 275.241 161.665 275.241C147.724 275.241 136.422 263.939 136.422 249.998C136.422 236.057 147.724 224.756 161.665 224.756C175.606 224.756 186.908 236.057 186.908 249.998Z" fill="white"/>
</svg>
