<?xml version="1.0" encoding="UTF-8" standalone="no"?>
<svg
   width="105"
   height="105"
   viewBox="0 0 105 105"
   fill="none"
   version="1.1"
   id="svg4"
   sodipodi:docname="odos-logo-orange-circle-only.svg"
   inkscape:version="1.1.2 (0a00cf5339, 2022-02-04)"
   xmlns:inkscape="http://www.inkscape.org/namespaces/inkscape"
   xmlns:sodipodi="http://sodipodi.sourceforge.net/DTD/sodipodi-0.dtd"
   xmlns="http://www.w3.org/2000/svg"
   xmlns:svg="http://www.w3.org/2000/svg">
  <defs
     id="defs8" />
  <sodipodi:namedview
     id="namedview6"
     pagecolor="#ffffff"
     bordercolor="#666666"
     borderopacity="1.0"
     inkscape:pageshadow="2"
     inkscape:pageopacity="0.0"
     inkscape:pagecheckerboard="0"
     showgrid="false"
     width="98px"
     inkscape:zoom="4"
     inkscape:cx="18.75"
     inkscape:cy="55"
     inkscape:window-width="3440"
     inkscape:window-height="1367"
     inkscape:window-x="0"
     inkscape:window-y="0"
     inkscape:window-maximized="1"
     inkscape:current-layer="svg4" />
  <path
     fill-rule="evenodd"
     clip-rule="evenodd"
     d="m 24.6741,18.8268 6.7294,6.9404 c 7.0199,-5.5109 15.9168,-8.0569 24.7891,-7.0931 8.8723,0.9633 17.0157,5.3603 22.6889,12.2493 l -6.7801,6.9569 c 3.5921,4.6906 5.3768,10.5181 5.0259,16.4155 -0.3497,5.898 -2.812,11.4729 -6.935,15.7048 -4.1224,4.2325 -9.6311,6.8389 -15.5179,7.3435 -5.8862,0.5041 -11.7585,-1.1273 -16.5415,-4.5955 l -3.4485,3.583 c 5.3933,4.1032 12.0341,6.2264 18.8073,6.0155 6.7737,-0.2121 13.2681,-2.7459 18.3955,-7.177 5.1274,-4.4311 8.5754,-10.4902 9.7663,-17.1614 1.1902,-6.6712 0.0518,-13.5491 -3.2264,-19.4807 l 3.3652,-3.4907 c 3.6808,6.0763 5.3773,13.1491 4.8545,20.2347 -0.5233,7.085 -3.2402,13.8315 -7.7739,19.3018 l 3.4657,3.5585 C 88.378,71.0313 91.6877,62.0099 91.6744,52.688 91.66,43.366 88.3236,34.3549 82.2627,27.2714 76.2024,20.1891 67.815,15.499 58.6079,14.0433 49.4002,12.58818 39.9757,14.463 32.0261,19.332 L 28.6614,15.908 C 35.7497,11.29485 44.0266,8.84274 52.484,8.85022 62.6529,8.78881 72.5163,12.32546 80.3281,18.8354 l 3.4576,-3.5586 C 74.3554,7.30644 62.2534,3.207505 49.9203,3.8077148 37.5872,4.407391 25.9402,9.66082 17.3279,18.5091 8.71568,27.3574 3.777837,39.1421 3.5113734,51.487 3.24491,63.8319 7.66905,75.8184 15.892,85.0298 l 3.4657,-3.5579 C 15.5092,77.0483 12.58768,71.8969 10.76782,66.323 8.94744,60.7497 8.26499,54.8672 8.76054,49.0242 c 0.49608,-5.8419 2.16,-11.5252 4.89356,-16.7124 2.7335,-5.1872 6.4811,-9.7726 11.02,-13.485 z M 43.5438,45.7449 H 64.0107 L 53.7142,65.3035 Z m -8.168,-4.9544 17.1103,32.8658 17.1102,-32.8658 z m 50.2408,-16.792 3.4656,-3.558 h 0.0251 c 8.2347,9.2104 12.6685,21.2017 12.4063,33.5541 -0.2616,12.3524 -5.2006,24.145 -13.8187,32.9982 -8.6176,8.8524 -20.2736,14.1065 -32.6137,14.7007 -12.3412,0.5939 -24.4479,-3.5162 -33.8761,-11.5 l 3.4656,-3.5584 c 7.1743,5.915 16.0466,9.3902 25.3295,9.921 9.283,0.5307 18.4939,-1.9096 26.2961,-6.9686 L 72.931,86.1641 C 64.982,91.041 55.5538,92.9227 46.3418,91.4703 37.1294,90.0179 28.7382,85.3262 22.6757,78.2395 16.6128,71.1541 13.27689,62.1364 13.26835,52.8107 13.25927,43.4845 16.5775,34.4616 22.6266,27.3632 l 3.4913,3.5756 c -4.5385,5.4681 -7.2581,12.2152 -7.7814,19.3018 -0.5233,7.0861 1.1764,14.1594 4.862,20.2347 l 3.3647,-3.4908 C 23.277,61.054 22.13,54.1735 23.3144,47.498 c 1.1849,-6.676 4.6286,-12.7422 9.755,-17.1797 5.1263,-4.438 11.6229,-6.9782 18.3993,-7.1945 6.7769,-0.2162 13.4225,1.9048 18.8207,6.0064 l -3.5073,3.6002 c -4.1428,-3.0443 -9.1607,-4.6618 -14.3009,-4.6094 -4.5849,-0.0054 -9.0806,1.2703 -12.9798,3.684 -3.8982,2.4136 -7.0456,5.8686 -9.0849,9.9755 -2.0398,4.1064 -2.8916,8.7015 -2.459,13.2666 0.4325,4.5646 2.1317,8.9182 4.9068,12.5686 l -3.4827,3.5746 -3.2888,3.3653 c 5.6763,6.8848 13.8197,11.2762 22.691,12.2381 8.8707,0.9622 17.766,-1.5822 24.7864,-7.0899 l 3.4656,3.5751 3.2809,3.3645 C 84.8519,82.9287 88.5947,78.3415 91.325,73.1538 94.0548,67.9655 95.716,62.2827 96.21,56.4414 96.7039,50.6 96.0215,44.7191 94.2016,39.1463 92.3818,33.5736 89.4624,28.4227 85.6166,23.9985 Z"
     fill="#ff5100"
     id="path2"
     sodipodi:nodetypes="cccccccccccsccccccccccccccccsccccccccccccccccccccccccccccccccccccccccccccccccccccc" />
</svg>
