<svg xmlns="http://www.w3.org/2000/svg" xmlns:xlink="http://www.w3.org/1999/xlink" width="57px" height="57px" viewBox="0 0 57 57" version="1.1"><path style=" stroke:none;fill-rule:nonzero;fill:rgb(0%,0%,0%);fill-opacity:1;" d="M 0 0 L 0 57 L 57 57 L 57 0 Z M 12.332031 13.167969 C 12.332031 12.765625 12.65625 12.441406 13.058594 12.441406 L 22.390625 12.441406 C 22.789062 12.441406 23.117188 12.765625 23.117188 13.167969 L 23.117188 22.5 C 23.117188 22.90625 22.789062 23.230469 22.390625 23.230469 L 13.058594 23.230469 C 12.65625 23.230469 12.332031 22.90625 12.332031 22.5 Z M 23.117188 43.832031 C 23.117188 44.234375 22.789062 44.558594 22.390625 44.558594 L 13.058594 44.558594 C 12.65625 44.558594 12.332031 44.234375 12.332031 43.832031 L 12.332031 34.5 C 12.332031 34.09375 12.65625 33.769531 13.058594 33.769531 L 22.390625 33.769531 C 22.789062 33.769531 23.117188 34.09375 23.117188 34.5 Z M 33.167969 33.894531 L 23.832031 33.894531 C 23.433594 33.894531 23.101562 33.566406 23.101562 33.160156 L 23.101562 23.828125 C 23.101562 23.429688 23.429688 23.097656 23.832031 23.097656 L 33.167969 23.097656 C 33.566406 23.097656 33.898438 23.425781 33.898438 23.828125 L 33.898438 33.160156 C 33.898438 33.5625 33.570312 33.894531 33.167969 33.894531 Z M 44.683594 43.832031 C 44.683594 44.234375 44.355469 44.558594 43.953125 44.558594 L 34.621094 44.558594 C 34.21875 44.558594 33.894531 44.234375 33.894531 43.832031 L 33.894531 34.5 C 33.894531 34.09375 34.21875 33.769531 34.621094 33.769531 L 43.953125 33.769531 C 44.351562 33.769531 44.683594 34.09375 44.683594 34.5 Z M 44.683594 22.496094 C 44.683594 22.898438 44.355469 23.226562 43.953125 23.226562 L 34.621094 23.226562 C 34.21875 23.226562 33.894531 22.898438 33.894531 22.496094 L 33.894531 13.164062 C 33.894531 12.761719 34.21875 12.4375 34.621094 12.4375 L 43.953125 12.4375 C 44.351562 12.4375 44.683594 12.761719 44.683594 13.164062 Z M 44.683594 22.496094 "/></svg>
