<svg xmlns="http://www.w3.org/2000/svg" viewBox="0 0 48 48"><path d="M24 36.22v8.967c-9.224 0-16.703-7.48-16.703-16.703S14.776 11.78 24 11.78V2.813c9.224 0 16.703 7.48 16.703 16.703S33.224 36.22 24 36.22z" fill="#fff"/><path d="M24 0C10.746 0 0 10.746 0 24s10.746 24 24 24 24-10.746 24-24S37.254 0 24 0zm0 36.22v8.967c-9.224 0-16.703-7.48-16.703-16.703S14.776 11.78 24 11.78V2.813c9.224 0 16.703 7.48 16.703 16.703S33.224 36.22 24 36.22zm8.264-12.297v.155c-3.643 1.815-6.372 4.543-8.186 8.186h-.155c-1.815-3.643-4.543-6.372-8.186-8.186v-.155c3.643-1.815 6.372-4.543 8.186-8.186h.155c1.814 3.643 4.543 6.372 8.186 8.186z" fill="#ff0420"/></svg>
