<svg xmlns="http://www.w3.org/2000/svg" width="533.333" height="533.333" viewBox="0 0 400 400" preserveAspectRatio="xMidYMid meet"><path d="M90 112.5c0 .5 30 53.8 37.5 66.5l5.9 10.3 2.8 4.9 6.5-11.4 22.1-38.8 17-29.8 1.4-2.2h-46.6l-46.6.5zm117.7 1.2c-.2.4-11 19-23.9 41.3l-38.3 66-27.1 46.7-12.3 21.3h102l101.9-.5c0-.3-2.4-4.7-5.3-9.8l-40.2-69.2-44-76c-11.5-19.9-12.1-20.9-12.8-19.8zm13.1 67.8l42.3 73.1c3.2 5.5 5.9 10.3 5.9 10.7s-27.2.7-60.5.7-60.5-.2-60.5-.5c0-1.2 4.6-9.4 19.3-34.7l26.6-45.8c14.4-24.7 14.1-24.4 15.1-23.4.4.5 5.7 9.4 11.8 19.9z"/></svg>
