<svg xmlns="http://www.w3.org/2000/svg" width="793.701" height="1122.52" viewBox="0 0 210 297"><path d="M74.964 84.881c.076 0 .15.015.226.015v-.015l-.044.002c-18.795 0-34.862-13.644-41.522-32.969a60.77 60.77 0 0 0-3.302 19.831v13.138 118.941 13.175c0 29.165 20.068 52.81 44.824 52.81s44.824-23.645 44.824-52.81V203v-65.094c0-29.286-20.15-53.024-45.005-53.024" fill="#0e560e"/><path d="M118.666 19.629c-2.967-.402-5.978-.63-9.035-.63H75.088c-18.766 0-34.811 13.618-41.466 32.912 6.661 19.326 22.728 32.97 41.523 32.97.015 0 .029-.003.044-.003v.015c24.75.145 44.779 23.817 44.779 53.011v65.094c38.429-5.966 68.097-44.681 68.097-91.587 0-47.436-30.34-86.501-69.4-91.782" fill="#48c148"/></svg>
