<svg xmlns="http://www.w3.org/2000/svg" xmlns:xlink="http://www.w3.org/1999/xlink" width="131" height="131" viewBox="0 0 100 131"><defs><path id="A" d="M0 .164h99.809v99.938H0z"/></defs><g fill="none" fill-rule="evenodd"><path d="M77.995 90.554l5.025 11.865 5.701 13.496c.664 1.547.786 3.03-.395 4.321-1.149 1.256-2.609 1.309-4.162.761l-11.119-3.89c-.906-.327-1.278-.09-1.659.742l-5.209 11.072c-.702 1.469-1.935 2.018-3.529 1.9-1.415-.104-2.288-.899-2.809-2.139l-8.219-19.607c-.126-.302-.285-.589-.511-1.051l-2.704 6.381-5.94 14.23c-.595 1.418-1.629 2.182-3.233 2.198-1.613.016-2.592-.767-3.249-2.163l-5.241-11.058c-.319-.683-.645-.787-1.361-.533l-11.763 4.05c-1.372.465-2.686.221-3.645-.847s-1.239-2.361-.636-3.791l9.584-22.856c.156-.371.37-.718.556-1.075.491.205.95.454 1.264.906l-4.745 11.498-4.949 11.782c-.358.857-.481 1.734.248 2.467.672.676 1.447.473 2.248.192l12.269-4.273c1.041-.374 1.549-.178 2.019.853l5.587 11.871c.369.781.892 1.39 1.817 1.376.869-.012 1.408-.571 1.727-1.334l8.778-20.926c.463-1.085.385-1.92-.262-2.819-.3.179-.349.439-.446.67l-8.673 20.613c-.192.457-.251 1.104-.902 1.117-.69.014-.813-.656-1.052-1.131l-5.916-11.847c-.347-.71-.677-.876-1.425-.614l-6.484 2.127-6.605 2.114c-.367.119-.722.224-1.017-.107-.255-.285-.178-.611-.045-.932l.32-.822 8.904-21.233c2.48.653 5.02.587 7.529.431 3.316-.206 6.147.851 8.843 2.655 2.186 1.463 4.436 2.875 7.213 2.933l11.463 27.439c.36.865.78 1.635 1.817 1.663s1.53-.715 1.925-1.556l5.323-11.261c.843-1.745.427-1.857 2.681-1.08l11.858 4.107c.868.305 1.644.368 2.314-.361.678-.739.485-1.514.134-2.346L76.841 91.949c.354-.49.642-1.036 1.155-1.394" fill="#fccdd3"/><g transform="translate(0 .057)"><mask id="B" fill="#fff"><use xlink:href="#A"/></mask><path d="M33.473 7.705c-1.786 0-3.002-.049-4.213.011-2.203.109-4.04.931-5.353 2.81-1.016 1.454-1.856 3.003-2.653 4.575a13.99 13.99 0 0 1-6.362 6.353l-3.66 2.035c-2.54 1.44-3.733 3.647-3.708 6.548l.029 5.632c.032 2.079-.499 3.999-1.551 5.78l-2.555 4.255c-1.804 2.904-1.895 5.798-.026 8.71l1.26 2.072c2.217 3.08 3.207 6.484 2.882 10.283-.1 1.17-.044 2.355-.034 3.532.021 2.511.888 4.603 3.072 6.001.834.535 1.661 1.109 2.56 1.51 4.03 1.796 7.049 4.587 8.847 8.663.369.837.877 1.614 1.336 2.41 1.438 2.495 3.639 3.645 6.478 3.643l5.849-.025c2.08-.02 3.984.575 5.759 1.62l4.252 2.557c2.804 1.746 5.597 1.768 8.406.023 1.062-.659 2.156-1.266 3.202-1.949 2.408-1.572 4.997-2.424 7.909-2.263 1.577.087 3.162.033 4.744.038 2.884.008 5.115-1.149 6.557-3.698.688-1.216 1.41-2.415 2.036-3.662 1.419-2.827 3.498-4.96 6.337-6.373 1.282-.638 2.523-1.362 3.754-2.096 1.997-1.19 3.337-2.835 3.566-5.254.212-2.243.065-4.486.059-6.728a11.78 11.78 0 0 1 1.735-6.291l2.551-4.257c1.581-2.625 1.66-5.273.111-7.935-.684-1.176-1.373-2.35-2.111-3.492-1.581-2.445-2.458-5.064-2.288-8.019.094-1.614.056-3.239.034-4.858-.034-2.461-.887-4.509-3.017-5.924-1.443-.959-2.959-1.783-4.496-2.568a13.79 13.79 0 0 1-6.137-6.13c-.69-1.339-1.439-2.649-2.201-3.949-1.186-2.023-2.896-3.31-5.281-3.529-.913-.084-1.836-.053-2.755-.069-1.984-.036-3.977.164-5.951-.105-2.438-.333-4.529-1.565-6.445-2.98-4.093-3.023-8.047-3.065-12.14-.014-3.232 2.409-6.841 3.719-10.389 3.109m-8.731 85.702c-.314-.452-.774-.701-1.264-.905-2.111-2.484-3.397-5.481-5.097-8.22-1.067-1.719-2.706-2.763-4.433-3.705-1.676-.914-3.403-1.744-4.937-2.904-2.229-1.685-3.376-3.934-3.462-6.713-.041-1.324-.105-2.66.02-3.973.334-3.504-.63-6.599-2.626-9.452-.755-1.08-1.399-2.251-1.981-3.436-1.316-2.68-1.257-5.385.03-8.075.732-1.532 1.664-2.945 2.568-4.373 1.375-2.171 2.164-4.474 2.015-7.085-.09-1.578-.022-3.165-.041-4.747-.044-3.566 1.542-6.207 4.56-8.017 1.165-.699 2.343-1.387 3.562-1.983 2.678-1.31 4.647-3.275 5.97-5.956.908-1.842 1.852-3.675 3.215-5.253 1.672-1.936 3.811-2.816 6.315-2.888 1.286-.037 2.585-.118 3.859.014 3.594.372 6.732-.698 9.638-2.731.96-.671 2.009-1.223 3.05-1.766 2.813-1.468 5.634-1.395 8.461.008 1.454.721 2.815 1.596 4.172 2.471 2.2 1.418 4.561 2.145 7.193 2.031 1.579-.069 3.162-.023 4.743-.037 3.571-.032 6.181 1.601 7.966 4.631.728 1.234 1.454 2.474 2.09 3.757 1.239 2.502 3.101 4.336 5.591 5.581 1.544.772 3.065 1.593 4.491 2.575 2.552 1.758 3.836 4.191 3.868 7.285.013 1.215.092 2.439-.025 3.642-.345 3.542.625 6.678 2.658 9.553.634.897 1.159 1.877 1.683 2.846 1.744 3.227 1.57 6.417-.259 9.55l-2.753 4.65c-.926 1.557-1.349 3.241-1.328 5.049l.031 5.521c.061 3.569-1.519 6.216-4.519 8.042a67.3 67.3 0 0 1-3.946 2.204c-2.175 1.131-3.962 2.643-5.111 4.855l-2.711 5.048c-.514.359-.801.904-1.156 1.394-.466.263-.822.649-1.164 1.052-1.969 1.322-4.167 1.668-6.488 1.588-1.65-.057-3.304-.012-4.956-.017-1.149-.003-2.256.209-3.308.671-3.268 1.436-6.011 3.888-9.49 4.917-.568-.162-1.142-.036-1.713-.034-2.776-.058-5.026-1.47-7.212-2.933-2.696-1.804-5.527-2.861-8.843-2.655-2.508.156-5.049.222-7.529-.431-.42-.313-.865-.57-1.396-.644" fill="#6534ff" mask="url(#B)"/></g><path d="M64.014 60.569c.894.027 1.496-.714 1.234-1.629l-4.812-16.705c-.248-.858-.902-1.031-1.651-.853-.613.145-.774.724-.934 1.261l-3.098 10.442-1.687 5.696c-.219.786-.052 1.517.857 1.744.793.198 1.338-.121 1.552-.975l.717-2.426c.142-.564.434-.765 1.009-.75h3.856c.606-.015.939.146 1.067.8.155.788.428 1.555.672 2.324.188.591.486 1.084 1.217 1.071m-28.886-9.568c-.087.913.177 1.777.604 2.614l2.411 4.834c.625 1.308 1.571 2.083 3.064 2.134 1.571.054 2.534-.769 3.179-2.105l2.552-5.254a5.09 5.09 0 0 0-.033-4.576l-2.783-5.633c-1.152-2.229-4.354-2.389-5.605-.205-1.166 2.036-2.116 4.197-3.13 6.318-.271.567-.317 1.205-.258 1.873m35.75-.378l-.006 8.388c-.005.911.317 1.536 1.292 1.547 1.113.013 1.281-.832 1.3-1.679l-.002-4.746c-.017-.676.21-.895.883-.88a118.21 118.21 0 0 0 5.183.004c2.056-.044 3.618-1.588 3.681-3.648a72.92 72.92 0 0 0-.001-4.635c-.069-2.102-1.692-3.632-3.789-3.638-2.5-.007-5.001.03-7.5-.02-.804-.016-1.079.177-1.062 1.029l.021 8.278m-53.642.034l.002 8.168c0 .293-.04.611.058.873.226.612.689.93 1.37.867.851-.078 1.113-.706 1.136-1.39l.013-4.855c-.027-.803.175-1.107 1.033-1.074l5.073.009c1.999-.049 3.565-1.571 3.642-3.571l.001-4.745c-.077-2.096-1.706-3.6-3.821-3.605-2.5-.006-5.001.037-7.5-.022-.857-.02-1.039.267-1.025 1.066l.018 8.278M33.473 7.762c3.547.61 7.157-.7 10.389-3.109 4.093-3.051 8.047-3.009 12.14.014 1.916 1.415 4.007 2.647 6.445 2.98 1.973.269 3.967.069 5.951.105.919.017 1.842-.014 2.755.069 2.386.218 4.095 1.506 5.281 3.529.762 1.3 1.512 2.61 2.201 3.949a13.79 13.79 0 0 0 6.137 6.13c1.537.786 3.053 1.61 4.496 2.568 2.13 1.415 2.982 3.464 3.016 5.924.023 1.619.06 3.243-.034 4.858-.171 2.955.707 5.574 2.287 8.019.738 1.142 1.427 2.316 2.111 3.492 1.549 2.662 1.47 5.31-.111 7.935l-2.551 4.257a11.78 11.78 0 0 0-1.735 6.291c.006 2.242.153 4.485-.059 6.728-.228 2.42-1.568 4.064-3.566 5.254-1.23.734-2.472 1.458-3.754 2.096-2.84 1.414-4.919 3.546-6.337 6.373-.626 1.247-1.348 2.447-2.036 3.662-1.442 2.549-3.673 3.706-6.557 3.698-1.582-.005-3.167.049-4.744-.038-2.911-.161-5.501.691-7.909 2.263-1.046.683-2.14 1.29-3.202 1.95-2.81 1.745-5.602 1.723-8.406-.023-1.404-.874-2.827-1.717-4.252-2.557-1.775-1.045-3.679-1.641-5.76-1.62l-5.848.024c-2.84.001-5.04-1.149-6.478-3.643-.459-.796-.967-1.573-1.336-2.41-1.798-4.076-4.817-6.867-8.847-8.663-.9-.401-1.726-.976-2.56-1.51-2.184-1.399-3.051-3.491-3.072-6.001-.01-1.177-.066-2.362.034-3.532.325-3.799-.664-7.203-2.882-10.283-.471-.654-.823-1.392-1.26-2.072-1.869-2.912-1.778-5.806.026-8.71.873-1.405 1.713-2.831 2.555-4.254a10.81 10.81 0 0 0 1.551-5.78l-.029-5.632c-.025-2.901 1.167-5.107 3.708-6.548 1.215-.689 2.414-1.409 3.66-2.035 2.827-1.421 4.932-3.53 6.363-6.353.797-1.572 1.637-3.121 2.653-4.575 1.313-1.879 3.149-2.701 5.353-2.81 1.211-.06 2.427-.011 4.213-.011" fill="#fefefe"/><path d="M75.677 93l8.151 19.505 1.396 3.355c.157.394.431.828.059 1.24-.38.42-.813.16-1.225.028l-12.771-4.133c-.845-.282-1.191-.101-1.573.683l-5.907 11.843c-.209.417-.345.908-.974.904-.654-.004-.737-.545-.91-.957l-10.254-24.472c-.111-.265-.157-.557-.232-.837 3.479-1.029 6.222-3.48 9.49-4.916 1.051-.462 2.158-.674 3.308-.671 1.652.004 3.306-.04 4.955.017 2.322.08 4.519-.266 6.489-1.588" fill="#fccdd3"/><path d="M19.724 47.262l-.007 2.754c-.014.53.113.814.728.803l5.174-.013c.941-.004 1.44-.539 1.472-1.433l.003-4.075c-.036-.926-.519-1.491-1.54-1.479-1.651.02-3.303.027-4.953-.005-.682-.013-.911.26-.884.914l.008 2.533m-2.489 3.396l-.018-8.278c-.014-.799.168-1.087 1.025-1.066l7.5.022c2.115.005 3.744 1.508 3.821 3.605l-.001 4.745c-.077 1.999-1.643 3.522-3.643 3.571-1.69.041-3.384.057-5.073-.009-.857-.033-1.059.271-1.032 1.074l-.013 4.855c-.024.684-.286 1.312-1.136 1.39-.681.063-1.144-.256-1.37-.868-.097-.262-.057-.581-.058-.873l-.002-8.168m56.131-3.35l-.009 2.754c-.021.582.212.766.775.757l5.063-.009c.994.002 1.512-.531 1.541-1.481l-.006-4.074c-.042-.936-.572-1.453-1.581-1.436-1.614.027-3.23.034-4.843-.005-.722-.017-.989.245-.952.961l.011 2.533m-2.489 3.317l-.021-8.278c-.017-.852.258-1.045 1.062-1.029l7.5.02c2.097.006 3.719 1.536 3.789 3.638l.001 4.635c-.063 2.06-1.625 3.604-3.681 3.648a118.21 118.21 0 0 1-5.183-.004c-.673-.015-.9.204-.883.88l.002 4.746c-.018.847-.187 1.692-1.3 1.679-.975-.011-1.297-.636-1.292-1.547l.006-8.388m-25.983.348c-.072-.357-.074-.747-.226-1.065l-2.734-5.531c-.414-.794-1.066-.786-1.483.024l-2.602 5.35c-.436.926-.32 1.865.123 2.763l2.41 4.833c.184.369.37.762.855.74.417-.018.605-.359.775-.699l2.524-5.022a3.3 3.3 0 0 0 .359-1.392m-9.767.029c-.059-.668-.012-1.306.259-1.873l3.13-6.317c1.251-2.184 4.453-2.024 5.605.205l2.783 5.633a5.09 5.09 0 0 1 .033 4.576l-2.552 5.254c-.645 1.336-1.607 2.159-3.179 2.105-1.493-.051-2.438-.827-3.064-2.134l-2.411-4.834c-.427-.837-.691-1.7-.604-2.614m24.205-3.424l-.284.006-1.006 3.441c-.246.944-1.172 2.21-.53 2.75.626.527 2.025.128 3.084.151.46.01.549-.144.413-.59l-1.677-5.758m4.681 12.989c-.731.014-1.03-.478-1.217-1.07l-.672-2.324c-.128-.655-.462-.815-1.067-.8a75.81 75.81 0 0 1-3.856 0c-.575-.015-.868.187-1.009.75l-.717 2.426c-.213.855-.759 1.173-1.552.975-.91-.227-1.077-.957-.857-1.744l1.687-5.696 3.098-10.442c.159-.537.321-1.116.934-1.261.75-.178 1.404-.005 1.651.853l4.812 16.705c.261.916-.341 1.656-1.234 1.629" fill="#6534ff"/><path d="M19.724 47.262l-.008-2.533c-.027-.654.203-.927.884-.914l4.953.005c1.021-.012 1.504.552 1.54 1.479l-.003 4.075c-.031.893-.53 1.428-1.471 1.433-1.725.008-3.45-.017-5.174.013-.616.011-.742-.273-.728-.803l.007-2.754m53.642.044l-.01-2.533c-.037-.716.23-.978.952-.961l4.843.005c1.008-.017 1.538.5 1.581 1.436l.006 4.074c-.029.95-.547 1.483-1.541 1.481-1.688-.003-3.376-.016-5.063.009-.563.008-.796-.175-.775-.757l.008-2.754m-28.473 3.665a3.3 3.3 0 0 1-.359 1.392l-2.524 5.022c-.17.34-.357.681-.775.699-.485.022-.672-.371-.855-.74l-2.41-4.833c-.443-.898-.559-1.837-.123-2.763l2.602-5.35c.417-.811 1.07-.818 1.483-.024l2.734 5.531c.152.318.155.708.226 1.065m14.44-3.392l1.677 5.758c.135.447.047.6-.413.59-1.059-.023-2.457.376-3.084-.151-.642-.54.283-1.806.53-2.75l1.006-3.441.284-.006" fill="#fefefe"/></g></svg>
