<svg xmlns="http://www.w3.org/2000/svg" width="151.181" height="151.181" viewBox="0 0 40 40"><path d="M34.134 11.866v8.153l-7.062-4.077-7.062-4.096 7.081-4.057 7.062-4.077z" fill="#072b38"/><path d="M19.99 20v8.153l-7.062-4.077-7.062-4.096 7.062-4.057 7.062-4.077z" fill-rule="evenodd" fill="#144556"/><path d="M5.866 11.828V3.675l7.062 4.077 7.062 4.077-7.062 4.096-7.062 4.057z" fill="#41d9bf"/><path d="M5.847 28.134l.019-8.153 7.062 4.096 7.062 4.077-7.062 4.077-7.081 4.057z" fill="#072b38"/><path d="M27.072 15.943l-7.062-4.096V20v8.153l7.043 4.096 7.062 4.077v-8.153l.019-8.153z" fill="#41d9bf"/></svg>
