<svg xmlns="http://www.w3.org/2000/svg" width="200" height="200" fill="none"><path fill="#fff" d="M0 0h200v200H0z"/><path d="M168.881 44.852L113.12 12.507C109.126 10.209 104.603 9 99.999 9a26.3 26.3 0 0 0-13.119 3.507L31.12 44.852a26.29 26.29 0 0 0-9.606 9.647c-2.303 4.007-3.515 8.552-3.514 13.178v64.821c.033 4.592 1.262 9.097 3.563 13.066a26.29 26.29 0 0 0 9.557 9.561l55.761 32.345c3.99 2.312 8.515 3.53 13.119 3.53s9.131-1.218 13.121-3.53l55.761-32.345c3.99-2.313 7.302-5.64 9.605-9.647s3.516-8.552 3.514-13.178V67.479a26.4 26.4 0 0 0-3.563-13.066 26.29 26.29 0 0 0-9.556-9.562zM31.12 67.677c-.003-2.316.601-4.592 1.753-6.598a13.15 13.15 0 0 1 4.807-4.831l55.76-32.312a13 13 0 0 1 13.121 0l55.759 32.312a13.13 13.13 0 0 1 4.759 4.745 13.24 13.24 0 0 1 1.802 6.486v6.588c-.017 5.128-2.056 10.041-5.671 13.664a19.28 19.28 0 0 1-13.617 5.671H50.407a31.96 31.96 0 0 0-19.286 6.423V67.677zM168.881 132.3a13.22 13.22 0 0 1-1.753 6.599 13.15 13.15 0 0 1-4.808 4.83l-55.759 32.312a13.09 13.09 0 0 1-6.562 1.765 13.08 13.08 0 0 1-6.559-1.765l-55.76-32.312a13.14 13.14 0 0 1-4.758-4.745 13.22 13.22 0 0 1-1.802-6.486v-6.588a19.44 19.44 0 0 1 5.67-13.664c3.614-3.622 8.509-5.661 13.616-5.67h99.187c6.954.017 13.723-2.237 19.288-6.422V132.3zM69.132 64.048h12.736V83H95V64.048c0-3.46-1.382-6.779-3.845-9.226S85.353 51 81.868 51H69.132c-3.483 0-6.823 1.375-9.285 3.821A13.01 13.01 0 0 0 56 64.048V83h13.132V64.048zm12.736 71.904H69.132V117H56v18.952c0 3.461 1.384 6.78 3.846 9.226A13.18 13.18 0 0 0 69.132 149h12.736c3.485 0 6.824-1.375 9.287-3.822A13 13 0 0 0 95 135.952V117H81.868v18.952zm39.253-71.904h12.758V83H147V64.048a13.01 13.01 0 0 0-3.844-9.226A13.16 13.16 0 0 0 133.879 51h-12.758c-3.479 0-6.818 1.375-9.279 3.821A13.01 13.01 0 0 0 108 64.048V83h13.121V64.048zm12.758 71.904h-12.758V117H108v18.952c0 3.461 1.383 6.78 3.842 9.226s5.8 3.822 9.279 3.822h12.758a13.16 13.16 0 0 0 9.277-3.822c2.461-2.446 3.844-5.765 3.844-9.226V117h-13.121v18.952z" fill="#7b3fe4"/></svg>
