<svg width="36" height="36" viewBox="0 0 36 36" fill="none" xmlns="http://www.w3.org/2000/svg">
    <path d="M25.7154 13.0577C25.1671 12.7448 24.4621 12.7448 23.8355 13.0577L19.4491 15.6393L16.4726 17.2822L12.1645 19.8638C11.6162 20.1767 10.9112 20.1767 10.2846 19.8638L6.91645 17.8298C6.36815 17.5169 5.9765 16.891 5.9765 16.1869V12.2754C5.9765 11.6496 6.28982 11.0237 6.91645 10.6326L10.2846 8.67683C10.8329 8.36391 11.5379 8.36391 12.1645 8.67683L15.5326 10.7108C16.0809 11.0237 16.4726 11.6496 16.4726 12.3537V14.9353L19.4491 13.2142V10.5544C19.4491 9.92851 19.1358 9.30267 18.5091 8.91152L12.2428 5.23469C11.6945 4.92177 10.9896 4.92177 10.3629 5.23469L3.93995 8.98975C3.31332 9.30267 3 9.92851 3 10.5544V17.908C3 18.5339 3.31332 19.1597 3.93995 19.5509L10.2846 23.2277C10.8329 23.5406 11.5379 23.5406 12.1645 23.2277L16.4726 20.7243L19.4491 19.0032L23.7572 16.4999C24.3055 16.1869 25.0104 16.1869 25.6371 16.4999L29.0052 18.4556C29.5535 18.7685 29.9452 19.3944 29.9452 20.0985V24.01C29.9452 24.6358 29.6319 25.2617 29.0052 25.6528L25.7154 27.6086C25.1671 27.9215 24.4621 27.9215 23.8355 27.6086L20.4674 25.6528C19.9191 25.3399 19.5274 24.7141 19.5274 24.01V21.5066L16.5509 23.2277V25.8093C16.5509 26.4351 16.8642 27.061 17.4909 27.4521L23.8355 31.1289C24.3838 31.4419 25.0888 31.4419 25.7154 31.1289L32.0601 27.4521C32.6084 27.1392 33 26.5134 33 25.8093V18.3774C33 17.7516 32.6867 17.1257 32.0601 16.7346L25.7154 13.0577Z" fill="#8247E5"/>
</svg>
