<svg xmlns="http://www.w3.org/2000/svg" viewBox="0 0 281.52 285.67"><path d="M.02 245.37h281.5v17.5H.02z" fill="#4e352e"/><path d="M71.82 285.57c-21 0-21.1-62 0-62s21.1 62 0 62zm148.5-56a7.51 7.51 0 0 0-2.5-2.2c1.7 7.1 3.4 24.1-3.4 24.1-.2-5.4-.1-21.1-4.9-25.6-3 .9-8.5 3.6-11.5 11.3a53.88 53.88 0 0 0-2 9.4v.3h0c-2.1 17.6 3 38.8 15.3 38.8 12.8 0 17.8-23.1 15-41a3.29 3.29 0 0 1-2.2.8c.2-5.1-1.3-12.3-3.8-15.9zm40.5-6c-21.1 0-21 62 0 62s21-62 0-62zm-225.6 0c-21.1 0-21 62 0 62s21.1-62 0-62z" fill="#e45325"/><path d="M42.92 271.77a10 10 0 0 0 6.4-2.3c-2.3 9.2-7 16.1-14 16.1-18.6 0-20.8-48.6-6.4-59.7-4.7 18.4-.1 45.9 14 45.9zm225.5 0c-14 0-18.7-27.6-14-45.9-14.4 11.1-12.2 59.7 6.4 59.7 7 0 11.7-6.9 14-16.1a10 10 0 0 1-6.4 2.3zM198 237c-5.9 18.2-1.5 48.6 13.2 48.6 7 0 11.7-6.9 14-16.1a10.65 10.65 0 0 1-6.4 2.3c-13.4 0-18.2-25-14.6-43.2a20 20 0 0 0-6.2 8.4zM65.4 225.9C51 237 53.2 285.6 71.8 285.6c7 0 11.7-6.9 14-16.1a10.65 10.65 0 0 1-6.4 2.3c-13.98-.03-18.68-27.53-13.98-45.93z" fill="#be3a26"/><path d="M122 240.87c-1.1-.3-14.4-32.9-14.4-32.9s9.3-6.6 9.8-8.6c-2.7-2.7-5.3-8.1-5.3-8.1a40.45 40.45 0 0 0 1.5 6.6s-4-1.8-5.3-5l-8.7 12.4s14.7 33.8 14.6 35.6c-5.5-1.2-10.6 4.6-10.6 4.6 10.7 1.1 7.2 19.5 0 17.5 5.1 11.7 11.2 4.8 11.7-15.1 2.3 1.6 10.4 13 1 15.1 8.7 15.9 18.2-4.4 5.3-16 6.7.5 17.1 8.6 9.1 16 2.9 7.6 8.6 3.6 9.5-2.1 1.32-10.6-8.58-17.6-18.2-20zm96.32-19c-2.7-3.9-6.7-3.9-10.9-1.4-9.2.3-14.9-.9-43.3 2.8 0 0-.2-2.2-.4-5.3-2.4.3-4.8.4-7.3.5l2.6 13.2c7.6-.3 30.5-5.7 41.5-5.7-4 4.3-10.1 15.9-4.4 20.9.9-15.2 9.5-19.78 13.4-21 3.84 4.64 4.7 20.3 4.9 25.6 6.8 0 5.3-16.9 3.6-24a10.59 10.59 0 0 1 2.3 2.1c2.5 3.5 3.38 10.86 3.8 15.9 7.8 0 2.88-23.4-5.8-23.6z" fill="#2d1e1c"/><path d="M203.32 191.17c-23.6 12-53.7 12.3-38.3-17.4a52.27 52.27 0 0 0-3.4 4c2.8-9.9 11.3-18.8 19.2-24.9a93.52 93.52 0 0 0-11.2 6.7c12.9-18.1 25.6-12.5 31.6-38.4-4.7 16.8-23.7 28-40.6 32.5h0c-16.1 9.2-60.4-1.3-74.7-5.8 10-.8 13.7-1.4 13.7-1.4-10.4-3.2-21.9-9.2-33.3-13.3.5 8.2 2.4 16.7 5.6 23.3-1.7-9.2 0-13.8 0-13.8s3.3 19.5 11 30.8c-3-12.1-1.7-16.2-1.7-16.2s6.2 23.3 15.3 31.3a33.74 33.74 0 0 1-1-13.2s1.7 4.6 12.4 13.2c-2.7-6.5 3.7-4.2 8.7 2.7s8 7.5 21.7 4.8c-10 5.7 6 9.7 16.3 8.4-7.4 4.7 16 3.5 29.3.3-7 5.4 17.3 3.1 21.3.4 1.2-.8 3.9-.8 6.9-.2 1.2-.8 2.3-1.6 3.4-2.4-7.52 3.8 5.48-20.5-12.2-11.4z" fill="#f2f2f2"/><path d="M178.92 214.37c-18.7 7.2-47.1 4.2-70.8-5.3a8.17 8.17 0 0 1-.4-1.1s9.3-6.6 9.8-8.6c-2.7-2.7-5.3-8.1-5.3-8.1a40.45 40.45 0 0 0 1.5 6.6s-4-1.8-5.3-5l-8.7 12.4a.1.1 0 0 0 .1.1c-9.3-4.6-17.5-10.2-23.6-16.5 1.4 3.8 2.6 7.5 3.2 9.3-4-5-20.1-21.6-26.2-45.1a102.87 102.87 0 0 0 .6 11.1 97.54 97.54 0 0 1-6.9-28.7 70.92 70.92 0 0 0-.7 9c-2.5-7.1-3.6-16.5-3.8-23.5v-6.6a34 34 0 0 0-1.8 4.6c-.1.4-.2.7-.3 1.1v.1a5 5 0 0 0-.2 1.2 73.25 73.25 0 0 1 .5-22.9c21.2 11.6 45 26.2 59.7 36.6 2.6 1.8-23.1-6.9-20.5-5.1 21.8 14.7 44.6 26.7 66.6 26a62.1 62.1 0 0 0 14.4-2.3c-16.1 9.2-60.4-1.3-74.7-5.8 10-.8 13.7-1.4 13.7-1.4-10.4-3.2-21.9-9.2-33.3-13.3.5 8.2 2.4 16.7 5.6 23.3-1.7-9.2 0-13.8 0-13.8s3.3 19.5 11 30.8c-3-12.1-1.7-16.2-1.7-16.2s6.2 23.3 15.3 31.3a33.74 33.74 0 0 1-1-13.2s1.7 4.6 12.4 13.2c-2.7-6.5 3.7-4.2 8.7 2.7s8 7.5 21.7 4.8c-10 5.7 6 9.7 16.3 8.4-7.4 4.7 16 3.5 29.3.3-7 5.4 17.3 3.1 21.3.4 1.2-.8 3.9-.8 6.9-.2-9.9 6.6-22.4 11.5-38.5 13.8-.2-.1 3.3-1.7 5.1-4.4zm-49.2-37.3c5 2.1 11.5-.7 16.8-7.8-3.52 3-10.52 7-16.8 7.8zm0 16c3.7 1.2 8.6-.4 12.5-4.5a32.07 32.07 0 0 1-12.5 4.5zM89.82 154c-1.2 5.5 1.2 12.4 6.7 17.8a51 51 0 0 1-6.7-17.8z" fill="#b3b3b3"/><path d="M3.92 81c5.1 10.7 20.1 22.1 35.3 30.9a63.27 63.27 0 0 1 1.2-13.4C25.52 90.27 12 83.57 3.92 81zm36.8-73.93c-13.1-10.6-20.6-2.6-16.5 8.1-4-1.9-25-24.9-24.2-10.4.5 8.3 19.8 33.3 39.2 58a229.46 229.46 0 0 1 32.6-11.9c-12.1-19.6-24.9-38.8-31.1-43.8z" fill="#2d1e1c"/><path d="M275.32 149.87c11.7-36.8-1.6-98.1-116.7-94.7-55.5-26-115.8 3.6-154.7 25.8 19.4 6.3 71.2 36.4 96.2 54 2.6 1.8-23.1-6.9-20.5-5.1 21.8 14.7 44.6 26.7 66.6 26 19.6-.6 52.6-14.4 55.8-39 9.9 1.9 13.6 21.3 12.6 22.8 1.3-1.4 2.8-16.2 9.8-19.8 0 0-2.9 8.3-2.1 10.5 3.7-11.7 32.3-13.5 27.7 15.4 1.3-1.3 3.7-9.9 3.7-9.9-3.4 21.4 4.9 30 13 31.4 3.8-.7 11.2-14.3 12.1-22.8a25.24 25.24 0 0 1-3.5 5.4z" fill="#4e352e"/><path d="M45.82 66c10.5-6.5 47.2-22.5 85.2-15-37.4-2-85.2 15-85.2 15zm112.8-10.8a80 80 0 0 0-8.7-3.6 148.82 148.82 0 0 1 31.4 27.6c-3.2-5.6-7-15.6-13.8-24.1-2.9-.03-5.9-.03-8.9.07z" fill="#2d1e1c"/><path d="M168.32 141.17c-42.8 5.8-61.4-6.5-59.7-8.3 19.2 10.2 54 7.9 59.7 8.3zm-71-29c-1.7 1.7 16.9 14.1 59.7 8.3-5.7-.4-40.4 1.9-59.7-8.3zm93 9.2c2 .8 11.3-8.9-.9-30.1.4 2.9 7.9 20.1.9 30.1zm76.7-16.9c-19.8-30.7-51.5-33.4-58.6-31.4 38.58 5.2 54.2 28.93 58.58 31.4z" fill="#6d4d42"/><path d="M263.82 172.67c1.9-2.1 6.6-3.9 8.5-4.8-1.1-.1-4.3.8-7.4 1.8l1.8-2.4c-8.2-1.4-16.4-10-13-31.4 0 0-2.5 8.6-3.7 9.9 4.6-29-24-27.1-27.7-15.4-.8-2.2 2.1-10.5 2.1-10.5-7 3.6-8.5 18.4-9.8 19.8 1-1.5-2.8-20.9-12.6-22.8a31.48 31.48 0 0 1-.9 4.2c-6 25.9-18.7 20.3-31.6 38.4a93.52 93.52 0 0 1 11.2-6.7c-8 6.1-16.4 15-19.2 24.9a52.27 52.27 0 0 1 3.4-4c-15.3 29.7 14.7 29.4 38.3 17.4 17.8-9.1 4.6 15.4 12.2 11.3 10.9-5.8 15.8-15.1 18.7-20.3l-3.5 7.4c7-5.3 9.6-14.5 15.2-15.6-1.7-4-2.5-7.1-1.3-7.9 1.8-1.1 7.5 4.4 9.9 5.7.6-.4.5-1.7.5-1.7a15.72 15.72 0 0 0 4.5 4.4c.5-1.2 1.2-.5 1.3-.5h0a10.89 10.89 0 0 1 5.9 1.9 13.88 13.88 0 0 0-2.8-3.1z" fill="#e45325"/><path d="M245.92 130.87c-7.4-7-16.1-4.2-19.9.6 2.98-8.9 15.9-10.1 19.9-.6zm-16.5 50.4c-1.2 3.4-10.1 14-16.1 14.6 2.68 1.5 15.6-5.6 16.1-14.6zm-37.6-19.1c-2.4 2.4-7.7 6.3-12.7 6.9 1.5.93 8.4-.8 12.7-6.9zm-19.7 18.4c-1.3 1.7-4.3 4.2-7.8 3.9 1.2 1.1 5.8.8 7.8-3.9zm24.2-3.5c-1.3 1.7-4.3 4.2-7.8 3.9 1.2 1.1 5.8.8 7.8-3.9zm25.8-1.3c-1.3 1.7-4.3 4.2-7.8 3.9 1.2 1.1 5.8.8 7.8-3.9zm-23.3 8.2c-1.7 3.5-17.2 13.1-24.1 10.7 2.8 3.2 22.5 0 24.1-10.67z" fill="#be3a26"/><path d="M245.12 147.57c-5.6 3.4-12.3 3.7-17.2-.3 1 3.2 10.8 7.2 17.2.3z" fill="#ed6d23"/><path d="M44.32 64c-21-24.3-41.2-56.5-41.2-61.2 0-.03 16.2 25.97 41.2 61.2zm10.5-15.9c-.2-3-13.9-23-27.6-37.9 16.7 21.8 27.6 37.87 27.6 37.87z" fill="#4e352e"/><path d="M259.52 174.47a13.5 13.5 0 0 1-4.5-4.4s.1 1.3-.5 1.7c-2.4-1.3-8.1-6.8-9.9-5.7-1.2.8-.4 3.9 1.3 7.9 2.4 5.8 6.6 13.6 8.9 18.9.9 2.1 6.5 9.4 6-18.9h0c-.1-.1-.82-.8-1.3.5z"/><circle cx="236.02" cy="138.37" r="11"/><path d="M239.52 132c.2 1.4-1.4 2.8-3.5 3.1s-4.1-.6-4.3-1.9 1.4-2.8 3.5-3.1 4 .47 4.3 1.9zm3.1 12.2a7.82 7.82 0 0 1-4.9 2.7c-.2-.2-.5-.2-.9-.2a1.14 1.14 0 0 0-.7.3 12.11 12.11 0 0 1-6.1-1.5 7.83 7.83 0 0 0 6 2.3 1.49 1.49 0 0 0 1 .3c.4-.1.7-.2.8-.5 2.6-.6 4.7-1.93 4.8-3.43z" fill="#fff"/></svg>
