<svg width="500" height="500" viewBox="0 0 500 500" fill="none" xmlns="http://www.w3.org/2000/svg">
<circle cx="250" cy="250" r="250" fill="#FFFFE9"/>
<path d="M354.052 149.078C354.052 149.078 368.051 114.321 366.24 106.356C364.551 98.6328 364.43 96.2192 351.759 86.8061C346.69 89.099 337.639 92.3574 330.277 90.9092C319.416 88.8576 313.865 85.1165 308.675 80.5306C303.486 75.9447 300.71 69.1866 300.228 65.2041C300.107 64.2387 301.193 63.5146 302.038 64.118C306.503 67.3764 310.124 73.2898 322.795 77.5136C330.036 79.9272 335.949 79.2031 339.57 77.9963C323.519 66.8937 300.228 51.6878 286.349 47.1019C268.609 41.3092 260.644 52.6533 260.644 52.6533L243.99 78.9618C243.99 78.9618 271.988 83.0649 300.59 99.1156C329.071 115.045 354.052 149.078 354.052 149.078Z" fill="#3800D6"/>
<path d="M398.704 188.541C395.204 189.024 389.894 189.024 382.774 187.213C354.897 179.369 337.76 133.39 289.487 104.426C212.372 64.6012 170.978 100.564 170.978 100.564C165.668 104.185 171.099 106.478 171.099 106.478L196.442 119.27L208.39 125.545C208.39 125.545 200.787 135.32 185.339 127.838C180.271 125.666 170.134 125.063 162.289 132.062C153.721 136.769 157.462 150.406 151.187 159.095C145.032 167.784 132.722 166.336 131.395 178.886C130.309 191.679 140.446 194.092 140.687 203.626C140.929 213.16 137.429 218.591 136.463 221.125C136.101 222.211 135.86 223.538 135.86 224.866C135.981 226.676 136.826 228.486 138.032 229.935C138.998 231.021 139.843 231.745 140.808 232.348C144.911 235.124 148.411 238.744 150.704 243.089C151.066 243.813 151.428 244.537 151.911 245.261C152.273 245.865 152.635 246.589 153.118 247.433C155.773 252.14 156.859 257.691 155.893 263.122C155.652 264.57 155.773 266.26 156.255 267.829C157.221 270.725 159.755 272.897 162.772 273.742C167.237 274.828 171.099 277.483 173.754 281.224C173.995 281.465 174.116 281.828 174.357 282.069C177.978 287.138 177.254 295.102 178.702 300.895C180.15 306.688 184.977 308.498 191.977 312.481C198.976 316.463 200.425 322.738 197.528 325.756C194.632 328.773 177.495 321.411 170.616 329.617C165.548 334.324 167.72 337.341 165.186 346.271C162.651 355.322 154.928 348.685 150.825 354.96C146.721 361.236 146.118 367.994 148.17 381.39C150.221 394.785 163.255 413.25 163.255 413.25C163.255 413.25 156.255 388.872 171.461 367.994C184.374 352.788 194.27 350.737 208.872 350.495C223.595 350.133 245.318 363.408 249.783 389.475C252.076 406.733 242.663 416.749 241.939 417.715C240.249 419.646 226.371 434.972 207.907 424.714C202.838 421.214 198.373 417.594 195.356 410.595C193.184 404.198 192.58 395.63 196.201 389.837C199.218 385.01 204.045 383.562 205.493 383.441C207.665 383.2 212.372 383.32 215.389 385.613C218.406 387.906 221.664 391.285 221.061 397.078C220.458 402.871 214.424 404.56 212.131 404.078C210.2 403.716 211.527 403.957 212.01 404.078C208.269 403.836 206.579 400.94 205.855 398.888C205.735 398.406 205.01 398.526 204.89 399.009C203.804 406.974 209.838 412.043 213.458 412.887C217.441 413.732 223.354 413.612 228.181 408.664C232.405 404.44 234.698 400.819 234.698 391.527C234.698 383.924 231.56 378.614 226.371 374.028C219.613 367.753 210.682 365.339 204.528 365.822C198.735 366.304 188.598 368.718 181.96 379.217C175.806 388.872 173.151 402.147 178.34 416.991L178.581 417.473C190.408 445.109 218.044 452.109 237.112 452.109C240.974 452.109 244.473 451.867 247.37 451.385C247.973 451.264 261.61 449.213 274.885 441.006C291.298 430.145 301.073 414.456 301.073 390.199C301.073 357.977 286.953 336.496 257.99 302.947C252.438 296.068 229.871 268.191 225.768 262.76C205.614 236.693 183.046 206.04 194.27 182.748C194.632 182.024 194.994 181.421 195.356 180.697C212.131 149.923 259.438 157.526 249.059 159.457C231.078 162.474 220.337 170.439 217.079 173.938C213.82 177.438 212.01 180.455 209.838 186.127C206.097 195.42 209.114 209.781 217.079 222.332C251.714 271.449 302.883 332.634 309.158 347.358C317.244 365.942 318.451 380.666 318.33 389.717C318.21 398.768 316.037 413.25 316.037 413.25C316.037 413.25 327.985 403.716 333.657 392.13C339.329 380.545 340.294 374.993 338.605 370.649C336.794 366.304 332.329 366.184 330.519 359.064C328.709 351.943 333.777 345.668 328.467 334.324C326.174 329.376 313.986 322.135 307.71 314.17C301.435 306.205 289.97 291.965 281.402 280.5C265.955 259.984 260.886 252.985 251.956 241.399C261.61 244.296 273.678 248.278 301.435 235.365C327.14 248.52 344.759 247.795 350.914 247.433C357.069 247.071 362.862 244.296 367.327 240.796C370.223 238.503 372.395 233.917 373.723 230.9C374.206 229.814 373.12 228.848 372.033 229.21C350.431 238.141 330.519 230.9 306.021 217.263L301.676 214.849L297.332 217.142C271.627 230.9 244.594 220.159 242.18 219.194C241.215 218.711 233.853 214.849 230.595 208.333C227.337 201.816 226.612 194.937 229.026 189.144C230.957 184.438 235.543 181.3 243.025 179.731C249.18 179.007 257.145 181.3 263.541 183.834C264.989 184.438 266.317 182.99 265.713 181.662C264.989 179.731 264.506 177.68 264.506 175.507C264.506 171.887 265.713 168.628 267.644 165.973L276.212 169.956C274.764 171.404 273.919 173.576 274.161 175.99C274.523 179.128 277.178 181.783 280.316 182.145C284.539 182.748 288.039 179.61 288.401 175.628L296.487 179.369C295.039 185.283 290.453 189.868 284.539 191.317C283.333 191.558 283.212 193.127 284.419 193.489C295.401 198.678 327.502 213.643 327.502 213.643C327.502 213.643 346.087 224.021 362.379 221.97C378.067 221.125 385.067 208.695 375.774 209.901C366.482 211.108 344.518 201.574 344.518 201.574L329.795 194.696L335.95 185.162C335.95 185.162 356.948 197.109 375.533 201.212C387.843 203.867 396.17 196.868 400.393 191.799C401.721 190.472 400.514 188.3 398.704 188.541ZM226.854 146.664C219.01 147.63 207.062 151.25 200.304 154.509C197.77 155.716 195.597 156.922 193.787 158.009C187.874 161.87 182.564 167.663 178.34 175.628C161.807 207.729 192.098 247.071 216.475 278.69C220.578 284 224.319 288.948 227.699 293.534C232.888 300.654 238.56 307.653 244.111 314.291C258.352 331.79 274.04 350.375 280.798 371.011C282.609 378.252 282.85 385.01 282.005 390.441C279.109 407.336 264.386 413.129 264.386 413.129C266.558 406.129 267.765 397.078 266.437 386.7V386.458C261.972 362.201 242.301 340.72 242.301 340.72C237.594 334.445 232.526 327.928 228.423 322.618C187.029 269.397 182.926 263.363 173.151 245.623L173.03 245.382C172.789 244.899 172.427 244.296 172.064 243.692C166.392 234.158 151.187 208.695 157.824 182.024C159.393 175.869 162.169 170.318 166.151 165.491C190.408 133.993 236.87 144.734 226.854 146.664Z" fill="#3800D6"/>
</svg>
