<svg xmlns="http://www.w3.org/2000/svg" width="533.333" height="533.333" viewBox="0 0 400 400" preserveAspectRatio="xMidYMid meet"><path d="M217.4 24c-4.1 1.3-6.7 4.2-14.5 16.8l-6.8 10.7 5.7 1.2c16.5 3.4 41.2 14.1 52.3 22.5 11.4 8.7 26.9 24.3 34.4 34.4 1 1.5 1.7.4 4.4-7.2 5.5-15.1 7.5-23.6 6.6-29-.6-4-1.5-5.6-6-9.9l-5.3-5.2-5.9 1.9c-10.8 3.7-23.4.5-32-8.2-3.9-3.8-7.4-11.2-6.1-12.6.3-.3 3.5 1.7 7 4.4 7.4 5.6 16.8 8.8 22.6 7.7l3.6-.7-12.9-8.4c-24-15.8-38-21.2-47.1-18.4zm-52 34c-8.1 1.1-13.5 2.6-20.3 5.6-7.5 3.3-13.2 7.4-12.9 9.2.2.8 7.2 4.9 15.6 9.1 8.4 4.3 15.7 8.2 16.3 8.8.8.8.4 1.5-1.2 2.7-4 2.8-8.3 3-14.8.7-8-2.8-11.6-2.6-18 .5-6.2 3.1-7.5 5-9.1 12.9-1.9 9.9-4.5 14.2-10.6 17.6-3 1.7-6.5 4.5-8 6.2-3.6 4.3-3 10.5 1.6 17.2 4.1 6 4.9 12.1 2.5 18.5-3.5 9.3-3.3 10.2 3.3 16.7 7.9 7.7 11.2 14.3 11.2 22.3 0 7.5 1 9.5 5.5 11 4.3 1.4 9.1 5.3 11 8.9.7 1.5 1.7 5.5 2.1 8.9.8 7.5 2.5 9.9 10.3 14.6 5.9 3.6 8.6 7.4 7.6 10.7-.6 1.7-1.7 1.9-10.6 1.9-9.4 0-10 .1-12.9 2.7-2.4 2.2-3.3 4.1-4.2 9.2-1.2 7.2-3.4 10.1-7.6 10.1-1.8 0-3.8 1-5.3 2.6-2.3 2.4-2.4 3.3-2.4 14.2 0 11.7 0 11.7 4.1 20.2 2.3 4.7 4.9 9.4 5.8 10.5 1.4 1.9 1.5 1.4 1.6-6.5 0-13.7 4.3-24.2 12.9-32.3 7.3-6.9 12.7-9 23.8-9.5 8.6-.4 9.6-.2 15.7 2.6 16 7.5 25.9 27.2 21.7 42.9-3.7 13.8-17.5 22.7-29.9 19.3-5.9-1.5-14.6-10-16.1-15.5-2.3-8.3-.7-15.5 4.3-19.7 2.7-2.3 9.9-2.3 13.3-.1s5.6 7.5 4.4 10.5c-2 5.2-8.1 6.8-11.2 3-2.2-2.7-2.9-1.8-1.8 2.1 2.5 9 13.5 10.3 20.5 2.5 4.9-5.3 5.6-16.5 1.5-23.2-2.3-3.7-9.1-8.8-14-10.4-13.1-4.5-27.5 3.9-31.7 18.5-5.2 18 4.8 38.6 22.9 47.2 28 13.4 63.3 3.7 75.9-20.6 4.7-9 5.9-14.8 5.9-26.8-.1-21.3-7-37.3-26.8-61.6-51.3-63.2-59.3-74.5-64.4-91.3-5.7-18.4 2.8-34 22.6-41.2 7.2-2.6 18.7-4.1 23.1-2.9 2.6.6 1.9 1-6.6 3.9-10.9 3.7-16.7 7.1-20.4 11.9-9.2 12-7.3 27.5 5.5 45l42.4 56.2c29.5 38 34.4 46.2 38 63.6 1.6 7.5 1.9 23.3.6 31.2-.4 2.6-.5 4.7-.2 4.7 1.2 0 9.9-9.5 12.3-13.5 3.3-5.3 6.8-14.9 6.8-18.4 0-1.7-1.2-4.1-3.1-6.2-4.3-4.8-5-7.2-4.3-14.5 1-9.5-1-13.9-9.9-21.5-3.9-3.4-10.3-10-14.1-14.8-8.6-10.5-42.6-55.5-42.2-55.8.1-.2 1.8.2 3.7.7 7.8 2.3 19 1 31-3.6l6.7-2.5 5.6 2.5c11.2 5 20.4 7 31.7 7.1 10 0 10.8-.1 15.3-3 4.5-2.8 9.7-9.7 8.4-11.1-.4-.3-3.5.1-7 1-3.6.9-8.5 1.6-11 1.6-7.5 0-19.5-3.7-31.4-9.7l-11.4-5.7-4.7 2.3c-14.2 6.5-34.7 6.7-47 .4-11.1-5.7-15-22.7-6.6-29.2 4.9-3.9 9.6-4.6 17.6-2.7 4 1 7.8 2 8.6 2.3 1.1.5 1.3-.2.8-3.4-.7-4.2.8-11.3 2.4-11.3.5 0 2.3.6 3.8 1.4 2.3 1.2 2.7 2 2.3 4.4-.6 4.6 1.3 7.2 5.3 7.2 2.5 0 3.9-.6 5-2.4 1.4-2.1 1.9-2.3 4.5-1.3 1.9.7 3 1.9 3 3 0 2.4-6.2 8.7-8.5 8.7-4.3 0 .7 2.9 21.4 12.6 26 12.1 29.8 13.4 40.2 13.4 8.5 0 12.2-1 15.7-4.2 4.1-3.9 3-5.4-4.6-6.1-6.7-.5-19.7-5-30.5-10.4-5-2.5-5-2.5-1.5-7.5l1.9-2.8 5.7 2.9c10.3 5.1 23.7 10 29.4 10.7 6.7.8 11.7-.7 16.4-4.8 5.1-4.5 4.5-5.4-3.9-6.1-13.8-1-19.9-5.5-41.7-30.3-21.8-24.9-34.6-35.8-51.5-43.9-20.9-10.1-45.5-15-63.1-12.5zm16 50c.5.5-.4 1.2-2 1.5-15.6 3.4-26.1 8.4-32.7 15.4-16 17.1-13.4 41 7.8 72 7.3 10.8 33.7 45.5 44.9 59.1 23.3 28.3 31.7 46.3 28.6 61.4-1.2 6.1-5.1 12-10.3 16-4.4 3.3-4.8 3.3-3.6-.7 1.8-6 1.2-19.6-1.2-26.7-4.1-12.6-7.3-17.5-31.9-49.1-32.1-41.4-34.6-44.8-43.8-60.6-12.5-21.4-15.5-30.2-15.6-44.8-.1-12.6 2.3-19.8 9.5-27.8 8.3-9.4 18.9-15 31.4-16.7 6.6-.9 17.5-.3 18.9 1z"/></svg>
