<svg xmlns="http://www.w3.org/2000/svg" width="400" height="400" fill="none"><g clip-path="url(#B)"><mask id="A" maskUnits="userSpaceOnUse" x="40" y="40" width="320" height="320"><path d="M360 40H40V360H360V40Z" fill="#fff"/></mask><g mask="url(#A)"><path d="M337.216 255.982V71.069c-.345-15.481-12.598-27.866-28.133-27.866H115.426C73.657 43.891 40 77.95 40 119.748c0 14.105 3.797 26.146 9.666 36.811 4.833 8.773 12.6 17.029 20.194 23.394 2.071 1.72 1.036 1.031 7.594 5.16 9.148 5.505 19.504 8.256 19.504 8.256v110.604c.173 5.161.863 10.321 2.071 14.965 4.315 15.481 15.189 27.522 29.86 33.371 6.213 2.408 13.118 4.128 20.539 4.128l154.649.516c30.895 0 55.923-24.941 55.923-55.731 0-18.75-8.975-35.092-22.784-45.24z" fill="#ffeeda"/><path d="M341.25 302.451c-.693 19.862-16.972 35.752-36.89 35.752l-106.86-.345c8.486-9.845 13.682-22.626 13.682-36.444 0-21.935-13.162-36.961-13.162-36.961h106.34c20.436 0 36.89 16.581 36.89 36.961v1.037z" fill="#ebc28e"/><path d="M79.849 163.772c-12.248-11.558-20.873-26.566-20.873-44.506v-1.898c1.035-30.361 26.049-54.857 56.41-55.892h193.553c5.002.172 9.142 3.795 9.142 8.97v163.709c4.485.863 6.555 1.38 10.869 2.932 3.278 1.208 8.107 3.969 8.107 3.969V70.446C336.712 54.92 324.464 42.5 308.939 42.5H115.386C73.639 43.19 40 77.346 40 119.266c0 24.323 11.041 45.197 29.326 59.86 1.207 1.035 2.415 2.243 5.693 2.243 5.693 0 9.66-4.487 9.488-9.489-.172-4.14-1.898-5.693-4.658-8.108zm224.259 81.423H152.301c-10.178 0-18.459 8.453-18.459 18.631v21.736c.345 10.005 8.971 18.803 18.976 18.803h11.213v-18.803h-11.213v-21.391h6.21c19.148 0 33.295 17.768 33.295 36.917 0 16.905-15.354 38.469-41.057 36.744-22.944-1.553-35.192-21.909-35.192-36.744V115.987c0-8.28-6.728-15.18-15.18-15.18H85.713v18.975h11.213v181.306c-.517 36.916 26.221 55.546 54.167 55.546l153.015.518c30.878 0 55.891-25.013 55.891-55.892s-25.013-56.065-55.891-56.065zm36.743 57.1c-.69 19.838-16.906 35.709-36.743 35.709l-106.438-.345c8.453-9.834 13.628-22.599 13.628-36.399 0-21.908-13.11-36.917-13.11-36.917h105.92c20.355 0 36.743 16.561 36.743 36.917v1.035zm-76.418-179.234h-115.58v-18.803h115.58c4.657 0 8.28 3.795 8.28 8.28v2.243c0 4.657-3.795 8.28-8.28 8.28zm0 89.186h-115.58v-18.804h115.58c4.657 0 8.28 3.795 8.28 8.28v2.243c0 4.486-3.795 8.281-8.28 8.281zm20.007-44.506H148.677v-18.803H284.44c4.657 0 8.28 3.795 8.28 8.28v2.243c.172 4.485-3.623 8.28-8.28 8.28z" fill="#190602"/></g></g><defs><clipPath id="B"><path fill="#fff" transform="translate(40 40)" d="M0 0h320v320H0z"/></clipPath></defs></svg>