<svg width="600" height="600" viewBox="0 0 600 600" fill="none" xmlns="http://www.w3.org/2000/svg">
<g clip-path="url(#clip0_11487_104319)">
<path d="M300 600C465.685 600 600 465.685 600 300C600 134.315 465.685 0 300 0C134.315 0 0 134.315 0 300C0 465.685 134.315 600 300 600Z" fill="url(#paint0_radial_11487_104319)"/>
<path d="M464.422 254.277H431.496C413.442 203.989 364.676 169.472 300.484 169.472H194.789V254.208H158.059V284.644H194.789V316.532H158.059V346.968H194.789V430.736H300.415C363.915 430.736 412.267 396.565 430.874 346.968H464.422V316.532H438.275C438.898 311.137 439.313 305.603 439.313 300.069V299.308C439.313 294.328 439.036 289.417 438.552 284.644H464.561V254.208L464.422 254.277ZM224.395 196.588H300.484C347.66 196.588 382.661 219.76 398.847 254.208H224.395V196.588ZM300.484 403.343H224.395V346.899H398.64C382.384 380.724 347.452 403.343 300.484 403.343ZM408.739 300.761C408.739 306.156 408.393 311.414 407.632 316.463H224.395V284.575H407.701C408.324 289.555 408.739 294.743 408.739 300V300.761Z" fill="white"/>
</g>
<defs>
<radialGradient id="paint0_radial_11487_104319" cx="0" cy="0" r="1" gradientUnits="userSpaceOnUse" gradientTransform="translate(196 143.5) rotate(54.1675) scale(497.082)">
<stop stop-color="#8DD053"/>
<stop offset="1" stop-color="#41A035"/>
</radialGradient>
<clipPath id="clip0_11487_104319">
<rect width="600" height="600" fill="white"/>
</clipPath>
</defs>
</svg>
