<svg xmlns="http://www.w3.org/2000/svg" viewBox="0 0 229.8 207.6"><path d="M181.1 31.6l-45.9 18.2H92.5L48.7 31.4l9.9 60.1-9.5 32.5L74 138.9c11.8 7 22.3 15.9 31.4 26.2l9.7 11.1 10.2-11.7a129.47 129.47 0 0 1 30.2-25.5l24.4-15-8.8-32.5 10-59.9zM150.8 133c-8.3 5.1-16 11.2-23 17.9l-8.5-9.2 31.5-8.7zm-40.3 8.6l-8.3 9.2c-7-6.7-14.8-12.6-23.1-17.7l31.4 8.5zm-8.2-10l-44.1-12 6-20.6 38.1 32.6zM85.7 55.2L64.8 82.5l-6.4-38.8 27.3 11.5zm71.5 40.3l-42.3 36.9-43.1-36.9h85.4zm-87-7.6l23.4-30.6h40.6l26 30.6h-90zm95 10.6l5.7 21.1-43.6 12 37.9-33.1zm6.2-55L165 82l-22.8-26.8 29.2-11.7z" fill="#131e29"/></svg>
