<svg width="100" height="100" viewBox="0 0 100 100" fill="none" xmlns="http://www.w3.org/2000/svg">
    <path d="M83.6396 68.0941L72.0839 80.1692C71.8327 80.4315 71.5287 80.6407 71.191 80.7836C70.8533 80.9265 70.4889 81.0002 70.1208 81H15.3415C15.0801 81 14.8245 80.9256 14.6059 80.7859C14.3873 80.6463 14.2154 80.4475 14.1112 80.2139C14.007 79.9803 13.9751 79.7222 14.0194 79.4712C14.0638 79.2202 14.1824 78.9873 14.3607 78.8011L25.925 66.726C26.1756 66.4644 26.4785 66.2557 26.8151 66.1128C27.1518 65.9699 27.515 65.8958 27.8822 65.8952H82.6584C82.9198 65.8952 83.1755 65.9697 83.3942 66.1093C83.6125 66.249 83.7844 66.4478 83.8891 66.6814C83.993 66.915 84.0249 67.173 83.9805 67.424C83.9362 67.675 83.8177 67.9079 83.6396 68.0941ZM72.0839 43.7784C71.8327 43.5161 71.5287 43.3069 71.191 43.164C70.8533 43.0211 70.4889 42.9474 70.1208 42.9476H15.3415C15.0801 42.9476 14.8245 43.022 14.6059 43.1617C14.3873 43.3014 14.2154 43.5002 14.1112 43.7337C14.007 43.9673 13.9751 44.2255 14.0194 44.4765C14.0638 44.7274 14.1824 44.9603 14.3607 45.1466L25.925 57.2216C26.1756 57.4833 26.4785 57.6919 26.8151 57.8348C27.1518 57.9777 27.515 58.0518 27.8822 58.0524H82.6584C82.9198 58.0524 83.1755 57.978 83.3942 57.8383C83.6125 57.6986 83.7844 57.4998 83.8891 57.2663C83.993 57.0327 84.0249 56.7745 83.9805 56.5235C83.9362 56.2726 83.8177 56.0397 83.6396 55.8534L72.0839 43.7784ZM15.3415 35.1048H70.1208C70.4889 35.1049 70.8533 35.0313 71.191 34.8884C71.5287 34.7454 71.8327 34.5363 72.0839 34.274L83.6396 22.1989C83.8177 22.0127 83.9362 21.7798 83.9805 21.5288C84.0249 21.2778 83.993 21.0197 83.8891 20.7861C83.7844 20.5526 83.6125 20.3537 83.3942 20.2141C83.1755 20.0744 82.9198 20 82.6584 20H27.8822C27.515 20.0006 27.1518 20.0747 26.8151 20.2176C26.4785 20.3605 26.1756 20.5692 25.925 20.8308L14.3637 32.9059C14.1855 33.0918 14.067 33.3245 14.0225 33.5752C13.9781 33.8259 14.0097 34.0839 14.1136 34.3173C14.2174 34.5508 14.3889 34.7496 14.607 34.8895C14.8251 35.0294 15.0804 35.1042 15.3415 35.1048Z" fill="url(#paint0_linear_1077_3)"/>
    <defs>
        <linearGradient id="paint0_linear_1077_3" x1="19.9088" y1="82.4538" x2="75.6889" y2="17.9182" gradientUnits="userSpaceOnUse">
            <stop offset="0.08" stop-color="#9945FF"/>
            <stop offset="0.3" stop-color="#8752F3"/>
            <stop offset="0.5" stop-color="#5497D5"/>
            <stop offset="0.6" stop-color="#43B4CA"/>
            <stop offset="0.72" stop-color="#28E0B9"/>
            <stop offset="0.97" stop-color="#19FB9B"/>
        </linearGradient>
    </defs>
</svg>
