<?xml version="1.0" encoding="utf-8"?>
<!-- Generator: Adobe Illustrator 18.1.1, SVG Export Plug-In . SVG Version: 6.00 Build 0)  -->
<svg version="1.1" id="Layer_1" xmlns="http://www.w3.org/2000/svg" xmlns:xlink="http://www.w3.org/1999/xlink" x="0px" y="0px"
	 viewBox="0 0 153.6 216.6" enable-background="new 0 0 153.6 216.6" xml:space="preserve">
<g>
	<path fill="#8D8EF9" d="M66.8,90.7c11.7,9.1,25,15.9,35.8,26.3c17.3,16.7,25.6,39.2,14.9,62.4c-11.2,24.2-39,43.1-70.8,35.5
		c-27-6.5-45.7-29.6-46.6-57.5c-0.4-12.7,2.1-24.6,8.7-35.5c1.2-1.9,1.1-3-1-4.1c-1.6-0.8-4.2-1.5-4.1-3.2c0.1-1.7,2.8-2,4.5-2.9
		c8.1-4.2,16.2-8.4,24.3-12.5c1.1-0.6,2.1-1.4,3.8-1.4c-0.5,12.1-1,24.1-1.6,36.4c-2.6-0.8-4.5-2.3-6.5-3.7
		c-1.7-1.2-2.6-1.3-3.8,0.7c-13.8,24-3.6,59.3,27.4,66c19.7,4.3,37.4-6.7,45.9-19.9c9.8-15.3,8-30.6-4.9-44.4
		c-2.7-2.9-5.6-5.7-8.5-8.5c-1.9-6.5-6-11.9-9-17.9C72.5,101.3,68.9,96.4,66.8,90.7z"/>
	<path fill="#51559C" d="M66.8,90.7c2.1,5.7,5.7,10.6,8.4,16.1c3,6,7.1,11.4,9,17.9c-7.9-5.4-16-10.7-23.7-16.4
		c-8.9-6.5-16.2-14.5-21.4-24.3c-7.5-14.3-8.5-29.3-1.8-44.1C46.7,18.8,62.9,5,85.7,0.9c24.5-4.5,49.1,8.8,60.5,31
		c10.4,20.2,9.5,40.2-1.5,59.8c-2.1,3.7-1.6,5.4,2,6.9c1.5,0.6,2.7,1.7,4.8,3c-11.3,5.8-22.2,11.4-33.7,17.4
		c0.5-12.7,1-24.8,1.6-37.6c2.2,1.4,4,2.4,5.7,3.6c1.7,1.2,2.7,1,3.8-0.8c12.6-20,7.2-46.7-12.3-59.8c-15.9-10.7-36.3-8.5-50.9,5.4
		c-5.6,5.3-10.3,11.2-13,18.6c-5.2,14.4-0.5,26.4,9,37.2C63.3,87.4,65.1,89,66.8,90.7z"/>
</g>
</svg>
