<svg xmlns="http://www.w3.org/2000/svg" width="18" height="18" fill="#44f1a6"><path d="M9 12.231v3.461a7.85 7.85 0 0 1-7.846-7.846A7.85 7.85 0 0 1 9 0a5.08 5.08 0 0 0-5.077 5.077c0 1.577.719 2.985 1.846 3.916 0 1.791 1.446 3.237 3.231 3.237z"/><path d="M5.769 9H2.308a7.85 7.85 0 0 1 7.846-7.846A7.85 7.85 0 0 1 18 9a5.08 5.08 0 0 0-5.077-5.077c-1.577 0-2.985.719-3.916 1.846-1.791 0-3.237 1.446-3.237 3.231z"/><path d="M9 5.769V2.308a7.85 7.85 0 0 1 7.846 7.846A7.85 7.85 0 0 1 9 18a5.08 5.08 0 0 0 5.077-5.077c0-1.577-.719-2.985-1.846-3.916 0-1.791-1.447-3.237-3.231-3.237z"/><path d="M12.231 9h3.461a7.85 7.85 0 0 1-7.846 7.846A7.85 7.85 0 0 1 0 9a5.08 5.08 0 0 0 5.077 5.077c1.577 0 2.985-.719 3.916-1.846 1.791 0 3.237-1.447 3.237-3.231z"/></svg>
