<?xml version="1.0" encoding="utf-8"?>
<!-- Generator: Adobe Illustrator 26.1.0, SVG Export Plug-In . SVG Version: 6.00 Build 0)  -->
<svg version="1.1" id="Layer_1" xmlns="http://www.w3.org/2000/svg" xmlns:xlink="http://www.w3.org/1999/xlink" x="0px" y="0px"
	 viewBox="0 0 1000 1000" style="enable-background:new 0 0 1000 1000;" xml:space="preserve">
<style type="text/css">
	.st0{fill:#10101E;}
	.st1{fill:url(#SVGID_1_);}
</style>
<g id="Layer_1_00000121986383452566573680000002315842314016057507_">
	<g>
		<g>
			<g>
				<g>
					<path class="st0" d="M857.8,444.1H142.2c-14.8,0-26.9-11.5-26.9-25.6c0-167.9,172.6-304.4,384.7-304.4
						c96.7,0,194.7,34.3,268.9,94.1c73.5,59.3,115.7,135.9,115.7,210.1C884.7,432.5,872.6,444.1,857.8,444.1z M151.4,408.2h697
						C840.6,286.5,691.2,149.9,500,149.9C315.4,149.9,158.7,267.2,151.4,408.2z"/>
				</g>
				<g>
					<path class="st0" d="M765,809.9H234.2c-65.1,0-118.1-53.3-118.1-118.7v-46.4c0-15,12.2-27.2,27.1-27.2h46.7
						c0.8,0,2.6,0,4.7,0.4l0,0c1.1,0.2,2.5,0.5,3.9,1c0.7,0.2,1.4,0.5,2,0.7l3.4,1.7c1,0.6,1.7,1.1,2.5,1.7c2.9,2.1,5.4,5,7.2,8.2
						l0.9,1.8c0.3,0.7,0.7,1.5,0.9,2.2c1.1,3,1.7,6.2,1.7,9.4v31c0,10.3,10.9,20,22.5,20c10.7,0,21.8-8.1,21.8-21.6v-15
						c0-2.2,0.1-4.2,0.5-6.1c0.1-0.8,0.2-1.5,0.4-2.3c0.1-0.7,0.3-1.3,0.5-2l0.5-1.9c0.8-2.3,1.6-4.5,2.6-6.4
						c0.7-1.3,1.5-2.7,2.3-3.9l2-2.9c1.6-1.9,3.2-3.7,4.9-5.2c0.9-0.8,1.9-1.7,2.8-2.4c0.6-0.5,1.5-1.2,2.7-1.9
						c0.7-0.5,1.4-0.9,2.1-1.3c3.1-1.8,6.4-3.1,9.9-4c0.9-0.2,1.7-0.5,2.6-0.6c0.9-0.2,1.9-0.4,2.8-0.5l1.9-0.2
						c0.7,0,1.4-0.1,2.2-0.1c0.3,0,1.1,0,1.8,0l0,0c0.7,0,1.4,0,2.1,0.1l0.8,0.1c0,0,3.4,0.4,4.7,0.7l0,0c2.1,0.4,4.2,1.1,5.8,1.7
						c1.8,0.5,3.5,1.3,5.3,2.3c1.4,0.7,2.7,1.5,4,2.5c2.3,1.6,4.2,3.2,5.9,5c8.8,8.8,11.2,21,11.9,25.8c0.3,2.6,0.6,3.6,1,5.3
						c0.3,1.2,0.6,2.5,1,4.4l0,0c0,0,3.6,10.3,15.3,10.3c9.3,0,13.4-3,15.8-11.6c0.7-2.4,1.1-7.7,1.5-12c1.1-12.9,3-34.5,22.9-34.5
						c12.1,0,454.4-0.1,454.4-0.1l0,0c15,0,27.2,12.2,27.2,27.2V691C883.1,756.7,830.1,809.9,765,809.9z M152,653.5v37.7
						c0,45.7,36.9,82.9,82.2,82.9H765c45.3,0,82.2-37.2,82.2-82.9v-37.7c-55.9,0-364.8,0.1-432.7,0.1c-0.1,0.6-0.1,1.2-0.2,1.8
						c-0.5,6.3-1.1,12.8-2.6,18.3c-6.6,24.2-25,38.1-50.3,38.1c-31.9,0-47.7-26.1-50.4-38.8c-0.3-1.6-0.6-2.8-0.8-3.7
						c-0.6-2.7-1-4.4-1.6-8.6c-0.3-2.4-1.3-4.7-1.8-5.4l-0.5-0.5c0,0-0.2-0.1-0.4-0.2l-1.4-0.6c-0.4-0.1-0.7-0.2-1-0.3h-0.1l0,0
						h-0.6l-1.7,0.3c-0.3,0.1-0.5,0.2-0.7,0.2l-1.6,1.2c-0.1,0.1-0.2,0.1-0.2,0.2c-0.1,0.1-0.1,0.2-0.2,0.3l-0.8,1.2
						c0,0,0,0.2-0.1,0.5l-0.3,1.5v15.2c0,31.7-25.9,57.5-57.7,57.5c-31.6,0-58.4-25.6-58.4-55.9v-22.3L152,653.5L152,653.5z
						 M302.2,653.5l-1.3,0.1c0.4,0,0.7,0,1,0c0.1,0,0.2,0,0.4,0L302.2,653.5z M203.4,621.3L203.4,621.3L203.4,621.3z"/>
				</g>
			</g>
			<g>

					<linearGradient id="SVGID_1_" gradientUnits="userSpaceOnUse" x1="118.6" y1="392.8" x2="880.6" y2="392.8" gradientTransform="matrix(1 0 0 -1 0 924)">
					<stop  offset="0" style="stop-color:#9D00FF"/>
					<stop  offset="1" style="stop-color:#592AFB"/>
				</linearGradient>
				<rect x="118.6" y="498.6" class="st1" width="762" height="65.2"/>
			</g>
		</g>
	</g>
</g>
</svg>
