<svg width="84" height="84" viewBox="0 0 84 84" fill="none" xmlns="http://www.w3.org/2000/svg">
<path d="M37.6615 38.7763L21.7846 54.25L9.50769 41.7237L25.2923 26.25L37.6615 38.7763ZM42.3692 30.3026C37.3846 30.3026 33.3231 26.25 33.3231 21.2763C33.3231 16.3026 37.3846 12.25 42.3692 12.25C47.3538 12.25 51.4154 16.3026 51.4154 21.2763C51.4154 26.25 47.3538 30.3026 42.3692 30.3026ZM41.7231 74.5132L27.1385 59.6842L60 27.5395L74.5846 42.3684L41.7231 74.5132ZM83.1692 40.3421L44.3077 0.828947L44.2154 0.736842C43.5692 0.184211 42.9231 0 42.4615 0C41.5385 0 40.8923 0.460526 40.6154 0.736842L40.5231 0.828947L0.923077 39.6053C0.369231 40.1579 0 40.8947 0 41.7237C0 42.5526 0.276923 43.2895 0.830769 43.8421L20.5846 63.9211C20.6769 64.0132 20.7692 64.1053 20.9538 64.1974L39.5077 83.0789C40.0615 83.6316 40.8 84 41.6308 84C42.4615 84 43.2 83.7237 43.7538 83.1711L83.0769 44.5789C83.6308 44.0263 84 43.2895 84 42.4605C84 41.6316 83.7231 40.8947 83.1692 40.3421Z" fill="#F66033"/>
</svg>
