<svg width="169" height="194" viewBox="0 0 169 194" fill="none" xmlns="http://www.w3.org/2000/svg"><path d="M68.2312 49.5743C66.3468 49.3051 66.257 49.2153 67.1544 49.1256C68.8594 48.8564 72.8078 49.2153 75.5897 49.8435C82.0507 51.369 87.8837 55.3175 94.0755 62.2272L95.6908 64.1117L98.0239 63.7527C107.985 62.1375 118.215 63.3938 126.74 67.3422C129.073 68.4191 132.752 70.5728 133.201 71.1112C133.38 71.2906 133.65 72.4572 133.829 73.6238C134.457 77.8415 134.188 80.9823 132.842 83.4052C132.124 84.7512 132.124 85.1102 132.573 86.2767C132.932 87.1741 134.008 87.8023 134.996 87.8023C137.149 87.8023 139.393 84.3923 140.47 79.6362L140.918 77.7517L141.726 78.6491C146.302 83.7641 149.892 90.8533 150.43 95.8786L150.61 97.2247L149.802 96.0581C148.456 93.9941 147.2 92.6481 145.495 91.4815C142.444 89.4175 139.213 88.7894 130.688 88.3407C122.971 87.892 118.574 87.2638 114.266 85.8281C106.908 83.4052 103.139 80.2644 94.4345 68.6883C90.5758 63.5733 88.1529 60.7914 85.73 58.4582C80.4355 53.3432 75.141 50.6511 68.2312 49.5743ZM135.085 60.9709C135.265 57.5609 135.714 55.3175 136.701 53.2535C137.06 52.4459 137.419 51.728 137.508 51.728C137.598 51.728 137.419 52.3561 137.149 53.074C136.431 55.0482 136.342 57.8301 136.79 60.9709C137.419 65.0091 137.688 65.5475 141.995 69.9446C143.969 72.0085 146.302 74.6109 147.2 75.6878L148.725 77.662L147.2 76.2262C145.315 74.4314 141.008 71.0214 140.021 70.5728C139.393 70.2138 139.303 70.2138 138.854 70.6625C138.495 71.0214 138.406 71.5599 138.406 74.1622C138.316 78.2004 137.777 80.713 136.431 83.3154C135.714 84.6615 135.624 84.3923 136.252 82.8667C136.701 81.7001 136.79 81.1617 136.79 77.303C136.79 69.4959 135.893 67.6114 130.419 64.4706C129.073 63.663 126.74 62.4964 125.394 61.8683C123.958 61.2401 122.881 60.7017 122.971 60.7017C123.15 60.5222 128.445 62.0477 130.509 62.9451C133.65 64.2014 134.188 64.2912 134.547 64.2014C134.816 63.9322 134.996 63.2143 135.085 60.9709ZM71.9104 74.3417C68.1415 69.137 65.7186 61.0606 66.257 55.0482L66.4365 53.1638L67.3339 53.3432C68.9491 53.6124 71.731 54.6893 73.077 55.4969C76.6665 57.6506 78.2818 60.6119 79.8073 67.9704C80.256 70.1241 80.8842 72.6367 81.1534 73.4443C81.6021 74.7904 83.3071 77.9312 84.7429 79.9054C85.73 81.3412 85.1018 82.0591 82.8584 81.8796C79.4484 81.5207 74.8718 78.3799 71.9104 74.3417ZM130.509 113.377C112.741 106.198 106.459 100.007 106.459 89.5073C106.459 87.9817 106.549 86.7254 106.549 86.7254C106.639 86.7254 107.267 87.2639 108.074 87.892C111.664 90.7636 115.702 92.0199 126.919 93.6352C133.47 94.6223 137.239 95.3402 140.649 96.5068C151.507 100.096 158.238 107.455 159.853 117.416C160.301 120.287 160.032 125.761 159.314 128.633C158.686 130.876 156.891 135.004 156.443 135.094C156.353 135.094 156.174 134.645 156.174 133.927C155.994 130.158 154.11 126.569 150.969 123.787C147.2 120.556 142.354 118.133 130.509 113.377ZM117.946 116.339C117.766 114.993 117.317 113.288 117.048 112.57L116.6 111.224L117.407 112.211C118.574 113.557 119.471 115.172 120.279 117.416C120.907 119.121 120.907 119.659 120.907 122.441C120.907 125.133 120.817 125.761 120.279 127.287C119.381 129.709 118.305 131.414 116.51 133.299C113.279 136.619 109.062 138.414 103.049 139.222L96.2292 139.76C89.4989 140.119 85.0121 140.837 80.9739 142.273C80.4355 142.452 79.8971 142.632 79.8073 142.542C79.6278 142.362 82.4097 140.747 84.6531 139.67C87.7939 138.145 91.0244 137.337 98.1137 136.081C101.613 135.542 105.203 134.824 106.1 134.466C114.984 131.684 119.381 124.774 117.946 116.339ZM126.112 130.786C123.778 125.671 123.24 120.826 124.496 116.249C124.676 115.8 124.855 115.352 125.035 115.352C125.214 115.352 125.753 115.621 126.291 115.98C127.368 116.698 129.611 117.954 135.355 121.095C142.623 125.043 146.751 128.094 149.623 131.594C152.135 134.645 153.661 138.145 154.379 142.452C154.828 144.875 154.558 150.708 153.93 153.131C151.956 160.759 147.469 166.861 140.918 170.36C139.931 170.899 139.124 171.258 139.034 171.258C138.944 171.258 139.303 170.36 139.841 169.284C141.995 164.707 142.264 160.31 140.649 155.374C139.662 152.323 137.598 148.644 133.47 142.452C128.535 135.273 127.368 133.389 126.112 130.786ZM59.2575 158.246C65.8981 152.682 74.0641 148.734 81.6021 147.477C84.8326 146.939 90.2168 147.118 93.1781 147.926C97.9342 149.182 102.242 151.875 104.485 155.195C106.639 158.425 107.626 161.207 108.613 167.399C108.972 169.822 109.421 172.335 109.51 172.873C110.228 176.104 111.664 178.616 113.459 179.962C116.241 182.026 121.086 182.116 125.842 180.321C126.65 180.052 127.368 179.783 127.368 179.873C127.547 180.052 125.125 181.667 123.509 182.475C121.266 183.641 119.471 184 117.048 184C112.741 184 109.062 181.757 106.1 177.27C105.472 176.373 104.216 173.77 103.139 171.347C99.9982 164.079 98.3829 161.925 94.7037 159.502C91.4731 157.438 87.3452 156.99 84.2044 158.515C80.0765 160.489 78.9997 165.784 81.8713 169.014C83.0378 170.36 85.1915 171.437 86.9863 171.706C90.3066 172.155 93.1781 169.553 93.1781 166.232C93.1781 164.079 92.3705 162.822 90.2168 161.835C87.3452 160.579 84.2044 162.015 84.2942 164.797C84.2942 165.963 84.8326 166.681 85.9992 167.22C86.7171 167.579 86.7171 167.579 86.1786 167.489C83.5763 166.95 82.9481 163.72 85.0121 161.656C87.5247 159.143 92.8192 160.22 94.6139 163.72C95.3318 165.156 95.4216 168.027 94.7934 169.822C93.2679 173.77 88.9605 175.834 84.5634 174.668C81.6021 173.86 80.3457 173.052 76.7563 169.373C70.4747 162.912 68.0518 161.656 59.078 160.31L57.373 160.041L59.2575 158.246Z" fill="#FF007A"/><path fill-rule="evenodd" clip-rule="evenodd" d="M12.0551 13.8587L66.7947 80.8923C68.1407 82.687 67.6023 84.392 65.3589 85.6484C64.1026 86.3662 61.5002 87.0841 60.2439 87.0841C58.8081 87.0841 57.1031 86.3662 55.9365 85.1997C55.1288 84.392 51.6291 79.277 43.7322 66.983L32.5151 49.6638C32.1562 49.4843 32.1562 49.4843 43.1041 69.047C50.0138 81.341 52.2573 85.7381 52.2573 86.2765C52.2573 87.4431 51.8983 88.0713 50.4625 89.6865C48.0396 92.3786 46.9628 95.4297 46.1551 101.801C45.2578 108.89 42.8349 113.916 35.9251 122.441C31.8869 127.466 31.2588 128.363 30.2717 130.427C29.0154 132.94 28.6564 134.376 28.4769 137.606C28.2975 141.016 28.6564 143.17 29.6435 146.4C30.5409 149.272 31.528 151.156 33.9509 154.836C36.0149 158.066 37.2712 160.489 37.2712 161.386C37.2712 162.104 37.4506 162.104 40.6812 161.386C48.3986 159.592 54.7699 156.541 58.2696 152.772C60.4233 150.439 60.9618 149.182 60.9618 145.952C60.9618 143.888 60.872 143.439 60.3336 142.183C59.4362 140.208 57.7312 138.593 54.052 136.081C49.2062 132.76 47.1422 130.068 46.6038 126.479C46.1551 123.428 46.6936 121.364 49.3857 115.71C52.1675 109.877 52.8854 107.454 53.3341 101.532C53.6033 97.7629 54.052 96.2373 55.1288 95.0707C56.2954 93.8144 57.2825 93.3657 60.0644 93.0068C64.641 92.3786 67.6023 91.212 69.9355 88.9686C71.9994 87.0841 72.8968 85.1997 72.9865 82.4178L73.0763 80.3539L71.9097 79.0975C67.692 74.2517 9.2732 10 9.00399 10C8.91425 10 10.35 11.705 12.0551 13.8587ZM39.6043 141.465C40.5914 139.76 40.053 137.606 38.4378 136.529C36.9122 135.542 34.5791 135.991 34.5791 137.337C34.5791 137.696 34.7585 138.055 35.297 138.234C36.1046 138.683 36.1943 139.132 35.5662 140.119C34.938 141.106 34.938 142.003 35.7456 142.631C37.002 143.618 38.707 143.08 39.6043 141.465ZM75.9478 94.2631C73.7942 94.8913 71.7302 97.2244 71.102 99.5576C70.7431 100.993 70.9226 103.596 71.5507 104.403C72.5378 105.66 73.4352 106.019 75.9478 106.019C80.8834 106.019 85.101 103.865 85.5497 101.263C85.9984 99.1089 84.1139 96.1476 81.5116 94.8015C80.1655 94.0836 77.3836 93.8144 75.9478 94.2631ZM81.691 98.75C82.4089 97.6731 82.1397 96.5065 80.7937 95.6989C78.3708 94.1734 74.6915 95.4297 74.6915 97.7629C74.6915 98.9294 76.576 100.186 78.3708 100.186C79.5373 100.186 81.1526 99.4679 81.691 98.75Z" fill="#FF007A"/>
</svg>
