<svg xmlns="http://www.w3.org/2000/svg" width="56.693" height="56.693" viewBox="0 0 15 15"><path d="M8.632 12.782c.214-.065.439.061.502.282a.42.42 0 0 1-.273.519 4.56 4.56 0 0 1-1.33.205h-.053c-.439 0-.89-.07-1.339-.208a.42.42 0 0 1-.272-.519c.064-.221.289-.347.502-.281.374.115.747.173 1.109.173h.053c.359 0 .73-.058 1.101-.171zm2.958-8.496c.383 1.154.246 2.702-.367 4.145-.838 1.968-2.357 3.335-3.703 3.335h-.038c-1.346 0-2.866-1.367-3.703-3.335-.614-1.442-.751-2.99-.367-4.144h-.001C3.98 2.448 5.624 1.213 7.5 1.213s3.511 1.229 4.085 3.059zm-.984 3.865a6.69 6.69 0 0 1-.979 1.628c.272-1.103.141-2.529-.448-3.913-.308-.723-.716-1.374-1.189-1.904.741-.619 1.513-.821 2.109-.536.382.182.677.556.852 1.08.332.993.203 2.355-.345 3.644zm-6.213 0c-.548-1.289-.677-2.651-.345-3.644.176-.524.47-.898.852-1.08.597-.285 1.368-.083 2.109.536-.474.53-.882 1.181-1.189 1.904-.589 1.384-.72 2.809-.448 3.913a6.69 6.69 0 0 1-.979-1.628zm3.662 2.792a1.32 1.32 0 0 1-.556.127 1.32 1.32 0 0 1-.556-.127c-1.148-.548-1.38-2.745-.507-4.797a6.26 6.26 0 0 1 1.062-1.708c.422.473.787 1.057 1.064 1.708.873 2.052.641 4.249-.507 4.797zm-.556.439v.03.031-.031zm2.115-8.774c-.68-.029-1.422.271-2.115.871-.693-.599-1.435-.9-2.115-.871a3.55 3.55 0 0 1 4.23 0z" fill="#49cc68" fill-rule="evenodd"/></svg>
