<svg xmlns="http://www.w3.org/2000/svg" width="332" height="324" fill="none"><style><![CDATA[.B{fill:#f1ece2}.C{fill:#fdbf41}.D{fill:#404a5a}.E{fill:#c18b00}]]></style><path d="M303.46 250.25l-.64.48-.65.47-1.26.84-.15.1-1.06.65-1.59.92c-3.66 2.04-7.51 3.68-11.44 5.13-3.71 1.36-7.47 2.55-11.26 3.61-5.43 1.52-10.93 2.78-16.48 3.88-5.39 1.08-10.8 1.99-16.23 2.78s-10.88 1.45-16.34 2.02l-5.37.53-10.77.85-5.39.33-12.09.53-2.2.07-2.02.06c1.65-2.04 3.3-4.07 4.81-6.22l.65-.82c3.41-4.58 6.67-9.26 9.79-14.03l.95-.05 5.94-.37 4.5-.33c10.49-.81 20.94-1.97 31.34-3.6a334.11 334.11 0 0 0 9.04-1.54c7.02-1.3 13.98-2.86 20.84-4.82l4.51-1.35 2.25-.73c1.13.2 2.16.67 3.22 1.06a106.26 106.26 0 0 1 2.79 1.07c2.63 1.04 5.21 2.19 7.71 3.52a55.98 55.98 0 0 1 2.92 1.65c1.27.77 2.51 1.58 3.67 2.51.34.27.44.38.31.54-.06.08-.16.16-.32.28l.02-.02z" class="B"/><path d="M206.24 298.56c-.21.13-.44.13-.66.05.06-.04.11-.06.16-.08.09-.03.17-.03.26-.03.08 0 .17.02.25.06h-.01zm-.89.05c-.27.12-.54.13-.83.05.27-.16.55-.14.83-.05zm-1.06.05c-.27.12-.54.13-.83.05.27-.17.54-.15.83-.05zm-1.06.05c-.27.13-.54.13-.82.04 0 0 .02 0 .03-.01a.95.95 0 0 1 .79-.03h0zm-1.62-.01a.99.99 0 0 1 .56.05c-.27.13-.55.13-.83.05.09-.05.18-.08.27-.1zm-.93.02c.14 0 .28.03.43.07-.27.12-.54.13-.82.04a.84.84 0 0 1 .39-.12v.01zm-.83.07c.07.01.13.03.19.05-.26.12-.54.13-.82.05.19-.12.39-.14.59-.1h.02.01.01zm-.87.1c-.32.14-.65.13-.98.04.32-.15.65-.14.98-.04zm-1.22.04c-.27.14-.54.12-.82.04a.91.91 0 0 1 .82-.04zm70.16-63.83c.13.02.28.02.42.04.18.02.36.07.5.22-.37-.03-.73-.11-1.05-.29a.17.17 0 0 1 .07.01c.02 0 .04 0 .07.01l-.01.01z" fill="#5e93ff"/><path d="M115.62 323.3l.08.17-5.58.02.09-.18h1.35 4.05l.01-.01z" fill="#3180f4"/><path d="M283.17 239.63l-2.25.73-4.51 1.35c-6.87 1.96-13.82 3.52-20.84 4.82-3 .56-6.02 1.07-9.04 1.54-10.4 1.63-20.85 2.79-31.34 3.6l-4.5.33-5.94.37-.95.05c2.15-3.29 4.24-6.62 6.26-10 2.92-4.88 5.71-9.83 8.36-14.85 5.06.44 10.11.95 15.16 1.57.37.04.74.12 1.12.18 2.26.16 4.5.5 6.73.83l8.6 1.36c3.86.65 7.72 1.37 11.55 2.2l6.2 1.36c.33.18.68.25 1.05.29 4.42 1.13 8.83 2.32 13.16 3.75.4.13.86.17 1.17.51l.01.01z" class="C"/><path d="M136.13 272.19l5.35.4-5.35-.4z" class="B"/><g class="D"><path d="M79.04 312.04c-.14 0-.26-.04-.35-.15h.03.06c.02 0 .03.01.05.01.01 0 .03 0 .04.01.02 0 .04.02.06.03 0 0 .02 0 .03.01l.06.06.02.03z"/><path d="M78.69 311.89c-.14 0-.27-.03-.35-.16h.1.01c.09.02.17.06.23.15l.01.01z"/><path d="M78.34 311.73c-.15 0-.29-.01-.35-.17l.01-.01c.14 0 .27.03.34.17v.01z"/><path d="M77.99 311.54v.02c-.14 0-.29.02-.34-.17v-.02c.15-.02.28.01.35.17h-.01zm-1.37-.87c.1.07.22.12.33.17l.24.11c.14.07.27.16.36.29a1.14 1.14 0 0 1 .09.16 2.2 2.2 0 0 1-1.24-.53l.22-.2h0z"/></g><g class="B"><path d="M108.69 295.6l-1.16.18a42.6 42.6 0 0 1-4.51.36l-1.51.01c-.51 0-1.01-.02-1.52-.04l-.65-.06-.65-.07c-.28-.02-.49-.14-.7-.32l-1.73-1.68 12.43 1.63v-.01z"/><path d="M173.83 225.69l-8.94.09c-4.96 7.69-10.31 15.11-16.15 22.16l-3.74 4.38a169.19 169.19 0 0 1-10.04 10.53c-3.07 2.94-6.24 5.75-9.55 8.39-2.58 2.07-5.25 4.04-8.02 5.87-5.1 3.38-10.45 6.29-16.21 8.41-2.92 1.07-5.9 1.94-8.98 2.45-.17.03-.33.1-.5.15.01.05.03.11.04.16.01.03.02.06.04.09a24.44 24.44 0 0 0 .67.99 39.85 39.85 0 0 0 1.43 1.92c.74.93 1.53 1.83 2.36 2.69l12.43 1.63a40.93 40.93 0 0 0 3.3-.65c2.53-.6 4.99-1.39 7.4-2.32 1.2-.47 2.39-.97 3.56-1.51a70.15 70.15 0 0 0 3.48-1.72l1.49-.8c3.44-1.89 6.74-4.01 9.9-6.29 3.17-2.29 6.21-4.75 9.16-7.33l1.26-1.12.93-.85c1.89-1.73 3.75-3.51 5.56-5.33l2.08-2.15a199.16 199.16 0 0 0 6.63-7.3c1.29-1.49 2.55-3.01 3.79-4.54.15-.18.3-.37.45-.56l2.53-3.21c2.63-3.4 5.16-6.87 7.6-10.41l3.88-5.8 2.1-3.3 2.8-4.57-12.74-.15h0z"/></g><path d="M60.39 303.72c-.14.03-.25-.01-.3-.16.15-.03.26 0 .3.16z" class="E"/><path d="M148.57 226.31l-6.38.35c-2.33 3.3-4.74 6.55-7.26 9.72-2.47 3.12-5 6.18-7.66 9.15l-4.59 4.99c-1.1 1.16-2.22 2.31-3.37 3.43-4.57 4.47-9.36 8.69-14.51 12.5l-2.6 1.86c-2.89 2.01-5.88 3.87-8.99 5.54-2.25 1.22-4.57 2.3-6.92 3.29.02.11 0 .23.05.34.33.91.68 1.8 1.06 2.69.37.89.77 1.76 1.19 2.62.84 1.72 1.78 3.4 2.8 5.04l.02.02c.07.1.19.19.28.28.17-.05.33-.12.5-.15 3.07-.51 6.05-1.38 8.98-2.45 5.76-2.11 11.11-5.03 16.21-8.41 2.77-1.83 5.44-3.8 8.02-5.87 3.31-2.65 6.48-5.46 9.55-8.39 3.51-3.36 6.84-6.88 10.04-10.53 1.27-1.44 2.51-2.9 3.74-4.38 5.84-7.05 11.19-14.47 16.15-22.16l-16.32.53.01-.01z" class="C"/><g fill="#e7aa24"><path d="M256.12 144.22l-.1-.01c.03 0 .06 0 .1.01z"/><path d="M255.53 144.45c.17 0 .36 0 .25-.27.08 0 .16.02.25.03-.05 0-.09.01-.12.03-.07.05-.07.16-.05.29a3.65 3.65 0 0 1-.33-.02c-.06 0-.13-.01-.19-.02l-.4-.04a8.93 8.93 0 0 1-.9-.17c.51-.03 1 .15 1.5.18l-.01-.01z"/></g><path d="M100.38 247.53l.64.11c-4.17 4.03-8.55 7.81-13.22 11.27-1.7 1.26-3.4 2.52-5.24 3.59-.34-1.47-.49-2.97-.66-4.47-.58-4.78-.8-9.58-.81-14.38l3.49.82a242.2 242.2 0 0 0 10.26 2.1l5.55.97-.01-.01z" class="B"/><path d="M119.47 228.6l-1.49.15c-4.92 6.26-10.17 12.23-15.87 17.82l-1.09 1.06.5.09c-.17-.03-.33-.06-.5-.08-4.17 4.03-8.55 7.81-13.22 11.27-1.7 1.26-3.4 2.52-5.24 3.59.02.2.03.41.05.61 0 .06 0 .11.02.17l.13.69a10.96 10.96 0 0 0 .1.56l.27 1.4c.53 2.64 1.16 5.25 1.95 7.82.36 1.15.65 2.33 1.23 3.41 2.35-.99 4.67-2.07 6.92-3.29 3.11-1.68 6.1-3.54 8.99-5.54.88-.6 1.74-1.22 2.6-1.86 5.15-3.8 9.94-8.03 14.51-12.5 1.15-1.12 2.26-2.27 3.37-3.43 1.56-1.64 3.08-3.31 4.59-4.99 2.65-2.97 5.19-6.03 7.66-9.15 2.51-3.18 4.93-6.42 7.26-9.72-7.58.46-15.15 1.1-22.71 1.94l-.03-.02z" fill="#f10"/><path d="M101.52 247.72l-.5-.08.5.08z" class="B"/><path d="M101.02 247.63l-.64-.11.64.1v.01zm-6.19-1.07l5.55.97-5.55-.97z" fill="#f10"/><path d="M114.73 229.22c1.07-.23 2.16-.35 3.25-.46-4.92 6.26-10.17 12.23-15.87 17.82l-1.09 1.06-.64-.1-5.55-.97c-3.43-.63-6.86-1.32-10.26-2.1l-3.49-.82.07-5.45c.03-1.08.08-2.15.14-3.22 3.95-.94 7.93-1.77 11.92-2.53 6.82-1.29 13.68-2.34 20.56-3.19.11-.01.22-.03.33-.04.13-.02.26-.03.39-.02.08 0 .16.02.24.04v-.02z" class="C"/><path d="M236.38 141.82l11.95 1.46a.47.47 0 0 1-.09.12l-7.42-.91-2.16-.23s-1.44-.16-2.15-.3a.8.8 0 0 0-.13-.13v-.01z" fill="#007fff"/><path d="M216.88 154.19l.44-1.7-.44 1.7zm114.4 79.99v-16.43c-.35-1.53-.83-3.02-1.68-4.36-1.37-2.16-3-4.09-5.04-5.67-2.13-1.65-4.31-3.2-6.66-4.52-3.23-1.81-6.59-3.34-9.96-4.85-.6-.27-1.22-.4-1.82-.64-7.62-2.98-15.46-5.22-23.4-7.15-5.08-1.24-10.2-2.3-15.34-3.26-5.77-1.08-11.57-2.01-17.38-2.81l-12.04-1.5-5.37-.57-15.2-1.31-8.98-.58-7.64-.39-12.02-.41c-.29 0-.58-.02-.87-.02a601.74 601.74 0 0 0-19-.12h-.31a606.55 606.55 0 0 0-19.55.48c-.39.01-.78.04-1.17.05-7.71.33-15.4.81-23.09 1.46-11.29.95-22.54 2.24-33.73 4l-.8.13c-.43 1.52-.82 3.06-1.36 4.55l-1.15 4.55c-1.03 4.03-1.96 8.08-2.77 12.16l1.71-.29 2.24-.38 3.33-.54 12.06-1.69 12.1-1.36 8.09-.75 12.26-.89 11.55-.59 2.97-.13 4.42-.15 2.86-.07 10.41-.17 3.92-.02 6.71.02 2.43.03 2.61.03 7.1.17 7.1.25c.39.01.78.04 1.17.05l7.61.37 5.85.35 8.77.64 8.08.74c.09 0 .19.02.28.03l5.79.58c3.09.31 6.18.68 9.27 1.09l9.24 1.31 3.83.59c3.83.62 7.65 1.3 11.45 2.05l6.7 1.38c2.23.48 4.45 1 6.67 1.54 3.37.83 6.72 1.72 10.03 2.69 4.42 1.3 8.8 2.76 13.09 4.47 1.08.42 2.14.87 3.21 1.32 1.62.7 3.21 1.47 4.79 2.25l1.17.58.91.45c.4.2.8.4 1.19.62.5.27.99.56 1.45.88 1.78 1.23 3.61 2.39 5.26 3.79.38.33.75.66 1.11 1.01.43.36.84.75 1.23 1.14.65.65 1.25 1.35 1.78 2.08.26.36.5.73.73 1.11.2.33.38.66.55 1s.33.69.47 1.06c.15.36.28.73.4 1.1l.25.79s0 .02.01.03v-.03c.21-1.11.08-2.23.09-3.35l.03.03z" class="B"/><path d="M331.35 215.58v-12.44l-.03-5.74c-.33-1.08-.56-2.19-1.05-3.22-1.25-2.59-3.12-4.67-5.28-6.53-2.36-2.04-4.97-3.73-7.71-5.22a91.38 91.38 0 0 0-12.34-5.61 178.57 178.57 0 0 0-14.97-4.81 296.28 296.28 0 0 0-11.66-2.91c-4.45-1.01-8.92-1.9-13.41-2.69l-14.03-2.24-6.68-.88c-4.98-.64-9.97-1.2-14.97-1.64l-2.78-.29-11.33-.84-1.62-.12-7.56-.49-9.84-.4H196l-10.28-.31-9.07-.09c-1.33 0-2.66-.01-4-.01a560.05 560.05 0 0 0-15.88.23h-.23c-6.21.18-12.43.43-18.63.83l-14.3.97c-1.93.16-3.85.4-5.77.59-6.71.67-13.4 1.45-20.07 2.39l-.23.03c-2.67 6.91-5.07 13.91-7.18 21.02l-.15.53.8-.13c11.19-1.76 22.44-3.06 33.73-4 7.69-.64 15.38-1.13 23.09-1.46l1.17-.05a606.55 606.55 0 0 1 19.55-.48h.31l19 .12c.29 0 .58.02.87.02l12.02.41 7.64.39 8.98.58 15.2 1.31 5.37.57 12.04 1.5c5.81.8 11.61 1.73 17.38 2.81 5.14.96 10.26 2.02 15.34 3.26 7.94 1.93 15.78 4.17 23.4 7.15.6.24 1.22.37 1.82.64 3.37 1.52 6.73 3.04 9.96 4.85 2.35 1.32 4.53 2.87 6.66 4.52 2.04 1.58 3.67 3.51 5.04 5.67.85 1.34 1.32 2.83 1.68 4.36.14-.72.06-1.45.06-2.17l.03.02z" class="C"/><path d="M213.78 58.81c2.76 4.31 4.76 8.97 6.27 13.85a81.14 81.14 0 0 1 1.27 4.56c.63 2.55 1.12 5.14 1.51 7.74l.32 2.29.5 4.59.18 2.3c.28 4.18.4 8.36.29 12.55a180.34 180.34 0 0 1-.82 13.13c-.44 4.34-1.04 8.66-1.76 12.95a217.6 217.6 0 0 1-1.43 7.7c-4.14-.33-8.28-.61-12.43-.81l-5.99-.3c1.35-5.8 2.49-11.64 3.38-17.54.98-6.53 1.68-13.08 1.94-19.67.21-5.6.18-11.21-.27-16.81-.38-4.67-1.01-9.29-2.01-13.87-1.13-5.15-2.72-10.15-5-14.92-.9-1.89-1.96-3.7-3.02-5.5.87-.28 1.78-.31 2.67-.4a34.51 34.51 0 0 1 1.4-.12l1.2-.05a63.38 63.38 0 0 1 1.95 0 61.78 61.78 0 0 1 1.36.05l1.05.07a.88.88 0 0 1 .17.02c.11.02.21.05.31.09a1.51 1.51 0 0 1 .28.15c.13.08.26.19.38.3.31.28.61.57.9.86.59.58 1.16 1.19 1.7 1.81 1.37 1.55 2.6 3.2 3.73 4.96l-.03.02z" class="B"/><path d="M204.7 71.47c1 4.57 1.63 9.2 2.01 13.87.46 5.6.49 11.21.27 16.81-.25 6.59-.95 13.14-1.94 19.67-.89 5.9-2.03 11.75-3.38 17.54l-4.54-.21-10.37-.28-3.86-.07a227.91 227.91 0 0 0 3.32-14.36c.72-3.61 1.34-7.24 1.89-10.88a225.97 225.97 0 0 0 .96-7.33 152.15 152.15 0 0 0 .68-7.71c.17-2.75.28-5.51.34-8.26.07-3.69-.05-7.37-.32-11.05-.18-2.43-.41-4.85-.72-7.27-.42-3.31-1.02-6.58-1.81-9.82-.63-2.59-1.35-5.17-2.31-7.67.66-.42 1.42-.63 2.15-.9a54.59 54.59 0 0 1 4.49-1.45 47.94 47.94 0 0 1 4.61-1.02c.11-.02.21-.05.32-.05.07 0 .13 0 .19.02 1.06 1.8 2.12 3.6 3.02 5.5 2.28 4.77 3.87 9.77 5 14.92h0z" class="C"/><path d="M248.17 62.99s-.04-.03-.04-.05v-.04l.05.03-.02.05.01.01z" fill="#3180f4"/><path d="M331.26 257.24l.03-.78.01-12.85-.04-5.55c0-.11.05-.23.04-.34-.03-.07-.07-.12-.1-.18v.02c0-.01 0-.02-.01-.03l-.25-.8-.4-1.1-.47-1.06a15.99 15.99 0 0 0-.55-1l-.73-1.11c-.53-.74-1.12-1.43-1.78-2.08l-1.23-1.14-1.11-1.01c-1.65-1.4-3.48-2.56-5.26-3.79-.47-.32-.96-.61-1.45-.88l-1.19-.62-.91-.45-1.17-.58-4.79-2.25-3.21-1.32c-4.3-1.7-8.67-3.17-13.09-4.47-3.32-.98-6.67-1.87-10.03-2.69l-6.67-1.54-6.7-1.38a323.17 323.17 0 0 0-11.45-2.05l-3.83-.59-9.24-1.31c-3.08-.41-6.17-.78-9.27-1.09l-5.79-.58c-.09 0-.19-.02-.28-.03l-8.08-.74-8.77-.64-5.85-.35-7.61-.37-1.17-.05-7.1-.25-7.1-.17-2.61-.03-2.43-.03-6.71-.02-3.92.02-10.41.17-2.86.07-4.42.15-2.97.13-11.55.59-12.26.89-8.09.75-12.1 1.36-12.06 1.69-3.33.54-2.24.38-1.71.29c.81-4.08 1.74-8.13 2.77-12.16l1.15-4.55c.54-1.49.93-3.03 1.36-4.55l.15-.53a275.22 275.22 0 0 1 7.18-21.02c1.69-4.38 3.49-8.72 5.4-13.02 1.28-2.88 2.61-5.75 3.98-8.58 4.53-9.37 9.56-18.48 15.14-27.29 5.21-8.26 10.88-16.18 17.09-23.72.13-.15.23-.33.35-.49l5.62-6.41c6.22-6.89 12.92-13.27 20.34-18.86 1.83-1.38 3.72-2.68 5.59-4.01.17-.12.38-.14.58-.15.09-.27.34-.39.55-.52 3.83-2.45 7.81-4.63 12-6.39.15-.06.29-.14.45-.19.04-.01.09-.02.14-.03.05 0 .1-.02.15-.02.66-.42 1.42-.63 2.15-.9a54.59 54.59 0 0 1 4.49-1.45 47.94 47.94 0 0 1 4.61-1.02c.11-.02.21-.05.32-.05.07 0 .13 0 .19.02.87-.28 1.78-.31 2.67-.4a34.51 34.51 0 0 1 1.4-.12l1.2-.05a63.38 63.38 0 0 1 1.95 0 61.78 61.78 0 0 1 1.36.05l1.05.07a.88.88 0 0 1 .17.02c.11.02.21.05.31.09a1.51 1.51 0 0 1 .28.15c.13.08.26.19.38.3.31.28.61.57.9.86.59.58 1.16 1.19 1.7 1.81 1.37 1.55 2.6 3.2 3.73 4.96 2.76 4.31 4.76 8.97 6.27 13.85a81.14 81.14 0 0 1 1.27 4.56c.63 2.55 1.12 5.14 1.51 7.74l.32 2.29.5 4.59.18 2.3c.28 4.18.4 8.36.29 12.55a180.34 180.34 0 0 1-.82 13.13c-.44 4.34-1.04 8.66-1.76 12.95a217.6 217.6 0 0 1-1.43 7.7l2.01.16 14.41 1.32a.8.8 0 0 0-.13-.13l11.95 1.46a.47.47 0 0 1-.09.12l.72.1c.8-3.94 1.52-7.88 2.13-11.85.54-3.56 1.02-7.13 1.39-10.71.35-3.35.66-6.7.82-10.07l.27-4.87c.01-.21-.1-.49.23-.58l-.03-9.07c-.16-.07-.17-.21-.19-.36-.04-.61-.11-1.21-.13-1.82-.12-4.39-.52-8.75-1.11-13.09-.65-4.81-1.61-9.55-2.94-14.22-.33-1.17-.61-2.35-1.13-3.46l-.11-.4s-.04-.03-.04-.05v-.04c-.03-.14-.05-.28-.1-.42-1.93-5.57-4.45-10.85-7.92-15.65-3.34-4.63-7.37-8.5-12.34-11.38-1.86-1.08-3.88-1.84-5.79-2.81-.17-.09-.39-.07-.59-.11-.17-.22-.44-.28-.67-.39l-13.53-5.98c-.58-.26-1.11-.64-1.76-.72-.11-.04-.22-.07-.33-.11-.77-.25-1.56-.43-2.3-.78-.07-.02-.13-.04-.2-.07-.03-.01-.07-.02-.1-.03-.1.05-.15.01-.2-.06-1.45-.37-2.9-.65-4.37-.85-1.06-.15-2.12-.26-3.19-.32-.36-.02-.71-.03-1.07-.04a42.37 42.37 0 0 0-3.19.03 45.71 45.71 0 0 0-4.21.38c-2.44.34-4.86.85-7.26 1.51-.34.1-.69.19-1.03.3-4.51 1.34-8.81 3.15-12.96 5.29-1.38.71-2.75 1.46-4.11 2.25a91.49 91.49 0 0 0-3.67 2.21l-1.2.77-1.19.79c-.79.53-1.57 1.07-2.34 1.63l-1.15.84v.08c0 .02-.02.04-.03.06-.03.03-.07.04-.13.04h-.01v.05c0 .04-.02.06-.04.07s-.04.01-.08 0c-.01 0-.03 0-.04-.02-1.7 1.19-3.35 2.43-4.96 3.72-.72.57-1.43 1.16-2.13 1.75-.11.09-.22.19-.33.28l-2.15 1.86v.05c0 .05-.02.08-.05.11 0 0-.02.01-.03.02-.02.01-.05.02-.08.02-.02.04-.05.08-.08.11-.04.04-.07.08-.12.11-.06.04-.13.08-.21.09 0 .09-.02.14-.06.16-.06.04-.17.01-.25.02l-.82.83c-.02.02-.03.04-.05.05v.04c0 .04-.02.06-.04.09h-.01s-.06.03-.12.03c-.24.2-.5.38-.73.59-.02.02-.04.03-.06.05l-2.64 2.51c-.06.06-.12.11-.17.16-.27.27-.55.52-.83.78-.7.65-1.42 1.28-2.09 1.96l-1.09 1.1c-2.08 2.11-4.14 4.24-6.13 6.44a241.23 241.23 0 0 0-7.41 8.59l-1.03 1.25c-.05.06-.11.13-.15.2a8.33 8.33 0 0 0-.21.31l-.27.41c-.07.1-.14.19-.22.29-.03.03-.05.06-.07.08a2.11 2.11 0 0 1-.35.32c0 .03-.01.04-.02.06 0 .02 0 .04-.02.06 0 .01-.02.02-.03.03-.02.01-.05.02-.07.03-.06.28-.29.42-.48.6-.01 0-.02.02-.03.03-.06.05-.1.11-.14.17-.02.03-.04.06-.05.1s-.03.07-.04.11v.05c0 .05-.02.08-.06.11 0 0-.02 0-.02.01h-.04-.04l-1.33 1.65c-.02.03-.05.06-.07.09.01.07.01.13 0 .19 0 .05-.03.08-.05.12 0 .01-.02.03-.02.04a.48.48 0 0 1-.11.09c-.05.03-.11.05-.17.07-.07.08-.14.15-.21.23-.03.03-.05.06-.07.08-.06.06-.11.13-.16.19l-3.39 4.57c0 .05-.02.08-.05.11l-.02.02c-.02.02-.05.03-.08.03l-2.35 3.3-.45.66-3.39 5.11c-.58.84-1.13 1.7-1.68 2.55-.56.85-1.12 1.7-1.73 2.53-.97 1.33-1.8 2.78-2.65 4.19l-1.1 1.83c-4.11 6.82-8.1 13.71-11.5 20.92-.2.42-.43.81-.66 1.21-.23.39-.47.79-.67 1.19l-3.39 7.03-1.22 2.65-1.56 3.47-1.94 4.44-.79 1.88-.98 2.35-3.31 8.37-.92 2.47-2.15 6.01-.51 1.44-.38 1.13c-.33.95-.64 1.91-.94 2.87l-1.09 3.51-.79 2.51c-.61 1.87-1.32 3.72-1.56 5.69-.01.1-.13.19-.19.28-.3.82-.48 1.66-.68 2.5-.1.4-.22.8-.34 1.2l-.35 1.2-1.33 5.18-1.12 4.71-1.15 5.31-.92 4.67-.67 3.71-.54 3.27-.62 4.16-.49 3.74c-.42 3.43-.76 6.86-1.03 10.31l-.19 2.96-.15 2.96-.2 5.92-.02 1.35v.41c-.01 2.53.09 5.05.17 7.56 0 .11.02.23.02.34l.07 1.35c.09 1.82.24 3.64.43 5.46l.43 3.7c.02.18.05.35.07.53.34 2.5.73 4.99 1.22 7.46.91 4.62 2.12 9.16 3.78 13.57.03.07.06.15.09.23 1.24 3.26 2.68 6.43 4.45 9.45 2.91 4.97 6.46 9.37 10.99 12.88.54.42 1.09.82 1.65 1.22.54.37 1.12.71 1.68 1.05.1.07.22.12.33.17.08.04.16.07.24.11.14.07.27.16.36.29a1.14 1.14 0 0 1 .09.16v-.02c.15-.02.28.01.35.17h.01c.14 0 .27.04.34.17.04 0 .07 0 .1.01h.01c.09.02.17.06.23.15 0 .01.02.01.03.01h.06c.02 0 .03.01.06.01.01 0 .03 0 .04.01.02 0 .04.02.06.03 0 0 .02 0 .03.01l.06.06c.2.2.46.25.7.36L94.82 319c2.47 1.09 4.92 2.24 7.53 2.96s5.26 1.21 7.97 1.32h1.35 4.05c1.31-.04 2.61-.21 3.9-.41 5.25-.79 10.29-2.34 15.16-4.43 8.92-3.83 16.97-9.06 24.52-15.11 1.66-1.33 3.28-2.7 4.89-4.09l16.82.07 16.03-.36a.91.91 0 0 1 .82-.04h.24c.32-.15.65-.14.98-.04h.24c.19-.12.39-.14.59-.1h.02.01c.07.02.13.04.19.06h.24a.84.84 0 0 1 .39-.12c.14 0 .28.03.43.07h.24c.09-.05.18-.08.27-.1a.99.99 0 0 1 .56.05h.23s.02 0 .03-.01a.95.95 0 0 1 .79-.03h.23c.27-.17.54-.15.83-.05h.23c.27-.16.55-.14.83-.05h.23c.06-.04.11-.06.16-.08.09-.03.17-.03.26-.03.08 0 .17.02.25.06l3.65-.17c9.34-.55 18.65-1.29 27.95-2.32 14.12-1.57 28.15-3.68 42.01-6.84 9.44-2.15 18.75-4.73 27.75-8.36 4.83-1.95 9.52-4.18 13.86-7.1 2.61-1.76 5.03-3.74 6.97-6.27 1.22-1.61 2.21-3.34 2.59-5.36.15-.16.21-.35.22-.55.09-1.45.14-2.89.01-4.34l-.08.01zm-125.35-30.59l-7.79-.41 7.79.41zm-57.67 47.21l-1.26 1.12a123.5 123.5 0 0 1-9.16 7.33c-3.17 2.28-6.46 4.4-9.9 6.29l-1.49.8a93.57 93.57 0 0 1-3.48 1.72c-1.17.54-2.36 1.04-3.56 1.51-2.4.94-4.86 1.72-7.4 2.32a42.72 42.72 0 0 1-3.3.65l-1.16.18a42.6 42.6 0 0 1-4.51.36l-1.51.01c-.51 0-1.01-.02-1.52-.04-.22-.01-.43-.04-.65-.06l-.65-.07c-.28-.02-.49-.14-.7-.32-.6-.54-1.17-1.1-1.73-1.68-.83-.86-1.62-1.76-2.36-2.69a39.85 39.85 0 0 1-1.43-1.92l-.67-.99c-.02-.03-.03-.06-.04-.09-.01-.05-.03-.11-.04-.16-.09-.09-.21-.18-.28-.28l-.02-.02a51.66 51.66 0 0 1-2.8-5.04 51.32 51.32 0 0 1-1.19-2.62c-.38-.88-.73-1.78-1.06-2.69-.04-.11-.03-.22-.05-.34-.58-1.08-.87-2.26-1.23-3.41-.8-2.57-1.43-5.18-1.95-7.82l-.27-1.4c-.04-.19-.06-.37-.1-.56l-.13-.69c0-.06 0-.11-.02-.17-.02-.2-.03-.41-.05-.61-.34-1.47-.49-2.97-.66-4.47-.58-4.78-.8-9.58-.81-14.38l.07-5.45c.03-1.08.08-2.15.14-3.22 3.95-.94 7.93-1.77 11.92-2.53 6.82-1.29 13.68-2.34 20.56-3.19.11-.01.22-.03.33-.04.13-.02.26-.03.39-.02.08 0 .16.02.24.04 1.07-.23 2.16-.35 3.25-.46l1.49-.15c7.56-.84 15.13-1.48 22.71-1.94l6.38-.35c5.44-.26 10.88-.43 16.32-.53l8.94-.09 12.74.15-2.8 4.57-2.1 3.3-3.88 5.8c-2.44 3.54-4.97 7.01-7.6 10.41l-2.53 3.21-.45.56c-1.24 1.54-2.5 3.05-3.79 4.54a199.16 199.16 0 0 1-6.63 7.3l-2.08 2.15c-1.8 1.82-3.66 3.6-5.56 5.33l1.74.08-1.74-.08-.93.85.01-.01zm10.12-.48l6.61.17-6.61-.17zm145.42-23.42c-.06.08-.16.16-.32.28-.21.16-.42.33-.64.48-.21.16-.43.31-.65.47-.41.29-.83.57-1.26.84-.05.03-.1.06-.15.1l-1.06.65a50.4 50.4 0 0 1-1.59.92c-3.66 2.04-7.51 3.68-11.44 5.13-3.71 1.36-7.47 2.55-11.26 3.61-5.43 1.52-10.93 2.78-16.48 3.88-5.39 1.08-10.8 1.99-16.23 2.78s-10.88 1.45-16.34 2.02l-5.37.53-10.77.85-5.39.33-12.09.53-2.2.07-2.02.06c1.65-2.04 3.3-4.07 4.81-6.22l.65-.82c3.23-4.35 6.33-8.78 9.31-13.29l1.24-1.9a296.26 296.26 0 0 0 5.51-8.83c2.92-4.88 5.71-9.83 8.36-14.85 5.06.44 10.11.95 15.16 1.57.37.04.74.12 1.12.18 2.26.16 4.5.5 6.73.83l8.6 1.36c3.86.65 7.72 1.37 11.55 2.2l6.2 1.36a.17.17 0 0 1 .07.01c.02 0 .04 0 .07.01.13.02.28.02.42.04.18.02.36.07.5.22 4.42 1.13 8.83 2.32 13.16 3.75.4.13.86.17 1.17.51 1.13.2 2.16.67 3.22 1.06.93.34 1.86.7 2.78 1.07 2.63 1.04 5.21 2.19 7.71 3.52a55.98 55.98 0 0 1 2.92 1.65c1.27.77 2.51 1.58 3.67 2.51.34.27.44.38.31.54l.02-.01z" fill="#007fff"/><path d="M331.35 177.89c-.12-2.39-1.03-4.5-2.42-6.42-1.96-2.73-4.49-4.86-7.23-6.74-4.67-3.2-9.78-5.55-15.01-7.65-2.91-1.17-5.86-2.21-8.84-3.17-4.54-1.46-9.15-2.71-13.78-3.85-5.79-1.42-11.61-2.65-17.47-3.72-3.57-.65-7.15-1.28-10.74-1.8-.11 0-.22-.01-.33-.02-.06 0-.13-.01-.19-.02-.13-.01-.27-.03-.4-.04a8.93 8.93 0 0 1-.9-.17l-3.2-.52-1.86-.26c-.24-.04-.48-.07-.72-.1l-7.42-.91c-.72-.09-1.44-.15-2.16-.23-.72-.07-1.44-.16-2.15-.3l-14.41-1.32-2.01-.16c-4.14-.33-8.28-.61-12.43-.81l-5.99-.3-4.54-.21-10.37-.28-3.86-.07c-2.17-.04 0 0 0 0s2.37-9.54 3.32-14.36c.72-3.61 1.34-7.24 1.89-10.88a225.97 225.97 0 0 0 .96-7.33c.29-2.56.52-5.13.68-7.71.17-2.75.28-5.51.34-8.26.07-3.69-.05-7.37-.32-11.05-.18-2.43-.41-4.85-.72-7.27-.42-3.31-1.02-6.58-1.81-9.82-.63-2.59-1.35-5.17-2.31-7.67-.05 0-.1 0-.15.02-.05 0-.1.02-.14.03-.16.05-.3.13-.45.19-4.2 1.76-8.17 3.95-12 6.39-.22.14-.46.25-.55.52.92 5.81 1.35 11.65 1.4 17.53.08 8.41-.54 16.77-1.69 25.1-.87 6.27-2.02 12.49-3.42 18.67-1.21 5.36-2.61 10.67-4.17 15.93l-11.32.28-15.05.72-13.27.95c-5.74.5-11.47 1.06-17.18 1.76-1.37 2.84-2.7 5.7-3.98 8.58a283.23 283.23 0 0 0-5.4 13.02l.23-.03c6.67-.94 13.37-1.72 20.07-2.39l5.77-.59c4.76-.4 9.53-.67 14.3-.97 6.2-.4 12.41-.65 18.63-.83h.23l15.88-.23 4 .01 9.07.09 10.28.31h.09l9.84.4c2.52.12 5.04.3 7.56.49l1.62.12 11.33.84c.93.07 1.85.2 2.78.29 5 .44 9.99 1 14.97 1.64l6.68.88c4.69.65 9.37 1.43 14.03 2.24 4.49.79 8.97 1.68 13.41 2.69 3.91.89 7.8 1.86 11.66 2.91 5.07 1.38 10.05 2.99 14.97 4.81a94.52 94.52 0 0 1 12.34 5.61c2.74 1.5 5.34 3.18 7.71 5.22 2.15 1.85 4.03 3.93 5.28 6.53.5 1.03.73 2.14 1.05 3.22l.04-6.45v-9.58c0-1.16.04-2.33-.02-3.48l-.03-.02z" fill="#f10"/><g class="D"><path d="M205.12 25.34c-.77-.25-1.56-.43-2.3-.78 0-.1.01-.2.02-.3.92.28 1.79.67 2.6 1.19l-.33-.11h.01z"/><path d="M202.43 24.4a.27.27 0 0 0 .09.06h-.02c-.08.05-.13.01-.18-.06.04-.01.07-.02.11 0zm-92.97 58.17s-.02.08-.05.11l-.02.02c-.02.02-.05.03-.08.03v-.03-.03s.06-.06.09-.08c.02 0 .04-.02.06-.02h0zm4.12-5.25s-.07.07-.11.09a.67.67 0 0 1-.17.07v-.1c0-.03 0-.06.01-.08.02-.05.04-.1.07-.14s.08-.07.12-.11l.15-.09c.01.07.01.13 0 .19 0 .05-.03.08-.05.12 0 .01-.02.03-.02.04v.01z"/></g><path d="M115.15 75.21s-.02 0-.02.01h-.04-.04l.15-.19v.05c0 .05-.02.08-.06.11l.01.02zm.81-1.23c0-.05.04-.09.08-.11.02 0 .04-.01.06-.02 0 .03-.01.04-.02.06 0 .02 0 .04-.02.06 0 .01-.02.02-.03.03-.02.01-.05.02-.07.03v-.05h0z" fill="#215cb5"/><path d="M186.95 17.33c.19-.08.31 0 .42.15-.17.04-.35.08-.42-.14v-.01z" fill="#fec35e"/><path d="M186.94 17.33h.01l-.01.01v-.01z" class="C"/><g class="D"><path d="M139.56 48.8c.06-.05.11-.1.17-.16v.04c0 .04-.02.06-.04.09h-.01s-.06.03-.12.03zm1.17-1.18c.05-.03.11-.05.18-.05 0 .09-.02.14-.06.16-.06.04-.17.01-.25.02.04-.06.08-.1.13-.13zm.75-.5s-.02.08-.05.11c0 0-.02.01-.03.02-.02.01-.05.02-.08.02l.16-.19v.05-.01zm9.91-7.86l-.03.06c-.03.03-.07.04-.13.04.05-.06.11-.11.17-.17v.08l-.01-.01z"/><path d="M151.21 39.37v.04c0 .04-.02.06-.04.07s-.04.01-.08 0c-.01 0-.03 0-.04-.02l.17-.09h-.01z"/></g><path d="M202.77 24.21l-14.83-6.6c-.2-.09-.4-.02-.58-.13-.17.04-.35.08-.42-.14-.2.09-.39 0-.58-.07-4.33-1.3-8.76-1.7-13.27-1.47-5.97.31-11.69 1.77-17.25 3.92a75.86 75.86 0 0 0-5.15 2.2l-1.26.61-1.46.74-1.94 1.02c-3.37 1.84-6.64 3.89-9.81 6.09l-1.97 1.39-.39.28c-1.56 1.14-3.09 2.3-4.59 3.5-3.76 2.99-7.37 6.17-10.86 9.5-9.69 9.25-18.3 19.46-26.18 30.28l-.6.85s-.02.07-.04.09-.05.03-.09.04l-2.12 3.02-3.48 5.07-3.2 4.9-2.47 3.93-2.15 3.53-2.97 5.05-1.45 2.55c-.05.1-.12.19-.18.29 0 .11-.04.2-.08.29a1.86 1.86 0 0 0-.11.19l-1.33 2.42c-1.66 3.03-3.28 6.09-4.84 9.17l-1.95 3.92c-3.46 7.08-6.67 14.27-9.62 21.56a330.76 330.76 0 0 0-4.48 11.69l-2.2 6.27c-1.31 3.88-2.51 7.79-3.68 11.71l-1.4 4.85-.03.12a226.07 226.07 0 0 0-1.99 7.65l-1.63 6.93-1.24 5.96-.27 1.42c-.04.19-.07.38-.11.57-.01.07-.03.14-.04.22l-.22 1.13c-.57 3.11-1.08 6.23-1.52 9.37-.43 3.03-.81 6.05-1.13 9.09l-.2 2.04c0 .05-.01.1-.01.15l-.12 1.26-.36 5.08-.23 5.1c0 .22 0 .44-.02.66-.1 3.27-.12 6.53-.02 9.79.1 3.08.27 6.15.56 9.22.28 3.06.67 6.11 1.2 9.16.26 1.49.54 2.97.86 4.44 1.06 4.96 2.49 9.82 4.45 14.52l.42.98.43.97c.34.76.7 1.51 1.07 2.25.62 1.24 1.28 2.45 1.98 3.63 1.92 3.24 4.18 6.25 6.86 8.97a35.03 35.03 0 0 0 2.18 2.05c1.41 1.23 2.91 2.36 4.51 3.37.3.19.65.3.87.59a.64.64 0 0 1 .08.14c.15-.03.26 0 .3.16.62.15 1.12.57 1.69.82l9.11 4.05 5.21 2.28.22-.2c-.56-.35-1.14-.68-1.68-1.05a33.46 33.46 0 0 1-1.65-1.22c-4.53-3.52-8.08-7.91-10.99-12.88-1.77-3.02-3.21-6.19-4.45-9.45l-.09-.23c-1.66-4.41-2.87-8.95-3.78-13.57-.49-2.47-.88-4.96-1.22-7.46-.02-.18-.05-.35-.07-.53l-.43-3.7c-.19-1.82-.33-3.63-.43-5.46l-.07-1.35c0-.11-.01-.23-.02-.34l-.17-7.56v-.41l.02-1.35.2-5.92.15-2.96.19-2.96c.26-3.45.61-6.88 1.03-10.31l.49-3.74.62-4.16.54-3.27.67-3.71.92-4.67 1.15-5.31 1.12-4.71 1.33-5.18c.11-.4.23-.8.35-1.2s.24-.8.34-1.2c.21-.84.38-1.68.68-2.5.07-.09.18-.18.19-.28.24-1.98.95-3.83 1.56-5.69l.79-2.51 1.09-3.51.94-2.87.38-1.13.51-1.44 2.15-6.01.92-2.47 3.31-8.37.98-2.35.79-1.88 1.94-4.44 1.56-3.47 1.22-2.65 3.39-7.03c.2-.41.44-.8.67-1.19s.46-.79.66-1.21c3.4-7.21 7.39-14.1 11.5-20.92l1.1-1.83c.86-1.42 1.68-2.86 2.65-4.19.61-.83 1.17-1.67 1.73-2.53l1.68-2.55c1.16-1.68 2.24-3.42 3.39-5.11l.45-.66 2.35-3.3v-.03-.03s.06-.06.09-.08c.02 0 .04-.02.06-.02l3.39-4.57c.05-.07.11-.13.16-.19.03-.03.05-.06.07-.08.07-.08.14-.15.21-.23v-.1c0-.03 0-.06.01-.08.02-.06.04-.1.07-.14s.08-.07.12-.11l.15-.09a.55.55 0 0 0 .07-.09l1.33-1.65c.05-.06.1-.13.15-.19 0-.04.02-.07.04-.11.01-.03.03-.07.05-.1a1.15 1.15 0 0 1 .14-.17c0-.01.02-.02.03-.03.19-.18.43-.33.48-.6v-.05c0-.05.04-.09.08-.11.02 0 .04-.01.06-.02.13-.1.25-.2.35-.32.03-.03.05-.06.07-.08.08-.09.15-.19.22-.29.09-.13.18-.27.27-.41.07-.1.14-.21.21-.31a3.47 3.47 0 0 1 .15-.2l1.03-1.25a224.73 224.73 0 0 1 7.41-8.59c1.99-2.2 4.05-4.33 6.13-6.44l1.09-1.1c.68-.68 1.39-1.31 2.09-1.96.28-.26.56-.51.83-.78.06-.05.11-.11.17-.16l2.64-2.51c.02-.02.04-.03.06-.05.23-.21.49-.4.73-.59.06-.05.11-.1.17-.16l.05-.05.82-.83c.04-.06.08-.1.13-.13s.11-.05.18-.05c.08-.01.15-.05.21-.09.04-.03.08-.07.12-.11.03-.03.05-.07.08-.11l.16-.19 2.15-1.86a8.19 8.19 0 0 0 .33-.28l2.13-1.75a94.24 94.24 0 0 1 4.96-3.72c.06-.03.11-.06.17-.09h.01c.05-.07.11-.13.17-.18l1.15-.84c.77-.56 1.56-1.1 2.34-1.63l1.19-.78 1.2-.77a104.93 104.93 0 0 1 3.67-2.21 109.18 109.18 0 0 1 4.11-2.25c4.16-2.14 8.46-3.95 12.96-5.29l1.03-.3c2.4-.67 4.81-1.18 7.26-1.51 1.39-.19 2.8-.32 4.21-.38a42.37 42.37 0 0 1 3.19-.03l1.07.04c1.07.06 2.13.17 3.19.32 1.47.2 2.92.48 4.37.85.04-.01.07-.02.11 0 .04 0 .07.03.09.06.03.01.07.02.1.03.07.02.13.04.2.07 0-.1.01-.2.02-.3-.02-.02-.04-.04-.07-.05l.03-.02z" class="B"/><path d="M186.95 17.33c-.07-.31-.37-.34-.59-.44l-12.8-5.66-3.42-1.48c-.13.08-.27.07-.41.02-2.93-.96-5.97-1.44-9.03-1.63-2.81-.17-5.63 0-8.42.37-2.3.31-4.56.79-6.8 1.39-4.35 1.17-8.53 2.76-12.56 4.75-1.55.77-3.05 1.64-4.58 2.45-.51.27-1.04.51-1.53.8-4.38 2.61-8.63 5.42-12.66 8.55-1.01.78-2.04 1.54-2.98 2.39-.61.55-1.2 1.11-1.86 1.59a4.62 4.62 0 0 1-.4.27 8.19 8.19 0 0 1-.33.28V31c-.05.13-.1.25-.18.32a.33.33 0 0 1-.16.07h-.1-.02s-.06-.02-.1-.03c-.03.02-.06.04-.08.06-.35.25-.54.68-.86.93-.05.04-.1.07-.15.1-.84.44-1.35 1.23-2.1 1.77-.72.52-1.32 1.21-1.98 1.82-3.27 3.01-6.36 6.2-9.42 9.42-.94.99-1.78 2.05-2.68 3.08-.52.59-1.1 1.11-1.61 1.69l-4.11 4.82c-1.02 1.19-1.98 2.42-2.89 3.69-.72 1.01-1.58 1.91-2.35 2.88-2.33 2.99-4.54 6.07-6.75 9.14-2.18 3.03-4.18 6.18-6.25 9.29-1.86 2.79-3.57 5.68-5.34 8.54-.65 1.06-1.23 2.16-1.89 3.22a85.4 85.4 0 0 0-3.17 5.59c-.62.74-.99 1.64-1.46 2.47-.98 1.74-1.92 3.5-2.77 5.31-.27.58-.66 1.07-.94 1.65l-2.42 4.82c-2.07 4.02-3.89 8.15-5.78 12.26-2.05 4.44-3.87 8.99-5.67 13.54-1.22 3.09-2.45 6.18-3.42 9.36-.16.52-.46.99-.64 1.5l-2.77 8.22c-.83 2.53-1.61 5.08-2.36 7.63l-2.07 7.39c-1.29 4.79-2.47 9.61-3.48 14.46l-.77 3.87c-.86 4.39-1.62 8.81-2.24 13.25a270.56 270.56 0 0 0-1.44 12.69l-.09 1.17v1.08-1.08c-.18 2.32-.32 4.65-.41 6.99-.11 2.67-.13 5.34-.15 8.01 0 1.27.13 2.55.12 3.83-.02 1.95.15 3.89.26 5.83.04.71.07 1.43.14 2.15.01.12.03.25.04.37l.64 5.61.83 5.41c.48 2.5.93 5 1.7 7.43.24.76.37 1.56.59 2.34.46 1.7 1.01 3.38 1.61 5.03.87 2.37 1.87 4.69 2.95 6.97 1.67 3.5 3.74 6.76 6.17 9.78 2.3 2.87 4.93 5.4 7.94 7.52.12.09.25.17.38.25l.66.42c.12.08.25.16.38.24a20.21 20.21 0 0 1 1.23.82s.01 0 .02.01c.12.09.24.18.36.28 0 .02.02.04.03.06.07.1.21.11.32.16l15.59 6.9c.21.09.41.23.66.17-.03-.05-.05-.09-.08-.14-.22-.29-.57-.4-.87-.59a37.26 37.26 0 0 1-4.51-3.37 38.3 38.3 0 0 1-2.18-2.05c-2.68-2.72-4.94-5.74-6.86-8.97-.7-1.18-1.36-2.39-1.98-3.63-.37-.74-.73-1.49-1.07-2.25l-.43-.98-.42-.98c-1.96-4.7-3.38-9.56-4.45-14.52-.32-1.47-.6-2.95-.86-4.44-.52-3.04-.91-6.09-1.2-9.16-.29-3.06-.46-6.14-.56-9.22-.1-3.26-.08-6.53.02-9.79.01-.22.01-.44.02-.66l.23-5.1.36-5.08.12-1.26c0-.05.01-.1.01-.15l.2-2.04c.31-3.04.7-6.07 1.13-9.09.45-3.14.96-6.26 1.52-9.37l.22-1.13c.01-.07.03-.14.04-.22.04-.19.07-.38.11-.57l.27-1.42 1.24-5.96 1.63-6.93 1.99-7.65c0-.04.02-.08.03-.12l1.4-4.85 3.68-11.71 2.2-6.27c1.42-3.93 2.91-7.83 4.48-11.69 2.95-7.29 6.15-14.48 9.62-21.56l1.95-3.92c1.56-3.08 3.18-6.14 4.84-9.17l1.33-2.42a1.86 1.86 0 0 0 .11-.19c.05-.09.09-.18.08-.29.06-.1.13-.2.18-.29l1.45-2.55 2.97-5.05 2.15-3.53 2.47-3.93 3.2-4.9 3.48-5.07 2.12-3.02v-.06c0-.01.01-.03.02-.04.02-.03.06-.04.1-.04.2-.28.39-.57.6-.85 7.88-10.82 16.49-21.02 26.18-30.28 3.49-3.33 7.09-6.51 10.86-9.5 1.5-1.2 3.03-2.36 4.59-3.5l.39-.28 1.97-1.39c3.18-2.2 6.44-4.25 9.81-6.09.64-.35 1.29-.69 1.94-1.02l1.46-.74 1.26-.61c1.69-.79 3.4-1.53 5.15-2.2 5.56-2.14 11.28-3.6 17.25-3.92 4.5-.24 8.93.16 13.27 1.47.19.06.38.15.58.07l.01-.01zM18 238.32v.28-.28z" class="C"/><path d="M91.53 76.21s.06-.04.1-.04c0 .04-.02.07-.04.09s-.05.03-.09.04v-.06c0-.01.01-.03.02-.04l.01.01zm16.58-45.13c.06-.07.13-.11.23-.12.06 0 .14 0 .22.02V31c-.05.13-.1.25-.18.32a.33.33 0 0 1-.16.07h-.1-.02l-.1-.03c.02-.12.06-.22.12-.28h-.01z" class="E"/><g fill="#f10"><path d="M169.2 9.34l-11.6-5.16C153.19 2.17 148.61.93 143.76.7l-3.67.01h-1.43c-2.44.13-4.85.49-7.24 1-7.05 1.5-13.61 4.26-19.9 7.72-6.33 3.48-12.21 7.64-17.8 12.2-.71.58-1.48 1.11-2.1 1.81-.05.02-.1.06-.13.11v.06h-.03-.03l-.48.38c-6.19 5.3-11.94 11.05-17.38 17.12-6.46 7.22-12.42 14.84-17.99 22.76-8.3 11.8-15.65 24.18-22.2 37.03-4.42 8.66-8.44 17.51-12.06 26.54-3.77 9.42-7.23 18.96-10.01 28.73-.31 1.08-.69 2.15-1 3.23-2.28 8.05-4.25 16.17-5.8 24.39-1.32 6.97-2.37 13.97-3.06 21.03-.51 5.12-.86 10.25-.84 15.4l.02 7.02c.03.32.04.64.05.96a24.68 24.68 0 0 1-.02 1.49c.02 2.85.26 5.68.53 8.52.45 4.63 1.15 9.21 2.18 13.74 1.28 5.68 3.03 11.19 5.52 16.46 2.67 5.64 6.06 10.77 10.64 15.06 2.67 2.5 5.61 4.61 8.92 6.16 2.94 1.38 5.92 2.67 8.9 3.98 2.04.9 4.06 1.87 6.14 2.67-.12-.09-.24-.19-.36-.28 0 0-.01 0-.02-.01a20.21 20.21 0 0 0-1.23-.82l-.38-.24c-.22-.14-.44-.27-.66-.42-.13-.08-.25-.17-.38-.25-3.01-2.13-5.63-4.65-7.94-7.52-2.43-3.02-4.5-6.28-6.17-9.78-1.09-2.28-2.09-4.6-2.95-6.97-.23-.21-.45-.43-.67-.65.22.22.44.44.67.65-.6-1.65-1.15-3.33-1.61-5.03-.21-.77-.35-1.57-.59-2.34-.77-2.43-1.23-4.93-1.7-7.43-.34-1.79-.58-3.6-.83-5.41-.26-1.86-.42-3.74-.64-5.61-.01-.12-.03-.25-.04-.37v7.17-7.17c-.07-.71-.1-1.43-.14-2.15-.1-1.94-.27-3.88-.26-5.83 0-1.27-.13-2.55-.12-3.83l.15-8.01c.09-2.33.23-4.66.41-6.99l.09-1.17a270.56 270.56 0 0 1 1.44-12.69c.62-4.44 1.38-8.86 2.24-13.25l.77-3.87c1-4.86 2.19-9.67 3.48-14.46l2.07-7.39a249.3 249.3 0 0 1 2.36-7.63l2.77-8.22c.17-.52.48-.99.64-1.5.98-3.18 2.2-6.27 3.42-9.36 1.8-4.55 3.62-9.09 5.67-13.54 1.89-4.1 3.71-8.24 5.78-12.26l2.42-4.82c.28-.57.68-1.07.94-1.65.85-1.81 1.79-3.57 2.77-5.31.47-.83.84-1.73 1.46-2.47.99-1.9 2.04-3.77 3.17-5.59.66-1.05 1.24-2.16 1.89-3.22l5.34-8.54c2.07-3.11 4.07-6.26 6.25-9.29l6.75-9.14c.76-.98 1.62-1.87 2.35-2.88.91-1.27 1.87-2.5 2.89-3.69l4.11-4.82c.51-.58 1.09-1.1 1.61-1.69.9-1.02 1.74-2.09 2.68-3.08 3.06-3.22 6.15-6.41 9.42-9.42.66-.61 1.26-1.3 1.98-1.82.75-.54 1.25-1.33 2.1-1.77.05-.03.11-.06.15-.1.32-.25.51-.68.86-.93.03-.02.06-.04.08-.06.02-.12.06-.22.12-.28.06-.07.13-.11.23-.12.06 0 .14 0 .22.02.11-.09.22-.19.33-.28l.4-.27c.66-.48 1.25-1.03 1.86-1.59.94-.86 1.98-1.61 2.98-2.39 4.03-3.13 8.28-5.94 12.66-8.55.5-.29 1.02-.53 1.53-.8 1.53-.82 3.03-1.69 4.58-2.45 4.03-1.99 8.22-3.58 12.56-4.75a56.13 56.13 0 0 1 6.8-1.39c2.79-.38 5.61-.54 8.42-.37 3.07.19 6.1.67 9.03 1.63.15.05.28.06.41-.02-.25-.27-.63-.27-.94-.41h.03z"/><path d="M108.22 29.96s-.05-.04-.07-.05c.03.02.05.03.07.05zm-.52-.32c.11.05.21.11.31.17l-.31-.17z"/></g><path d="M143.76.69h-3.67l-1.43.02-.07-.18 5.23-.02-.06.18z" fill="#fec35e"/><path d="M91.46 23.62h-.03v-.06h.07v.07h-.03l-.01-.01z" class="E"/><path opacity=".48" d="M303.63 250.1c.5-.39.5-.43 0-.82-1.16-.93-2.4-1.74-3.67-2.51-4.24-2.57-8.77-4.53-13.41-6.23-1.06-.39-2.09-.86-3.22-1.06-.31-.35-.77-.38-1.17-.51-4.33-1.44-8.74-2.62-13.16-3.75-.37-.03-.73-.11-1.05-.29l-6.2-1.36c-3.83-.83-7.68-1.55-11.54-2.2l-8.6-1.36c-2.24-.33-4.48-.67-6.74-.83l-1.12-.18c-7.91-.97-15.83-1.7-23.78-2.25l-15.58-.83a532.96 532.96 0 0 0-20.39-.38 518.68 518.68 0 0 0-25.26.62c-9.72.47-19.42 1.21-29.09 2.29-1.58.18-3.18.28-4.74.62-.32-.09-.63 0-.95.03-6.89.85-13.75 1.9-20.57 3.19-4.03.76-8.04 1.6-12.02 2.55l-.08.13s-1.03 14.82 1.25 29.29c3.93.93 7.88 1.76 11.84 2.5 3.54.66 7.09 1.29 10.66 1.8l15.04 1.97 14.67 1.4 8.69.63 12.88.61 11.76.3c6.27.08 12.55.05 18.82-.08a520.84 520.84 0 0 0 18.11-.7 457.11 457.11 0 0 0 21.54-1.71c10.93-1.13 21.8-2.65 32.57-4.8 9.41-1.88 18.71-4.18 27.73-7.5 3.93-1.44 7.78-3.09 11.44-5.13 1.86-1.03 3.66-2.15 5.34-3.46v.01z" fill="url(#A)"/><defs><linearGradient id="A" x1="193.023" y1="231.049" x2="191.634" y2="266.921" gradientUnits="userSpaceOnUse"><stop offset=".16" stop-color="#191919"/><stop offset=".97" stop-color="#191919" stop-opacity="0"/></linearGradient></defs></svg>
