<svg width="332" height="324" viewBox="0 0 332 324" fill="none" xmlns="http://www.w3.org/2000/svg">
<path d="M303.46 250.25C303.25 250.41 303.04 250.58 302.82 250.73C302.61 250.89 302.39 251.04 302.17 251.2C301.76 251.49 301.34 251.77 300.91 252.04C300.86 252.07 300.81 252.1 300.76 252.14C300.41 252.36 300.06 252.58 299.7 252.79C299.17 253.11 298.65 253.41 298.11 253.71C294.45 255.75 290.6 257.39 286.67 258.84C282.96 260.2 279.2 261.39 275.41 262.45C269.98 263.97 264.48 265.23 258.93 266.33C253.54 267.41 248.13 268.32 242.7 269.11C237.27 269.9 231.82 270.56 226.36 271.13C224.57 271.32 222.78 271.49 220.99 271.66C217.4 271.99 213.81 272.27 210.22 272.51C208.42 272.63 206.62 272.74 204.83 272.84C200.8 273.07 196.77 273.24 192.74 273.37C192.01 273.39 191.28 273.42 190.54 273.44C189.87 273.46 189.2 273.48 188.52 273.5C190.17 271.46 191.82 269.43 193.33 267.28C193.55 267.01 193.77 266.74 193.98 266.46C197.39 261.88 200.65 257.2 203.77 252.43C204.09 252.41 204.41 252.4 204.72 252.38C206.7 252.27 208.68 252.14 210.66 252.01C212.16 251.91 213.66 251.8 215.16 251.68C225.65 250.87 236.1 249.71 246.5 248.08C249.53 247.61 252.54 247.09 255.54 246.54C262.56 245.24 269.52 243.68 276.38 241.72C277.89 241.29 279.39 240.84 280.89 240.37C281.64 240.13 282.39 239.89 283.14 239.64C284.27 239.84 285.3 240.31 286.36 240.7C287.29 241.04 288.22 241.4 289.15 241.77C291.78 242.81 294.36 243.96 296.86 245.29C297.85 245.81 298.82 246.36 299.78 246.94C301.05 247.71 302.29 248.52 303.45 249.45C303.79 249.72 303.89 249.83 303.76 249.99C303.7 250.07 303.6 250.15 303.44 250.27L303.46 250.25Z" fill="#F1ECE2"/>
<path d="M206.24 298.56C206.03 298.69 205.8 298.69 205.58 298.61C205.64 298.57 205.69 298.55 205.74 298.53C205.83 298.5 205.91 298.5 206 298.5C206.08 298.5 206.17 298.52 206.25 298.56H206.24Z" fill="#5E93FF"/>
<path d="M205.35 298.61C205.08 298.73 204.81 298.74 204.52 298.66C204.79 298.5 205.07 298.52 205.35 298.61Z" fill="#5E93FF"/>
<path d="M204.29 298.66C204.02 298.78 203.75 298.79 203.46 298.71C203.73 298.54 204 298.56 204.29 298.66Z" fill="#5E93FF"/>
<path d="M203.23 298.71C202.96 298.84 202.69 298.84 202.41 298.75C202.41 298.75 202.43 298.75 202.44 298.74C202.7 298.61 202.97 298.61 203.23 298.71V298.71Z" fill="#5E93FF"/>
<path d="M201.61 298.7C201.79 298.66 201.98 298.68 202.17 298.75C201.9 298.88 201.62 298.88 201.34 298.8C201.43 298.75 201.52 298.72 201.61 298.7Z" fill="#5E93FF"/>
<path d="M200.68 298.72C200.82 298.72 200.96 298.75 201.11 298.79C200.84 298.91 200.57 298.92 200.29 298.83C200.42 298.75 200.55 298.72 200.68 298.71V298.72Z" fill="#5E93FF"/>
<path d="M199.85 298.79C199.92 298.8 199.98 298.82 200.04 298.84C199.78 298.96 199.5 298.97 199.22 298.89C199.41 298.77 199.61 298.75 199.81 298.79C199.81 298.79 199.82 298.79 199.83 298.79H199.84H199.85Z" fill="#5E93FF"/>
<path d="M198.98 298.89C198.66 299.03 198.33 299.02 198 298.93C198.32 298.78 198.65 298.79 198.98 298.89Z" fill="#5E93FF"/>
<path d="M197.76 298.93C197.49 299.07 197.22 299.05 196.94 298.97C197.2 298.82 197.48 298.82 197.76 298.93Z" fill="#5E93FF"/>
<path d="M267.92 235.1C268.05 235.12 268.2 235.12 268.34 235.14C268.52 235.16 268.7 235.21 268.84 235.36C268.47 235.33 268.11 235.25 267.79 235.07C267.81 235.07 267.84 235.07 267.86 235.08C267.88 235.08 267.9 235.08 267.93 235.09L267.92 235.1Z" fill="#5E93FF"/>
<path d="M115.62 323.3C115.65 323.36 115.68 323.42 115.7 323.47L110.12 323.49C110.15 323.43 110.18 323.37 110.21 323.31C110.66 323.31 111.11 323.31 111.56 323.31C112.91 323.31 114.26 323.31 115.61 323.31L115.62 323.3Z" fill="#3180F4"/>
<path d="M283.17 239.63C282.42 239.88 281.68 240.12 280.92 240.36C279.42 240.83 277.92 241.28 276.41 241.71C269.54 243.67 262.59 245.23 255.57 246.53C252.57 247.09 249.55 247.6 246.53 248.07C236.13 249.7 225.68 250.86 215.19 251.67C213.69 251.79 212.19 251.9 210.69 252C208.71 252.13 206.73 252.26 204.75 252.37C204.43 252.39 204.12 252.4 203.8 252.42C205.95 249.13 208.04 245.8 210.06 242.42C212.98 237.54 215.77 232.59 218.42 227.57C223.48 228.01 228.53 228.52 233.58 229.14C233.95 229.18 234.32 229.26 234.7 229.32C236.96 229.48 239.2 229.82 241.43 230.15C244.3 230.57 247.17 231.03 250.03 231.51C253.89 232.16 257.75 232.88 261.58 233.71C263.65 234.16 265.71 234.62 267.78 235.07C268.11 235.25 268.46 235.32 268.83 235.36C273.25 236.49 277.66 237.68 281.99 239.11C282.39 239.24 282.85 239.28 283.16 239.62L283.17 239.63Z" fill="#FDBF41"/>
<path d="M136.13 272.19C137.91 272.33 139.7 272.47 141.48 272.59C139.69 272.47 137.91 272.33 136.13 272.19Z" fill="#F1ECE2"/>
<path d="M79.0399 312.04C78.8999 312.04 78.7799 312 78.6899 311.89C78.6899 311.89 78.7099 311.89 78.7199 311.89C78.7399 311.89 78.7599 311.89 78.7799 311.89C78.7999 311.89 78.8099 311.9 78.8299 311.9C78.8399 311.9 78.8599 311.9 78.8699 311.91C78.8899 311.91 78.9099 311.93 78.9299 311.94C78.9299 311.94 78.9499 311.94 78.9599 311.95C78.9799 311.97 78.9999 311.99 79.0199 312.01C79.0199 312.01 79.0199 312.01 79.0299 312.01L79.0399 312.04Z" fill="#404A5A"/>
<path d="M78.6898 311.89C78.5498 311.89 78.4198 311.86 78.3398 311.73C78.3398 311.73 78.4098 311.73 78.4398 311.73H78.4498C78.5398 311.75 78.6198 311.79 78.6798 311.88C78.6798 311.88 78.6798 311.88 78.6798 311.89H78.6898Z" fill="#404A5A"/>
<path d="M78.3402 311.73C78.1902 311.73 78.0502 311.72 77.9902 311.56C77.9902 311.56 77.9902 311.56 77.9902 311.55H78.0002C78.1402 311.55 78.2702 311.58 78.3402 311.72V311.73Z" fill="#404A5A"/>
<path d="M77.9899 311.54V311.56C77.8499 311.56 77.6999 311.58 77.6499 311.39V311.37C77.7999 311.35 77.9299 311.38 77.9999 311.54H77.9899Z" fill="#404A5A"/>
<path d="M76.6199 310.67C76.7199 310.74 76.8399 310.79 76.9499 310.84C77.0299 310.88 77.1099 310.91 77.1899 310.95C77.3299 311.02 77.4599 311.11 77.5499 311.24C77.5799 311.28 77.6099 311.34 77.6399 311.4C77.1699 311.36 76.7599 311.17 76.3999 310.87L76.6199 310.67V310.67Z" fill="#404A5A"/>
<path d="M108.69 295.6C108.3 295.66 107.91 295.72 107.53 295.78C106.03 295.98 104.53 296.1 103.02 296.14C102.52 296.15 102.01 296.16 101.51 296.15C101 296.15 100.5 296.13 99.9898 296.11C99.7698 296.1 99.5598 296.07 99.3398 296.05C99.1298 296.03 98.9098 296 98.6898 295.98C98.4098 295.96 98.1998 295.84 97.9898 295.66C97.3898 295.12 96.8198 294.56 96.2598 293.98C100.4 294.58 104.54 295.12 108.69 295.61V295.6Z" fill="#F1ECE2"/>
<path d="M173.83 225.69C170.85 225.69 167.87 225.73 164.89 225.78C159.93 233.47 154.58 240.89 148.74 247.94C147.51 249.42 146.27 250.88 145 252.32C141.8 255.97 138.46 259.49 134.96 262.85C131.89 265.79 128.72 268.6 125.41 271.24C122.83 273.31 120.16 275.28 117.39 277.11C112.29 280.49 106.94 283.4 101.18 285.52C98.2602 286.59 95.2802 287.46 92.2002 287.97C92.0302 288 91.8702 288.07 91.7002 288.12C91.7102 288.17 91.7302 288.23 91.7402 288.28C91.7502 288.31 91.7602 288.34 91.7802 288.37C92.0002 288.71 92.2202 289.04 92.4502 289.36C92.9102 290.02 93.3902 290.66 93.8802 291.28C94.6202 292.21 95.4102 293.11 96.2402 293.97C100.38 294.57 104.52 295.11 108.67 295.6C109.78 295.43 110.88 295.21 111.97 294.95C114.5 294.35 116.96 293.56 119.37 292.63C120.57 292.16 121.76 291.66 122.93 291.12C124.1 290.58 125.26 290.01 126.41 289.4C126.91 289.14 127.4 288.87 127.9 288.6C131.34 286.71 134.64 284.59 137.8 282.31C140.97 280.02 144.01 277.56 146.96 274.98C147.38 274.61 147.8 274.24 148.22 273.86C148.53 273.58 148.83 273.3 149.15 273.01C151.04 271.28 152.9 269.5 154.71 267.68C155.41 266.97 156.1 266.26 156.79 265.53C159.06 263.15 161.27 260.72 163.42 258.23C164.71 256.74 165.97 255.22 167.21 253.69C167.36 253.51 167.51 253.32 167.66 253.13C168.51 252.07 169.35 251 170.19 249.92C172.82 246.52 175.35 243.05 177.79 239.51C179.11 237.59 180.4 235.66 181.67 233.71C182.38 232.61 183.08 231.51 183.77 230.41C184.72 228.9 185.65 227.37 186.57 225.84C182.32 225.74 178.08 225.69 173.83 225.69V225.69Z" fill="#F1ECE2"/>
<path d="M60.3898 303.72C60.2498 303.75 60.1398 303.71 60.0898 303.56C60.2398 303.53 60.3498 303.56 60.3898 303.72Z" fill="#C18B00"/>
<path d="M148.57 226.31C146.44 226.41 144.31 226.53 142.19 226.66C139.86 229.96 137.45 233.21 134.93 236.38C132.46 239.5 129.93 242.56 127.27 245.53C125.76 247.21 124.24 248.88 122.68 250.52C121.58 251.68 120.46 252.83 119.31 253.95C114.74 258.42 109.95 262.64 104.8 266.45C103.94 267.08 103.08 267.7 102.2 268.31C99.31 270.32 96.3201 272.18 93.2101 273.85C90.9601 275.07 88.64 276.15 86.29 277.14C86.31 277.25 86.29 277.37 86.34 277.48C86.67 278.39 87.02 279.28 87.4 280.17C87.77 281.06 88.17 281.93 88.59 282.79C89.43 284.51 90.37 286.19 91.39 287.83L91.41 287.85C91.48 287.95 91.6 288.04 91.69 288.13C91.86 288.08 92.02 288.01 92.19 287.98C95.26 287.47 98.24 286.6 101.17 285.53C106.93 283.42 112.28 280.5 117.38 277.12C120.15 275.29 122.82 273.32 125.4 271.25C128.71 268.6 131.88 265.79 134.95 262.86C138.46 259.5 141.79 255.98 144.99 252.33C146.26 250.89 147.5 249.43 148.73 247.95C154.57 240.9 159.92 233.48 164.88 225.79C159.44 225.89 153.99 226.05 148.56 226.32L148.57 226.31Z" fill="#FDBF41"/>
<path d="M256.12 144.22C256.12 144.22 256.05 144.21 256.02 144.21C256.05 144.21 256.08 144.21 256.12 144.22Z" fill="#E7AA24"/>
<path d="M255.53 144.45C255.7 144.45 255.89 144.45 255.78 144.18C255.86 144.18 255.94 144.2 256.03 144.21C255.98 144.21 255.94 144.22 255.91 144.24C255.84 144.29 255.84 144.4 255.86 144.53C255.75 144.53 255.64 144.52 255.53 144.51C255.47 144.51 255.4 144.5 255.34 144.49C255.21 144.48 255.07 144.46 254.94 144.45C254.64 144.41 254.33 144.35 254.04 144.28C254.55 144.25 255.04 144.43 255.54 144.46L255.53 144.45Z" fill="#E7AA24"/>
<path d="M100.38 247.53C100.6 247.57 100.81 247.6 101.02 247.64C96.8499 251.67 92.4699 255.45 87.7999 258.91C86.0999 260.17 84.3998 261.43 82.5598 262.5C82.2198 261.03 82.0698 259.53 81.8998 258.03C81.3198 253.25 81.0998 248.45 81.0898 243.65C82.2498 243.93 83.4098 244.2 84.5798 244.47C87.9898 245.25 91.4098 245.94 94.8398 246.57C96.6898 246.91 98.5398 247.23 100.39 247.54L100.38 247.53Z" fill="#F1ECE2"/>
<path d="M119.47 228.6C118.98 228.66 118.48 228.7 117.98 228.75C113.06 235.01 107.81 240.98 102.11 246.57C101.75 246.93 101.38 247.28 101.02 247.63C101.19 247.66 101.36 247.69 101.52 247.72C101.35 247.69 101.19 247.66 101.02 247.64C96.8501 251.67 92.4701 255.45 87.8001 258.91C86.1001 260.17 84.4001 261.43 82.5601 262.5C82.5801 262.7 82.5901 262.91 82.6101 263.11C82.6101 263.17 82.6101 263.22 82.6301 263.28C82.6701 263.51 82.7201 263.74 82.7601 263.97C82.7901 264.16 82.8201 264.34 82.8601 264.53C82.9501 264.99 83.0401 265.46 83.1301 265.93C83.6601 268.57 84.2901 271.18 85.0801 273.75C85.4401 274.9 85.7301 276.08 86.3101 277.16C88.6601 276.17 90.9801 275.09 93.2301 273.87C96.3401 272.19 99.3301 270.33 102.22 268.33C103.1 267.73 103.96 267.11 104.82 266.47C109.97 262.67 114.76 258.44 119.33 253.97C120.48 252.85 121.59 251.7 122.7 250.54C124.26 248.9 125.78 247.23 127.29 245.55C129.94 242.58 132.48 239.52 134.95 236.4C137.46 233.22 139.88 229.98 142.21 226.68C134.63 227.14 127.06 227.78 119.5 228.62L119.47 228.6Z" fill="#FF1100"/>
<path d="M101.52 247.72C101.35 247.69 101.19 247.66 101.02 247.64C101.19 247.67 101.36 247.7 101.52 247.72Z" fill="#F1ECE2"/>
<path d="M101.02 247.63C100.81 247.6 100.59 247.56 100.38 247.52L101.02 247.62V247.63Z" fill="#FF1100"/>
<path d="M94.8301 246.56C96.6801 246.9 98.5301 247.22 100.38 247.53C98.5301 247.22 96.6701 246.9 94.8301 246.56Z" fill="#FF1100"/>
<path d="M114.73 229.22C115.8 228.99 116.89 228.87 117.98 228.76C113.06 235.02 107.81 240.99 102.11 246.58C101.75 246.94 101.38 247.29 101.02 247.64L100.38 247.54C98.5301 247.23 96.6801 246.91 94.8301 246.57C91.4001 245.94 87.9701 245.25 84.5701 244.47C83.4101 244.2 82.2401 243.93 81.0801 243.65C81.0801 241.84 81.1001 240.02 81.1501 238.2C81.1801 237.12 81.2301 236.05 81.2901 234.98C85.2401 234.04 89.2201 233.21 93.2101 232.45C100.03 231.16 106.89 230.11 113.77 229.26C113.88 229.25 113.99 229.23 114.1 229.22C114.23 229.2 114.36 229.19 114.49 229.2C114.57 229.2 114.65 229.22 114.73 229.24V229.22Z" fill="#FDBF41"/>
<path d="M236.38 141.82C240.36 142.31 244.35 142.79 248.33 143.28C248.31 143.32 248.28 143.36 248.24 143.4C245.77 143.1 243.29 142.81 240.82 142.49C240.1 142.4 239.38 142.34 238.66 142.26C237.94 142.18 237.22 142.1 236.51 141.96C236.47 141.91 236.43 141.87 236.38 141.83V141.82Z" fill="#007FFF"/>
<path d="M216.88 154.19C217.03 153.63 217.17 153.05 217.32 152.49C217.18 153.06 217.03 153.63 216.88 154.19Z" fill="#F1ECE2"/>
<path d="M331.28 234.18C331.28 228.7 331.28 223.23 331.28 217.75C330.93 216.22 330.45 214.73 329.6 213.39C328.23 211.23 326.6 209.3 324.56 207.72C322.43 206.07 320.25 204.52 317.9 203.2C314.67 201.39 311.31 199.86 307.94 198.35C307.34 198.08 306.72 197.95 306.12 197.71C298.5 194.73 290.66 192.49 282.72 190.56C277.64 189.32 272.52 188.26 267.38 187.3C261.61 186.22 255.81 185.29 250 184.49C245.99 183.94 241.98 183.44 237.96 182.99C236.17 182.79 234.38 182.6 232.59 182.42C227.53 181.93 222.46 181.47 217.39 181.11C214.4 180.89 211.4 180.7 208.41 180.53C205.87 180.39 203.32 180.26 200.77 180.14C196.76 179.96 192.76 179.82 188.75 179.73C188.46 179.73 188.17 179.71 187.88 179.71C181.55 179.57 175.21 179.53 168.88 179.59C168.78 179.59 168.68 179.59 168.57 179.59C162.05 179.65 155.53 179.8 149.02 180.07C148.63 180.08 148.24 180.11 147.85 180.12C140.14 180.45 132.45 180.93 124.76 181.58C113.47 182.53 102.22 183.82 91.0302 185.58C90.7602 185.62 90.5002 185.67 90.2302 185.71C89.8002 187.23 89.4102 188.77 88.8702 190.26C88.4902 191.78 88.1102 193.3 87.7202 194.81C86.6902 198.84 85.7602 202.89 84.9502 206.97C85.5202 206.87 86.0902 206.78 86.6602 206.68C87.4102 206.55 88.1602 206.43 88.9002 206.3C90.0102 206.12 91.1202 205.94 92.2302 205.76C96.2402 205.14 100.27 204.58 104.29 204.07C108.32 203.56 112.35 203.11 116.39 202.71C119.08 202.44 121.78 202.19 124.48 201.96C128.56 201.62 132.65 201.33 136.74 201.07C140.59 200.83 144.44 200.64 148.29 200.48C149.28 200.44 150.27 200.39 151.26 200.35C152.73 200.29 154.21 200.25 155.68 200.2C156.63 200.17 157.58 200.15 158.54 200.13C162.01 200.04 165.48 199.99 168.95 199.96C170.26 199.96 171.56 199.94 172.87 199.94C175.11 199.94 177.35 199.94 179.58 199.96C180.39 199.96 181.2 199.97 182.01 199.99C182.88 200 183.75 200.01 184.62 200.02C186.99 200.06 189.35 200.12 191.72 200.19C194.09 200.26 196.45 200.35 198.82 200.44C199.21 200.45 199.6 200.48 199.99 200.49C202.53 200.6 205.07 200.73 207.6 200.86C209.55 200.97 211.5 201.09 213.45 201.21C216.37 201.4 219.3 201.61 222.22 201.85C224.91 202.07 227.6 202.32 230.3 202.59C230.39 202.59 230.49 202.61 230.58 202.62C232.51 202.81 234.44 203 236.37 203.2C239.46 203.51 242.55 203.88 245.64 204.29C248.72 204.7 251.8 205.14 254.88 205.6C256.16 205.79 257.44 205.99 258.71 206.19C262.54 206.81 266.36 207.49 270.16 208.24C272.4 208.68 274.63 209.14 276.86 209.62C279.09 210.1 281.31 210.62 283.53 211.16C286.9 211.99 290.25 212.88 293.56 213.85C297.98 215.15 302.36 216.61 306.65 218.32C307.73 218.74 308.79 219.19 309.86 219.64C311.48 220.34 313.07 221.11 314.65 221.89C315.04 222.08 315.43 222.27 315.82 222.47C316.12 222.62 316.43 222.77 316.73 222.92C317.13 223.12 317.53 223.32 317.92 223.54C318.42 223.81 318.91 224.1 319.37 224.42C321.15 225.65 322.98 226.81 324.63 228.21C325.01 228.54 325.38 228.87 325.74 229.22C326.17 229.58 326.58 229.97 326.97 230.36C327.62 231.01 328.22 231.71 328.75 232.44C329.01 232.8 329.25 233.17 329.48 233.55C329.68 233.88 329.86 234.21 330.03 234.55C330.2 234.89 330.36 235.24 330.5 235.61C330.65 235.97 330.78 236.34 330.9 236.71C330.98 236.97 331.07 237.24 331.15 237.5C331.15 237.5 331.15 237.52 331.16 237.53V237.5C331.37 236.39 331.24 235.27 331.25 234.15L331.28 234.18Z" fill="#F1ECE2"/>
<path d="M331.35 215.58C331.36 211.43 331.36 207.29 331.35 203.14C331.35 201.23 331.33 199.31 331.32 197.4C330.99 196.32 330.76 195.21 330.27 194.18C329.02 191.59 327.15 189.51 324.99 187.65C322.63 185.61 320.02 183.92 317.28 182.43C313.31 180.25 309.19 178.39 304.94 176.82C300.02 175 295.03 173.39 289.97 172.01C286.1 170.96 282.21 169.99 278.31 169.1C273.86 168.09 269.39 167.2 264.9 166.41C260.24 165.6 255.56 164.82 250.87 164.17C248.65 163.86 246.42 163.57 244.19 163.29C239.21 162.65 234.22 162.09 229.22 161.65C228.29 161.56 227.37 161.43 226.44 161.36C222.66 161.07 218.88 160.79 215.11 160.52C214.57 160.48 214.03 160.44 213.49 160.4C210.97 160.22 208.45 160.04 205.93 159.91C202.65 159.75 199.37 159.63 196.09 159.51C196.06 159.51 196.03 159.51 196 159.51C192.57 159.39 189.15 159.26 185.72 159.2C182.7 159.15 179.68 159.12 176.65 159.11C175.32 159.11 173.99 159.1 172.65 159.1C167.35 159.1 162.06 159.18 156.77 159.33C156.69 159.33 156.62 159.33 156.54 159.33C150.33 159.51 144.11 159.76 137.91 160.16C133.14 160.46 128.37 160.73 123.61 161.13C121.68 161.29 119.76 161.53 117.84 161.72C111.13 162.39 104.44 163.17 97.77 164.11C97.69 164.12 97.6199 164.13 97.5399 164.14C94.8699 171.05 92.47 178.05 90.36 185.16C90.31 185.34 90.26 185.51 90.21 185.69C90.47 185.65 90.7399 185.6 91.0099 185.56C102.2 183.8 113.45 182.5 124.74 181.56C132.43 180.92 140.12 180.43 147.83 180.1C148.22 180.08 148.61 180.06 149 180.05C155.51 179.78 162.03 179.63 168.55 179.57C168.65 179.57 168.76 179.57 168.86 179.57C175.2 179.52 181.53 179.56 187.86 179.69C188.15 179.69 188.44 179.71 188.73 179.71C192.74 179.8 196.74 179.94 200.75 180.12C203.3 180.24 205.84 180.37 208.39 180.51C211.38 180.68 214.38 180.87 217.37 181.09C222.44 181.46 227.51 181.91 232.57 182.4C234.36 182.58 236.15 182.77 237.94 182.97C241.96 183.42 245.97 183.92 249.98 184.47C255.79 185.27 261.59 186.2 267.36 187.28C272.5 188.24 277.62 189.3 282.7 190.54C290.64 192.47 298.48 194.71 306.1 197.69C306.7 197.93 307.32 198.06 307.92 198.33C311.29 199.85 314.65 201.37 317.88 203.18C320.23 204.5 322.41 206.05 324.54 207.7C326.58 209.28 328.21 211.21 329.58 213.37C330.43 214.71 330.9 216.2 331.26 217.73C331.4 217.01 331.32 216.28 331.32 215.56L331.35 215.58Z" fill="#FDBF41"/>
<path d="M213.78 58.8102C216.54 63.1202 218.54 67.7802 220.05 72.6602C220.52 74.1702 220.94 75.6902 221.32 77.2202C221.95 79.7702 222.44 82.3602 222.83 84.9602C222.94 85.7202 223.05 86.4802 223.15 87.2502C223.34 88.7802 223.51 90.3102 223.65 91.8402C223.71 92.6102 223.77 93.3702 223.83 94.1402C224.11 98.3202 224.23 102.5 224.12 106.69C224 111.07 223.74 115.45 223.3 119.82C222.86 124.16 222.26 128.48 221.54 132.77C221.11 135.35 220.63 137.92 220.11 140.47C215.97 140.14 211.83 139.86 207.68 139.66C205.69 139.57 203.69 139.46 201.69 139.36C203.04 133.56 204.18 127.72 205.07 121.82C206.05 115.29 206.75 108.74 207.01 102.15C207.22 96.5502 207.19 90.9402 206.74 85.3402C206.36 80.6702 205.73 76.0502 204.73 71.4702C203.6 66.3202 202.01 61.3202 199.73 56.5502C198.83 54.6602 197.77 52.8502 196.71 51.0502C197.58 50.7702 198.49 50.7402 199.38 50.6502C199.85 50.6002 200.32 50.5602 200.78 50.5302C201.18 50.5102 201.58 50.4902 201.98 50.4802C202.63 50.4702 203.28 50.4702 203.93 50.4802C204.38 50.4902 204.84 50.5102 205.29 50.5302C205.64 50.5502 205.99 50.5702 206.34 50.6002C206.4 50.6002 206.46 50.6102 206.51 50.6202C206.62 50.6402 206.72 50.6702 206.82 50.7102C206.92 50.7502 207.01 50.8002 207.1 50.8602C207.23 50.9402 207.36 51.0502 207.48 51.1602C207.79 51.4402 208.09 51.7302 208.38 52.0202C208.97 52.6002 209.54 53.2102 210.08 53.8302C211.45 55.3802 212.68 57.0302 213.81 58.7902L213.78 58.8102Z" fill="#F1ECE2"/>
<path d="M204.7 71.4698C205.7 76.0398 206.33 80.6698 206.71 85.3398C207.17 90.9398 207.2 96.5498 206.98 102.15C206.73 108.74 206.03 115.29 205.04 121.82C204.15 127.72 203.01 133.57 201.66 139.36C200.15 139.29 198.63 139.21 197.12 139.15C193.66 139.02 190.21 138.94 186.75 138.87C185.46 138.84 184.17 138.82 182.89 138.8C184.15 134.05 185.26 129.26 186.21 124.44C186.93 120.83 187.55 117.2 188.1 113.56C188.46 111.12 188.78 108.68 189.06 106.23C189.35 103.67 189.58 101.1 189.74 98.5198C189.91 95.7698 190.02 93.0098 190.08 90.2598C190.15 86.5698 190.03 82.8898 189.76 79.2098C189.58 76.7798 189.35 74.3598 189.04 71.9398C188.62 68.6298 188.02 65.3598 187.23 62.1198C186.6 59.5298 185.88 56.9498 184.92 54.4498C185.58 54.0298 186.34 53.8198 187.07 53.5498C188.55 52.9998 190.04 52.5198 191.56 52.0998C193.08 51.6898 194.61 51.3398 196.17 51.0798C196.28 51.0598 196.38 51.0298 196.49 51.0298C196.56 51.0298 196.62 51.0298 196.68 51.0498C197.74 52.8498 198.8 54.6498 199.7 56.5498C201.98 61.3198 203.57 66.3198 204.7 71.4698V71.4698Z" fill="#FDBF41"/>
<path d="M248.17 62.9899C248.17 62.9899 248.13 62.9599 248.13 62.9399C248.13 62.9299 248.13 62.9199 248.13 62.8999L248.18 62.9299L248.16 62.9799L248.17 62.9899Z" fill="#3180F4"/>
<path d="M331.26 257.24C331.27 256.98 331.29 256.72 331.29 256.46C331.29 252.18 331.3 247.89 331.3 243.61C331.3 241.76 331.27 239.91 331.26 238.06C331.26 237.95 331.31 237.83 331.3 237.72C331.27 237.65 331.23 237.6 331.2 237.54C331.2 237.54 331.2 237.55 331.2 237.56C331.2 237.55 331.2 237.54 331.19 237.53C331.11 237.26 331.02 237 330.94 236.73C330.82 236.35 330.68 235.98 330.54 235.63C330.4 235.27 330.24 234.92 330.07 234.57C329.9 234.23 329.71 233.89 329.52 233.57C329.29 233.19 329.05 232.82 328.79 232.46C328.26 231.72 327.67 231.03 327.01 230.38C326.62 229.99 326.21 229.61 325.78 229.24C325.42 228.88 325.05 228.55 324.67 228.23C323.02 226.83 321.19 225.67 319.41 224.44C318.94 224.12 318.45 223.83 317.96 223.56C317.57 223.35 317.17 223.14 316.77 222.94C316.47 222.79 316.16 222.64 315.86 222.49C315.47 222.29 315.08 222.1 314.69 221.91C313.11 221.13 311.52 220.36 309.9 219.66C308.83 219.21 307.77 218.76 306.69 218.34C302.39 216.64 298.02 215.17 293.6 213.87C290.28 212.89 286.93 212 283.57 211.18C281.35 210.64 279.13 210.12 276.9 209.64C274.67 209.16 272.44 208.7 270.2 208.26C266.39 207.51 262.57 206.82 258.75 206.21C257.47 206.01 256.2 205.81 254.92 205.62C251.84 205.16 248.77 204.72 245.68 204.31C242.6 203.9 239.51 203.53 236.41 203.22C234.48 203.03 232.55 202.83 230.62 202.64C230.53 202.64 230.43 202.62 230.34 202.61C227.65 202.34 224.96 202.09 222.26 201.87C219.34 201.63 216.41 201.43 213.49 201.23C211.54 201.1 209.59 200.98 207.64 200.88C205.1 200.74 202.56 200.61 200.03 200.51C199.64 200.49 199.25 200.47 198.86 200.46C196.49 200.36 194.13 200.28 191.76 200.21C189.39 200.14 187.03 200.08 184.66 200.04C183.79 200.03 182.92 200.02 182.05 200.01C181.24 200 180.43 199.99 179.62 199.98C177.38 199.96 175.14 199.95 172.91 199.96C171.6 199.96 170.29 199.97 168.99 199.98C165.52 200.01 162.05 200.06 158.58 200.15C157.63 200.17 156.68 200.2 155.72 200.22C154.25 200.26 152.77 200.31 151.3 200.37C150.31 200.41 149.32 200.46 148.33 200.5C144.48 200.66 140.63 200.86 136.78 201.09C132.69 201.35 128.6 201.63 124.52 201.98C121.82 202.21 119.12 202.46 116.43 202.73C112.39 203.13 108.36 203.58 104.33 204.09C100.3 204.6 96.2801 205.16 92.2701 205.78C91.1601 205.95 90.0501 206.13 88.9401 206.32C88.1901 206.44 87.4501 206.57 86.7001 206.7C86.1301 206.8 85.5602 206.89 84.9902 206.99C85.8002 202.91 86.7301 198.86 87.7601 194.83C88.1501 193.31 88.5301 191.8 88.9101 190.28C89.4501 188.79 89.8401 187.25 90.2701 185.73C90.3201 185.55 90.3701 185.38 90.4201 185.2C92.5301 178.09 94.9302 171.08 97.6002 164.18C99.2902 159.8 101.09 155.46 103 151.16C104.28 148.28 105.61 145.41 106.98 142.58C111.51 133.21 116.54 124.1 122.12 115.29C127.33 107.03 133 99.11 139.21 91.57C139.34 91.42 139.44 91.24 139.56 91.08C141.43 88.94 143.27 86.78 145.18 84.67C151.4 77.78 158.1 71.4 165.52 65.81C167.35 64.43 169.24 63.13 171.11 61.8C171.28 61.68 171.49 61.66 171.69 61.65C171.78 61.38 172.03 61.26 172.24 61.13C176.07 58.68 180.05 56.5 184.24 54.74C184.39 54.68 184.53 54.6 184.69 54.55C184.73 54.54 184.78 54.53 184.83 54.52C184.88 54.52 184.93 54.5 184.98 54.5C185.64 54.08 186.4 53.87 187.13 53.6C188.61 53.05 190.1 52.57 191.62 52.15C193.14 51.74 194.67 51.39 196.23 51.13C196.34 51.11 196.44 51.08 196.55 51.08C196.62 51.08 196.68 51.08 196.74 51.1C197.61 50.82 198.52 50.79 199.41 50.7C199.88 50.65 200.35 50.61 200.81 50.58C201.21 50.56 201.61 50.54 202.01 50.53C202.66 50.52 203.31 50.52 203.96 50.53C204.41 50.54 204.87 50.56 205.32 50.58C205.67 50.6 206.02 50.62 206.37 50.65C206.43 50.65 206.49 50.66 206.54 50.67C206.65 50.69 206.75 50.72 206.85 50.76C206.95 50.8 207.04 50.85 207.13 50.91C207.26 50.99 207.39 51.1 207.51 51.21C207.82 51.49 208.12 51.78 208.41 52.07C209 52.65 209.57 53.26 210.11 53.88C211.48 55.43 212.71 57.08 213.84 58.84C216.6 63.15 218.6 67.81 220.11 72.69C220.58 74.2 221 75.72 221.38 77.25C222.01 79.8 222.5 82.39 222.89 84.99C223 85.75 223.11 86.51 223.21 87.28C223.4 88.81 223.57 90.34 223.71 91.87C223.77 92.64 223.83 93.4 223.89 94.17C224.17 98.35 224.29 102.53 224.18 106.72C224.06 111.1 223.8 115.48 223.36 119.85C222.92 124.19 222.32 128.51 221.6 132.8C221.17 135.38 220.69 137.95 220.17 140.5C220.84 140.55 221.51 140.6 222.18 140.66C226.99 141.06 231.79 141.54 236.59 141.98C236.55 141.93 236.51 141.89 236.46 141.85C240.44 142.34 244.43 142.82 248.41 143.31C248.39 143.35 248.36 143.39 248.32 143.43C248.56 143.46 248.8 143.5 249.04 143.53C249.84 139.59 250.56 135.65 251.17 131.68C251.71 128.12 252.19 124.55 252.56 120.97C252.91 117.62 253.22 114.27 253.38 110.9C253.46 109.28 253.55 107.65 253.65 106.03C253.66 105.82 253.55 105.54 253.88 105.45C253.88 102.43 253.86 99.4 253.85 96.38C253.69 96.31 253.68 96.17 253.66 96.02C253.62 95.41 253.55 94.81 253.53 94.2C253.41 89.81 253.01 85.45 252.42 81.11C251.77 76.3 250.81 71.56 249.48 66.89C249.15 65.72 248.87 64.54 248.35 63.43L248.24 63.03C248.24 63.03 248.2 63 248.2 62.98C248.2 62.97 248.2 62.96 248.2 62.94C248.17 62.8 248.15 62.66 248.1 62.52C246.17 56.95 243.65 51.67 240.18 46.87C236.84 42.24 232.81 38.37 227.84 35.49C225.98 34.41 223.96 33.65 222.05 32.68C221.88 32.59 221.66 32.61 221.46 32.57C221.29 32.35 221.02 32.29 220.79 32.18C216.28 30.18 211.78 28.18 207.26 26.2C206.68 25.94 206.15 25.56 205.5 25.48C205.39 25.44 205.28 25.41 205.17 25.37C204.4 25.12 203.61 24.94 202.87 24.59C202.8 24.57 202.74 24.55 202.67 24.52C202.64 24.51 202.6 24.5 202.57 24.49C202.57 24.49 202.56 24.49 202.55 24.49C202.47 24.54 202.42 24.5 202.37 24.43C200.92 24.06 199.47 23.78 198 23.58C196.94 23.43 195.88 23.32 194.81 23.26C194.45 23.24 194.1 23.23 193.74 23.22C192.67 23.19 191.61 23.2 190.55 23.25C189.14 23.31 187.74 23.44 186.34 23.63C183.9 23.97 181.48 24.48 179.08 25.14C178.74 25.24 178.39 25.33 178.05 25.44C173.54 26.78 169.24 28.59 165.09 30.73C163.71 31.44 162.34 32.19 160.98 32.98C159.74 33.69 158.52 34.42 157.31 35.19C156.91 35.44 156.51 35.7 156.11 35.96C155.71 36.22 155.31 36.48 154.92 36.75C154.13 37.28 153.35 37.82 152.58 38.38C152.2 38.66 151.81 38.94 151.43 39.22C151.43 39.25 151.43 39.27 151.43 39.3C151.43 39.32 151.41 39.34 151.4 39.36C151.37 39.39 151.33 39.4 151.27 39.4H151.26C151.26 39.4 151.26 39.44 151.26 39.45C151.26 39.49 151.24 39.51 151.22 39.52C151.2 39.53 151.18 39.53 151.14 39.52C151.13 39.52 151.11 39.52 151.1 39.5C149.4 40.69 147.75 41.93 146.14 43.22C145.42 43.79 144.71 44.38 144.01 44.97C143.9 45.06 143.79 45.16 143.68 45.25C142.96 45.86 142.24 46.48 141.53 47.11C141.53 47.13 141.53 47.14 141.53 47.16C141.53 47.21 141.51 47.24 141.48 47.27C141.48 47.27 141.46 47.28 141.45 47.29C141.43 47.3 141.4 47.31 141.37 47.31C141.35 47.35 141.32 47.39 141.29 47.42C141.25 47.46 141.22 47.5 141.17 47.53C141.11 47.57 141.04 47.61 140.96 47.62C140.96 47.71 140.94 47.76 140.9 47.78C140.84 47.82 140.73 47.79 140.65 47.8C140.38 48.08 140.1 48.36 139.83 48.63C139.81 48.65 139.8 48.67 139.78 48.68C139.78 48.69 139.78 48.71 139.78 48.72C139.78 48.76 139.76 48.78 139.74 48.81H139.73C139.73 48.81 139.67 48.84 139.61 48.84C139.37 49.04 139.11 49.22 138.88 49.43C138.86 49.45 138.84 49.46 138.82 49.48C137.94 50.31 137.05 51.14 136.18 51.99C136.12 52.05 136.06 52.1 136.01 52.15C135.74 52.42 135.46 52.67 135.18 52.93C134.48 53.58 133.76 54.21 133.09 54.89C132.73 55.26 132.36 55.63 132 55.99C129.92 58.1 127.86 60.23 125.87 62.43C123.33 65.24 120.86 68.1 118.46 71.02C118.12 71.44 117.77 71.85 117.43 72.27C117.38 72.33 117.32 72.4 117.28 72.47C117.21 72.57 117.14 72.67 117.07 72.78C116.98 72.92 116.89 73.06 116.8 73.19C116.73 73.29 116.66 73.38 116.58 73.48C116.55 73.51 116.53 73.54 116.51 73.56C116.4 73.68 116.29 73.79 116.16 73.88C116.16 73.91 116.15 73.92 116.14 73.94C116.14 73.96 116.14 73.98 116.12 74C116.12 74.01 116.1 74.02 116.09 74.03C116.07 74.04 116.04 74.05 116.02 74.06C115.96 74.34 115.73 74.48 115.54 74.66C115.53 74.66 115.52 74.68 115.51 74.69C115.45 74.74 115.41 74.8 115.37 74.86C115.35 74.89 115.33 74.92 115.32 74.96C115.31 75 115.29 75.03 115.28 75.07C115.28 75.09 115.28 75.1 115.28 75.12C115.28 75.17 115.26 75.2 115.22 75.23C115.22 75.23 115.2 75.23 115.2 75.24C115.19 75.24 115.17 75.24 115.16 75.24C115.15 75.24 115.14 75.24 115.12 75.24C114.68 75.79 114.23 76.34 113.79 76.89C113.77 76.92 113.74 76.95 113.72 76.98C113.73 77.05 113.73 77.11 113.72 77.17C113.72 77.22 113.69 77.25 113.67 77.29C113.67 77.3 113.65 77.32 113.65 77.33C113.62 77.36 113.58 77.4 113.54 77.42C113.49 77.45 113.43 77.47 113.37 77.49C113.3 77.57 113.23 77.64 113.16 77.72C113.13 77.75 113.11 77.78 113.09 77.8C113.03 77.86 112.98 77.93 112.93 77.99C111.8 79.51 110.67 81.04 109.54 82.56C109.54 82.61 109.52 82.64 109.49 82.67C109.49 82.67 109.48 82.68 109.47 82.69C109.45 82.71 109.42 82.72 109.39 82.72C108.61 83.82 107.81 84.91 107.04 86.02C106.89 86.24 106.74 86.46 106.59 86.68C105.44 88.37 104.36 90.11 103.2 91.79C102.62 92.63 102.07 93.49 101.52 94.34C100.96 95.19 100.4 96.04 99.7901 96.87C98.8201 98.2 97.9901 99.65 97.1401 101.06C96.7701 101.67 96.4001 102.28 96.0401 102.89C91.9301 109.71 87.9401 116.6 84.5401 123.81C84.3401 124.23 84.1101 124.62 83.8801 125.02C83.6501 125.41 83.4102 125.81 83.2102 126.21C82.0502 128.54 80.9202 130.88 79.8202 133.24C79.4102 134.12 79.0102 135 78.6002 135.89C78.0702 137.04 77.5501 138.2 77.0401 139.36C76.3901 140.83 75.7402 142.31 75.1002 143.8C74.8302 144.42 74.5701 145.05 74.3101 145.68C73.9801 146.46 73.6501 147.24 73.3301 148.03C72.1901 150.8 71.0901 153.6 70.0201 156.4C69.7101 157.22 69.4002 158.04 69.1002 158.87C68.3702 160.87 67.6601 162.87 66.9501 164.88C66.7801 165.36 66.6101 165.84 66.4401 166.32C66.3101 166.69 66.1801 167.07 66.0601 167.45C65.7301 168.4 65.4201 169.36 65.1201 170.32C64.7501 171.49 64.3901 172.66 64.0301 173.83C63.7701 174.67 63.5102 175.5 63.2402 176.34C62.6302 178.21 61.9201 180.06 61.6801 182.03C61.6701 182.13 61.5502 182.22 61.4902 182.31C61.1902 183.13 61.0101 183.97 60.8101 184.81C60.7101 185.21 60.5901 185.61 60.4701 186.01C60.3501 186.41 60.2301 186.81 60.1201 187.21C59.6601 188.93 59.2101 190.66 58.7901 192.39C58.4001 193.95 58.0301 195.53 57.6701 197.1C57.2701 198.87 56.8901 200.64 56.5201 202.41C56.2001 203.96 55.8902 205.52 55.6002 207.08C55.3702 208.32 55.1401 209.55 54.9301 210.79C54.7401 211.88 54.5701 212.97 54.3901 214.06C54.1701 215.45 53.9601 216.83 53.7701 218.22C53.6001 219.47 53.4401 220.71 53.2801 221.96C52.8601 225.39 52.5201 228.82 52.2501 232.27C52.1801 233.26 52.1101 234.24 52.0601 235.23C52.0001 236.22 51.9501 237.2 51.9101 238.19C51.8301 240.16 51.7702 242.14 51.7102 244.11C51.7002 244.56 51.7001 245.01 51.6901 245.46C51.6901 245.6 51.6901 245.73 51.6901 245.87C51.6801 248.4 51.7801 250.92 51.8601 253.43C51.8601 253.54 51.8802 253.66 51.8802 253.77C51.9002 254.22 51.9201 254.67 51.9501 255.12C52.0401 256.94 52.1902 258.76 52.3802 260.58C52.5102 261.81 52.6501 263.05 52.8101 264.28C52.8301 264.46 52.8602 264.63 52.8802 264.81C53.2202 267.31 53.6102 269.8 54.1002 272.27C55.0102 276.89 56.2202 281.43 57.8802 285.84C57.9102 285.91 57.9401 285.99 57.9701 286.07C59.2101 289.33 60.6501 292.5 62.4201 295.52C65.3301 300.49 68.8801 304.89 73.4101 308.4C73.9501 308.82 74.5001 309.22 75.0601 309.62C75.6001 309.99 76.1802 310.33 76.7402 310.67C76.8402 310.74 76.9602 310.79 77.0702 310.84C77.1502 310.88 77.2301 310.91 77.3101 310.95C77.4501 311.02 77.5801 311.11 77.6701 311.24C77.7001 311.28 77.7301 311.34 77.7601 311.4V311.38C77.9101 311.36 78.0401 311.39 78.1101 311.55H78.1201C78.2601 311.55 78.3902 311.59 78.4602 311.72C78.5002 311.72 78.5301 311.72 78.5601 311.73H78.5702C78.6602 311.75 78.7401 311.79 78.8001 311.88C78.8001 311.88 78.8001 311.88 78.8001 311.89C78.8001 311.89 78.8201 311.89 78.8301 311.89C78.8501 311.89 78.8701 311.89 78.8901 311.89C78.9101 311.89 78.9201 311.9 78.9501 311.9C78.9601 311.9 78.9802 311.9 78.9902 311.91C79.0102 311.91 79.0301 311.93 79.0501 311.94C79.0501 311.94 79.0701 311.94 79.0801 311.95C79.1001 311.97 79.1201 311.99 79.1401 312.01C79.1401 312.01 79.1401 312.01 79.1501 312.01C79.3401 312.21 79.6001 312.26 79.8401 312.37C84.8301 314.58 89.8302 316.79 94.8202 319C97.2902 320.09 99.7402 321.24 102.35 321.96C104.96 322.68 107.61 323.17 110.32 323.28C110.77 323.28 111.22 323.28 111.67 323.28C113.02 323.28 114.37 323.28 115.72 323.28C117.03 323.24 118.33 323.07 119.62 322.87C124.87 322.08 129.91 320.53 134.78 318.44C143.7 314.61 151.75 309.38 159.3 303.33C160.96 302 162.58 300.63 164.19 299.24C169.8 299.34 175.4 299.37 181.01 299.31C186.35 299.25 191.7 299.16 197.04 298.95C197.3 298.8 197.58 298.8 197.86 298.91C197.94 298.91 198.02 298.91 198.1 298.91C198.42 298.76 198.75 298.77 199.08 298.87H199.32C199.51 298.75 199.71 298.73 199.91 298.77C199.91 298.77 199.92 298.77 199.93 298.77H199.94C200.01 298.79 200.07 298.81 200.13 298.83H200.37C200.5 298.75 200.63 298.72 200.76 298.71C200.9 298.71 201.04 298.74 201.19 298.78C201.27 298.78 201.35 298.78 201.43 298.78C201.52 298.73 201.61 298.7 201.7 298.68C201.88 298.64 202.07 298.66 202.26 298.73C202.34 298.73 202.41 298.73 202.49 298.73C202.49 298.73 202.51 298.73 202.52 298.72C202.78 298.59 203.05 298.59 203.31 298.69C203.39 298.69 203.47 298.69 203.54 298.69C203.81 298.52 204.08 298.54 204.37 298.64C204.45 298.64 204.53 298.64 204.6 298.64C204.87 298.48 205.15 298.5 205.43 298.59C205.51 298.59 205.59 298.59 205.66 298.59C205.72 298.55 205.77 298.53 205.82 298.51C205.91 298.48 205.99 298.48 206.08 298.48C206.16 298.48 206.25 298.5 206.33 298.54C207.55 298.48 208.76 298.44 209.98 298.37C219.32 297.82 228.63 297.08 237.93 296.05C252.05 294.48 266.08 292.37 279.94 289.21C289.38 287.06 298.69 284.48 307.69 280.85C312.52 278.9 317.21 276.67 321.55 273.75C324.16 271.99 326.58 270.01 328.52 267.48C329.74 265.87 330.73 264.14 331.11 262.12C331.26 261.96 331.32 261.77 331.33 261.57C331.42 260.12 331.47 258.68 331.34 257.23L331.26 257.24ZM205.91 226.65C203.31 226.49 200.72 226.35 198.12 226.24C200.72 226.36 203.31 226.5 205.91 226.65ZM148.24 273.86C147.82 274.23 147.4 274.61 146.98 274.98C144.03 277.57 140.99 280.02 137.82 282.31C134.65 284.59 131.36 286.71 127.92 288.6C127.43 288.87 126.93 289.14 126.43 289.4C125.28 290 124.12 290.57 122.95 291.12C121.78 291.66 120.59 292.16 119.39 292.63C116.99 293.57 114.53 294.35 111.99 294.95C110.89 295.21 109.79 295.43 108.69 295.6C108.3 295.66 107.91 295.72 107.53 295.78C106.03 295.98 104.53 296.1 103.02 296.14C102.52 296.15 102.01 296.16 101.51 296.15C101 296.15 100.5 296.13 99.9902 296.11C99.7702 296.1 99.5601 296.07 99.3401 296.05C99.1301 296.03 98.9101 296 98.6901 295.98C98.4101 295.96 98.2002 295.84 97.9902 295.66C97.3902 295.12 96.8201 294.56 96.2601 293.98C95.4301 293.12 94.6401 292.22 93.9001 291.29C93.4101 290.67 92.9301 290.03 92.4701 289.37C92.2401 289.04 92.0201 288.71 91.8001 288.38C91.7801 288.35 91.7701 288.32 91.7601 288.29C91.7501 288.24 91.7301 288.18 91.7201 288.13C91.6301 288.04 91.5101 287.95 91.4401 287.85L91.4201 287.83C90.3901 286.2 89.4601 284.52 88.6201 282.79C88.2001 281.92 87.8001 281.06 87.4301 280.17C87.0501 279.29 86.7001 278.39 86.3701 277.48C86.3301 277.37 86.3402 277.26 86.3202 277.14C85.7402 276.06 85.4501 274.88 85.0901 273.73C84.2901 271.16 83.6601 268.55 83.1401 265.91C83.0501 265.44 82.9601 264.98 82.8701 264.51C82.8301 264.32 82.8101 264.14 82.7701 263.95C82.7301 263.72 82.6801 263.49 82.6401 263.26C82.6401 263.2 82.6401 263.15 82.6201 263.09C82.6001 262.89 82.5902 262.68 82.5702 262.48C82.2302 261.01 82.0801 259.51 81.9101 258.01C81.3301 253.23 81.1102 248.43 81.1002 243.63C81.1002 241.82 81.1201 240 81.1701 238.18C81.2001 237.1 81.2501 236.03 81.3101 234.96C85.2601 234.02 89.2401 233.19 93.2301 232.43C100.05 231.14 106.91 230.09 113.79 229.24C113.9 229.23 114.01 229.21 114.12 229.2C114.25 229.18 114.38 229.17 114.51 229.18C114.59 229.18 114.67 229.2 114.75 229.22C115.82 228.99 116.91 228.87 118 228.76C118.5 228.71 119 228.66 119.49 228.61C127.05 227.77 134.62 227.13 142.2 226.67C144.33 226.54 146.46 226.42 148.58 226.32C154.02 226.06 159.46 225.89 164.9 225.79C167.88 225.73 170.86 225.7 173.84 225.7C178.09 225.7 182.34 225.75 186.58 225.85C185.66 227.38 184.73 228.91 183.78 230.42C183.09 231.53 182.39 232.63 181.68 233.72C180.41 235.67 179.12 237.6 177.8 239.52C175.36 243.06 172.83 246.53 170.2 249.93C169.37 251.01 168.53 252.08 167.67 253.14C167.52 253.33 167.37 253.52 167.22 253.7C165.98 255.24 164.72 256.75 163.43 258.24C161.28 260.73 159.07 263.16 156.8 265.54C156.11 266.26 155.42 266.98 154.72 267.69C152.92 269.51 151.06 271.29 149.16 273.02C149.74 273.05 150.32 273.07 150.9 273.1C150.32 273.07 149.74 273.05 149.16 273.02C148.85 273.3 148.54 273.59 148.23 273.87L148.24 273.86ZM158.36 273.38C160.56 273.45 162.77 273.51 164.97 273.55C162.76 273.51 160.56 273.45 158.36 273.38ZM303.78 249.96C303.72 250.04 303.62 250.12 303.46 250.24C303.25 250.4 303.04 250.57 302.82 250.72C302.61 250.88 302.39 251.03 302.17 251.19C301.76 251.48 301.34 251.76 300.91 252.03C300.86 252.06 300.81 252.09 300.76 252.13C300.41 252.35 300.06 252.57 299.7 252.78C299.17 253.1 298.65 253.4 298.11 253.7C294.45 255.74 290.6 257.38 286.67 258.83C282.96 260.19 279.2 261.38 275.41 262.44C269.98 263.96 264.48 265.22 258.93 266.32C253.54 267.4 248.13 268.31 242.7 269.1C237.27 269.89 231.82 270.55 226.36 271.12C224.57 271.31 222.78 271.48 220.99 271.65C217.4 271.98 213.81 272.26 210.22 272.5C208.42 272.62 206.62 272.73 204.83 272.83C200.8 273.06 196.77 273.23 192.74 273.36C192.01 273.38 191.28 273.41 190.54 273.43C189.87 273.45 189.2 273.47 188.52 273.49C190.17 271.45 191.82 269.42 193.33 267.27C193.55 267 193.77 266.73 193.98 266.45C197.21 262.1 200.31 257.67 203.29 253.16C203.45 252.91 204.28 251.65 204.53 251.26C206.42 248.35 208.25 245.41 210.04 242.43C212.96 237.55 215.75 232.6 218.4 227.58C223.46 228.02 228.51 228.53 233.56 229.15C233.93 229.19 234.3 229.27 234.68 229.33C236.94 229.49 239.18 229.83 241.41 230.16C244.28 230.58 247.15 231.04 250.01 231.52C253.87 232.17 257.73 232.89 261.56 233.72C263.63 234.17 265.69 234.63 267.76 235.08C267.78 235.08 267.81 235.08 267.83 235.09C267.85 235.09 267.87 235.09 267.9 235.1C268.03 235.12 268.18 235.12 268.32 235.14C268.5 235.16 268.68 235.21 268.82 235.36C273.24 236.49 277.65 237.68 281.98 239.11C282.38 239.24 282.84 239.28 283.15 239.62C284.28 239.82 285.31 240.29 286.37 240.68C287.3 241.02 288.23 241.38 289.15 241.75C291.78 242.79 294.36 243.94 296.86 245.27C297.85 245.79 298.82 246.34 299.78 246.92C301.05 247.69 302.29 248.5 303.45 249.43C303.79 249.7 303.89 249.81 303.76 249.97L303.78 249.96Z" fill="#007FFF"/>
<path d="M331.35 177.89C331.23 175.5 330.32 173.39 328.93 171.47C326.97 168.74 324.44 166.61 321.7 164.73C317.03 161.53 311.92 159.18 306.69 157.08C303.78 155.91 300.83 154.87 297.85 153.91C293.31 152.45 288.7 151.2 284.07 150.06C278.28 148.64 272.46 147.41 266.6 146.34C263.03 145.69 259.45 145.06 255.86 144.54C255.75 144.54 255.64 144.53 255.53 144.52C255.47 144.52 255.4 144.51 255.34 144.5C255.21 144.49 255.07 144.47 254.94 144.46C254.64 144.42 254.33 144.36 254.04 144.29C252.97 144.12 251.91 143.95 250.84 143.77C250.22 143.68 249.6 143.59 248.98 143.51C248.74 143.47 248.5 143.44 248.26 143.41C245.79 143.11 243.31 142.82 240.84 142.5C240.12 142.41 239.4 142.35 238.68 142.27C237.96 142.2 237.24 142.11 236.53 141.97C231.73 141.52 226.93 141.04 222.12 140.65C221.45 140.6 220.78 140.54 220.11 140.49C215.97 140.16 211.83 139.88 207.68 139.68C205.69 139.59 203.69 139.48 201.69 139.38C200.18 139.31 198.66 139.23 197.15 139.17C193.69 139.04 190.24 138.96 186.78 138.89C185.49 138.86 184.2 138.84 182.92 138.82C180.75 138.78 182.92 138.82 182.92 138.82C182.92 138.82 185.29 129.28 186.24 124.46C186.96 120.85 187.58 117.22 188.13 113.58C188.49 111.14 188.81 108.7 189.09 106.25C189.38 103.69 189.61 101.12 189.77 98.5402C189.94 95.7902 190.05 93.0302 190.11 90.2802C190.18 86.5902 190.06 82.9102 189.79 79.2302C189.61 76.8002 189.38 74.3802 189.07 71.9602C188.65 68.6502 188.05 65.3802 187.26 62.1402C186.63 59.5502 185.91 56.9702 184.95 54.4702C184.9 54.4702 184.85 54.4702 184.8 54.4902C184.75 54.4902 184.7 54.5102 184.66 54.5202C184.5 54.5702 184.36 54.6502 184.21 54.7102C180.01 56.4702 176.04 58.6602 172.21 61.1002C171.99 61.2402 171.75 61.3502 171.66 61.6202C172.58 67.4302 173.01 73.2702 173.06 79.1502C173.14 87.5602 172.52 95.9202 171.37 104.25C170.5 110.52 169.35 116.74 167.95 122.92C166.74 128.28 165.34 133.59 163.78 138.85C160.01 138.89 156.23 139.01 152.46 139.13C147.44 139.3 142.42 139.53 137.41 139.85C132.99 140.13 128.56 140.42 124.14 140.8C118.4 141.3 112.67 141.86 106.96 142.56C105.59 145.4 104.26 148.26 102.98 151.14C101.07 155.44 99.2701 159.78 97.5801 164.16C97.6601 164.15 97.7301 164.14 97.8101 164.13C104.48 163.19 111.18 162.41 117.88 161.74C119.8 161.55 121.72 161.32 123.65 161.15C128.41 160.75 133.18 160.48 137.95 160.18C144.15 159.78 150.36 159.53 156.58 159.35C156.66 159.35 156.73 159.35 156.81 159.35C162.1 159.2 167.39 159.13 172.69 159.12C174.02 159.12 175.35 159.12 176.69 159.13C179.71 159.14 182.74 159.17 185.76 159.22C189.19 159.28 192.61 159.41 196.04 159.53C196.07 159.53 196.1 159.53 196.13 159.53C199.41 159.65 202.69 159.77 205.97 159.93C208.49 160.05 211.01 160.23 213.53 160.42C214.07 160.46 214.61 160.5 215.15 160.54C218.93 160.81 222.7 161.09 226.48 161.38C227.41 161.45 228.33 161.58 229.26 161.67C234.26 162.11 239.25 162.67 244.23 163.31C246.46 163.59 248.68 163.89 250.91 164.19C255.6 164.84 260.28 165.62 264.94 166.43C269.43 167.22 273.91 168.11 278.35 169.12C282.26 170.01 286.15 170.98 290.01 172.03C295.08 173.41 300.06 175.02 304.98 176.84C309.23 178.42 313.34 180.28 317.32 182.45C320.06 183.95 322.66 185.63 325.03 187.67C327.18 189.52 329.06 191.6 330.31 194.2C330.81 195.23 331.04 196.34 331.36 197.42C331.37 195.27 331.39 193.12 331.4 190.97C331.4 187.78 331.4 184.58 331.4 181.39C331.4 180.23 331.44 179.06 331.38 177.91L331.35 177.89Z" fill="#FF1100"/>
<path d="M205.12 25.3398C204.35 25.0898 203.56 24.9098 202.82 24.5598C202.82 24.4598 202.83 24.3598 202.84 24.2598C203.76 24.5398 204.63 24.9298 205.44 25.4498C205.33 25.4098 205.22 25.3798 205.11 25.3398H205.12Z" fill="#404A5A"/>
<path d="M202.43 24.4002C202.43 24.4002 202.5 24.4302 202.52 24.4602C202.52 24.4602 202.51 24.4602 202.5 24.4602C202.42 24.5102 202.37 24.4702 202.32 24.4002C202.36 24.3902 202.39 24.3802 202.43 24.4002Z" fill="#404A5A"/>
<path d="M109.46 82.5701C109.46 82.5701 109.44 82.6501 109.41 82.6801C109.41 82.6801 109.4 82.6901 109.39 82.7001C109.37 82.7201 109.34 82.7301 109.31 82.7301C109.31 82.7201 109.31 82.7101 109.31 82.7001V82.6701C109.31 82.6701 109.37 82.6101 109.4 82.5901C109.42 82.5901 109.44 82.5701 109.46 82.5701V82.5701Z" fill="#404A5A"/>
<path d="M113.58 77.32C113.58 77.32 113.51 77.39 113.47 77.41C113.42 77.44 113.37 77.4599 113.3 77.4799C113.3 77.4399 113.3 77.41 113.3 77.38C113.3 77.35 113.3 77.32 113.31 77.3C113.33 77.25 113.35 77.2 113.38 77.16C113.41 77.12 113.46 77.09 113.5 77.05C113.55 77.02 113.6 76.99 113.65 76.96C113.66 77.03 113.66 77.0899 113.65 77.1499C113.65 77.1999 113.62 77.23 113.6 77.27C113.6 77.28 113.58 77.3 113.58 77.31V77.32Z" fill="#404A5A"/>
<path d="M115.15 75.21C115.15 75.21 115.13 75.21 115.13 75.22C115.12 75.22 115.1 75.22 115.09 75.22C115.08 75.22 115.07 75.22 115.05 75.22C115.1 75.16 115.15 75.09 115.2 75.03C115.2 75.05 115.2 75.06 115.2 75.08C115.2 75.13 115.18 75.16 115.14 75.19L115.15 75.21Z" fill="#215CB5"/>
<path d="M115.96 73.9801C115.96 73.9301 116 73.8901 116.04 73.8701C116.06 73.8701 116.08 73.8601 116.1 73.8501C116.1 73.8801 116.09 73.8901 116.08 73.9101C116.08 73.9301 116.08 73.9501 116.06 73.9701C116.06 73.9801 116.04 73.9901 116.03 74.0001C116.01 74.0101 115.98 74.0201 115.96 74.0301C115.96 74.0101 115.96 74.0001 115.96 73.9801V73.9801Z" fill="#215CB5"/>
<path d="M186.95 17.3299C187.14 17.2499 187.26 17.3299 187.37 17.4799C187.2 17.5199 187.02 17.5599 186.95 17.3399V17.3299Z" fill="#FEC35E"/>
<path d="M186.94 17.3301H186.95L186.94 17.3401V17.3301Z" fill="#FDBF41"/>
<path d="M139.56 48.8001C139.62 48.7501 139.67 48.7001 139.73 48.6401C139.73 48.6501 139.73 48.6701 139.73 48.6801C139.73 48.7201 139.71 48.7401 139.69 48.7701H139.68C139.68 48.7701 139.62 48.8001 139.56 48.8001Z" fill="#404A5A"/>
<path d="M140.73 47.6198C140.78 47.5898 140.84 47.5698 140.91 47.5698C140.91 47.6598 140.89 47.7098 140.85 47.7298C140.79 47.7698 140.68 47.7398 140.6 47.7498C140.64 47.6898 140.68 47.6498 140.73 47.6198Z" fill="#404A5A"/>
<path d="M141.48 47.1201C141.48 47.1201 141.46 47.2001 141.43 47.2301C141.43 47.2301 141.41 47.2401 141.4 47.2501C141.38 47.2601 141.35 47.2701 141.32 47.2701C141.37 47.2101 141.43 47.1401 141.48 47.0801C141.48 47.1001 141.48 47.1101 141.48 47.1301V47.1201Z" fill="#404A5A"/>
<path d="M151.39 39.2599C151.39 39.2599 151.37 39.2999 151.36 39.3199C151.33 39.3499 151.29 39.3599 151.23 39.3599C151.28 39.2999 151.34 39.2499 151.4 39.1899C151.4 39.2199 151.4 39.2399 151.4 39.2699L151.39 39.2599Z" fill="#404A5A"/>
<path d="M151.21 39.3701C151.21 39.3701 151.21 39.4001 151.21 39.4101C151.21 39.4501 151.19 39.4701 151.17 39.4801C151.15 39.4901 151.13 39.4901 151.09 39.4801C151.08 39.4801 151.06 39.4801 151.05 39.4601C151.11 39.4301 151.16 39.4001 151.22 39.3701H151.21Z" fill="#404A5A"/>
<path d="M202.77 24.2102C197.83 22.0102 192.88 19.8202 187.94 17.6102C187.74 17.5202 187.54 17.5902 187.36 17.4802C187.19 17.5202 187.01 17.5602 186.94 17.3402C186.74 17.4302 186.55 17.3402 186.36 17.2702C182.03 15.9702 177.6 15.5702 173.09 15.8002C167.12 16.1102 161.4 17.5702 155.84 19.7202C154.09 20.3902 152.37 21.1302 150.69 21.9202C150.27 22.1202 149.85 22.3202 149.43 22.5302C148.94 22.7702 148.45 23.0102 147.97 23.2702C147.32 23.6002 146.68 23.9402 146.03 24.2902C142.66 26.1302 139.39 28.1802 136.22 30.3802C135.56 30.8402 134.9 31.3002 134.25 31.7702L133.86 32.0502C132.3 33.1902 130.77 34.3502 129.27 35.5502C125.51 38.5402 121.9 41.7202 118.41 45.0502C108.72 54.3002 100.11 64.5102 92.2302 75.3302C92.0302 75.6102 91.8302 75.9002 91.6302 76.1802C91.6302 76.1802 91.6102 76.2502 91.5902 76.2702C91.5702 76.2902 91.5402 76.3002 91.5002 76.3102C90.7902 77.3202 90.0902 78.3202 89.3802 79.3302C88.2002 81.0102 87.0402 82.6902 85.9002 84.4002C84.8202 86.0202 83.7502 87.6602 82.7002 89.3002C81.8602 90.6002 81.0402 91.9102 80.2302 93.2302C79.5102 94.4102 78.7902 95.5802 78.0802 96.7602C77.0802 98.4302 76.0902 100.11 75.1102 101.81C74.6202 102.66 74.1402 103.5 73.6602 104.36C73.6102 104.46 73.5402 104.55 73.4802 104.65C73.4802 104.76 73.4402 104.85 73.4002 104.94C73.3602 105 73.3202 105.07 73.2902 105.13C72.8402 105.93 72.4002 106.74 71.9602 107.55C70.3002 110.58 68.6802 113.64 67.1202 116.72C66.4602 118.02 65.8102 119.33 65.1702 120.64C61.7102 127.72 58.5002 134.91 55.5502 142.2C53.9802 146.07 52.4902 149.97 51.0702 153.89C50.3202 155.97 49.5802 158.06 48.8702 160.16C47.5602 164.04 46.3602 167.95 45.1902 171.87C44.7102 173.48 44.2402 175.1 43.7902 176.72C43.7802 176.76 43.7702 176.8 43.7602 176.84C43.0502 179.38 42.3902 181.93 41.7702 184.49C41.2002 186.79 40.6502 189.1 40.1402 191.42C39.7002 193.4 39.3002 195.39 38.9002 197.38C38.8102 197.85 38.7202 198.32 38.6302 198.8C38.5902 198.99 38.5602 199.18 38.5202 199.37C38.5102 199.44 38.4902 199.51 38.4802 199.59C38.4102 199.97 38.3302 200.34 38.2602 200.72C37.6902 203.83 37.1802 206.95 36.7402 210.09C36.3102 213.12 35.9302 216.14 35.6102 219.18C35.5402 219.86 35.4802 220.54 35.4102 221.22C35.4102 221.27 35.4002 221.32 35.4002 221.37C35.3502 221.89 35.3202 222.26 35.2802 222.63C35.1402 224.32 35.0202 226.02 34.9202 227.71C34.8202 229.41 34.7402 231.11 34.6902 232.81C34.6902 233.03 34.6902 233.25 34.6702 233.47C34.5702 236.74 34.5502 240 34.6502 243.26C34.7502 246.34 34.9202 249.41 35.2102 252.48C35.4902 255.54 35.8802 258.59 36.4102 261.64C36.6702 263.13 36.9502 264.61 37.2702 266.08C38.3302 271.04 39.7602 275.9 41.7202 280.6C41.8602 280.93 41.9902 281.25 42.1402 281.58C42.2802 281.9 42.4302 282.23 42.5702 282.55C42.9102 283.31 43.2702 284.06 43.6402 284.8C44.2602 286.04 44.9202 287.25 45.6202 288.43C47.5402 291.67 49.8002 294.68 52.4802 297.4C53.1802 298.12 53.9102 298.8 54.6602 299.45C56.0702 300.68 57.5702 301.81 59.1702 302.82C59.4702 303.01 59.8202 303.12 60.0402 303.41C60.0702 303.45 60.1002 303.5 60.1202 303.55C60.2702 303.52 60.3802 303.55 60.4202 303.71C61.0402 303.86 61.5402 304.28 62.1102 304.53C65.1502 305.88 68.1802 307.23 71.2202 308.58C72.9502 309.35 74.6902 310.1 76.4302 310.86L76.6502 310.66C76.0902 310.31 75.5102 309.98 74.9702 309.61C74.4002 309.22 73.8602 308.81 73.3202 308.39C68.7902 304.87 65.2402 300.48 62.3302 295.51C60.5602 292.49 59.1202 289.32 57.8802 286.06C57.8502 285.98 57.8202 285.91 57.7902 285.83C56.1302 281.42 54.9202 276.88 54.0102 272.26C53.5202 269.79 53.1302 267.3 52.7902 264.8C52.7702 264.62 52.7402 264.45 52.7202 264.27C52.5602 263.04 52.4202 261.8 52.2902 260.57C52.1002 258.75 51.9602 256.94 51.8602 255.11C51.8402 254.66 51.8102 254.21 51.7902 253.76C51.7902 253.65 51.7802 253.53 51.7702 253.42C51.6802 250.9 51.5902 248.38 51.6002 245.86C51.6002 245.72 51.6002 245.58 51.6002 245.45C51.6002 245 51.6002 244.55 51.6202 244.1C51.6802 242.12 51.7402 240.15 51.8202 238.18C51.8602 237.19 51.9102 236.21 51.9702 235.22C52.0302 234.23 52.0902 233.25 52.1602 232.26C52.4202 228.81 52.7702 225.38 53.1902 221.95C53.3402 220.7 53.5002 219.46 53.6802 218.21C53.8702 216.82 54.0802 215.43 54.3002 214.05C54.4702 212.96 54.6502 211.87 54.8402 210.78C55.0502 209.54 55.2802 208.31 55.5102 207.07C55.8002 205.51 56.1102 203.96 56.4302 202.4C56.8002 200.63 57.1802 198.85 57.5802 197.09C57.9402 195.52 58.3102 193.95 58.7002 192.38C59.1302 190.65 59.5702 188.92 60.0302 187.2C60.1402 186.8 60.2602 186.4 60.3802 186C60.5002 185.6 60.6202 185.2 60.7202 184.8C60.9302 183.96 61.1002 183.12 61.4002 182.3C61.4702 182.21 61.5802 182.12 61.5902 182.02C61.8302 180.04 62.5402 178.19 63.1502 176.33C63.4202 175.5 63.6802 174.66 63.9402 173.82C64.3002 172.65 64.6602 171.48 65.0302 170.31C65.3302 169.35 65.6402 168.39 65.9702 167.44C66.1002 167.07 66.2202 166.69 66.3502 166.31C66.5202 165.83 66.6902 165.35 66.8602 164.87C67.5802 162.87 68.2802 160.86 69.0102 158.86C69.3102 158.04 69.6202 157.21 69.9302 156.39C71.0002 153.58 72.1002 150.79 73.2402 148.02C73.5602 147.23 73.8902 146.45 74.2202 145.67C74.4902 145.04 74.7502 144.42 75.0102 143.79C75.6502 142.31 76.3002 140.83 76.9502 139.35C77.4602 138.19 77.9802 137.04 78.5102 135.88C78.9102 134.99 79.3202 134.12 79.7302 133.23C80.8302 130.87 81.9502 128.53 83.1202 126.2C83.3202 125.79 83.5602 125.4 83.7902 125.01C84.0202 124.62 84.2502 124.22 84.4502 123.8C87.8502 116.59 91.8402 109.7 95.9502 102.88C96.3202 102.27 96.6802 101.66 97.0502 101.05C97.9102 99.6302 98.7302 98.1902 99.7002 96.8602C100.31 96.0302 100.87 95.1902 101.43 94.3302C101.99 93.4802 102.54 92.6202 103.11 91.7802C104.27 90.1002 105.35 88.3602 106.5 86.6702C106.65 86.4502 106.8 86.2302 106.95 86.0102C107.72 84.9002 108.52 83.8102 109.3 82.7102C109.3 82.7002 109.3 82.6902 109.3 82.6802V82.6502C109.3 82.6502 109.36 82.5902 109.39 82.5702C109.41 82.5702 109.43 82.5502 109.45 82.5502C110.58 81.0302 111.71 79.5002 112.84 77.9802C112.89 77.9102 112.95 77.8502 113 77.7902C113.03 77.7602 113.05 77.7302 113.07 77.7102C113.14 77.6302 113.21 77.5602 113.28 77.4802C113.28 77.4402 113.28 77.4102 113.28 77.3802C113.28 77.3502 113.28 77.3202 113.29 77.3002C113.31 77.2402 113.33 77.2002 113.36 77.1602C113.39 77.1202 113.44 77.0902 113.48 77.0502C113.53 77.0202 113.58 76.9902 113.63 76.9602C113.66 76.9302 113.68 76.9002 113.7 76.8702C114.14 76.3202 114.59 75.7702 115.03 75.2202C115.08 75.1602 115.13 75.0902 115.18 75.0302C115.18 74.9902 115.2 74.9602 115.22 74.9202C115.23 74.8902 115.25 74.8502 115.27 74.8202C115.31 74.7602 115.36 74.7002 115.41 74.6502C115.41 74.6402 115.43 74.6302 115.44 74.6202C115.63 74.4402 115.87 74.2902 115.92 74.0202C115.92 74.0002 115.92 73.9902 115.92 73.9702C115.92 73.9202 115.96 73.8802 116 73.8602C116.02 73.8602 116.04 73.8502 116.06 73.8402C116.19 73.7402 116.31 73.6402 116.41 73.5202C116.44 73.4902 116.46 73.4602 116.48 73.4402C116.56 73.3502 116.63 73.2502 116.7 73.1502C116.79 73.0202 116.88 72.8802 116.97 72.7402C117.04 72.6402 117.11 72.5302 117.18 72.4302C117.23 72.3602 117.28 72.2902 117.33 72.2302C117.67 71.8102 118.02 71.3902 118.36 70.9802C120.76 68.0502 123.23 65.1902 125.77 62.3902C127.76 60.1902 129.82 58.0602 131.9 55.9502C132.26 55.5802 132.63 55.2102 132.99 54.8502C133.67 54.1702 134.38 53.5402 135.08 52.8902C135.36 52.6302 135.64 52.3802 135.91 52.1102C135.97 52.0602 136.02 52.0002 136.08 51.9502C136.95 51.1102 137.84 50.2702 138.72 49.4402C138.74 49.4202 138.76 49.4102 138.78 49.3902C139.01 49.1802 139.27 48.9902 139.51 48.8002C139.57 48.7502 139.62 48.7002 139.68 48.6402C139.7 48.6202 139.71 48.6102 139.73 48.5902C140 48.3102 140.28 48.0402 140.55 47.7602C140.59 47.7002 140.63 47.6602 140.68 47.6302C140.73 47.6002 140.79 47.5802 140.86 47.5802C140.94 47.5702 141.01 47.5302 141.07 47.4902C141.11 47.4602 141.15 47.4202 141.19 47.3802C141.22 47.3502 141.24 47.3102 141.27 47.2702C141.32 47.2102 141.38 47.1402 141.43 47.0802C142.14 46.4502 142.85 45.8302 143.58 45.2202C143.69 45.1302 143.8 45.0402 143.91 44.9402C144.61 44.3502 145.32 43.7702 146.04 43.1902C147.65 41.9002 149.31 40.6502 151 39.4702C151.06 39.4402 151.11 39.4102 151.17 39.3802H151.18C151.23 39.3102 151.29 39.2502 151.35 39.2002C151.73 38.9202 152.12 38.6302 152.5 38.3602C153.27 37.8002 154.06 37.2602 154.84 36.7302C155.23 36.4702 155.63 36.2002 156.03 35.9502C156.43 35.6902 156.83 35.4302 157.23 35.1802C158.44 34.4202 159.66 33.6802 160.9 32.9702C162.25 32.1902 163.63 31.4402 165.01 30.7202C169.17 28.5802 173.47 26.7702 177.97 25.4302C178.31 25.3302 178.66 25.2302 179 25.1302C181.4 24.4602 183.81 23.9502 186.26 23.6202C187.65 23.4302 189.06 23.3002 190.47 23.2402C191.53 23.1902 192.59 23.1802 193.66 23.2102C194.02 23.2202 194.37 23.2302 194.73 23.2502C195.8 23.3102 196.86 23.4202 197.92 23.5702C199.39 23.7702 200.84 24.0502 202.29 24.4202C202.33 24.4102 202.36 24.4002 202.4 24.4202C202.44 24.4202 202.47 24.4502 202.49 24.4802C202.52 24.4902 202.56 24.5002 202.59 24.5102C202.66 24.5302 202.72 24.5502 202.79 24.5802C202.79 24.4802 202.8 24.3802 202.81 24.2802C202.79 24.2602 202.77 24.2402 202.74 24.2302L202.77 24.2102Z" fill="#F1ECE2"/>
<path d="M186.95 17.3299C186.88 17.0199 186.58 16.9899 186.36 16.8899C182.1 14.9999 177.84 13.0999 173.56 11.2299C172.42 10.7299 171.32 10.1499 170.14 9.74986C170.01 9.82986 169.87 9.81985 169.73 9.76985C166.8 8.80985 163.76 8.32986 160.7 8.13986C157.89 7.96986 155.07 8.13986 152.28 8.50986C149.98 8.81986 147.72 9.29986 145.48 9.89986C141.13 11.0699 136.95 12.6599 132.92 14.6499C131.37 15.4199 129.87 16.2899 128.34 17.0999C127.83 17.3699 127.3 17.6099 126.81 17.8999C122.43 20.5099 118.18 23.3199 114.15 26.4499C113.14 27.2299 112.11 27.9899 111.17 28.8399C110.56 29.3899 109.97 29.9499 109.31 30.4299C109.19 30.5199 109.06 30.6099 108.91 30.6999C108.8 30.7999 108.69 30.8899 108.58 30.9799V30.9999C108.53 31.1299 108.48 31.2499 108.4 31.3199C108.35 31.3599 108.3 31.3799 108.24 31.3899C108.21 31.3899 108.17 31.3899 108.14 31.3899H108.12C108.12 31.3899 108.06 31.3699 108.02 31.3599C107.99 31.3799 107.96 31.3999 107.94 31.4199C107.59 31.6699 107.4 32.0999 107.08 32.3499C107.03 32.3899 106.98 32.4199 106.93 32.4499C106.09 32.8899 105.58 33.6799 104.83 34.2199C104.11 34.7399 103.51 35.4299 102.85 36.0399C99.5798 39.0499 96.4898 42.2399 93.4298 45.4599C92.4898 46.4499 91.6498 47.5098 90.7498 48.5398C90.2298 49.1298 89.6498 49.6499 89.1398 50.2299C87.7498 51.8199 86.3998 53.4499 85.0298 55.0499C84.0098 56.2399 83.0498 57.4699 82.1398 58.7399C81.4198 59.7499 80.5598 60.6499 79.7898 61.6199C77.4598 64.6099 75.2498 67.6898 73.0398 70.7598C70.8598 73.7898 68.8598 76.9399 66.7898 80.0499C64.9298 82.8399 63.2198 85.7299 61.4498 88.5899C60.7998 89.6499 60.2198 90.7499 59.5598 91.8099C58.4298 93.6299 57.3798 95.4998 56.3898 97.3998C55.7698 98.1398 55.3998 99.0399 54.9298 99.8699C53.9498 101.61 53.0098 103.37 52.1598 105.18C51.8898 105.76 51.4998 106.25 51.2198 106.83C50.4298 108.44 49.6298 110.05 48.7998 111.65C46.7298 115.67 44.9098 119.8 43.0198 123.91C40.9698 128.35 39.1498 132.9 37.3498 137.45C36.1298 140.54 34.8998 143.63 33.9298 146.81C33.7698 147.33 33.4698 147.8 33.2898 148.31C32.3498 151.05 31.4098 153.78 30.5198 156.53C29.6898 159.06 28.9098 161.61 28.1598 164.16C27.4398 166.62 26.7498 169.08 26.0898 171.55C24.7998 176.34 23.6198 181.16 22.6098 186.01C22.3498 187.3 22.0898 188.59 21.8398 189.88C20.9798 194.27 20.2198 198.69 19.5998 203.13C19.0198 207.35 18.5398 211.58 18.1598 215.82C18.1298 216.21 18.0998 216.6 18.0698 216.99C18.0698 217.35 18.0698 217.71 18.0698 218.07C18.0698 217.71 18.0698 217.35 18.0698 216.99C17.8898 219.31 17.7498 221.64 17.6598 223.98C17.5498 226.65 17.5298 229.32 17.5098 231.99C17.5098 233.26 17.6398 234.54 17.6298 235.82C17.6098 237.77 17.7798 239.71 17.8898 241.65C17.9298 242.36 17.9598 243.08 18.0298 243.8C18.0398 243.92 18.0598 244.05 18.0698 244.17C18.2998 246.04 18.4498 247.92 18.7098 249.78C18.9598 251.59 19.2098 253.4 19.5398 255.19C20.0198 257.69 20.4698 260.19 21.2398 262.62C21.4798 263.38 21.6098 264.18 21.8298 264.96C22.2898 266.66 22.8398 268.34 23.4398 269.99C24.3098 272.36 25.3098 274.68 26.3898 276.96C28.0598 280.46 30.1298 283.72 32.5598 286.74C34.8598 289.61 37.4898 292.14 40.4998 294.26C40.6198 294.35 40.7498 294.43 40.8798 294.51C41.0998 294.65 41.3198 294.79 41.5398 294.93C41.6598 295.01 41.7898 295.09 41.9198 295.17C42.3398 295.43 42.7498 295.7 43.1498 295.99C43.1498 295.99 43.1598 295.99 43.1698 296C43.2898 296.09 43.4098 296.18 43.5298 296.28C43.5298 296.3 43.5498 296.32 43.5598 296.34C43.6298 296.44 43.7698 296.45 43.8798 296.5C49.0798 298.8 54.2698 301.1 59.4698 303.4C59.6798 303.49 59.8798 303.63 60.1298 303.57C60.0998 303.52 60.0798 303.48 60.0498 303.43C59.8298 303.14 59.4798 303.03 59.1798 302.84C57.5898 301.83 56.0798 300.7 54.6698 299.47C53.9198 298.82 53.1898 298.13 52.4898 297.42C49.8098 294.7 47.5498 291.68 45.6298 288.45C44.9298 287.27 44.2698 286.06 43.6498 284.82C43.2798 284.08 42.9198 283.33 42.5798 282.57C42.4298 282.24 42.2898 281.92 42.1498 281.59C42.0098 281.26 41.8698 280.94 41.7298 280.61C39.7698 275.91 38.3498 271.05 37.2798 266.09C36.9598 264.62 36.6798 263.14 36.4198 261.65C35.8998 258.61 35.5098 255.56 35.2198 252.49C34.9298 249.43 34.7598 246.35 34.6598 243.27C34.5598 240.01 34.5798 236.74 34.6798 233.48C34.6898 233.26 34.6898 233.04 34.6998 232.82C34.7598 231.12 34.8398 229.42 34.9298 227.72C35.0298 226.03 35.1498 224.33 35.2898 222.64C35.3198 222.27 35.3598 221.9 35.4098 221.38C35.4098 221.33 35.4198 221.28 35.4198 221.23C35.4798 220.55 35.5398 219.87 35.6198 219.19C35.9298 216.15 36.3198 213.12 36.7498 210.1C37.1998 206.96 37.7098 203.84 38.2698 200.73C38.3398 200.35 38.4198 199.98 38.4898 199.6C38.4998 199.53 38.5198 199.46 38.5298 199.38C38.5698 199.19 38.5998 199 38.6398 198.81C38.7298 198.33 38.8198 197.86 38.9098 197.39C39.2998 195.4 39.7098 193.41 40.1498 191.43C40.6598 189.11 41.2098 186.8 41.7798 184.5C42.4098 181.94 43.0698 179.39 43.7698 176.85C43.7698 176.81 43.7898 176.77 43.7998 176.73C44.2498 175.11 44.7198 173.49 45.1998 171.88C46.3698 167.96 47.5798 164.05 48.8798 160.17C49.5898 158.07 50.3298 155.98 51.0798 153.9C52.4998 149.97 53.9898 146.07 55.5598 142.21C58.5098 134.92 61.7098 127.73 65.1798 120.65C65.8198 119.34 66.4698 118.03 67.1298 116.73C68.6898 113.65 70.3098 110.59 71.9698 107.56C72.4098 106.75 72.8598 105.94 73.2998 105.14C73.3398 105.08 73.3798 105.01 73.4098 104.95C73.4598 104.86 73.4998 104.77 73.4898 104.66C73.5498 104.56 73.6198 104.46 73.6698 104.37C74.1498 103.52 74.6298 102.67 75.1198 101.82C76.0998 100.13 77.0798 98.4499 78.0898 96.7699C78.7998 95.5899 79.5198 94.4099 80.2398 93.2399C81.0498 91.9199 81.8698 90.6099 82.7098 89.3099C83.7598 87.6699 84.8298 86.0299 85.9098 84.4099C87.0498 82.6999 88.2098 81.0199 89.3898 79.3399C90.0898 78.3299 90.7998 77.3299 91.5098 76.3199C91.5098 76.2999 91.5098 76.2798 91.5098 76.2598C91.5098 76.2498 91.5198 76.2299 91.5298 76.2199C91.5498 76.1899 91.5898 76.1798 91.6298 76.1798C91.8298 75.8998 92.0198 75.6099 92.2298 75.3299C100.11 64.5099 108.72 54.3099 118.41 45.0499C121.9 41.7199 125.5 38.5399 129.27 35.5499C130.77 34.3499 132.3 33.1899 133.86 32.0499L134.25 31.7699C134.9 31.2999 135.56 30.8399 136.22 30.3799C139.4 28.1799 142.66 26.1299 146.03 24.2899C146.67 23.9399 147.32 23.5999 147.97 23.2699C148.46 23.0199 148.94 22.7699 149.43 22.5299C149.85 22.3199 150.27 22.1199 150.69 21.9199C152.38 21.1299 154.09 20.3899 155.84 19.7199C161.4 17.5799 167.12 16.1199 173.09 15.7999C177.59 15.5599 182.02 15.9599 186.36 17.2699C186.55 17.3299 186.74 17.4199 186.94 17.3399C186.94 17.3399 186.94 17.3299 186.94 17.3399L186.95 17.3299ZM17.9998 238.32C17.9998 238.41 17.9998 238.51 17.9998 238.6C17.9998 238.51 17.9998 238.41 17.9998 238.32Z" fill="#FDBF41"/>
<path d="M91.53 76.2099C91.53 76.2099 91.59 76.1699 91.63 76.1699C91.63 76.2099 91.61 76.2399 91.59 76.2599C91.57 76.2799 91.54 76.2899 91.5 76.2999C91.5 76.2799 91.5 76.2599 91.5 76.2399C91.5 76.2299 91.51 76.2099 91.52 76.1999L91.53 76.2099Z" fill="#C18B00"/>
<path d="M108.11 31.08C108.17 31.01 108.24 30.97 108.34 30.96C108.4 30.96 108.48 30.96 108.56 30.98V31C108.51 31.13 108.46 31.25 108.38 31.32C108.33 31.36 108.28 31.38 108.22 31.39C108.19 31.39 108.15 31.39 108.12 31.39H108.1C108.1 31.39 108.04 31.37 108 31.36C108.02 31.24 108.06 31.14 108.12 31.08H108.11Z" fill="#C18B00"/>
<path d="M169.2 9.34019C165.33 7.61019 161.45 5.9302 157.6 4.1802C153.19 2.1702 148.61 0.930195 143.76 0.700195C142.54 0.700195 141.31 0.700197 140.09 0.710197C139.61 0.710197 139.13 0.710197 138.66 0.710197C136.22 0.840197 133.81 1.2002 131.42 1.7102C124.37 3.2102 117.81 5.9702 111.52 9.4302C105.19 12.9102 99.3102 17.0702 93.7202 21.6302C93.0102 22.2102 92.2402 22.7402 91.6202 23.4402C91.5702 23.4602 91.5202 23.5002 91.4902 23.5502V23.6102C91.4902 23.6102 91.4702 23.6102 91.4602 23.6102C91.4402 23.6102 91.4302 23.6102 91.4302 23.6102C91.2702 23.7402 91.1102 23.8602 90.9502 23.9902C84.7602 29.2902 79.0102 35.0402 73.5702 41.1102C67.1102 48.3302 61.1502 55.9502 55.5802 63.8702C47.2802 75.6702 39.9302 88.0502 33.3802 100.9C28.9602 109.56 24.9402 118.41 21.3202 127.44C17.5502 136.86 14.0902 146.4 11.3102 156.17C11.0002 157.25 10.6202 158.32 10.3102 159.4C8.03019 167.45 6.06019 175.57 4.51019 183.79C3.19019 190.76 2.14019 197.76 1.45019 204.82C0.940186 209.94 0.59019 215.07 0.61019 220.22C0.61019 222.56 0.620187 224.9 0.630187 227.24C0.660187 227.56 0.67019 227.88 0.68019 228.2C0.69019 228.7 0.680193 229.19 0.660193 229.69C0.680193 232.54 0.920192 235.37 1.19019 238.21C1.64019 242.84 2.34019 247.42 3.37019 251.95C4.65019 257.63 6.40019 263.14 8.89019 268.41C11.5602 274.05 14.9502 279.18 19.5302 283.47C22.2002 285.97 25.1402 288.08 28.4502 289.63C31.3902 291.01 34.3702 292.3 37.3502 293.61C39.3902 294.51 41.4102 295.48 43.4902 296.28C43.3702 296.19 43.2502 296.09 43.1302 296C43.1302 296 43.1202 296 43.1102 295.99C42.7102 295.7 42.3002 295.43 41.8802 295.17C41.7502 295.09 41.6302 295.01 41.5002 294.93C41.2802 294.79 41.0602 294.66 40.8402 294.51C40.7102 294.43 40.5902 294.34 40.4602 294.26C37.4502 292.13 34.8302 289.61 32.5202 286.74C30.0902 283.72 28.0202 280.46 26.3502 276.96C25.2602 274.68 24.2602 272.36 23.4002 269.99C23.1702 269.78 22.9502 269.56 22.7302 269.34C22.9502 269.56 23.1702 269.78 23.4002 269.99C22.8002 268.34 22.2502 266.66 21.7902 264.96C21.5802 264.19 21.4402 263.39 21.2002 262.62C20.4302 260.19 19.9702 257.69 19.5002 255.19C19.1602 253.4 18.9202 251.59 18.6702 249.78C18.4102 247.92 18.2502 246.04 18.0302 244.17C18.0202 244.05 18.0002 243.92 17.9902 243.8C17.9902 246.19 17.9902 248.58 17.9902 250.97C17.9902 248.58 17.9902 246.19 17.9902 243.8C17.9202 243.09 17.8902 242.37 17.8502 241.65C17.7502 239.71 17.5802 237.77 17.5902 235.82C17.5902 234.55 17.4602 233.27 17.4702 231.99C17.4902 229.32 17.5202 226.65 17.6202 223.98C17.7102 221.65 17.8502 219.32 18.0302 216.99C18.0602 216.6 18.0902 216.21 18.1202 215.82C18.5002 211.58 18.9802 207.35 19.5602 203.13C20.1802 198.69 20.9402 194.27 21.8002 189.88C22.0502 188.59 22.3102 187.3 22.5702 186.01C23.5702 181.15 24.7602 176.34 26.0502 171.55C26.7102 169.08 27.4002 166.61 28.1202 164.16C28.8702 161.6 29.6502 159.06 30.4802 156.53C31.3802 153.78 32.3202 151.04 33.2502 148.31C33.4202 147.79 33.7302 147.32 33.8902 146.81C34.8702 143.63 36.0902 140.54 37.3102 137.45C39.1102 132.9 40.9302 128.36 42.9802 123.91C44.8702 119.81 46.6902 115.67 48.7602 111.65C49.5802 110.05 50.3902 108.44 51.1802 106.83C51.4602 106.26 51.8602 105.76 52.1202 105.18C52.9702 103.37 53.9102 101.61 54.8902 99.8702C55.3602 99.0402 55.7302 98.1402 56.3502 97.4002C57.3402 95.5002 58.3902 93.6302 59.5202 91.8102C60.1802 90.7602 60.7602 89.6502 61.4102 88.5902C63.1702 85.7302 64.8802 82.8502 66.7502 80.0502C68.8202 76.9402 70.8202 73.7902 73.0002 70.7602C75.2102 67.6902 77.4202 64.6102 79.7502 61.6202C80.5102 60.6402 81.3702 59.7502 82.1002 58.7402C83.0102 57.4702 83.9702 56.2402 84.9902 55.0502C86.3602 53.4402 87.7102 51.8102 89.1002 50.2302C89.6102 49.6502 90.1902 49.1302 90.7102 48.5402C91.6102 47.5202 92.4502 46.4502 93.3902 45.4602C96.4502 42.2402 99.5402 39.0502 102.81 36.0402C103.47 35.4302 104.07 34.7402 104.79 34.2202C105.54 33.6802 106.04 32.8902 106.89 32.4502C106.94 32.4202 107 32.3902 107.04 32.3502C107.36 32.1002 107.55 31.6702 107.9 31.4202C107.93 31.4002 107.96 31.3802 107.98 31.3602C108 31.2402 108.04 31.1402 108.1 31.0802C108.16 31.0102 108.23 30.9702 108.33 30.9602C108.39 30.9602 108.47 30.9602 108.55 30.9802C108.66 30.8902 108.77 30.7902 108.88 30.7002C109.03 30.6002 109.15 30.5202 109.28 30.4302C109.94 29.9502 110.53 29.4002 111.14 28.8402C112.08 27.9802 113.12 27.2302 114.12 26.4502C118.15 23.3202 122.4 20.5102 126.78 17.9002C127.28 17.6102 127.8 17.3702 128.31 17.1002C129.84 16.2802 131.34 15.4102 132.89 14.6502C136.92 12.6602 141.11 11.0702 145.45 9.9002C147.69 9.3002 149.95 8.8302 152.25 8.5102C155.04 8.1302 157.86 7.9702 160.67 8.1402C163.74 8.3302 166.77 8.8102 169.7 9.7702C169.85 9.8202 169.98 9.8302 170.11 9.7502C169.86 9.4802 169.48 9.48019 169.17 9.34019H169.2Z" fill="#FF1100"/>
<path d="M108.22 29.9602C108.22 29.9602 108.17 29.9202 108.15 29.9102C108.18 29.9302 108.2 29.9402 108.22 29.9602Z" fill="#FF1100"/>
<path d="M107.7 29.6401C107.81 29.6901 107.91 29.7501 108.01 29.8101C107.91 29.7501 107.81 29.6901 107.7 29.6401Z" fill="#FF1100"/>
<path d="M143.76 0.689766H140.09C139.61 0.709766 139.13 0.709763 138.66 0.709763C138.64 0.649763 138.61 0.589762 138.59 0.529762C140.33 0.529762 142.08 0.529766 143.82 0.509766C143.8 0.569766 143.78 0.629766 143.76 0.689766Z" fill="#FEC35E"/>
<path d="M91.4602 23.6201H91.4302V23.5601H91.5002V23.6301C91.5002 23.6301 91.4802 23.6301 91.4702 23.6301L91.4602 23.6201Z" fill="#C18B00"/>
<path opacity="0.48" d="M303.63 250.1C304.13 249.71 304.13 249.67 303.63 249.28C302.47 248.35 301.23 247.54 299.96 246.77C295.72 244.2 291.19 242.24 286.55 240.54C285.49 240.15 284.46 239.68 283.33 239.48C283.02 239.13 282.56 239.1 282.16 238.97C277.83 237.53 273.42 236.35 269 235.22C268.63 235.19 268.27 235.11 267.95 234.93C265.88 234.48 263.81 234.02 261.75 233.57C257.92 232.74 254.07 232.02 250.21 231.37C247.35 230.89 244.48 230.44 241.61 230.01C239.37 229.68 237.13 229.34 234.87 229.18C234.5 229.12 234.13 229.05 233.75 229C225.84 228.03 217.92 227.3 209.97 226.75C204.78 226.4 199.59 226.12 194.39 225.92C187.6 225.66 180.8 225.54 174 225.54C165.57 225.54 157.15 225.75 148.74 226.16C139.02 226.63 129.32 227.37 119.65 228.45C118.07 228.63 116.47 228.73 114.91 229.07C114.59 228.98 114.28 229.07 113.96 229.1C107.07 229.95 100.21 231 93.3902 232.29C89.3602 233.05 85.3502 233.89 81.3702 234.84L81.2902 234.97C81.2902 234.97 80.2602 249.79 82.5402 264.26C86.4702 265.19 90.4202 266.02 94.3802 266.76C97.9202 267.42 101.47 268.05 105.04 268.56C110.04 269.28 115.05 270.01 120.08 270.53C124.97 271.04 129.85 271.57 134.75 271.93C137.65 272.14 140.54 272.39 143.44 272.56C147.73 272.81 152.03 273.02 156.32 273.17C160.24 273.31 164.16 273.42 168.08 273.47C174.35 273.55 180.63 273.52 186.9 273.39C192.94 273.26 198.98 273.03 205.01 272.69C212.2 272.29 219.38 271.72 226.55 270.98C237.48 269.85 248.35 268.33 259.12 266.18C268.53 264.3 277.83 262 286.85 258.68C290.78 257.24 294.63 255.59 298.29 253.55C300.15 252.52 301.95 251.4 303.63 250.09V250.1Z" fill="url(#paint0_linear_103_204)"/>
<defs>
<linearGradient id="paint0_linear_103_204" x1="193.023" y1="231.049" x2="191.634" y2="266.921" gradientUnits="userSpaceOnUse">
<stop offset="0.16" stop-color="#191919"/>
<stop offset="0.97" stop-color="#191919" stop-opacity="0"/>
</linearGradient>
</defs>
</svg>
