<?xml version="1.0" encoding="utf-8"?>
<!-- Generator: Adobe Illustrator 26.0.1, SVG Export Plug-In . SVG Version: 6.00 Build 0)  -->
<svg version="1.1" id="Layer_1" xmlns="http://www.w3.org/2000/svg" xmlns:xlink="http://www.w3.org/1999/xlink" x="0px" y="0px"
	 viewBox="0 0 2000 2000" style="enable-background:new 0 0 2000 2000;" xml:space="preserve">
<style type="text/css">
	.st0{fill:#20252F;}
	.st1{fill:#FFFFFF;}
</style>
<path class="st0" d="M1000,2000c552.3,0,1000-447.7,1000-1000C2000,447.7,1552.3,0,1000,0C447.7,0,0,447.7,0,1000
	C0,1552.3,447.7,2000,1000,2000z"/>
<path class="st1" d="M1634.5,615.6h-212.1L1324.6,935h209.2L1634.5,615.6z"/>
<path class="st1" d="M1253.8,1166.3l-104.5-247c-11.7-30.5-32.3-56.7-59.1-75.3s-58.7-28.5-91.4-28.5c-32.3,0-63.9,9.6-90.6,27.8
	c-26.7,18.1-47.4,43.9-59.3,73.9l-108.7,248.6L574.3,615.9H365.6l247.9,806.7c4.6,14.8,13.8,27.7,26.2,36.8
	c12.4,9.2,27.5,14.1,42.9,14.1h119.9c14.5,0.1,28.8-4.1,40.9-12.2c12.1-8.1,21.5-19.6,26.9-33L998.8,1112l130.6,317.3
	c5.4,13.4,14.7,24.8,26.7,32.8c12,8.1,26,12.4,40.5,12.4h118c15.4,0,30.4-4.9,42.8-14.1c12.4-9.1,21.6-22,26.2-36.7l117.7-382.2
	H1293L1253.8,1166.3z"/>
</svg>
