<?xml version="1.0" encoding="utf-8"?>
<svg version="1.1" xmlns="http://www.w3.org/2000/svg" xmlns:xlink="http://www.w3.org/1999/xlink" x="0px" y="0px" viewBox="0 0 44 33.62" style="enable-background:new 0 0 44 33.62;" xml:space="preserve">
    <path d="M44 0C44 12.1503 34.1503 22 22 22C9.84975 22 0 12.1503 0 0H11C11 6.07513 15.9249 11 22 11C28.0751 11 33 6.07513 33 0H44Z" fill="#FFAA46"></path>
    <path d="M44 33.647C44 21.4968 34.1503 11.647 22 11.647C9.84974 11.647 0 21.4968 0 33.647H11C11 27.5719 15.9249 22.647 22 22.647C28.0751 22.647 33 27.5719 33 33.647H44Z" fill="#EE5A3F"></path>
    <path d="M7.76471 16.8235C11.5585 13.6019 16.542 11.647 22 11.647C27.458 11.647 32.4415 13.6019 36.2353 16.8235C32.4415 20.0451 27.458 22 22 22C16.542 22 11.5585 20.0451 7.76471 16.8235Z" fill="#7F38A9"></path>
</svg>