<?xml version="1.0" encoding="UTF-8" standalone="no"?>
<svg
   xmlns:dc="http://purl.org/dc/elements/1.1/"
   xmlns:cc="http://creativecommons.org/ns#"
   xmlns:rdf="http://www.w3.org/1999/02/22-rdf-syntax-ns#"
   xmlns:svg="http://www.w3.org/2000/svg"
   xmlns="http://www.w3.org/2000/svg"
   xmlns:sodipodi="http://sodipodi.sourceforge.net/DTD/sodipodi-0.dtd"
   xmlns:inkscape="http://www.inkscape.org/namespaces/inkscape"
   version="1.1"
   id="Layer_1"
   x="0px"
   y="0px"
   width="550"
   height="550"
   viewBox="0 0 549.99998 550"
   enable-background="new 0 0 683.197 683.198"
   xml:space="preserve"
   sodipodi:docname="coingecko.svg"
   inkscape:version="1.0.2 (e86c870879, 2021-01-15)"><metadata
   id="metadata125"><rdf:RDF><cc:Work
       rdf:about=""><dc:format>image/svg+xml</dc:format><dc:type
         rdf:resource="http://purl.org/dc/dcmitype/StillImage" /><dc:title></dc:title></cc:Work></rdf:RDF></metadata><defs
   id="defs123" /><sodipodi:namedview
   pagecolor="#ffffff"
   bordercolor="#666666"
   borderopacity="1"
   objecttolerance="10"
   gridtolerance="10"
   guidetolerance="10"
   inkscape:pageopacity="0"
   inkscape:pageshadow="2"
   inkscape:window-width="2327"
   inkscape:window-height="1795"
   id="namedview121"
   showgrid="false"
   inkscape:zoom="1.6686232"
   inkscape:cx="341.59851"
   inkscape:cy="341.599"
   inkscape:window-x="0"
   inkscape:window-y="0"
   inkscape:window-maximized="0"
   inkscape:current-layer="Layer_1" />
<path
   fill-rule="evenodd"
   clip-rule="evenodd"
   fill="#2d4f78"
   d="m -694.276,89.848 c -27.493,-0.16 -57.909,-4.748 -86.617,-17.895 -21.113,-9.67 -39.407,-22.936 -51.967,-42.861 -18.894,-29.979 -18.724,-61.242 -4.693,-92.84 12.995,-29.263 34.583,-51.437 60.056,-70.121 27.798,-20.388 58.701,-34.338 91.688,-43.942 2.719,-0.792 3.966,-0.457 4.594,2.572 0.944,4.555 2.295,9.037 3.683,13.485 0.829,2.656 0.416,3.816 -2.581,4.642 -16.519,4.544 -32.5,10.592 -47.84,18.235 -30.793,15.346 -58.159,35.008 -78.412,63.371 -10.77,15.08 -18.443,31.57 -19.575,50.33 -1.685,27.914 10.779,49.121 32.643,65.314 18.575,13.756 39.901,20.996 62.419,24.977 36.571,6.465 72.721,3.592 108.496,-5.541 3.727,-0.953 5.237,-0.375 5.909,3.48 0.701,4.023 1.85,7.998 3.158,11.875 1.036,3.064 0.573,4.393 -2.865,5.248 -24.408,6.073 -49.12,9.595 -78.096,9.671 z"
   id="path2" />
<path
   fill-rule="evenodd"
   clip-rule="evenodd"
   fill="#66bf78"
   d="m -594.161,-194.232 c 36.324,-0.145 67.52,5.017 96.762,19.069 25.924,12.458 46.774,30.373 57.505,57.9 10.874,27.896 7.097,55.033 -5.867,81.253 -12.9,26.094 -32.623,46.396 -55.626,63.695 -28.27,21.258 -59.887,35.701 -93.748,45.516 -2.797,0.811 -4.105,0.395 -4.779,-2.545 -1.009,-4.404 -2.084,-8.824 -3.6,-13.07 -1.17,-3.273 -0.129,-4.305 2.947,-5.162 25.908,-7.234 50.355,-17.855 72.961,-32.473 23.924,-15.469 44.777,-34.131 59.323,-59.053 7.967,-13.652 13.164,-28.275 13.323,-44.188 0.218,-21.771 -8.559,-39.789 -24.439,-54.433 -16.349,-15.079 -36.072,-23.684 -57.316,-29.012 -32.918,-8.256 -66.102,-7.909 -99.375,-2.286 -8.089,1.368 -16.117,3.028 -24.01,5.257 -2.531,0.714 -3.493,0.027 -4.073,-2.499 -1.105,-4.814 -2.469,-9.58 -3.93,-14.302 -0.691,-2.234 -0.24,-3.245 2.1,-3.836 16.477,-4.168 33.148,-7.181 50.071,-8.806 8.605,-0.824 17.226,-1.108 21.771,-1.025 z"
   id="path4" />
<path
   fill-rule="evenodd"
   clip-rule="evenodd"
   fill="#2d4f78"
   d="m -487.08,182.194 c 0.304,-18.209 5.856,-33.988 21.909,-44.316 23.048,-14.83 66.524,-8.961 71.655,34.861 1.604,13.697 -0.194,26.871 -7.645,38.756 -10.156,16.199 -30.052,23.59 -51.09,19.275 -17.375,-3.561 -30.89,-18.365 -33.911,-37.127 -0.608,-3.781 -1.191,-7.559 -0.918,-11.449 z m 23.516,1.711 c 0.064,4.85 1.079,12.225 4.935,18.928 8.578,14.92 28.303,15.441 36.607,0.424 7.915,-14.313 7.715,-29.365 -0.044,-43.84 -3.778,-7.047 -10.082,-11.029 -18.394,-10.85 -8.45,0.182 -14.369,4.553 -18.33,11.762 -3.56,6.478 -4.707,13.558 -4.774,23.576 z"
   id="path6" />
<path
   fill-rule="evenodd"
   clip-rule="evenodd"
   fill="#2d4f78"
   d="m -736.531,230.155 c -6.832,0 -13.478,-0.123 -20.115,0.063 -2.537,0.07 -3.178,-1.475 -3.685,-3.24 -1.872,-6.512 -3.64,-13.051 -5.453,-19.58 -0.604,-2.174 -1.077,-4.4 -1.866,-6.506 -2.683,-7.16 -11.298,-11.213 -18.92,-9.125 -2.228,0.609 -1.268,2.266 -1.278,3.43 -0.084,10.475 -0.129,20.953 0.007,31.428 0.035,2.648 -0.519,3.738 -3.439,3.602 -5.227,-0.246 -10.474,-0.129 -15.71,-0.041 -1.965,0.033 -3.065,-0.178 -3.059,-2.66 0.08,-30.438 0.058,-60.875 0.035,-91.313 -10e-4,-1.563 0.119,-2.748 2.092,-2.934 15.773,-1.5 31.577,-3.402 47.251,0.525 12.629,3.166 19.222,10.557 20.551,22.332 1.343,11.902 -3.724,21.133 -14.842,27.045 -0.457,0.244 -0.903,0.508 -1.818,1.025 7.982,4.105 10.771,11.297 12.899,18.852 2.484,8.829 4.81,17.704 7.35,27.097 z m -51.365,-67.938 c 0,3.668 -0.017,7.334 0.01,11 0.008,1.063 -0.337,2.432 1.484,2.391 5.603,-0.127 11.302,0.73 16.666,-1.762 5.315,-2.467 8.133,-7.318 7.674,-13.346 -0.441,-5.789 -3.495,-9.518 -9.201,-11.27 -4.705,-1.445 -9.497,-0.859 -14.277,-0.672 -1.766,0.068 -2.432,0.879 -2.385,2.658 0.098,3.665 0.029,7.333 0.029,11.001 z"
   id="path8" />
<path
   fill-rule="evenodd"
   clip-rule="evenodd"
   fill="#66bf78"
   d="m -705.343,304.313 c 1.924,-7.154 3.699,-14.354 5.808,-21.453 2.896,-9.748 6.11,-19.402 9.033,-29.145 0.627,-2.092 1.735,-2.521 3.674,-2.49 5.803,0.094 11.615,0.176 17.412,-0.029 2.748,-0.096 3.625,0.752 3.753,3.51 0.798,17.088 1.782,34.17 2.679,51.254 0.378,7.203 0.54,14.422 1.127,21.609 0.201,2.449 -0.515,2.939 -2.669,2.879 -3.82,-0.104 -7.653,-0.176 -11.465,0.02 -2.788,0.143 -3.671,-0.895 -3.732,-3.635 -0.313,-14.002 -0.774,-27.998 -1.228,-41.994 -0.145,-4.473 -0.423,-8.939 -1.11,-13.475 -2.714,8.996 -5.396,18.002 -8.149,26.986 -2.815,9.186 -5.776,18.328 -8.505,27.541 -0.756,2.551 -1.878,3.535 -4.684,3.518 -10.48,-0.061 -10.548,0.076 -13.311,-9.922 -3.876,-14.025 -8.054,-27.975 -11.08,-42.227 -0.26,-1.223 -0.019,-2.848 -1.616,-3.771 -1.095,1.068 -0.63,2.393 -0.681,3.545 -0.696,15.967 -1.437,31.934 -1.967,47.904 -0.135,4.074 -1.195,6.242 -5.813,5.547 -3.596,-0.541 -8.621,1.5 -10.548,-0.791 -1.77,-2.104 -0.464,-6.939 -0.238,-10.553 1.349,-21.594 2.839,-43.176 4.103,-64.773 0.163,-2.783 1.229,-3.209 3.606,-3.152 5.66,0.135 11.335,0.238 16.985,-0.035 2.973,-0.145 4.138,0.867 4.936,3.66 4.679,16.376 9.783,32.634 13.68,49.472 z"
   id="path10" />
<path
   fill-rule="evenodd"
   clip-rule="evenodd"
   fill="#66bf78"
   d="m -557.073,-133.477 c -2.568,12.719 -4.971,24.485 -7.299,36.266 -0.371,1.874 -1.122,2.076 -2.549,1.046 -2.409,-1.74 -4.9,-3.376 -7.217,-5.23 -1.805,-1.445 -3.044,-1.2 -4.683,0.382 -16.394,15.829 -32.86,31.583 -49.308,47.356 -5.516,5.291 -11.083,10.529 -16.523,15.896 -1.699,1.678 -2.878,2.031 -4.892,0.266 -10.432,-9.141 -21.078,-18.041 -31.464,-27.232 -2.111,-1.869 -3.132,-1.832 -5.066,0.086 -8.443,8.371 -16.961,16.674 -25.638,24.801 -4.438,4.158 -4.861,3.955 -8.729,-0.42 -6.498,-7.352 -6.467,-7.318 0.536,-13.994 12.396,-11.816 24.806,-23.621 37.069,-35.576 1.999,-1.949 2.977,-1.865 4.922,0.01 9.369,9.039 18.963,17.846 28.343,26.873 1.835,1.766 2.903,1.869 4.806,0.129 17.858,-16.338 35.779,-32.608 53.753,-48.817 1.893,-1.708 2.285,-2.989 0.242,-4.708 -0.642,-0.539 -1.133,-1.261 -1.676,-1.915 -6.102,-7.372 -6.094,-7.343 3.082,-9.394 9.654,-2.157 19.289,-4.4 28.945,-6.547 1.368,-0.306 3.432,-1.425 3.346,0.722 z"
   id="path12" />
<path
   fill-rule="evenodd"
   clip-rule="evenodd"
   fill="#2d4f78"
   d="m -642.19,181.793 c 0,-14.854 0,-29.711 -10e-4,-44.566 0,-1.828 -0.355,-3.719 2.448,-3.992 14.357,-1.406 28.71,-2.961 43.073,-0.137 13.963,2.746 23.471,12.389 24.669,24.947 1.566,16.418 -5.225,28.473 -19.303,34.072 -8.018,3.188 -16.422,4.215 -24.958,3.553 -3.116,-0.242 -3.854,0.617 -3.806,3.566 0.155,9.195 -0.025,18.395 0.109,27.588 0.037,2.553 -0.629,3.498 -3.313,3.389 -5.086,-0.203 -10.193,-0.244 -15.274,0.012 -3.1,0.154 -3.729,-1.01 -3.705,-3.863 0.128,-14.856 0.061,-29.711 0.061,-44.569 z m 22.182,-18.3 c 0,3.961 0.011,7.922 -0.006,11.885 -0.007,1.475 -0.04,2.766 2.042,2.934 5.404,0.432 10.744,0.543 15.79,-1.875 6.151,-2.951 8.969,-8.617 8.106,-16.223 -0.64,-5.648 -4.688,-9.563 -11.254,-11.064 -3.647,-0.834 -7.293,-0.631 -10.968,-0.408 -2.673,0.162 -4.036,1.104 -3.782,4.146 0.295,3.511 0.069,7.068 0.072,10.605 z"
   id="path14" />
<path
   fill-rule="evenodd"
   clip-rule="evenodd"
   fill="#2d4f78"
   d="m -849.11,231.76 c -14.104,-0.133 -27.333,-2.99 -37.854,-13.195 -11.801,-11.445 -14.976,-25.979 -13.568,-41.684 2.962,-33.049 29.562,-47.76 57.804,-46.004 5.507,0.344 10.941,1.168 16.251,2.846 2.522,0.797 3.462,1.871 2.646,4.545 -1.198,3.912 -2.244,7.885 -3.112,11.885 -0.483,2.225 -1.187,2.619 -3.417,1.84 -8.449,-2.945 -17.111,-3.828 -25.86,-1.422 -12.139,3.338 -18.828,11.77 -20.57,23.84 -1.625,11.25 -0.503,22.17 8.3,30.725 8.551,8.311 19.163,8.842 30.146,7.486 2.653,-0.328 5.356,-0.818 7.847,-1.744 2.717,-1.008 3.141,0.297 3.5,2.416 0.637,3.76 1.221,7.549 2.213,11.221 0.704,2.607 -0.258,3.568 -2.542,4.24 -7.117,2.089 -14.376,3.005 -21.784,3.005 z"
   id="path16" />
<path
   fill-rule="evenodd"
   clip-rule="evenodd"
   fill="#66bf78"
   d="m -758.91,289.002 c -0.434,14.334 -3.54,26.67 -14.824,35.111 -11.921,8.92 -25.355,10.18 -39.022,4.979 -13.097,-4.984 -19.592,-15.607 -21.892,-29.027 -2.112,-12.328 -0.349,-24.027 6.747,-34.482 8.678,-12.783 24.645,-18.443 40.466,-14.766 14.773,3.436 24.95,14.441 27.539,29.896 0.512,3.059 0.739,6.162 0.986,8.289 z m -19.383,1.174 c 0.021,-6.635 -1.33,-13.209 -5.531,-18.906 -6.979,-9.469 -20.224,-9.305 -27.058,0.277 -6.861,9.621 -7.152,28.121 -0.597,37.928 7.174,10.734 21.696,10.598 28.637,-0.318 3.617,-5.688 4.593,-12.074 4.549,-18.981 z"
   id="path18" />
<path
   fill-rule="evenodd"
   clip-rule="evenodd"
   fill="#58585a"
   d="m -570.201,-86.031 c 0,33.012 -0.02,65.682 0.044,98.348 0.004,2.256 -0.717,2.877 -2.908,2.859 -11.738,-0.09 -23.479,-0.111 -35.217,0.012 -2.511,0.027 -3.035,-0.877 -3.026,-3.182 0.075,-19.941 0.052,-39.885 0.028,-59.826 -0.002,-1.482 0.258,-2.674 1.465,-3.742 12.809,-11.328 25.571,-22.711 38.356,-34.066 0.173,-0.153 0.476,-0.161 1.258,-0.403 z"
   id="path20" />
<path
   fill-rule="evenodd"
   clip-rule="evenodd"
   fill="#2d4f78"
   d="m -692.155,173.95 c 5.339,-12.863 10.618,-25.33 15.654,-37.895 1.174,-2.93 2.643,-4.014 5.873,-3.869 6.718,0.301 13.459,0.092 20.922,0.092 -5.176,9.189 -9.997,17.764 -14.83,26.328 -5.276,9.352 -10.522,18.719 -15.877,28.023 -1.176,2.045 -1.687,4.082 -1.671,6.43 0.074,11.18 -0.038,22.363 0.084,33.543 0.029,2.678 -0.589,3.766 -3.515,3.623 -5.083,-0.25 -10.197,-0.258 -15.279,0.002 -2.977,0.152 -3.514,-1.02 -3.485,-3.652 0.116,-10.756 0.007,-21.514 0.078,-32.27 0.017,-2.617 -0.522,-4.91 -1.791,-7.26 -9.719,-18 -19.307,-36.068 -29.28,-54.762 8.318,0 16.139,0.035 23.959,-0.023 2.234,-0.018 2.309,1.803 2.864,3.109 5.416,12.723 10.769,25.471 16.294,38.581 z"
   id="path22" />
<path
   fill-rule="evenodd"
   clip-rule="evenodd"
   fill="#66bf78"
   d="m -466.455,293.333 c 5.731,2.941 8.166,8.002 9.784,13.539 2.02,6.91 3.76,13.902 5.802,20.807 0.637,2.152 0.161,2.799 -1.999,2.762 -4.387,-0.078 -8.778,-0.129 -13.161,0.023 -2.125,0.074 -3.081,-0.84 -3.587,-2.725 -1.534,-5.727 -3.188,-11.422 -4.668,-17.162 -2.278,-8.842 -5.357,-11.109 -14.34,-11.07 -2.986,0.014 -3.49,1.164 -3.448,3.75 0.126,7.781 -0.071,15.57 0.105,23.35 0.065,2.881 -0.644,4.186 -3.73,3.846 -4.584,-0.506 -10.474,1.959 -13.445,-1.02 -2.567,-2.572 -0.695,-8.354 -0.708,-12.709 -0.063,-20.1 0.034,-40.197 -0.096,-60.295 -0.02,-3.059 0.601,-4.596 3.953,-4.848 11.564,-0.871 23.129,-2.203 34.631,0.359 10.664,2.373 16.799,8.268 18.17,17.117 1.556,10.045 -2.232,17.504 -11.802,23.242 -0.36,0.215 -0.691,0.485 -1.461,1.034 z m -25.567,-18.106 c 0,2.83 0.024,5.662 -0.01,8.49 -0.018,1.438 0.244,2.525 2.028,2.492 4.086,-0.072 8.229,0.453 12.167,-1.129 4.689,-1.883 7.264,-6.02 6.922,-11.039 -0.324,-4.783 -2.943,-7.799 -7.918,-9.297 -2.633,-0.795 -5.311,-0.549 -7.984,-0.705 -3.914,-0.23 -5.881,0.977 -5.258,5.25 0.283,1.942 0.049,3.958 0.053,5.938 z"
   id="path24" />
<path
   fill-rule="evenodd"
   clip-rule="evenodd"
   fill="#2d4f78"
   d="m -516.652,190.842 c 0,11.891 -0.108,23.781 0.073,35.668 0.047,3.045 -0.873,3.852 -3.803,3.711 -4.943,-0.238 -9.922,-0.307 -14.855,0.018 -3.393,0.223 -3.875,-1.098 -3.859,-4.088 0.115,-23.496 -0.035,-46.994 0.164,-70.488 0.033,-3.826 -0.986,-4.83 -4.705,-4.631 -6.069,0.324 -12.171,-0.016 -18.254,0.137 -2.447,0.061 -3.58,-0.391 -3.413,-3.195 0.251,-4.23 0.144,-8.49 0.032,-12.734 -0.054,-2.006 0.232,-3.025 2.682,-3.016 23.213,0.092 46.427,0.096 69.641,-0.004 2.632,-0.01 2.998,1.074 2.932,3.264 -0.123,4.102 -0.17,8.215 0.015,12.313 0.114,2.551 -0.646,3.457 -3.302,3.381 -6.223,-0.182 -12.465,0.15 -18.68,-0.139 -3.594,-0.166 -4.874,0.625 -4.774,4.563 0.296,11.738 0.106,23.492 0.106,35.24 z"
   id="path26" />
<path
   fill-rule="evenodd"
   clip-rule="evenodd"
   fill="#66bf78"
   d="m -520.52,330.413 c -5.851,0 -11.491,-0.053 -17.129,0.029 -2.08,0.029 -2.522,-1.227 -2.984,-2.84 -1.319,-4.615 -2.885,-9.164 -4.098,-13.805 -0.638,-2.439 -1.69,-3.5 -4.355,-3.398 -5.367,0.201 -10.753,0.203 -16.12,-0.004 -2.518,-0.096 -3.502,0.928 -4.061,3.17 -1.125,4.518 -2.541,8.965 -3.619,13.492 -0.572,2.408 -1.516,3.607 -4.249,3.426 -3.802,-0.254 -7.646,-0.248 -11.449,-0.008 -3.286,0.207 -4.127,-0.523 -3.054,-3.93 5.683,-18.043 11.144,-36.154 16.677,-54.244 1.857,-6.074 3.765,-12.133 5.512,-18.238 0.596,-2.082 1.552,-2.926 3.831,-2.861 5.937,0.17 11.882,0.127 17.82,0.021 2.126,-0.039 3.229,0.5 3.921,2.754 7.495,24.424 15.126,48.809 22.703,73.209 0.287,0.924 0.392,1.902 0.654,3.227 z m -36.782,-64.584 c -2.694,9.885 -5.242,19.232 -7.79,28.58 -0.539,1.979 0.465,2.479 2.223,2.455 3.669,-0.049 7.35,-0.168 11.008,0.041 2.772,0.156 3.424,-0.566 2.592,-3.311 -2.738,-9.027 -5.261,-18.121 -8.033,-27.765 z"
   id="path28" />
<path
   fill-rule="evenodd"
   clip-rule="evenodd"
   fill="#66bf78"
   d="m -440.309,290.94 c 0,-12.037 0.069,-24.072 -0.054,-36.107 -0.027,-2.656 0.555,-3.672 3.464,-3.641 14.158,0.148 28.318,0.129 42.478,0.012 2.632,-0.021 3.313,0.791 3.354,3.375 0.176,11.43 0.261,11.43 -11.066,11.43 -5.522,0 -11.047,0.09 -16.565,-0.041 -2.505,-0.059 -3.646,0.68 -3.502,3.359 0.175,3.248 0.175,6.518 0,9.766 -0.145,2.686 1.011,3.391 3.507,3.354 7.502,-0.113 15.01,0.047 22.512,-0.086 2.592,-0.047 3.35,0.832 3.41,3.406 0.271,11.391 0.353,11.389 -11,11.389 -5.098,0 -10.199,0.113 -15.291,-0.047 -2.44,-0.078 -3.226,0.775 -3.137,3.156 0.148,3.959 0.16,7.934 0,11.891 -0.111,2.742 0.816,3.695 3.652,3.635 8.351,-0.174 16.709,0.064 25.06,-0.127 3.053,-0.07 4.171,0.609 4.144,3.939 -0.088,10.816 0.058,10.818 -10.789,10.818 -12.035,0 -24.074,-0.143 -36.105,0.088 -3.493,0.066 -4.189,-1.1 -4.14,-4.314 0.175,-11.749 0.068,-23.503 0.068,-35.255 z"
   id="path30" />
<path
   fill-rule="evenodd"
   clip-rule="evenodd"
   fill="#66bf78"
   d="m -648.229,291.174 c 0,-11.746 0.101,-23.494 -0.073,-35.24 -0.042,-2.859 0.814,-4.055 3.628,-4.295 11.555,-0.982 23.133,-2.371 34.602,0.443 11.867,2.914 18.536,10.93 19.041,22.391 0.534,12.148 -5.664,21.414 -17.028,25.541 -5.937,2.154 -12.075,2.961 -18.314,2.375 -3.115,-0.291 -3.88,0.734 -3.803,3.68 0.183,6.93 -0.046,13.871 0.11,20.803 0.062,2.752 -0.759,3.785 -3.606,3.605 -3.665,-0.234 -7.368,-0.244 -11.032,0.002 -2.901,0.193 -3.598,-0.938 -3.572,-3.639 0.11,-11.886 0.047,-23.777 0.047,-35.666 z m 17.861,-14.742 c 0,3.105 0.019,6.209 -0.008,9.314 -0.014,1.629 0.485,2.707 2.342,2.813 4.258,0.242 8.479,0.266 12.417,-1.713 4.571,-2.297 7.229,-7.301 6.556,-12.244 -0.74,-5.43 -3.6,-8.508 -9.081,-9.764 -2.489,-0.57 -4.993,-0.678 -7.558,-0.582 -3.354,0.127 -5.284,1.1 -4.737,4.986 0.331,2.354 0.061,4.79 0.069,7.19 z"
   id="path32" />
<path
   fill-rule="evenodd"
   clip-rule="evenodd"
   fill="#66bf78"
   d="m -882.528,290.709 c -0.04,18.148 12.149,28.52 30.233,25.721 1.117,-0.174 2.228,-0.393 3.341,-0.59 6.481,-1.145 6.481,-1.145 7.871,5.609 1.534,7.445 1.545,7.502 -6.084,9.082 -9.14,1.891 -18.301,1.887 -27.319,-0.596 -20.326,-5.596 -29.39,-23.379 -26.932,-44.174 3.009,-25.459 24.35,-37.656 47.771,-35.746 3.946,0.322 7.857,0.922 11.67,2.08 2.141,0.652 3.504,1.346 2.509,4.125 -1.235,3.443 -0.916,8.145 -3.177,10.326 -2.276,2.197 -6.436,-0.875 -9.812,-1.398 -17.572,-2.731 -30.032,7.745 -30.071,25.561 z"
   id="path34" />
<path
   fill-rule="evenodd"
   clip-rule="evenodd"
   fill="#a8aaac"
   d="m -680.047,-54.988 c 0,7.475 0,14.086 0,20.695 0,15.125 -0.083,30.25 0.068,45.373 0.031,3.146 -0.831,4.145 -4.04,4.076 -9.466,-0.203 -18.941,-0.182 -28.408,-0.01 -3.011,0.055 -4.253,-0.559 -4.168,-3.918 0.233,-9.18 0.103,-18.373 0.061,-27.559 -0.008,-1.766 0.266,-3.23 1.625,-4.578 10.942,-10.846 21.816,-21.76 32.724,-32.641 0.374,-0.371 0.888,-0.606 2.138,-1.438 z"
   id="path36" />
<path
   fill-rule="evenodd"
   clip-rule="evenodd"
   fill="#d1d2d4"
   d="m -625.577,-37.238 c 0,14 0,27.686 0,41.371 0,10.896 0,10.896 -10.709,10.895 -8.352,0 -16.703,-0.051 -25.053,0.031 -2.244,0.021 -3.354,-0.518 -3.339,-3.057 0.083,-14.572 0.041,-29.145 0.041,-44.281 5.068,2.703 9.176,6.064 13.391,9.24 2.581,1.945 4.625,2.975 7.567,0.074 4.101,-4.041 8.833,-7.438 13.242,-11.172 1.381,-1.169 2.697,-2.374 4.86,-3.101 z"
   id="path38" />
<path
   fill-rule="evenodd"
   clip-rule="evenodd"
   d="m 1764.58,586.895 c 12.338,2.449 24.847,4.254 36.988,7.449 72.389,19.049 130.426,86.58 138.756,161.011 2.086,18.645 3.691,37.328 -1.619,55.717 -5.803,20.088 -17.793,35.471 -37.451,43.121 -31.075,12.091 -61.586,-2.562 -71.807,-34.372 -2.928,-9.114 -3.813,-19.05 -4.465,-28.688 -0.742,-10.97 -0.172,-22.031 -1.576,-33.723 -1.787,2.671 -3.66,5.288 -5.346,8.02 -14.242,23.085 -28.055,46.448 -42.884,69.147 -5.052,7.73 -11.813,14.928 -19.253,20.378 -11.191,8.2 -26.436,4.92 -32.557,-7.486 -4.381,-8.878 -6.627,-19.417 -7.301,-29.386 -1.156,-17.059 -0.32,-34.252 -0.358,-51.389 -0.01,-2.486 -0.229,-4.972 -0.464,-9.762 -9.089,14.534 -17.008,27.129 -24.859,39.765 -17.652,28.405 -35.139,56.915 -53.035,85.164 -2.99,4.722 -2.729,7.435 1.049,11.431 55.867,59.098 151.475,63.918 212.549,10.557 2.182,-1.906 4.371,-3.821 6.687,-5.559 8.566,-6.429 17.837,-5.923 24.048,1.227 6.846,7.88 6.808,18.43 -1.713,25.266 -12.479,10.016 -25.275,19.905 -39.014,28.022 -21.297,12.578 -44.75,19.613 -69.473,22.08 -1.803,0.179 -3.549,0.905 -5.32,1.378 -10.025,0 -20.049,0 -30.072,0 -7.988,-1.369 -16.098,-2.25 -23.947,-4.187 -80.006,-19.758 -129.266,-70.194 -148.826,-149.95 -1.99,-8.119 -3.023,-16.474 -4.5,-24.719 0,-10.551 0,-21.105 0,-31.656 1.078,-6.189 1.973,-12.414 3.264,-18.558 16.271,-77.301 61.24,-129.02 137.098,-152.656 11.939,-3.719 24.59,-5.152 36.912,-7.643 9.495,10e-4 18.992,10e-4 28.489,10e-4 z m -14.201,218.454 c 0.537,0.186 1.074,0.373 1.612,0.56 1.28,-1.911 2.628,-3.78 3.833,-5.735 12.029,-19.498 23.869,-39.112 36.105,-58.479 7.029,-11.129 14.18,-22.347 26.623,-28.492 14.227,-7.025 29.557,-2.209 35.641,12.37 3.063,7.342 4.6,15.692 5.035,23.683 0.787,14.459 -0.037,28.998 0.365,43.487 0.158,5.697 1.063,11.608 2.912,16.98 4.477,13.017 18.367,18.149 29.256,9.761 6.02,-4.639 11.828,-12.188 13.396,-19.371 2.479,-11.343 2.92,-23.692 1.418,-35.252 -8.35,-64.308 -42.177,-110.835 -103.146,-133.108 -59.876,-21.873 -114.835,-8.512 -161.564,34.962 -50.318,46.812 -63.089,129.299 -29.572,189.093 1.778,-2.649 3.423,-4.95 4.917,-7.346 27.466,-44.012 54.869,-88.059 82.418,-132.018 3.198,-5.101 6.619,-10.285 10.891,-14.452 13.191,-12.87 31.344,-8.563 36.893,8.97 2.176,6.876 2.74,14.475 2.84,21.761 0.336,24.202 0.127,48.415 0.127,72.626 z"
   id="path40" />
<g
   id="g70">
	<path
   fill-rule="evenodd"
   clip-rule="evenodd"
   d="m 2072.932,1076.263 c -1.014,3.895 -1.432,8.08 -3.15,11.635 -5.539,11.444 -17.645,15.063 -28.998,9.107 -0.404,-0.212 -0.82,-0.402 -1.643,-0.805 0,5.076 0.031,9.783 -0.02,14.488 -0.014,1.241 -0.086,2.54 -0.457,3.708 -0.895,2.819 -3.365,4.536 -6.162,4.352 -2.92,-0.191 -4.896,-1.739 -5.688,-4.571 -0.307,-1.098 -0.373,-2.288 -0.375,-3.438 -0.021,-16.868 -0.016,-33.737 -0.01,-50.606 0,-0.868 -0.063,-1.781 0.17,-2.599 0.633,-2.218 1.988,-3.784 4.449,-3.948 2.324,-0.155 3.857,0.994 4.688,3.132 0.211,0.539 0.396,1.088 0.691,1.896 3.631,-3.168 7.709,-5.155 12.432,-5.559 11.941,-1.021 22.01,7.25 23.465,19.222 0.139,1.142 0.4,2.27 0.607,3.404 10e-4,0.194 10e-4,0.388 10e-4,0.582 z m -33.787,-0.065 c -0.068,6.141 3.75,11.246 9.076,12.14 4.68,0.785 9.416,-2.495 11.066,-7.812 1.299,-4.195 0.887,-8.264 -1.738,-11.863 -2.584,-3.546 -6.953,-4.896 -10.777,-3.579 -4.809,1.652 -7.567,5.669 -7.627,11.114 z"
   id="path42" />
	<path
   fill-rule="evenodd"
   clip-rule="evenodd"
   d="m 1632.598,1064.939 c 0,1.039 10e-4,2.079 0,3.118 0,8.051 0.061,16.102 -0.043,24.15 -0.054,4.21 -2.648,6.899 -6.299,6.918 -3.665,0.019 -6.222,-2.659 -6.234,-6.919 -0.057,-18.235 -0.049,-36.471 0.025,-54.706 0.01,-0.985 0.885,-2.827 1.247,-2.801 1.29,0.098 2.915,0.479 3.734,1.376 7.521,8.232 14.905,16.591 22.313,24.926 3.156,3.553 3.593,3.549 6.688,0.061 7.269,-8.197 14.564,-16.374 21.865,-24.545 0.574,-0.644 1.205,-1.299 1.938,-1.729 1.751,-1.026 3.292,-0.245 3.566,1.746 0.091,0.668 0.041,1.356 0.041,2.035 0,17.362 0,34.725 0,52.087 0,0.582 0.01,1.165 -0.022,1.745 -0.214,4.057 -2.625,6.677 -6.168,6.717 -3.672,0.042 -6.326,-2.656 -6.371,-6.814 -0.088,-8.146 -0.031,-16.294 -0.035,-24.441 -10e-4,-1.019 0,-2.035 0,-3.934 -5.064,5.461 -9.463,10.203 -13.859,14.947 -3.508,3.784 -5.002,3.817 -8.479,0.092 -4.42,-4.739 -8.807,-9.51 -13.209,-14.266 -0.232,0.079 -0.466,0.159 -0.7,0.237 z"
   id="path44" />
	<path
   fill-rule="evenodd"
   clip-rule="evenodd"
   d="m 1460.936,1099.74 c -17.392,0.104 -31.713,-13.752 -32.713,-31.646 -0.965,-17.283 12.237,-32.634 29.507,-34.396 7.833,-0.799 15.02,0.901 21.482,5.374 3.962,2.742 4.164,7.764 0.504,10.242 -2.231,1.512 -4.393,1.351 -6.752,-0.115 -6.247,-3.878 -12.88,-5.178 -19.924,-2.185 -10.489,4.455 -15.287,18.241 -10.259,29.452 5.233,11.668 18.908,15.591 29.533,8.462 1.206,-0.81 2.326,-1.749 3.551,-2.527 2.723,-1.733 6.066,-1.247 7.837,1.072 1.811,2.374 1.384,5.604 -1.032,7.828 -5.609,5.161 -13.93,8.393 -21.734,8.439 z"
   id="path46" />
	<path
   fill-rule="evenodd"
   clip-rule="evenodd"
   d="m 1908.012,1066.807 c 0.243,-12.989 5.883,-23.077 17.23,-29.297 11.033,-6.049 22.328,-5.56 33.119,1.139 3.967,2.463 4.85,6.199 2.49,9.331 -1.969,2.616 -4.967,3.11 -7.951,1.292 -5.797,-3.531 -11.904,-5.091 -18.57,-2.833 -11.383,3.855 -16.967,17.688 -11.977,29.595 5.025,11.994 19.029,16.145 29.826,8.834 1.283,-0.868 2.48,-1.876 3.811,-2.662 2.646,-1.562 5.902,-0.928 7.547,1.359 1.717,2.388 1.336,5.496 -0.934,7.631 -14.678,13.825 -39.154,10.345 -49.623,-7.006 -3.235,-5.363 -4.97,-11.105 -4.968,-17.383 z"
   id="path48" />
	<path
   fill-rule="evenodd"
   clip-rule="evenodd"
   d="m 2004.648,1059.708 c 0.176,-0.927 0.234,-1.596 0.434,-2.221 0.777,-2.451 2.271,-4.05 5.045,-3.9 2.553,0.139 4.498,2.006 4.518,4.784 0.084,11.912 0.08,23.826 0.01,35.74 -0.018,2.756 -1.947,4.719 -4.389,4.958 -2.59,0.254 -4.484,-1.18 -5.225,-3.986 -0.146,-0.557 -0.193,-1.139 -0.344,-2.061 -3.311,4.071 -7.617,5.876 -12.414,6.448 -9.248,1.104 -16.379,-2.78 -20.77,-11.082 -6.156,-11.643 -2.637,-26.131 7.912,-32.554 7.385,-4.499 16.395,-3.764 22.928,1.869 0.713,0.615 1.418,1.237 2.295,2.005 z m -2.658,17.008 c 0,-3.924 -1.129,-7.028 -3.822,-9.438 -3.082,-2.761 -7.375,-3.43 -10.805,-1.763 -4.123,2.005 -6.547,6.492 -6.166,11.592 0.348,4.66 2.273,8.464 6.609,10.55 3.516,1.691 6.881,0.716 9.775,-1.589 3.062,-2.44 4.374,-5.819 4.409,-9.352 z"
   id="path50" />
	<path
   fill-rule="evenodd"
   clip-rule="evenodd"
   d="m 1725.307,1059.687 c 0.246,-0.871 0.418,-1.495 0.598,-2.116 0.832,-2.878 2.653,-4.26 5.226,-3.969 2.645,0.3 4.251,2.171 4.269,5.287 0.051,8.911 0.021,17.822 0.023,26.733 10e-4,2.615 0.033,5.231 -0.012,7.845 -0.057,3.275 -1.666,5.319 -4.314,5.591 -2.778,0.286 -4.496,-1.169 -5.332,-4.509 -0.092,-0.368 -0.212,-0.73 -0.404,-1.384 -3.131,3.902 -7.303,5.537 -11.823,6.259 -4.588,0.733 -9.032,0.225 -13.163,-2.252 -7.819,-4.688 -12.369,-15.059 -10.807,-24.937 1.518,-9.596 7.922,-16.957 16.608,-18.842 7.439,-1.613 13.703,0.803 19.131,6.294 z m -23.295,16.715 c 0.037,0.55 0.037,1.427 0.157,2.288 0.824,5.921 6.07,10.489 11.081,9.673 4.552,-0.742 8.145,-4.236 9.216,-8.966 1.118,-4.938 -0.603,-10.256 -4.304,-12.749 -3.146,-2.12 -6.545,-2.904 -10.138,-1.071 -4.28,2.181 -5.871,5.93 -6.012,10.825 z"
   id="path52" />
	<path
   fill-rule="evenodd"
   clip-rule="evenodd"
   d="m 1794.887,1072.595 c 4.328,-4.79 8.65,-9.584 12.982,-14.37 0.912,-1.006 1.783,-2.063 2.797,-2.956 2.672,-2.353 5.689,-2.273 8.03,0.116 2.331,2.382 2.438,5.764 0.125,8.346 -3.481,3.892 -7.044,7.711 -10.653,11.649 3.719,4.551 7.353,8.958 10.941,13.401 2.491,3.083 2.303,6.326 -0.432,8.755 -2.647,2.351 -6.099,2.126 -8.727,-0.834 -4.311,-4.856 -8.475,-9.842 -12.709,-14.768 -0.781,-0.909 -1.596,-1.789 -3.053,-2.425 0,4.512 0.109,9.026 -0.035,13.534 -0.11,3.444 -2.635,5.872 -5.895,6.056 -3.258,0.183 -5.885,-1.966 -6.473,-5.401 -0.195,-1.138 -0.205,-2.316 -0.205,-3.475 -0.014,-12.315 -0.016,-24.631 -0.01,-36.945 0,-4.268 -0.053,-8.536 0.103,-12.798 0.104,-2.876 1.626,-4.985 4.423,-5.867 2.555,-0.806 5.034,-0.164 6.489,2 1.001,1.491 1.533,3.567 1.563,5.394 0.154,9.016 0.07,18.035 0.07,27.054 0,1.055 0,2.109 0,3.164 0.223,0.124 0.444,0.247 0.665,0.37 z"
   id="path54" />
	<path
   fill-rule="evenodd"
   clip-rule="evenodd"
   d="m 1836.262,1080.201 c -0.301,3.771 1.279,6.287 4.611,7.724 4.586,1.979 9.105,1.172 13.609,-0.294 0.456,-0.148 0.862,-0.445 1.314,-0.62 2.631,-1.02 5.246,-0.243 6.66,1.958 1.42,2.217 1.15,5.03 -1.342,6.677 -2.448,1.617 -5.279,3.221 -8.101,3.572 -4.263,0.53 -8.771,0.55 -12.979,-0.247 -9.22,-1.748 -15.004,-7.558 -16.428,-16.907 -1.328,-8.712 -0.526,-17.235 6.393,-23.696 6.709,-6.263 14.893,-6.756 23.136,-3.992 7.763,2.602 11.893,8.627 13.138,16.648 0.178,1.147 0.323,2.31 0.364,3.469 0.126,3.502 -1.911,5.674 -5.442,5.694 -7.273,0.044 -14.546,0.015 -21.818,0.015 -1.047,-10e-4 -2.094,-10e-4 -3.115,-10e-4 z m 17.718,-8.228 c 0.013,-4.132 -3.453,-7.015 -8.283,-7.104 -5.607,-0.103 -9.438,2.701 -9.485,7.104 5.854,0 11.712,0 17.768,0 z"
   id="path56" />
	<path
   fill-rule="evenodd"
   clip-rule="evenodd"
   d="m 1511.913,1099.72 c -12.835,-0.259 -23.417,-11.159 -23.187,-23.887 0.232,-12.781 11.152,-23.147 24.091,-22.868 12.261,0.266 22.45,11.071 22.119,23.46 -0.346,13.031 -10.735,23.541 -23.023,23.295 z m 0.306,-34.817 c -6.159,-0.059 -10.701,4.648 -10.842,11.232 -0.142,6.683 4.73,12.33 10.602,12.29 5.63,-0.04 10.229,-5.359 10.307,-11.92 0.076,-6.599 -4.216,-11.547 -10.067,-11.602 z"
   id="path58" />
	<path
   fill-rule="evenodd"
   clip-rule="evenodd"
   d="m 1577.336,1058.318 c 4.957,-4.834 10.978,-6.152 17.5,-5.052 7.849,1.324 13.514,7.475 14.082,15.965 0.529,7.918 0.34,15.894 0.234,23.841 -0.048,3.582 -2.837,6.033 -6.196,6.052 -3.458,0.02 -6.108,-2.521 -6.21,-6.33 -0.144,-5.428 -0.045,-10.862 -0.076,-16.292 -0.01,-1.453 -0.034,-2.913 -0.184,-4.356 -0.541,-5.233 -2.582,-7.181 -7.771,-7.519 -4.418,-0.287 -7.706,1.971 -8.336,6.688 -0.613,4.578 -0.381,9.273 -0.479,13.917 -0.055,2.521 0.093,5.051 -0.063,7.563 -0.236,3.813 -3.095,6.449 -6.622,6.319 -3.42,-0.128 -5.973,-2.791 -5.994,-6.592 -0.063,-11.152 -0.024,-22.307 -0.022,-33.46 0,-2.741 1.198,-4.701 3.917,-5.393 2.492,-0.637 4.422,0.715 5.686,3.714 0.108,0.258 0.278,0.492 0.534,0.935 z"
   id="path60" />
	<path
   fill-rule="evenodd"
   clip-rule="evenodd"
   d="m 1891.158,1051.883 c 3.58,1.127 6.625,1.796 9.362,3.108 0.939,0.45 1.657,2.564 1.533,3.825 -0.668,6.777 -6.126,5.632 -10.641,5.851 0,6.887 -0.132,13.549 0.056,20.201 0.09,3.153 2.441,3.616 5.191,3.615 5.006,0 7.825,4.542 5.254,8.487 -0.801,1.227 -2.478,2.471 -3.863,2.608 -3.053,0.302 -6.24,0.267 -9.252,-0.292 -4.532,-0.842 -7.753,-3.768 -8.867,-8.255 -0.875,-3.533 -1.221,-7.245 -1.385,-10.896 -0.225,-5.02 -0.056,-10.056 -0.056,-14.321 -2.96,-1.393 -5.597,-2.34 -7.856,-3.848 -0.844,-0.562 -1.173,-2.459 -1.104,-3.712 0.199,-3.565 2.453,-4.935 8.957,-5.552 0,-2.399 0,-4.87 10e-4,-7.34 0,-1.552 -0.046,-3.106 0.03,-4.654 0.184,-3.668 2.548,-6.185 5.895,-6.354 3.373,-0.172 6.143,2.047 6.553,5.676 0.313,2.779 0.151,5.611 0.188,8.421 0.019,1.346 0,2.691 0,3.432 z"
   id="path62" />
	<path
   fill-rule="evenodd"
   clip-rule="evenodd"
   d="m 1757.239,1058.363 c 3.757,-3.343 7.753,-5.338 12.537,-5.424 3.855,-0.071 6.655,2.229 6.823,5.608 0.164,3.297 -2.581,5.885 -6.408,6.042 -7.365,0.302 -10.263,3.276 -10.318,10.695 -0.039,5.524 0.025,11.051 -0.021,16.576 -0.04,4.41 -2.488,7.21 -6.225,7.257 -3.748,0.05 -6.36,-2.691 -6.396,-7.121 -0.086,-10.758 -0.051,-21.52 -0.02,-32.279 0.01,-3.513 1.565,-5.691 4.176,-6.109 2.674,-0.429 4.49,0.987 5.852,4.755 z"
   id="path64" />
	<path
   fill-rule="evenodd"
   clip-rule="evenodd"
   d="m 1542.752,1076.031 c 0,-5.132 -0.031,-10.265 0.01,-15.396 0.033,-4.195 2.477,-6.991 6.095,-7.093 3.708,-0.104 6.541,2.766 6.569,6.973 0.069,10.555 0.069,21.11 0,31.665 -0.027,4.21 -2.85,7.045 -6.594,6.938 -3.605,-0.102 -6.033,-2.895 -6.066,-7.108 -0.041,-5.327 -0.01,-10.652 -0.01,-15.979 z"
   id="path66" />
	<path
   fill-rule="evenodd"
   clip-rule="evenodd"
   d="m 1549.111,1048.348 c -4.049,0.021 -7.399,-3.319 -7.387,-7.366 0.013,-3.993 3.439,-7.576 7.271,-7.605 4.074,-0.031 7.566,3.496 7.556,7.63 -0.01,4.016 -3.358,7.32 -7.44,7.341 z"
   id="path68" />
</g>

<g
   id="g118"
   transform="translate(-78.275395,5.2867401)">
	<path
   fill-rule="evenodd"
   clip-rule="evenodd"
   fill="#8dc740"
   d="M 353.204,62.864 C 467.8,62.901 559.997,155.471 560.046,270.29 560.095,383.978 466.673,477.462 351.271,476.556 240.034,475.683 146.113,383.398 146.506,269.695 146.901,155.372 239.108,62.828 353.204,62.864 Z M 196.269,378.051 c -0.07,1.994 0.976,3.453 2.098,5.004 8.332,11.516 17.354,22.396 28.363,31.494 4.994,4.127 9.623,8.715 15.072,12.27 15.137,9.869 30.709,18.82 47.885,24.869 14.049,4.947 28.389,8.744 43.129,10.104 11.405,1.051 23.025,1.641 34.473,0.096 6.742,-0.908 13.756,-0.838 20.099,-3.926 1.06,0.807 1.616,-0.455 2.437,-0.592 13.638,-2.27 26.665,-6.508 39.289,-12.08 42.104,-18.582 73.971,-48.232 94.771,-89.227 18.307,-36.08 24.434,-74.385 18.459,-114.551 -5.68,-38.185 -21.395,-71.707 -47.354,-100.122 -35.267,-38.603 -79.426,-59.351 -131.544,-62.66 -23.404,-1.485 -46.428,1.656 -68.767,8.96 -36.085,11.798 -66.188,32.38 -90.091,61.926 -27.395,33.861 -41.057,72.79 -42.531,116.128 -0.361,10.633 0.652,21.214 2.139,31.762 3.438,24.402 11.483,47.17 23.93,68.396 2.463,4.206 4.512,8.716 8.143,12.149 z"
   id="path94" />
	<path
   fill-rule="evenodd"
   clip-rule="evenodd"
   fill="#8bc43f"
   d="m 387.388,457.959 c -6.344,3.09 -13.357,3.02 -20.1,3.928 -11.447,1.545 -23.067,0.955 -34.473,-0.096 -14.74,-1.359 -29.08,-5.156 -43.129,-10.104 -17.176,-6.049 -32.748,-15 -47.885,-24.869 -5.449,-3.555 -10.078,-8.143 -15.072,-12.27 -11.009,-9.098 -20.031,-19.979 -28.363,-31.494 -1.122,-1.551 -2.168,-3.01 -2.098,-5.002 13.131,-29.129 17.83,-60.168 20.695,-91.609 1.324,-14.535 1.829,-29.153 4.135,-43.586 2.701,-16.911 9.011,-32.156 21.16,-44.648 10.99,-11.299 24.364,-18.83 38.846,-24.48 12.121,-4.729 24.355,-9.149 37.607,-9.777 12.195,-0.578 24.095,1.34 35.992,3.531 18.082,4.365 35.822,9.723 52.521,18.101 13.637,5.639 27.362,11.049 41.541,15.186 14.729,4.297 29.21,9.08 41.691,18.45 15.708,11.792 20.132,27.188 12.707,45.357 -4.564,11.175 -12.369,20.052 -20.791,28.485 -14.848,14.872 -30.498,28.943 -44.276,44.885 -16.157,18.693 -30.896,38.322 -40.927,61.078 -8.277,18.78 -13.016,38.214 -9.781,58.934 z M 491.774,279.754 c -0.678,-0.033 -1.226,0.197 -1.604,0.781 -0.654,0.141 -1.258,0.348 -1.303,1.159 -0.005,0.091 0.157,0.263 0.254,0.272 0.801,0.082 1.125,-0.442 1.333,-1.1 0.49,-0.321 0.981,-0.642 1.47,-0.963 0.217,-0.156 0.766,-0.182 0.246,-0.627 -0.131,0.16 -0.263,0.32 -0.396,0.478 z M 326.216,185.622 c -20.459,-0.018 -37.074,16.554 -37.078,36.982 -0.005,20.4 16.648,37.083 37.027,37.095 20.402,0.012 37.047,-16.634 37.051,-37.052 0.002,-20.488 -16.504,-37.006 -37,-37.025 z m 30.262,113.937 c 2.987,4.646 9.389,9.008 16.299,11.496 13.896,5.006 28.079,5.055 42.389,2.361 24.809,-4.669 47.941,-13.605 69.092,-27.473 1.262,-0.828 3.111,-1.328 3.521,-3.215 -1.018,-0.512 -1.565,-0.011 -2.097,0.311 -7.059,4.283 -14.499,7.807 -22.094,11.006 -19.719,8.309 -40.197,13.566 -61.625,14.471 -15.788,0.667 -31.323,-0.535 -45.485,-8.957 z M 458.71,267.675 c 4.382,-0.096 8.082,-4.007 7.93,-8.384 -0.154,-4.459 -3.993,-8.016 -8.453,-7.831 -4.257,0.177 -7.75,3.866 -7.71,8.146 0.042,4.431 3.851,8.164 8.233,8.069 z"
   id="path96" />
	<path
   fill-rule="evenodd"
   clip-rule="evenodd"
   fill="#f8e888"
   d="m 354.704,167.483 c -11.897,-2.191 -23.797,-4.109 -35.992,-3.531 -13.252,0.628 -25.486,5.047 -37.607,9.777 -14.481,5.65 -27.855,13.182 -38.846,24.48 -12.149,12.492 -18.459,27.737 -21.16,44.648 -2.306,14.433 -2.811,29.051 -4.135,43.586 -2.865,31.441 -7.564,62.48 -20.695,91.609 -3.631,-3.436 -5.68,-7.945 -8.145,-12.15 -12.446,-21.227 -20.491,-43.994 -23.93,-68.396 -1.486,-10.548 -2.5,-21.129 -2.139,-31.762 1.475,-43.338 15.137,-82.267 42.531,-116.128 23.902,-29.546 54.006,-50.128 90.091,-61.926 22.339,-7.304 45.362,-10.445 68.767,-8.96 52.118,3.309 96.277,24.058 131.544,62.66 25.96,28.415 41.675,61.937 47.354,100.122 5.975,40.166 -0.152,78.471 -18.459,114.551 -20.801,40.994 -52.668,70.645 -94.771,89.227 -12.624,5.572 -25.651,9.811 -39.289,12.08 -0.82,0.137 -1.377,1.398 -2.436,0.592 -3.234,-20.723 1.504,-40.156 9.783,-58.936 10.031,-22.756 24.77,-42.385 40.927,-61.078 13.778,-15.941 29.429,-30.013 44.276,-44.885 8.422,-8.434 16.227,-17.311 20.791,-28.485 7.425,-18.169 3.001,-33.565 -12.707,-45.357 -12.481,-9.37 -26.963,-14.153 -41.691,-18.45 -14.179,-4.137 -27.904,-9.547 -41.541,-15.186 -2.874,-9.196 -9.221,-15.101 -18.049,-18.292 -11.452,-4.141 -22.999,-3.225 -34.472,0.19 z m 176.854,114.994 c 0.346,0.021 0.692,0.042 1.039,0.063 2.05,-7.707 2.188,-15.711 2.094,-23.553 -0.11,-9.244 -1.026,-18.515 -2.875,-27.66 -6.027,-29.834 -19.553,-55.768 -40.492,-77.765 -12.859,-13.509 -27.68,-24.829 -42.037,-36.661 -12.869,-10.605 -26.803,-19.098 -43.104,-23.336 -15.432,-4.012 -30.968,-6.053 -46.847,-3.089 -0.84,0.157 -2.219,-0.175 -2.126,1.144 0.071,1.016 1.316,1.097 2.249,1.257 23.811,4.073 46.447,11.893 68.907,20.627 21.843,8.495 39.995,21.253 53.349,40.648 9.363,13.602 17.981,27.617 24.631,42.777 8.986,20.486 16.226,41.541 20.727,63.491 1.506,7.351 2.99,14.705 4.485,22.057 z"
   id="path98" />
	<path
   fill-rule="evenodd"
   clip-rule="evenodd"
   fill="#fbfcfa"
   d="m 326.216,185.622 c 20.496,0.02 37.002,16.537 37,37.025 -0.004,20.418 -16.648,37.063 -37.051,37.052 -20.379,-0.012 -37.032,-16.694 -37.027,-37.095 0.004,-20.429 16.619,-37 37.078,-36.982 z m 25.953,37.264 c -0.031,-14.479 -11.732,-26.122 -26.148,-26.021 -14.257,0.1 -25.807,11.701 -25.84,25.951 -0.033,14.568 11.441,26.109 25.973,26.124 14.562,0.016 26.048,-11.486 26.015,-26.054 z"
   id="path100" />
	<path
   fill-rule="evenodd"
   clip-rule="evenodd"
   fill="#5a5d5a"
   d="m 356.478,299.559 c 14.162,8.422 29.697,9.624 45.484,8.957 21.428,-0.904 41.906,-6.162 61.625,-14.471 7.595,-3.199 15.035,-6.723 22.094,-11.006 0.531,-0.321 1.079,-0.822 2.097,-0.311 -0.409,1.887 -2.259,2.387 -3.521,3.215 -21.15,13.867 -44.283,22.804 -69.092,27.473 -14.31,2.693 -28.493,2.645 -42.389,-2.361 -6.91,-2.488 -13.311,-6.849 -16.298,-11.496 z"
   id="path102" />
	<path
   fill-rule="evenodd"
   clip-rule="evenodd"
   fill="#069446"
   d="m 354.704,167.483 c 11.473,-3.415 23.02,-4.331 34.473,-0.19 8.828,3.19 15.175,9.095 18.049,18.292 -16.7,-8.378 -34.44,-13.736 -52.522,-18.102 z"
   id="path104" />
	<path
   fill-rule="evenodd"
   clip-rule="evenodd"
   fill="#fbfcfa"
   d="m 458.71,267.675 c -4.382,0.095 -8.191,-3.639 -8.233,-8.069 -0.04,-4.279 3.453,-7.969 7.71,-8.146 4.46,-0.185 8.299,3.372 8.453,7.831 0.152,4.377 -3.548,8.289 -7.93,8.384 z"
   id="path106" />
	<path
   fill-rule="evenodd"
   clip-rule="evenodd"
   fill="#5a5d5a"
   d="m 490.459,280.873 c -0.212,0.652 -0.536,1.177 -1.337,1.095 -0.097,-0.01 -0.259,-0.182 -0.254,-0.272 0.045,-0.812 0.648,-1.019 1.305,-1.158 0.098,0.111 0.192,0.222 0.286,0.335 z"
   id="path108" />
	<path
   fill-rule="evenodd"
   clip-rule="evenodd"
   fill="#5a5d5a"
   d="m 491.927,279.905 c -0.49,0.321 -0.981,0.642 -1.47,0.965 -0.092,-0.109 -0.187,-0.221 -0.284,-0.333 0.376,-0.585 0.924,-0.815 1.602,-0.782 z"
   id="path110" />
	<path
   fill-rule="evenodd"
   clip-rule="evenodd"
   fill="#5a5d5a"
   d="m 491.774,279.754 c 0.133,-0.158 0.265,-0.318 0.396,-0.477 0.52,0.445 -0.029,0.471 -0.246,0.627 0.003,10e-4 -0.15,-0.15 -0.15,-0.15 z"
   id="path112" />
	<path
   fill-rule="evenodd"
   clip-rule="evenodd"
   fill="#fefdfb"
   d="m 531.558,282.477 c -1.495,-7.352 -2.979,-14.706 -4.486,-22.056 -4.501,-21.95 -11.74,-43.005 -20.727,-63.491 -6.649,-15.16 -15.268,-29.176 -24.631,-42.777 -13.354,-19.396 -31.506,-32.154 -53.349,-40.648 -22.46,-8.735 -45.097,-16.555 -68.907,-20.627 -0.933,-0.16 -2.178,-0.241 -2.249,-1.257 -0.093,-1.319 1.286,-0.987 2.126,-1.144 15.879,-2.964 31.415,-0.923 46.847,3.089 16.302,4.238 30.235,12.731 43.104,23.336 14.357,11.832 29.178,23.151 42.037,36.661 20.939,21.998 34.465,47.931 40.492,77.765 1.849,9.146 2.765,18.416 2.875,27.66 0.095,7.842 -0.044,15.846 -2.094,23.553 -0.346,-0.022 -0.693,-0.042 -1.038,-0.064 z"
   id="path114" />
	<path
   fill-rule="evenodd"
   clip-rule="evenodd"
   fill="#595a5c"
   d="m 352.169,222.886 c 0.033,14.567 -11.453,26.069 -26.016,26.055 -14.531,-0.015 -26.006,-11.556 -25.973,-26.124 0.033,-14.25 11.583,-25.852 25.84,-25.951 14.417,-0.102 26.118,11.541 26.149,26.02 z"
   id="path116" />
</g>
</svg>
