<svg xmlns="http://www.w3.org/2000/svg" xmlns:xlink="http://www.w3.org/1999/xlink" viewBox="0 0 107.98 30">
  <defs>
    <linearGradient id="a" x1="-2" x2="1.96" y1="1.03" y2=".11" gradientUnits="objectBoundingBox">
      <stop offset="0" stop-color="#30bac6"/>
      <stop offset="1" stop-color="#b6509e"/>
    </linearGradient>
    <linearGradient id="b" x1="-4.05" x2="1.18" y1="1.31" y2=".38" xlink:href="#a"/>
    <linearGradient id="c" x1="-1.12" x2="2.83" y1=".93" xlink:href="#a"/>
    <linearGradient id="d" x1="-.05" x2="3.91" y1=".68" y2="-.25" xlink:href="#a"/>
  </defs>
  <g data-name="Group 10477">
    <g data-name="Aave Logo Colored">
      <g data-name="Group 4051">
        <path fill="url(#a)" d="M230.69 28.05L220.23 2.67a2.23 2.23 0 0 1-.13-.72 1.99 1.99 0 0 1 .51-1.41A1.8 1.8 0 0 1 222 0a1.88 1.88 0 0 1 1.08.36 2.29 2.29 0 0 1 .74.95l9.95 24.83 9.95-24.83a2.29 2.29 0 0 1 .75-.95 1.88 1.88 0 0 1 1.08-.36 1.8 1.8 0 0 1 1.38.54 1.99 1.99 0 0 1 .52 1.41 2.23 2.23 0 0 1-.13.72l-10.46 25.38a2.81 2.81 0 0 1-2.62 1.95h-.93a2.81 2.81 0 0 1-2.62-1.95z" data-name="Path 2431" transform="translate(-164.09)"/>
        <path fill="url(#b)" d="M342.24 29.82a1.86 1.86 0 0 1-.54-1.36V2.76a1.96 1.96 0 0 1 .54-1.4A1.79 1.79 0 0 1 343.6.8h17a1.69 1.69 0 0 1 1.28.54 1.73 1.73 0 0 1 .54 1.28 1.63 1.63 0 0 1-.54 1.26 1.8 1.8 0 0 1-1.29.52h-15.03v9.36h13.52a1.69 1.69 0 0 1 1.28.54 1.77 1.77 0 0 1 .54 1.28 1.63 1.63 0 0 1-.54 1.26 1.8 1.8 0 0 1-1.28.52h-13.52v9.4h15.03a1.69 1.69 0 0 1 1.29.54 1.73 1.73 0 0 1 .54 1.29 1.63 1.63 0 0 1-.54 1.26 1.8 1.8 0 0 1-1.29.51H343.6a1.68 1.68 0 0 1-1.36-.54z" data-name="Path 2432" transform="translate(-254.43 -.6)"/>
        <path fill="url(#c)" d="M151.05 27.33L140.58 1.95A2.81 2.81 0 0 0 137.97 0h-.92a2.81 2.81 0 0 0-2.62 1.95l-4.55 11.06h-3.45a1.89 1.89 0 0 0-1.87 1.88v.02a1.89 1.89 0 0 0 1.87 1.88h1.85l-4.34 10.54a2.23 2.23 0 0 0-.13.72 1.99 1.99 0 0 0 .51 1.41 1.8 1.8 0 0 0 1.39.54 1.88 1.88 0 0 0 1.08-.36 2.29 2.29 0 0 0 .74-.95l4.79-11.9h3.29a1.89 1.89 0 0 0 1.87-1.88v-.05a1.89 1.89 0 0 0-1.87-1.88h-1.78l3.68-9.12 9.95 24.83a2.29 2.29 0 0 0 .74.95 1.88 1.88 0 0 0 1.08.36 1.8 1.8 0 0 0 1.4-.54 1.99 1.99 0 0 0 .5-1.41 1.7 1.7 0 0 0-.12-.72z" data-name="Path 2433" transform="translate(-92.54)"/>
        <path fill="url(#d)" d="M29.45 27.33L18.99 1.95A2.81 2.81 0 0 0 16.36 0h-.92a2.81 2.81 0 0 0-2.62 1.95L8.27 13.01H4.82a1.89 1.89 0 0 0-1.87 1.88v.02a1.89 1.89 0 0 0 1.87 1.88h1.85L2.33 27.33a2.23 2.23 0 0 0-.13.72 1.99 1.99 0 0 0 .51 1.41A1.8 1.8 0 0 0 4.1 30a1.88 1.88 0 0 0 1.08-.36 2.29 2.29 0 0 0 .74-.95l4.79-11.9h3.31a1.89 1.89 0 0 0 1.88-1.88v-.05a1.89 1.89 0 0 0-1.88-1.88h-1.77l3.65-9.12 9.95 24.83a2.29 2.29 0 0 0 .74.95 1.88 1.88 0 0 0 1.08.36 1.8 1.8 0 0 0 1.4-.54 1.99 1.99 0 0 0 .5-1.41 1.7 1.7 0 0 0-.12-.72z" data-name="Path 2434" transform="translate(-2.2)"/>
      </g>
    </g>
  </g>
</svg>