<svg xmlns="http://www.w3.org/2000/svg" viewBox="0 0 88.3 56.8"><defs><style>.cls-1{fill:#1aab9b;}</style></defs><title>maker-dao</title><g id="Layer_2" data-name="Layer 2"><g id="Layer_1-2" data-name="Layer 1"><g id="logo-maker"><g id="Path-3-Copy-4-_-Path-3-Copy-5-Copy" data-name="Path-3-Copy-4-+-Path-3-Copy-5-Copy"><g id="Shape"><path class="cls-1" d="M37.2,56.7a3.18,3.18,0,0,1-3.3-3.2V28.2L6.6,9.4V53.5a3.24,3.24,0,0,1-3.3,3.2A3.24,3.24,0,0,1,0,53.5V3.2A3.24,3.24,0,0,1,3.3,0,3.08,3.08,0,0,1,5.2.6L39.1,24.1a3,3,0,0,1,1.4,2.6V53.6A3.23,3.23,0,0,1,37.2,56.7Z"/></g><g id="Shape-2" data-name="Shape"><path class="cls-1" d="M51.1,56.7a3.18,3.18,0,0,1-3.3-3.2V26.7a3.42,3.42,0,0,1,1.4-2.6L83.1.7A3.29,3.29,0,0,1,85,.1a3.24,3.24,0,0,1,3.3,3.2V53.6a3.3,3.3,0,0,1-6.6,0V9.5L54.4,28.2V53.5A3.24,3.24,0,0,1,51.1,56.7Z"/></g></g></g></g></g></svg>