<svg id="Layer_1" data-name="Layer 1" xmlns="http://www.w3.org/2000/svg" viewBox="0 0 93.98 73.22"><title>matic-network-matic-logo</title><g id="Group-6"><polygon id="Path" points="36.46 30.4 46.99 53.36 62.63 44.47 62.66 44.47 62.66 26.68 36.46 30.4" style="fill:#2bbdf7"/><polygon id="Path-2" data-name="Path" points="82.86 13.34 73.1 9.73 62.66 8.89 62.66 26.68 62.66 26.68 62.66 64.32 62.66 64.32 78.32 73.22 90.81 48.16 82.89 24.05 82.86 13.34" style="fill:#2891f9"/><polygon id="Path-3" data-name="Path" points="81.95 8.89 78.32 17.79 78.32 17.79 78.32 73.08 93.98 64.18 93.98 8.89 81.95 8.89" style="fill:#2bbdf7"/><polygon id="Path-4" data-name="Path" points="78.32 0 62.66 8.89 78.32 17.79 93.98 8.89 78.32 0" style="fill:#2b6def"/><polygon id="Path-5" data-name="Path" points="46.99 35.57 46.99 35.57 31.33 18.29 0 8.89 0 64.18 0 64.18 15.66 73.08 20.15 42.48 31.33 44.47 31.33 44.47 46.99 53.36 46.99 35.57 46.99 35.57" style="fill:#2891f9"/><polygon id="Path-6" data-name="Path" points="15.66 0 0 8.89 46.99 35.57 54.09 31.55 62.66 26.68 15.66 0" style="fill:#2b6def"/><polygon id="Path-7" data-name="Path" points="15.66 35.57 15.66 35.57 15.66 73.08 31.33 64.18 31.33 64.18 31.33 44.47 31.33 44.47 15.66 35.57" style="fill:#2bbdf7"/></g></svg>