<svg class="chakra-icon css-125d9c3" focusable="false" version="1.1" viewBox="0 0 22 24" xmlns="http://www.w3.org/2000/svg"><path d="m4.6312 3.6761 6.3688-3.6761 6.3688 3.6761-2.3415 1.358-4.0273-2.318-4.0273 2.318zm12.738 4.6361-2.3415-1.358-4.0273 2.318-4.0273-2.318-2.3415 1.358v2.7161l4.0273 2.318v4.6361l2.3415 1.3581 2.3415-1.3581v-4.6361l4.0273-2.318zm0 7.3522v-2.7161l-2.3415 1.358v2.7161zm1.6624 0.96-4.0273 2.318v2.7161l6.3688-3.6761v-7.3522l-2.3415 1.3581zm-2.3414-10.63 2.3414 1.358v2.7161l2.3415-1.3581v-2.7161l-2.3415-1.358zm-8.0313 13.932v2.7161l2.3415 1.358 2.3415-1.358v-2.7161l-2.3415 1.358zm-4.0273-4.2615 2.3415 1.358v-2.7161l-2.3415-1.358zm4.0273-9.6702 2.3415 1.358 2.3415-1.358-2.3415-1.358zm-5.6898 1.358 2.3415-1.358-2.3415-1.358-2.3415 1.358v2.7161l2.3415 1.3581zm0 4.6361-2.3415-1.3581v7.3522l6.3688 3.6761v-2.7161l-4.0273-2.318z" fill="#f0b90b"/></svg>