<?xml version="1.0" encoding="UTF-8" standalone="no"?>
<svg
   xmlns:dc="http://purl.org/dc/elements/1.1/"
   xmlns:cc="http://creativecommons.org/ns#"
   xmlns:rdf="http://www.w3.org/1999/02/22-rdf-syntax-ns#"
   xmlns:svg="http://www.w3.org/2000/svg"
   xmlns="http://www.w3.org/2000/svg"
   xmlns:sodipodi="http://sodipodi.sourceforge.net/DTD/sodipodi-0.dtd"
   xmlns:inkscape="http://www.inkscape.org/namespaces/inkscape"
   width="500"
   height="500"
   viewBox="0 0 500 500"
   fill="none"
   version="1.1"
   id="svg1047"
   sodipodi:docname="1inch.svg"
   inkscape:version="1.0.1 (3bc2e813f5, 2020-09-07)">
  <metadata
     id="metadata1053">
    <rdf:RDF>
      <cc:Work
         rdf:about="">
        <dc:format>image/svg+xml</dc:format>
        <dc:type
           rdf:resource="http://purl.org/dc/dcmitype/StillImage" />
        <dc:title></dc:title>
      </cc:Work>
    </rdf:RDF>
  </metadata>
  <defs
     id="defs1051" />
  <sodipodi:namedview
     pagecolor="#ffffff"
     bordercolor="#666666"
     borderopacity="1"
     objecttolerance="10"
     gridtolerance="10"
     guidetolerance="10"
     inkscape:pageopacity="0"
     inkscape:pageshadow="2"
     inkscape:window-width="2968"
     inkscape:window-height="1660"
     id="namedview1049"
     showgrid="false"
     inkscape:zoom="1.92"
     inkscape:cx="302.50122"
     inkscape:cy="300"
     inkscape:window-x="0"
     inkscape:window-y="0"
     inkscape:window-maximized="0"
     inkscape:current-layer="svg1047" />
  <g
     id="g1069"
     transform="translate(-23.625066,-50.05828)">
    <path
       d="m 169.449,319.147 10.5,-79.078 -91.219,-63.328 83.344,28.219 19.687,-30.188 71.86,-44.625 158.484,87.282 8.203,133.218 -70.547,98.11 -55.781,8.531 28.875,-52.828 v -50.859 l -21,-39.704 -21.328,-14.109 -32.813,33.797 v 35.766 l -25.593,23.953 -32.485,3.937 -14.437,8.203 -23.625,-7.546 -9.844,-35.438 17.719,-24.938 z"
       fill="#ffffff"
       id="path1019" />
    <path
       d="m 315.136,176.085 c -17.39,-3.61 -36.421,-2.625 -36.421,-2.625 0,0 -6.235,28.875 -44.954,36.422 0.329,0 51.188,17.39 81.375,-33.797 z"
       fill="#94a6c3"
       id="path1021" />
    <path
       d="m 330.886,437.929 c 21,-16.406 36.75,-39.047 43.969,-64.641 0.328,-0.984 3.281,-2.625 5.25,-3.937 3.281,-1.969 6.562,-3.61 7.219,-6.235 1.312,-7.547 1.968,-15.421 1.968,-23.296 0,-2.954 -2.953,-5.907 -5.906,-8.86 -2.297,-1.969 -4.594,-4.266 -4.594,-5.906 -3.281,-29.86 -17.062,-57.75 -39.046,-78.094 l -2.297,2.297 c 21.328,20.016 35.109,47.25 38.062,76.125 0.328,2.625 2.953,5.25 5.578,7.875 2.297,1.969 4.922,4.922 4.922,6.234 0,7.547 -0.656,15.094 -1.969,22.641 -0.328,1.313 -3.281,2.625 -5.578,3.938 -3.281,1.64 -6.234,3.281 -6.89,5.906 -7.875,27.89 -25.922,52.172 -49.875,67.922 4.265,-9.188 17.718,-39.047 24.937,-54.141 l -1.312,-48.562 -41.672,-40.36 -23.625,3.281 -25.922,42 c 0,0 12.141,15.422 -4.922,33.469 -16.734,17.719 -29.859,21.656 -29.859,21.656 l -12.141,-6.562 c 3.609,-4.594 10.828,-11.484 16.406,-16.078 9.516,-7.875 19.032,-8.531 19.032,-17.063 0.328,-17.718 -18.704,-12.797 -18.704,-12.797 l -6.89,6.563 -2.953,24.281 -14.438,18.047 -1.64,-0.328 -23.625,-5.25 c 0,0 14.437,-7.547 16.734,-16.078 2.297,-8.203 -4.594,-35.438 -4.922,-37.078 0.328,0.328 6.891,5.906 9.844,15.093 5.25,-14.437 12.14,-28.218 14.109,-29.531 1.969,-1.312 28.547,-15.422 28.547,-15.422 l -8.859,23.297 6.562,-3.609 15.75,-38.719 c 0,0 15.422,-7.547 26.906,-7.547 20.672,-0.328 51.188,-25.594 37.407,-70.875 3.937,1.641 72.187,35.766 84,102.703 8.859,51.516 -20.344,99.75 -69.563,127.641 z"
       fill="#94a6c3"
       id="path1023" />
    <path
       d="m 252.793,183.304 c 7.547,-8.86 4.593,-21.985 4.593,-21.985 l -21.984,32.485 c -0.328,0 7.875,0.328 17.391,-10.5 z"
       fill="#1b314f"
       id="path1025" />
    <path
       d="m 178.964,360.82 2.625,-13.125 c 0,0 -10.828,19.031 -11.812,21.656 -0.984,2.954 0.656,8.204 4.922,7.875 4.265,-0.328 9.515,-6.562 9.515,-11.156 0,-5.906 -5.25,-5.25 -5.25,-5.25 z"
       fill="#1b314f"
       id="path1027" />
    <path
       d="m 373.871,152.132 c 0,0 16.406,0.657 33.468,2.625 -38.39,-30.187 -74.812,-39.047 -104.343,-39.047 -40.688,0 -68.25,16.735 -69.891,17.719 l 12.797,-20.344 c 0,0 -51.188,-4.921 -69.235,49.219 -4.593,-11.484 -8.859,-28.219 -8.859,-28.219 0,0 -26.578,23.297 -14.109,62.016 -30.516,-11.156 -74.1565,-26.578 -75.7971,-26.906 -2.2969,-0.328 -2.9531,0.656 -2.9531,0.656 0,0 -0.6563,0.984 1.3125,2.625 3.6093,2.953 72.5157,53.813 87.6097,63.656 -3.282,11.813 -3.282,17.391 0,22.969 4.593,7.547 4.921,11.484 4.265,17.063 -0.656,5.578 -6.562,53.812 -7.875,59.718 -1.312,5.907 -15.094,26.907 -14.437,33.141 0.656,6.234 9.187,32.812 16.734,35.766 5.578,1.968 19.36,6.234 28.547,6.234 3.281,0 6.234,-0.656 7.547,-1.969 5.578,-4.922 7.219,-5.906 11.156,-5.906 0.328,0 0.656,0 0.985,0 1.64,0 3.609,0.328 5.906,0.328 5.25,0 12.14,-0.984 17.062,-5.578 7.219,-7.219 19.688,-17.063 23.625,-21.656 4.922,-6.235 7.547,-14.766 6.235,-23.297 -0.985,-7.875 3.281,-14.766 8.203,-21.656 6.234,-8.204 17.718,-22.969 17.718,-22.969 22.641,17.062 36.75,42.984 36.75,71.859 0,51.188 -44.624,92.531 -99.749,92.531 -8.532,0 -16.735,-0.984 -24.938,-2.953 25.266,8.86 46.594,11.813 63.984,11.813 37.079,0 56.766,-13.453 56.766,-13.453 0,0 -6.891,8.859 -18.047,19.031 0.328,0 0.328,0 0.328,0 61.36,-8.531 91.219,-59.063 91.219,-59.063 0,0 -2.297,16.407 -5.25,27.563 81.703,-61.359 67.922,-138.141 67.594,-140.766 0.656,0.985 8.859,10.828 13.125,16.078 C 484.449,195.773 373.871,152.132 373.871,152.132 Z M 248.199,368.039 c -1.313,1.64 -6.891,6.562 -10.828,10.171 -3.938,3.61 -8.203,7.219 -11.485,10.5 -1.312,1.313 -3.937,1.969 -7.875,1.969 -1.312,0 -2.625,0 -3.609,0 -0.656,0 -1.313,0 -1.969,0 -0.656,0 -0.984,0 -1.312,0 -0.985,0 -1.969,0 -2.954,0 4.922,-6.562 19.36,-21.656 24.282,-24.937 5.906,-3.938 8.859,-7.875 5.25,-14.766 -3.61,-6.891 -13.125,-5.25 -13.125,-5.25 0,0 5.578,-2.297 10.5,-2.297 -6.235,-1.64 -14.11,0 -17.719,3.61 -3.937,3.609 -3.281,16.406 -4.922,24.609 -1.64,8.531 -7.219,12.797 -15.75,20.672 -4.594,4.265 -7.875,5.578 -10.5,5.578 -5.578,-0.984 -12.141,-2.625 -16.734,-4.266 -3.282,-4.265 -8.203,-18.375 -9.516,-24.281 0.984,-3.281 4.922,-10.172 6.891,-14.109 3.937,-7.547 6.234,-11.813 6.89,-15.75 1.313,-5.578 5.579,-40.032 7.219,-54.469 4.266,5.578 10.172,14.766 8.86,20.672 9.515,-13.453 2.625,-26.578 -0.657,-31.828 -2.953,-5.25 -6.89,-15.75 -3.609,-26.907 3.281,-11.156 15.094,-42 15.094,-42 0,0 3.937,6.891 9.515,5.579 5.578,-1.313 50.531,-68.907 50.531,-68.907 0,0 12.141,26.578 -0.656,45.938 -13.125,19.359 -25.922,22.969 -25.922,22.969 0,0 18.047,3.281 34.782,-8.86 6.89,16.078 13.453,32.813 13.781,35.11 -0.984,2.296 -14.11,33.796 -15.422,35.765 -0.656,0.656 -5.25,1.969 -8.531,2.625 -5.578,1.641 -8.86,2.625 -10.172,3.61 -2.297,1.968 -12.797,30.843 -17.719,44.953 -5.906,1.64 -11.812,4.922 -16.078,11.484 2.297,-1.641 9.516,-2.625 14.766,-3.281 4.593,-0.328 18.703,7.219 22.312,21.328 0,0.328 0,0.328 0,0.656 0.656,5.25 -0.984,10.172 -3.609,14.11 z m -30.844,3.937 c 2.953,-4.266 2.625,-11.484 2.953,-13.781 0.328,-2.297 0.985,-6.563 3.61,-7.219 2.625,-0.656 8.859,0.328 8.859,4.922 0,4.266 -4.594,5.25 -7.875,8.203 -2.297,2.297 -6.891,7.219 -7.547,7.875 z m 130.922,-62.672 c 3.281,-16.734 3.609,-31.172 2.625,-42.984 12.797,17.062 20.672,37.734 22.969,59.062 0.328,2.625 2.953,5.25 5.578,7.875 2.297,1.969 4.922,4.594 4.922,6.235 0,7.547 -0.657,15.093 -1.969,22.64 -0.328,0.985 -3.281,2.625 -5.578,3.938 -3.282,1.64 -6.235,3.281 -6.891,5.906 -7.219,25.266 -22.641,47.578 -43.312,63.328 30.515,-31.828 45.281,-84.328 21.656,-126 z m -20.672,128.953 c 21.328,-16.406 37.734,-39.375 44.953,-65.297 0.328,-0.984 3.281,-2.625 5.25,-3.937 3.281,-1.641 6.563,-3.609 7.219,-6.234 1.312,-7.547 1.969,-15.422 1.969,-23.297 0,-2.953 -2.953,-5.907 -5.907,-8.86 -1.64,-1.968 -4.265,-4.265 -4.265,-5.906 -2.625,-23.953 -12.141,-46.594 -26.906,-65.297 -6.563,-39.375 -32.813,-51.515 -33.469,-51.844 0.656,0.985 17.718,25.594 5.906,54.469 -12.141,29.203 -43.312,24.61 -45.937,24.938 -2.625,0 -12.797,13.125 -25.594,37.406 -1.641,-0.656 -8.531,-2.297 -16.407,-0.984 5.907,-16.407 14.766,-39.704 16.407,-41.672 0.656,-0.657 5.578,-1.969 8.859,-2.953 6.235,-1.641 9.188,-2.625 10.172,-3.938 0.656,-0.984 3.937,-8.531 7.219,-16.406 2.953,0 10.5,-0.656 11.156,-0.985 0.656,-0.656 6.891,-16.734 6.891,-18.703 0,-1.64 -12.797,-33.468 -17.719,-45.609 2.297,-2.625 4.594,-5.906 6.891,-9.516 67.265,7.219 119.765,64.313 119.765,133.547 0,53.156 -31.172,99.422 -76.453,121.078 z"
       fill="#1b314f"
       id="path1029" />
    <path
       d="m 240.324,261.07 c 6.234,-7.219 2.953,-20.672 -8.531,-22.969 2.953,-6.891 7.218,-20.672 7.218,-20.672 0,0 -33.468,52.5 -36.422,53.484 -2.953,0.985 -5.906,-10.5 -5.906,-10.5 -6.234,23.954 10.5,27.235 12.469,19.688 9.187,-2.297 24.937,-12.141 31.172,-19.031 z"
       fill="#1b314f"
       id="path1031" />
    <path
       d="m 211.777,273.867 17.062,-29.203 c 0,0 9.844,4.922 4.922,12.797 -6.234,9.187 -21.984,16.406 -21.984,16.406 z"
       fill="#ffd923"
       id="path1033" />
    <path
       d="m 422.761,409.054 c -4.922,6.563 -10.5,13.453 -17.062,20.016 42.328,-81.375 1.969,-155.86 0.328,-158.813 2.953,2.953 5.906,6.235 8.531,9.188 32.485,36.094 36.422,90.234 8.203,129.609 z"
       fill="#d82122"
       id="path1035" />
    <path
       d="m 462.136,304.382 c -14.765,-39.703 -35.765,-73.5 -82.031,-104.015 -44.625,-29.532 -92.531,-27.235 -95.156,-26.907 -0.328,0 -0.656,0 -0.656,0 1.64,-0.656 3.281,-0.984 4.921,-1.312 10.172,-3.281 23.297,-5.906 36.422,-7.547 34.782,-4.922 69.891,6.891 93.844,32.156 0.328,0.328 0.328,0.328 0.656,0.656 27.235,28.875 41.344,64.969 42,106.969 z"
       fill="#d82122"
       id="path1037" />
    <path
       d="m 369.605,141.961 c -48.891,-9.187 -80.391,-4.594 -103.031,3.938 -0.656,-2.625 -2.953,-7.875 -4.922,-12.141 -6.891,8.203 -14.109,18.047 -18.703,24.281 -12.469,8.532 -17.719,16.735 -17.719,16.735 7.219,-24.61 28.219,-42.985 53.813,-47.578 7.218,-1.313 15.093,-1.969 23.625,-1.969 22.64,0.328 45.281,5.906 66.937,16.734 z"
       fill="#d82122"
       id="path1039" />
    <path
       d="m 188.808,204.961 c -38.39,-1.312 -25.593,-45.937 -24.937,-48.562 0,0.328 2.625,35.109 24.937,48.562 z"
       fill="#d82122"
       id="path1041" />
    <path
       d="m 226.543,124.57 c -29.532,17.719 -23.625,60.047 -23.625,60.047 -28.219,-42.984 21.328,-59.063 23.625,-60.047 z"
       fill="#d82122"
       id="path1043" />
    <path
       d="m 177.98,216.773 c 1.969,1.641 3.938,4.594 1.641,8.859 -1.313,2.297 -3.281,1.969 -6.235,0.657 -3.937,-1.969 -27.562,-15.75 -48.89,-29.86 24.281,8.531 48.89,17.719 52.828,19.688 0,0 0.328,0.328 0.656,0.656 z"
       fill="#ffffff"
       id="path1045" />
  </g>
</svg>
