<?xml version="1.0" encoding="UTF-8" standalone="no"?>
<svg
   xmlns:dc="http://purl.org/dc/elements/1.1/"
   xmlns:cc="http://creativecommons.org/ns#"
   xmlns:rdf="http://www.w3.org/1999/02/22-rdf-syntax-ns#"
   xmlns:svg="http://www.w3.org/2000/svg"
   xmlns="http://www.w3.org/2000/svg"
   xmlns:sodipodi="http://sodipodi.sourceforge.net/DTD/sodipodi-0.dtd"
   xmlns:inkscape="http://www.inkscape.org/namespaces/inkscape"
   width="50"
   height="50"
   viewBox="0 0 50 50"
   fill="none"
   version="1.1"
   id="svg38"
   sodipodi:docname="snowswap.svg"
   inkscape:version="1.0.1 (3bc2e813f5, 2020-09-07)">
  <metadata
     id="metadata42">
    <rdf:RDF>
      <cc:Work
         rdf:about="">
        <dc:format>image/svg+xml</dc:format>
        <dc:type
           rdf:resource="http://purl.org/dc/dcmitype/StillImage" />
        <dc:title></dc:title>
      </cc:Work>
    </rdf:RDF>
  </metadata>
  <sodipodi:namedview
     pagecolor="#ffffff"
     bordercolor="#666666"
     borderopacity="1"
     objecttolerance="10"
     gridtolerance="10"
     guidetolerance="10"
     inkscape:pageopacity="0"
     inkscape:pageshadow="2"
     inkscape:window-width="2947"
     inkscape:window-height="1636"
     id="namedview40"
     showgrid="false"
     inkscape:zoom="7.827027"
     inkscape:cx="92.5"
     inkscape:cy="25"
     inkscape:window-x="0"
     inkscape:window-y="0"
     inkscape:window-maximized="0"
     inkscape:current-layer="svg38" />
  <path
     fill-rule="evenodd"
     clip-rule="evenodd"
     d="M 25,50 C 38.8071,50 50,38.8071 50,25 50,11.1929 38.8071,0 25,0 11.1929,0 0,11.1929 0,25 0,38.8071 11.1929,50 25,50 Z"
     fill="url(#paint0_linear)"
     id="path18" />
  <path
     d="m 40.0164,32.317 -2.9476,-1.7018 2.3244,-0.6229 c 0.5885,-0.1576 0.9377,-0.7624 0.78,-1.3508 -0.1577,-0.5883 -0.7624,-0.9376 -1.3509,-0.7798 l -2.6089,0.699 c -1.1822,0.3168 -2.4418,0.151 -3.5017,-0.4609 -1.0495,-0.6059 -1.696,-1.7257 -1.696,-2.9375 v -0.3245 c 0,-1.2118 0.6465,-2.3316 1.696,-2.9375 1.0599,-0.6119 2.3217,-0.7773 3.5036,-0.4596 2.9161,0.7839 2.7173,0.7356 2.8932,0.7356 0.4869,0 0.9326,-0.325 1.0647,-0.8178 0.1576,-0.5884 -0.1915,-1.1932 -0.78,-1.3508 l -2.3244,-0.6229 2.9476,-1.7018 c 0.5275,-0.3045 0.7082,-0.9791 0.4037,-1.5066 -0.3046,-0.5275 -0.9792,-0.7081 -1.5066,-0.4037 l -2.9478,1.7019 0.6229,-2.3247 c 0.1576,-0.5884 -0.1915,-1.1932 -0.7799,-1.3508 -0.5881,-0.1578 -1.1931,0.1915 -1.3508,0.7798 l -0.6991,2.609 c -0.3168,1.1822 -1.0902,2.1902 -2.1501,2.8021 -1.0494,0.6058 -2.3423,0.6058 -3.3917,0 L 27.9358,19.8277 C 26.8864,19.2218 26.24,18.1021 26.24,16.8904 c 0,-1.2239 0.4861,-2.3976 1.3515,-3.263 l 1.9099,-1.9099 c 0.4308,-0.4307 0.4308,-1.1291 0,-1.5598 -0.4307,-0.43073 -1.129,-0.43073 -1.5597,0 L 26.24,11.8594 V 8.45597 c 0,-0.6091 -0.4938,-1.10294 -1.103,-1.10294 -0.6091,0 -1.1029,0.49384 -1.1029,1.10294 v 3.40343 l -1.7018,-1.7017 c -0.4307,-0.43073 -1.129,-0.43073 -1.5597,0 -0.4308,0.4307 -0.4308,1.1291 0,1.5598 l 1.9099,1.9099 c 0.8654,0.8654 1.3516,2.0391 1.3516,3.263 0,1.2117 -0.6465,2.3314 -1.6958,2.9373 L 22.0571,19.99 c -1.0494,0.6059 -2.3423,0.6059 -3.3917,0 -1.0599,-0.6119 -1.8333,-1.6198 -2.1501,-2.802 l -0.6991,-2.609 c -0.1576,-0.5883 -0.7623,-0.9376 -1.3508,-0.7798 -0.5884,0.1576 -0.9376,0.7624 -0.7799,1.3508 l 0.6229,2.3246 -2.9478,-1.7017 c -0.5274,-0.3046 -1.2021,-0.1239 -1.50661,0.4037 -0.30455,0.5275 -0.1238,1.202 0.40371,1.5066 l 2.9476,1.7017 -2.3245,0.6229 c -0.5884,0.1577 -0.93761,0.7624 -0.7799,1.3509 0.1321,0.4927 0.5777,0.8177 1.0647,0.8177 0.1761,0 -0.0175,0.0469 2.8932,-0.7356 1.182,-0.3177 2.4437,-0.1522 3.5036,0.4597 1.0495,0.6059 1.696,1.7256 1.696,2.9374 v 0.3245 c 0,1.2119 -0.6465,2.3316 -1.696,2.9375 -1.0599,0.6119 -2.3195,0.7777 -3.5017,0.461 l -2.609,-0.6991 c -0.588,-0.1578 -1.1931,0.1915 -1.3508,0.7799 -0.15764,0.5884 0.1915,1.1931 0.7799,1.3508 l 2.3245,0.6229 -2.9476,1.7017 c -0.97351,0.5621 -0.5739,2.0583 0.5525,2.0583 0.3934,0 0.2497,0.0257 3.4982,-1.8497 l -0.6229,2.3246 c -0.1577,0.5884 0.1915,1.1932 0.7799,1.3508 0.5896,0.1582 1.1935,-0.193 1.3508,-0.7798 l 0.6991,-2.609 c 0.3168,-1.1822 1.0902,-2.1901 2.1501,-2.8021 1.0494,-0.6058 2.3423,-0.6058 3.3917,0 l 0.2811,0.1623 c 1.0494,0.6059 1.6959,1.7256 1.6959,2.9373 0,1.2239 -0.4862,2.3976 -1.3516,3.2629 l -1.9099,1.91 c -0.4307,0.4307 -0.4307,1.129 0,1.5597 0.4307,0.4308 1.1291,0.4308 1.5598,0 l 1.7017,-1.7017 v 3.4035 c 0,0.6091 0.4938,1.1029 1.1029,1.1029 0.6092,0 1.103,-0.4938 1.103,-1.1029 v -3.4035 l 1.7017,1.7017 c 0.2154,0.2154 0.4976,0.3231 0.7799,0.3231 0.9737,0 1.4768,-1.186 0.7798,-1.8828 L 27.5915,36.3728 C 26.7261,35.5074 26.24,34.3337 26.24,33.1098 c 0,-1.2117 0.6464,-2.3314 1.6958,-2.9373 l 0.2812,-0.1623 c 1.0494,-0.6059 2.3423,-0.6059 3.3917,-10e-5 1.0599,0.6119 1.8333,1.6199 2.1501,2.802 l 0.6991,2.6091 c 0.132,0.4927 0.5776,0.8177 1.0646,0.8177 0.7252,0 1.2537,-0.6884 1.0661,-1.3887 l -0.6229,-2.3246 2.9478,1.7018 c 0.524,0.3026 1.2002,0.1272 1.5066,-0.4036 0.3045,-0.5277 0.1238,-1.2023 -0.4037,-1.5068 z M 28.8098,25.0001 c 0,1.3121 -0.7,2.5248 -1.8363,3.1808 -1.1364,0.6562 -2.5365,0.6562 -3.6729,0 -1.1363,-0.656 -1.8364,-1.8686 -1.8364,-3.1808 0,-1.3121 0.7001,-2.5247 1.8364,-3.1808 1.1364,-0.6562 2.5365,-0.6562 3.6729,-10e-5 1.1363,0.6561 1.8363,1.8687 1.8363,3.1809 z"
     fill="#ffffff"
     id="path20" />
  <path
     fill-rule="evenodd"
     clip-rule="evenodd"
     d="M 25,50 C 38.8071,50 50,38.8071 50,25 50,11.1929 38.8071,0 25,0 11.1929,0 0,11.1929 0,25 0,38.8071 11.1929,50 25,50 Z"
     fill="url(#paint1_linear)"
     id="path22" />
  <path
     d="m 40.0164,32.317 -2.9476,-1.7018 2.3244,-0.6229 c 0.5885,-0.1576 0.9377,-0.7624 0.78,-1.3508 -0.1577,-0.5883 -0.7624,-0.9376 -1.3509,-0.7798 l -2.6089,0.699 c -1.1822,0.3168 -2.4418,0.151 -3.5017,-0.4609 -1.0495,-0.6059 -1.696,-1.7257 -1.696,-2.9375 v -0.3245 c 0,-1.2118 0.6465,-2.3316 1.696,-2.9375 1.0599,-0.6119 2.3217,-0.7773 3.5036,-0.4596 2.9161,0.7839 2.7173,0.7356 2.8932,0.7356 0.4869,0 0.9326,-0.325 1.0647,-0.8178 0.1576,-0.5884 -0.1915,-1.1932 -0.78,-1.3508 l -2.3244,-0.6229 2.9476,-1.7018 c 0.5275,-0.3045 0.7082,-0.9791 0.4037,-1.5066 -0.3046,-0.5275 -0.9792,-0.7081 -1.5066,-0.4037 l -2.9478,1.7019 0.6229,-2.3247 c 0.1576,-0.5884 -0.1915,-1.1932 -0.7799,-1.3508 -0.5881,-0.1578 -1.1931,0.1915 -1.3508,0.7798 l -0.6991,2.609 c -0.3168,1.1822 -1.0902,2.1902 -2.1501,2.8021 -1.0494,0.6058 -2.3423,0.6058 -3.3917,0 L 27.9358,19.8277 C 26.8864,19.2218 26.24,18.1021 26.24,16.8904 c 0,-1.2239 0.4861,-2.3976 1.3515,-3.263 l 1.9099,-1.9099 c 0.4308,-0.4307 0.4308,-1.1291 0,-1.5598 -0.4307,-0.43073 -1.129,-0.43073 -1.5597,0 L 26.24,11.8594 V 8.45597 c 0,-0.6091 -0.4938,-1.10294 -1.103,-1.10294 -0.6091,0 -1.1029,0.49384 -1.1029,1.10294 v 3.40343 l -1.7018,-1.7017 c -0.4307,-0.43073 -1.129,-0.43073 -1.5597,0 -0.4308,0.4307 -0.4308,1.1291 0,1.5598 l 1.9099,1.9099 c 0.8654,0.8654 1.3516,2.0391 1.3516,3.263 0,1.2117 -0.6465,2.3314 -1.6958,2.9373 L 22.0571,19.99 c -1.0494,0.6059 -2.3423,0.6059 -3.3917,0 -1.0599,-0.6119 -1.8333,-1.6198 -2.1501,-2.802 l -0.6991,-2.609 c -0.1576,-0.5883 -0.7623,-0.9376 -1.3508,-0.7798 -0.5884,0.1576 -0.9376,0.7624 -0.7799,1.3508 l 0.6229,2.3246 -2.9478,-1.7017 c -0.5274,-0.3046 -1.2021,-0.1239 -1.50661,0.4037 -0.30455,0.5275 -0.1238,1.202 0.40371,1.5066 l 2.9476,1.7017 -2.3245,0.6229 c -0.5884,0.1577 -0.93761,0.7624 -0.7799,1.3509 0.1321,0.4927 0.5777,0.8177 1.0647,0.8177 0.1761,0 -0.0175,0.0469 2.8932,-0.7356 1.182,-0.3177 2.4437,-0.1522 3.5036,0.4597 1.0495,0.6059 1.696,1.7256 1.696,2.9374 v 0.3245 c 0,1.2119 -0.6465,2.3316 -1.696,2.9375 -1.0599,0.6119 -2.3195,0.7777 -3.5017,0.461 l -2.609,-0.6991 c -0.588,-0.1578 -1.1931,0.1915 -1.3508,0.7799 -0.15764,0.5884 0.1915,1.1931 0.7799,1.3508 l 2.3245,0.6229 -2.9476,1.7017 c -0.97351,0.5621 -0.5739,2.0583 0.5525,2.0583 0.3934,0 0.2497,0.0257 3.4982,-1.8497 l -0.6229,2.3246 c -0.1577,0.5884 0.1915,1.1932 0.7799,1.3508 0.5896,0.1582 1.1935,-0.193 1.3508,-0.7798 l 0.6991,-2.609 c 0.3168,-1.1822 1.0902,-2.1901 2.1501,-2.8021 1.0494,-0.6058 2.3423,-0.6058 3.3917,0 l 0.2811,0.1623 c 1.0494,0.6059 1.6959,1.7256 1.6959,2.9373 0,1.2239 -0.4862,2.3976 -1.3516,3.2629 l -1.9099,1.91 c -0.4307,0.4307 -0.4307,1.129 0,1.5597 0.4307,0.4308 1.1291,0.4308 1.5598,0 l 1.7017,-1.7017 v 3.4035 c 0,0.6091 0.4938,1.1029 1.1029,1.1029 0.6092,0 1.103,-0.4938 1.103,-1.1029 v -3.4035 l 1.7017,1.7017 c 0.2154,0.2154 0.4976,0.3231 0.7799,0.3231 0.9737,0 1.4768,-1.186 0.7798,-1.8828 L 27.5915,36.3728 C 26.7261,35.5074 26.24,34.3337 26.24,33.1098 c 0,-1.2117 0.6464,-2.3314 1.6958,-2.9373 l 0.2812,-0.1623 c 1.0494,-0.6059 2.3423,-0.6059 3.3917,-10e-5 1.0599,0.6119 1.8333,1.6199 2.1501,2.802 l 0.6991,2.6091 c 0.132,0.4927 0.5776,0.8177 1.0646,0.8177 0.7252,0 1.2537,-0.6884 1.0661,-1.3887 l -0.6229,-2.3246 2.9478,1.7018 c 0.524,0.3026 1.2002,0.1272 1.5066,-0.4036 0.3045,-0.5277 0.1238,-1.2023 -0.4037,-1.5068 z M 28.8098,25.0001 c 0,1.3121 -0.7,2.5248 -1.8363,3.1808 -1.1364,0.6562 -2.5365,0.6562 -3.6729,0 -1.1363,-0.656 -1.8364,-1.8686 -1.8364,-3.1808 0,-1.3121 0.7001,-2.5247 1.8364,-3.1808 1.1364,-0.6562 2.5365,-0.6562 3.6729,-10e-5 1.1363,0.6561 1.8363,1.8687 1.8363,3.1809 z"
     fill="#ffffff"
     id="path24" />
  <defs
     id="defs36">
    <linearGradient
       id="paint0_linear"
       x1="44.7183"
       y1="-43.75"
       x2="-9.3680801"
       y2="-37.9916"
       gradientUnits="userSpaceOnUse">
      <stop
         stop-color="#1ADBC5"
         id="stop26" />
      <stop
         offset="1"
         stop-color="#04D3DD"
         id="stop28" />
    </linearGradient>
    <linearGradient
       id="paint1_linear"
       x1="44.7183"
       y1="-43.75"
       x2="-9.3680801"
       y2="-37.9916"
       gradientUnits="userSpaceOnUse">
      <stop
         stop-color="#1ADBC5"
         id="stop31" />
      <stop
         offset="1"
         stop-color="#04D3DD"
         id="stop33" />
    </linearGradient>
  </defs>
</svg>
