<svg xmlns="http://www.w3.org/2000/svg" viewBox="0 0 100 100" height="133.333" width="133.333"><path d="M50.133 86.641c-13.895 0-25.195-11.305-25.195-25.195S36.238 36.25 50.133 36.25s25.191 11.305 25.191 25.195-11.301 25.195-25.191 25.195zm41.039-54.055H8.832a3.25 3.25 0 0 0-3.246 3.246v51.699a3.25 3.25 0 0 0 3.246 3.246h82.34a3.25 3.25 0 0 0 3.242-3.246V35.832a3.25 3.25 0 0 0-3.242-3.246zM55.578 62.063c-1.23-.895-3.262-1.344-6.102-1.344a15.98 15.98 0 0 0-.617.02l-.598.02v7.621c0 1.813.234 2.922.703 3.336s1.383.617 2.73.617c1.859 0 3.277-.5 4.258-1.496s1.465-2.441 1.465-4.336c0-2.062-.613-3.543-1.84-4.437zm-5.637-3.219c2.352 0 4.012-.363 4.992-1.086s1.465-1.934 1.465-3.641c0-1.406-.414-2.516-1.242-3.324s-1.953-1.219-3.371-1.219-2.363.191-2.828.574-.695 1.449-.695 3.203v5.453c.199.012.422.023.66.027s.578.012 1.02.012zm13.883 10.973c-.488.938-1.203 1.738-2.145 2.406-.945.656-2.156 1.125-3.645 1.406-.949.18-2.219.293-3.742.359v4.824c0 .902-.68 1.633-1.523 1.633s-1.527-.73-1.527-1.633v-4.766h-3.055v4.766c0 .902-.684 1.633-1.527 1.633s-1.527-.73-1.527-1.633v-4.766h-6.945v-1.895l1.109-.09c.895-.059 1.508-.289 1.836-.687s.488-1.398.488-2.996V53.352c0-1.613-.164-2.617-.488-3.016s-.945-.629-1.852-.687l-1.094-.074v-1.914h6.945v-4.766c0-.898.684-1.629 1.527-1.629s1.527.73 1.527 1.629v4.766h1.719c.461 0 .898.008 1.336.02v-4.785c0-.898.684-1.629 1.527-1.629s1.523.73 1.523 1.629v4.934c2.609.211 4.594.633 5.926 1.273 2 .961 2.996 2.563 2.996 4.805 0 1.621-.684 2.922-2.047 3.906s-3.398 1.621-6.094 1.906c3.246.453 5.637 1.25 7.176 2.387s2.309 2.676 2.309 4.609c0 1.133-.246 2.168-.734 3.102zM50.133 38.414c-12.699 0-23.031 10.332-23.031 23.031s10.332 23.031 23.031 23.031S73.16 74.145 73.16 61.446 62.832 38.414 50.133 38.414" fill="#475e87"/><path d="M62.164 9.223c-7.801 0-14.637 4.113-18.477 10.285 5.188 2.063 9.445 5.977 11.961 10.918H83.91c-.305-11.762-9.914-21.203-21.746-21.203zM35.274 20.047c-7.652 0-14.332 4.184-17.91 10.379h35.824c-3.582-6.195-10.262-10.379-17.914-10.379" fill="#faba14"/></svg>
