<svg width="160" height="36" viewBox="0 0 160 36" fill="none" xmlns="http://www.w3.org/2000/svg">
<path d="M159.985 13.3535H155.916V29.1394H159.985V13.3535Z" fill="black"/>
<path d="M159.985 5.79736H155.916V10.0803H159.985V5.79736Z" fill="black"/>
<path d="M151.694 6.01172V9.71344H141.293V16.1685H150.164V19.8702H141.293V29.1398H137.071V6.01172H151.694Z" fill="black"/>
<path d="M125.721 19.5643L133.247 29.1398H128.321L122.998 22.3788L121.377 24.0614V29.1704H117.308V5.91992H121.377V18.9524L127.526 12.4974H132.452L125.721 19.5643Z" fill="black"/>
<path d="M112.413 24.6424L113.606 28.0688C111.77 29.1395 109.812 29.6596 107.64 29.6596C104.918 29.629 102.807 28.8336 101.369 27.2428C99.931 25.6519 99.1968 23.4187 99.1968 20.5735C99.1968 17.759 99.931 15.5869 101.369 13.9961C102.807 12.4053 104.918 11.6099 107.64 11.6099C108.619 11.6099 109.445 11.671 110.149 11.7934C110.853 11.9158 111.587 12.1299 112.321 12.4359V16.26C111.587 15.8928 110.853 15.6481 110.21 15.4951C109.537 15.3422 108.833 15.281 108.038 15.281C104.948 15.3116 103.419 17.0554 103.419 20.5429C103.419 24.1529 104.918 25.9579 107.946 25.9579C109.415 25.9579 110.883 25.5296 112.413 24.6424Z" fill="black"/>
<path d="M94.8834 16.015C95.5258 17.3917 95.8623 18.8908 95.8623 20.604C95.8623 22.3172 95.5258 23.8468 94.8834 25.2235C94.2409 26.6001 93.2314 27.6709 91.9465 28.4663C90.631 29.2617 89.0402 29.6594 87.2046 29.6594C85.3078 29.6594 83.717 29.2617 82.4015 28.4663C81.0861 27.6709 80.1071 26.6001 79.434 25.2235C78.761 23.8468 78.4551 22.3172 78.4551 20.604C78.4551 18.9214 78.7916 17.3917 79.434 16.015C80.1071 14.6384 81.0861 13.5676 82.4015 12.7722C83.717 11.9768 85.3078 11.5791 87.2046 11.5791C89.0708 11.5791 90.6616 11.9768 91.9465 12.7722C93.2314 13.5676 94.2409 14.6384 94.8834 16.015ZM91.6711 20.604C91.6711 18.9214 91.2734 17.5753 90.5086 16.5963C89.7438 15.6173 88.6425 15.1279 87.2046 15.1279C85.7361 15.1279 84.6348 15.6173 83.8394 16.5963C83.0746 17.5753 82.6769 18.8908 82.6769 20.604C82.6769 22.3172 83.0746 23.6326 83.8394 24.6116C84.6042 25.5906 85.7361 26.0801 87.2046 26.0801C88.6425 26.0801 89.7438 25.5906 90.5086 24.6116C91.2734 23.6326 91.6711 22.2866 91.6711 20.604Z" fill="black"/>
<path d="M75.7934 25.6827V29.2314C74.845 29.4456 73.9578 29.5679 73.193 29.5679C71.5104 29.5373 70.2867 29.2008 69.5219 28.4972C68.7571 27.7936 68.3594 26.7228 68.3594 25.2544V5.88916H72.4282V23.9083C72.4282 24.6425 72.5506 25.1626 72.7953 25.4379C73.0401 25.7133 73.4684 25.8662 74.1108 25.8662C74.7533 25.8662 75.3039 25.805 75.7934 25.6827Z" fill="black"/>
<path d="M62.5774 19.4113C63.3116 20.3291 63.6481 21.4305 63.6481 22.7765C63.6481 24.918 62.9751 26.5089 61.6596 27.5796C60.3441 28.6503 58.1109 29.1398 54.9904 29.1398H46.1797V6.01172H54.9904C57.8049 6.01172 59.7935 6.53179 60.9866 7.57195C62.1797 8.6121 62.7609 10.1417 62.7609 12.222C62.7609 13.4763 62.5162 14.5165 61.9961 15.3731C61.4761 16.2297 60.65 16.9027 59.5487 17.3922C60.8336 17.8205 61.8432 18.4936 62.5774 19.4113ZM58.3862 24.9486C59.0592 24.4285 59.3652 23.6025 59.3652 22.4706C59.3652 21.3387 58.998 20.5433 58.2638 20.0232C57.5296 19.5031 56.4283 19.2584 54.9904 19.2584H50.4015V25.7134H54.9904C56.5812 25.7134 57.7131 25.4687 58.3862 24.9486ZM58.4474 12.5586C58.4474 11.4266 58.172 10.6312 57.652 10.1417C57.1319 9.65225 56.2447 9.40751 54.9904 9.40751H50.4015V15.832H54.9904C57.2849 15.832 58.4474 14.7306 58.4474 12.5586Z" fill="black"/>
<path d="M33.3002 12.5277C36.1759 15.4034 36.1759 20.0535 33.3002 22.8987L22.9293 33.3002C20.0535 36.1759 15.4034 36.1759 12.5583 33.3002L2.15679 22.9293C-0.718929 20.0535 -0.718929 15.4034 2.15679 12.5583L12.5277 2.15679C15.4034 -0.718929 20.0535 -0.718929 22.9293 2.15679L33.3002 12.5277ZM25.5296 20.3289C26.9675 18.891 26.9675 16.566 25.5296 15.1281L20.3289 9.92734C18.891 8.48948 16.566 8.48948 15.1281 9.92734L9.92734 15.1281C8.48948 16.566 8.48948 18.891 9.92734 20.3289L15.1281 25.5296C16.566 26.9675 18.891 26.9675 20.3289 25.5296L25.5296 20.3289Z" fill="#004BEF"/>
</svg>
