<svg width="142" height="35" fill="none" xmlns="http://www.w3.org/2000/svg"><path class="nexo-logo-letter-o" d="M131.664 8a10.458 10.458 0 00-7.583 17.8 10.46 10.46 0 0011.412 2.33 10.453 10.453 0 006.487-9.674 10.452 10.452 0 00-10.316-10.455zm0 16.416a6.03 6.03 0 11-.648-12.042 6.03 6.03 0 01.648 12.042z" fill="#2853C3"/><path class="nexo-logo-letter-x" d="M117.434 8.145a.28.28 0 00-.385 0l-7.09 7.003-7.002-7.003a.28.28 0 00-.386 0l-2.853 2.959a.28.28 0 000 .385l7.002 7.002-7.107 7.108a.28.28 0 000 .385l2.801 2.784a.334.334 0 00.49 0l7.003-7.003 7.002 7.003a.28.28 0 00.385 0l2.854-2.836a.281.281 0 000-.385l-7.003-7.003 7.108-7.003a.282.282 0 000-.385l-2.819-3.01z" fill="#2853C3"/><path class="nexo-logo-letter-e" d="M97.951 17.335c-.434-5.193-4.76-9.29-10.055-9.335-1.51 0-2.987.319-4.355.957-3.75 1.753-5.848 5.473-5.848 9.54.206 5.517 4.921 10.048 10.445 10.048h5.797c.309 0 .566-.25.566-.567v-3.317a.567.567 0 00-.566-.566h-6.047c-2.53 0-4.678-1.883-5.45-4.156h14.829c.404 0 .728-.302.728-.67-.007-.463-.044-1.934-.044-1.934zm-4.766-1.067H82.46c.875-2.464 3.31-4.045 5.907-3.795 2.25.213 4.067 1.758 4.817 3.795z" fill="#2853C3"/><path class="nexo-logo-letter-n" d="M64.71 8.01a9.786 9.786 0 00-5.357 1.75V8.605a.35.35 0 00-.35-.35h-3.747a.35.35 0 00-.35.35v9.33a4.235 4.235 0 000 .473v9.524a.577.577 0 00.56.578h3.326a.56.56 0 00.56-.578V18.18a5.74 5.74 0 016.303-5.707 5.865 5.865 0 015.252 5.882v9.61a.561.561 0 00.56.578h3.309a.578.578 0 00.577-.577V18.18A10.206 10.206 0 0064.71 8.009z" fill="#2853C3"/><path class="nexo-logo-shape-6" d="M.05 6.147v21.927c.001.132.037.261.104.375.068.115.165.21.281.277l9.618 5.374V11.722L.05 6.147z" fill="#60BEFF"/><path class="nexo-logo-shape-5" d="M30.023.556l9.618 5.373a.774.774 0 01.28.277.743.743 0 01.104.375V28.51l-10.002-5.59V.555z" fill="#1A4199"/><path class="nexo-logo-shape-4" d="M10.036 34.1l10.002-5.59-10.002-5.591v11.18z" fill="#3CA9E5"/><path class="nexo-logo-shape-3" d="M10.421.774l19.603 10.964v11.18L.05 6.149 9.668.773a.755.755 0 01.753 0z" fill="#3CA9E5"/><path class="nexo-logo-shape-2" d="M30.024.556l-9.986 5.59 9.986 5.591V.556z" fill="#2853C3"/><path class="nexo-logo-shape-1" d="M40.025 28.509l-9.617 5.373a.839.839 0 01-.77 0L10.037 22.918V11.722l29.99 16.787z" fill="#2853C3"/></svg>