<svg xmlns="http://www.w3.org/2000/svg" viewBox="74.9 38.3 636.5 130.9">
  <g>
    <g>
      <path class="st0" d="M636,141.7h8V94h-8V141.7z" fill="#131E29"/>
      <rect x="636" y="79.7" class="st0" width="8" height="8" fill="#131E29"/>
      <path class="st0" d="M265.8,79.3c-8.7,0-18,3.4-18,11.8c0,7.4,8.5,9.6,18.6,11.3c13.7,2.2,27.2,4.9,27.2,20.4   c-0.1,15.4-14.8,20.4-27.9,20.4c-12.1,0-23.7-4.4-29-15.9l7.1-4.1c4.4,8.1,13.6,12,22,12c8.3,0,19.4-2.6,19.4-12.7   c0.1-8.5-9.5-11-19.8-12.5c-13.2-2.1-26.1-5.1-26.1-19c-0.2-14.3,14.4-19.2,26.2-19.2c10.2,0,19.9,2.1,26,12.4l-6.5,4   C281.4,82.1,273.5,79.4,265.8,79.3z" fill="#131E29"/>
      <path class="st0" d="M308.1,73.3v28.1c4.1-6.4,10.6-8.5,16.7-8.6c13.6,0,20.3,9,20.3,22.3v26.6h-7.9v-26.5   c0-9.5-4.9-14.9-13.7-14.9s-15.3,7-15.3,15.8v25.7h-8V73.2L308.1,73.3L308.1,73.3z" fill="#131E29"/>
      <path class="st0" d="M394.7,141.9l-0.2-8.8c-3.8,6.7-11.2,9.8-17.8,9.8c-13.9,0-24.8-9.6-24.8-25.4c0-15.7,11.1-25.1,24.9-25   c7.2,0,14.4,3.3,17.9,9.6l0.1-8.8h7.8v48.4h-7.7L394.7,141.9z M377.1,100.2c-9.6,0-17.3,6.9-17.3,17.6s7.7,17.7,17.3,17.7   C400.4,135.5,400.4,100.1,377.1,100.2L377.1,100.2z" fill="#131E29"/>
      <path class="st0" d="M410.1,93.5h7.6l0.4,9.3c3.8-6.5,11-10.2,18.6-10.2c13.9,0.3,24.1,10.1,24.1,25c0,15.3-10.1,25.2-24.6,25.2   c-6.9,0-14.5-2.9-18.3-9.8v31.5h-7.8V93.5z M452.8,117.8c0-10.9-7.2-17.3-17-17.3c-10.1,0-16.9,7.4-16.9,17.3s7.2,17.3,16.9,17.4   C445.4,135.2,452.8,128.7,452.8,117.8z" fill="#131E29"/>
      <path class="st0" d="M512.4,133.9c-4.9,5.8-13.3,8.6-20.9,8.6c-15,0-25.5-9.9-25.5-25.3c0-14.6,10.5-25.1,25.1-25.1   c14.8,0,26.1,9.1,24.2,28.4h-41.1c0.9,8.9,8.2,14.5,17.5,14.5c5.5,0,12.1-2.2,15.4-6.1L512.4,133.9L512.4,133.9z M507.7,114   c-0.4-9.4-6.9-14.5-16.4-14.5c-8.4,0-15.8,5.1-17.1,14.4L507.7,114L507.7,114z" fill="#131E29"/>
      <path class="st0" d="M548.9,79.3c-8.7,0-18,3.4-18,11.8c0,7.4,8.5,9.6,18.6,11.3c13.7,2.2,27.2,4.9,27.2,20.4   c-0.1,15.4-14.8,20.4-27.9,20.4c-12.1,0-23.7-4.4-29-15.9l7.1-4.1c4.4,8.1,13.6,12,22,12c8.3,0,19.4-2.6,19.4-12.7   c0.1-8.5-9.5-11-19.8-12.5c-13.2-2.1-26.1-5.1-26.1-19c-0.2-14.3,14.4-19.2,26.2-19.2c10.2,0,19.9,2.1,26,12.4l-6.5,4   C564.4,82.1,556.5,79.4,548.9,79.3z" fill="#131E29"/>
      <path class="st0" d="M591,73.2v28.1c4.1-6.4,10.6-8.5,16.7-8.6c13.6,0,20.3,9,20.3,22.3v26.6h-7.9v-26.5c0-9.5-4.9-14.9-13.7-14.9   c-8.8,0-15.3,7-15.3,15.8v25.7h-8V73.1L591,73.2L591,73.2z" fill="#131E29"/>
      <g>
        <polygon class="st0" points="659.4,141.9 659.4,141.8 659.3,141.8    " fill="#131E29"/>
        <path class="st0" d="M668.9,90.1c0-7.2,3.3-10.5,8.5-10.5c0.1,0,0.2,0,0.3,0l1.8-6.9c-0.8-0.1-1.5-0.2-2.3-0.2    C667,72.5,661,79,661,90.1v3.8h-9.5v7.1h9.5v40.7h7.9v-40.7h9.6v-7.1h-9.6V90.1z" fill="#131E29"/>
      </g>
      <path class="st0" d="M709.8,135c-0.6,0.1-1.3,0.2-1.9,0.2c-5.8,0-7.6-3.6-7.6-9.3v-24.9h10.3v-7h-10.2V79.2l-8,0.9v13.8h-9.7v7   h9.7v24.9c0,10.7,4.9,16.7,15.3,16.6c1.3,0,2.5-0.2,3.7-0.4L709.8,135z" fill="#131E29"/>
      <path class="st0" d="M194.6,38.5L153.2,55h-38.7L74.9,38.3l9,54.3L75.3,122l22.5,13.5c10.7,6.4,20.2,14.3,28.4,23.7l8.8,10   l9.2-10.6c7.9-9.1,17.1-16.8,27.3-23.1l22.1-13.5l-8-29.4L194.6,38.5z M167.2,130.2c-7.5,4.7-14.5,10.1-20.8,16.2l-7.7-8.4   L167.2,130.2z M130.8,138l-7.5,8.3c-6.4-6.1-13.4-11.4-20.9-16L130.8,138z M123.4,128.9l-39.8-10.8L89,99.5L123.4,128.9z    M108.4,59.8L89.5,84.5l-5.8-35.1L108.4,59.8z M173,96.3l-38.3,33.4l-39-33.4H173z M94.3,89.4l21.2-27.6h36.7l23.5,27.6H94.3z    M180.2,99l5.2,19.1l-39.5,10.9L180.2,99z M185.9,49.3l-5.8,34.8l-20.6-24.3L185.9,49.3z" fill="#131E29"/>
    </g>
  </g>
</svg>