<svg viewBox="0 0 120 40" xmlns="http://www.w3.org/2000/svg">
  <g fill-rule="evenodd">
    <path
      d="M47.0148 26.6153V25.043c-.9551 1.1029-2.6409 2.2067-4.7763 2.2067-2.9222 0-4.3827-1.5973-4.3827-4.4422v-9.6437c0-.1575.1238-.2854.2762-.2854h2.3972c.1529 0 .2762.1279.2762.2854v8.5116c0 2.1775 1.0682 2.8741 2.7535 2.8741 1.4892 0 2.7813-.9002 3.4559-1.8292v-9.5565c0-.1575.1238-.2854.2767-.2854h2.3971c.1525 0 .2762.1279.2762.2854v13.4516c0 .1576-.1237.286-.2762.286h-2.3971c-.153 0-.2767-.1284-.2767-.286zm9.4384-1.6592v7.0011c0 .1576-.1234.2855-.2763.2855h-2.3971c-.1525 0-.2763-.128-.2763-.2855V13.1637c0-.1575.1238-.2854.2763-.2854h2.3971c.1529 0 .2763.1279.2763.2854v1.631c1.0116-1.3938 2.5851-2.2647 4.3552-2.2647 3.5116 0 6.012 2.7289 6.012 7.3454 0 4.6156-2.5004 7.3742-6.012 7.3742-1.714 0-3.231-.813-4.3552-2.2935zm7.3327-5.0807c0 2.7289-1.517 4.674-3.8486 4.674-1.377 0-2.8374-.871-3.4841-1.9163v-5.545c.6745-1.045 2.1071-1.858 3.4841-1.858 2.3316 0 3.8486 1.916 3.8486 4.6453zm15.1654 7.0256c-.1525 0-.2767-.1279-.2767-.2859v-8.5403c0-2.2063-1.0673-2.845-2.7248-2.845-1.5174 0-2.8091.9295-3.4837 1.8585v9.5268c0 .158-.1238.286-.2762.286h-2.398c-.152 0-.2758-.128-.2758-.286V7.8216c0-.1575.1237-.2854.2758-.2854h2.398c.1524 0 .2762.1279.2762.2854v6.944c.899-1.1038 2.6409-2.2359 4.7759-2.2359 2.9222 0 4.3827 1.5676 4.3827 4.4422v9.6432c0 .158-.1238.286-.2758.286h-2.3976zm5.3974-7.0256c0-4.0359 2.6413-7.3454 6.9683-7.3454 4.3266 0 6.9675 3.3095 6.9675 7.3454 0 4.0057-2.6409 7.3742-6.9675 7.3742-4.327 0-6.9683-3.3685-6.9683-7.3742zm10.8735 0c0 2.4965-1.377 4.674-3.9052 4.674-2.5008 0-3.9055-2.1775-3.9055-4.674 0-2.4678 1.4047-4.6453 3.9055-4.6453 2.5282 0 3.9052 2.1775 3.9052 4.6453zm5.786 6.74V7.8217c0-.158.1238-.2854.2763-.2854h2.3972c.1529 0 .2766.1274.2766.2854v18.7935c0 .1576-.1237.286-.2766.286h-2.3972c-.1525 0-.2762-.1284-.2762-.286zm16.0417.0001v-1.6309c-1.0394 1.3937-2.5847 2.2647-4.3544 2.2647-3.4559 0-6.0128-2.729-6.0128-7.3738 0-4.5297 2.5282-7.3458 6.0128-7.3458 1.7136 0 3.2867.7842 4.3544 2.2939v-7.002c0-.1576.1238-.2855.2763-.2855h2.3971c.153 0 .2767.128.2767.2855v18.794c0 .1575-.1238.2854-.2767.2854h-2.3971c-.1525 0-.2763-.128-.2763-.2855zm0-3.953c-.6463 1.0444-2.1072 1.887-3.4841 1.887-2.3599 0-3.8486-1.9455-3.8486-4.674 0-2.7001 1.4887-4.6452 3.8486-4.6452 1.377 0 2.8378.8413 3.4841 1.8867v5.5454zM17.2921 36.8005c.681-.2075 1.3954.1934 1.5962.8967.2013.7032-.1876 1.4419-.8681 1.6499-1.4194.4333-2.843.6528-4.232.6528h-.1695c-1.398 0-2.831-.2217-4.259-.6612-.6801-.2085-1.0677-.948-.8655-1.6508.2025-.7028.9182-1.1025 1.598-.8945 1.1901.366 2.3765.551 3.5265.551h.1696c1.1418 0 2.3209-.1832 3.5038-.5439zM26.7008 9.776c1.2198 3.6703.7838 8.5957-1.1683 13.1839-2.6644 6.2602-7.499 10.609-11.7806 10.6094-.0206 0-.0407 0-.0608-.0004-.0206.0004-.0411.0004-.0613.0004-4.2816 0-9.1161-4.3487-11.7805-10.6094C-.103 18.3726-.5385 13.4472.6809 9.7769L.6783 9.776C2.4934 3.9287 7.7224 0 13.6898 0c5.952 0 11.1672 3.9088 12.9956 9.7309.0022.0075.0056.0146.0086.0221a.0984.0984 0 0 0 .003.0106c.0013.0045.003.008.0043.0124h-.0005zm-3.1286 12.293c-.8365 1.9646-1.9166 3.7274-3.1141 5.1781.8651-3.51.4484-8.0438-1.425-12.446-.979-2.301-2.2772-4.37-3.7835-6.0567 2.3573-1.9681 4.8119-2.6108 6.7092-1.7044 1.2155.5803 2.153 1.7686 2.711 3.4366 1.0575 3.1587.6472 7.4924-1.0976 11.5924zm-19.7626 0c-1.7445-4.0996-2.1548-8.4333-1.0978-11.5924.5585-1.668 1.496-2.8563 2.7111-3.4366 1.8978-.906 4.3523-.2633 6.7092 1.7044-1.5067 1.687-2.8044 3.7561-3.783 6.0566-1.8739 4.4023-2.2906 8.936-1.425 12.4466-1.198-1.4512-2.278-3.214-3.1145-5.1786zm11.6499 8.882c-.5448.2603-1.1401.3961-1.7684.4045-.6288-.0084-1.2237-.1442-1.7684-.4045-3.6525-1.7437-4.3913-8.7315-1.6134-15.2595.881-2.0708 2.0387-3.9292 3.3792-5.4335 1.3414 1.5048 2.502 3.361 3.3844 5.4335 2.7779 6.528 2.039 13.5158-1.6134 15.2595zm-1.7684 1.3955l.0008.0964-.0008.0974-.0013-.0974.0013-.0964zM20.4182 4.435c-2.1641-.0929-4.5227.8635-6.7267 2.7701-2.204-1.907-4.5634-2.8643-6.7284-2.7714 1.9097-1.411 4.2413-2.2208 6.7267-2.2208 2.4862 0 4.8187.8108 6.7284 2.2221z"
      fill="#49CC68"
    />
  </g>
</svg>