<?xml version="1.0" standalone="no"?>
<!DOCTYPE svg PUBLIC "-//W3C//DTD SVG 20010904//EN"
 "http://www.w3.org/TR/2001/REC-SVG-20010904/DTD/svg10.dtd">
<svg version="1.0" xmlns="http://www.w3.org/2000/svg"
 width="572.000000pt" height="572.000000pt" viewBox="0 0 572.000000 572.000000"
 preserveAspectRatio="xMidYMid meet">
<metadata>
Created by potrace 1.14, written by Peter Selinger 2001-2017
</metadata>
<g transform="translate(0.000000,572.000000) scale(0.100000,-0.100000)"
fill="#000000" stroke="none">
<path d="M60 5705 c0 -8 -5 -15 -11 -15 -19 0 -4 -110 22 -165 30 -64 82 -152
136 -233 24 -35 43 -67 43 -72 0 -4 4 -10 8 -12 4 -1 28 -32 52 -68 25 -36 47
-67 50 -70 3 -3 17 -21 30 -40 13 -19 27 -37 30 -40 3 -3 38 -50 79 -105 41
-55 77 -102 80 -105 3 -3 26 -32 51 -65 25 -33 80 -104 123 -158 42 -54 77
-101 77 -104 0 -4 -3 -4 -6 0 -13 12 -330 -144 -601 -296 l-103 -58 17 -32
c30 -59 82 -125 163 -205 56 -55 198 -172 209 -172 6 0 11 -4 11 -8 0 -4 15
-16 33 -27 17 -10 34 -22 37 -25 10 -13 216 -140 228 -140 7 0 12 -17 13 -42
1 -40 3 -75 8 -123 2 -11 11 5 23 38 11 32 21 57 23 55 2 -2 5 -54 6 -116 2
-88 19 -264 28 -279 2 -5 3 -8 5 -28 5 -43 30 -145 36 -145 4 0 7 24 9 53 1
28 6 56 10 60 4 4 8 2 8 -5 3 -101 66 -371 112 -473 l18 -40 -4 65 c-2 36 -6
73 -8 83 -8 39 15 13 30 -35 22 -68 85 -219 99 -237 5 -7 11 -18 12 -25 4 -30
148 -251 238 -366 50 -64 68 -85 120 -145 l26 -30 -29 85 c-17 46 -29 85 -28
86 1 2 23 -16 48 -39 60 -54 74 -65 134 -107 28 -19 52 -38 55 -41 6 -8 71
-46 161 -94 62 -34 68 -40 93 -98 14 -34 26 -68 26 -74 0 -7 5 -13 10 -13 6 0
10 -6 10 -13 0 -13 35 -99 114 -278 8 -19 35 -87 60 -150 l45 -114 -44 -7
c-53 -8 -102 -30 -139 -64 -28 -27 -29 -27 -194 -27 l-165 -1 -12 47 c-7 26
-12 50 -13 53 -4 32 -16 72 -24 82 -6 6 -7 12 -3 12 4 0 3 6 -3 12 -6 7 -11
18 -12 23 -2 15 -56 107 -77 130 -65 74 -167 98 -250 58 -87 -41 -164 -164
-199 -318 -9 -44 -21 -85 -25 -90 -4 -6 -31 -10 -61 -9 -47 0 -54 3 -60 25 -3
13 -16 60 -28 104 -43 161 -121 271 -210 295 -64 18 -79 18 -128 2 -106 -35
-192 -174 -232 -372 l-10 -55 -200 1 -200 1 2 -176 3 -176 198 1 c158 1 197
-2 198 -13 1 -7 2 -16 3 -20 1 -5 5 -26 10 -48 24 -128 73 -237 134 -299 46
-48 81 -65 142 -72 134 -15 260 126 301 336 6 30 12 62 14 70 2 8 4 22 4 30 1
13 14 16 61 16 l59 0 12 -56 c31 -156 75 -256 144 -327 62 -64 113 -81 194
-65 122 26 206 146 250 362 l18 85 171 1 c94 0 169 -3 166 -8 -13 -21 63 -108
95 -108 20 0 70 52 76 80 4 17 10 30 13 31 4 0 18 2 32 4 20 3 31 -5 60 -45
69 -97 147 -95 185 4 15 40 21 45 46 43 16 -1 29 -6 29 -10 0 -20 46 -67 71
-72 33 -8 74 16 94 54 l13 26 556 1 c306 0 560 -2 564 -5 4 -3 14 -37 21 -76
30 -157 99 -284 183 -341 37 -24 53 -29 108 -28 68 0 104 13 150 56 51 47 105
146 126 233 7 28 34 151 34 156 0 3 84 5 188 5 l187 -1 8 -40 c47 -225 116
-349 219 -395 50 -22 128 -21 176 4 86 45 160 172 194 334 l21 99 51 -1 51 -1
3 176 2 177 -55 -2 c-59 -1 -56 -5 -70 75 -11 61 -48 163 -77 212 -36 63 -62
92 -105 118 -29 18 -45 23 -103 34 -26 4 -100 -22 -135 -49 -47 -36 -91 -102
-121 -183 -29 -76 -36 -103 -48 -181 -1 -8 -7 -17 -13 -20 -9 -6 -267 -7 -366
-3 -17 1 -17 3 -1 33 37 72 18 225 -41 331 -28 49 -60 79 -110 103 -16 8 -45
25 -64 39 -39 29 -78 31 -136 9 -29 -12 -84 -17 -200 -18 -149 -3 -357 -14
-398 -22 -10 -1 -48 -6 -85 -9 -37 -3 -92 -9 -122 -13 -101 -14 -102 -13 -106
41 -5 56 -12 51 116 73 47 8 65 12 65 14 0 1 8 3 17 5 9 2 33 8 53 15 53 18
54 6 1 -31 -25 -18 -45 -34 -43 -35 1 -1 25 2 52 7 28 5 68 12 89 15 21 2 44
8 50 11 5 4 21 8 34 9 28 3 202 59 251 81 20 8 59 26 87 39 28 13 56 24 62 24
6 0 12 4 14 8 2 4 26 21 53 36 28 16 67 43 89 59 21 17 66 48 99 70 90 58 212
185 252 260 11 21 24 41 28 44 5 3 1 -9 -8 -27 -23 -44 -14 -46 24 -8 44 46
50 53 113 138 63 85 82 104 120 119 24 9 28 7 34 -12 4 -12 40 -90 80 -172 41
-83 74 -155 74 -161 0 -5 13 -25 29 -44 24 -29 33 -33 47 -24 36 22 57 137 58
326 l1 97 35 -5 c19 -4 43 -10 53 -15 24 -13 21 3 -5 25 l-22 19 25 18 c13 11
29 23 36 29 7 5 16 10 21 10 11 0 72 30 72 35 0 4 -19 0 -62 -11 -37 -9 -74
-15 -60 -8 6 3 12 12 12 20 0 8 6 14 13 14 6 1 21 8 32 18 22 19 85 97 85 105
0 3 16 33 34 66 19 34 32 61 29 61 -3 0 -1 6 4 13 19 23 60 167 48 167 -2 0
-11 -13 -20 -30 -26 -51 -32 -33 -14 40 39 152 54 376 34 501 -4 24 -7 51 -7
59 -1 32 -40 182 -63 245 -81 213 -233 417 -413 552 -42 31 -78 61 -80 65 -2
4 -8 8 -13 8 -5 0 -32 15 -61 34 -29 18 -97 54 -152 80 -102 49 -316 130 -316
119 0 -3 -6 -1 -12 4 -11 9 -145 44 -219 58 -13 3 -35 7 -49 10 -54 12 -77 16
-115 20 -22 3 -51 7 -65 10 -36 6 -95 14 -170 21 -36 3 -83 8 -105 10 -22 2
-158 6 -303 9 -226 4 -269 7 -305 23 -92 40 -125 53 -192 74 -38 12 -74 22
-80 24 -5 1 -30 7 -55 14 -25 7 -56 14 -70 16 -14 3 -31 7 -38 9 -7 2 -34 7
-60 11 -26 3 -50 8 -53 10 -3 1 -46 7 -95 11 -160 14 -483 7 -595 -12 -13 -2
-64 -11 -114 -19 -49 -8 -101 -17 -115 -21 -14 -3 -36 -7 -50 -10 -14 -3 -58
-14 -98 -24 l-73 -19 -36 56 c-19 31 -43 68 -52 82 -8 14 -20 33 -26 43 -28
50 -271 413 -302 452 -5 6 -38 49 -75 96 -120 155 -236 238 -338 244 -115 7
-171 -90 -134 -230 l7 -30 -49 40 c-27 22 -63 52 -79 67 -79 70 -185 150 -231
173 -58 28 -104 33 -104 10z m785 -2034 c3 -5 2 -12 -3 -15 -5 -3 -9 1 -9 9 0
17 3 19 12 6z m1402 -2153 c15 -6 30 -12 33 -13 3 -1 48 -15 100 -32 93 -31
186 -56 245 -68 37 -7 178 -32 225 -40 35 -5 182 -15 275 -18 54 -2 51 2 68
-102 3 -16 11 -55 17 -85 7 -30 12 -61 13 -68 0 -15 49 -10 252 25 50 8 100
17 112 18 12 2 34 6 50 9 29 6 60 11 128 21 23 3 51 7 64 10 26 5 158 18 181
18 41 0 42 -3 15 -38 -50 -66 -97 -183 -98 -244 -1 -31 1 -67 5 -81 l7 -25
-624 1 c-496 0 -627 3 -639 13 -9 8 -16 10 -16 6 0 -5 -8 -1 -17 7 -21 17 -89
47 -121 53 -37 7 -43 14 -89 114 -62 134 -83 183 -87 201 -1 3 -14 31 -29 64
-15 32 -27 64 -27 70 0 7 -4 16 -8 22 -9 9 -72 159 -72 169 0 7 5 6 37 -7z"/>
</g>
</svg>
