<svg xmlns="http://www.w3.org/2000/svg" width="762.667" height="762.667" viewBox="0 0 572 572" preserveAspectRatio="xMidYMid meet"><path d="M6 1.5C6 2.3 5.5 3 4.9 3 3 3 4.5 14 7.1 19.5c3 6.4 8.2 15.2 13.6 23.3 2.4 3.5 4.3 6.7 4.3 7.2 0 .4.4 1 .8 1.2.4.1 2.8 3.2 5.2 6.8l5 7c.3.3 1.7 2.1 3 4s2.7 3.7 3 4 3.8 5 7.9 10.5l8 10.5c.3.3 2.6 3.2 5.1 6.5l12.3 15.8c4.2 5.4 7.7 10.1 7.7 10.4 0 .4-.3.4-.6 0-1.3-1.2-33 14.4-60.1 29.6L12 162.1l1.7 3.2c3 5.9 8.2 12.5 16.3 20.5 5.6 5.5 19.8 17.2 20.9 17.2.6 0 1.1.4 1.1.8s1.5 1.6 3.3 2.7c1.7 1 3.4 2.2 3.7 2.5 1 1.3 21.6 14 22.8 14 .7 0 1.2 1.7 1.3 4.2.1 4 .3 7.5.8 12.3.2 1.1 1.1-.5 2.3-3.8 1.1-3.2 2.1-5.7 2.3-5.5s.5 5.4.6 11.6c.2 8.8 1.9 26.4 2.8 27.9.2.5.3.8.5 2.8.5 4.3 3 14.5 3.6 14.5.4 0 .7-2.4.9-5.3.1-2.8.6-5.6 1-6s.8-.2.8.5c.3 10.1 6.6 37.1 11.2 47.3l1.8 4-.4-6.5c-.2-3.6-.6-7.3-.8-8.3-.8-3.9 1.5-1.3 3 3.5 2.2 6.8 8.5 21.9 9.9 23.7.5.7 1.1 1.8 1.2 2.5.4 3 14.8 25.1 23.8 36.6 5 6.4 6.8 8.5 12 14.5l2.6 3-2.9-8.5c-1.7-4.6-2.9-8.5-2.8-8.6.1-.2 2.3 1.6 4.8 3.9 6 5.4 7.4 6.5 13.4 10.7 2.8 1.9 5.2 3.8 5.5 4.1.6.8 7.1 4.6 16.1 9.4 6.2 3.4 6.8 4 9.3 9.8 1.4 3.4 2.6 6.8 2.6 7.4 0 .7.5 1.3 1 1.3.6 0 1 .6 1 1.3 0 1.3 3.5 9.9 11.4 27.8.8 1.9 3.5 8.7 6 15l4.5 11.4-4.4.7c-5.3.8-10.2 3-13.9 6.4-2.8 2.7-2.9 2.7-19.4 2.7l-16.5.1-1.2-4.7c-.7-2.6-1.2-5-1.3-5.3-.4-3.2-1.6-7.2-2.4-8.2-.6-.6-.7-1.2-.3-1.2s.3-.6-.3-1.2c-.6-.7-1.1-1.8-1.2-2.3-.2-1.5-5.6-10.7-7.7-13-6.5-7.4-16.7-9.8-25-5.8-8.7 4.1-16.4 16.4-19.9 31.8-.9 4.4-2.1 8.5-2.5 9-.4.6-3.1 1-6.1.9-4.7 0-5.4-.3-6-2.5-.3-1.3-1.6-6-2.8-10.4-4.3-16.1-12.1-27.1-21-29.5-6.4-1.8-7.9-1.8-12.8-.2C57.6 452.3 49 466.2 45 486l-1 5.5-20-.1-20-.1.2 17.6.3 17.6 19.8-.1c15.8-.1 19.7.2 19.8 1.3.1.7.2 1.6.3 2 .1.5.5 2.6 1 4.8 2.4 12.8 7.3 23.7 13.4 29.9 4.6 4.8 8.1 6.5 14.2 7.2 13.4 1.5 26-12.6 30.1-33.6l1.4-7c.2-.8.4-2.2.4-3 .1-1.3 1.4-1.6 6.1-1.6h5.9l1.2 5.6c3.1 15.6 7.5 25.6 14.4 32.7 6.2 6.4 11.3 8.1 19.4 6.5 12.2-2.6 20.6-14.6 25-36.2l1.8-8.5 17.1-.1c9.4 0 16.9.3 16.6.8-1.3 2.1 6.3 10.8 9.5 10.8 2 0 7-5.2 7.6-8 .4-1.7 1-3 1.3-3.1.4 0 1.8-.2 3.2-.4 2-.3 3.1.5 6 4.5 6.9 9.7 14.7 9.5 18.5-.4 1.5-4 2.1-4.5 4.6-4.3 1.6.1 2.9.6 2.9 1 0 2 4.6 6.7 7.1 7.2 3.3.8 7.4-1.6 9.4-5.4l1.3-2.6 55.6-.1 56.4.5c.4.3 1.4 3.7 2.1 7.6 3 15.7 9.9 28.4 18.3 34.1 3.7 2.4 5.3 2.9 10.8 2.8 6.8 0 10.4-1.3 15-5.6 5.1-4.7 10.5-14.6 12.6-23.3.7-2.8 3.4-15.1 3.4-15.6 0-.3 8.4-.5 18.8-.5l18.7.1.8 4c4.7 22.5 11.6 34.9 21.9 39.5 5 2.2 12.8 2.1 17.6-.4 8.6-4.5 16-17.2 19.4-33.4l2.1-9.9 5.1.1 5.1.1.3-17.6.2-17.7-5.5.2c-5.9.1-5.6.5-7-7.5-1.1-6.1-4.8-16.3-7.7-21.2-3.6-6.3-6.2-9.2-10.5-11.8-2.9-1.8-4.5-2.3-10.3-3.4-2.6-.4-10 2.2-13.5 4.9-4.7 3.6-9.1 10.2-12.1 18.3-2.9 7.6-3.6 10.3-4.8 18.1-.1.8-.7 1.7-1.3 2-.9.6-26.7.7-36.6.3-1.7-.1-1.7-.3-.1-3.3 3.7-7.2 1.8-22.5-4.1-33.1-2.8-4.9-6-7.9-11-10.3-1.6-.8-4.5-2.5-6.4-3.9-3.9-2.9-7.8-3.1-13.6-.9-2.9 1.2-8.4 1.7-20 1.8-14.9.3-35.7 1.4-39.8 2.2-1 .1-4.8.6-8.5.9a288.55 288.55 0 0 0-12.2 1.3c-10.1 1.4-10.2 1.3-10.6-4.1-.5-5.6-1.2-5.1 11.6-7.3 4.7-.8 6.5-1.2 6.5-1.4 0-.1.8-.3 1.7-.5a54.27 54.27 0 0 0 5.3-1.5c5.3-1.8 5.4-.6.1 3.1-2.5 1.8-4.5 3.4-4.3 3.5.1.1 2.5-.2 5.2-.7l8.9-1.5c2.1-.2 4.4-.8 5-1.1.5-.4 2.1-.8 3.4-.9 2.8-.3 20.2-5.9 25.1-8.1 2-.8 5.9-2.6 8.7-3.9s5.6-2.4 6.2-2.4 1.2-.4 1.4-.8 2.6-2.1 5.3-3.6c2.8-1.6 6.7-4.3 8.9-5.9 2.1-1.7 6.6-4.8 9.9-7 9-5.8 21.2-18.5 25.2-26 1.1-2.1 2.4-4.1 2.8-4.4.5-.3.1.9-.8 2.7-2.3 4.4-1.4 4.6 2.4.8 4.4-4.6 5-5.3 11.3-13.8s8.2-10.4 12-11.9c2.4-.9 2.8-.7 3.4 1.2.4 1.2 4 9 8 17.2 4.1 8.3 7.4 15.5 7.4 16.1 0 .5 1.3 2.5 2.9 4.4 2.4 2.9 3.3 3.3 4.7 2.4 3.6-2.2 5.7-13.7 5.8-32.6l.1-9.7 3.5.5c1.9.4 4.3 1 5.3 1.5 2.4 1.3 2.1-.3-.5-2.5l-2.2-1.9 2.5-1.8c1.3-1.1 2.9-2.3 3.6-2.9.7-.5 1.6-1 2.1-1 1.1 0 7.2-3 7.2-3.5 0-.4-1.9 0-6.2 1.1-3.7.9-7.4 1.5-6 .8.6-.3 1.2-1.2 1.2-2s.6-1.4 1.3-1.4c.6-.1 2.1-.8 3.2-1.8 2.2-1.9 8.5-9.7 8.5-10.5 0-.3 1.6-3.3 3.4-6.6 1.9-3.4 3.2-6.1 2.9-6.1s-.1-.6.4-1.3c1.9-2.3 6-16.7 4.8-16.7-.2 0-1.1 1.3-2 3-2.6 5.1-3.2 3.3-1.4-4 3.9-15.2 5.4-37.6 3.4-50.1-.4-2.4-.7-5.1-.7-5.9-.1-3.2-4-18.2-6.3-24.5-8.1-21.3-23.3-41.7-41.3-55.2-4.2-3.1-7.8-6.1-8-6.5s-.8-.8-1.3-.8-3.2-1.5-6.1-3.4c-2.9-1.8-9.7-5.4-15.2-8-10.2-4.9-31.6-13-31.6-11.9 0 .3-.6.1-1.2-.4-1.1-.9-14.5-4.4-21.9-5.8-1.3-.3-3.5-.7-4.9-1-5.4-1.2-7.7-1.6-11.5-2-2.2-.3-5.1-.7-6.5-1-3.6-.6-9.5-1.4-17-2.1l-10.5-1c-2.2-.2-15.8-.6-30.3-.9-22.6-.4-26.9-.7-30.5-2.3-9.2-4-12.5-5.3-19.2-7.4l-8-2.4c-.5-.1-3-.7-5.5-1.4s-5.6-1.4-7-1.6c-1.4-.3-3.1-.7-3.8-.9s-3.4-.7-6-1.1c-2.6-.3-5-.8-5.3-1-.3-.1-4.6-.7-9.5-1.1-16-1.4-48.3-.7-59.5 1.2l-11.4 1.9c-4.9.8-10.1 1.7-11.5 2.1l-5 1c-1.4.3-5.8 1.4-9.8 2.4l-7.3 1.9-3.6-5.6c-1.9-3.1-4.3-6.8-5.2-8.2-.8-1.4-2-3.3-2.6-4.3-2.8-5-27.1-41.3-30.2-45.2-.5-.6-3.8-4.9-7.5-9.6C86.8 13.4 75.2 5.1 65 4.5c-11.5-.7-17.1 9-13.4 23l.7 3-4.9-4c-2.7-2.2-6.3-5.2-7.9-6.7-7.9-7-18.5-15-23.1-17.3C10.6-.3 6-.8 6 1.5zm78.5 203.4c.3.5.2 1.2-.3 1.5s-.9-.1-.9-.9c0-1.7.3-1.9 1.2-.6zm140.2 215.3l3.3 1.3 10 3.2c9.3 3.1 18.6 5.6 24.5 6.8l22.5 4c3.5.5 18.2 1.5 27.5 1.8 5.4.2 5.1-.2 6.8 10.2l1.7 8.5a94.81 94.81 0 0 1 1.3 6.8c0 1.5 4.9 1 25.2-2.5l11.2-1.8 5-.9c2.9-.6 6-1.1 12.8-2.1 2.3-.3 5.1-.7 6.4-1 2.6-.5 15.8-1.8 18.1-1.8 4.1 0 4.2.3 1.5 3.8-5 6.6-9.7 18.3-9.8 24.4-.1 3.1.1 6.7.5 8.1l.7 2.5-62.4-.1c-49.6 0-62.7-.3-63.9-1.3-.9-.8-1.6-1-1.6-.6 0 .5-.8.1-1.7-.7-2.1-1.7-8.9-4.7-12.1-5.3-3.7-.7-4.3-1.4-8.9-11.4-6.2-13.4-8.3-18.3-8.7-20.1-.1-.3-1.4-3.1-2.9-6.4-1.5-3.2-2.7-6.4-2.7-7 0-.7-.4-1.6-.8-2.2-.9-.9-7.2-15.9-7.2-16.9 0-.7.5-.6 3.7.7z"/></svg>
