<svg xmlns="http://www.w3.org/2000/svg" width="550" height="550" fill-rule="evenodd"><path fill="#8dc740" d="M274.929 68.151c114.596.037 206.793 92.607 206.842 207.426.049 113.688-93.373 207.172-208.775 206.266-111.237-.873-205.158-93.158-204.765-206.861.395-114.323 92.602-206.867 206.698-206.831zM117.994 383.338c-.07 1.994.976 3.453 2.098 5.004 8.332 11.516 17.354 22.396 28.363 31.494 4.994 4.127 9.623 8.715 15.072 12.27 15.137 9.869 30.709 18.82 47.885 24.869 14.049 4.947 28.389 8.744 43.129 10.104 11.405 1.051 23.025 1.641 34.473.096 6.742-.908 13.756-.838 20.099-3.926 1.06.807 1.616-.455 2.437-.592 13.638-2.27 26.665-6.508 39.289-12.08 42.104-18.582 73.971-48.232 94.771-89.227 18.307-36.08 24.434-74.385 18.459-114.551-5.68-38.185-21.395-71.707-47.354-100.122-35.267-38.603-79.426-59.351-131.544-62.66-23.404-1.485-46.428 1.656-68.767 8.96-36.085 11.798-66.188 32.38-90.091 61.926-27.395 33.861-41.057 72.79-42.531 116.128-.361 10.633.652 21.214 2.139 31.762 3.438 24.402 11.483 47.17 23.93 68.396 2.463 4.206 4.512 8.716 8.143 12.149z"/><path fill="#8bc43f" d="M309.113 463.246c-6.344 3.09-13.357 3.02-20.1 3.928-11.447 1.545-23.067.955-34.473-.096-14.74-1.359-29.08-5.156-43.129-10.104-17.176-6.049-32.748-15-47.885-24.869-5.449-3.555-10.078-8.143-15.072-12.27-11.009-9.098-20.031-19.979-28.363-31.494-1.122-1.551-2.168-3.01-2.098-5.002 13.131-29.129 17.83-60.168 20.695-91.609 1.324-14.535 1.829-29.153 4.135-43.586 2.701-16.911 9.011-32.156 21.16-44.648 10.99-11.299 24.364-18.83 38.846-24.48 12.121-4.729 24.355-9.149 37.607-9.777 12.195-.578 24.095 1.34 35.992 3.531 18.082 4.365 35.822 9.723 52.521 18.101 13.637 5.639 27.362 11.049 41.541 15.186 14.729 4.297 29.21 9.08 41.691 18.45 15.708 11.792 20.132 27.188 12.707 45.357-4.564 11.175-12.369 20.052-20.791 28.485-14.848 14.872-30.498 28.943-44.276 44.885-16.157 18.693-30.896 38.322-40.927 61.078-8.277 18.78-13.016 38.214-9.781 58.934zm104.386-178.205c-.678-.033-1.226.197-1.604.781-.654.141-1.258.348-1.303 1.159-.005.091.157.263.254.272.801.082 1.125-.442 1.333-1.1l1.47-.963c.217-.156.766-.182.246-.627l-.396.478zm-165.558-94.132c-20.459-.018-37.074 16.554-37.078 36.982-.005 20.4 16.648 37.083 37.027 37.095 20.402.012 37.047-16.634 37.051-37.052.002-20.488-16.504-37.006-37-37.025zm30.262 113.937c2.987 4.646 9.389 9.008 16.299 11.496 13.896 5.006 28.079 5.055 42.389 2.361 24.809-4.669 47.941-13.605 69.092-27.473 1.262-.828 3.111-1.328 3.521-3.215-1.018-.512-1.565-.011-2.097.311-7.059 4.283-14.499 7.807-22.094 11.006-19.719 8.309-40.197 13.566-61.625 14.471-15.788.667-31.323-.535-45.485-8.957zm102.232-31.884c4.382-.096 8.082-4.007 7.93-8.384-.154-4.459-3.993-8.016-8.453-7.831-4.257.177-7.75 3.866-7.71 8.146.042 4.431 3.851 8.164 8.233 8.069z"/><path fill="#f8e888" d="M276.429 172.77c-11.897-2.191-23.797-4.109-35.992-3.531-13.252.628-25.486 5.047-37.607 9.777-14.481 5.65-27.855 13.182-38.846 24.48-12.149 12.492-18.459 27.737-21.16 44.648-2.306 14.433-2.811 29.051-4.135 43.586-2.865 31.441-7.564 62.48-20.695 91.609-3.631-3.436-5.68-7.945-8.145-12.15-12.446-21.227-20.491-43.994-23.93-68.396-1.486-10.548-2.5-21.129-2.139-31.762 1.475-43.338 15.137-82.267 42.531-116.128 23.902-29.546 54.006-50.128 90.091-61.926 22.339-7.304 45.362-10.445 68.767-8.96 52.118 3.309 96.277 24.058 131.544 62.66 25.96 28.415 41.675 61.937 47.354 100.122 5.975 40.166-.152 78.471-18.459 114.551-20.801 40.994-52.668 70.645-94.771 89.227-12.624 5.572-25.651 9.811-39.289 12.08-.82.137-1.377 1.398-2.436.592-3.234-20.723 1.504-40.156 9.783-58.936 10.031-22.756 24.77-42.385 40.927-61.078 13.778-15.941 29.429-30.013 44.276-44.885 8.422-8.434 16.227-17.311 20.791-28.485 7.425-18.169 3.001-33.565-12.707-45.357-12.481-9.37-26.963-14.153-41.691-18.45-14.179-4.137-27.904-9.547-41.541-15.186-2.874-9.196-9.221-15.101-18.049-18.292-11.452-4.141-22.999-3.225-34.472.19zm176.854 114.994l1.039.063c2.05-7.707 2.188-15.711 2.094-23.553-.11-9.244-1.026-18.515-2.875-27.66-6.027-29.834-19.553-55.768-40.492-77.765-12.859-13.509-27.68-24.829-42.037-36.661-12.869-10.605-26.803-19.098-43.104-23.336-15.432-4.012-30.968-6.053-46.847-3.089-.84.157-2.219-.175-2.126 1.144.071 1.016 1.316 1.097 2.249 1.257 23.811 4.073 46.447 11.893 68.907 20.627 21.843 8.495 39.995 21.253 53.349 40.648 9.363 13.602 17.981 27.617 24.631 42.777 8.986 20.486 16.226 41.541 20.727 63.491l4.485 22.057z"/><path fill="#fbfcfa" d="M247.941 190.909c20.496.02 37.002 16.537 37 37.025-.004 20.418-16.648 37.063-37.051 37.052-20.379-.012-37.032-16.694-37.027-37.095.004-20.429 16.619-37 37.078-36.982zm25.953 37.264c-.031-14.479-11.732-26.122-26.148-26.021-14.257.1-25.807 11.701-25.84 25.951-.033 14.568 11.441 26.109 25.973 26.124 14.562.016 26.048-11.486 26.015-26.054z"/><path fill="#5a5d5a" d="M278.203 304.846c14.162 8.422 29.697 9.624 45.484 8.957 21.428-.904 41.906-6.162 61.625-14.471 7.595-3.199 15.035-6.723 22.094-11.006.531-.321 1.079-.822 2.097-.311-.409 1.887-2.259 2.387-3.521 3.215-21.15 13.867-44.283 22.804-69.092 27.473-14.31 2.693-28.493 2.645-42.389-2.361-6.91-2.488-13.311-6.849-16.298-11.496z"/><path fill="#069446" d="M276.429 172.77c11.473-3.415 23.02-4.331 34.473-.19 8.828 3.19 15.175 9.095 18.049 18.292-16.7-8.378-34.44-13.736-52.522-18.102z"/><path fill="#fbfcfa" d="M380.435 272.962c-4.382.095-8.191-3.639-8.233-8.069-.04-4.279 3.453-7.969 7.71-8.146 4.46-.185 8.299 3.372 8.453 7.831.152 4.377-3.548 8.289-7.93 8.384z"/><g fill="#5a5d5a"><path d="M412.184 286.16c-.212.652-.536 1.177-1.337 1.095-.097-.01-.259-.182-.254-.272.045-.812.648-1.019 1.305-1.158l.286.335z"/><path d="M413.652 285.192l-1.47.965-.284-.333c.376-.585.924-.815 1.602-.782z"/><path d="M413.499 285.041l.396-.477c.52.445-.029.471-.246.627.003.001-.15-.15-.15-.15z"/></g><path fill="#fefdfb" d="M453.283 287.764l-4.486-22.056c-4.501-21.95-11.74-43.005-20.727-63.491-6.649-15.16-15.268-29.176-24.631-42.777-13.354-19.396-31.506-32.154-53.349-40.648-22.46-8.735-45.097-16.555-68.907-20.627-.933-.16-2.178-.241-2.249-1.257-.093-1.319 1.286-.987 2.126-1.144 15.879-2.964 31.415-.923 46.847 3.089 16.302 4.238 30.235 12.731 43.104 23.336 14.357 11.832 29.178 23.151 42.037 36.661 20.939 21.998 34.465 47.931 40.492 77.765 1.849 9.146 2.765 18.416 2.875 27.66.095 7.842-.044 15.846-2.094 23.553l-1.038-.064z"/><path fill="#595a5c" d="M273.894 228.173c.033 14.567-11.453 26.069-26.016 26.055-14.531-.015-26.006-11.556-25.973-26.124.033-14.25 11.583-25.852 25.84-25.951 14.417-.102 26.118 11.541 26.149 26.02z"/></svg>
