<?xml version="1.0" encoding="UTF-8" standalone="no"?>
<!-- Created with Inkscape (http://www.inkscape.org/) -->

<svg
   width="550"
   height="550"
   viewBox="0 0 145.52083 145.52084"
   version="1.1"
   id="svg915"
   inkscape:version="1.2.1 (9c6d41e410, 2022-07-14, custom)"
   sodipodi:docname="defillama.svg"
   xmlns:inkscape="http://www.inkscape.org/namespaces/inkscape"
   xmlns:sodipodi="http://sodipodi.sourceforge.net/DTD/sodipodi-0.dtd"
   xmlns:xlink="http://www.w3.org/1999/xlink"
   xmlns="http://www.w3.org/2000/svg"
   xmlns:svg="http://www.w3.org/2000/svg">
  <sodipodi:namedview
     id="namedview917"
     pagecolor="#ffffff"
     bordercolor="#000000"
     borderopacity="0.25"
     inkscape:showpageshadow="2"
     inkscape:pageopacity="0.0"
     inkscape:pagecheckerboard="0"
     inkscape:deskcolor="#d1d1d1"
     inkscape:document-units="mm"
     showgrid="false"
     inkscape:zoom="0.48315491"
     inkscape:cx="-41.394591"
     inkscape:cy="27.941349"
     inkscape:window-width="1920"
     inkscape:window-height="1011"
     inkscape:window-x="0"
     inkscape:window-y="0"
     inkscape:window-maximized="1"
     inkscape:current-layer="layer1" />
  <defs
     id="defs912">
    <linearGradient
       id="linear-gradient-5"
       x1="34.759998"
       y1="27.73"
       x2="4.2600002"
       y2="8.7700005"
       xlink:href="#linear-gradient"
       gradientTransform="matrix(1.0672682,0,0,1.0672682,13.005559,3.1632294)" />
    <linearGradient
       id="linear-gradient"
       x1="21.35"
       y1="140.45"
       x2="18.879999"
       y2="120.25"
       gradientUnits="userSpaceOnUse">
      <stop
         offset="0.29"
         stop-color="#3a8bff"
         id="stop4" />
      <stop
         offset="1"
         stop-color="#81b5ff"
         id="stop6" />
    </linearGradient>
    <linearGradient
       inkscape:collect="always"
       xlink:href="#linear-gradient-2"
       id="linearGradient233"
       gradientUnits="userSpaceOnUse"
       x1="53.25"
       y1="-13.54"
       x2="4.5100002"
       y2="112.02"
       gradientTransform="matrix(1.0672682,0,0,1.0672682,13.005559,3.1632294)" />
    <linearGradient
       id="linear-gradient-2"
       x1="53.25"
       y1="-13.54"
       x2="4.5100002"
       y2="112.02"
       gradientUnits="userSpaceOnUse">
      <stop
         offset="0.29"
         stop-color="#0062ee"
         id="stop9" />
      <stop
         offset="1"
         stop-color="#00398a"
         id="stop11" />
    </linearGradient>
    <linearGradient
       id="linear-gradient-3"
       x1="77.940002"
       y1="130.62"
       x2="94.449997"
       y2="36.259998"
       xlink:href="#linear-gradient-2"
       gradientTransform="matrix(1.0672682,0,0,1.0672682,13.005559,3.1632294)" />
    <linearGradient
       id="linear-gradient-4"
       x1="58.259998"
       y1="162.52"
       x2="58.259998"
       y2="74.889999"
       gradientUnits="userSpaceOnUse"
       gradientTransform="matrix(1.0672682,0,0,1.0672682,13.005559,3.1632294)">
      <stop
         offset="0.29"
         stop-color="#b3d2ff"
         id="stop15" />
      <stop
         offset="1"
         stop-color="#fff"
         id="stop17" />
    </linearGradient>
  </defs>
  <g
     inkscape:label="Layer 1"
     inkscape:groupmode="layer"
     id="layer1">
    <path
       class="cls-5"
       d="m 43.785553,47.988505 a 3.2018043,3.2018043 0 0 1 -0.266574,2.518756 v 0 a 3.2018043,3.2018043 0 0 1 -2.049153,1.483533 3.116423,3.116423 0 0 1 -2.486733,-0.512281 l -7.908495,-5.709916 a 2.1345363,2.1345363 0 0 1 2.13451,-3.671389 l 8.890336,3.991578 a 3.1270956,3.1270956 0 0 1 1.686288,1.899719 m 0,52.040005 a 3.1270956,3.1270956 0 0 1 -1.696925,1.88908 l -8.89035,4.00223 a 2.1345363,2.1345363 0 0 1 -2.134545,-3.68203 l 7.908447,-5.699224 a 3.1270956,3.1270956 0 0 1 4.365138,0.70433 c 0.0647,0.0851 0.117413,0.18138 0.170596,0.26669 a 3.2018043,3.2018043 0 0 1 0.267041,2.518774 M 27.766129,77.082066 24.372192,75.918771 a 2.5934615,2.5934615 0 0 1 0,-4.909421 l 3.393937,-1.163296 a 3.82082,3.82082 0 1 1 2.45471,7.236061 3.8635105,3.8635105 0 0 1 -2.45471,0 M 67.137644,3.1631332 H 47.52123 A 34.536796,34.536796 0 0 1 13.005798,37.689251 v 87.462619 a 93.076448,93.076448 0 0 0 38.517696,-8.28198 l 1.526218,-45.209501 c -2.700211,-1.334065 -4.631977,-4.877421 -4.631977,-9.018407 0,-4.663966 2.433372,-8.538136 5.645864,-9.413304 a 21.345363,21.345363 0 0 1 2.92432,-7.919122 4.6532888,4.6532888 0 0 1 -3.425913,-2.219906 C 50.659014,38.820583 46.742145,34.44477 43.743118,27.368767 a 3.7567838,3.7567838 0 0 1 0.405542,-3.788799 1.8677191,1.8677191 0 0 1 2.614803,-0.352338 2.2305903,2.2305903 0 0 1 0.234815,0.213372 c 4.642627,4.397137 10.224433,5.709875 13.308809,9.925571 a 5.9446831,5.9446831 0 0 1 0.885831,-1.451483 6.4676447,6.4676447 0 0 1 7.641609,-2.006452 6.60639,6.60639 0 0 1 12.668507,0 6.0834284,6.0834284 0 0 1 4.439798,-0.213372 92.521467,92.521467 0 0 1 13.127416,-18.85862 69.799336,69.799336 0 0 0 -31.932652,-7.6736666"
       id="path37"
       style="isolation:isolate;fill:url(#linearGradient233);stroke-width:1.06727" />
    <path
       class="cls-6"
       d="m 125.9545,75.908276 -3.40457,1.163295 c -4.76396,1.627812 -7.20273,-5.562399 -2.45472,-7.236107 0.79648,-0.266686 1.65826,-0.266686 2.45472,0 l 3.40457,1.163296 c 2.34211,0.798488 2.34211,4.110915 0,4.909455 m -7.18269,29.115065 c -0.5456,0.94986 -1.72144,1.33254 -2.72154,0.88588 l -8.89035,-4.00226 c -1.56788,-0.69554 -2.27508,-2.530404 -1.57953,-4.098324 l 0.16007,-0.30945 c 0.85652,-1.503388 2.77637,-2.016964 4.26906,-1.141976 l 0.26668,0.17096 7.90849,5.69923 c 0.88638,0.64117 1.14436,1.84869 0.59764,2.79625 M 105.46288,47.988708 c 0.27305,-0.841387 0.88963,-1.527739 1.69696,-1.889044 l 8.89036,-3.99159 c 2.34118,-1.058109 4.21233,2.16028 2.13454,3.67139 l -7.90849,5.709878 c -1.4117,1.004915 -3.37078,0.675215 -4.3758,-0.736436 l -0.14933,-0.234704 v 0 c -0.44912,-0.764593 -0.55381,-1.683449 -0.28804,-2.529432 m -0.35201,-33.66164 c -1.9531,-1.259365 -3.95955,-2.422698 -6.040731,-3.489935 -5.142398,5.7163 -9.5522,12.051338 -13.127425,18.858607 1.264436,0.404822 2.379246,1.177793 3.201807,2.219907 0.353425,0.445794 0.65102,0.933278 0.885835,1.451484 2.892295,-3.959543 7.983144,-4.856047 12.444324,-9.103779 0.89236,-0.928242 2.32789,-1.06865 3.38324,-0.330895 0.23104,0.152028 0.43049,0.348147 0.58701,0.576249 0.59623,0.760635 0.7158,1.791283 0.3094,2.668176 l -0.12787,0.299033 c -2.98821,6.937261 -6.883748,11.355771 -9.765378,15.614141 -0.753809,1.238449 -2.038515,2.058147 -3.479299,2.219943 1.480308,2.419536 2.456806,5.113039 2.870955,7.919121 2.892291,0.789751 5.144242,3.991578 5.571112,8.025866 0.0516,0.460649 0.0769,0.92392 0.0739,1.387449 0,3.895496 -1.70767,7.268107 -4.17305,8.75158 -0.144374,0.103004 -0.298062,0.192282 -0.458938,0.266686 v 0.672339 l 2.134946,63.246308 C 122.64821,123.51614 137.238,99.505776 137.23556,73.31498 v 0 c 0.0213,-23.846443 -12.08152,-46.068208 -32.12483,-58.987873"
       id="path41"
       style="isolation:isolate;fill:url(#linear-gradient-3);stroke-width:1.06727"
       sodipodi:nodetypes="csccccccccccccccccccccsccccccccccccccccccccssc" />
    <path
       class="cls-7"
       d="m 88.493432,69.333881 a 4.1943639,4.1943639 0 0 1 -0.234695,4.450522 c -3.041702,4.439814 -7.300119,7.812378 -12.721833,7.812378 H 74.384271 C 69.698968,81.191125 64.778862,78.128182 61.737112,74.446129 a 4.2690725,4.2690725 0 0 1 -0.394871,-4.834758 12.807218,12.807218 0 0 0 1.825033,-6.585056 13.266144,13.266144 0 0 0 -1.558243,-6.243486 4.1836912,4.1836912 0 0 1 0.234815,-4.407849 4.9948146,4.9948146 0 0 0 0.800534,0.843177 6.2328458,6.2328458 0 0 0 7.566934,0.10662 c 0,2.422735 2.444036,4.386489 5.443063,4.386489 a 5.3363405,5.3363405 0 0 0 0.821855,0 c 2.625497,-0.319989 4.631937,-2.134527 4.631937,-4.333108 a 6.2328458,6.2328458 0 0 0 7.673678,-0.159934 l 0.298903,-0.266687 a 4.2690725,4.2690725 0 0 1 -0.394865,3.575356 12.70049,12.70049 0 0 0 -1.792997,6.542346 13.234125,13.234125 0 0 0 1.600916,6.296893 M 106.4132,24.508869 a 2.1345363,2.1345363 0 0 0 -0.58701,-0.576381 2.6148068,2.6148068 0 0 0 -3.34053,0.330895 c -4.461188,4.269076 -9.605417,5.144243 -12.444398,9.103786 a 6.9585882,6.9585882 0 0 0 -0.885829,-1.451484 6.6704256,6.6704256 0 0 0 -3.201807,-2.219906 6.0834284,6.0834284 0 0 0 -4.439849,0.21337 6.60639,6.60639 0 0 0 -12.668459,0 6.4676447,6.4676447 0 0 0 -7.641656,2.006501 5.9446831,5.9446831 0 0 0 -0.885832,1.451485 C 57.233408,29.151389 51.6516,27.838662 47.008971,23.441512 a 1.8570466,1.8570466 0 0 0 -2.636152,-0.138613 1.5795568,1.5795568 0 0 0 -0.256141,0.277587 3.7567838,3.7567838 0 0 0 -0.405537,3.788797 c 2.999041,7.075989 6.915897,11.43043 9.81889,15.720871 a 4.6532888,4.6532888 0 0 0 3.468598,2.219907 21.345363,21.345363 0 0 0 -2.924282,7.919121 c -3.201807,0.875171 -5.645867,4.749339 -5.645867,9.413315 0,4.140987 1.931766,7.684342 4.631931,9.018407 l -1.526171,45.209486 -0.896493,26.58562 h 16.499969 a 69.799336,69.799336 0 0 0 31.932643,-7.67362 l 0.373489,-0.20279 -2.12387,-63.246314 v -0.67234 a 2.8496058,2.8496058 0 0 0 0.458937,-0.266686 c 2.465425,-1.483507 4.173055,-4.856069 4.173055,-8.751577 a 12.092147,12.092147 0 0 0 -0.0739,-1.387439 c -0.42716,-4.034339 -2.679119,-7.236158 -5.57141,-8.025919 a 20.907783,20.907783 0 0 0 -2.924327,-7.919122 4.6853069,4.6853069 0 0 0 3.479285,-2.219953 c 2.88165,-4.269067 6.777172,-8.676882 9.765502,-15.614127 l 0.12787,-0.299033 a 2.5721162,2.5721162 0 0 0 -0.31001,-2.668142"
       id="path43"
       style="isolation:isolate;fill:url(#linear-gradient-4);stroke-width:1.06727" />
    <path
       class="cls-8"
       d="M 47.52099,3.163277 C 47.515108,22.224892 32.067186,37.677594 13.005546,37.689394 V 15.810363 c 0.0059,-6.98235 39.668185,28.732508 12.647123,-12.647086 z"
       id="path45"
       style="isolation:isolate;fill:url(#linear-gradient-5);stroke-width:1.06727"
       sodipodi:nodetypes="ccccc" />
    <path
       class="cls-4"
       d="m 81.502827,64.22168 -3.553996,3.265819 a 2.2305903,2.2305903 0 0 0 -0.629685,1.067332 c -0.234814,0.939148 -0.693782,2.785549 -1.067213,4.535884 a 1.0672681,1.0672681 0 0 1 -1.067332,0.811073 v 0 A 1.0672681,1.0672681 0 0 1 74.117383,73.090715 L 72.986076,68.554831 A 2.1345363,2.1345363 0 0 0 72.356387,67.487499 L 68.802391,64.22168 a 1.0672681,1.0672681 0 0 1 0,-1.504843 1.0672681,1.0672681 0 0 1 0.907154,-0.330905 l 5.336342,0.725775 h 0.288008 l 0.416192,-0.05386 4.920131,-0.67234 a 1.0672681,1.0672681 0 0 1 1.067333,0.597693 1.0672681,1.0672681 0 0 1 -0.245596,1.23803 m 5.336359,-1.195444 a 12.732509,12.732509 0 0 1 1.857033,-6.499637 4.2690725,4.2690725 0 0 0 0.341677,-3.532682 l -0.245597,0.224276 a 6.2328458,6.2328458 0 0 1 -7.620319,0.0647 c 0,2.177233 -1.985102,4.012917 -4.631942,4.311767 a 5.3363405,5.3363405 0 0 1 -0.821735,0 c -2.999026,0 -5.44305,-1.96379 -5.44305,-4.386476 a 6.2328458,6.2328458 0 0 1 -7.62032,-0.0647 4.9948146,4.9948146 0 0 1 -0.800415,-0.843177 4.1836912,4.1836912 0 0 0 -0.234815,4.407814 13.223452,13.223452 0 0 1 1.558241,6.318231 12.732509,12.732509 0 0 1 -1.771672,6.521021 4.2690725,4.2690725 0 0 0 0.394876,4.83471 c 3.063086,3.682089 7.961854,6.745126 12.64717,7.150735 h 1.152633 c 5.421713,0 9.680119,-3.372601 12.721832,-7.812412 a 4.1943639,4.1943639 0 0 0 0.181509,-4.386494 13.234125,13.234125 0 0 1 -1.600927,-6.296857"
       id="path47"
       style="fill:#b3d2ff;fill-rule:evenodd;stroke-width:1.06727" />
  </g>
</svg>
